<?xml version="1.0" encoding="UTF-8"?>
<svg width="100pt" height="100pt" version="1.1" viewBox="0 0 100 100" xmlns="http://www.w3.org/2000/svg">
 <path d="m27.43 79.168c3.6367 0 6.5977-2.9609 6.5977-6.5977 0-3.6367-2.9609-6.5977-6.5977-6.5977-3.6367 0-6.5977 2.957-6.5977 6.5977 0 3.6367 2.9609 6.5977 6.5977 6.5977zm0-9.0312c1.3398 0 2.4297 1.0898 2.4297 2.4297 0.003906 1.3438-1.0859 2.4336-2.4297 2.4336-1.3398 0-2.4297-1.0898-2.4297-2.4297 0-1.3438 1.0898-2.4336 2.4297-2.4336zm29.516-6.5938c0 3.6367 2.9609 6.5977 6.5977 6.5977s6.5977-2.9609 6.5977-6.5977-2.9609-6.5977-6.5977-6.5977-6.5977 2.9609-6.5977 6.5977zm9.0312 0c0 1.3398-1.0898 2.4297-2.4297 2.4297s-2.4297-1.0898-2.4297-2.4297c0-1.3398 1.0898-2.4297 2.4297-2.4297s2.4297 1.0898 2.4297 2.4297zm-15.977-25c3.6367 0 6.5977-2.9609 6.5977-6.5977 0-3.6367-2.9609-6.5977-6.5977-6.5977s-6.5977 2.9609-6.5977 6.5977c0 3.6367 2.9609 6.5977 6.5977 6.5977zm0-9.0273c1.3398 0 2.4297 1.0898 2.4297 2.4297 0 1.3438-1.0898 2.4336-2.4297 2.4336s-2.4297-1.0898-2.4297-2.4297c0-1.3438 1.0898-2.4336 2.4297-2.4336zm-18.055 18.055c3.6367 0 6.5977-2.9609 6.5977-6.5977 0-3.6367-2.9609-6.5977-6.5977-6.5977-3.6367 0-6.5977 2.9609-6.5977 6.5977 0 3.6367 2.9609 6.5977 6.5977 6.5977zm0-9.0312c1.3398 0 2.4297 1.0898 2.4297 2.4297s-1.0898 2.4297-2.4297 2.4297c-1.3398 0-2.4297-1.0898-2.4297-2.4297s1.0898-2.4297 2.4297-2.4297zm49.652-4.5117c3.6367 0 6.5977-2.9609 6.5977-6.5977 0-3.6367-2.9609-6.5977-6.5977-6.5977-3.6367 0-6.5977 2.9609-6.5977 6.5977 0 3.6406 2.9609 6.5977 6.5977 6.5977zm0-9.0273c1.3398 0 2.4297 1.0898 2.4297 2.4297 0 1.3398-1.0898 2.4297-2.4297 2.4297-1.3398 0.003906-2.4297-1.0859-2.4297-2.4297 0-1.3398 1.0898-2.4297 2.4297-2.4297zm0 18.402c-3.6367 0-6.5977 2.9609-6.5977 6.5977s2.9609 6.5977 6.5977 6.5977c3.6367 0 6.5977-2.9609 6.5977-6.5977s-2.9609-6.5977-6.5977-6.5977zm0 9.0273c-1.3398 0-2.4297-1.0898-2.4297-2.4297s1.0898-2.4297 2.4297-2.4297 2.4297 1.0898 2.4297 2.4297-1.0859 2.4297-2.4297 2.4297zm-29.168-6.9453c0 3.6367 2.9609 6.5977 6.5977 6.5977 3.6367 0 6.5977-2.9609 6.5977-6.5977s-2.9609-6.5977-6.5977-6.5977c-3.6367 0-6.5977 2.9609-6.5977 6.5977zm6.5977-2.4297c1.3398 0 2.4297 1.0898 2.4297 2.4297 0.003907 1.3438-1.0859 2.4336-2.4297 2.4336-1.3398 0-2.4297-1.0898-2.4297-2.4297 0-1.3438 1.0898-2.4336 2.4297-2.4336zm-13.543 22.574c3.6367 0 6.5977-2.9609 6.5977-6.5977s-2.9609-6.5977-6.5977-6.5977-6.5977 2.9609-6.5977 6.5977 2.9609 6.5977 6.5977 6.5977zm0-9.0312c1.3398 0 2.4297 1.0898 2.4297 2.4297s-1.0898 2.4297-2.4297 2.4297-2.4297-1.0898-2.4297-2.4297 1.0898-2.4297 2.4297-2.4297zm42.711 29.516c0 1.1523-0.92969 2.082-2.082 2.082h-72.227c-1.1484 0-2.082-0.92969-2.082-2.082v-72.227c0-1.1484 0.93359-2.082 2.082-2.082 1.1484 0 2.082 0.93359 2.082 2.082v70.141h70.141c1.1562 0 2.0859 0.93359 2.0859 2.0859z"/>
</svg>
