<?xml version="1.0" encoding="UTF-8"?>
<svg width="100pt" height="100pt" version="1.1" viewBox="0 0 100 100" xmlns="http://www.w3.org/2000/svg">
 <g>
  <path d="m91.828 54.5h-4v31h-76v-31h-4v35h84z"/>
  <path d="m48 11.5v19h-11l13 13 13-13h-11v-19z"/>
  <path d="m74.48 43.5h16.699v-4h-16.699c-4.2227 0.003906-7.6445 3.4258-7.6523 7.6484v12.352h-11l13 13 13-13h-11v-12.352c0.007813-2.0117 1.6367-3.6445 3.6523-3.6484z"/>
  <path d="m30.172 47.148v12.352h-11l13 13 13-13h-11v-12.352c-0.007813-4.2227-3.4297-7.6445-7.6523-7.6484h-17.691v4h17.703c2.0078 0.011719 3.6328 1.6406 3.6406 3.6484z"/>
 </g>
</svg>
