<?xml version="1.0" encoding="UTF-8"?>
<svg width="100pt" height="100pt" version="1.1" viewBox="0 0 100 100" xmlns="http://www.w3.org/2000/svg">
 <path d="m3.9961 31.012c0-4.418 3.5859-8.0117 7.9922-8.0117h58.023c1.9102 0 3.9766 0.87891 5.2969 2.25l18.43 19.121c3.0234 3.1289 3.0117 8.1406 0 11.258l-18.43 19.121c-1.3281 1.3789-3.3828 2.25-5.2969 2.25h-58.023c-4.418 0-7.9922-3.5898-7.9922-8.0078v-37.98m73.504 24.488c3.0391 0 5.5-2.4609 5.5-5.5s-2.4609-5.5-5.5-5.5-5.5 2.4609-5.5 5.5 2.4609 5.5 5.5 5.5m-49.66-23.191c-0.41797-0.41406-1.0898-0.41406-1.5078 0l-6.0195 6.0195c-0.41797 0.42188-0.41797 1.0938 0 1.5117l10.145 10.16-10.145 10.16c-0.41797 0.41797-0.41797 1.0898 0 1.5117l6.0195 6.0195c0.41797 0.41016 1.0898 0.41016 1.5078 0l10.16-10.172 10.16 10.172c0.41797 0.41016 1.0898 0.41016 1.5078 0l6.0195-6.0195c0.41406-0.42188 0.41406-1.0938 0-1.5117l-10.152-10.16 10.152-10.16c0.41406-0.41797 0.41406-1.0898 0-1.5117l-6.0195-6.0195c-0.41797-0.41406-1.0898-0.41406-1.5078 0l-10.16 10.176-10.16-10.176" fill-rule="evenodd"/>
</svg>
