<?xml version="1.0" encoding="UTF-8"?>
<svg width="100pt" height="100pt" version="1.1" viewBox="0 0 100 100" xmlns="http://www.w3.org/2000/svg">
 <g>
  <path d="m79.102 62.398-17.5 0.5-1.6016-5.3984s0 0.10156-0.10156 0.10156c-1.3984 1.8008-5.1992 6.5-7.8984 10 1.8008 3.6016 5.3984 6 9.5 6h0.30078l17.602-0.5c2.8984-0.10156 5.1992-2.5 5.1016-5.5-0.003906-3-2.5039-5.3008-5.4023-5.2031z"/>
  <path d="m57.699 48.102c-0.80078-3.1016-4.8984-21.398-8.5-23.699-1.3984-0.89844-2.8984-1.1992-4.5-0.80078-1.1016 0.30078-3.3984 0.69922-5.1992 1l-1.8008 0.30078c-1.8984 0.39844-3.1016 0.60156-11.199 13.301-0.19922 0.30078-0.5 0.39844-0.80078 0.39844l-10.898-0.80078c-2.3984-0.19922-4.6016 1.6016-4.8008 4.1016-0.19922 2.3984 1.6016 4.6016 4.1016 4.8008l10.898 0.80078c3.6016 0.30078 7-1.5 8.8984-4.5 0.80078-1.3008 1.5-2.3008 2.1016-3.3008l6.1992 16.898-4.8008 6c-3 3.8008-5.3008 8-6.8008 12.699l-4.8984 15.199c-0.89844 2.8008 0.69922 5.8008 3.5 6.6992 0.5 0.19922 1.1016 0.30078 1.6016 0.30078 2.3008 0 4.3008-1.3984 5.1016-3.6992l4.8984-15.199c1.1016-3.3984 2.6992-6.5 4.8984-9.3008 0 0 8.6992-10.898 10.898-13.699 2.0039-2.4023 1.8008-4.4023 1.1016-7.5z"/>
  <path d="m47.723 10.02c1.2656 5.2617-1.9766 10.555-7.2383 11.816-5.2617 1.2656-10.555-1.9727-11.82-7.2383-1.2656-5.2617 1.9766-10.551 7.2383-11.816 5.2617-1.2656 10.555 1.9766 11.82 7.2383"/>
  <path d="m52.602 22.398c2.1016 2.3984 4.8008 8 8.6016 23.898l0.19922 0.89844c0.19922 0.80078 0.39844 1.6992 0.5 2.6016 10.699 13.301 28 8.3984 28-8.1992-0.003906-20.996-25.004-20.699-37.301-19.199zm23.398 25.902-0.19922 0.10156v1.5977c0 0.30078-0.30078 0.60156-0.60156 0.60156h-1.8008c-0.30078 0-0.60156-0.30078-0.60156-0.60156v-1.6016h-0.19922c-1.8008-0.30078-3.1992-1.8008-3.3984-3.6016 0-0.19922 0-0.30078 0.10156-0.39844 0.10156-0.10156 0.30078-0.19922 0.5-0.19922h1.8984c0.30078 0 0.5 0.19922 0.60156 0.39844 0.10156 0.5 0.5 0.80078 1 0.80078h1.6016c0.89844 0 1.6016-0.60156 1.6992-1.3984 0-0.5-0.10156-0.89844-0.39844-1.3008-0.30078-0.30078-0.69922-0.5-1.1992-0.5h-1.1992c-2.5 0-4.6016-1.8008-4.8008-4.1992-0.19922-2.3008 1.3008-4.5 3.6016-5h0.19922v-1.6992c0-0.30078 0.30078-0.60156 0.60156-0.60156h1.8008c0.30078 0 0.60156 0.30078 0.60156 0.60156v1.6016h0.19922c1.8008 0.30078 3.1992 1.8008 3.3984 3.6016 0 0.19922 0 0.30078-0.10156 0.39844-0.10156 0.10156-0.30078 0.19922-0.39844 0.19922h-1.8984c-0.30078 0-0.5-0.19922-0.60156-0.5-0.10156-0.5-0.5-0.80078-1-0.80078h-1.6016c-0.89844 0-1.6016 0.60156-1.6992 1.3984 0 0.5 0.10156 0.89844 0.39844 1.3008 0.30078 0.30078 0.69922 0.5 1.1992 0.5h1.2969c1.3008 0 2.6016 0.60156 3.3984 1.5 0.89844 1 1.3008 2.3008 1.1992 3.6016-0.19922 2.0977-1.5977 3.6992-3.5977 4.1992z"/>
 </g>
</svg>
