<?xml version="1.0" encoding="UTF-8"?>
<svg width="100pt" height="100pt" version="1.1" viewBox="0 0 100 100" xmlns="http://www.w3.org/2000/svg">
 <g>
  <path d="m30.102 27c0.19922 0.60156 0.80078 0.89844 1.3984 0.89844 0.19922 0 0.39844 0 0.60156-0.10156 0.80078-0.30078 1.1016-1.1992 0.80078-2l-7.2031-16.098c-0.30078-0.80078-1.1992-1.1016-2-0.80078-0.80078 0.30078-1.1016 1.1992-0.80078 2z"/>
  <path d="m18.5 32.5c0.39844 0 0.89844-0.19922 1.1992-0.60156 0.5-0.60156 0.39844-1.6016-0.19922-2.1016l-9.3984-7.5c-0.60156-0.39844-1.6016-0.29688-2.1016 0.30469-0.5 0.60156-0.39844 1.6016 0.19922 2.1016l9.3984 7.5c0.30078 0.19531 0.60156 0.29688 0.90234 0.29688z"/>
  <path d="m66.199 27.602c0.19922 0.10156 0.39844 0.10156 0.60156 0.10156 0.60156 0 1.1016-0.30078 1.3984-0.89844l5.6016-12.199c0.30078-0.80078 0-1.6016-0.69922-2-0.80078-0.30078-1.6016 0-2 0.69922l-5.6016 12.199c-0.39844 0.79688-0.10156 1.6953 0.69922 2.0977z"/>
  <path d="m87.5 21.199c-0.60156-0.5-1.6016-0.5-2.1016 0.19922l-7.5 8.6016c-0.5 0.60156-0.5 1.6016 0.19922 2.1016 0.30078 0.19922 0.60156 0.39844 1 0.39844 0.39844 0 0.80078-0.19922 1.1016-0.5l7.5-8.6992c0.5-0.60156 0.5-1.6016-0.19922-2.1016z"/>
  <path d="m48.898 25.801c0.10156 0 0.10156 0 0 0 0.89844 0 1.5-0.60156 1.5-1.3984l0.40234-10.402c0-0.80078-0.60156-1.5-1.3984-1.5-0.80078 0-1.5 0.60156-1.5 1.3984l-0.30078 10.301c-0.10156 0.90234 0.5 1.6016 1.2969 1.6016z"/>
  <path d="m86.699 60.398c-0.10156-0.39844-0.30078-0.69922-0.60156-0.89844-0.60156-1-1.8008-2.3984-3.8008-3.6992 0.30078-0.39844 0.60156-0.69922 0.69922-1.1016v-0.10156c0.10156-0.30078 2-8.3984-3.8984-14.398-4.3008-4.3008-17.398-7.6016-30-7.6016-6.8008 0-16.5 1-24.102 5.6016-0.89844 0.5-10.301 6.1016-8.8984 18.102 0.10156 0.5 0.19922 0.89844 0.5 1.3008-2.8984 2.1016-5.8008 4.6992-5.5 6.6992 0.10156 0.39844 0.39844 1.5 1.8008 2 0.60156 0.19922 1.1992 0.30078 1.8984 0.30078 1.5 0 2.6992-0.5 3.6016-0.89844v0.19922c0.10156 0.60156 0.10156 1.3008 0.30078 2.1016-0.10156 0.10156-0.10156 0.30078-0.19922 0.39844-1.3008 0.60156-2.8984 1.6992-3 3.3008 0 0.10156 0 0.30078-0.10156 0.39844-0.89844 6.3008 1.1992 10.5 6.3008 12.301 4.6992 1.6992 13.102 3.8008 25.102 3.8008 6 0 12.898-0.5 20.699-1.8984 15.199-2.6992 16.398-5.3984 15.898-13.102 0-0.5-0.10156-1-0.10156-1.6016 0-1-0.5-1.8008-1.1992-2.3008-0.5-0.39844-1.1016-0.60156-1.6992-0.69922 1.1016-0.10156 2.3008-0.30078 3.3984-0.60156 0.5-0.10156 0.89844-0.5 1.1016-1l1.8008-5.5c0.10156-0.30078 0.10156-0.60156 0-1 0.10156 0 0-0.10156 0-0.10156zm-63.898 21.203c-4.6992-1.6992-4.8984-5.5-4.3984-9 0-0.19922 0.10156-0.39844 0.10156-0.5 0-0.10156 0.19922-0.19922 0.30078-0.39844 0.39844 0.30078 1.3984 0.69922 2.6992 1.1992 0.19922 0.10156 0.39844 0.10156 0.60156 0.19922 3.1016 1 7.8984 2.1992 13.801 3 0.89844 1.3984 2 2.5 3.3984 2.5 0.5 0 0.89844-0.10156 1.3984-0.30078 0.69922-0.30078 1.1992-0.89844 1.5-1.5 10.898 0.80078 24.199-0.10156 37.199-5.3984 0.5 0.10156 0.80078 0.19922 0.89844 0.30078 0 0.60156 0.10156 1.1016 0.10156 1.6016 0.39844 5.8984 0.5 7.5-13.398 10-22.703 4.0938-37.402 0.69531-44.203-1.7031zm3.8008-40.902c7-4.3008 16.102-5.1992 22.5-5.1992 12.699 0 24.602 3.5 27.898 6.6992 4.5 4.5 3.3008 10.699 3.1992 11.398-0.10156 0.19922-0.30078 0.39844-0.60156 0.60156-0.39844 0.30078-1.1016 0.60156-1.8984 0.89844-0.60156 0.19922-1.3008 0.5-2.1016 0.69922-1.1992 0.30078-2.5 0.69922-4 1-0.80078 0.19922-1.6992 0.30078-2.6016 0.5-0.60156 0.10156-1.1992 0.19922-1.8008 0.30078-0.80078 0.10156-1.6016 0.19922-2.3984 0.39844-0.69922 0.10156-1.3984 0.19922-2.1992 0.30078-0.69922 0.10156-1.3008 0.19922-2 0.19922-0.69922 0.10156-1.3984 0.19922-2.1992 0.19922-1 0.10156-1.8984 0.19922-3 0.30078-4.3008 0.30078-9 0.5-13.898 0.5-10 0-15.801-0.89844-19-1.8008-0.89844-0.30078-1.6992-0.60156-2.1992-0.80078-0.80078-0.39844-1.1992-0.80078-1.1992-1.1016-1.2031-10.395 7-14.895 7.5-15.094-0.10156 0 0 0 0 0zm7.1992 28.5h-0.80078l-1.5-0.80078c1.1016-0.69922 1.8008-1 2.1016-1.1992v0.5c0.097657 0.30078 0.097657 0.90234 0.19922 1.5zm36.098-1.1992c-0.5 0.69922-1 1.1016-2 1-1.5-0.19922-1.5 0-2.1992-0.69922-0.39844-0.39844-1.1016-1.1016-1.8984-1.3984 0-0.10156 0.10156-0.30078 0.10156-0.39844 1.7969 0.49609 3.7969 1.0977 5.9961 1.4961zm-17.699 1.8008c0.10156-0.30078 0.19922-0.60156 0.30078-0.89844 0.10156-0.69922 1.6016-0.80078 1.8984-0.80078 1.3984 0 3 0.5 4.1016 1.3008 0.10156 0.10156 0.19922 0.10156 0.30078 0.19922-0.10156 0.10156-0.19922 0.19922-0.30078 0.19922-0.5 0.39844-1 0.69922-1.5 1.1016-1.5 0.89844-3.6016 1.5-3.6016 1.5s-3 1-4.5-0.5c1.5-0.003906 2.7031-0.80078 3.3008-2.1016zm28.5-10.102c-2.8008 0.19922-5.3008 0.10156-7.3984-0.19922 1-0.19922 1.8984-0.5 2.8008-0.69922 1.3008-0.39844 2.5-0.80078 3.3984-1.3008 1.1992 0.60156 2.1992 1.3008 2.8008 2-0.5 0.10156-1 0.19922-1.6016 0.19922zm-61.699-0.097657c1.3984 0.80078 3.3984 1.3984 5.8984 1.8984l-1.8008 3c-0.39844 0.69922-0.19922 1.6016 0.5 2.1016 0.19922 0.10156 0.5 0.19922 0.80078 0.19922 0.5 0 1-0.30078 1.3008-0.69922l2.3984-4c3.3984 0.39844 7.6016 0.60156 12.398 0.69922l0.39844 2.3008c0.10156 0.69922 0.80078 1.1992 1.5 1.1992h0.30078c0.80078-0.19922 1.3008-0.89844 1.1992-1.8008l-0.30078-1.8008c3.6016-0.10156 8-0.19922 12.5-0.60156 0.80078-0.10156 1.5-0.10156 2.3008-0.19922 0.39844 0 0.69922-0.10156 1.1016-0.10156 0.5 0.60156 0.89844 1.3008 1.1992 1.8984 0.30078 0.60156 0.39844 1.3008 0.39844 1.8008v0.60156c-0.10156 0.80078-0.5 1.1992-0.5 1.1992s-0.10156 0-0.10156-0.10156c-1.6016-1.1992-3.8008-1.8984-5.8984-1.8984-2.6016 0-4.3984 1.1992-4.8008 3.1992 0 0.19922-0.10156 0.60156-0.89844 0.60156-0.80078 0-2.1992-0.5-3.3008-1.6016-0.5-0.5-1.1016-0.80078-1.6992-0.80078-1.1992 0-1.8008 0.80078-2.1992 2-0.10156 0.30078-0.19922 0.60156-0.30078 1-0.10156 0.5-0.19922 1-0.30078 1.5-0.19922 1.5-0.69922 4.1016-1.5 4.6016-0.80078-0.30078-2.1016-3.5-2.5-6.1992 0-0.10156 0-0.30078-0.10156-0.39844-0.10156-0.5-0.10156-0.89844-0.10156-1.3984 0-3.1992-1.8984-3.6016-2.6992-3.6016-1 0-2.5 0.39844-6 3.1016-0.60156 0.39844-1.1992 0.89844-1.8984 1.5-0.19922 0.19922-0.5 0.39844-0.69922 0.5-1.1992 0.89844-1.8984 1-2.1992 1-0.39844 0-0.69922-0.39844-1-1-0.10156-0.30078-0.19922-0.60156-0.30078-0.89844-0.10156-0.5-0.19922-1-0.30078-1.5-0.10156-0.5-0.10156-0.89844-0.10156-1.1992 0-0.5-0.10156-0.89844-0.10156-1.1992-0.19922-1.5-1.3008-2-2.1016-2-0.60156 0-1.1992 0.19922-1.8984 0.5-0.89844 0.30078-1.8984 0.80078-2.8984 0.60156 0.41016-1.0039 2.3086-2.6055 4.3086-4.0039zm63.398 5.6992c-0.89844 0.19922-1.8008 0.30078-2.6016 0.39844-2.3984 0.19922-4.8008 0.10156-7-0.19922-3.5-0.5-6.6016-1.3984-9.1016-2.3008-0.19922-0.60156-0.39844-1.1992-0.80078-1.8008 1.3008-0.19922 2.6016-0.30078 3.8984-0.5 2.6016 1.1016 6.1992 2.1016 11 2.1016 1.6992 0 3.6016-0.10156 5.6016-0.39844z"/>
 </g>
</svg>
