<?xml version="1.0" encoding="UTF-8"?>
<svg width="100pt" height="100pt" version="1.1" viewBox="0 0 100 100" xmlns="http://www.w3.org/2000/svg">
 <path d="m99.668 69.688c-0.91797-1.375 2.082-1.0195-47.582 0l-0.003907-5.1055h37.5c0.60547 0.007813 1.1797-0.25 1.5781-0.70312 0.40234-0.44922 0.58594-1.0508 0.50781-1.6484l-1.332-9.793h-0.003907c-3.2305-23.086-18.172-42.859-39.5-52.27-0.5625-0.16797 0.66797-0.16797-17.5-0.16797-1.1484 0-2.082 0.93359-2.082 2.082v10.418c0 0.55078 0.21875 1.082 0.60938 1.4727s0.92188 0.60938 1.4727 0.60938h14.188l-30.52 46.773c-0.42188 0.64062-0.45703 1.4609-0.089844 2.1367 0.36328 0.67578 1.0703 1.0938 1.8398 1.0898h29.168v5.25c-49.73 1-46.836 0.58594-47.648 2.0625-0.8125 1.4805-1.1055 0.16797 14.582 27.082 0.91797 1.582-3 1.043 70.543 1.043 1.875 0 1.0195 0.66797 14.395-28.293l0.003907 0.003907c0.31641-0.65625 0.26953-1.4297-0.125-2.043zm-47.586-57.043c5.0234 13.105 5.0234 27.605 0 40.711zm34.105 40.355 1 7.418h-33.707c7.9648-15.734 8.7227-34.145 2.082-50.48l-1.457-3.5195c17.438 9.6016 29.324 26.867 32.082 46.582zm-50.77-48.832h12.5v6.25h-12.5zm12.5 17.418v38.832h-25.312zm36.164 74.246h-66.227l-12.188-20.832 88.957-2.082z"/>
</svg>
