<?xml version="1.0" encoding="UTF-8"?>
<svg width="100pt" height="100pt" version="1.1" viewBox="0 0 100 100" xmlns="http://www.w3.org/2000/svg">
 <g>
  <path d="m13.398 38.801c0.39844-0.80078 1-1.3984 1.6992-1.8984 0.30078-0.19922 0.5-0.30078 0.80078-0.5l-2.1992 9.8984c-0.39844 1.8984 0 4 1.1016 5.6016 1 1.5 2.6992 2.6016 4.5 3l-5.1016 23.301 9.3008-2.6016 4.1016-19.301 5 0.80078 2.3008 9.6992 0.5-0.60156c1-1.1992 2.3008-2.1016 3.8008-2.6016l3.5-1.1016-1.8984-8.1992c-0.69922-2.8984-3-5.1016-5.8984-5.5l-5.3984-0.89844 2-9.3984c0.19922 0.30078 0.39844 0.5 0.60156 0.80078 1.3984 2 3.6016 3.3984 6.1016 3.6992l7.5 1c0.80078 0.10156 1.6016-0.10156 2.3008-0.39844 1-0.60156 1.6992-1.5 1.8984-2.8008 0.30078-2-1.1016-3.8984-3.1992-4.1992l-7.5-1c-0.39844-0.10156-0.80078-0.30078-1-0.60156-6.3984-9.1016-7.6992-9.6016-9.6016-9.6992l-6.1016-0.30078c-1.1992-0.10156-2.3008-0.10156-11.398 5.3984-1.8984 1.1016-3.5 2.8008-4.5 4.8008l-3.7109 7.8008c-0.89844 1.8008-0.19922 4 1.6016 5 1.8008 0.89844 4.1016 0.19922 5-1.6016z"/>
  <path d="m27.723 7.0703c4.5039 0.44141 7.8008 4.4531 7.3633 8.9609-0.44141 4.5078-4.4531 7.8047-8.9609 7.3633-4.5078-0.44141-7.8047-4.4531-7.3633-8.957 0.44141-4.5078 4.4531-7.8047 8.9609-7.3672"/>
  <path d="m97.301 89.699-7.6016-23.301c-0.10156-0.30078-0.19922-0.60156-0.39844-0.89844l-13.5-20.398c-0.19922-0.39844-0.5-0.60156-0.89844-0.89844l-0.003906-36.402c0-1.1992-1-2.1992-2.1992-2.1992s-2.1992 1-2.1992 2.1992v1.1992h-13.5c-1.1992 0-2.1016 0.89844-2.1016 2.1016v11c0 1.1992 0.89844 2.1016 2.1016 2.1016h13.602v20.102c-0.30078 0.19922-0.5 0.39844-0.69922 0.69922l-12.301 16.895c-0.5 0.60156-1.1016 1.1016-1.8984 1.3008l-15.199 4.6992c-0.69922 0.19922-1.3008 0.60156-1.8008 1.1992l-6.3008 7.8984c-0.5 0.60156-1.1016 1-1.8008 1.1992l-16.5 4.6016c-1 0.30078-1.8008 1-2.3008 1.8984l-2.1992 4.6016c-1.1992 2.3984 0.60156 5.1992 3.1992 5.1992h81.102c2.3984-0.097656 4.1992-2.4961 3.3984-4.7969z"/>
 </g>
</svg>
