<?xml version="1.0" encoding="UTF-8"?>
<svg width="100pt" height="100pt" version="1.1" viewBox="0 0 100 100" xmlns="http://www.w3.org/2000/svg">
 <g>
  <path d="m43.34 22.891 1.3867-2.8594c-3.1211-0.80469-5.5273-3.2891-6.2344-6.4336-0.70703-3.1445 0.40625-6.418 2.8828-8.4805 2.4727-2.0664 5.8945-2.5664 8.8594-1.3047s4.9766 4.0781 5.2031 7.293c0.96484 0.17188 2.0352 0.38672 3.1562 0.64453v-0.03125c0-4.4141-2.4805-8.457-6.418-10.453s-8.6641-1.6133-12.227 0.99609-5.3555 7-4.6367 11.355c0.71484 4.3594 3.8203 7.9414 8.0273 9.2734z"/>
  <path d="m36.457 40.234c-0.86328 0-1.5625 0.69922-1.5625 1.5625v5.1641l-0.73047 0.47266h0.003907c-0.34766 0.22656-0.59375 0.58203-0.67969 0.98828-0.085937 0.40625-0.007812 0.82812 0.21875 1.1758 0.22656 0.34766 0.57812 0.59375 0.98438 0.67578 0.40625 0.085937 0.83203 0.007812 1.1797-0.21875l9.4375-6.1367c-0.09375-0.14844-0.18359-0.28516-0.28125-0.44141-0.48047-0.76562-0.91016-1.5117-1.3125-2.2461l-5.6953 3.6992v-3.1328c0-0.86328-0.69922-1.5625-1.5625-1.5625z"/>
  <path d="m49.898 16.52-5.4297 11.215c-2.0234 4.1797 0.62891 9.9648 3.207 14.078 2.1641 3.457 2.4453 3.5 3.2383 3.5h0.03125c1.3867-0.039062 13.656-0.55469 16.648-6.7383l5.4141-11.184c0.86719-1.7852 0.39063-3.9336-1.1484-5.1914-2.2812-1.8789-5.5039-4.3516-7.9023-5.4688-3.0039-1.2305-6.1406-2.1055-9.3477-2.6016-1.9258-0.33984-3.8477 0.63281-4.7109 2.3906zm19.977 8.0938c0.42188 0.33984 0.55469 0.92578 0.32031 1.4141l-5.4141 11.188c-1.707 3.5273-9.4219 4.7109-13.129 4.9375-2.0742-2.8633-6.0625-9.5664-4.375-13.055l5.4297-11.215h0.003907c0.21094-0.42969 0.65234-0.69922 1.1328-0.69531 0.074219 0 0.14844 0.007812 0.22266 0.019531 2.9375 0.46094 5.8125 1.25 8.5703 2.3555 2.5898 1.418 5.0156 3.1094 7.2383 5.0508z"/>
  <path d="m55.242 25.34c0.94922 0.38672 1.9922 0.47656 2.9922 0.25-0.45703-0.90625-1.1875-1.6484-2.0859-2.1211-0.94922-0.38672-1.9922-0.47266-2.9922-0.24609 0.45703 0.90625 1.1875 1.6445 2.0859 2.1172z"/>
  <path d="m62.859 28.895c0.94922 0.38672 1.9922 0.47266 2.9922 0.25-0.45703-0.90625-1.1875-1.6484-2.0859-2.1211-0.94922-0.38672-1.9922-0.47266-2.9922-0.25 0.45703 0.91016 1.1875 1.6484 2.0859 2.1211z"/>
  <path d="m56.066 32.781c-0.6875-0.39062-1.1836-1.0508-1.3633-1.8203-0.11328-0.85547-0.89844-1.457-1.7539-1.3438-0.85547 0.11328-1.457 0.89844-1.3398 1.7539 0.29297 1.6953 1.3125 3.1758 2.7891 4.0547 1.0742 0.67578 2.3203 1.0352 3.5898 1.0352 0.71875 0 1.4336-0.11328 2.1172-0.33594 0.82031-0.26953 1.2656-1.1523 1-1.9688-0.26562-0.82031-1.1484-1.2695-1.9688-1.0039-1.0273 0.34766-2.1562 0.21094-3.0703-0.37109z"/>
  <path d="m28.629 60.887c1.2578 0.67578 2.7891 0.60938 3.9805-0.17969l1.7656-1.168v36.906c0.058594 2.0156 1.7344 3.6055 3.75 3.5547h17.5c2.0156 0.050781 3.6914-1.5391 3.75-3.5547v-31.105h4.168c1.9844 0.023437 3.6133-1.5586 3.6445-3.543v-18.02c-0.47266 0.36328-0.96875 0.69922-1.4844 1.0039l-0.035156 0.023438c-0.51953 0.30859-1.0547 0.58984-1.6055 0.85156v16.141c-0.035156 0.25391-0.26562 0.4375-0.51953 0.41797h-4.168v-14.93c-1.082 0.27344-2.1406 0.48047-3.125 0.64062v48.52c0 0.20313-0.25781 0.42969-0.625 0.42969h-7.1875v-31.117c0-0.86328-0.69922-1.5625-1.5625-1.5625s-1.5625 0.69922-1.5625 1.5625v31.117h-7.1875c-0.36719 0-0.625-0.22656-0.625-0.42969v-38.969l12.258-8.0977c0.375-0.25 0.69531-0.57812 0.92969-0.96094-1.168-0.023438-2.2812-0.51172-3.0859-1.3594l-12.312 8.1328c-0.14062 0.066406-0.26953 0.15234-0.38672 0.25391l-4.0156 2.6523c-0.23047 0.16016-0.53125 0.17578-0.77734 0.035156-0.26562-0.14062-0.42969-0.41797-0.42188-0.71875v-19.387c0-4.5977 3.9727-8.3398 8.8555-8.3398h2.1641-0.003906c0.125-1.082 0.41797-2.1367 0.87109-3.125h-3.0312c-6.6055 0-11.98 5.1445-11.98 11.465v19.387c-0.003906 1.4492 0.78906 2.7852 2.0664 3.4727z"/>
 </g>
</svg>
