<?xml version="1.0" encoding="UTF-8"?>
<svg width="100pt" height="100pt" version="1.1" viewBox="0 0 100 100" xmlns="http://www.w3.org/2000/svg">
 <g>
  <path d="m99.965 25.477c-0.0625-0.28125-1.5117-6.6133-7.4062-8.3516-0.79297-1.5898-1.8711-3.0234-3.1719-4.2344 0.29688-0.79297 0.45312-1.6289 0.45703-2.4727 0.058594-2.8867-1.7266-5.4883-4.4414-6.4727-0.90234-2.375-3.1758-3.9453-5.7148-3.9453s-4.8125 1.5703-5.7148 3.9453c-2.7148 0.98438-4.5 3.5859-4.4414 6.4727 0 1.1641 0.28516 2.3125 0.83594 3.3438-2.9609 3.3008-4.7148 8.2539-6.5 14.039-2.2266 7.2227-9.7266 15.484-23.449 14.945-6.7383-0.25781-20.223-2.3516-34.781-13.516-0.61328-0.47266-1.4805-0.42188-2.0352 0.11719-0.55859 0.53906-0.63672 1.4023-0.18359 2.0312 4.2891 5.8828 9.1523 11.324 14.512 16.25-5.3086-1.5547-10.762-2.5586-16.277-2.9961-0.67188-0.039062-1.293 0.35547-1.543 0.98438-0.24609 0.625-0.066406 1.3398 0.44922 1.7734 0.31641 0.26562 6.082 5.0859 10.578 8.6836-3.5703 0.082031-8.1094 0.44922-10.188 1.7031h0.003906c-0.46875 0.28125-0.75391 0.78125-0.75781 1.3242-0.003906 0.54688 0.27344 1.0508 0.73438 1.3398 1.7773 1.0703 3.4609 2.293 5.0273 3.6523 0.15625 0.16406 0.52734 0.67969 0.91797 1.2188 3.6055 5.0742 7.9844 9.5469 12.98 13.258 4.8555 3.5469 10.277 6.2383 16.039 7.9609 3.8555 1.1406 7.8164 1.8906 11.824 2.2422l4.0508 8.1016h-2.9414c-0.86328 0-1.5625 0.69922-1.5625 1.5625s0.69922 1.5625 1.5625 1.5625h10.156c0.86328 0 1.5625-0.69922 1.5625-1.5625s-0.69922-1.5625-1.5625-1.5625h-3.7227l-3.9336-7.8711c0.90625 0.035156 1.8203 0.058594 2.7422 0.058594 0.30469 0 30.699-0.29297 37.504-25.59 2.4922-9.2578-0.23438-18.949-2.5-25.434-1.1328-3.2461-0.97656-6.3203 0.4375-8.4297 1.6992-2.543 5.9102-2.8438 8.6094-2.2656v-0.003906c0.51562 0.10547 1.0547-0.054688 1.4258-0.42969 0.375-0.37891 0.53125-0.91797 0.41797-1.4336zm-24.145-18.707c0.23828 0.003907 0.47656 0.035157 0.70703 0.097657-0.16406-0.054688 0.082031-0.9375 0.11328-1.0586 0.18359-1.4883 1.418-2.6211 2.9141-2.6797 1.4961-0.058594 2.8164 0.97266 3.1172 2.4414 0.12891 0.39844 0.1875 0.8125 0.17969 1.2266l-0.003906 0.070313c0.23047-0.0625 0.46875-0.09375 0.70703-0.097657 1.7461 0 3.1641 1.6328 3.1641 3.6445v0.003907c0 0.17188-0.011719 0.34375-0.035156 0.51172-3.2383-1.7266-7.0508-2.043-10.531-0.875-1.1758 0.34375-2.293 0.86328-3.3125 1.543-0.11719-0.38281-0.17969-0.78125-0.18359-1.1797 0-2.0156 1.418-3.6484 3.1641-3.6484zm15.34 17.973c-1.7188 0.55469-3.2109 1.6523-4.25 3.1289-1.9609 2.9375-2.2461 7.0156-0.78516 11.199 2.1289 6.0938 4.6992 15.168 2.4336 23.594-5.8125 21.613-30.879 23.16-34.137 23.27 15.059-5.8711 17.363-22.277 17.391-22.48 0.10938-0.85547-0.49609-1.6406-1.3516-1.75-0.85938-0.10938-1.6406 0.49609-1.75 1.3516-0.125 0.875-0.30859 1.7422-0.54688 2.5898-0.50391 1.8789-1.1914 3.7031-2.0508 5.4414-1.1367 2.3164-2.6133 4.4492-4.3789 6.3242-2.1289 2.2383-4.6875 4.0234-7.5195 5.2461-1.4922 0.64062-3.043 1.1406-4.6289 1.4883-2.4219 0.51953-4.8984 0.76172-7.3789 0.71875-20.125-3.7969-29.402-16.668-32.797-21.375-0.36328-0.53516-0.75391-1.0508-1.1758-1.5391-0.87891-0.84766-1.8281-1.6133-2.8398-2.2969 3.4062-0.42578 6.8398-0.56641 10.27-0.42578 0.68359 0.027344 1.3047-0.39453 1.5312-1.043 0.22656-0.64453 0.007813-1.3633-0.53906-1.7695-2.3242-1.7305-6.8047-5.3867-10.09-8.1016h-0.003906c6.8945 1.1953 13.664 3.0352 20.215 5.4883 0.78125 0.30469 1.6641-0.0625 2-0.83203 0.33203-0.76953 0.003906-1.6641-0.75391-2.0312-5.4961-2.6641-11.434-8.6055-15.762-13.551 11.855 6.7773 22.277 8.2617 28.039 8.4805 15.523 0.59375 24-8.8672 26.551-17.145 2.5195-8.1602 4.7227-14.062 10.184-15.668 9.2344-2.7227 12.816 5.6367 12.965 5.9922 0.19531 0.48047 0.61719 0.83203 1.125 0.9375 2.1719 0.51172 3.9961 1.9844 4.9531 4.0039-1.6719-0.035156-3.3359 0.21875-4.918 0.75391z"/>
  <path d="m85.938 19.531c0 2.082-3.125 2.082-3.125 0s3.125-2.082 3.125 0"/>
 </g>
</svg>
