<?xml version="1.0" encoding="UTF-8"?>
<svg width="100pt" height="100pt" version="1.1" viewBox="0 0 100 100" xmlns="http://www.w3.org/2000/svg">
 <g>
  <path d="m16.754 30.406c-3.5938 0-6.5234 2.9258-6.5234 6.5234 0 3.043 2.0859 5.5938 4.8984 6.3047v46.086c0 3.8984 3.1602 7.0586 7.0586 7.0586 3.8828 0 7.0586-3.1602 7.0586-7.0586v-0.46484c1.1602 0.87109 2.5938 1.375 4.1445 1.375 3.8984 0 7.0586-3.1758 7.0586-7.0586v-0.47656c1.1758 0.87109 2.6094 1.375 4.1602 1.375 3.8984 0 7.0586-3.1602 7.0586-7.0586v-0.46484c1.1758 0.87109 2.6094 1.3633 4.1602 1.3633 3.8828 0 7.0586-3.1602 7.0586-7.043v-1.7109c1.1602 0.87109 2.5938 1.375 4.1445 1.375 3.8984 0 7.0586-3.1758 7.0586-7.0586v-1.0859c1.1758 0.87109 2.6094 1.375 4.1602 1.375 3.8984 0 7.0586-3.1758 7.0586-7.0586v-13.594c2.5938-0.87109 4.4648-3.3047 4.4648-6.1875 0-3.5938-2.9258-6.5234-6.5234-6.5234h-5.5664l-21.395-21.531c-0.76953-3.0117-3.5078-5.2422-6.7539-5.2422-3.6367 0-6.6367 2.8086-6.957 6.3594l-20.258 20.422zm9.5938 58.914c0 2.3047-1.8711 4.1602-4.1602 4.1602s-4.1602-1.8555-4.1602-4.1602v-45.871h8.3203v45.871zm11.203-6.1445c0 2.2891-1.8555 4.1602-4.1602 4.1602-2.2891 0-4.1445-1.8711-4.1445-4.1602v-39.727h8.3047v39.727zm11.219-6.1602c0 2.2891-1.8711 4.1602-4.1602 4.1602s-4.1602-1.8711-4.1602-4.1602v-33.566h8.3203v33.566zm11.215-6.1445c0 2.2891-1.8711 4.1445-4.1602 4.1445-2.2891 0-4.1602-1.8555-4.1602-4.1445l0.003907-27.422h8.3203c-0.003906 6.5039-0.003906 20.977-0.003906 27.422zm11.203-7.3945c0 2.2891-1.8555 4.1602-4.1602 4.1602-2.2891 0-4.1445-1.8711-4.1445-4.1602v-20.027h8.3047v20.027zm11.219-6.7656c0 2.2891-1.8711 4.1602-4.1602 4.1602-2.2891 0-4.1602-1.8711-4.1602-4.1602v-13.262h8.3203zm4.4648-19.785c0 2-1.6367 3.625-3.625 3.625h-66.668c-1.9141-0.085937-3.4492-1.6797-3.4492-3.625 0-2 1.625-3.625 3.625-3.625h66.492c1.9844 0.003907 3.625 1.625 3.625 3.625zm-37.336-30.402c2.2461 0 4.0898 1.8398 4.0898 4.0859 0 2.2617-1.8398 4.1016-4.0859 4.1016-2.2617 0-4.0859-1.8398-4.0859-4.1016-0.003906-2.2461 1.8203-4.0859 4.082-4.0859zm-6.3477 6.9648v0.003907 0.015624c1.0859 2.4219 3.5234 4.1016 6.3477 4.1016 3.0742 0 5.6797-2 6.6094-4.7695l17.445 17.566h-47.184z"/>
  <path d="m22.199 50.551c-1.1523 0-2.1094 0.92578-2.1094 2.1094 0 1.1523 0.96094 2.0781 2.1094 2.0781 1.1523 0 2.0781-0.92578 2.0781-2.0781 0-1.1797-0.92578-2.1094-2.0781-2.1094z"/>
  <path d="m33.414 50.551c-1.1523 0-2.1094 0.92578-2.1094 2.1094 0 1.1523 0.96094 2.0781 2.1094 2.0781 1.1523 0 2.0781-0.92578 2.0781-2.0781 0-1.1797-0.92969-2.1094-2.0781-2.1094z"/>
  <path d="m44.625 50.551c-1.1523 0-2.1094 0.92578-2.1094 2.1094 0 1.1523 0.96094 2.0781 2.1094 2.0781 1.1523 0 2.0781-0.92578 2.0781-2.0781 0-1.1797-0.92578-2.1094-2.0781-2.1094z"/>
  <path d="m55.836 50.551c-1.1523 0-2.1094 0.92578-2.1094 2.1094 0 1.1523 0.96094 2.0781 2.1094 2.0781 1.1523 0 2.0781-0.92578 2.0781-2.0781 0.003907-1.1797-0.92578-2.1094-2.0781-2.1094z"/>
  <path d="m67.051 50.551c-1.1523 0-2.1094 0.92578-2.1094 2.1094 0 1.1523 0.96094 2.0781 2.1094 2.0781 1.1523 0 2.0781-0.92578 2.0781-2.0781 0-1.1797-0.92578-2.1094-2.0781-2.1094z"/>
  <path d="m78.262 54.742c1.1523 0 2.0781-0.92578 2.0781-2.0781 0-1.1836-0.92578-2.1094-2.0781-2.1094-1.1523 0-2.1094 0.92578-2.1094 2.1094 0 1.1484 0.96094 2.0781 2.1094 2.0781z"/>
 </g>
</svg>
