<?xml version="1.0" encoding="UTF-8"?>
<svg width="100pt" height="100pt" version="1.1" viewBox="0 0 100 100" xmlns="http://www.w3.org/2000/svg">
 <g>
  <path d="m84.301 44.5-16.902-16.801c-1.3008-1.3008-3-2-4.8984-2-1.8008 0-3.6016 0.69922-4.8984 2l-10.602 10.699c-0.60156 0.60156-0.60156 1.5 0 2.1016s1.5 0.60156 2.1016 0l10.699-10.699c1.5-1.5 4-1.5 5.5 0l16.898 16.898c1.5 1.5 1.5 4 0 5.5l-30.398 30.301c-1.5 1.5-4 1.5-5.5 0l-16.902-16.801c-1.5-1.5-1.5-4 0-5.5l2.1016-2.1016c0.60156-0.60156 0.60156-1.5 0-2.1016-0.60156-0.60156-1.5-0.60156-2.1016 0l-2.1016 2.1016c-1.3008 1.3008-2 3-2 4.8984 0 1.8984 0.69922 3.6016 2 4.8984l16.898 16.898c1.3008 1.3008 3.1016 2 4.8984 2 1.8008 0 3.5-0.69922 4.8984-2l30.398-30.398c1.3008-1.3008 2-3 2-4.8984-0.089844-1.8945-0.78906-3.6953-2.0898-4.9961z"/>
  <path d="m32 35.602c0-5.1016-4.1016-9.1992-9.1992-9.1992-5.1016 0-9.1992 4.1016-9.1992 9.1992 0 5 4.1016 9.1992 9.1992 9.1992 5.0977 0 9.1992-4.1992 9.1992-9.1992zm-9.1992 6.0977c-3.3984 0-6.1992-2.8008-6.1992-6.1992s2.8008-6.1992 6.1992-6.1992c3.3984 0 6.1992 2.8008 6.1992 6.1992 0 3.5-2.8008 6.1992-6.1992 6.1992z"/>
  <path d="m40.602 42.898c-4.3008 0-7.8008 3.5-7.8008 7.8008s3.5 7.8008 7.8008 7.8008c4.3008 0 7.8008-3.5 7.8008-7.8008-0.003906-4.3008-3.5039-7.8008-7.8008-7.8008zm0 12.5c-2.6016 0-4.8008-2.1016-4.8008-4.8008 0-2.6992 2.1016-4.8008 4.8008-4.8008 2.6992 0 4.8008 2.1016 4.8008 4.8008-0.003906 2.7031-2.2031 4.8008-4.8008 4.8008z"/>
  <path d="m38.199 27.199c3.8008 0 6.8984-3.1016 6.8984-6.8984 0-3.8008-3.1016-6.8984-6.8984-6.8984-3.8008 0-6.8984 3.1016-6.8984 6.8984 0 3.8008 3 6.8984 6.8984 6.8984zm0-10.898c2.1992 0 3.8984 1.8008 3.8984 3.8984 0 2.1016-1.8008 3.8984-3.8984 3.8984-2.1016 0-3.8984-1.8008-3.8984-3.8984 0-2.0977 1.6992-3.8984 3.8984-3.8984z"/>
  <path d="m65 60c0.80078 0 1.5-0.69922 1.5-1.5s-0.69922-1.5-1.5-1.5h-12.398c-0.80078 0-1.5 0.69922-1.5 1.5s0.69922 1.5 1.5 1.5z"/>
  <path d="m42.898 72.898c-0.80078 0-1.5 0.69922-1.5 1.5 0 0.80078 0.69922 1.5 1.5 1.5h8c0.80078 0 1.5-0.69922 1.5-1.5 0-0.80078-0.69922-1.5-1.5-1.5z"/>
  <path d="m36.699 66.5c0 0.80078 0.69922 1.5 1.5 1.5h20.602c0.80078 0 1.5-0.69922 1.5-1.5s-0.69922-1.5-1.5-1.5h-20.602c-0.89844 0-1.5 0.69922-1.5 1.5z"/>
 </g>
</svg>
