<?xml version="1.0" encoding="UTF-8"?>
<svg width="100pt" height="100pt" version="1.1" viewBox="0 0 100 100" xmlns="http://www.w3.org/2000/svg">
 <g fill-rule="evenodd">
  <path d="m14.582 43.75v2.082c0 2.5273 1.5234 4.8086 3.8594 5.7773 2.3359 0.96484 5.0234 0.42969 6.8125-1.3555l6.5039-6.5039h22.41c2.7617 0 5.4102-1.0977 7.3672-3.0508 1.9492-1.9531 3.0469-4.6016 3.0469-7.3672v-16.664c0-2.7656-1.0977-5.4141-3.0469-7.3672-1.957-1.9531-4.6055-3.0508-7.3672-3.0508h-41.668c-2.7617 0-5.4141 1.0977-7.3672 3.0508-1.9531 1.9531-3.0508 4.6016-3.0508 7.3672v16.664c0 2.7656 1.0977 5.4141 3.0508 7.3672 1.9531 1.9531 4.6055 3.0508 7.3672 3.0508h2.082zm4.168-2.082c0-1.1523-0.93359-2.0859-2.082-2.0859h-4.168c-1.6602 0-3.2461-0.65625-4.418-1.8281s-1.832-2.7617-1.832-4.4219v-16.664c0-1.6602 0.66016-3.25 1.832-4.4219s2.7578-1.8281 4.418-1.8281h41.668c1.6562 0 3.2461 0.65625 4.418 1.8281 1.1719 1.1719 1.832 2.7617 1.832 4.4219v16.664c0 1.6602-0.66016 3.25-1.832 4.4219-1.1719 1.1719-2.7617 1.8281-4.418 1.8281h-23.277c-0.55078 0-1.082 0.21875-1.4727 0.61328l-7.1133 7.1094c-0.59375 0.59766-1.4883 0.77734-2.2695 0.45312-0.77734-0.32422-1.2852-1.082-1.2852-1.9258v-4.1641z"/>
  <path d="m85.418 85.418h2.082c2.7617 0 5.4141-1.0977 7.3672-3.0508 1.9531-1.9531 3.0508-4.6055 3.0508-7.3672v-16.668c0-2.7617-1.0977-5.4102-3.0508-7.3672-1.9531-1.9492-4.6055-3.0469-7.3672-3.0469h-41.668c-2.7617 0-5.4102 1.0977-7.3672 3.0469-1.9492 1.957-3.0469 4.6055-3.0469 7.3672v16.668c0 2.7617 1.0977 5.4141 3.0469 7.3672 1.957 1.9531 4.6055 3.0508 7.3672 3.0508h22.41l6.5039 6.5c1.7891 1.7891 4.4766 2.3242 6.8125 1.3555 2.3359-0.96875 3.8594-3.2461 3.8594-5.7734v-2.082zm-2.0859-4.168c-1.1484 0-2.082 0.93359-2.082 2.082v4.168c0 0.83984-0.50781 1.6016-1.2852 1.9258-0.78125 0.32031-1.6758 0.14453-2.2695-0.45312l-7.1133-7.1133c-0.39062-0.39062-0.92188-0.60938-1.4727-0.60938h-23.277c-1.6562 0-3.2461-0.66016-4.418-1.832-1.1719-1.1719-1.832-2.7578-1.832-4.418v-16.668c0-1.6562 0.66016-3.2461 1.832-4.418 1.1719-1.1719 2.7617-1.832 4.418-1.832h41.668c1.6602 0 3.2461 0.66016 4.418 1.832 1.1719 1.1719 1.832 2.7617 1.832 4.418v16.668c0 1.6602-0.66016 3.2461-1.832 4.418s-2.7578 1.832-4.418 1.832h-4.168z"/>
  <path d="m16.668 31.25h33.332c1.1484 0 2.082-0.93359 2.082-2.082 0-1.1523-0.93359-2.0859-2.082-2.0859h-33.332c-1.1523 0-2.0859 0.93359-2.0859 2.0859 0 1.1484 0.93359 2.082 2.0859 2.082z"/>
  <path d="m16.668 22.918h4.1641c1.1523 0 2.0859-0.93359 2.0859-2.0859 0-1.1484-0.93359-2.082-2.0859-2.082h-4.1641c-1.1523 0-2.0859 0.93359-2.0859 2.082 0 1.1523 0.93359 2.0859 2.0859 2.0859z"/>
  <path d="m29.168 22.918h20.832c1.1484 0 2.082-0.93359 2.082-2.0859 0-1.1484-0.93359-2.082-2.082-2.082h-20.832c-1.1523 0-2.0859 0.93359-2.0859 2.082 0 1.1523 0.93359 2.0859 2.0859 2.0859z"/>
  <path d="m50 64.582h33.332c1.1523 0 2.0859-0.93359 2.0859-2.082s-0.93359-2.082-2.0859-2.082h-33.332c-1.1484 0-2.082 0.93359-2.082 2.082s0.93359 2.082 2.082 2.082z"/>
  <path d="m50 72.918h20.832c1.1523 0 2.0859-0.93359 2.0859-2.0859 0-1.1484-0.93359-2.082-2.0859-2.082h-20.832c-1.1484 0-2.082 0.93359-2.082 2.082 0 1.1523 0.93359 2.0859 2.082 2.0859z"/>
  <path d="m79.168 72.918h4.1641c1.1523 0 2.0859-0.93359 2.0859-2.0859 0-1.1484-0.93359-2.082-2.0859-2.082h-4.1641c-1.1523 0-2.0859 0.93359-2.0859 2.082 0 1.1523 0.93359 2.0859 2.0859 2.0859z"/>
 </g>
</svg>
