<?xml version="1.0" encoding="UTF-8"?>
<svg width="100pt" height="100pt" version="1.1" viewBox="0 0 100 100" xmlns="http://www.w3.org/2000/svg">
 <g>
  <path d="m42.223 39.645 1.0586-2.9414c-0.48828-0.17578-12.152-4.2891-24.348-0.003906l1.0352 2.9492c11.117-3.9062 22.145-0.042969 22.254-0.003907z"/>
  <path d="m42.223 49.02 1.0586-2.9414c-0.48828-0.17578-12.152-4.2891-24.348-0.003906l1.0352 2.9492c11.117-3.9062 22.145-0.046876 22.254-0.003907z"/>
  <path d="m42.223 58.395 1.0586-2.9414c-0.48828-0.17578-12.152-4.2891-24.348-0.003906l1.0352 2.9492c11.117-3.9062 22.145-0.042969 22.254-0.003907z"/>
  <path d="m80.02 39.645 1.0586-2.9414c-0.48828-0.17578-12.152-4.2891-24.348-0.003906l1.0352 2.9492c11.117-3.9062 22.145-0.042969 22.254-0.003907z"/>
  <path d="m89.363 21.793-1.0312-0.37109c-0.34766-0.125-8.6719-3.0859-20.016-3.0859-6.4844 0-12.645 0.97656-18.32 2.9023-2.043-0.66797-9.6211-2.9023-19.48-2.9023-6.6797 0-13.016 1.0352-18.832 3.082l-1.043 0.36719v3.168l-6.4727-0.003906v56.719h91.668l-0.003907-56.719h-6.4727zm-0.47266 11.77 0.46875 0.17969 1.125 0.43359-1.125 2.9258-3.125 8.125-4.2656 11.094-1.6016 1.7891 0.003906-0.68359 0.007812-1.7188 0.16797-0.43359 5.6953-14.805zm-37.328-9.5391c5.1992-1.6953 10.824-2.5625 16.754-2.5625 8.5391 0 15.406 1.8047 17.922 2.5664v7.7383l-5.4648 14.211c-1.9648-0.65234-12.773-3.8594-24.039 0.10156l1.0352 2.9492c9.9766-3.5039 19.871-0.75781 21.879-0.125l-2.1445 5.5781c-4.457-0.97266-12.492-1.9336-20.77 0.97656l1.0352 2.9492c7.7695-2.7305 15.492-1.6641 19.477-0.76172l-0.03125 8.6797 7.4688-8.3359 1.5547-4.0469v17.301c-3.1992-0.90625-9.7852-2.4297-17.922-2.4297-5.8945 0-11.512 0.81641-16.754 2.4102zm-37.801-0.015626c5.1953-1.6914 10.824-2.5508 16.754-2.5508 8.5586 0 15.418 1.8086 17.922 2.5664v47.203c-3.1953-0.90625-9.7734-2.4297-17.922-2.4297-5.8906 0-11.516 0.80469-16.754 2.3984zm78.945 54.535h-85.414v-50.469h3.3477v47.484l2.082-0.73047c5.4844-1.9258 11.473-2.9023 17.797-2.9023 10.766 0 18.875 2.8711 18.953 2.8984l0.52344 0.1875 0.52344-0.18359c5.4844-1.9258 11.473-2.9023 17.797-2.9023 10.766 0 18.875 2.8711 18.957 2.8984l2.0898 0.75391v-29.77l3.3438-8.707zm0-50.469v3.6055l-3.3477-1.2891v-2.3203z"/>
 </g>
</svg>
