<?xml version="1.0" encoding="UTF-8"?>
<svg width="100pt" height="100pt" version="1.1" viewBox="0 0 100 100" xmlns="http://www.w3.org/2000/svg">
 <g>
  <path d="m67.266 62.891c-0.78125-5.9375-3.2812-11.406-6.9531-15.781l-1.0156-1.1719v-17.578c0-1.1719-0.3125-2.2656-0.85938-3.2812l-7.4219-13.516c-0.23438-0.39062-0.625-0.625-1.0938-0.54688-0.39062-0.078125-0.85938 0.15625-1.0938 0.54688l-7.4219 13.516c-0.54688 1.0156-0.85938 2.1094-0.85938 3.2812v17.578l-1.0156 1.1719c-3.6719 4.375-6.1719 9.8438-6.9531 15.781-0.15625 1.0156 1.0938 1.7188 1.875 1.0156l6.0156-5.0781v0.15625h18.828v-0.15625l6.0156 5.0781c0.85938 0.625 2.0312 0 1.9531-1.0156z"/>
  <path d="m57.031 62.031v3.4375c0 0.078125-0.078125 0.078125-0.078125 0.078125h-5.3125v-3.5938h5.3906z"/>
  <path d="m48.594 62.031v3.5938h-5.3125c-0.078125 0-0.078125-0.078125-0.078125-0.078125v-3.4375h5.3906z"/>
  <path d="m92.266 80.781h-3.6719v-41.562c0-4.6875-3.8281-8.4375-8.4375-8.4375h-17.422v6.0938h17.422c1.3281 0 2.3438 1.0156 2.3438 2.3438v41.484h-21.328c-0.15625 0.39062-0.3125 0.78125-0.54688 1.0938-0.85938 1.25-2.2656 2.0312-3.9062 2.0312h-13.438c-1.6406 0-3.0469-0.78125-3.9062-2.0312-0.23438-0.3125-0.39062-0.70312-0.54688-1.0938h-21.328v-41.484c0-1.3281 1.0156-2.3438 2.3438-2.3438h17.422v-6.0938h-17.422c-4.6875 0-8.4375 3.8281-8.4375 8.4375v41.484h-9.2188v2.8906c0 2.9688 2.4219 5.3906 5.3906 5.3906h84.766c2.9688 0 5.3906-2.4219 5.3906-5.3906v-2.8906h-5.4688z"/>
 </g>
</svg>
