<?xml version="1.0" encoding="UTF-8"?>
<svg width="100pt" height="100pt" version="1.1" viewBox="0 0 100 100" xmlns="http://www.w3.org/2000/svg">
 <g>
  <path d="m88.086 95.898h-78.125c-0.53906 0-0.97656-0.4375-0.97656-0.97656v-7.918c0-8.7266 4.7734-16.719 12.457-20.855l13.445-7.2422c0.47656-0.25781 1.0664-0.078125 1.3242 0.39844 0.25391 0.47656 0.078124 1.0664-0.39844 1.3242l-13.445 7.2422c-7.0508 3.793-11.43 11.125-11.43 19.133v6.9414h76.172v-6.9414c0-8.0078-4.3789-15.34-11.43-19.137l-13.445-7.2422c-0.47656-0.25781-0.65234-0.84766-0.39844-1.3242 0.25781-0.47656 0.84766-0.65234 1.3242-0.39844l13.445 7.2422c7.6836 4.1406 12.457 12.133 12.457 20.859v7.918c0 0.53906-0.4375 0.97656-0.97656 0.97656z"/>
  <path d="m60.742 76.367c-0.14844 0-0.30078-0.035157-0.4375-0.10156l-11.719-5.8594c-0.25391-0.12891-0.44141-0.35938-0.51172-0.63672-0.070313-0.27734-0.011719-0.57031 0.15234-0.80469l9.7656-13.672c0.16797-0.23438 0.42969-0.38281 0.71484-0.40625 0.28516-0.023438 0.56641 0.078125 0.76953 0.28125l3.9062 3.9062c0.21484 0.21484 0.31641 0.51172 0.27734 0.8125l-1.9531 15.625c-0.039062 0.3125-0.23047 0.58984-0.50781 0.73828-0.14062 0.078125-0.29688 0.11719-0.45703 0.11719zm-10.258-7.1992 9.4609 4.7305 1.7227-13.781-2.7539-2.7539z"/>
  <path d="m37.305 76.367c-0.16016 0-0.31641-0.039063-0.46094-0.11719-0.28125-0.14844-0.46875-0.42578-0.50781-0.73828l-1.9531-15.625c-0.039062-0.30078 0.066407-0.59766 0.27734-0.8125l3.9062-3.9062c0.20312-0.20312 0.48438-0.30469 0.76953-0.28125 0.28516 0.023437 0.54687 0.17188 0.71484 0.40625l9.7656 13.672c0.16406 0.23438 0.22266 0.52734 0.15234 0.80469-0.070312 0.27734-0.25391 0.51172-0.51172 0.63672l-11.719 5.8594c-0.13281 0.066406-0.28516 0.10156-0.43359 0.10156zm-0.92578-16.25 1.7227 13.781 9.4609-4.7305-8.4297-11.805z"/>
  <path d="m74.414 95.898h-50.781c-0.53906 0-0.97656-0.4375-0.97656-0.97656v-11.719c0-0.53906 0.4375-0.97656 0.97656-0.97656 0.53906 0 0.97656 0.4375 0.97656 0.97656v10.742h48.828v-10.742c0-0.53906 0.4375-0.97656 0.97656-0.97656 0.53906 0 0.97656 0.4375 0.97656 0.97656v11.719c0 0.53906-0.4375 0.97656-0.97656 0.97656z"/>
  <path d="m74.414 56.836h-52.734c-2.6914 0-4.8828-2.1914-4.8828-4.8828v-31.25c0-2.6914 2.1914-4.8828 4.8828-4.8828h52.734c2.6914 0 4.8828 2.1914 4.8828 4.8828v31.25c0 2.6914-2.1914 4.8828-4.8828 4.8828zm-52.734-39.062c-1.6172 0-2.9297 1.3125-2.9297 2.9297v31.25c0 1.6172 1.3125 2.9297 2.9297 2.9297h52.734c1.6172 0 2.9297-1.3125 2.9297-2.9297v-31.25c0-1.6172-1.3125-2.9297-2.9297-2.9297z"/>
  <path d="m64.648 50.977h-41.016c-0.53906 0-0.97656-0.4375-0.97656-0.97656v-27.344c0-0.53906 0.4375-0.97656 0.97656-0.97656h41.016c0.53906 0 0.97656 0.4375 0.97656 0.97656v27.344c0 0.53906-0.4375 0.97656-0.97656 0.97656zm-40.039-1.9531h39.062v-25.391h-39.062z"/>
  <path d="m72.461 31.445h-1.9531c-0.53906 0-0.97656-0.4375-0.97656-0.97656s0.4375-0.97656 0.97656-0.97656h1.9531c0.53906 0 0.97656 0.4375 0.97656 0.97656s-0.4375 0.97656-0.97656 0.97656z"/>
  <path d="m72.461 37.305h-1.9531c-0.53906 0-0.97656-0.4375-0.97656-0.97656s0.4375-0.97656 0.97656-0.97656h1.9531c0.53906 0 0.97656 0.4375 0.97656 0.97656s-0.4375 0.97656-0.97656 0.97656z"/>
  <path d="m71.484 47.07c-1.0781 0-1.9531-0.875-1.9531-1.9531 0-1.0781 0.875-1.9531 1.9531-1.9531s1.9531 0.875 1.9531 1.9531c0 1.0781-0.875 1.9531-1.9531 1.9531z"/>
  <path d="m68.555 17.773h-7.8125c-0.53906 0-0.97656-0.4375-0.97656-0.97656v-1.9531c0-2.6914 2.1914-4.8828 4.8828-4.8828 2.6914 0 4.8828 2.1914 4.8828 4.8828v1.9531c0 0.53906-0.4375 0.97656-0.97656 0.97656zm-6.8359-1.9531h5.8594v-0.97656c0-1.6172-1.3125-2.9297-2.9297-2.9297-1.6172 0-2.9297 1.3125-2.9297 2.9297z"/>
  <path d="m64.648 11.914c-0.050782 0-0.10156-0.003906-0.15234-0.011718l-37.109-5.8594c-0.53125-0.085938-0.89844-0.58594-0.8125-1.1172 0.085937-0.53125 0.58594-0.89453 1.1172-0.8125l37.109 5.8594c0.53125 0.085938 0.89453 0.58594 0.8125 1.1172-0.074219 0.48047-0.49219 0.82422-0.96484 0.82422z"/>
  <path d="m58.789 33.398c-0.53906 0-0.97656-0.4375-0.97656-0.97656v-2.9297h-2.9297c-0.53906 0-0.97656-0.4375-0.97656-0.97656s0.4375-0.97656 0.97656-0.97656h3.9062c0.53906 0 0.97656 0.4375 0.97656 0.97656v3.9062c0 0.53906-0.4375 0.97656-0.97656 0.97656z"/>
  <path d="m29.492 33.398c-0.53906 0-0.97656-0.4375-0.97656-0.97656v-3.9062c0-0.53906 0.4375-0.97656 0.97656-0.97656h3.9062c0.53906 0 0.97656 0.4375 0.97656 0.97656s-0.4375 0.97656-0.97656 0.97656h-2.9297v2.9297c0 0.53906-0.4375 0.97656-0.97656 0.97656z"/>
  <path d="m33.398 45.117h-3.9062c-0.53906 0-0.97656-0.4375-0.97656-0.97656v-3.9062c0-0.53906 0.4375-0.97656 0.97656-0.97656 0.53906 0 0.97656 0.4375 0.97656 0.97656v2.9297h2.9297c0.53906 0 0.97656 0.4375 0.97656 0.97656s-0.4375 0.97656-0.97656 0.97656z"/>
  <path d="m58.789 45.117h-3.9062c-0.53906 0-0.97656-0.4375-0.97656-0.97656s0.4375-0.97656 0.97656-0.97656h2.9297v-2.9297c0-0.53906 0.4375-0.97656 0.97656-0.97656 0.53906 0 0.97656 0.4375 0.97656 0.97656v3.9062c0 0.53906-0.4375 0.97656-0.97656 0.97656z"/>
  <path d="m9.9609 64.648c-2.6914 0-4.8828-2.1914-4.8828-4.8828s2.1914-4.8828 4.8828-4.8828c2.6914 0 4.8828 2.1914 4.8828 4.8828s-2.1914 4.8828-4.8828 4.8828zm0-7.8125c-1.6172 0-2.9297 1.3125-2.9297 2.9297s1.3125 2.9297 2.9297 2.9297c1.6172 0 2.9297-1.3125 2.9297-2.9297s-1.3125-2.9297-2.9297-2.9297z"/>
  <path d="m89.062 41.211c-3.2305 0-5.8594-2.6289-5.8594-5.8594 0-3.2305 2.6289-5.8594 5.8594-5.8594s5.8594 2.6289 5.8594 5.8594c0 3.2305-2.6289 5.8594-5.8594 5.8594zm0-9.7656c-2.1523 0-3.9062 1.7539-3.9062 3.9062 0 2.1523 1.7539 3.9062 3.9062 3.9062s3.9062-1.7539 3.9062-3.9062c0-2.1523-1.7539-3.9062-3.9062-3.9062z"/>
  <path d="m90.039 59.766c0 2.6055-3.9062 2.6055-3.9062 0s3.9062-2.6055 3.9062 0"/>
  <path d="m86.133 14.844c0 2.6055-3.9062 2.6055-3.9062 0s3.9062-2.6055 3.9062 0"/>
  <path d="m15.82 10.938c0 2.6055-3.9062 2.6055-3.9062 0s3.9062-2.6055 3.9062 0"/>
  <path d="m9.9609 40.234c0 2.6055-3.9062 2.6055-3.9062 0s3.9062-2.6055 3.9062 0"/>
 </g>
</svg>
