<?xml version="1.0" encoding="UTF-8"?>
<svg width="100pt" height="100pt" version="1.1" viewBox="0 0 100 100" xmlns="http://www.w3.org/2000/svg">
 <g>
  <path d="m84.801 37.301c-7 0-12.801 5.6992-12.801 12.699s5.6992 12.699 12.699 12.699 12.801-5.6992 12.801-12.699-5.6992-12.699-12.699-12.699zm0 19.301c-3.6016 0-6.6016-2.8984-6.6016-6.6016 0-3.6016 2.8984-6.6016 6.6016-6.6016 3.6992 0 6.6016 2.8984 6.6016 6.6016-0.10156 3.6016-3.0039 6.6016-6.6016 6.6016z"/>
  <path d="m58.398 40.102c-1.1992-1.1992-3.1992-1.1992-4.3984 0-1.1992 1.1992-1.1992 3.1992 0 4.3984l2.5 2.5h-21c-1.6992 0-3.1016 1.3984-3.1016 3.1016 0 1.6992 1.3984 3.1016 3.1016 3.1016h21l-2.5 2.5c-1.1992 1.1992-1.1992 3.1992 0 4.3984 0.60156 0.60156 1.3984 0.89844 2.1992 0.89844s1.6016-0.30078 2.1992-0.89844l7.6992-7.6992c1.1992-1.1992 1.1992-3.1992 0-4.3984z"/>
  <path d="m24.102 37.699h-18.5c-1.6992 0-3.1016 1.3984-3.1016 3.1016v18.5c0 1.6992 1.3984 3.1016 3.1016 3.1016h18.5c1.6992 0 3.1016-1.3984 3.1016-3.1016l-0.003906-18.5c-0.097657-1.6992-1.3984-3.1016-3.0977-3.1016zm-3.1016 18.5h-12.301v-12.398h12.301z"/>
 </g>
</svg>
