<?xml version="1.0" encoding="UTF-8"?>
<svg width="100pt" height="100pt" version="1.1" viewBox="0 0 100 100" xmlns="http://www.w3.org/2000/svg">
 <g>
  <path d="m57 32.668c0.66797-0.66797 0.66797-1.668 0-2.332-0.66797-0.66797-1.668-0.66797-2.332 0-1.668 1.668-4.5 1.668-6.168 0-0.66797-0.66797-1.668-0.66797-2.332 0-0.66797 0.66797-0.66797 1.668 0 2.332 1.5 1.5 3.332 2.168 5.332 2.168 2-0.003907 4.168-0.66797 5.5-2.168z"/>
  <path d="m56.832 26c2 0 3.832-1.668 3.832-3.668 0-1-0.66797-1.668-1.668-1.668s-1.668 0.66797-1.668 1.668c0 0.5-0.83203 0.5-0.83203 0 0-1-0.66797-1.668-1.668-1.668s-1.668 0.66797-1.668 1.668c-0.16016 2 1.5078 3.668 3.6719 3.668z"/>
  <path d="m50.332 22.168c0-1-0.66797-1.668-1.668-1.668s-1.668 0.66797-1.668 1.668c0 0.5-0.83203 0.5-0.83203 0 0-1-0.66797-1.668-1.668-1.668s-1.668 0.66797-1.668 1.668c0 2 1.668 3.668 3.832 3.668 2.1719-0.003907 3.6719-1.5039 3.6719-3.668z"/>
  <path d="m51.668 47.832c-1 0-1.668 0.66797-1.668 1.668v1.832c0 1 0.66797 1.668 1.668 1.668s1.668-0.66797 1.668-1.668v-1.832c-0.003907-0.83203-0.66797-1.668-1.668-1.668z"/>
  <path d="m51.668 57.832c-1 0-1.668 0.66797-1.668 1.668v1.832c0 1 0.66797 1.668 1.668 1.668s1.668-0.66797 1.668-1.668v-1.832c-0.003907-1-0.66797-1.668-1.668-1.668z"/>
  <path d="m21.832 71.668v0c-4.332 3.668-5.5 10-2.668 14.832 2 3.332 5.5 5.5 9.332 5.832h1c3.332 0 6.332-1.332 8.5-3.832l0.16797-0.16797 12.168-14.668c0.33203-0.5 1-0.5 1.168-0.5 0.33203 0 0.83203 0 1.168 0.5l12.332 14.668 0.16797 0.16797c2.332 2.668 5.832 4.168 9.5 3.832 3.832-0.33203 7.332-2.5 9.168-5.832 2.832-5 1.832-11.168-2.332-14.668l-14-11.668c-0.5-0.33203-0.5-0.83203-0.5-1.168 0-0.5 0.16797-0.83203 0.5-1.168l13.668-11.332c4.5-3.832 5.5-10.332 2.168-15.168-2-3-5.168-4.832-8.832-5-2.668-0.16797-5.332 0.66797-7.332 2.168 0.33203-1.168 0.5-2.332 0.5-3.332 0-8.832-7.168-16-16-16s-16 7.168-16 16c0 1 0.16797 2 0.5 3.168-2.168-1.5-4.668-2.168-7.332-2-3.668 0.16797-6.832 2-8.832 5-3.332 5-2.332 11.5 2.168 15.168l13.668 11.332c0.5 0.33203 0.5 1 0.5 1.168s0 0.83203-0.5 1.168zm7 17.332c-2.832-0.16797-5.332-1.832-6.668-4.168-1.668-3-1.332-7 0.83203-9.5l11.668 12c-1.4961 1.168-3.6641 1.8359-5.832 1.668zm52.336-4.168c-1.332 2.332-3.832 4-6.668 4.168-2.168 0.16797-4.168-0.5-5.668-1.668l11.668-12c2.168 2.5 2.5 6.5 0.66797 9.5zm-6.8359-55.332c2.5 0.16797 4.832 1.5 6.332 3.668 2 3 1.832 7-0.5 9.668l-11.332-11.5c1.5-1.3359 3.5-2.0039 5.5-1.8359zm-51.5 3.5c1.5-2.168 3.668-3.5 6.332-3.5h0.5c1.832 0 3.668 0.66797 5 1.832l-11.332 11.5c-2.332-2.832-2.5-6.6641-0.5-9.832zm15.168 22.168-12.168-10.168 11.168-11.332 7.332 8.668c0.66797 0.66797 1.668 0.83203 2.332 0.16797 0.66797-0.5 0.83203-1.668 0.33203-2.332-3.832-5-8-11.5-8-15.168 0-7 5.668-12.668 12.668-12.668s12.668 5.668 12.668 12.668c0 3.668-4.332 10.5-7.832 15.168-0.5 0.66797-0.5 1.668 0.33203 2.332 0.66797 0.5 1.668 0.5 2.332-0.16797l7.5-8.668 11.168 11.332-12.168 10.168c-1.168 1-1.832 2.332-1.832 3.832s0.66797 2.832 1.832 3.832l12.668 10.5-11.5 11.832-11.332-13.496c-1-1.168-2.332-1.668-3.668-1.668-1.5 0-2.832 0.66797-3.668 1.668l-11 13.168-11.5-11.832 12.668-10.5c1.168-1 1.832-2.332 1.832-3.832-0.33203-1.1719-0.99609-2.6719-2.1641-3.5039z"/>
 </g>
</svg>
