<?xml version="1.0" encoding="UTF-8"?>
<svg width="100pt" height="100pt" version="1.1" viewBox="0 0 100 100" xmlns="http://www.w3.org/2000/svg">
 <g>
  <path d="m33.984 46.816l-24.805-29.746c-1.7578-2.1094-4.8828-2.3828-6.9922-0.625-2.1094 1.7578-2.3828 4.8828-0.625 6.9922l22.148 26.562-22.148 26.582c-1.7578 2.1094-1.5625 5.3516 0.625 6.9922 2.4609 1.8359 5.9961 0.54688 6.9922-0.625l24.805-29.766c1.543-1.8359 1.543-4.5117 0-6.3672z"/>
  <path d="m54.98 74.805h-19.844c-2.7344 0-4.9609 2.2266-4.9609 4.9609s2.2266 4.9609 4.9609 4.9609h19.844c2.7344 0 4.9609-2.2266 4.9609-4.9609 0-2.7539-2.2266-4.9609-4.9609-4.9609z"/>
  <path d="m94.648 74.805h-19.844c-2.7344 0-4.9609 2.2266-4.9609 4.9609s2.2266 4.9609 4.9609 4.9609h19.844c2.7344 0 4.9609-2.2266 4.9609-4.9609 0-2.7539-2.2266-4.9609-4.9609-4.9609z"/>
 </g>
</svg>
