<?xml version="1.0" encoding="UTF-8"?>
<svg width="100pt" height="100pt" version="1.1" viewBox="0 0 100 100" xmlns="http://www.w3.org/2000/svg">
 <path d="m80.238 92.109h-60.48v-72.883l13.652-13.613h46.828zm-37.102-23.52v-3.1641c4.2969-1.6797 7.4102-3.7383 9.3438-6.1836 1.9336-2.4414 2.8984-4.8516 2.8984-7.2344 0-1.6797-0.42969-2.5195-1.2891-2.5195-0.43359 0-1.0859 0.24219-1.9648 0.73047s-1.8633 0.73047-2.9609 0.73047c-1.6406 0-3.0547-0.63281-4.2461-1.9023-1.1914-1.2695-1.7852-2.8008-1.7852-4.6016 0-2.1484 0.73047-3.7891 2.1953-4.9219 1.4648-1.1328 3.0547-1.6992 4.7773-1.6992 3.1992 0 5.625 1.1641 7.2656 3.4883s2.4609 5.0469 2.4609 8.1719c0 8.9492-5.5625 15.312-16.695 19.105z" fill-rule="evenodd"/>
</svg>
