<?xml version="1.0" encoding="UTF-8"?>
<svg width="100pt" height="100pt" version="1.1" viewBox="0 0 100 100" xmlns="http://www.w3.org/2000/svg">
 <g>
  <path d="m95.312 3.125h-90.625c-0.86328 0-1.5625 0.69922-1.5625 1.5625v90.625c0 0.86328 0.69922 1.5625 1.5625 1.5625h78.125c0.41406 0 0.8125-0.16406 1.1055-0.45703l12.5-12.5c0.29297-0.29297 0.45703-0.69141 0.45703-1.1055v-78.125c0-0.86328-0.69922-1.5625-1.5625-1.5625zm-89.062 3.125h87.5v75h-10.938c-0.86328 0-1.5625 0.69922-1.5625 1.5625v10.938h-75zm85.289 78.125-7.1641 7.1641v-7.1641z"/>
  <path d="m76.883 82.195 2.4844-1.8945-8.293-10.883 14.605 2.4336 0.51562-3.082-17.883-2.9805-23.027-30.223 13.793-19.023-2.5312-1.8359-13.242 18.266-13.938-18.293-2.4844 1.8945 14.508 19.043-16.617 22.918-13.578-2.2617-0.51562 3.082 12.043 2.0078-11.488 15.844 2.5312 1.8359 12.402-17.109 40.406 6.7344zm-23.758-31.18 3.125 4.1016v8.6641l-3.125-0.51953zm-3.125 11.723-3.125-0.51953v-19.406l3.125 4.1016zm-6.25-24.027v22.984l-3.125-0.51953v-19.184l2.7422-3.7812zm-6.25 21.945-3.125-0.51953v-9.5195l3.125-4.3125zm-6.25-5.7305v4.6875l-3.0312-0.50391zm28.125 9.375v-5.082l4.4375 5.8203z"/>
  <path d="m73.438 31.25h15.625v3.125h-15.625z"/>
  <path d="m73.438 37.5h15.625v3.125h-15.625z"/>
  <path d="m73.438 43.75h15.625v3.125h-15.625z"/>
  <path d="m85.938 50h3.125v3.125h-3.125z"/>
  <path d="m79.688 50h3.125v3.125h-3.125z"/>
  <path d="m73.438 50h3.125v3.125h-3.125z"/>
  <path d="m56.25 37.5h-3.125v7.8125c0 0.86328 0.69922 1.5625 1.5625 1.5625h7.8125v-3.125h-4.0391l9.375-9.375h2.4766v-3.125h-3.125c-0.41406 0-0.8125 0.16406-1.1055 0.45703l-9.832 9.832z"/>
 </g>
</svg>
