<?xml version="1.0" encoding="UTF-8"?>
<svg width="100pt" height="100pt" version="1.1" viewBox="0 0 100 100" xmlns="http://www.w3.org/2000/svg">
 <path d="m7.5742 0h84.852c4.1836 0 7.5742 3.3906 7.5742 7.5742v30.305c0 4.1836-3.3906 7.5742-7.5742 7.5742h-84.852c-4.1836 0-7.5742-3.3906-7.5742-7.5742v-30.305c0-4.1836 3.3906-7.5742 7.5742-7.5742zm0 3.0312c-2.5078 0-4.543 2.0352-4.543 4.543v30.305c0 2.5117 2.0352 4.5469 4.543 4.5469h84.852c2.5078 0 4.543-2.0352 4.543-4.5469v-30.305c0-2.5078-2.0352-4.543-4.543-4.543zm0 51.516h30.305c4.1836 0 7.5742 3.3906 7.5742 7.5742v30.305c0 4.1836-3.3906 7.5742-7.5742 7.5742h-30.305c-4.1836 0-7.5742-3.3906-7.5742-7.5742v-30.305c0-4.1836 3.3906-7.5742 7.5742-7.5742zm0 3.0273c-2.5078 0-4.543 2.0352-4.543 4.5469v30.305c0 2.5078 2.0352 4.543 4.543 4.543h30.305c2.5117 0 4.5469-2.0352 4.5469-4.543v-30.305c0-2.5117-2.0352-4.5469-4.5469-4.5469zm54.547-3.0273h30.305c4.1836 0 7.5742 3.3906 7.5742 7.5742v30.305c0 4.1836-3.3906 7.5742-7.5742 7.5742h-30.305c-4.1836 0-7.5742-3.3906-7.5742-7.5742v-30.305c0-4.1836 3.3906-7.5742 7.5742-7.5742zm0 3.0273c-2.5117 0-4.5469 2.0352-4.5469 4.5469v30.305c0 2.5078 2.0352 4.543 4.5469 4.543h30.305c2.5078 0 4.543-2.0352 4.543-4.543v-30.305c0-2.5117-2.0352-4.5469-4.543-4.5469zm-30.305 19.699c0-0.83594 0.67969-1.5156 1.5156-1.5156 0.83984 0 1.5156 0.67969 1.5156 1.5156 0 6.6953-5.4258 12.121-12.121 12.121-6.6953 0-12.121-5.4258-12.121-12.121 0-6.6953 5.4258-12.121 12.121-12.121 0.83594 0 1.5156 0.67578 1.5156 1.5156 0 0.83594-0.67969 1.5156-1.5156 1.5156-5.0195 0-9.0898 4.0703-9.0898 9.0898 0 5.0195 4.0703 9.0898 9.0898 9.0898 5.0195 0 9.0898-4.0703 9.0898-9.0898zm35.758-0.30469c-0.66797 0.50391-1.6172 0.36719-2.1211-0.30078-0.5-0.67188-0.36328-1.6211 0.30469-2.1211l6.0586-4.5469c0.46094-0.34375 1.0742-0.39844 1.5898-0.14453l5.1719 2.5898 8.332-6.9414c0.64062-0.53516 1.5977-0.44922 2.1328 0.19141 0.53516 0.64453 0.44922 1.6016-0.19531 2.1367l-9.0898 7.5742c-0.46094 0.38672-1.1094 0.46094-1.6484 0.19141l-5.2227-2.6133zm3.6367 10.91c-0.83594 0-1.5156-0.67969-1.5156-1.5156 0-0.83594 0.67969-1.5156 1.5156-1.5156h12.121c0.83984 0 1.5156 0.67969 1.5156 1.5156 0 0.83594-0.67578 1.5156-1.5156 1.5156zm-46.828-57.527-11.73 4.4023c-0.78125 0.29297-1.6562-0.10547-1.9492-0.88672-0.29297-0.78516 0.10156-1.6602 0.88672-1.9531l12.121-4.543c0.25391-0.097656 0.53516-0.12109 0.80078-0.074219l16.203 2.9453 16.234-7.3789c0.32031-0.14453 0.68359-0.17578 1.0234-0.082031l15.938 4.3438 13.039-10.141c0.66016-0.51172 1.6133-0.39453 2.125 0.26562 0.51562 0.66406 0.39453 1.6133-0.26562 2.1289l-13.637 10.605c-0.375 0.29297-0.86719 0.39062-1.3281 0.26562l-16.141-4.4023-16.168 7.3516c-0.28125 0.125-0.59375 0.16406-0.89844 0.10938zm4.4062-13.684c-0.83984 0-1.5156-0.67969-1.5156-1.5156 0-0.83594 0.67578-1.5156 1.5156-1.5156h15.148c0.83984 0 1.5156 0.67969 1.5156 1.5156 0 0.83594-0.67578 1.5156-1.5156 1.5156zm-13.637 4.543c-3.3477 0-6.0625-2.7109-6.0625-6.0586s2.7148-6.0625 6.0625-6.0625 6.0586 2.7148 6.0586 6.0625-2.7109 6.0586-6.0586 6.0586zm0-3.0273c1.6719 0 3.0312-1.3594 3.0312-3.0312 0-1.6758-1.3594-3.0312-3.0312-3.0312-1.6758 0-3.0312 1.3555-3.0312 3.0312 0 1.6719 1.3555 3.0312 3.0312 3.0312z"/>
</svg>
