<?xml version="1.0" encoding="UTF-8"?>
<svg width="100pt" height="100pt" version="1.1" viewBox="0 0 100 100" xmlns="http://www.w3.org/2000/svg">
 <path d="m80.727 86.77c-6.0312-4.4023-6.5859-7.5352-6.6094-8.4258-0.019532-0.94531 0.38281-1.6914 1.2734-2.3594 0.49609-0.37109 0.875-0.45703 1.1562-0.45703 0.09375 0 0.17188 0.007812 0.24219 0.019531 0.99219 0.16797 1.9688 1.2695 2.2773 1.6992 0.35547 0.57031 0.98438 0.92188 1.6641 0.92188 0.6875 0 1.3242-0.36328 1.6797-0.95312 0.29688-0.40625 1.2461-1.4922 2.2422-1.6641 0.28906-0.050781 0.75-0.058593 1.4102 0.43359 0.89062 0.66797 1.293 1.4141 1.2734 2.3594-0.023438 0.89062-0.57813 4.0234-6.6094 8.4258m7.6836-13.922c-1.3672-1.0234-2.8945-1.4219-4.4219-1.1602-1.332 0.23047-2.4375 0.92188-3.2617 1.6289-0.82422-0.70703-1.9297-1.3984-3.2617-1.6289-1.5273-0.26562-3.0547 0.13672-4.4219 1.1602-1.9102 1.4297-2.8906 3.3594-2.8398 5.5859 0.089844 3.8789 3.4102 8.2461 9.3555 12.305 0.046875 0.035157 0.09375 0.066407 0.14062 0.09375 0.29688 0.18359 0.64453 0.28906 1.0156 0.29297h0.007812 0.003906 0.003907c0.44141 0 0.85547-0.14844 1.1875-0.40234 5.9297-4.0547 9.2422-8.418 9.332-12.289 0.050781-2.2266-0.93359-4.1562-2.8398-5.5859m-7.6836 23.234c-8.4688 0-15.359-6.8945-15.359-15.367 0-8.4766 6.8906-15.371 15.359-15.371s15.359 6.8945 15.359 15.371c0 8.4727-6.8906 15.367-15.359 15.367zm-39.383-4.4883c-10.297 0-19.949-1.4609-27.176-4.1094-6.418-2.3516-10.254-5.4766-10.254-8.3633v-13.711c2.1484 1.8242 5.1406 3.4648 8.9062 4.8438 7.6484 2.8008 17.777 4.3477 28.523 4.3477 7.918 0 15.566-0.85156 22.105-2.4297-1.2773 2.5742-1.9961 5.4766-1.9961 8.543 0 3.0508 0.71094 5.9375 1.9805 8.5078-6.375 1.5352-14.109 2.3711-22.09 2.3711zm-27.176-83.566c7.2266-2.6484 16.879-4.1094 27.176-4.1094 10.293 0 19.945 1.4609 27.176 4.1094 6.418 2.3516 10.25 5.4766 10.25 8.3633 0 2.8828-3.832 6.0117-10.25 8.3633-7.2305 2.6484-16.883 4.1055-27.176 4.1055-10.297 0-19.949-1.457-27.176-4.1055-6.418-2.3516-10.254-5.4805-10.254-8.3633 0-2.8867 3.8359-6.0117 10.254-8.3633zm64.602 29.273c0 2.8828-3.832 6.0117-10.25 8.3633-7.2305 2.6484-16.883 4.1055-27.176 4.1055-10.297 0-19.949-1.457-27.176-4.1055-6.418-2.3516-10.254-5.4805-10.254-8.3633v-13.711c2.1484 1.8242 5.1406 3.4609 8.9062 4.8438 7.6484 2.8008 17.777 4.3438 28.523 4.3438 10.742 0 20.871-1.543 28.52-4.3438 3.7656-1.3828 6.7617-3.0195 8.9062-4.8438zm-11.641 29.758c-7.0547 2.3359-16.191 3.6211-25.785 3.6211-10.297 0-19.949-1.457-27.176-4.1055-6.418-2.3516-10.254-5.4766-10.254-8.3633v-13.711c2.1484 1.8242 5.1406 3.4648 8.9062 4.8438 7.6484 2.8008 17.777 4.3438 28.523 4.3438 10.742 0 20.871-1.543 28.52-4.3438 3.7656-1.3789 6.7617-3.0195 8.9062-4.8438v17.023c-4.5234 0.46094-8.5859 2.4883-11.641 5.5352zm15.555-5.5352v-44.082c0-0.125-0.011719-0.24609-0.035156-0.36719 0.023437-0.22656 0.035156-0.45312 0.035156-0.68359 0-4.7383-4.5508-9.0156-12.82-12.043-7.6484-2.8047-17.777-4.3477-28.52-4.3477-10.746 0-20.875 1.543-28.523 4.3477-8.2656 3.0273-12.82 7.3047-12.82 12.043 0 0.23047 0.015625 0.45703 0.035156 0.68359-0.023437 0.12109-0.035156 0.24219-0.035156 0.36719v61.68c0 4.7383 4.5547 9.0156 12.82 12.043 7.6484 2.8047 17.777 4.3477 28.523 4.3477 8.957 0 17.32-0.96875 24.301-2.8047 3.5352 4.4414 8.9805 7.293 15.082 7.293 10.629 0 19.273-8.6523 19.273-19.285 0-9.9766-7.6055-18.203-17.316-19.191zm-68.629-23.637c-0.62109 0-1.1289-0.50781-1.1289-1.1289 0-0.625 0.50781-1.1289 1.1289-1.1289 0.62109 0 1.1289 0.50391 1.1289 1.1289 0 0.62109-0.50781 1.1289-1.1289 1.1289m0-6.1758c-2.7812 0-5.0469 2.2617-5.0469 5.0469 0 2.7812 2.2656 5.0469 5.0469 5.0469s5.043-2.2656 5.043-5.0469c0-2.7852-2.2617-5.0469-5.043-5.0469m0 26.902c-0.62109 0-1.1289-0.50781-1.1289-1.1289s0.50781-1.1289 1.1289-1.1289c0.62109 0 1.1289 0.50781 1.1289 1.1289s-0.50781 1.1289-1.1289 1.1289m0-6.1758c-2.7812 0-5.0469 2.2656-5.0469 5.0469 0 2.7852 2.2656 5.0469 5.0469 5.0469s5.043-2.2617 5.043-5.0469c0-2.7812-2.2617-5.0469-5.043-5.0469m0 26.902c-0.62109 0-1.1289-0.50391-1.1289-1.1289 0-0.62109 0.50781-1.1289 1.1289-1.1289 0.62109 0 1.1289 0.50781 1.1289 1.1289 0 0.625-0.50781 1.1289-1.1289 1.1289m0-6.1758c-2.7812 0-5.0469 2.2656-5.0469 5.0469 0 2.7852 2.2656 5.0508 5.0469 5.0508s5.043-2.2656 5.043-5.0508c0-2.7812-2.2617-5.0469-5.043-5.0469" fill-rule="evenodd"/>
</svg>
