<?xml version="1.0" encoding="UTF-8"?>
<svg width="100pt" height="100pt" version="1.1" viewBox="0 0 100 100" xmlns="http://www.w3.org/2000/svg">
 <g>
  <path d="m47.398 57.102h-7.8984c-1.6016 0-2.8008 1.3008-2.8008 2.8008v4.8008c0 1.6016 1.3008 2.8008 2.8008 2.8008h7.8984c1.6016 0 2.8008-1.3008 2.8008-2.8008v-4.8008c0-1.5039-1.1992-2.8008-2.8008-2.8008z"/>
  <path d="m27.199 57.102h-7.8984c-1.6016 0-2.8008 1.3008-2.8008 2.8008v4.8008c0 1.6016 1.3008 2.8008 2.8008 2.8008h7.8984c1.6016 0 2.8008-1.3008 2.8008-2.8008v-4.8008c0-1.5039-1.1992-2.8008-2.8008-2.8008z"/>
  <path d="m47.398 39.398h-7.8984c-1.6016 0-2.8008 1.3008-2.8008 2.8008v4.8008c0 1.6016 1.3008 2.8008 2.8008 2.8008h7.8984c1.6016 0 2.8008-1.3008 2.8008-2.8008v-4.8008c0-1.5-1.1992-2.8008-2.8008-2.8008z"/>
  <path d="m27.199 39.398h-7.8984c-1.6016 0-2.8008 1.3008-2.8008 2.8008v4.8008c0 1.6016 1.3008 2.8008 2.8008 2.8008h7.8984c1.6016 0 2.8008-1.3008 2.8008-2.8008v-4.8008c0-1.5-1.1992-2.8008-2.8008-2.8008z"/>
  <path d="m67.602 39.398h-7.8984c-1.6016 0-2.8008 1.3008-2.8008 2.8008v4.8008c0 1.6016 1.3008 2.8008 2.8008 2.8008h7.8984c1.6016 0 2.8008-1.3008 2.8008-2.8008v-4.8008c0.097656-1.5-1.2031-2.8008-2.8008-2.8008z"/>
  <path d="m84.5 55.102v-34.602c0-2.3984-0.89844-4.6016-2.3984-6.3008v-0.19922h-0.10156c-1.8008-2-4.3008-3.1992-7.1016-3.1992h-7v-4.1992c0-1.8008-1.3984-3.1992-3.1992-3.1992h-4.8008c-1.8008 0-3.1992 1.3984-3.1992 3.1992v4.3008l-26.199-0.003906v-4.2969c0-1.8008-1.3984-3.1992-3.1992-3.1992h-4.8008c-1.8008 0-3.1992 1.3984-3.1992 3.1992v4.3008h-7.1016c-2.8008 0-5.3984 1.3008-7.1016 3.1992h-0.19922v0.10156c-1.5 1.6992-2.3984 3.8984-2.3984 6.3008v51.398c0 5.3008 4.3008 9.6016 9.6016 9.6016h43c2.8008 8.8008 11 15.102 20.699 15.102 12 0 21.699-9.6992 21.699-21.699 0-8.8047-5.3984-16.508-13-19.805zm-30.398 19.898v0.10156h-42c-1.8008 0-3.1992-1.3984-3.1992-3.1992l-0.003906-39.301h69.102v20.801c-0.69922-0.10156-1.5-0.10156-2.3008-0.10156-11.898 0-21.598 9.6992-21.598 21.699zm21.699 15.199c-8.3984 0-15.301-6.8984-15.301-15.301 0-8.3984 6.8984-15.301 15.301-15.301 8.3984 0.003906 15.301 6.9023 15.301 15.402s-6.9023 15.199-15.301 15.199z"/>
  <path d="m79.301 69.199-5.3008 5.6992-2.1992-2.3984c-1.1992-1.3008-3.1992-1.3984-4.5-0.10156-1.3008 1.1992-1.3984 3.1992-0.10156 4.5l4.6016 4.8984c0.60156 0.60156 1.5 1 2.3008 1 0.80078 0 1.6992-0.39844 2.3008-1l7.6016-8.1992c1.1992-1.3008 1.1016-3.3008-0.10156-4.5-1.3008-1.2969-3.3008-1.1992-4.6016 0.10156z"/>
 </g>
</svg>
