<?xml version="1.0" encoding="UTF-8"?>
<svg width="100pt" height="100pt" version="1.1" viewBox="0 0 100 100" xmlns="http://www.w3.org/2000/svg">
 <path d="m32.281 61.402l18.117 15.047-0.039063 0.035156zm18.098 11.484l-16.363-13.586 16.328 13.617zm44.621-35.508v54.93h-90v-54.938l9.6211-6.3086v-15.051h22.969l12.691-8.3203 12.531 8.3203h22.559v14.977zm-9.6289 5.9414l5.9961-5.0781-5.9961-3.9805zm-42.805-27.309h15.316l-7.6094-5.0508zm-25.219 29.387l16.668 13.902 16.328 13.617 0.035156-0.03125 32.27-27.48v-26.668h-65.301zm-8.6953-7.1602l5.9688 4.957v-8.8672zm83.621 2.8125l-41.84 35.426-0.035156-0.027343-18.117-15.047-24.555-20.387v48.566h84.547zm-42.477 17.383c-7.0664 0-13.059-5.1719-13.059-13.445 0-8.8789 6.1602-16.551 15.73-16.551 7.4961 0 12.539 5.2578 12.539 12.453 0 6.4648-3.6211 10.258-7.6719 10.258-1.7266 0-3.3203-1.1641-3.1875-3.793h-0.17188c-1.5078 2.543-3.4922 3.793-6.0781 3.793-2.5 0-4.6523-2.0273-4.6523-5.4336 0-5.3438 4.2227-10.211 10.215-10.211 1.8516 0 3.4883 0.38672 4.6094 0.90625l-1.4648 7.8008c-0.64844 3.2734-0.13281 4.7852 1.293 4.8281 2.1953 0.046876 4.6523-2.8867 4.6523-7.8867 0-6.2461-3.75-10.73-10.43-10.73-7.0234 0-12.93 5.5625-12.93 14.309 0 7.1953 4.6953 11.637 11.074 11.637 2.457 0 4.7383-0.51563 6.5078-1.5078l0.69141 1.8555c-2.3672 1.2422-4.7773 1.7188-7.668 1.7188zm5.3008-20.344c-0.42969-0.12891-1.1641-0.30078-2.1562-0.30078-3.7891 0-6.8516 3.5742-6.8516 7.7578 0 1.8945 0.94531 3.2734 2.8438 3.2734 2.5 0 4.7812-3.1875 5.2578-5.8633z"/>
</svg>
