<?xml version="1.0" encoding="UTF-8"?>
<svg width="100pt" height="100pt" version="1.1" viewBox="0 0 100 100" xmlns="http://www.w3.org/2000/svg">
 <path d="m93.266 10.266c-0.82812-0.55078-1.6055-0.42188-2.1875-0.25391-0.10547 0.03125-0.20312 0.0625-0.29688 0.089843-0.007812 0.003907-0.011719 0.003907-0.019531 0.003907-0.51562 0.16406-0.60938 0.16016-0.74609 0.070312-0.13672-0.09375-0.17578-0.17578-0.22656-0.71484 0-0.007813 0-0.011719-0.003906-0.019532-0.007812-0.09375-0.019531-0.19922-0.03125-0.30469-0.070312-0.60547-0.25391-1.3711-1.082-1.918-0.82422-0.55078-1.6016-0.42188-2.1875-0.25391-0.10547 0.03125-0.20312 0.0625-0.29688 0.089844-0.007812 0.003906-0.011719 0.003906-0.019531 0.003906-0.51953 0.16797-0.60938 0.16016-0.74609 0.070312s-0.17578-0.17188-0.22266-0.71484v-0.019531c-0.007813-0.09375-0.019531-0.19922-0.03125-0.30859-0.070313-0.60547-0.25391-1.3711-1.0781-1.918-0.46094-0.30469-1.0781-0.18359-1.3867 0.27734-0.023437 0.035157-0.027344 0.070313-0.042969 0.10547-0.10938 0.12109-0.19922 0.26172-0.23828 0.42969l-2.6875 11.52-4.9844 0.47656c-3.1875 0.30469-5.707 2.1289-6.7383 4.875l-5.6758 15.125c-0.035157 0.007813-0.074219 0-0.10938 0.011719-0.29687 0.10938-0.52734 0.35547-0.61719 0.66016l-2.0547 7.082c-3.957-1.125-8.5703-1.9141-13.613-2.2656-1.7461-2.4297-4.6523-4.918-5.4297-5.5703-0.37109-0.30859-0.91016-0.30859-1.2812 0-0.77734 0.64844-3.6797 3.1406-5.4297 5.5703-3.9141 0.27344-7.5703 0.80859-10.863 1.5625-1.0625-1.0312-2.0117-1.8438-2.4062-2.1719-0.37109-0.30859-0.91016-0.30859-1.2812 0-0.72266 0.60547-3.293 2.8125-5.0547 5.0742-4.957 2.332-7.918 5.3711-7.918 8.7344 0 0.29688 0.03125 0.59375 0.078125 0.88672v26.062c0 7.5039 14.723 13.383 33.516 13.383 18.793 0 33.516-5.8789 33.516-13.383v-26.062c0.046875-0.29297 0.078125-0.58594 0.078125-0.88672 0-3.1016-2.5156-5.9258-6.7812-8.1719l4.3945-3.5508c0.24609-0.19922 0.38281-0.50781 0.37109-0.82422 0-0.035157-0.023438-0.066407-0.03125-0.10547l11.754-11.082c2.1328-2.0156 2.8398-5.043 1.8906-8.1016l-1.4883-4.7812 9.582-6.9336c0.14062-0.10156 0.23438-0.23828 0.30469-0.38281 0.027343-0.03125 0.0625-0.050781 0.085937-0.085938 0.30469-0.45312 0.17969-1.0703-0.28125-1.3789zm-33.844 38.707l2.0664 1.375c0.25391 0.16797 0.54297 0.25 0.82812 0.25 0.33203 0 0.66406-0.11328 0.9375-0.33594l0.12109-0.097657c1.0703 0.81641 1.8047 1.5195 1.9062 1.8867-0.039062 0.86719-2.1445 2.1016-5.4258 2.1016-3.3125 0-5.4297-1.2578-5.4297-2.0859 0.14062-0.60547 2.1094-2.1875 4.5-3.6797 0.11328 0.23047 0.26953 0.4375 0.49609 0.58594zm-24.516-4.5781c0.19141-0.31641 0.4375-0.66406 0.72266-1.0352 0.25781-0.33203 0.54688-0.68359 0.86719-1.043 0.96875-1.0938 2.1719-2.2812 3.3828-3.3359 1.2109 1.0547 2.4141 2.2422 3.3828 3.3359 0.32031 0.35938 0.60938 0.71094 0.86719 1.043 0.28516 0.36719 0.53125 0.71875 0.72266 1.0352 0.28906 0.48047 0.45703 0.89062 0.45703 1.1836 0 1.9609-2.4844 3.6172-5.4297 3.6172-2.9414 0-5.4297-1.6562-5.4297-3.6172 0-0.29297 0.16797-0.69922 0.45703-1.1836zm-19.414 4.1367c0.38672-0.51562 0.86328-1.0781 1.3945-1.6602 0.48828-0.53125 1.0234-1.0781 1.5781-1.6133 0.46875-0.44922 0.94922-0.89453 1.4336-1.3164 0.25 0.21875 0.49609 0.44141 0.74219 0.66797 0.28906 0.26562 0.57812 0.53516 0.85547 0.80859 0.27734 0.26953 0.54688 0.53906 0.80859 0.8125 1.7109 1.7695 3.0195 3.4844 3.0195 4.3086 0 1.9609-2.4844 3.6172-5.4297 3.6172-2.9414 0-5.4297-1.6562-5.4297-3.6172 0.007812-0.44922 0.39453-1.1641 1.0273-2.0078zm55.902 34.086c0 5.5-12.664 11.383-31.516 11.383-18.852 0-31.516-5.8867-31.516-11.383v-22.219c4.6953 5.1211 16.867 8.6836 31.516 8.6836 14.645 0 26.82-3.5625 31.516-8.6836zm0.054688-27.23c-0.027344 0.089843-0.058594 0.18359-0.058594 0.28125v0.70703c-1.0234 5.2969-13.422 10.707-31.512 10.707s-30.488-5.4102-31.516-10.707v-0.70703c0-0.10156-0.03125-0.19141-0.058593-0.28125 0.14062-1.8047 1.6133-3.6367 4.2148-5.2812-0.027343 0.14844-0.050781 0.29688-0.050781 0.4375 0 3.0977 3.332 5.6172 7.4297 5.6172 4.0977 0 7.4297-2.5195 7.4297-5.6172 0-1.3711-1.2891-3.1914-2.7578-4.8281 2.4688-0.51172 5.1719-0.90625 8.082-1.1523-0.125 0.35938-0.20312 0.70312-0.20312 1.0234 0 3.0977 3.332 5.6172 7.4297 5.6172s7.4297-2.5195 7.4297-5.6172c0-0.31641-0.078125-0.66406-0.20312-1.0234 4.1719 0.35547 7.9297 1.0117 11.168 1.8789-2.5586 1.5352-5.8438 3.8438-5.8438 5.5898 0 2.3516 3.1953 4.125 7.4297 4.125s7.4297-1.7734 7.4297-4.125c0-0.95703-0.98828-2.082-2.3008-3.1562l0.003907-0.003906c3.9766 1.9258 6.2812 4.2422 6.457 6.5156zm-8.9531-7.0781l-0.21094 0.16797-1.4492-0.96484 0.066406-0.22266 0.015625-0.058593 2.2383-7.7148 0.29297 0.19531 5.0195 3.3359 0.29297 0.19531zm19.305-17.828l-11.836 11.16-5.7891-3.8516 5.7148-15.234c0.75781-2.0156 2.6445-3.3555 5.0547-3.5859l4.3672-0.41797 1.0156-0.097656 0.085937-0.007813c0.44141-0.035156 0.97266 0.30859 1.1055 0.73438l0.027344 0.085937 0.30469 0.97656 1.3047 4.1875c0.71875 2.3125 0.21094 4.5742-1.3555 6.0508zm0.79688-13.188c-0.25391-0.23438-0.54688-0.42969-0.85938-0.57031l1.9844-8.4961c0.14844 0.20313 0.33984 0.39453 0.59766 0.56641 0.97656 0.64844 1.8828 0.35547 2.4844 0.16406 0.53516-0.17188 0.625-0.16797 0.76562-0.074219 0.14063 0.09375 0.17969 0.17188 0.22656 0.73438 0.054687 0.62891 0.14062 1.5781 1.1133 2.2266 0.26172 0.17188 0.51562 0.27344 0.76172 0.33203z"/>
</svg>
