<?xml version="1.0" encoding="UTF-8"?>
<svg width="100pt" height="100pt" version="1.1" viewBox="0 0 100 100" xmlns="http://www.w3.org/2000/svg">
 <path d="m10.293 18.633 11.156-11.152c1.1484-1.1484 3.0117-1.1484 4.1602 0 1.1484 1.1484 1.1484 3.0078 0 4.1562l-13.234 13.238c-1.1484 1.1484-3.0117 1.1484-4.1602 0l-7.3516-7.3555c-1.1523-1.1484-1.1523-3.0078 0-4.1562 1.1484-1.1523 3.0078-1.1523 4.1562 0zm1.4727 42.398c-6.5 0-11.766-5.2695-11.766-11.766 0-6.5 5.2656-11.766 11.766-11.766 6.4961 0 11.766 5.2656 11.766 11.766 0 6.4961-5.2695 11.766-11.766 11.766zm0-5.8828c3.2461 0 5.8828-2.6367 5.8828-5.8828 0-3.25-2.6367-5.8828-5.8828-5.8828-3.25 0-5.8828 2.6328-5.8828 5.8828 0 3.2461 2.6328 5.8828 5.8828 5.8828zm30.883-2.9414c-1.625 0-2.9414-1.3164-2.9414-2.9414s1.3164-2.9414 2.9414-2.9414h54.41c1.625 0 2.9414 1.3164 2.9414 2.9414s-1.3164 2.9414-2.9414 2.9414zm0-32.355c-1.625 0-2.9414-1.3164-2.9414-2.9414 0-1.6211 1.3164-2.9414 2.9414-2.9414h54.41c1.625 0 2.9414 1.3203 2.9414 2.9414 0 1.625-1.3164 2.9414-2.9414 2.9414zm0 64.707c-1.625 0-2.9414-1.3164-2.9414-2.9414s1.3164-2.9414 2.9414-2.9414h54.41c1.625 0 2.9414 1.3164 2.9414 2.9414s-1.3164 2.9414-2.9414 2.9414zm-30.883 8.8242c-6.5 0-11.766-5.2695-11.766-11.766 0-6.4961 5.2656-11.766 11.766-11.766 6.4961 0 11.766 5.2695 11.766 11.766 0 6.4961-5.2695 11.766-11.766 11.766zm0-5.8828c3.2461 0 5.8828-2.6328 5.8828-5.8828s-2.6367-5.8828-5.8828-5.8828c-3.25 0-5.8828 2.6328-5.8828 5.8828s2.6328 5.8828 5.8828 5.8828z"/>
</svg>
