<?xml version="1.0" encoding="UTF-8"?>
<svg fill="#000000" width="100pt" height="100pt" version="1.1" viewBox="0 0 100 100" xmlns="http://www.w3.org/2000/svg">
 <path d="m25 40.973v13.027l2.8281-2.8281c0.81641-0.81641 2.1328-0.81641 2.9453 0 0.81641 0.81641 0.81641 2.1328 0 2.9453l-6.3828 6.3828c-0.40625 0.40625-0.94141 0.60938-1.4727 0.60938-0.53516 0-1.0664-0.20312-1.4727-0.60938l-6.3828-6.3828c-0.81641-0.81641-0.81641-2.1328 0-2.9453 0.81641-0.81641 2.1328-0.81641 2.9453 0l2.8242 2.8281v-13.027c0-1.1484 0.93359-2.082 2.082-2.082 1.1523-0.003906 2.0859 0.92969 2.0859 2.082zm34.027 34.027h-13.027l2.8281-2.8281c0.81641-0.81641 0.81641-2.1328 0-2.9453-0.81641-0.81641-2.1328-0.81641-2.9453 0l-6.3828 6.3828c-0.81641 0.81641-0.81641 2.1328 0 2.9453l6.3828 6.3828c0.40625 0.40625 0.94141 0.60938 1.4727 0.60938 0.53516 0 1.0664-0.20312 1.4727-0.60938 0.81641-0.81641 0.81641-2.1328 0-2.9453l-2.8281-2.8242h13.027c1.1523 0 2.082-0.92969 2.082-2.082 0.003906-1.1562-0.92969-2.0859-2.082-2.0859zm18.055-36.113c-1.1523 0-2.082 0.93359-2.082 2.082v13.027l-2.8281-2.8281c-0.81641-0.81641-2.1328-0.81641-2.9453 0-0.81641 0.81641-0.81641 2.1328 0 2.9453l6.3828 6.3828c0.40625 0.40625 0.94141 0.60938 1.4727 0.60938 0.53516 0 1.0664-0.20312 1.4727-0.60938l6.3828-6.3828c0.81641-0.81641 0.81641-2.1328 0-2.9453-0.81641-0.81641-2.1328-0.81641-2.9453 0l-2.8242 2.832v-13.027c0-1.1523-0.93359-2.0859-2.0859-2.0859zm-11.289-4.6758c-0.81641-0.81641-2.1328-0.81641-2.9453 0l-25.082 25.078v-4c0-1.1523-0.93359-2.082-2.082-2.082-1.1484 0-2.082 0.92969-2.082 2.082v9.0273c0 0.26953 0.054688 0.54297 0.16016 0.79688 0.21094 0.51172 0.61719 0.91406 1.1289 1.1289 0.25391 0.10547 0.52344 0.16016 0.79688 0.16016h9.0273c1.1484 0 2.082-0.92969 2.082-2.082 0-1.1523-0.93359-2.082-2.082-2.082h-3.9961l25.074-25.082c0.8125-0.81641 0.8125-2.1328 0-2.9453zm-31.766 42.871c0 6.1289-4.9844 11.113-11.113 11.113-6.125 0-11.109-4.9844-11.109-11.113 0-6.125 4.9844-11.109 11.113-11.109 6.125 0 11.109 4.9844 11.109 11.109zm-4.1641 0c0-3.8281-3.1172-6.9453-6.9453-6.9453-3.832 0-6.9453 3.1172-6.9453 6.9453 0 3.832 3.1133 6.9453 6.9453 6.9453 3.8281 0 6.9453-3.1133 6.9453-6.9453zm58.332 0c0 6.1289-4.9844 11.113-11.113 11.113-6.125 0-11.109-4.9844-11.109-11.113 0-6.1289 4.9844-11.113 11.113-11.113 6.125 0.003906 11.109 4.9883 11.109 11.113zm-4.168 0c0-3.8281-3.1172-6.9453-6.9453-6.9453s-6.9453 3.1172-6.9453 6.9453 3.1172 6.9453 6.9453 6.9453c3.832 0 6.9453-3.1133 6.9453-6.9453zm-72.223-54.164c0-6.1289 4.9844-11.113 11.113-11.113 6.125 0 11.109 4.9844 11.109 11.113 0 6.125-4.9844 11.109-11.109 11.109-6.1289 0-11.113-4.9844-11.113-11.109zm4.168 0c0 3.8281 3.1172 6.9453 6.9453 6.9453s6.9453-3.1172 6.9453-6.9453c0-3.832-3.1172-6.9453-6.9453-6.9453-3.832 0-6.9453 3.1133-6.9453 6.9453zm50 0c0-6.1289 4.9844-11.113 11.113-11.113 6.125 0 11.109 4.9844 11.109 11.113 0 6.125-4.9844 11.109-11.113 11.109-6.125 0-11.109-4.9844-11.109-11.109zm4.1641 0c0 3.8281 3.1172 6.9453 6.9453 6.9453s6.9453-3.1172 6.9453-6.9453c0-3.832-3.1133-6.9453-6.9453-6.9453-3.8281 0-6.9453 3.1133-6.9453 6.9453z"/>
</svg>
