<?xml version="1.0" encoding="UTF-8"?>
<svg width="100pt" height="100pt" version="1.1" viewBox="0 0 100 100" xmlns="http://www.w3.org/2000/svg">
 <path d="m18.395 0.0039062c-0.71875-0.023437-1.418 0.32422-1.9336 0.96094-0.51563 0.63672-0.80469 1.5117-0.80469 2.4219v27.473c-1.457 3.2617-2.207 6.7383-2.2188 10.25 0.011719 4.043 1.0117 8.0352 2.9219 11.695-1.168 0.35547-2.3516 0.82812-3.457 1.3359-2.7539 1.2656-5.0039 2.6992-5.0039 2.6992l0.58984 0.9375s2.1992-1.3945 4.875-2.625c1.1367-0.51953 2.3555-1 3.5117-1.3398h0.003906c0.41406 0.72266 0.86719 1.4258 1.3516 2.1094-1.4062 0.35938-2.875 0.9375-4.2227 1.5547-2.7539 1.2656-5.0039 2.6953-5.0039 2.6953l0.58984 0.9375s2.1992-1.3945 4.875-2.6211c1.3398-0.61328 2.793-1.1836 4.1289-1.5156 0.12891-0.03125 0.25-0.050781 0.375-0.078125l0.003906 0.003907c0.55469 0.71875 1.1445 1.4141 1.7734 2.082-0.42969 0.058593-0.86328 0.13672-1.3086 0.24609-1.4375 0.35547-2.9453 0.94922-4.3242 1.582-2.7539 1.2656-5.0039 2.6953-5.0039 2.6953l0.58984 0.9375s2.1992-1.3945 4.875-2.6211c1.3398-0.61328 2.793-1.1836 4.1289-1.5156 0.74609-0.18359 1.4453-0.27734 2.0625-0.28516v0.003907c0.55469 0.52344 1.1289 1.0312 1.7227 1.5156-1.5039 2.9883-2.2891 6.2578-2.3008 9.5742 0 7.3359 3.793 14.199 10.129 18.34-1.9531 1.7539-2.7656 4.0078-2.1836 6.0469 0.48047 1.6719 1.8555 3.0508 3.8203 3.8242 1.9688 0.77734 4.3672 0.89062 6.668 0.31641 1.875-0.47266 3.5703-1.3711 4.8359-2.5664 1.2617 1.1953 2.9609 2.0938 4.8359 2.5664 2.3008 0.57422 4.6992 0.46094 6.6641-0.3125 1.9688-0.77734 3.3438-2.1523 3.8242-3.8242 0.58594-2.0508-0.23438-4.3125-2.2031-6.0664 2.3828-1.5469 4.4414-3.5039 6.0742-5.7695 1.8984 0.89062 3.7539 2.3906 5.6406 3.8984 4.6719 3.7422 10.883 4.7695 15.641 1.8711 4.7539-2.8984 7.2305-8.7969 7.168-16.082v0.003906c0.007812-1.2031-0.46875-2.3555-1.3242-3.1953-0.85547-0.84375-2.0117-1.3008-3.2109-1.2734-2.4453 0.058594-4.3828 2.0898-4.3281 4.543 0.042968 5.2852-1.6523 7.6445-2.9102 8.4102-1.2578 0.76562-2.9062 0.85938-5.5078-1.2227-1.7266-1.3828-4.1875-3.5586-7.5664-5.082h0.003907c0.3125-1.457 0.46875-2.9375 0.46875-4.4258-0.007813-3.3125-0.79297-6.582-2.293-9.5703 0.58594-0.48828 1.1523-0.99609 1.6953-1.5195 0.625 0.011718 1.3281 0.10156 2.082 0.28516 1.332 0.33203 2.7891 0.90234 4.1289 1.5156 2.6758 1.2266 4.875 2.6211 4.875 2.6211l0.59375-0.9375s-2.2539-1.4297-5.0078-2.6953c-1.3789-0.63281-2.8828-1.2266-4.3203-1.582-0.43359-0.10547-0.85547-0.18359-1.2734-0.24219h-0.003907c0.625-0.67188 1.2188-1.3672 1.7695-2.0859 0.11719 0.023437 0.22656 0.042968 0.34766 0.070312 1.332 0.33203 2.7891 0.90234 4.1289 1.5156 2.6758 1.2266 4.875 2.6211 4.875 2.6211l0.59375-0.9375s-2.2539-1.4297-5.0078-2.6953c-1.3516-0.62109-2.8281-1.2031-4.2422-1.5586v-0.003907c0.48438-0.68359 0.9375-1.3867 1.3516-2.1094 1.1641 0.33984 2.3906 0.82031 3.5352 1.3438 2.6758 1.2266 4.875 2.625 4.875 2.625l0.59375-0.9375s-2.2539-1.4336-5.0078-2.6992c-1.1055-0.50781-2.2891-0.98047-3.457-1.3359v0.003907c1.9141-3.6602 2.9141-7.6523 2.9258-11.695-0.003906-3.5195-0.75781-7.0078-2.2148-10.281v-27.441c-0.003907-0.91016-0.29297-1.7852-0.80859-2.4219-0.51562-0.63672-1.2148-0.98438-1.9336-0.96094-0.44922 0.011719-0.89062 0.16797-1.2773 0.44922l-18.457 13.477c-2.082-0.39063-4.207-0.58984-6.332-0.59375-2.1211 0.011718-4.2383 0.21484-6.3086 0.61328l-18.484-13.492v-0.003906c-0.39062-0.28125-0.82812-0.4375-1.2773-0.44922m0.58594 6.6641l6.2969 12.625h-0.003906c-2.418 1.7031-4.5391 3.7227-6.293 5.9922v-18.613m50.969 0v18.656-0.003906c-1.7578-2.2734-3.8828-4.2969-6.3086-6.0078l6.3047-12.641m-41.43 31.113c1.0977-0.019531 2.2188 0.10156 3.3281 0.375 4.4258 1.1016 7.7812 4.4258 8.1836 8.418 0.023437 0.24609-0.042969 0.49219-0.19141 0.6875-2.4805 3.2461-7.1211 4.5703-11.555 3.4766-4.4258-1.1016-7.7812-4.4258-8.1875-8.418v-0.003906c-0.023438-0.24219 0.042969-0.48828 0.19141-0.68359 1.8594-2.4375 4.9375-3.7891 8.2266-3.8477zm31.895 0c3.293 0.0625 6.3672 1.4141 8.2266 3.8477h0.003906c0.14844 0.19531 0.21484 0.44141 0.19141 0.6875-0.40625 3.9922-3.7617 7.3164-8.1875 8.418-4.4336 1.0938-9.0742-0.22656-11.555-3.4766h0.003906c-0.15234-0.19531-0.21875-0.4375-0.19531-0.68359 0.40625-3.9922 3.7578-7.3164 8.1836-8.418 1.1094-0.27344 2.2266-0.39844 3.3281-0.375zm-27.582 2.2188c-0.73438 0-1.4414 0.35156-1.9609 0.97656-0.51953 0.625-0.80859 1.4727-0.80859 2.3594 0 0.88281 0.28906 1.7305 0.80859 2.3555 0.51953 0.625 1.2266 0.97656 1.9609 0.97656s1.4375-0.35156 1.957-0.97656c0.51953-0.625 0.8125-1.4727 0.8125-2.3555 0-0.88672-0.29297-1.7344-0.8125-2.3594-0.51953-0.625-1.2227-0.97656-1.957-0.97656m23.27 0c-0.73438 0-1.4375 0.35156-1.957 0.97656s-0.8125 1.4727-0.8125 2.3594c0 0.88281 0.29297 1.7305 0.8125 2.3555s1.2227 0.97656 1.957 0.97656c1.5273 0 2.7695-1.4922 2.7695-3.332s-1.2422-3.332-2.7695-3.3359m-11.633 13.332c1.8359 0 3.3242 0.99609 3.3242 2.2227s-1.4883 2.2227-3.3242 2.2227c-0.88281 0-1.7266-0.23438-2.3516-0.65234-0.625-0.41797-0.97266-0.98047-0.97266-1.5703 0-1.2266 1.4883-2.2227 3.3242-2.2227"/>
</svg>
