<?xml version="1.0" encoding="UTF-8"?>
<svg width="100pt" height="100pt" version="1.1" viewBox="0 0 100 100" xmlns="http://www.w3.org/2000/svg">
 <g>
  <path d="m92.953 54.387c-0.26953-0.30078-7.0117-7.543-15.305-7.0391 0.019531-0.30859 0.03125-0.61719 0.03125-0.92188 0-7.9609-6.7773-14.121-7.0664-14.383-1.1836-1.0625-2.9844-1.0625-4.168 0-0.29297 0.26172-7.0703 6.4258-7.0703 14.387 0 1.1797 0.14844 2.3711 0.44141 3.5703h-50.441c-1.7266 0-3.125 1.3984-3.125 3.125 0 21.203 10.777 34.375 28.125 34.375 15.746 0 31.969-10.113 38.047-23.164 2.0625 0.85547 4.1211 1.2891 6.1484 1.2891 7.9648 0 14.125-6.7812 14.383-7.0664 1.0625-1.1875 1.0625-2.9844 0-4.1719zm-69.516 14.363c-2.5859 0-4.6875-2.1016-4.6875-4.6875s2.1016-4.6875 4.6875-4.6875 4.6875 2.1016 4.6875 4.6875-2.1016 4.6875-4.6875 4.6875z"/>
  <path d="m9.375 37.5h9.375v9.375h-9.375z"/>
  <path d="m21.875 37.5h9.375v9.375h-9.375z"/>
  <path d="m21.875 25h9.375v9.375h-9.375z"/>
  <path d="m34.375 25h9.375v9.375h-9.375z"/>
  <path d="m34.375 12.5h9.375v9.375h-9.375z"/>
  <path d="m34.375 37.5h9.375v9.375h-9.375z"/>
  <path d="m46.875 37.5h9.375v9.375h-9.375z"/>
 </g>
</svg>
