<?xml version="1.0" encoding="UTF-8"?>
<svg width="100pt" height="100pt" version="1.1" viewBox="0 0 100 100" xmlns="http://www.w3.org/2000/svg">
 <g>
  <path d="m50 10c-26.199 0-47.5 15.699-47.5 35.102 0 9.8984 5.5 19.098 15.102 25.699-1.1016 2.1016-2.6016 4.3008-4.6016 6.5-2.3008 2.6992-2.5 6.5-0.5 9.3984 1.5 2.1016 3.8008 3.3008 6.1992 3.3008 0.89844 0 1.8008-0.19922 2.6992-0.5 6.1016-2.1992 13.5-5.5 22.199-9.6992 2.3008 0.19922 4.3008 0.30078 6.3008 0.30078 26.199 0 47.5-15.699 47.5-35.102 0.10156-19.301-21.199-35-47.398-35zm0 61.898c-2 0-4.1992-0.10156-6.6016-0.39844-0.80078-0.10156-1.6016 0-2.3008 0.39844-7.8984 3.8008-14.699 6.8984-20.398 9.1016 2.8008-3.6016 4.8008-7.1016 6-10.5 0.60156-1.8984-0.10156-3.8984-1.8984-4.8984-9-5.1992-14.102-12.602-14.102-20.5 0-14.801 17.602-26.801 39.199-26.801 21.602 0 39.199 12 39.199 26.801 0.10156 14.797-17.496 26.797-39.098 26.797z"/>
  <path d="m61.102 42.398v-5.1016c0-6.1016-5-11.102-11.102-11.102s-11.102 5-11.102 11.102v5.1016c-2.1992 0.30078-3.8984 2.1016-3.8984 4.3984v11.398c0 2.5 2 4.5 4.5 4.5h20.801c2.5 0 4.5-2 4.5-4.5v-11.395c0.19922-2.3008-1.5-4.1016-3.6992-4.4023zm-9.7031 10.801 0.80078 3.1992c0.10156 0.60156-0.30078 1.1016-0.89844 1.1016h-2.6016c-0.60156 0-1-0.5-0.89844-1.1016l0.80078-3.1992c-1-0.5-1.6992-1.5-1.6992-2.6016 0-1.6992 1.3008-3 3-3 1.6992 0 3 1.3008 3 3 0.097656 1.1016-0.60156 2.1016-1.5039 2.6016zm2.5-11h-7.8008v-4.8984c0-2.1016 1.6992-3.8984 3.8984-3.8984 2.1992 0 3.8984 1.6992 3.8984 3.8984z"/>
 </g>
</svg>
