<?xml version="1.0" encoding="UTF-8"?>
<svg width="100pt" height="100pt" version="1.1" viewBox="0 0 100 100" xmlns="http://www.w3.org/2000/svg">
 <path d="m18.832 40.5c0.16797 0.33203 0.5 0.5 0.83203 0.66797l11.5 4.832c1 1 2.332 1.668 3.5 2.168 0.5 2 1.832 6.832 4.168 10.668-0.33203 0.5-0.33203 1.168 0 1.668 0.5 0.83203 11.5 19.832 21.332 29.5 1.168 1.168 2.832 1.832 4.332 1.832 1.668 0 3.168-0.66797 4.332-1.832 2.332-2.332 2.332-6.332 0-8.668-5.168-5.332-17.5-18.5-22-27.668-0.16797-0.5-0.66797-0.83203-1.168-1-0.33203 0-0.66797 0-1 0.16797-1-2-1.5-4-1.668-5 1-0.5 1.832-1.168 2.668-2 0.83203-0.83203 1.5-1.668 2-2.668 1.168 0.16797 3 0.66797 5 1.668-0.16797 0.33203-0.16797 0.66797-0.16797 1 0.16797 0.5 0.5 1 1 1.168 9.168 4.332 22.332 16.832 27.668 22 1.168 1.168 2.832 1.668 4.332 1.668 1.668 0 3.168-0.66797 4.332-1.832 2.332-2.332 2.332-6.332 0-8.668-9.668-9.832-28.668-20.832-29.5-21.332-0.5-0.33203-1.168-0.33203-1.668 0-3.832-2.5-8.668-3.832-10.668-4.168-0.5-1.332-1.168-2.5-2.168-3.5l-4.832-11.5c-0.16797-0.33203-0.33203-0.5-0.66797-0.83203l-16.168-10.168c-0.66797-0.33203-1.5-0.33203-2 0.16797l-3.332 3.332c-0.66797 0.66797-0.66797 1.5-0.16797 2.168l6 7.668c0.16797 0.16797 0.33203 0.33203 0.33203 0.33203s4.832 3.168 7.168 6.832c-0.66797 0.33203-1.168 0.83203-1.668 1.332-0.66797 0.66797-1.168 1.332-1.5 2-3.668-2.332-6.832-7.168-7-7.168-0.16797-0.16797-0.16797-0.33203-0.33203-0.33203l-7.668-6c-0.66797-0.5-1.668-0.5-2.168 0.16797l-3.168 3.168c-0.5 0.5-0.66797 1.332-0.16797 2zm47.668 43c1.168 1.168 1 2.832 0 4-1.168 1.168-3 1.168-4 0-8.332-8-17.668-23.5-20.168-27.668l2.832-2.832c4.8359 9 15.336 20.332 21.336 26.5zm-24.168-28.332-1.168 1.168c-1.5-2.5-2.5-5.5-3-7.5h0.16797c0.5 0 1.168 0 1.668-0.16797 0.16797 1.6641 0.83203 4 2.332 6.5zm-9.332-11.836c-2.832-2.832-2.832-7.5 0-10.332 0.66797-0.66797 1.332-1 2-1.332h0.16797c0.16797 0 0.16797-0.16797 0.33203-0.16797 0.83203-0.33203 1.832-0.5 2.668-0.5 1.832 0 3.832 0.66797 5.168 2.168 2.832 2.832 2.832 7.5 0 10.332-2.8359 2.668-7.5039 2.668-10.336-0.16797zm54.5 23.168c-1.168 1.168-2.832 1.168-4 0-6.168-6-17.5-16.5-26.5-21.5l2.832-2.832c4.168 2.5 19.668 11.832 27.668 20.168 1.168 1.1641 1.168 2.9961 0 4.1641zm-31.168-25.332-1.168 1.168c-2.5-1.5-4.832-2.168-6.332-2.5 0.16797-0.5 0.16797-1.168 0.16797-1.668 1.832 0.5 4.832 1.5 7.332 3zm-29.164-21.336-5-6.332 1.332-1.332 14.668 9.168 2.832 6.668c-1.832-0.5-3.832-0.5-5.668 0-2.332-4.1719-7-7.3359-8.1641-8.1719zm-14 2.668 6.332 5c0.83203 1.168 4.168 6 8.332 8.332-0.33203 1.668-0.33203 3.5 0.16797 5.332l-6.668-2.832-9.168-14.668z"/>
</svg>
