<?xml version="1.0" encoding="UTF-8"?>
<svg width="100pt" height="100pt" version="1.1" viewBox="0 0 100 100" xmlns="http://www.w3.org/2000/svg">
 <g>
  <path d="m97.5 37.801c0-1.8008-0.69922-3.6016-2-4.8984l-2.1992-2.1992c-2.6016-2.6016-7.1992-2.6016-9.8008 0l-2 2-0.60156-0.60156c-1-1-2.6016-1-3.5 0l-35.199 35.199c-0.30078 0.30078-0.5 0.60156-0.60156 0.89844l-6.1016 17.5c-0.5 1.3984-0.10156 3 0.89844 4.1016 0.80078 0.80078 1.6992 1.1992 2.8008 1.1992 0.39844 0 0.89844-0.10156 1.3008-0.19922l17.504-6.1992c0.39844-0.10156 0.69922-0.30078 0.89844-0.60156l35.199-35.199c0.5-0.5 0.69922-1.1016 0.69922-1.8008s-0.30078-1.3008-0.69922-1.8008l-0.60156-0.60156 2-2c1.3047-1.1992 2.0039-2.8984 2.0039-4.7969zm-48.602 29.898 22.5-22.5 9.6992 9.6992-22.598 22.402zm-3.1992 3.9023 8.8984 8.8984-13.699 4.8008zm38.801-20.301-9.6992-9.6992 4.3008-4.3008 9.6992 9.6992zm0.60156-15.102 2-2c0.69922-0.69922 2-0.69922 2.6992 0l2.1992 2.1992c0.69922 0.69922 0.69922 2 0 2.6992l-2 2z"/>
  <path d="m27.301 85.898c-12.398 0-18.199-3.5-19.398-6.6016-1.3008-3.1016 1.6016-6.5 3.3984-8.3008 4-3.8984 9.6992-6.3008 14.699-8.5 7-3 13.602-5.8008 13.602-12.199 0-7.8984-8.1016-9.1016-14.699-10-7.3008-1.1016-10.699-1.8984-10.699-5.3984 0-0.80078 0.19922-1.3008 0.80078-1.8008 3.1992-3.1992 14.602-3.1016 24.602-3 12 0.10156 22.301 0.30078 26.699-4 1.3008-1.3008 2-3 2-4.8984 0-2.3984-1-4.6992-2.8008-6.5-6.8047-6.1992-23.605-5.6992-25.504-5.5977-1.3984 0.10156-2.5 1.1992-2.3984 2.6016 0.10156 1.3984 1.1992 2.3984 2.6016 2.3984 4.6016-0.19922 17.301 0.19922 21.699 4.3984 0.89844 0.80078 1.3008 1.8008 1.3008 2.8008 0 0.5-0.19922 0.89844-0.5 1.3008-2.8008 2.8008-13.602 2.6992-23.102 2.6016-12.102-0.10156-23.5-0.30078-28.199 4.3984-1.5 1.3984-2.1992 3.3008-2.1992 5.3984 0 8.1016 8.3008 9.3984 15 10.301 7.1016 1 10.398 1.8984 10.398 5.1016 0 3.1016-4.8984 5.1992-10.5 7.6016-5.3984 2.3008-11.602 4.8984-16.199 9.5-6.3008 6.1992-5.5 11.301-4.5 13.801 2.2969 6.0938 11.098 9.6953 23.898 9.6953 1.3984 0 2.5-1.1016 2.5-2.5s-1.1016-2.6016-2.5-2.6016z"/>
 </g>
</svg>
