<?xml version="1.0" encoding="UTF-8"?>
<svg width="100pt" height="100pt" version="1.1" viewBox="0 0 100 100" xmlns="http://www.w3.org/2000/svg">
 <g>
  <path d="m85.262 22.715c-2.8672 0-5.5664 1.1172-7.5938 3.1445-0.27734 0.27734-0.45312 0.61719-0.53125 0.97656-0.35547 0.078124-0.69531 0.25391-0.97266 0.53125l-43.535 43.535c-0.20312 0.20312-0.36328 0.44922-0.46484 0.72266l-5.1914 14.098c-1.1094 3.0156-0.078125 4.6641 0.63672 5.3828 0.48828 0.48828 1.4141 1.1289 2.9141 1.1289 0.69531 0 1.5117-0.13672 2.4648-0.48828l14.059-5.1797c0.27734-0.097656 0.53906-0.25391 0.76172-0.47656l43.535-43.531c0.26953-0.26953 0.44922-0.60938 0.53125-0.97656 0.35547-0.078125 0.69531-0.25391 0.97266-0.53125 2.0352-2.0312 3.1523-4.7266 3.1523-7.5977 0-2.8672-1.1172-5.5664-3.1445-7.5938-2.0312-2.0273-4.7266-3.1445-7.5938-3.1445zm-38.863 59.129l-5.3203-5.3242c-0.78125-0.78125-2.0469-0.78125-2.8281 0s-0.78125 2.0469 0 2.8281l4.5273 4.5273-11.164 4.1133c-0.58203 0.21484-0.94531 0.23828-1.1211 0.23438-0.007813-0.17969 0.019531-0.53906 0.23437-1.1211l5.0391-13.688 41.809-41.809 9.5273 9.5273zm43.625-43.625c-0.03125 0.03125-0.054688 0.066406-0.082032 0.10156l-9.5508-9.5469c0.03125-0.027344 0.070313-0.050782 0.10156-0.082032 1.2734-1.2734 2.9648-1.9727 4.7656-1.9727 1.8008 0 3.4922 0.69922 4.7656 1.9727 1.2773 1.2695 1.9766 2.9609 1.9766 4.7617s-0.69922 3.4922-1.9766 4.7656z"/>
  <path d="m21.164 84.199c-6.9688-3.7305-10.719-9.2617-10.293-15.172 0.49609-6.8945 6.6406-13.293 16.031-16.695 10.391-3.7617 16.426-13.328 14.684-23.262-1.0312-5.8828-4.7109-11.184-10.359-14.918-6.3164-4.1719-15.039-6.3828-25.227-6.3828-1.1055 0-2 0.89453-2 2s0.89453 2 2 2c13.141 0 29.316 4.7148 31.645 17.996 1.4219 8.1133-3.4414 15.672-12.105 18.809-11.059 4.0039-18.035 11.543-18.656 20.168-0.54687 7.5547 3.9727 14.477 12.395 18.984 0.30078 0.16016 0.625 0.23828 0.94141 0.23828 0.71484 0 1.4023-0.38281 1.7656-1.0586 0.51953-0.97266 0.15234-2.1836-0.82031-2.707z"/>
 </g>
</svg>
