<?xml version="1.0" encoding="UTF-8"?>
<svg width="100pt" height="100pt" version="1.1" viewBox="0 0 100 100" xmlns="http://www.w3.org/2000/svg">
 <path d="m91.898 61.371-14-42c-0.20313-0.62109-0.69922-1.1055-1.3281-1.293l-37-11c-0.71094-0.21094-1.4805-0.015625-2 0.51172l-31 31c-0.53906 0.53906-0.72656 1.3398-0.48047 2.0586l15 44c0.24219 0.73047 0.87891 1.2539 1.6406 1.3516l36 5h0.26953c0.48047 0 0.94531-0.17578 1.3086-0.48828l31-27c0.61328-0.53125 0.84375-1.375 0.58984-2.1406zm-67.457 20.629 7.1602-34.949 33.078 34zm52.82-50.309-44.934 11.918 7.0586-31.75zm-47 12.121-19.102-4.1523 25.719-25.66zm36.117 36.109-33.469-34.391 45.469-12.07 0.12109 0.35156-12 46zm10.621-50.633-30.52-16 28 8.3086zm-66.34 12.312 19.16 4.1719-6.6602 32.488zm47.711 45.289-22.871-3.1719 27.23-0.62109zm10.852-9.4414 10.438-40.16 8 24.078zm-27.582-41.949c0.20703-1.4336 0.85156-2.7695 1.8477-3.8203 0.69531-0.80078 1.3086-1.6641 1.8398-2.5781 0.33984-0.65625 0.36719-1.4258 0.070313-2.1016-0.22656-0.53906-0.62109-0.98828-1.1289-1.2812-0.53125-0.29297-1.1523-0.36719-1.7383-0.20703-0.89844 0.19922-1.3789 0.64062-1.4609 1.3086 0 0.59766 0.12109 1.1914 0.35938 1.7383l-3 0.69922v0.003907c-0.39453-0.94922-0.53906-1.9805-0.41797-3 0.26172-1.5117 1.3984-2.4688 3.3984-2.9102 1.3984-0.35937 2.8789-0.25 4.2109 0.30859 1.2188 0.52734 2.1914 1.4961 2.7305 2.7109 0.4375 0.89062 0.51172 1.9141 0.20703 2.8594-0.30859 0.83594-0.76562 1.6055-1.3477 2.2812l-0.85156 1.0781c-0.53906 0.66797-0.89844 1.1562-1.0781 1.4688-0.14844 0.29688-0.24219 0.61328-0.28125 0.94141l6.6211-1.7383 1.1094 2.4492-10.641 2.8906c-0.39062-0.98437-0.54688-2.0469-0.44922-3.1016zm14.93-13.691c1.4648 1.2461 2.6367 2.8008 3.4297 4.5508 0.94922 1.5977 1.457 3.4219 1.4688 5.2812-0.10156 1.3984-1.0586 2.3594-2.8711 2.8516l0.003906-0.003907c-1.625 0.54297-3.4141 0.23438-4.7617-0.81641-1.5469-1.3438-2.7578-3.0352-3.5312-4.9336-0.88281-1.6016-1.2969-3.4219-1.1992-5.25 0.19922-1.3008 1.1914-2.1406 3-2.5312v0.003907c1.5391-0.41797 3.1836-0.10547 4.4609 0.84766zm-1.2617 9.6602c0.51562 0.70703 1.4062 1.0273 2.25 0.8125 0.36719-0.066406 0.68359-0.28906 0.875-0.60547 0.19531-0.31641 0.23828-0.70312 0.125-1.0547-0.27344-1.2461-0.72266-2.4492-1.3281-3.5703-0.53906-1.1992-1.2305-2.3242-2.0586-3.3398-0.50781-0.62109-1.3242-0.89453-2.1016-0.71094-0.33984 0.042969-0.64844 0.22266-0.85156 0.5-0.20312 0.27344-0.28125 0.62109-0.21875 0.96094 0.23047 1.2344 0.64844 2.4258 1.2305 3.5391 0.53516 1.2422 1.2344 2.4102 2.0781 3.4688z"/>
</svg>
