<?xml version="1.0" encoding="UTF-8"?>
<svg width="100pt" height="100pt" version="1.1" viewBox="0 0 100 100" xmlns="http://www.w3.org/2000/svg">
 <g>
  <path d="m87.516 58.473c-0.69141 0-1.3867-0.26172-1.918-0.79297l-9.1328-9.1328c-1.0586-1.0547-1.0586-2.7695 0-3.8281s2.7734-1.0586 3.832 0l7.2148 7.2148 7.2148-7.2148c1.0586-1.0586 2.7734-1.0586 3.832 0s1.0586 2.7734 0 3.8281l-9.1328 9.1328c-0.52344 0.52734-1.2188 0.79297-1.9102 0.79297z"/>
  <path d="m87.516 58.473c-0.69141 0-1.3867-0.26172-1.918-0.79297l-9.1328-9.1328c-1.0586-1.0547-1.0586-2.7695 0-3.8281s2.7734-1.0586 3.832 0l7.2148 7.2148 7.2148-7.2148c1.0586-1.0586 2.7734-1.0586 3.832 0s1.0586 2.7734 0 3.8281l-9.1328 9.1328c-0.52344 0.52734-1.2188 0.79297-1.9102 0.79297z"/>
  <path d="m50 90.672c-22.426 0-40.668-18.246-40.668-40.672 0-1.4961 1.2109-2.707 2.707-2.707 1.5 0 2.7109 1.2109 2.7109 2.707 0 19.438 15.812 35.25 35.25 35.25 9.4609 0 18.34-3.6953 25.008-10.402 1.0547-1.0664 2.7695-1.0625 3.8281-0.011718 1.0625 1.0547 1.0664 2.7656 0.011718 3.8281-7.6836 7.7383-17.93 12.008-28.848 12.008z"/>
  <path d="m87.957 52.707c-1.4961 0-2.707-1.2148-2.707-2.707 0-19.438-15.812-35.25-35.25-35.25-9.75 0-19.16 4.0977-25.809 11.242-1.0195 1.0938-2.7383 1.1523-3.8281 0.13672-1.0938-1.0195-1.1562-2.7344-0.13672-3.8281 7.6719-8.2383 18.523-12.969 29.773-12.969 22.426 0 40.672 18.242 40.672 40.668 0 1.4961-1.2148 2.707-2.7148 2.707z"/>
  <path d="m21.617 58.473c-0.69531 0-1.3867-0.26172-1.9141-0.79297l-7.2188-7.2227-7.2148 7.2148c-1.0586 1.0586-2.7695 1.0586-3.8281 0s-1.0586-2.7734 0-3.832l9.1328-9.1289c1.0586-1.0586 2.7695-1.0586 3.8281 0l9.1328 9.1289c1.0586 1.0586 1.0586 2.7734 0 3.832-0.53125 0.53516-1.2266 0.80078-1.918 0.80078z"/>
 </g>
</svg>
