<?xml version="1.0" encoding="UTF-8"?>
<svg width="100pt" height="100pt" version="1.1" viewBox="0 0 100 100" xmlns="http://www.w3.org/2000/svg">
 <path d="m69.387 16.328c3.3828 0 6.125-2.7422 6.125-6.125 0-3.3789-2.7422-6.1211-6.125-6.1211-3.3789 0-6.1211 2.7422-6.1211 6.1211 0 3.3828 2.7422 6.125 6.1211 6.125zm0 4.0781c-5.6328 0-10.203-4.5664-10.203-10.203 0-5.6328 4.5703-10.203 10.203-10.203 5.6367 0 10.207 4.5703 10.207 10.203 0 5.6367-4.5703 10.203-10.207 10.203zm11.039 40.988c2.5273-0.78125 4.2695-3.0859 4.2695-5.7109v-23.164c0-3.293-2.7344-5.9883-6.1328-5.9883h-18.348c-3.4062 0-6.1328 2.6914-6.1328 5.9883v23.164c0 2.6211 1.7422 4.9258 4.2734 5.7109l2.8672 0.89453v27.648c0 3.2891 2.7344 5.9805 6.1289 5.9805h4.0742c3.3906 0 6.125-2.6953 6.125-5.9805v-27.652zm1.207 3.8984v24.645c0 5.5586-4.5781 10.062-10.207 10.062h-4.0742c-5.6367 0-10.207-4.5078-10.207-10.062v-24.645c-4.1406-1.2852-7.1445-5.1016-7.1445-9.6094v-23.164c0-5.5625 4.5625-10.07 10.215-10.07h18.348c5.6406 0 10.215 4.5117 10.215 10.07v23.164c0 4.5117-3 8.3281-7.1445 9.6094zm-54.082-39.781h12.246l-14.285-25.512-14.289 25.512h12.246v48.977h-12.246l14.289 25.512 14.285-25.512h-12.246zm-2.0391-17.156l7.3203 13.074h-14.645zm7.3203 70.215l-7.3203 13.074-7.3242-13.074z" fill-rule="evenodd"/>
</svg>
