<?xml version="1.0" encoding="UTF-8"?>
<svg width="100pt" height="100pt" version="1.1" viewBox="0 0 100 100" xmlns="http://www.w3.org/2000/svg">
 <g>
  <path d="m24.176 97.215c-0.11719 0-0.23438-0.019532-0.35547-0.0625-0.54297-0.19531-0.82031-0.78906-0.62891-1.332 6.9688-19.324-1.4844-35.387-5.5469-43.105-1.1055-2.1016-1.8398-3.4922-1.9805-4.418-2.4297-15.789-0.87109-16.098-0.03125-16.262 0.73047-0.14453 2.332-0.89062 3.1719-1.332 0.51172-0.26953 1.1406-0.070313 1.4062 0.4375 0.26562 0.51172 0.070312 1.1406-0.4375 1.4062-0.22266 0.11719-1.9844 1.0312-3.2656 1.4102-0.28516 1.6758 0.37109 8.5039 1.2188 14.02 0.089844 0.57813 0.86719 2.0547 1.7656 3.7656 4.1992 7.9805 12.941 24.59 5.6641 44.777-0.15234 0.43359-0.55078 0.69531-0.98047 0.69531z"/>
  <path d="m23.117 52.125c-0.50781 0-0.95313-0.375-1.0273-0.89453-0.007813-0.066407-0.95703-6.668-1.5195-9.1914-0.57422-2.5859-3.0664-17.445-3.1719-18.078l-0.085938-0.51563 0.35938-0.37891c1.7734-1.8555 5.8281 0.52734 7.2148 1.832 0.41797 0.39453 0.44141 1.0547 0.050781 1.4727-0.39844 0.42188-1.0547 0.4375-1.4727 0.046875-1.1445-1.0742-2.9883-1.8711-3.8672-1.957 0.55078 3.2617 2.5234 14.941 3.0078 17.125 0.57422 2.5977 1.5039 9.0742 1.5469 9.3477 0.082031 0.57031-0.3125 1.0977-0.88281 1.1797-0.050781 0.011719-0.10156 0.011719-0.15234 0.011719z"/>
  <path d="m29.066 52.125c-0.39062 0-0.76172-0.21875-0.94141-0.59766-0.12109-0.25781-2.9648-6.3125-3.2617-11.25-0.28125-4.7227-1.7109-20.07-1.7266-20.227l-0.058594-0.64453 0.54688-0.33984c0.16797-0.10547 1.6875-0.99609 3.3672-0.47266 1.1211 0.34766 1.9961 1.2109 2.5938 2.5703 0.61719 1.4023 0.77734 3.3086 0.96484 5.5117 0.3125 3.6914 0.70312 8.2852 3.4102 12.461 0.3125 0.48047 0.17578 1.1289-0.30859 1.4414-0.48047 0.3125-1.1289 0.17969-1.4414-0.30859-2.9922-4.6133-3.4062-9.4961-3.7383-13.418-0.17188-2.0195-0.32031-3.7617-0.79688-4.8477-0.34375-0.77734-0.77734-1.2539-1.293-1.418-0.38281-0.12109-0.79297-0.066407-1.1094 0.023437 0.29297 3.1641 1.4102 15.395 1.6602 19.543 0.27344 4.5312 3.0391 10.426 3.0664 10.484 0.24609 0.51953 0.023438 1.1406-0.49609 1.3867-0.13672 0.070312-0.28516 0.10156-0.4375 0.10156z"/>
  <path d="m42.871 98.656c-0.015625 0-0.027344 0-0.042969-0.003906-0.57422-0.019532-1.0195-0.50781-1-1.082 0.82812-19.848 7.4922-24.938 11.473-27.98 1.5781-1.2031 2.3359-1.8203 2.3359-2.7188 0-3.3047 1.1992-7.0703 2.2539-10.387 1.0625-3.3438 2.2695-7.1328 1.2266-8.1484-0.61328-0.59766-1.1328-0.88672-1.4688-0.80078-1.1445 0.32031-2.1094 4.0938-2.8164 6.8477-1.0391 4.0625-1.9375 7.5703-4.168 8.2695-2.6133 0.8125-4.8828-2.9102-6.7109-5.9062-0.40625-0.66406-0.76562-1.2539-1.0625-1.6719-1.5352-2.1484-5.3672-13.512-5.3672-15.371 0-2.7461-0.55859-14.852-1.7305-16.887-0.22266-0.39062-0.43359-0.46484-0.58984-0.48828-0.53516-0.078125-1.3672 0.40234-1.8906 0.80469 0.16797 2.3945 0.82812 12.059 0.82812 16.57 0 4.8438 1.9375 10.57 1.957 10.629 0.1875 0.54297-0.10547 1.1367-0.64844 1.3203-0.54688 0.18359-1.1367-0.10547-1.3242-0.64844-0.085938-0.24609-2.0703-6.1094-2.0703-11.305 0-4.9844-0.85156-16.828-0.85938-16.949l-0.035156-0.48828 0.35547-0.33984c0.20703-0.19922 2.0938-1.918 3.9844-1.6602 0.60938 0.089843 1.4688 0.42188 2.0938 1.5078 1.7344 3.0039 2.0117 17.781 2.0117 17.93 0.015625 1.3359 3.6133 12.246 4.9805 14.16 0.32031 0.44922 0.70703 1.082 1.1445 1.7969 0.89062 1.4609 3.2461 5.3164 4.3125 5.0039 1.125-0.35156 2.0781-4.0781 2.7734-6.8008 1.0586-4.125 1.9688-7.6875 4.2695-8.3359 1.0938-0.30469 2.2734 0.13281 3.4844 1.3125 1.9688 1.9141 0.73438 5.7852-0.69141 10.27-1.0117 3.1758-2.1562 6.7734-2.1562 9.7578 0 1.9648-1.4648 3.082-3.1562 4.375-3.6914 2.8203-9.8672 7.5352-10.652 26.406-0.027343 0.57422-0.48828 1.0117-1.043 1.0117z"/>
  <path d="m98.957 71.906c-0.14453 0-0.28906-0.03125-0.42969-0.09375-4.3945-1.9844-10.648-12.324-11.531-19.074-3.75-28.59-15.262-36.914-24.258-38.859-11.148-2.4102-22.906 4.0859-25.605 8.4219-0.30469 0.48828-0.94922 0.63672-1.4336 0.33594-0.48828-0.30469-0.64062-0.94531-0.33594-1.4375 2.8594-4.6016 15.273-12.074 27.812-9.3555 9.6523 2.0859 21.977 10.828 25.887 40.625 0.84375 6.4297 6.8711 15.887 10.324 17.445 0.52344 0.23438 0.75781 0.85547 0.51953 1.3789-0.17578 0.38281-0.55078 0.61328-0.94922 0.61328z"/>
  <path d="m59.461 95.906c-0.52344 0-0.98047-0.058594-1.3594-0.17578-2.7305-0.83984-5.8047-4.2109-8.2695-6.918-1.1641-1.2812-2.2695-2.4883-2.9805-3.0234-0.46094-0.34766-0.55469-0.99609-0.21094-1.457 0.34766-0.46484 1-0.55469 1.457-0.21094 0.86719 0.64844 1.9805 1.8711 3.2695 3.2852 2.1758 2.3906 5.1562 5.6562 7.3438 6.332 1.3984 0.42969 5.5469-0.56641 9.4375-3.4727 3.2148-2.3984 8.5859-7.9258 8.4688-17.957-0.007813-0.57422 0.45312-1.0469 1.0273-1.0547h0.011719c0.57031 0 1.0352 0.46094 1.043 1.0273 0.125 10.953-5.7734 17.012-9.3047 19.648-3.5586 2.668-7.4609 3.9766-9.9336 3.9766z"/>
  <path d="m76.773 60.977c-1.3594 0-1.9961-0.64062-2.2656-1.043-0.32031-0.48047-0.1875-1.125 0.28906-1.4453 0.47266-0.31641 1.1211-0.19141 1.4453 0.28906 0.015624 0.027344 0.22656 0.14062 0.72266 0.10547 1.6367-0.12109 4.5977-1.7461 5.8945-4.4961 1.1562-2.4453 0.72266-5.2266-1.2656-8.0469-1.6367-2.3203-3.1992-3.3945-4.6367-3.2109-2.5547 0.33594-4.625 4.5156-5.2109 6.0977-0.19922 0.53906-0.80078 0.81641-1.3359 0.61719-0.53906-0.19922-0.81641-0.79688-0.61719-1.3398 0.10156-0.27734 2.5781-6.875 6.8906-7.4414 2.2773-0.30078 4.4922 1.0742 6.6055 4.0742 3.0859 4.3789 2.4883 7.9297 1.4453 10.137-1.5742 3.3203-5.1133 5.5-7.6289 5.6836-0.10938 0.015625-0.22266 0.019531-0.33203 0.019531z"/>
  <path d="m80.262 95.914c-0.25391 0-0.50391-0.089843-0.70703-0.27734-0.42188-0.39062-0.44922-1.0469-0.0625-1.4727 0.41406-0.91016-2.0039-5.582-5.1953-9.9688-0.33984-0.46484-0.23438-1.1172 0.23047-1.457 0.46484-0.33594 1.1172-0.23438 1.4531 0.23047 2.7461 3.7734 7.0547 10.426 5.0469 12.605-0.20312 0.22656-0.48438 0.33984-0.76562 0.33984z"/>
  <path d="m15.117 19.484c-0.31641 0-0.63281-0.14453-0.83984-0.42188-0.039063-0.050781-3.9062-5.2656-6.6562-7.543-0.4375-0.36719-0.5-1.0234-0.13281-1.4688 0.36719-0.44141 1.0195-0.50391 1.4688-0.13672 2.9414 2.4375 6.8359 7.6836 7 7.9062 0.33984 0.46094 0.24219 1.1133-0.21875 1.457-0.1875 0.14062-0.40234 0.20703-0.62109 0.20703z"/>
  <path d="m25.902 12.961c-0.55078 0-1.0078-0.42578-1.0391-0.98047-0.089843-1.543-0.60938-5.8906-1.9102-7.4688-0.36719-0.44531-0.30469-1.1016 0.14062-1.4688 0.4375-0.36328 1.0977-0.30469 1.4648 0.14453 1.9648 2.3867 2.3477 8.0352 2.3828 8.6719 0.035156 0.57422-0.40625 1.0664-0.98047 1.1016-0.015626-0.003907-0.035157 0-0.058594 0z"/>
  <path d="m36.25 12.961c-0.058594 0-0.11328-0.003907-0.16797-0.011719-0.56641-0.09375-0.95312-0.62891-0.85938-1.1953 0.039063-0.23828 0.96875-5.8906 2.7305-9.793 0.23828-0.52734 0.85938-0.75391 1.3789-0.51953 0.52344 0.23828 0.75781 0.85156 0.52344 1.3789-1.6484 3.6562-2.5625 9.2148-2.5742 9.2695-0.085938 0.50781-0.53125 0.87109-1.0312 0.87109z"/>
  <path d="m10.086 27.707c-0.19922 0-0.39844-0.054687-0.57813-0.17578-0.054687-0.035156-5.4961-3.6406-8.7539-4.5859-0.55469-0.16016-0.87109-0.73828-0.71094-1.2891 0.16016-0.55078 0.74219-0.87109 1.2891-0.71094 3.5664 1.0352 9.0977 4.6953 9.332 4.8516 0.47656 0.32031 0.60938 0.96484 0.28906 1.4453-0.19922 0.30469-0.53125 0.46484-0.86719 0.46484z"/>
  <path d="m8.2891 37.215c-0.10547 0-0.21484-0.015625-0.32031-0.050782-0.03125-0.007812-3.2188-1.0078-6.8789-0.84375-0.5625 0.019532-1.0625-0.41797-1.0898-0.99219s0.41797-1.0625 0.99219-1.0898c4.082-0.19141 7.4766 0.89453 7.6172 0.94141 0.54688 0.17578 0.84766 0.76562 0.66797 1.3125-0.13672 0.44141-0.54688 0.72266-0.98828 0.72266z"/>
  <path d="m1.9219 48.938c-0.48047 0-0.91016-0.33203-1.0156-0.81641-0.125-0.5625 0.23047-1.1172 0.79297-1.2422 3.9727-0.875 7.5117-0.38672 7.6641-0.36328 0.57031 0.082031 0.96484 0.60938 0.88281 1.1797-0.082032 0.57031-0.59375 0.96875-1.1797 0.88281-0.03125-0.007813-3.3203-0.46094-6.918 0.33594-0.078126 0.015626-0.15625 0.023438-0.22656 0.023438z"/>
 </g>
</svg>
