<?xml version="1.0" encoding="UTF-8"?>
<svg width="100pt" height="100pt" version="1.1" viewBox="0 0 100 100" xmlns="http://www.w3.org/2000/svg">
 <g>
  <path d="m65.5 22.59c-16.645 0-30.184 13.539-30.184 30.184 0 16.645 13.539 30.184 30.184 30.184s30.184-13.539 30.184-30.184c0-16.641-13.543-30.184-30.184-30.184zm0 55.828c-14.141 0-25.641-11.504-25.641-25.641 0-14.141 11.504-25.641 25.641-25.641 14.141 0 25.641 11.504 25.641 25.641 0 14.137-11.504 25.641-25.641 25.641z"/>
  <path d="m66.641 50.812l-12.68-7.3867c-1.082-0.63281-2.4727-0.26562-3.1055 0.82031-0.63281 1.0859-0.26562 2.4727 0.82031 3.1055l12.68 7.3867c0.35938 0.21094 0.75391 0.30859 1.1406 0.30859 0.78125 0 1.543-0.40234 1.9648-1.1289 0.63281-1.082 0.26562-2.4727-0.82031-3.1055z"/>
  <path d="m9.5156 38.18h21c1.1055 0 2-0.89453 2-2 0-1.1055-0.89453-2-2-2h-21c-1.1055 0-2 0.89453-2 2 0 1.1055 0.89453 2 2 2z"/>
  <path d="m5.5156 48.836h21c1.1055 0 2-0.89453 2-2 0-1.1055-0.89453-2-2-2h-21c-1.1055 0-2 0.89453-2 2 0 1.1016 0.89453 2 2 2z"/>
  <path d="m28.516 57.488c0-1.1055-0.89453-2-2-2h-21c-1.1055 0-2 0.89453-2 2s0.89453 2 2 2h21c1.1016 0 2-0.89453 2-2z"/>
  <path d="m32.516 68.141c0-1.1055-0.89453-2-2-2h-21c-1.1055 0-2 0.89453-2 2s0.89453 2 2 2h21c1.1016 0 2-0.89453 2-2z"/>
 </g>
</svg>
