<?xml version="1.0" encoding="UTF-8"?>
<svg width="100pt" height="100pt" version="1.1" viewBox="0 0 100 100" xmlns="http://www.w3.org/2000/svg">
 <path d="m76.652 45.789c5.7422-5.0859 12.316-8.5625 19.691-10.406 1.8594-0.46484 3.6562 0.9375 3.6562 2.8516v23.531c0 1.9258-1.8164 3.3281-3.6797 2.8438-7.1289-1.8516-13.676-5.3398-19.625-10.445-11.008 11.875-23.371 17.895-36.988 17.895-14.453 0-27.492-6.7812-38.996-20.141-0.94922-1.1016-0.94922-2.7344 0-3.8359 11.504-13.359 24.543-20.141 38.996-20.141 13.598 0 25.949 6.0078 36.945 17.848zm-51.078 17.699c4.543 1.7969 9.25 2.6875 14.133 2.6875 11.938 0 22.844-5.3359 32.828-16.176-9.9844-10.84-20.891-16.176-32.828-16.176-4.8828 0-9.5898 0.89062-14.133 2.6875 2.5625 3.7109 3.8359 8.2344 3.8359 13.488s-1.2734 9.7773-3.8359 13.488zm-5.3945-2.5977c2.2266-2.8125 3.3516-6.4023 3.3516-10.891s-1.125-8.0781-3.3516-10.891c-4.6055 2.6367-9.0391 6.2617-13.301 10.891 4.2617 4.6289 8.6953 8.2539 13.301 10.891zm60.645-10.934c4.1406 3.4961 8.5703 6.0977 13.293 7.8164v-15.594c-4.8711 1.707-9.2969 4.293-13.293 7.7773zm-63.176 0.042969c-1.625 0-2.9414-1.3164-2.9414-2.9414s1.3164-2.9414 2.9414-2.9414c1.6211 0 2.9414 1.3164 2.9414 2.9414s-1.3203 2.9414-2.9414 2.9414zm18.633 8.7852c-1.6016-0.26953-2.6836-1.7852-2.418-3.3867 0.26562-1.6016 1.7812-2.6836 3.3867-2.418l5.3984 0.90234v-7.7656l-5.3984 0.90234c-1.6055 0.26562-3.1211-0.81641-3.3867-2.418-0.26562-1.6016 0.81641-3.1172 2.418-3.3867l5.3984-0.89844c3.2031-0.53516 6.2344 1.6328 6.7695 4.8359 0.054687 0.32031 0.082031 0.64453 0.082031 0.96484v7.7656c0 3.2461-2.6367 5.8789-5.8828 5.8789-0.32422 0-0.64844-0.023438-0.96875-0.078125z"/>
</svg>
