<?xml version="1.0" encoding="UTF-8"?>
<svg width="100pt" height="100pt" version="1.1" viewBox="0 0 100 100" xmlns="http://www.w3.org/2000/svg">
 <g>
  <path d="m87.5 14.062h-75c-2.5859 0.003906-4.6836 2.1016-4.6875 4.6875v62.5c0.003906 2.5898 2.1016 4.6836 4.6875 4.6875h75c2.5859-0.003906 4.6836-2.0977 4.6875-4.6875v-62.5c-0.003906-2.5859-2.1016-4.6836-4.6875-4.6875zm-75 3.125h75c0.86328 0 1.5625 0.69922 1.5625 1.5625v11.352h-78.125v-11.352c0-0.86328 0.69922-1.5625 1.5625-1.5625zm75 65.625h-75c-0.86328 0-1.5625-0.69922-1.5625-1.5625v-48.023h78.125v48.023c0 0.86328-0.69922 1.5625-1.5625 1.5625z"/>
  <path d="m18.848 28.402c1.8984 0 3.6055-1.1406 4.332-2.8945 0.72656-1.75 0.32422-3.7656-1.0156-5.1055-1.3398-1.3438-3.3555-1.7422-5.1094-1.0156-1.75 0.72266-2.8945 2.4336-2.8945 4.3281 0.003906 2.5898 2.1016 4.6836 4.6875 4.6875zm0-6.25c0.63281 0 1.2031 0.38281 1.4453 0.96484 0.24219 0.58594 0.10938 1.2578-0.33984 1.7031-0.44531 0.44531-1.1172 0.58203-1.7031 0.33984-0.58203-0.24219-0.96484-0.8125-0.96484-1.4453 0.003906-0.86328 0.70312-1.5625 1.5625-1.5625z"/>
  <path d="m28.926 28.402c1.8984 0 3.6055-1.1406 4.332-2.8945 0.72656-1.75 0.32422-3.7656-1.0156-5.1055-1.3398-1.3438-3.3555-1.7422-5.1094-1.0156-1.75 0.72266-2.8945 2.4336-2.8945 4.3281 0.003907 2.5898 2.1016 4.6836 4.6875 4.6875zm0-6.25c0.63281 0 1.2031 0.38281 1.4453 0.96484 0.24219 0.58594 0.10938 1.2578-0.33984 1.7031-0.44531 0.44531-1.1172 0.58203-1.7031 0.33984-0.58203-0.24219-0.96484-0.8125-0.96484-1.4453 0.003907-0.86328 0.70312-1.5625 1.5625-1.5625z"/>
  <path d="m39.008 28.402c1.8945 0 3.6016-1.1406 4.3281-2.8945 0.72656-1.75 0.32422-3.7656-1.0156-5.1055-1.3398-1.3438-3.3555-1.7422-5.1094-1.0156-1.75 0.72266-2.8906 2.4336-2.8906 4.3281 0 2.5898 2.0977 4.6836 4.6875 4.6875zm0-6.25c0.62891 0 1.1992 0.38281 1.4414 0.96484 0.24219 0.58594 0.10938 1.2578-0.33984 1.7031-0.44531 0.44531-1.1172 0.58203-1.7031 0.33984-0.58203-0.24219-0.96094-0.8125-0.96094-1.4453 0-0.86328 0.69922-1.5625 1.5625-1.5625z"/>
  <path d="m60.801 48.172c-0.60938-0.59766-1.5898-0.59375-2.1992 0.011719-0.60547 0.60547-0.60937 1.5859-0.007812 2.1992l9.043 9.0469-9.043 9.043v-0.003906c-0.30078 0.29297-0.46875 0.69141-0.46875 1.1094-0.003906 0.41797 0.16016 0.81641 0.45703 1.1133 0.29297 0.29297 0.69531 0.45703 1.1133 0.45703 0.41406-0.003907 0.8125-0.17188 1.1055-0.46875l10.148-10.148c0.29297-0.29297 0.45703-0.69141 0.45703-1.1055 0-0.41406-0.16406-0.80859-0.45703-1.1016z"/>
  <path d="m40.953 48.172c-0.29297-0.29297-0.69141-0.45703-1.1055-0.45703-0.41406 0-0.8125 0.16406-1.1055 0.45703l-10.148 10.148v0.003907c-0.29297 0.29297-0.45703 0.6875-0.45703 1.1016 0 0.41406 0.16406 0.8125 0.45703 1.1055l10.148 10.148c0.29297 0.29687 0.69141 0.46484 1.1094 0.46875 0.41406 0 0.81641-0.16406 1.1094-0.45703 0.29687-0.29688 0.46094-0.69531 0.46094-1.1133-0.003906-0.41797-0.17188-0.81641-0.46875-1.1094l-9.043-9.043 9.043-9.0469v0.003906c0.29297-0.29297 0.45703-0.69141 0.45703-1.1055 0-0.41406-0.16406-0.8125-0.45703-1.1055z"/>
  <path d="m56.418 42.117c-0.80859-0.29297-1.7031 0.125-2 0.93359l-11.066 30.398c-0.14062 0.39062-0.125 0.82031 0.050782 1.1992 0.17578 0.375 0.49219 0.66797 0.88281 0.80859s0.82031 0.12109 1.1953-0.054687c0.37891-0.17578 0.66797-0.49219 0.80859-0.88281l11.062-30.398c0.14453-0.39062 0.125-0.82031-0.050781-1.1953s-0.49219-0.66797-0.88281-0.80859z"/>
 </g>
</svg>
