<?xml version="1.0" encoding="UTF-8"?>
<svg width="100pt" height="100pt" version="1.1" viewBox="0 0 100 100" xmlns="http://www.w3.org/2000/svg">
 <g>
  <path d="m83.547 46.191c-0.39062-0.78125-0.046875-1.7109 0.68359-2.1016 0.78125-0.39062 1.7109-0.046875 2.1016 0.68359 0.34375 0.68359 0.63281 1.5156 0.82812 2.3438 0.19531 0.87891 0.29297 1.7578 0.29297 2.4922 0 6.6875-2.1484 15.332-10.203 21.387-5.7109 4.2969-14.355 7.2734-27.297 7.2734-12.938 0-21.582-2.9766-27.297-7.2734-8.0547-6.1016-10.203-14.695-10.203-21.387 0-0.68359 0.19531-1.7578 0.4375-2.832 0.24219-0.97656 0.58594-2 0.92969-2.6875 0.39063-0.78125 1.3203-1.0742 2.1016-0.68359s1.0742 1.3203 0.68359 2.1016c-0.24219 0.4375-0.48828 1.2188-0.68359 2-0.19531 0.82813-0.34375 1.6094-0.34375 2.1016 0 5.9062 1.9062 13.574 8.9844 18.898 5.2266 3.9531 13.234 6.6406 25.391 6.6406s20.215-2.7344 25.391-6.6406c7.0781-5.3203 8.9844-12.988 8.9844-18.898 0-0.53906-0.097656-1.1719-0.24219-1.8047-0.14844-0.58594-0.34375-1.2188-0.58594-1.6602z"/>
  <path d="m50 36.816c9.7656 0 18.602 0.82812 25.047 2.1484 7.0781 1.4648 11.477 3.8086 11.477 6.6875 0 2.832-4.3945 5.1758-11.477 6.6875-6.4453 1.3203-15.281 2.1484-25.047 2.1484s-18.602-0.82812-25.047-2.1484c-7.0781-1.4648-11.477-3.8086-11.477-6.6875 0-2.832 4.3945-5.1758 11.477-6.6875 6.4453-1.3164 15.281-2.1484 25.047-2.1484zm24.414 5.2227c-6.2031-1.2695-14.844-2.1016-24.414-2.1016s-18.211 0.78125-24.414 2.1016c-5.5664 1.1719-8.9844 2.4414-8.9844 3.6133s3.418 2.4414 8.9844 3.6133c6.2031 1.2695 14.844 2.1016 24.414 2.1016s18.211-0.78125 24.414-2.1016c5.5664-1.1719 8.9844-2.4414 8.9844-3.6133 0-1.168-3.418-2.4414-8.9844-3.6133z"/>
  <path d="m22.414 48.586c0.39063 0.19531 0.53906 0.63281 0.39063 1.0234-0.19531 0.39062-0.63281 0.53906-1.0234 0.39062-0.63281-0.29297-1.1719-0.63281-1.5625-0.97656-0.4375-0.4375-0.68359-0.92969-0.68359-1.4141 0-1.8555 3.5625-3.3672 9.3281-4.3438 5.4219-0.92969 12.891-1.5156 21.141-1.5156s15.723 0.58594 21.141 1.5156c5.7617 0.97656 9.3281 2.4922 9.3281 4.3438 0 0.63281-0.39062 1.2188-1.0742 1.7578-0.58594 0.4375-1.3672 0.82812-2.4414 1.1719-0.39062 0.14844-0.82812-0.046874-0.97656-0.48828-0.14844-0.39062 0.046875-0.82812 0.48828-0.97656 0.87891-0.29297 1.5625-0.63281 2-0.97656 0.29297-0.19531 0.4375-0.39062 0.4375-0.48828 0-0.97656-3.0781-1.9531-8.0547-2.7812-5.3203-0.92969-12.695-1.4648-20.852-1.4648s-15.527 0.53906-20.852 1.4648c-4.9805 0.82812-8.0547 1.8555-8.0547 2.7812 0 0.097656 0.046875 0.19531 0.19531 0.34375 0.24219 0.24219 0.63281 0.4375 1.125 0.68359z"/>
  <path d="m39.062 46.438c-0.34375 0-0.58594-0.24219-0.58594-0.58594s0.24219-0.58594 0.58594-0.58594c0.4375 0 0.82812 0.14844 1.2188 0.34375 0.29297 0.097656 0.53906 0.24219 0.78125 0.24219s0.48828-0.097656 0.78125-0.24219c0.39062-0.14844 0.78125-0.34375 1.2188-0.34375s0.82812 0.14844 1.2188 0.34375c0.29297 0.097656 0.53906 0.24219 0.78125 0.24219s0.48828-0.097656 0.78125-0.24219c0.39062-0.14844 0.78125-0.34375 1.2188-0.34375s0.82812 0.14844 1.2188 0.34375c0.29297 0.097656 0.53906 0.24219 0.78125 0.24219s0.48828-0.097656 0.78125-0.24219c0.39062-0.14844 0.78125-0.34375 1.2188-0.34375s0.82812 0.14844 1.2188 0.34375c0.29297 0.097656 0.53906 0.24219 0.78125 0.24219s0.48828-0.097656 0.78125-0.24219c0.39062-0.14844 0.78125-0.34375 1.2188-0.34375s0.82812 0.14844 1.2188 0.34375c0.29297 0.097656 0.53906 0.24219 0.78125 0.24219s0.48828-0.097656 0.78125-0.24219c0.39062-0.14844 0.78125-0.34375 1.2188-0.34375s0.82812 0.14844 1.2188 0.34375c0.29297 0.097656 0.53906 0.24219 0.78125 0.24219 0.34375 0 0.58594 0.24219 0.58594 0.58594s-0.24219 0.58594-0.58594 0.58594c-0.4375 0-0.82812-0.14844-1.2188-0.34375-0.29297-0.097657-0.53906-0.24219-0.78125-0.24219s-0.48828 0.097656-0.78125 0.24219c-0.39062 0.14844-0.78125 0.34375-1.2188 0.34375s-0.82812-0.14844-1.2188-0.34375c-0.29297-0.097657-0.53906-0.24219-0.78125-0.24219s-0.48828 0.097656-0.78125 0.24219c-0.39062 0.14844-0.78125 0.34375-1.2188 0.34375s-0.82812-0.14844-1.2188-0.34375c-0.29297-0.097657-0.53906-0.24219-0.78125-0.24219s-0.48828 0.097656-0.78125 0.24219c-0.39062 0.14844-0.78125 0.34375-1.2188 0.34375s-0.82812-0.14844-1.2188-0.34375c-0.29297-0.097657-0.53906-0.24219-0.78125-0.24219s-0.48828 0.097656-0.78125 0.24219c-0.39062 0.14844-0.78125 0.34375-1.2188 0.34375s-0.82812-0.14844-1.2188-0.34375c-0.29297-0.097657-0.53906-0.24219-0.78125-0.24219s-0.48828 0.097656-0.78125 0.24219c-0.39062 0.14844-0.78125 0.34375-1.2188 0.34375s-0.82812-0.14844-1.2188-0.34375c-0.29297-0.097657-0.53906-0.24219-0.78125-0.24219z"/>
  <path d="m36.719 48.875c-0.34375 0-0.58594-0.24219-0.58594-0.58594s0.24219-0.58594 0.58594-0.58594c0.53906 0 0.97656 0.19531 1.4141 0.39062 0.34375 0.14844 0.68359 0.29297 0.97656 0.29297s0.63281-0.14844 0.97656-0.29297c0.4375-0.19531 0.92969-0.39062 1.4141-0.39062 0.53906 0 0.97656 0.19531 1.4141 0.39062 0.34375 0.14844 0.68359 0.29297 0.97656 0.29297s0.63281-0.14844 0.97656-0.29297c0.4375-0.19531 0.92969-0.39062 1.4141-0.39062 0.53906 0 0.97656 0.19531 1.4141 0.39062 0.34375 0.14844 0.68359 0.29297 0.97656 0.29297s0.63281-0.14844 0.97656-0.29297c0.4375-0.19531 0.92969-0.39062 1.4141-0.39062 0.53906 0 0.97656 0.19531 1.4141 0.39062 0.34375 0.14844 0.68359 0.29297 0.97656 0.29297s0.63281-0.14844 0.97656-0.29297c0.4375-0.19531 0.92969-0.39062 1.4141-0.39062 0.53906 0 0.97656 0.19531 1.4141 0.39062 0.34375 0.14844 0.68359 0.29297 0.97656 0.29297s0.63281-0.14844 0.97656-0.29297c0.4375-0.19531 0.92969-0.39062 1.4141-0.39062 0.53906 0 0.97656 0.19531 1.4141 0.39062 0.34375 0.14844 0.68359 0.29297 0.97656 0.29297 0.34375 0 0.58594 0.24219 0.58594 0.58594s-0.24219 0.58594-0.58594 0.58594c-0.53906 0-0.97656-0.19531-1.4141-0.39062-0.34375-0.14844-0.68359-0.29297-0.97656-0.29297s-0.63281 0.14844-0.97656 0.29297c-0.4375 0.19531-0.92969 0.39062-1.4141 0.39062-0.53906 0-0.97656-0.19531-1.4141-0.39062-0.34375-0.14844-0.68359-0.29297-0.97656-0.29297s-0.63281 0.14844-0.97656 0.29297c-0.4375 0.19531-0.92969 0.39062-1.4141 0.39062-0.53906 0-0.97656-0.19531-1.4141-0.39062-0.34375-0.14844-0.68359-0.29297-0.97656-0.29297s-0.63281 0.14844-0.97656 0.29297c-0.4375 0.19531-0.92969 0.39062-1.4141 0.39062-0.53906 0-0.97656-0.19531-1.4141-0.39062-0.34375-0.14844-0.68359-0.29297-0.97656-0.29297s-0.63281 0.14844-0.97656 0.29297c-0.4375 0.19531-0.92969 0.39062-1.4141 0.39062-0.53906 0-0.97656-0.19531-1.4141-0.39062-0.34375-0.14844-0.68359-0.29297-0.97656-0.29297s-0.63281 0.14844-0.97656 0.29297c-0.4375 0.19531-0.92969 0.39062-1.4141 0.39062-0.53906 0-0.97656-0.19531-1.4141-0.39062-0.34375-0.14453-0.68359-0.29297-0.97656-0.29297z"/>
  <path d="m87.207 23.391c0.48828 2.3906 0.39062 4.8828-0.34375 7.2266-0.73438 2.2461-2 4.3438-3.8594 6.1016-1.8555 1.7109-4.0547 2.8828-6.3477 3.418-2.3906 0.58594-4.8828 0.48828-7.2266-0.19531-0.58594-0.14844-0.97656-0.63281-1.0742-1.1719-0.48828-2.3906-0.39062-4.8828 0.34375-7.2266 0.73438-2.2461 2-4.3438 3.8594-6.1016 1.8555-1.7109 4.0547-2.8828 6.3477-3.418 2.3906-0.58594 4.8828-0.48828 7.2266 0.19531 0.58594 0.14453 0.97656 0.63281 1.0742 1.1719zm-3.3203 6.2969c0.48828-1.5156 0.63281-3.125 0.4375-4.6875-1.5625-0.29297-3.1719-0.29297-4.6875 0.097656-1.8047 0.4375-3.5156 1.3203-4.9297 2.6367-1.4648 1.3203-2.4414 2.9766-2.9766 4.7344-0.48828 1.5156-0.63281 3.125-0.4375 4.6875 1.5625 0.29297 3.1719 0.29297 4.6875-0.097656 1.8047-0.4375 3.5156-1.3203 4.9297-2.6367 1.4648-1.3164 2.4414-2.9766 2.9766-4.7344z"/>
  <path d="m59.227 29.055c-0.097656 0.97656 0.046876 2 0.34375 2.9297 0.39063 1.2188 1.0742 2.3438 2.1016 3.2734 0.97656 0.92969 2.1953 1.5625 3.418 1.8555 0.97656 0.24219 2 0.29297 2.9766 0.097657 0.097656-0.97656-0.046875-2-0.34375-2.9297-0.39062-1.2188-1.0742-2.3438-2.1016-3.2734-0.97656-0.92969-2.1953-1.5625-3.418-1.8555-0.97266-0.24609-2-0.29297-2.9766-0.097656zm-2.6328 3.8555c-0.53906-1.7578-0.63281-3.6641-0.24219-5.4688 0.097657-0.53906 0.53906-1.0234 1.0742-1.1719 1.8047-0.53906 3.7109-0.58594 5.5156-0.14844 1.7578 0.39062 3.418 1.2695 4.8359 2.5859 1.4141 1.3203 2.3906 2.9297 2.9297 4.6406 0.53906 1.7578 0.63281 3.6641 0.24219 5.4688-0.097657 0.53906-0.53906 1.0234-1.0742 1.1719-1.8047 0.53906-3.7109 0.58594-5.5156 0.14844-1.7578-0.39062-3.418-1.2695-4.8359-2.5859-1.418-1.3203-2.3945-2.9336-2.9297-4.6406z"/>
 </g>
</svg>
