<?xml version="1.0" encoding="UTF-8"?>
<svg width="100pt" height="100pt" version="1.1" viewBox="0 0 100 100" xmlns="http://www.w3.org/2000/svg">
 <g>
  <path d="m76.273 54.52 2.5547 1.7969c1.1758-1.6719 2.207-3.4453 3.0742-5.2969l-2.8281-1.3281c-0.79297 1.6875-1.7305 3.3047-2.8008 4.8281z"/>
  <path d="m74.18 51.562h-46.215c-0.88281 0.03125-1.5859 0.75-1.5977 1.6367v4.3906c-1.7578-2.0664-3.4414-4.3594-4.7188-6.8359-0.40234-0.78516-0.76953-1.5938-1.1055-2.4062-0.29688-0.72266-0.57031-1.4648-0.8125-2.207l-2.9688 0.97266c0.26953 0.81641 0.57031 1.6289 0.89844 2.4219 0.36719 0.89453 0.78125 1.7812 1.2266 2.6445 1.707 3.3164 3.9258 6.3359 6.582 8.957 0.16406 0.16016 0.32812 0.32031 0.49609 0.47656l-5.168 17.086-0.003906 0.003906c-0.14453 0.47656-0.050781 0.99219 0.25 1.3906 0.29688 0.40234 0.76953 0.63281 1.2695 0.62109l4.4766-0.066406 1.4258 6.7656c0.60938 2.8359 3.0977 4.8711 5.9961 4.9062l5.9492 0.046876 0.27344 5.3242 0.003906 0.003906c0.039062 0.83594 0.71875 1.5039 1.5586 1.5234h28.324c0.87109-0.019531 1.5664-0.73438 1.5625-1.6055 0-0.14453 0-14.469 0.17188-17.105 0.17969-2.6602 1.082-5.9219 2.043-9.3633 1.8164-6.5273 3.6914-13.316 1.5273-18.574h-0.003906c-0.23438-0.59375-0.80469-0.99219-1.4414-1.0078zm-3.0938 18.695c-1 3.6016-1.9492 7.0625-2.1484 10.047-0.14453 2.2266-0.17188 11.883-0.17578 15.789h-25.281l-0.27344-5.3125c-0.042969-0.83203-0.71875-1.4883-1.5508-1.5039l-7.4219-0.070313c-1.4297-0.019531-2.6602-1.0273-2.9609-2.4297l-1.6914-8.0117c-0.15234-0.71875-0.79297-1.2344-1.5273-1.2266h-0.023438l-3.625 0.039063 5.0391-16.727c0.035157-0.15234 0.054688-0.30859 0.046876-0.46484v-5.6992h43.57c1.1719 4.2969-0.42578 9.9961-1.9766 15.57z"/>
  <path d="m36.543 66.699c-0.54688 0.007812-1.0703-0.20703-1.457-0.59375-0.38672-0.38672-0.60156-0.91016-0.59375-1.457h-3.125c0 2.8594 2.3164 5.1758 5.1758 5.1758s5.1758-2.3164 5.1758-5.1758h-3.125c0.007812 0.54687-0.20703 1.0703-0.59375 1.457s-0.91016 0.60156-1.457 0.59375z"/>
  <path d="m25.391 4.1016v7.6367c0.015625 0.86719 0.73047 1.5547 1.5938 1.543h7v-3.125h-3.1445c0.375-0.19531 0.75391-0.53125 1.1406-0.78906l-1.75-2.5938c-0.57812 0.38672-1.1289 0.79687-1.7148 1.2148v-3.8867z"/>
  <path d="m81.574 20.922c-2.7383-5.7266-6.9688-10.609-12.246-14.137-0.76562-0.51172-1.5625-1-2.3711-1.4531l-1.5273 2.7305c0.73437 0.41016 1.4609 0.85547 2.1602 1.3242v-0.003907c3.7188 2.4961 6.8789 5.7305 9.2891 9.5 0.69141 1.0898 1.3203 2.2227 1.875 3.3867 1.8086 3.7773 2.8516 7.8711 3.0703 12.051 0.03125 0.58594 0.046875 1.1797 0.046875 1.7656 0 0.59375-0.015625 1.1914-0.046875 1.7812-0.13281 2.3984-0.53125 4.7773-1.1914 7.0859l3.0039 0.86328v-0.003906c0.72656-2.5312 1.1641-5.1406 1.3086-7.7734 0.035157-0.64844 0.054688-1.3047 0.054688-1.9531 0-0.64063-0.015625-1.293-0.050781-1.9336h-0.003907c-0.24219-4.5898-1.3867-9.0859-3.3711-13.23z"/>
  <path d="m41.41 1.8672c-1.9844 0.48828-3.9258 1.1445-5.7969 1.9688l1.2578 2.8594c1.7031-0.75 3.4727-1.3477 5.2812-1.7891z"/>
  <path d="m62.895 3.3906c-0.74219-0.29688-1.5039-0.57422-2.2656-0.82031-0.34375-0.10937-0.69141-0.21875-1.0352-0.31641l-0.87109 3c0.3125 0.089844 0.63281 0.1875 0.94531 0.28906 0.69141 0.22266 1.3867 0.47656 2.0625 0.74609z"/>
  <path d="m53.25 4.1797 0.33594-3.1523h-0.003907c-1.2617-0.14844-2.5312-0.23047-3.8008-0.24609h-0.007812c-0.76563 0-1.543 0.070312-2.3086 0.11719l0.20312 3.1406c0.69922-0.046874 1.418-0.0625 2.1133-0.058593 1.1562 0.003906 2.3164 0.070312 3.4688 0.19922z"/>
  <path d="m18.129 36.086c0-2.125 0.20703-4.2461 0.62109-6.3281 0.40625-2.0195 1.0039-3.9961 1.7891-5.9023 0.39844-0.96875 0.85156-1.9297 1.3477-2.8555l-2.7578-1.4727c-0.54297 1.0156-1.0391 2.0703-1.4805 3.1367h0.003906c-0.86328 2.0938-1.5234 4.2617-1.9648 6.4805-0.80078 4.0195-0.89844 8.1445-0.29688 12.195l3.0898-0.46094 0.003906-0.003906c-0.23828-1.5859-0.35547-3.1875-0.35547-4.7891z"/>
  <path d="m34.18 21.598v19.473c-0.003907 0.67969 0.43359 1.2773 1.0781 1.4883l14.266 4.6016c0.30859 0.10156 0.64453 0.10156 0.95703 0l14.262-4.6016c0.64453-0.20703 1.082-0.80859 1.0781-1.4883v-19.473c0.003907-0.67969-0.43359-1.2773-1.0781-1.4883l-14.266-4.6016c-0.3125-0.097656-0.64453-0.097656-0.95703 0l-14.262 4.6016c-0.64453 0.21094-1.082 0.80859-1.0781 1.4883zm3.125 2.1445 10.742 3.4688v16.191l-10.742-3.4688zm13.867 19.91v-16.191l11.523-3.7188v16.191zm-1.1719-25.016 9.1758 2.9609-9.1758 2.9609-9.1758-2.9609z"/>
 </g>
</svg>
