<?xml version="1.0" encoding="UTF-8"?>
<svg width="100pt" height="100pt" version="1.1" viewBox="0 0 100 100" xmlns="http://www.w3.org/2000/svg">
 <g>
  <path d="m82.102 16c-0.30078-0.30078-0.69922-0.5-1.1016-0.5h-62c-0.39844 0-0.80078 0.19922-1.1016 0.5-0.30078 0.30078-0.39844 0.69922-0.39844 1.1992l6.1016 62.699c0.19922 2.6016 2.3984 4.6016 5 4.6016h42.699c2.6016 0 4.8008-2 5-4.6016l6.1016-62.699c0.097656-0.39844-0.003906-0.89844-0.30078-1.1992zm-8.8008 63.602c-0.10156 1-1 1.8008-2 1.8008l-42.699-0.003906c-1 0-1.8984-0.80078-2-1.8008l-6-61.102h58.699z"/>
  <path d="m60 77.398h-29.5l-4.3008-41.199h6.3008c0.60156 0 1-0.39844 1-1 0-0.60156-0.39844-1-1-1h-7.3984c-0.30078 0-0.60156 0.10156-0.69922 0.30078-0.19922 0.19922-0.30078 0.5-0.30078 0.80078l4.5 43.199c0.10156 0.5 0.5 0.89844 1 0.89844h30.398c0.60156 0 1-0.39844 1-1 0-0.59766-0.39844-1-1-1z"/>
  <path d="m75.602 34.5c-0.19922-0.19922-0.5-0.30078-0.69922-0.30078h-8.6992l-2.5-5.3984c-0.30078-0.60156-0.69922-1-1.3008-1.3008-0.60156-0.19922-1.3008-0.19922-1.8008 0.10156l-9.6016 4.3984c-0.60156 0.30078-1 0.69922-1.3008 1.3008-0.10156 0.30078-0.10156 0.5-0.10156 0.80078h-11.699c-0.60156 0-1 0.39844-1 1 0 0.60156 0.39844 1 1 1h12.301l3.8984 8.6016c0.30078 0.60156 0.69922 1 1.3008 1.3008 0.30078 0.10156 0.60156 0.19922 0.80078 0.19922 0.30078 0 0.69922-0.10156 1-0.19922l9.5-4.3984c0.60156-0.30078 1-0.69922 1.3008-1.3008 0.19922-0.60156 0.19922-1.3008-0.10156-1.8008l-1-2.1992h6.6992l-4.3008 41.199h-4.3984c-0.60156 0-1 0.39844-1 1 0 0.60156 0.39844 1 1 1h5.3008c0.5 0 0.89844-0.39844 1-0.89844l4.5-43.199c0.19922-0.40625 0.10156-0.70703-0.097657-0.90625zm-23.5-0.30078 0.10156-0.10156 9.1992-4.1992 2 4.1992 0.89844 2 1.3984 3.1016-9.3984 4.3008-3.3008-7.3008z"/>
  <path d="m32.199 52.102 10 3.1992c0.19922 0.10156 0.5 0.10156 0.69922 0.10156 1 0 2-0.60156 2.3008-1.6992l3.1992-10c0.39844-1.3008-0.30078-2.6016-1.5-3l-10-3.1992c-1.3008-0.39844-2.6016 0.30078-3 1.5l-3.1992 10c-0.5 1.3945 0.19922 2.6953 1.5 3.0977zm4-12.102 9.8008 3.1992-3.1992 9.8008-9.8008-3.1992z"/>
  <path d="m35.801 73.199c0 1.6016-2.4023 1.6016-2.4023 0 0-1.5977 2.4023-1.5977 2.4023 0"/>
  <path d="m45.301 70.898c0 1.6016-2.4023 1.6016-2.4023 0 0-1.5977 2.4023-1.5977 2.4023 0"/>
  <path d="m53.5 73.699c0 1.6016-2.3984 1.6016-2.3984 0 0-1.5977 2.3984-1.5977 2.3984 0"/>
  <path d="m34.602 56.5c-0.60156 0-1.1992 0.5-1.1992 1.1992 0 0.60156 0.5 1.1992 1.1992 1.1992 0.69922 0 1.1992-0.5 1.1992-1.1992-0.10156-0.69922-0.60156-1.1992-1.1992-1.1992z"/>
  <path d="m71.699 39.398c0-0.60156-0.5-1.1992-1.1992-1.1992-0.60156 0-1.1992 0.5-1.1992 1.1992 0 0.60156 0.5 1.1992 1.1992 1.1992 0.69922-0.097656 1.1992-0.59766 1.1992-1.1992z"/>
  <path d="m31.898 40.5c0 1.6016-2.3984 1.6016-2.3984 0s2.3984-1.6016 2.3984 0"/>
  <path d="m52.398 47.199c0 1.6016-2.3984 1.6016-2.3984 0 0-1.5977 2.3984-1.5977 2.3984 0"/>
  <path d="m63.5 73.699c0 1.6016-2.3984 1.6016-2.3984 0 0-1.5977 2.3984-1.5977 2.3984 0"/>
  <path d="m50.301 39.801c0 1.5977-2.4023 1.5977-2.4023 0 0-1.6016 2.4023-1.6016 2.4023 0"/>
  <path d="m67.398 72c0 1.6016-2.3984 1.6016-2.3984 0s2.3984-1.6016 2.3984 0"/>
  <path d="m71.199 43.5c0 1.6016-2.3984 1.6016-2.3984 0s2.3984-1.6016 2.3984 0"/>
  <path d="m63.5 50.102c0 1.5977-2.3984 1.5977-2.3984 0 0-1.6016 2.3984-1.6016 2.3984 0"/>
  <path d="m43.801 62.801c0 1.5977-2.4023 1.5977-2.4023 0 0-1.6016 2.4023-1.6016 2.4023 0"/>
  <path d="m52.5 55.5-2.1016 10.301c-0.30078 1.3008 0.60156 2.6016 1.8984 2.8008l10.301 2.1016h0.5c1.1016 0 2.1016-0.80078 2.3984-1.8984l2.1016-10.301c0.30078-1.3008-0.60156-2.6016-1.8984-2.8008l-10.301-2.1016c-1.3984-0.30078-2.5977 0.59766-2.8984 1.8984zm10.398 12.699-10.102-2.1016 2.1016-10.102 10.102 2.1055z"/>
 </g>
</svg>
