<?xml version="1.0" encoding="UTF-8"?>
<svg width="100pt" height="100pt" version="1.1" viewBox="0 0 100 100" xmlns="http://www.w3.org/2000/svg">
 <path d="m5.5156 26.656c0 4.7695 3.8672 8.6367 8.6406 8.6367 4.7695 0 8.6367-3.8672 8.6367-8.6367 0-4.7734-3.8672-8.6406-8.6367-8.6406-4.7734 0-8.6406 3.8672-8.6406 8.6406zm-5.5156 0c0 7.8164 6.3359 14.152 14.156 14.152 6 0 11.129-3.7344 13.188-9.0039 3.0664 0.039062 5.4961 0.66406 7.0156 1.5039 1.5742 0.86328 2.875 2.1445 4.0547 3.9375 2.0469 3.1172 3.3086 6.9922 4.8789 11.812 0.42578 1.3086 0.875 2.6875 1.3711 4.1406 2.1328 6.2695 5.0625 13.594 11.168 18.953 2.4375 2.4414 6.4219 5.9805 16.875 6.4688 2.0898 5.2031 7.1875 8.8789 13.137 8.8789 7.8203 0 14.156-6.3359 14.156-14.156 0-7.8164-6.3359-14.152-14.156-14.152-5.7305 0-10.668 3.4062-12.895 8.3086-6.5742-0.13281-8.6836-2.1133-10.473-3.793-0.23828-0.22656-0.47266-0.44531-0.71094-0.65625-3.2031-2.8086-4.8828-8.418-6.3086-13.188-0.29297-0.98047-0.57812-1.9258-0.86328-2.8047-1.6055-4.9727-4.0156-11.379-6.9609-15.863-1.9336-2.9492-4.4727-5.6328-7.9531-7.5508-3.4727-1.9141-7.918-2.8711-12.648-2.8711-2.2305-4.8828-7.1602-8.2734-12.875-8.2734-7.8203 0-14.156 6.3359-14.156 14.156zm85.844 8.6367c-4.7695 0-8.6367-3.8672-8.6367-8.6367 0-4.7734 3.8672-8.6406 8.6367-8.6406 4.7734 0 8.6406 3.8672 8.6406 8.6406 0 4.7695-3.8672 8.6367-8.6406 8.6367zm-12.957-14.336h-33.973c0.87891 0.35547 1.7305 0.76172 2.5547 1.2148 3.9844 2.1953 6.8555 5.2578 8.9922 8.5117 0.39453 0.59766 0.74609 1.1562 1.0664 1.668h21.359c2.1914 4.9805 7.168 8.457 12.957 8.457 7.8203 0 14.156-6.3359 14.156-14.152 0-7.8203-6.3359-14.156-14.156-14.156-5.7891 0-10.766 3.4766-12.957 8.457zm12.957 61.027c-4.7695 0-8.6367-3.8672-8.6367-8.6406 0-4.7695 3.8672-8.6367 8.6367-8.6367 4.7734 0 8.6406 3.8672 8.6406 8.6367 0 4.7734-3.8672 8.6406-8.6406 8.6406z" fill-rule="evenodd"/>
</svg>
