<?xml version="1.0" encoding="UTF-8"?>
<svg width="100pt" height="100pt" version="1.1" viewBox="0 0 100 100" xmlns="http://www.w3.org/2000/svg">
 <g>
  <path d="m91.57 74.32-29.07-28.875c-1.0391-1.0234-2.5859-1.3281-3.9336-0.76953-1.3477 0.55859-2.2266 1.8672-2.2383 3.3242l-0.078125 40.953c-0.011719 1.4297 0.82422 2.7266 2.1328 3.3047 0.47266 0.21484 0.98438 0.32422 1.5 0.32813 0.88672 0 1.7383-0.32813 2.3984-0.92188l11.5-10.266 15.445-0.92969c1.4258-0.082031 2.6719-0.99219 3.1797-2.3281 0.50391-1.3359 0.17969-2.8438-0.83594-3.8516zm-2.0859 2.7422c-0.066406 0.18359-0.24219 0.30859-0.4375 0.3125l-15.992 0.9375c-0.35156 0.019531-0.68359 0.15625-0.94531 0.39062l-11.914 10.625c-0.14453 0.10547-0.33594 0.125-0.5 0.046875-0.16016-0.074219-0.26953-0.23438-0.28125-0.41406l0.10156-40.953c0-0.19922 0.12109-0.37891 0.30469-0.45312 0.066407-0.011719 0.13672-0.011719 0.20313 0 0.12891-0.003907 0.25 0.050781 0.33594 0.14844l29.008 28.859c0.13281 0.12891 0.17578 0.32422 0.11719 0.5z"/>
  <path d="m63.508 38.055c0 0.86328 0.69922 1.5625 1.5625 1.5625 0.86328 0 1.5625-0.69922 1.5625-1.5625 0-1.6797-0.14453-3.3555-0.42969-5.0078-1.2773-7.2969-5.293-13.828-11.23-18.262-5.9375-4.4297-13.344-6.4219-20.699-5.5703-7.3594 0.85547-14.113 4.4883-18.879 10.16-4.7656 5.668-7.1836 12.949-6.7578 20.344 0.42969 7.3945 3.668 14.348 9.0508 19.434 5.3867 5.082 12.516 7.918 19.922 7.918 0.95312 0 1.9141-0.046874 2.8516-0.14062 2.9102-0.27734 5.7617-1 8.4531-2.1406 0.39844-0.15234 0.71484-0.45703 0.88281-0.84766s0.16797-0.83203 0.003906-1.2227c-0.16797-0.39062-0.48438-0.69922-0.88281-0.85156-0.39844-0.15234-0.83984-0.13281-1.2227 0.046874-2.3984 1.0156-4.9375 1.6562-7.5312 1.9062-0.84766 0.085938-1.7031 0.125-2.5547 0.125-6.6094 0-12.969-2.5273-17.777-7.0664-4.8047-4.5391-7.6953-10.742-8.0742-17.344-0.38281-6.5977 1.7773-13.094 6.0312-18.152 4.2539-5.0625 10.281-8.3047 16.848-9.0625 6.5664-0.76172 13.176 1.0195 18.473 4.9766 5.2969 3.9531 8.8789 9.7852 10.016 16.297 0.25 1.4727 0.37891 2.9648 0.38281 4.4609z"/>
  <path d="m51.883 36.719-21.414-11.68c-0.48438-0.27734-1.0781-0.27734-1.5625 0-0.47656 0.27734-0.77344 0.78516-0.78125 1.3359v23.32c0.003906 0.55469 0.30078 1.0664 0.78125 1.3438 0.48438 0.27734 1.0781 0.27734 1.5625 0l21.453-11.641c0.50391-0.27344 0.82031-0.80078 0.82031-1.375 0-0.57422-0.31641-1.1016-0.82031-1.375zm-20.633 10.352v-18.031l16.609 9.0156z"/>
 </g>
</svg>
