<?xml version="1.0" encoding="UTF-8"?>
<svg width="100pt" height="100pt" version="1.1" viewBox="0 0 100 100" xmlns="http://www.w3.org/2000/svg">
 <path d="m57.238 81.898v13.312c-0.003906 2.0898-1.6992 3.7852-3.7891 3.7891h-7c-2.0898-0.003906-3.7852-1.6992-3.7891-3.7891v-13.34l-28.941-30c-2.4062-2.0234-3.832-4.9805-3.918-8.1211 0-6.3711 5.7812-10.91 14.07-13.781 0.58203 1.0117 1.2969 1.9375 2.1289 2.75l5.7305 5.7695c-6.9102 1.6523-10.73 3.9414-11.48 5.2617 1.2188 2.25 11.199 7.25 29.75 7.25s28.531-5 29.75-7.2188c-0.73047-1.3086-4.5703-3.6016-11.441-5.2617l5.7305-5.7695c0.45313-0.45312 0.87109-0.9375 1.25-1.4492 0.30469-0.41797 0.58203-0.85156 0.83203-1.3008 8.2891 2.8711 14.059 7.4102 14.059 13.781-0.023438 2.7266-1.0977 5.3438-3 7.2969zm-22.539-60c-0.37891 0.074218-0.75 0.18359-1.1094 0.33203-0.35547 0.13672-0.69141 0.32031-1 0.53906-0.68359 0.49219-1.1914 1.1953-1.4414 2-0.13672 0.44141-0.1875 0.91016-0.14844 1.3711 0.039062 0.45703 0.15625 0.90234 0.35156 1.3203 0.20703 0.44531 0.48047 0.85156 0.82031 1.2109l14.18 15.059c0.21875 0.23438 0.46875 0.44141 0.73828 0.62109 0.27734 0.18359 0.57031 0.33594 0.87891 0.45703 0.32422 0.125 0.66016 0.21875 1 0.28125 0.69922 0.12891 1.4141 0.12891 2.1094 0 0.34375-0.0625 0.67969-0.15625 1-0.28125 0.30859-0.12109 0.60547-0.27344 0.88281-0.45703 0.26562-0.17578 0.51172-0.37891 0.73047-0.61328l14.109-15.066c0.16406-0.17578 0.3125-0.36328 0.44922-0.5625 0.13281-0.19141 0.25-0.39062 0.35156-0.59766 0.097657-0.20703 0.17578-0.42188 0.23828-0.64062 0.074218-0.21875 0.125-0.44531 0.16016-0.67188 0.011719-0.16797 0.011719-0.33984 0-0.50781-0.019531-0.51172-0.14453-1.0117-0.37109-1.4727-0.17969-0.36719-0.41406-0.70312-0.69922-1-0.29297-0.30078-0.63281-0.55469-1-0.75781-0.38672-0.20703-0.80078-0.36328-1.2305-0.46094-0.44531-0.11328-0.90625-0.17188-1.3711-0.17188h-5.9062l0.69922-16c0.027344-0.62109-0.074219-1.2461-0.30078-1.8281-0.22656-0.57812-0.56641-1.1055-1-1.5508-0.44922-0.45312-0.98047-0.8125-1.5703-1.0586-0.63281-0.26562-1.3125-0.39844-2-0.39062h-8.5195c-0.6875-0.007812-1.3672 0.125-2 0.39062-0.57422 0.25-1.0938 0.60938-1.5312 1.0586-0.43359 0.44531-0.77344 0.97266-1 1.5508-0.23438 0.58984-0.33984 1.2266-0.30859 1.8594l0.69922 16h-5.6914c-0.39844-0.011719-0.80078 0.011719-1.1992 0.070313z"/>
</svg>
