<?xml version="1.0" encoding="UTF-8"?>
<svg width="100pt" height="100pt" version="1.1" viewBox="0 0 100 100" xmlns="http://www.w3.org/2000/svg">
 <g>
  <path d="m65.801 38.801h5c1.1016 0 2-0.89844 2-2v-5c0-1.1016-0.89844-2-2-2-1.1016 0-2 0.89844-2 2v3h-3c-1.1016 0-2 0.89844-2 2 0 1.0977 0.89844 2 2 2z"/>
  <path d="m38.5 11.5c1.1016 0 2-0.89844 2-2v-3h3c1.1016 0 2-0.89844 2-2s-0.89844-2-2-2h-5c-1.1016 0-2 0.89844-2 2v5c0 1.1016 0.89844 2 2 2z"/>
  <path d="m51.898 6.5h5.6016c1.1016 0 2-0.89844 2-2s-0.89844-2-2-2h-5.6016c-1.1016 0-2 0.89844-2 2s0.90234 2 2 2z"/>
  <path d="m65.801 6.5h3v3c0 1.1016 0.89844 2 2 2 1.1016 0 2-0.89844 2-2v-5c0-1.1016-0.89844-2-2-2h-5c-1.1016 0-2 0.89844-2 2s0.89844 2 2 2z"/>
  <path d="m70.801 15.898c-1.1016 0-2 0.89844-2 2v5.6016c0 1.1016 0.89844 2 2 2 1.1016 0 2-0.89844 2-2v-5.6016c0-1.0977-0.90234-2-2-2z"/>
  <path d="m83.5 73.5c0-4.1992-3.3984-7.6016-7.6016-7.6016-1.6016 0-3 0.5-4.1992 1.3008-1.1992-2.6992-3.8984-4.6016-7-4.6016-1.6016 0-3 0.5-4.1992 1.3008-1.1992-2.6992-3.8984-4.6016-7-4.6016-1.3008 0-2.5 0.30078-3.6016 0.89844v-8.6992h8.5c1.1016 0 2-0.89844 2-2v-32.496c0-1.1016-0.89844-2-2-2h-32.398c-1.1016 0-2 0.89844-2 2v32.301c0 1.1016 0.89844 2 2 2h8.6016v29.898l-5-4.8984c-2.6016-2.6016-6.6992-3-9.6992-0.89844-1.8008 1.1992-3 3.1016-3.3008 5.3008-0.30078 2.1016 0.30078 4.3008 1.6992 6l8.6016 10.199c0.39844 0.5 1 0.69922 1.5 0.69922s0.89844-0.19922 1.3008-0.5c0.80078-0.69922 1-2 0.19922-2.8008l-8.5-10.102c-0.69922-0.80078-1-1.8008-0.80078-2.8984 0.19922-1 0.69922-1.8984 1.6016-2.5 1.5-1 3.3984-0.80078 4.6992 0.39844l6.1992 6.1016c0.89844 0.89844 2.3984 1.1992 3.6016 0.69922 1.1992-0.5 2-1.6992 2-3.1016l-0.003906-39.797c0-2 1.6016-3.6016 3.6016-3.6016 1 0 1.8984 0.39844 2.5 1.1016 0.69922 0.69922 1.1016 1.6016 1.1016 2.6016v27.301c0 1.1016 0.89844 2 2 2 1.1016 0 2-0.89844 2-2v-3.6992c0-2 1.6016-3.6016 3.6016-3.6016s3.6016 1.6016 3.6016 3.6016v7.1016c0 1.1016 0.89844 2 2 2 1.1016 0 2-0.89844 2-2v-3.6992c0-2 1.6016-3.6016 3.6016-3.6016s3.6016 1.6016 3.6016 3.6016v7.1016c0 1.1016 0.89844 2 2 2 1.1016 0 2-0.89844 2-2v-3.5-0.19922c0-2 1.6016-3.6016 3.6016-3.6016s3.6016 1.6016 3.6016 3.6016v22c0 1.1016 0.89844 2 2 2 1.1016 0 2-0.89844 2-2zm-41.301-38c-4.1992 0-7.6016 3.3984-7.6016 7.6016v4.1992h-6.5977v-28.301h28.301v28.301h-6.5v-4.1992c0-2-0.80078-4-2.1992-5.3984-1.4023-1.4023-3.3008-2.2031-5.4023-2.2031z"/>
 </g>
</svg>
