<?xml version="1.0" encoding="UTF-8"?>
<svg width="100pt" height="100pt" version="1.1" viewBox="0 0 100 100" xmlns="http://www.w3.org/2000/svg">
 <g>
  <path d="m64.109 42.918c-0.054687-3.8906-2.7695-7.4141-6.0312-7.8359l-2.8203-0.36328c-3.2617-0.42188-8.5977-0.42188-11.859 0l-2.8164 0.36328c-3.2617 0.42188-5.9766 3.9453-6.0312 7.8359l-0.035156 2.5742c0 10.785 0.61328 19.246 0.61328 19.246h3.6562l1.3438-21.23 0.94141 15.398 0.94141 34.84h5.3438l1.8359-28.066 0.26562-0.94141 1.8359 29.012h5.3438l0.94141-34.84 0.94531-15.398 1.3438 21.23h3.6562s0.61328-8.4609 0.61328-19.246z"/>
  <path d="m54.82 27.516c0 3.0352-2.457 5.4922-5.4883 5.4922s-5.4922-2.457-5.4922-5.4922c0-3.0312 2.4609-5.4883 5.4922-5.4883s5.4883 2.457 5.4883 5.4883"/>
  <path d="m41.152 11.844l-9.1758 13.379-9.2344-8.6016 7.0586-10.293z"/>
  <path d="m36.824 23.926l1.9492 0.80469-0.80469 1.9492-1.9492-0.80469z"/>
  <path d="m35.652 30.117l0.95312 1.8789-1.8789 0.95312-0.95312-1.8789z"/>
  <path d="m47.352 18.387l0.95313 1.8789-1.8789 0.95312-0.95312-1.8789z"/>
  <path d="m45.293 25.094l0.95312 1.8789-1.8789 0.95312-0.95313-1.8789z"/>
  <path d="m49.207 27.523l1.8008 1.0977-1.0977 1.8008-1.8008-1.0977z"/>
  <path d="m46.566 34.266l-0.48828 2.0508-2.0508-0.48828 0.48828-2.0508z"/>
  <path d="m42.332 19.375l1.4219 1.5586-1.5586 1.4219-1.4219-1.5586z"/>
  <path d="m38.664 17.059l0.95313 1.8789-1.8789 0.95312-0.95312-1.8789z"/>
  <path d="m39.668 27.504l0.95312 1.8789-1.8789 0.95313-0.95313-1.8789z"/>
  <path d="m35.449 34.535l0.95312 1.8789-1.8789 0.95313-0.95313-1.8789z"/>
  <path d="m40.676 35.953l-1.9062 0.90625-0.90625-1.9023 1.9062-0.90625z"/>
 </g>
</svg>
