<?xml version="1.0" encoding="UTF-8"?>
<svg width="100pt" height="100pt" version="1.1" viewBox="0 0 100 100" xmlns="http://www.w3.org/2000/svg">
 <g>
  <path d="m37.738 55.289c-14.125 0.87109-25.188 12.621-25.188 26.754v15.582h43.504l-17.945-42.359z"/>
  <path d="m74.809 55.289l-0.37109-0.023437-17.953 42.359h43.516v-15.582c0-14.133-11.066-25.883-25.191-26.754z"/>
  <path d="m29.168 40.941c0.074219-0.12109 0.097656-0.26562 0.0625-0.39844l-2.5547-10.586c-0.035156-0.13672-0.11719-0.25391-0.23828-0.32422-0.11719-0.074218-0.26172-0.10156-0.39844-0.066406l-21.465 5.1797c-1.5508 0.37109-2.8633 1.3281-3.6953 2.6836-0.83203 1.3594-1.0859 2.9648-0.71094 4.5156 0.65234 2.6953 3.0352 4.5742 5.8008 4.5742 0.47266 0 0.94531-0.054687 1.4102-0.16797l21.465-5.1758c0.13281-0.03125 0.24609-0.11719 0.32422-0.23438z"/>
  <path d="m56.777 54.211c2.043 0 4.0898-0.24219 6.0977-0.72656 13.887-3.3516 22.461-17.379 19.113-31.27-2.8164-11.684-13.168-19.844-25.168-19.844-2.043 0-4.0977 0.24219-6.0977 0.72656-13.891 3.3477-22.465 17.375-19.117 31.27 2.8164 11.684 13.168 19.844 25.172 19.844zm-0.38281-41.016c8.4766 0 15.375 6.8984 15.375 15.375 0 8.4805-6.8984 15.379-15.375 15.379-8.4805 0-15.375-6.8984-15.375-15.379 0-8.4766 6.8984-15.375 15.375-15.375z"/>
 </g>
</svg>
