<?xml version="1.0" encoding="UTF-8"?>
<svg width="100pt" height="100pt" version="1.1" viewBox="0 0 100 100" xmlns="http://www.w3.org/2000/svg">
 <g>
  <path d="m50.836 37h35.828c1.5664 0 2.8359 1.5664 2.8359 2.8359v33.328c0 1.5664-1.2695 2.8359-2.8359 2.8359h-35.828c-1.5664 0-2.8359-1.5664-2.8359-2.8359v-33.328c0-1.5664 1.2695-2.8359 2.8359-2.8359z"/>
  <path d="m40.336 38h-30.336c-1.1055 0-2 0.89453-2 2s0.89453 2 2 2h30.336c1.1055 0 2-0.89453 2-2s-0.89453-2-2-2z"/>
  <path d="m10 53h18.703c1.1055 0 2-0.89453 2-2s-0.89453-2-2-2h-18.703c-1.1055 0-2 0.89453-2 2s0.89453 2 2 2z"/>
  <path d="m33.762 60h-23.762c-1.1055 0-2 0.89453-2 2s0.89453 2 2 2h23.762c1.1016 0 2-0.89453 2-2s-0.89844-2-2-2z"/>
  <path d="m25.172 71h-15.172c-1.1055 0-2 0.89453-2 2s0.89453 2 2 2h15.172c1.1016 0 2-0.89453 2-2s-0.89844-2-2-2z"/>
  <path d="m100 2c0-0.53125-0.21094-1.0391-0.58594-1.4141s-0.88281-0.58594-1.4141-0.58594h-96c-1.1055 0-2 0.89453-2 2v96c0 0.53125 0.21094 1.0391 0.58594 1.4141s0.88281 0.58594 1.4141 0.58594h96c0.53125 0 1.0391-0.21094 1.4141-0.58594s0.58594-0.88281 0.58594-1.4141zm-4 2v9.5h-92v-9.5zm-92 92v-78.5h92v78.5z"/>
  <path d="m12.898 8.5234c0 2.8945-4.3398 2.8945-4.3398 0 0-2.8906 4.3398-2.8906 4.3398 0"/>
  <path d="m19.641 8.5234c0 2.8945-4.3398 2.8945-4.3398 0 0-2.8906 4.3398-2.8906 4.3398 0"/>
  <path d="m26.379 8.5234c0 2.8945-4.3398 2.8945-4.3398 0 0-2.8906 4.3398-2.8906 4.3398 0"/>
 </g>
</svg>
