<?xml version="1.0" encoding="UTF-8"?>
<svg width="100pt" height="100pt" version="1.1" viewBox="0 0 100 100" xmlns="http://www.w3.org/2000/svg">
 <path d="m82.301 25l-19.301-19.199c-0.60156-0.5-1.3008-0.80078-2-0.80078h-40c-2.8984 0-5.3008 2.3984-5.3008 5.3008v79.5c0 2.8984 2.3984 5.3008 5.3008 5.3008h58c2.8984 0 5.3008-2.3984 5.3008-5.3008v-59.801c0-1.8984-0.69922-3.6016-2-5zm-3.1992 2.5h-16c-0.69922 0-1.3008-0.60156-1.3008-1.3008v-16zm-0.10156 64h-58c-1 0-1.8008-0.80078-1.8008-1.8008v-79.398c0-1 0.80078-1.8008 1.8008-1.8008h37.398v17.801c0 2.6016 2.1016 4.6992 4.6992 4.6992h17.699v58.801c0.003906 0.89844-0.79688 1.6992-1.7969 1.6992zm3.3008-66.5l-19.301-19.199c-0.60156-0.5-1.3008-0.80078-2-0.80078h-40c-2.8984 0-5.3008 2.3984-5.3008 5.3008v79.5c0 2.8984 2.3984 5.3008 5.3008 5.3008h58c2.8984 0 5.3008-2.3984 5.3008-5.3008v-59.801c0-1.8984-0.69922-3.6016-2-5zm-3.1992 2.5h-16c-0.69922 0-1.3008-0.60156-1.3008-1.3008v-16zm-0.10156 64h-58c-1 0-1.8008-0.80078-1.8008-1.8008v-79.398c0-1 0.80078-1.8008 1.8008-1.8008h37.398v17.801c0 2.6016 2.1016 4.6992 4.6992 4.6992h17.699v58.801c0.003906 0.89844-0.79688 1.6992-1.7969 1.6992zm-41.898-37.801v2.3008c0 0.39844-0.30078 0.80078-0.80078 0.80078h-0.5c-0.10156 0-0.19922 0-0.30078 0.10156-0.10156 0-0.10156 0.10156-0.19922 0.19922-0.10156 0.10156-0.10156 0.30078-0.19922 0.60156-0.10156 0.30078-0.10156 0.69922-0.10156 1.1016v2.1016c0 0.60156 0 1.1992-0.10156 1.6992-0.10156 0.5-0.19922 0.89844-0.39844 1.3008-0.10156 0.30078-0.30078 0.5-0.5 0.69922 0.19922 0.19922 0.30078 0.39844 0.39844 0.69922 0.30078 0.69922 0.5 1.6992 0.5 3v3.1016c0 0.5 0 0.89844 0.10156 1.1992s0.19922 0.5 0.19922 0.60156c0.10156 0.10156 0.10156 0.19922 0.19922 0.19922 0.10156 0 0.19922 0.10156 0.39844 0.10156h0.5c0.39844 0 0.80078 0.30078 0.80078 0.80078v2.3008c0 0.39844-0.30078 0.80078-0.80078 0.80078h-0.60156c-1.3008 0-2.3008-0.5-3-1.6016-0.60156-0.89844-0.89844-2.3008-0.89844-4.3008v-3.1016c0-0.89844-0.10156-1.3008-0.30078-1.5-0.10156-0.10156-0.19922-0.19922-0.5-0.19922h-0.5c-0.39844 0-0.80078-0.30078-0.80078-0.80078v-2.3008c0-0.39844 0.30078-0.80078 0.80078-0.80078h0.5c0.19922 0 0.30078 0 0.39844-0.10156l0.19922-0.19922c0-0.10156 0.10156-0.19922 0.19922-0.5 0-0.30078 0.10156-0.60156 0.10156-1v-2.1992c0-0.89844 0.10156-1.6992 0.19922-2.3984 0.10156-0.69922 0.39844-1.3008 0.69922-1.8008s0.80078-1 1.3008-1.1992c0.5-0.30078 1.1016-0.39844 1.8008-0.39844h0.60156c0.30469-0.10937 0.60547 0.19141 0.60547 0.69141zm6.7969 14.801c0.10156 0.30078 0.19922 0.60156 0.19922 0.89844 0 0.30078-0.10156 0.60156-0.19922 0.89844-0.10156 0.30078-0.30078 0.5-0.5 0.69922-0.19922 0.19922-0.39844 0.39844-0.69922 0.5-0.30078 0.10156-0.60156 0.19922-0.89844 0.19922-0.30078 0-0.60156-0.10156-0.89844-0.19922-0.30078-0.10156-0.5-0.30078-0.69922-0.5-0.19922-0.19922-0.39844-0.39844-0.5-0.69922s-0.19922-0.60156-0.19922-0.89844c0-0.30078 0.10156-0.60156 0.19922-0.89844 0.10156-0.30078 0.30078-0.5 0.5-0.69922s0.39844-0.39844 0.69922-0.5c0.60156-0.19922 1.1992-0.19922 1.8008 0 0.30078 0.10156 0.5 0.30078 0.69922 0.5 0.19922 0.19922 0.39844 0.39844 0.49609 0.69922zm8.1016 0c0.10156 0.30078 0.19922 0.60156 0.19922 0.89844 0 0.30078-0.10156 0.60156-0.19922 0.89844-0.10156 0.30078-0.30078 0.5-0.5 0.69922-0.19922 0.19922-0.39844 0.39844-0.69922 0.5-0.30078 0.10156-0.60156 0.19922-0.89844 0.19922-0.30078 0-0.60156-0.10156-0.89844-0.19922-0.30078-0.10156-0.5-0.30078-0.69922-0.5-0.19922-0.19922-0.39844-0.39844-0.5-0.69922-0.10156-0.30078-0.19922-0.60156-0.19922-0.89844 0-0.30078 0.10156-0.60156 0.19922-0.89844 0.10156-0.30078 0.30078-0.5 0.5-0.69922 0.19922-0.19922 0.39844-0.39844 0.69922-0.5 0.60156-0.19922 1.1992-0.19922 1.8008 0 0.30078 0.10156 0.5 0.30078 0.69922 0.5 0.29688 0.19922 0.39453 0.39844 0.49609 0.69922zm8.1992 0c0.10156 0.30078 0.19922 0.60156 0.19922 0.89844 0 0.30078-0.10156 0.60156-0.19922 0.89844-0.10156 0.30078-0.30078 0.5-0.5 0.69922-0.19922 0.19922-0.39844 0.39844-0.69922 0.5-0.30078 0.10156-0.60156 0.19922-0.89844 0.19922-0.30078 0-0.60156-0.10156-0.89844-0.19922-0.30078-0.10156-0.5-0.30078-0.69922-0.5-0.19922-0.19922-0.39844-0.39844-0.5-0.69922-0.10156-0.30078-0.19922-0.60156-0.19922-0.89844 0-0.30078 0.10156-0.60156 0.19922-0.89844 0.10156-0.30078 0.30078-0.5 0.5-0.69922 0.19922-0.19922 0.39844-0.39844 0.69922-0.5 0.60156-0.19922 1.1992-0.19922 1.8008 0 0.30078 0.10156 0.5 0.30078 0.69922 0.5 0.19531 0.19922 0.39844 0.39844 0.49609 0.69922zm10-5.1992v2.3008c0 0.39844-0.30078 0.80078-0.80078 0.80078h-0.5c-0.19922 0-0.30078 0-0.39844 0.10156-0.10156 0-0.10156 0.10156-0.19922 0.19922 0 0.10156-0.10156 0.19922-0.19922 0.5 0 0.30078-0.10156 0.60156-0.10156 1v3.1992c0 0.89844-0.10156 1.6992-0.19922 2.3008-0.10156 0.69922-0.39844 1.3008-0.69922 1.8008-0.30078 0.5-0.80078 1-1.3008 1.1992-0.5 0.30078-1.1016 0.39844-1.8008 0.39844h-0.60156c-0.39844 0-0.80078-0.30078-0.80078-0.80078l0.003906-2.3008c0-0.39844 0.30078-0.80078 0.80078-0.80078h0.5c0.10156 0 0.30078 0 0.39844-0.10156 0.10156 0 0.10156-0.10156 0.19922-0.19922 0.10156-0.10156 0.19922-0.30078 0.19922-0.60156 0.10156-0.30078 0.10156-0.69922 0.10156-1.1016v-3.1992c0-0.60156 0-1.1992 0.10156-1.6992 0.10156-0.5 0.19922-0.89844 0.30078-1.3008 0.10156-0.30078 0.30078-0.5 0.5-0.69922-0.19922-0.19922-0.30078-0.39844-0.39844-0.69922-0.30078-0.69922-0.5-1.6992-0.5-3v-2c0-0.5 0-0.89844-0.10156-1.1992-0.10156-0.30078-0.19922-0.5-0.19922-0.60156-0.10156-0.10156-0.10156-0.19922-0.19922-0.19922-0.10156 0-0.19922-0.10156-0.39844-0.10156h-0.5c-0.39844 0-0.80078-0.30078-0.80078-0.80078v-2.3008c0-0.39844 0.30078-0.80078 0.80078-0.80078h0.60156c1.3008 0 2.3984 0.5 3 1.6016 0.60156 0.89844 0.89844 2.3008 0.89844 4.3008v2.1016c0 0.89844 0.10156 1.3008 0.30078 1.5 0.10156 0.10156 0.19922 0.19922 0.5 0.19922h0.5c0.59375 0.30469 0.99219 0.60156 0.99219 1.0039z"/>
</svg>
