<?xml version="1.0" encoding="UTF-8"?>
<svg width="100pt" height="100pt" version="1.1" viewBox="0 0 100 100" xmlns="http://www.w3.org/2000/svg">
 <g>
  <path d="m80.629 64.156c0 5.2695-7.9062 5.2695-7.9062 0 0-5.2734 7.9062-5.2734 7.9062 0"/>
  <path d="m58.828 59.41c0 3.6406-5.4609 3.6406-5.4609 0s5.4609-3.6406 5.4609 0"/>
  <path d="m79.598 6.9062c0 3.6406-5.4609 3.6406-5.4609 0 0-3.6445 5.4609-3.6445 5.4609 0"/>
  <path d="m69.484 57.668c0 2.3242-3.4844 2.3242-3.4844 0s3.4844-2.3242 3.4844 0"/>
  <path d="m67.996 10.617c0 2.3242-3.4844 2.3242-3.4844 0 0-2.3203 3.4844-2.3203 3.4844 0"/>
  <path d="m25.848 54.559c0 5.2695-7.9062 5.2695-7.9062 0 0-5.2734 7.9062-5.2734 7.9062 0"/>
  <path d="m25.848 41.324c0 3.6406-5.4609 3.6406-5.4609 0s5.4609-3.6406 5.4609 0"/>
  <path d="m22.129 31.508c0 2.3242-3.4844 2.3242-3.4844 0 0-2.3242 3.4844-2.3242 3.4844 0"/>
  <path d="m30.633 14.246h-16.422c-3.6406 0-6.6055 2.9648-6.6055 6.6055 0 2.7578 1.6992 5.125 4.1055 6.1133v36.75c0 1.3789 1.1211 2.5 2.5 2.5h8.9062c1.3789 0 2.5-1.1172 2.5-2.5 0-1.3828-1.1172-2.5-2.5-2.5h-6.4062v-36.258c0-1.3789-1.1211-2.5-2.5-2.5-0.88672 0-1.6055-0.71875-1.6055-1.6055 0-0.88672 0.71875-1.6055 1.6055-1.6055h16.422c0.88672 0 1.6055 0.71875 1.6055 1.6055 0 0.88672-0.71875 1.6055-1.6055 1.6055h-7.5156c-1.3789 0-2.5 1.1211-2.5 2.5 0 1.3789 1.1211 2.5 2.5 2.5h5.0156v57.66c0 3.1484-2.5625 5.7109-5.7109 5.7109s-5.7109-2.5625-5.7109-5.7109v-13.504c0-1.3789-1.1211-2.5-2.5-2.5-1.3789 0-2.5 1.1211-2.5 2.5v13.504c0 5.9062 4.8047 10.711 10.711 10.711s10.711-4.8047 10.711-10.711v-58.152c2.4062-0.98828 4.1055-3.3555 4.1055-6.1133 0-3.6406-2.9648-6.6055-6.6055-6.6055z"/>
  <path d="m51.965 66.207c-1.3789 0-2.5 1.1172-2.5 2.5 0 1.3789 1.1172 2.5 2.5 2.5 0.23828 0 0.48828 0.007813 0.73438 0.019531 0.039062 0.003907 0.082031 0.003907 0.12109 0.003907 1.3242 0 2.4297-1.043 2.4961-2.3789 0.066406-1.3789-0.99609-2.5508-2.375-2.6172-0.33203-0.019531-0.66016-0.027344-0.97656-0.027344z"/>
  <path d="m91.164 70.508c-0.97266-0.57422-2.2109-0.42578-3.0195 0.36719-2.2891 2.2383-5.0781 3.1016-8.7773 2.707-3.6445-0.38672-7.6289-1.875-11.848-3.4531-2.1289-0.79688-4.3242-1.6172-6.4961-2.293-1.3164-0.41016-2.7188 0.32422-3.1289 1.6445-0.41016 1.3203 0.32422 2.7188 1.6445 3.1289 2.0352 0.63281 4.168 1.4336 6.2305 2.2031 4.3242 1.6172 8.7969 3.293 13.074 3.7422 2.5703 0.27344 4.8945 0.085937 6.9883-0.57031-3.3281 7.6055-10.957 12.844-19.605 12.844-10.762 0-19.879-8.0352-21.215-18.695-0.10938-0.88281-0.16797-1.7891-0.16797-2.6875 0-8.9297 5.6289-16.996 14.004-20.074 0.98438-0.36328 1.6367-1.2969 1.6367-2.3477l0.003906-21.707c0.015625-0.11719 0.027344-0.23828 0.027344-0.35938 0-1.3789-1.1211-2.5-2.5-2.5-0.88672 0-1.6055-0.71875-1.6055-1.6055 0-0.88672 0.71875-1.6055 1.6055-1.6055h16.422c0.88672 0 1.6055 0.71875 1.6055 1.6055 0 0.88672-0.71875 1.6055-1.6055 1.6055h-8.2109c-1.3789 0-2.5 1.1211-2.5 2.5 0 1.3789 1.1211 2.5 2.5 2.5h5.6953l0.046875 19.57c0.003906 1.0469 0.65625 1.9805 1.6367 2.3398 6.8359 2.5117 11.875 8.2461 13.48 15.336 0.26172 1.1602 1.293 1.9492 2.4375 1.9492 0.18359 0 0.36719-0.019532 0.55469-0.0625 1.3477-0.30469 2.1914-1.6445 1.8867-2.9883-0.96875-4.2852-3.0234-8.2969-5.9453-11.609-2.5078-2.8398-5.6094-5.1172-9.0508-6.6562l-0.042969-18.371c2.4141-0.98438 4.125-3.3555 4.125-6.1211 0-3.6406-2.9648-6.6055-6.6055-6.6055l-16.43 0.007813c-3.6406 0-6.6055 2.9648-6.6055 6.6055 0 2.7461 1.6836 5.1055 4.0781 6.1016v18.387c-4.3164 1.9219-8.0195 4.9531-10.781 8.8438-3.1797 4.4766-4.8594 9.7539-4.8594 15.262 0 1.1055 0.070313 2.2188 0.20703 3.3086 1.6484 13.152 12.902 23.074 26.176 23.074 6.4258 0 12.617-2.3359 17.434-6.582 4.7617-4.1953 7.8555-9.9531 8.707-16.211 0.14453-1-0.32031-2.0039-1.207-2.5273z"/>
 </g>
</svg>
