<?xml version="1.0" encoding="UTF-8"?>
<svg width="100pt" height="100pt" version="1.1" viewBox="0 0 100 100" xmlns="http://www.w3.org/2000/svg">
 <path d="m87.75 21.562h-75.5c-0.86328 0-1.5625 0.69922-1.5625 1.5625v53.75c0 0.41406 0.16406 0.8125 0.45703 1.1055s0.69141 0.45703 1.1055 0.45703h75.5c0.41406 0 0.8125-0.16406 1.1055-0.45703s0.45703-0.69141 0.45703-1.1055v-53.75c0-0.41406-0.16406-0.8125-0.45703-1.1055s-0.69141-0.45703-1.1055-0.45703zm-1.5625 53.75h-72.375v-50.625h72.375zm-63.547-43.281h-4.5v-4.5h4.5zm10.938 0h-4.5781v-4.5h4.5zm10.938 0h-4.6562v-4.5h4.5156zm-29.953 3.6719c0-0.86328 0.69922-1.5625 1.5625-1.5625h65.969c0.86328 0 1.5625 0.69922 1.5625 1.5625s-0.69922 1.5625-1.5625 1.5625h-65.969c-0.86328 0-1.5625-0.69922-1.5625-1.5625zm1.5625 35.938h65.969c0.86328 0 1.5625-0.69922 1.5625-1.5625s-0.69922-1.5625-1.5625-1.5625h-7.9844v-22.484c0-0.41406-0.16406-0.8125-0.45703-1.1055-0.29297-0.29297-0.69141-0.45703-1.1055-0.45703h-6.1406c-0.86328 0-1.5625 0.69922-1.5625 1.5625v22.547h-3.2969v-16.688c0-0.41406-0.16406-0.8125-0.45703-1.1055-0.29297-0.29297-0.69141-0.45703-1.1055-0.45703h-6.125c-0.86328 0-1.5625 0.69922-1.5625 1.5625v16.688h-3.2969v-10.938c0-0.41406-0.16406-0.8125-0.45703-1.1055-0.29297-0.29297-0.69141-0.45703-1.1055-0.45703h-6.1406c-0.86328 0-1.5625 0.69922-1.5625 1.5625v10.938h-3.2969v-6.4688c0-0.41406-0.16406-0.8125-0.45703-1.1055-0.29297-0.29297-0.69141-0.45703-1.1055-0.45703h-6.125c-0.86328 0-1.5625 0.69922-1.5625 1.5625v6.4688h-11.062c-0.86328 0-1.5625 0.69922-1.5625 1.5625s0.69922 1.5625 1.5625 1.5625zm51.844-24.047h3.0156v20.984h-3.0156zm-12.5 5.8594h3v15.125h-3.0469zm-12.5 5.7656h3.0156v9.375h-3.125zm-12.5 4.4531h3v4.9062h-3.1562z"/>
</svg>
