<?xml version="1.0" encoding="UTF-8"?>
<svg width="100pt" height="100pt" version="1.1" viewBox="0 0 100 100" xmlns="http://www.w3.org/2000/svg">
 <g fill-rule="evenodd">
  <path d="m39.797 5.9961c-2.9336 0-5.3438 2.4141-5.3438 5.3438 0 2.8125 2.2305 5.1602 5 5.3438l0.09375 18.844c-5.8398 15.566-13.977 28.766-18.75 38.625-2.4023 4.9648-4.0859 9.0234-3.875 12.688 0.10547 1.832 0.84766 3.625 2.25 4.875s3.293 1.9531 5.625 2.2812c0.09375 0.007812 0.1875 0.007812 0.28125 0h49.844c0.09375 0.007812 0.1875 0.007812 0.28125 0 2.3281-0.32812 4.2227-1.0312 5.625-2.2812s2.1445-3.043 2.25-4.875c0.21094-3.6641-1.4727-7.7227-3.875-12.688-4.7734-9.8594-12.914-23.059-18.75-38.625l0.09375-18.844c2.7695-0.1875 5-2.5312 5-5.3438 0-2.9297-2.4102-5.3438-5.3438-5.3438zm0 4h20.406c0.75781 0 1.3438 0.60156 1.3438 1.3438 0 0.75781-0.58594 1.3438-1.3438 1.3438h-1.6562c-1.1055 0-2 0.89453-2 2l-0.09375 21.188c0 0.23438 0.042969 0.46875 0.125 0.6875 6.0117 16.168 14.395 29.738 19.031 39.312 2.3164 4.7891 3.5898 8.6484 3.4688 10.75-0.0625 1.0508-0.32422 1.6055-0.90625 2.125-0.57031 0.50781-1.6367 0.98438-3.4062 1.25h-49.531c-1.7695-0.26562-2.8359-0.74219-3.4062-1.25-0.58594-0.52344-0.84375-1.0742-0.90625-2.125-0.12109-2.1016 1.1523-5.9609 3.4688-10.75 4.6367-9.5742 13.012-23.145 19.031-39.312 0.082031-0.21875 0.125-0.45312 0.125-0.6875l-0.125-21.188c0-1.1055-0.89453-2-2-2h-1.625c-0.75781 0-1.3438-0.58594-1.3438-1.3438 0-0.74219 0.58594-1.3438 1.3438-1.3438z"/>
  <path d="m42.48 52.473c-0.81641 0-1.5508 0.49609-1.8555 1.25-3.2695 8.0625-7.6797 15.32-10.02 20.805-1.1719 2.7422-2.0469 5.0508-1.3242 7.4336 0.36328 1.1914 1.3398 2.2734 2.5312 2.7891 1.1719 0.50781 2.4805 0.62891 4.0234 0.54688h28.148-0.003906 0.046875c1.6328-0.039063 2.9961-0.26562 4.1758-0.84766s2.1289-1.6523 2.5039-2.8594c0.75-2.4102-0.15625-4.7461-1.3633-7.4375-2.418-5.3828-6.9414-12.395-10.191-20.426v-0.003906c-0.30859-0.75391-1.0391-1.25-1.8555-1.25h-14.82z"/>
  <path d="m48.148 14.211c-1.1055 0.019531-1.9883 0.92578-1.9727 2.0312v16.684c-0.007812 0.53516 0.19922 1.0508 0.57422 1.4336s0.89062 0.60156 1.4258 0.60156c0.53906 0 1.0508-0.21875 1.4297-0.60156 0.375-0.38281 0.58203-0.89844 0.57031-1.4336v-16.684c0.007813-0.54297-0.20312-1.0625-0.58594-1.4453-0.38281-0.38281-0.90234-0.59375-1.4414-0.58594z"/>
 </g>
</svg>
