<?xml version="1.0" encoding="UTF-8"?>
<svg width="100pt" height="100pt" version="1.1" viewBox="0 0 100 100" xmlns="http://www.w3.org/2000/svg">
 <g>
  <path d="m51.699 55c-0.69922-2-1.3008-4-2-6.3984h-0.30078c-0.39844 2-1.1992 4.1992-1.8984 6.1992l-6 17.102h-5.6016l10.699-27.301c0.19922-0.69922 0.39844-1.1016 0.39844-1.3984 0-0.39844-0.10156-0.89844-0.39844-1.6016-1.8984-5.1992-4.1016-9.3008-7.6992-9.3008-0.30078 0-0.69922 0-1 0.10156l0.39844-4.1992c0.5-0.19922 1.3008-0.19922 2.1016-0.19922 5.8008 0 8.5 5.6016 11.699 14l11.301 30h-5.6992z"/>
  <path d="m81.102 93.898h-62.902c-6.8984 0-12.5-5.6016-12.5-12.5v-62.898c0-6.8984 5.6016-12.5 12.5-12.5h62.898c6.8984 0 12.5 5.6016 12.5 12.5v62.898c0.003906 6.9023-5.5977 12.5-12.496 12.5zm-62.902-86.898c-6.3008 0-11.5 5.1992-11.5 11.5v62.898c0 6.3008 5.1992 11.5 11.5 11.5h62.898c6.3008 0 11.5-5.1992 11.5-11.5l0.003906-62.898c0-6.3008-5.1016-11.5-11.5-11.5z"/>
 </g>
</svg>
