<?xml version="1.0" encoding="UTF-8"?>
<svg width="100pt" height="100pt" version="1.1" viewBox="0 0 100 100" xmlns="http://www.w3.org/2000/svg">
 <g>
  <path d="m76.73 42.434c3.5273-1.4062 5.25-5.4492 3.8398-9.0195-1.4297-3.5625-5.4492-5.3125-8.9844-3.9062-3.5312 1.4023-5.25 5.4297-3.8242 9.0039 1.418 3.5625 5.4336 5.3242 8.9688 3.9219"/>
  <path d="m86.246 61.98c0.54297 0.30859 1.1992 0.57812 1.7852 0.57812 1.0859 0 2.0859-0.63672 2.7617-1.5703l7.5312-10.398c1.1367-1.5625 0.78125-3.7578-0.77734-4.8828-1.5742-1.1367-3.7539-0.78516-4.8828 0.77734l-5.2031 7.1875s-6.6445-6.6055-9.3008-8.1875c-3-1.3203-6.4375-1.4023-7.6875-1.3516l-15.414 0.003907c-1.0625 0-2.0703 0.48438-2.7305 1.3164l-8.082 10.141c-1.2031 1.5117-0.95703 3.707 0.55078 4.9102 0.64453 0.51172 1.4141 0.76562 2.1797 0.76562 1.0273 0 2.0469-0.44922 2.7344-1.3164l7.0352-8.8242h5.8008c-4.2461 6.1016-10.105 14.648-10.086 15.227h0.007812c-0.67578 1.1758-0.87891 2.6055-0.30078 3.9492l3.7461 8.7617h-17.746c-2.4688 0-4.4727 2.0039-4.4727 4.4727s2.0039 4.4727 4.4727 4.4727h24.527c1.5039 0 2.9062-0.75391 3.7305-2.0078 0.82812-1.2617 0.97266-2.8398 0.37891-4.2266l-3.1641-7.3945h13.906l8.2812 17.777c0.76562 1.6328 2.3789 2.5859 4.0625 2.5859 0.62891 0 1.2695-0.13672 1.8828-0.41797 2.2422-1.0469 3.207-3.7031 2.1641-5.9453l-9.4805-20.359c-0.73828-1.5742-2.3164-2.5781-4.0586-2.5781h-8.6875l7.0938-10.102z"/>
  <path d="m4.918 11.301c0 2.6523-3.9805 2.6523-3.9805 0 0-2.6523 3.9805-2.6523 3.9805 0"/>
  <path d="m11.371 15.273c0 2.6523-3.9805 2.6523-3.9805 0 0-2.6562 3.9805-2.6562 3.9805 0"/>
  <path d="m17.824 27.188c0 2.6523-3.9805 2.6523-3.9805 0 0-2.6562 3.9805-2.6562 3.9805 0"/>
  <path d="m17.824 19.242c0 2.6523-3.9805 2.6523-3.9805 0 0-2.6523 3.9805-2.6523 3.9805 0"/>
  <path d="m24.277 31.156c0 2.6562-3.9805 2.6562-3.9805 0s3.9805-2.6562 3.9805 0"/>
  <path d="m24.277 23.215c0 2.6523-3.9805 2.6523-3.9805 0 0-2.6562 3.9805-2.6562 3.9805 0"/>
  <path d="m69.543 26.191c0 2.6562-3.9805 2.6562-3.9805 0 0-2.6523 3.9805-2.6523 3.9805 0"/>
  <path d="m69.543 18.25c0 2.6562-3.9805 2.6562-3.9805 0 0-2.6523 3.9805-2.6523 3.9805 0"/>
  <path d="m75.996 22.223c0 2.6523-3.9805 2.6523-3.9805 0s3.9805-2.6523 3.9805 0"/>
  <path d="m82.449 26.191c0 2.6562-3.9805 2.6562-3.9805 0 0-2.6523 3.9805-2.6523 3.9805 0"/>
  <path d="m88.902 30.164c0 2.6523-3.9766 2.6523-3.9766 0 0-2.6523 3.9766-2.6523 3.9766 0"/>
  <path d="m88.902 38.105c0 2.6523-3.9766 2.6523-3.9766 0 0-2.6523 3.9766-2.6523 3.9766 0"/>
  <path d="m69.543 11.301c0 2.6523-3.9805 2.6523-3.9805 0 0-2.6523 3.9805-2.6523 3.9805 0"/>
  <path d="m75.996 15.273c0 2.6523-3.9805 2.6523-3.9805 0 0-2.6562 3.9805-2.6562 3.9805 0"/>
  <path d="m75.996 7.3281c0 2.6562-3.9805 2.6562-3.9805 0s3.9805-2.6562 3.9805 0"/>
  <path d="m82.449 19.242c0 2.6523-3.9805 2.6523-3.9805 0 0-2.6523 3.9805-2.6523 3.9805 0"/>
  <path d="m92.848 21.234c-1.1016 0-1.9883-0.89062-1.9883-1.9883 0-1.1016 0.89062-1.9883 1.9883-1.9883 1.1016 0 1.9922 0.89063 1.9922 1.9883s-0.89062 1.9883-1.9922 1.9883z"/>
  <path d="m88.906 23.215c0 2.6523-3.9844 2.6523-3.9844 0 0-2.6562 3.9844-2.6562 3.9844 0"/>
  <path d="m88.902 15.273c0 2.6523-3.9766 2.6523-3.9766 0 0-2.6562 3.9766-2.6562 3.9766 0"/>
  <path d="m30.516 26.191c0 2.6562-3.9844 2.6562-3.9844 0 0-2.6523 3.9844-2.6523 3.9844 0"/>
  <path d="m30.512 18.25c0 2.6562-3.9805 2.6562-3.9805 0 0-2.6523 3.9805-2.6523 3.9805 0"/>
  <path d="m36.969 22.223c0 2.6523-3.9805 2.6523-3.9805 0s3.9805-2.6523 3.9805 0"/>
  <path d="m43.422 26.191c0 2.6562-3.9805 2.6562-3.9805 0 0-2.6523 3.9805-2.6523 3.9805 0"/>
  <path d="m49.871 38.105c0 2.6523-3.9766 2.6523-3.9766 0 0-2.6523 3.9766-2.6523 3.9766 0"/>
  <path d="m49.871 30.164c0 2.6523-3.9766 2.6523-3.9766 0 0-2.6523 3.9766-2.6523 3.9766 0"/>
  <path d="m56.324 34.137c0 2.6523-3.9766 2.6523-3.9766 0 0-2.6562 3.9766-2.6562 3.9766 0"/>
  <path d="m62.781 38.105c0 2.6523-3.9805 2.6523-3.9805 0 0-2.6523 3.9805-2.6523 3.9805 0"/>
  <path d="m36.969 15.273c0 2.6523-3.9805 2.6523-3.9805 0 0-2.6562 3.9805-2.6562 3.9805 0"/>
  <path d="m43.422 19.242c0 2.6523-3.9805 2.6523-3.9805 0 0-2.6523 3.9805-2.6523 3.9805 0"/>
  <path d="m49.875 23.215c0 2.6523-3.9844 2.6523-3.9844 0 0-2.6562 3.9844-2.6562 3.9844 0"/>
  <path d="m49.871 15.273c0 2.6523-3.9766 2.6523-3.9766 0 0-2.6562 3.9766-2.6562 3.9766 0"/>
  <path d="m56.324 27.188c0 2.6523-3.9766 2.6523-3.9766 0 0-2.6562 3.9766-2.6562 3.9766 0"/>
  <path d="m56.324 19.242c0 2.6523-3.9766 2.6523-3.9766 0 0-2.6523 3.9766-2.6523 3.9766 0"/>
  <path d="m62.781 31.156c0 2.6562-3.9805 2.6562-3.9805 0s3.9805-2.6562 3.9805 0"/>
  <path d="m94.84 34.137c0 2.6523-3.9805 2.6523-3.9805 0 0-2.6562 3.9805-2.6562 3.9805 0"/>
  <path d="m62.781 23.215c0 2.6523-3.9805 2.6523-3.9805 0 0-2.6562 3.9805-2.6562 3.9805 0"/>
  <path d="m62.781 15.273c0 2.6523-3.9805 2.6523-3.9805 0 0-2.6562 3.9805-2.6562 3.9805 0"/>
 </g>
</svg>
