<?xml version="1.0" encoding="UTF-8"?>
<svg width="100pt" height="100pt" version="1.1" viewBox="0 0 100 100" xmlns="http://www.w3.org/2000/svg">
 <path d="m41.094 28.969c-0.72266 0.36328-1.1797 1.1953-1.0938 2l0.75 6.875-22.75 0.15625c-3.3867 0-6.2344 2.2461-8.0938 5.3438s-2.9062 7.1914-2.9062 11.656 1.0469 8.5273 2.9062 11.625 4.707 5.375 8.0938 5.375c21.922-1.707 44.133-3.3828 66.156-5.0625 0.16016-0.011719 0.31641-0.042969 0.46875-0.09375 2.3906-0.80078 4.1914-2.8594 5.7188-5.375s2.6562-5.5469 2.6562-8.5938c0-4.6875-2.0117-11.09-6.7812-14.688-0.35156-0.25391-0.78516-0.38672-1.2188-0.375h-28.688l-4.5625-8.0625c-0.19922-0.33594-0.49609-0.60938-0.84375-0.78125-1.4766-0.74219-3.1836-0.96875-4.9062-0.96875-1.7617 0.14844-3.5586 0.3125-4.9062 0.96875zm8.3125 4.8125 4 7c0.33984 0.61328 1.0195 1.0195 1.7188 1.0312h29.031c2.9883 2.5938 4.8438 7.8438 4.8438 11.062 0 1.9844-0.87109 4.4844-2.0938 6.5-1.1875 1.9531-2.7812 3.3555-3.4375 3.625l-57.906 4.4062c2.3594-3.7617 3.4062-8.7578 3.4375-12.406-0.15625-5.1172-1.25-9.4492-3.875-13.062l17.875-0.125c1.125 0.011719 2.1211-1.1016 2-2.2188l-0.59375-5.25c0.52344 0.097656 1.0664 0.15625 1.5938 0.15625 1.1602 0 2.332-0.22656 3.4062-0.71875zm-31.406 8.2188c1.5859 0 3.2578 1.0781 4.6562 3.4062s2.3438 5.7773 2.3438 9.5938-0.94531 7.2344-2.3438 9.5625c-1.2617 1.7812-2.6797 3.3945-4.6562 3.4375-1.5859 0-3.2578-1.1094-4.6562-3.4375s-2.3438-5.7461-2.3438-9.5625 0.94531-7.2656 2.3438-9.5938 3.0703-3.4062 4.6562-3.4062zm0 2c-1.9219 0-3.4414 1.4766-4.4375 3.4688s-1.5625 4.6328-1.5625 7.5312 0.56641 5.5078 1.5625 7.5 2.5156 3.5 4.4375 3.5 3.4414-1.5078 4.4375-3.5 1.5625-4.6016 1.5625-7.5-0.56641-5.5391-1.5625-7.5312-2.5156-3.4688-4.4375-3.4688zm18 0v4h32v-4zm-18 2c0.83984 0 1.8438 0.74609 2.6562 2.375s1.3438 4 1.3438 6.625-0.53125 4.9961-1.3438 6.625-1.8164 2.375-2.6562 2.375-1.8438-0.74609-2.6562-2.375-1.3438-4-1.3438-6.625 0.53125-4.9961 1.3438-6.625 1.8164-2.375 2.6562-2.375zm30 4v4h32v-4zm34.844 6-51 4 0.3125 3.9688 51-4z"/>
</svg>
