<?xml version="1.0" encoding="UTF-8"?>
<svg width="100pt" height="100pt" version="1.1" viewBox="0 0 100 100" xmlns="http://www.w3.org/2000/svg">
 <path d="m90.219 54.953l-8.4688-10.391v-25.062c0-0.82812-0.67188-1.5-1.5-1.5h-42.75c-0.82812 0-1.5 0.67188-1.5 1.5v13.754l-24.805 17.008c-0.40625 0.28125-0.65234 0.74219-0.65234 1.2383s0.24219 0.95703 0.65234 1.2383l24.805 17.008v13.754c0 0.82812 0.67188 1.5 1.5 1.5h42.75c0.82812 0 1.5-0.67188 1.5-1.5v-34.188l6.1406 7.5391c0.29688 0.36328 0.72656 0.55078 1.1641 0.55078 0.33203 0 0.66797-0.10938 0.94531-0.33594 0.64453-0.52344 0.74219-1.4688 0.21875-2.1133zm-52.719-19.09l22.805 15.637-22.805 15.637-22.805-15.637zm1.5 46.137v-12.254l24.805-17.008c0.40625-0.28125 0.65234-0.74219 0.65234-1.2383s-0.24219-0.95703-0.65234-1.2383l-24.805-17.008v-12.254h39.75v23.562l-8.4688 10.391c-0.52344 0.64062-0.42578 1.5859 0.21484 2.1094s1.5859 0.42578 2.1094-0.21484l6.1445-7.5352v32.688z"/>
</svg>
