<?xml version="1.0" encoding="UTF-8"?>
<svg width="100pt" height="100pt" version="1.1" viewBox="0 0 100 100" xmlns="http://www.w3.org/2000/svg">
 <path d="m95.312 11.719h-90.625c-2.5898 0-4.6875 2.0977-4.6875 4.6875v57.812c0 2.5898 2.0977 4.6875 4.6875 4.6875h39.016c-0.039063 0.84375-0.15234 1.6836-0.34375 2.5078-0.72656 1.25-1.5352 2.4453-2.4219 3.5859-0.035156 0.050781-0.066406 0.10156-0.09375 0.15625h-4.125c-0.86328 0-1.5625 0.69922-1.5625 1.5625s0.69922 1.5625 1.5625 1.5625h26.562c0.86328 0 1.5625-0.69922 1.5625-1.5625s-0.69922-1.5625-1.5625-1.5625h-4.9062c-0.027344-0.054688-0.058594-0.10547-0.09375-0.15625-0.88672-1.1406-1.6953-2.3359-2.4219-3.5859-0.19531-0.82422-0.30859-1.6641-0.34375-2.5078h39.797c2.5898 0 4.6875-2.0977 4.6875-4.6875v-57.812c0-2.5898-2.0977-4.6875-4.6875-4.6875zm-7.8125 25h3.125c0.86328 0 1.5625 0.69922 1.5625 1.5625s-0.69922 1.5625-1.5625 1.5625h-3.125c-0.86328 0-1.5625-0.69922-1.5625-1.5625s0.69922-1.5625 1.5625-1.5625zm-4.6875 6.25h7.8125c0.86328 0 1.5625 0.69922 1.5625 1.5625s-0.69922 1.5625-1.5625 1.5625h-7.8125c-0.86328 0-1.5625-0.69922-1.5625-1.5625s0.69922-1.5625 1.5625-1.5625zm9.375 7.8125c0 0.41406-0.16406 0.8125-0.45703 1.1055s-0.69141 0.45703-1.1055 0.45703h-3.125c-0.86328 0-1.5625-0.69922-1.5625-1.5625s0.69922-1.5625 1.5625-1.5625h3.125c0.41406 0 0.8125 0.16406 1.1055 0.45703s0.45703 0.69141 0.45703 1.1055zm-35.477-31.25c0.43359-0.085938 0.88281 0.015625 1.2344 0.28125 0.35547 0.26172 0.58203 0.66406 0.625 1.1016 0.32031 3.3281-1.1719 9.9297-9.1016 11.07l-0.25 0.046875c-0.34375 0-0.67969-0.11328-0.95312-0.32031-0.33594-0.25391-0.55859-0.63672-0.60938-1.0547-0.33594-3.1406 1.0547-9.5078 9.0547-11.125zm-21.094 17.289c1.8828-1.8281 4.3281-2.9648 6.9375-3.2266 1.9062-0.066406 3.8086 0.26953 5.5781 0.98438l0.85156 0.27344c1.4922 0.46875 2.7266 0.078126 4.2891-0.42187 0.89844-0.30859 1.8203-0.55078 2.7578-0.71875 3.9258-0.57813 7.8711 0.95312 10.375 4.0312l0.09375 0.11719c0.058594 0.070313 0.10938 0.14844 0.15625 0.22656 0.20703 0.35937 0.26172 0.78516 0.15234 1.1875-0.10938 0.39844-0.37109 0.73828-0.73047 0.94531-2.5781 1.4844-3.7188 3.5-3.4922 6.1641 0.22656 2.6641 1.6875 4.5547 4.4453 5.7031 0.39453 0.16797 0.69922 0.49219 0.84766 0.89453 0.14453 0.40234 0.12109 0.84766-0.066406 1.2305l-0.27344 0.57031-0.5 1.0156c-1.8828 3.7344-3.9062 6.2969-6.1719 7.8125-1.7578 1.2305-4.0078 1.5234-6.0234 0.78125l-1.0703-0.4375-0.51563-0.21875c-1.6406-0.62891-3.4609-0.62891-5.1016 0l-0.72656 0.28906c-0.67188 0.3125-1.3828 0.54297-2.1094 0.6875-0.33984 0.0625-0.68359 0.09375-1.0312 0.09375-2.2656 0-4.5625-1.25-6.4375-3.5469-2.7227-3.2148-4.6016-7.0586-5.4688-11.18-1.0391-5.3594 0.14844-10.234 3.2734-13.227zm-26.242-0.10156h3.125c0.86328 0 1.5625 0.69922 1.5625 1.5625s-0.69922 1.5625-1.5625 1.5625h-3.125c-0.86328 0-1.5625-0.69922-1.5625-1.5625s0.69922-1.5625 1.5625-1.5625zm0 6.25h7.8125c0.86328 0 1.5625 0.69922 1.5625 1.5625s-0.69922 1.5625-1.5625 1.5625h-7.8125c-0.86328 0-1.5625-0.69922-1.5625-1.5625s0.69922-1.5625 1.5625-1.5625zm0 6.25h3.125c0.86328 0 1.5625 0.69922 1.5625 1.5625s-0.69922 1.5625-1.5625 1.5625h-3.125c-0.86328 0-1.5625-0.69922-1.5625-1.5625s0.69922-1.5625 1.5625-1.5625zm35.305 35.938c0.59766-0.8125 1.1211-1.6758 1.5625-2.5859 0.36328-1.1914 0.57422-2.4219 0.63281-3.6641h5.4688c0.039062 1.2422 0.23438 2.4727 0.57812 3.6641 0.4375 0.91016 0.96094 1.7773 1.5625 2.5859zm52.195-10.938c0 0.41406-0.16406 0.8125-0.45703 1.1055s-0.69141 0.45703-1.1055 0.45703h-90.625c-0.86328 0-1.5625-0.69922-1.5625-1.5625v-1.5625h93.75zm-41.531-51.023c-2.3398 0.81641-4.0469 2.8398-4.4609 5.2812 2.3711-0.76953 4.0977-2.8164 4.4609-5.2812z"/>
</svg>
