<?xml version="1.0" encoding="UTF-8"?>
<svg width="100pt" height="100pt" version="1.1" viewBox="0 0 100 100" xmlns="http://www.w3.org/2000/svg">
 <g>
  <path d="m92.898 48.438h-10.086v-4.6875c0-4.3086-3.5039-7.8125-7.8125-7.8125h-1.5625v-28.125c0-3.4453-2.8047-6.25-6.25-6.25h-59.375c-3.4453 0-6.25 2.8047-6.25 6.25v15.625h9.375v6.25h-1.5625c-4.3086 0-7.8125 3.5039-7.8125 7.8125v54.688h0.0625c-0.03125 0.23438-0.0625 0.47266-0.0625 0.71094 0 3.0547 2.4844 5.5391 5.5391 5.5391h71.383c2.3047 0 4.3906-1.4531 5.1914-3.6133l14.418-38.93c0.22656-0.61719 0.34375-1.2656 0.34375-1.9219 0-3.0508-2.4844-5.5352-5.5391-5.5352zm-17.898-9.375c2.5859 0 4.6875 2.1016 4.6875 4.6875v4.6875h-6.25v-9.375zm-4.6875-31.25v40.625h-48.797c-2.3047 0-4.3906 1.4531-5.1914 3.6133l-2.2617 6.1055v-50.344c0-1.1445-0.33203-2.2031-0.86719-3.125h53.992c1.7227 0 3.125 1.4023 3.125 3.125zm-65.625 12.5v-12.5c0-1.7227 1.4023-3.125 3.125-3.125s3.125 1.4023 3.125 3.125v12.5zm4.6875 12.5h1.5625v33.781l-6.25 16.875v-45.969c0-2.5859 2.1016-4.6875 4.6875-4.6875zm85.789 22-14.418 38.926c-0.34766 0.94141-1.2578 1.5742-2.2617 1.5742h-71.383c-1.332 0-2.4141-1.082-2.4141-2.4141 0-0.28906 0.050781-0.57031 0.14844-0.83594l14.418-38.926c0.34766-0.94141 1.2578-1.5742 2.2617-1.5742h71.383c1.332 0 2.4141 1.082 2.4141 2.4141 0 0.28516-0.050781 0.56641-0.14844 0.83594z"/>
  <path d="m55.285 92.188h22.242l4.6875-9.375h-22.242zm6.6172-6.25h15.258l-1.5625 3.125h-15.258z"/>
  <path d="m67.188 7.8125h-50v18.75h50zm-3.125 15.625h-43.75v-12.5h43.75z"/>
  <path d="m17.188 29.688h32.812v3.125h-32.812z"/>
  <path d="m17.188 35.938h50v3.125h-50z"/>
  <path d="m17.188 42.188h40.625v3.125h-40.625z"/>
  <path d="m60.938 42.188h6.25v3.125h-6.25z"/>
 </g>
</svg>
