<?xml version="1.0" encoding="UTF-8"?>
<svg width="100pt" height="100pt" version="1.1" viewBox="0 0 100 100" xmlns="http://www.w3.org/2000/svg">
 <path d="m84.375 12.5c8.6289 0 15.625 6.9961 15.625 15.625v43.75c0 8.6289-6.9961 15.625-15.625 15.625h-68.75c-8.6289 0-15.625-6.9961-15.625-15.625v-43.75c0-8.6289 6.9961-15.625 15.625-15.625zm-52.668 50.852c-0.375-0.90234-0.88281-2.0469-1.5195-3.4336-0.60156-1.3867-1.2578-2.8867-1.9688-4.5s-1.4805-3.2617-2.3047-4.9492c-0.78906-1.7266-1.5391-3.3359-2.25-4.8359-0.71484-1.5391-1.3906-2.9062-2.0273-4.1094-0.59766-1.1992-1.0859-2.1172-1.4609-2.7539-0.41406 4.4258-0.75 9.2227-1.0117 14.398-0.26562 5.1367-0.48828 10.332-0.67578 15.582h-5.3438c0.14844-3.375 0.31641-6.7695 0.50391-10.18 0.1875-3.4531 0.39453-6.8281 0.62109-10.125 0.26172-3.3398 0.52344-6.582 0.78516-9.7344 0.30078-3.1484 0.62109-6.1289 0.95703-8.9414h4.7812c1.0117 1.6484 2.1016 3.5977 3.2617 5.8477 1.1641 2.25 2.3281 4.6133 3.4883 7.0898 1.1641 2.4375 2.2891 4.8945 3.375 7.3672 1.0898 2.4375 2.082 4.668 2.9805 6.6953 0.90234-2.0273 1.8945-4.2578 2.9844-6.6953 1.0859-2.4727 2.2109-4.9297 3.375-7.3672 1.1602-2.4766 2.3242-4.8398 3.4844-7.0898 1.1641-2.25 2.25-4.1992 3.2656-5.8477h4.7812c1.2734 12.562 2.2305 25.555 2.8672 38.98h-5.3438c-0.1875-5.25-0.41406-10.445-0.67578-15.582-0.26172-5.1758-0.59766-9.9727-1.0117-14.398-0.375 0.63672-0.88281 1.5547-1.5195 2.7539-0.59766 1.2031-1.2539 2.5703-1.9688 4.1094-0.71094 1.5-1.4805 3.1094-2.3047 4.8359-0.78906 1.6875-1.5391 3.3359-2.25 4.9492-0.71484 1.6133-1.3867 3.1133-2.0273 4.5-0.59766 1.3867-1.0859 2.5312-1.4609 3.4336zm30.793-5.8086c-1.2188-1.2188-1.2188-3.1992 0-4.418s3.1992-1.2188 4.418 0l4.6094 4.6094v-26.137c0-1.7266 1.3984-3.125 3.125-3.125 1.7266 0 3.125 1.3984 3.125 3.125v26.137l4.6094-4.6094c1.2227-1.2188 3.1992-1.2188 4.4219 0 1.2188 1.2188 1.2188 3.1992 0 4.418l-9.9453 9.9453c-1.2188 1.2188-3.1992 1.2188-4.418 0z" fill-rule="evenodd"/>
</svg>
