<?xml version="1.0" encoding="UTF-8"?>
<svg width="100pt" height="100pt" version="1.1" viewBox="0 0 100 100" xmlns="http://www.w3.org/2000/svg">
 <g>
  <path d="m70.312 92.188c0-0.86328 0.69922-1.5625 1.5625-1.5625 0.41406 0 0.8125 0.16406 1.1055 0.45703s0.45703 0.69141 0.45703 1.1055-0.16406 0.8125-0.45703 1.1055-0.69141 0.45703-1.1055 0.45703c-0.86328 0-1.5625-0.69922-1.5625-1.5625zm6.3594-0.51562c-0.26562-0.82031 0.17969-1.6992 1-1.9688 0.82031-0.26562 1.6992 0.17969 1.9688 1 0.26562 0.82031-0.17969 1.6992-1 1.9688-0.16016 0.027344-0.32422 0.027344-0.48438 0-0.64844 0.003906-1.2344-0.39453-1.4688-1zm5.875-2.4531c-0.5-0.69531-0.34766-1.6641 0.34375-2.1719 0.33594-0.24609 0.75391-0.34766 1.1641-0.28125 0.41016 0.0625 0.78125 0.28906 1.0234 0.625 0.5 0.69531 0.34766 1.6641-0.34375 2.1719-0.26953 0.19531-0.58984 0.29688-0.92188 0.29688-0.49609-0.003906-0.95703-0.24219-1.25-0.64062zm4.8281-4.1406c-0.33594-0.24219-0.5625-0.61328-0.625-1.0234-0.066406-0.41016 0.035156-0.82813 0.28125-1.1641 0.24219-0.33594 0.61328-0.5625 1.0234-0.625 0.41016-0.066406 0.82812 0.035156 1.1641 0.28125 0.33594 0.24219 0.5625 0.61328 0.625 1.0234 0.066406 0.41016-0.035156 0.82813-0.28125 1.1641-0.29688 0.40234-0.76562 0.64062-1.2656 0.64062-0.32422-0.003906-0.64062-0.10547-0.90625-0.29688zm3.3438-5.3906c-0.82031-0.26953-1.2656-1.1484-1-1.9688 0.26953-0.82031 1.1484-1.2656 1.9688-1 0.82031 0.26953 1.2656 1.1484 1 1.9688-0.21875 0.67188-0.85938 1.1133-1.5625 1.0781-0.13672-0.011719-0.27344-0.035156-0.40625-0.078125zm-40.719-7.8125c0-0.86328 0.69922-1.5625 1.5625-1.5625 0.41406 0 0.8125 0.16406 1.1055 0.45703s0.45703 0.69141 0.45703 1.1055-0.16406 0.8125-0.45703 1.1055-0.69141 0.45703-1.1055 0.45703c-0.86328 0-1.5625-0.69922-1.5625-1.5625zm40.625 0c0-0.86328 0.69922-1.5625 1.5625-1.5625 0.41406 0 0.8125 0.16406 1.1055 0.45703s0.45703 0.69141 0.45703 1.1055-0.16406 0.8125-0.45703 1.1055-0.69141 0.45703-1.1055 0.45703c-0.86328 0-1.5625-0.69922-1.5625-1.5625zm-38.562-4.6875c-0.39453-0.125-0.72656-0.40234-0.91797-0.77344-0.19141-0.37109-0.22656-0.80078-0.097656-1.1953 0.26953-0.82031 1.1484-1.2656 1.9688-1 0.39453 0.125 0.72656 0.40234 0.91797 0.77344 0.19141 0.37109 0.22656 0.80078 0.097656 1.1953-0.21875 0.67188-0.85938 1.1133-1.5625 1.0781-0.13672-0.007813-0.27344-0.035156-0.40625-0.078125zm37.625-1.1094c-0.14453-0.39062-0.12891-0.82422 0.046875-1.2031s0.49609-0.67188 0.89062-0.8125c0.81641-0.26953 1.6953 0.17188 1.9688 0.98438 0.13281 0.39453 0.10547 0.82422-0.078125 1.1953-0.1875 0.375-0.51172 0.65625-0.90625 0.78906-0.16406 0.023438-0.33594 0.023438-0.5 0-0.63672-0.015625-1.1992-0.41797-1.4219-1.0156zm-35.188-4.8438c-0.69531-0.50391-0.85547-1.4727-0.35938-2.1719 0.24219-0.33984 0.60938-0.56641 1.0195-0.63672 0.41016-0.066406 0.83203 0.035157 1.168 0.27734s0.5625 0.61328 0.625 1.0234c0.066406 0.41016-0.035156 0.82813-0.28125 1.1641-0.29688 0.40234-0.76562 0.64062-1.2656 0.64062-0.32422-0.003906-0.64062-0.10547-0.90625-0.29688zm32.5-0.4375c-0.24609-0.33594-0.34766-0.75391-0.28125-1.1641 0.0625-0.41016 0.28906-0.78125 0.625-1.0234 0.33594-0.24609 0.75391-0.34766 1.1641-0.28125 0.41016 0.0625 0.78125 0.28906 1.0234 0.625 0.24609 0.33594 0.34766 0.75391 0.28125 1.1641-0.0625 0.41016-0.28906 0.78125-0.625 1.0234-0.26953 0.19531-0.58984 0.29688-0.92188 0.29688-0.5 0-0.96875-0.23828-1.2656-0.64062zm-28.375-4.4062c-0.24609-0.33594-0.34766-0.75391-0.28125-1.1641 0.0625-0.41016 0.28906-0.78125 0.625-1.0234 0.33594-0.24609 0.75391-0.34766 1.1641-0.28125 0.41016 0.0625 0.78125 0.28906 1.0234 0.625 0.24609 0.33594 0.34766 0.75391 0.28125 1.1641-0.0625 0.41016-0.28906 0.78125-0.625 1.0234-0.26953 0.19531-0.58984 0.29688-0.92188 0.29688-0.5 0-0.96875-0.23828-1.2656-0.64062zm24.219 0.28125c-0.33984-0.24219-0.56641-0.60938-0.63672-1.0195-0.066406-0.41016 0.035157-0.83203 0.27734-1.168s0.61328-0.5625 1.0234-0.625c0.41016-0.066406 0.82813 0.035156 1.1641 0.28125 0.65625 0.49609 0.81641 1.4219 0.35938 2.1094-0.29297 0.41406-0.77344 0.66016-1.2812 0.65625-0.32812 0.023438-0.65625-0.058594-0.9375-0.23438zm-18.781-3.5469c-0.26562-0.82031 0.17969-1.6992 1-1.9688 0.82031-0.26562 1.6992 0.17969 1.9688 1 0.26562 0.82031-0.17969 1.6992-1 1.9688-0.16016 0.03125-0.32422 0.03125-0.48438 0-0.65625 0.011719-1.25-0.38672-1.4844-1zm13.547 0.96875c-0.42188-0.11719-0.77344-0.40625-0.97266-0.79297-0.19922-0.39062-0.22656-0.84375-0.074219-1.2539 0.26953-0.82031 1.1484-1.2656 1.9688-1 0.82031 0.26953 1.2656 1.1484 1 1.9688-0.21875 0.67188-0.85938 1.1133-1.5625 1.0781-0.12109-0.011719-0.24219-0.039062-0.35938-0.078125zm-7.2969-2.5312c0-0.86328 0.69922-1.5625 1.5625-1.5625 0.41406 0 0.8125 0.16406 1.1055 0.45703s0.45703 0.69141 0.45703 1.1055-0.16406 0.8125-0.45703 1.1055-0.69141 0.45703-1.1055 0.45703c-0.86328 0-1.5625-0.69922-1.5625-1.5625z"/>
  <path d="m71.984 81.375c-0.074219-0.41016 0.019531-0.82812 0.25781-1.168 0.23828-0.33984 0.59766-0.57031 1.0078-0.64453s0.82812 0.019531 1.168 0.25781c0.33984 0.23828 0.57031 0.59766 0.64453 1.0078s-0.019531 0.82812-0.25781 1.168c-0.23828 0.33984-0.59766 0.57031-1.0078 0.64453h-0.26562c-0.75391 0.007813-1.4023-0.52734-1.5469-1.2656zm-5.5469 0c-0.36328-0.20703-0.625-0.54688-0.73438-0.94922-0.10938-0.40234-0.050781-0.83203 0.15625-1.1914 0.20703-0.36328 0.54688-0.625 0.94922-0.73438s0.83203-0.050781 1.1914 0.15625c0.36328 0.20703 0.625 0.54688 0.73438 0.94922 0.10938 0.40234 0.050781 0.83203-0.15625 1.1914-0.28125 0.48438-0.80078 0.78516-1.3594 0.78125-0.27344 0-0.54297-0.066406-0.78125-0.20312zm-4.8281-5.7031c-0.30859-0.80078 0.089844-1.7031 0.89062-2.0156 0.39062-0.14453 0.82031-0.13281 1.1992 0.042969 0.37891 0.17188 0.67188 0.48828 0.81641 0.87891 0.28906 0.79297-0.10547 1.6719-0.89062 1.9844-0.17578 0.058594-0.35938 0.089844-0.54688 0.09375-0.64453 0.007812-1.2305-0.38281-1.4688-0.98438zm0.89062-5.4844c-0.80078-0.29297-1.2188-1.1797-0.9375-1.9844 0.125-0.40234 0.41016-0.73828 0.78516-0.92969 0.375-0.19141 0.81641-0.22266 1.2148-0.085938 0.39062 0.13672 0.71484 0.42578 0.89062 0.80078 0.17969 0.375 0.20312 0.80859 0.0625 1.1992-0.22266 0.61719-0.8125 1.0312-1.4688 1.0312-0.18359 0.023438-0.36719 0.011719-0.54688-0.03125zm3.2656-5.6094c-0.39453-0.73047-0.14844-1.6445 0.5625-2.0781 0.35938-0.21094 0.78516-0.26953 1.1875-0.16406 0.40234 0.10547 0.74609 0.36719 0.95312 0.72656 0.44141 0.74219 0.19531 1.6992-0.54688 2.1406-0.24219 0.14062-0.51562 0.21484-0.79688 0.21875-0.56641-0.015625-1.082-0.33984-1.3438-0.84375zm7.375-0.40625c-0.84375-0.15234-1.4062-0.95312-1.2656-1.7969 0.066406-0.41016 0.29297-0.77734 0.62891-1.0234 0.33594-0.24219 0.75781-0.33984 1.168-0.27344 0.41797 0.058594 0.79688 0.28125 1.0469 0.625 0.25391 0.33984 0.35156 0.76953 0.28125 1.1875-0.12891 0.75781-0.79297 1.3086-1.5625 1.2969h-0.26562z"/>
  <path d="m57.812 93.75c-3.1602 0-6.0078-1.9023-7.2188-4.8242-1.207-2.918-0.53906-6.2773 1.6953-8.5117 2.2344-2.2344 5.5938-2.9023 8.5117-1.6953 2.9219 1.2109 4.8242 4.0586 4.8242 7.2188 0 2.0703-0.82422 4.0586-2.2891 5.5234-1.4648 1.4648-3.4531 2.2891-5.5234 2.2891zm0-12.5c-1.8945 0-3.6055 1.1406-4.332 2.8945-0.72266 1.75-0.32422 3.7656 1.0156 5.1094 1.3438 1.3398 3.3594 1.7383 5.1094 1.0156 1.7539-0.72656 2.8945-2.4375 2.8945-4.332 0-2.5898-2.0977-4.6875-4.6875-4.6875z"/>
  <path d="m81.25 78.125c-2.5273 0-4.8086-1.5234-5.7734-3.8594-0.96875-2.3359-0.43359-5.0234 1.3555-6.8086 1.7852-1.7891 4.4727-2.3242 6.8086-1.3555 2.3359 0.96484 3.8594 3.2461 3.8594 5.7734 0 1.6562-0.66016 3.2461-1.832 4.418s-2.7617 1.832-4.418 1.832zm0-9.375c-1.2656 0-2.4023 0.76172-2.8867 1.9297-0.48438 1.168-0.21484 2.5117 0.67578 3.4062 0.89453 0.89062 2.2383 1.1602 3.4062 0.67578 1.168-0.48438 1.9297-1.6211 1.9297-2.8867 0-0.82812-0.32812-1.625-0.91406-2.2109-0.58594-0.58594-1.3828-0.91406-2.2109-0.91406z"/>
  <path d="m34.031 86.094c-3.0977-0.007812-5.9023-1.8477-7.1406-4.6875l-19.766-44.156c-0.84766-1.8906-0.91016-4.043-0.17188-5.9805s2.2188-3.5 4.1094-4.3477l33.656-15.031c0.38281-0.19922 0.82812-0.23438 1.2383-0.09375 0.40625 0.14062 0.73828 0.44141 0.91406 0.83594 0.17969 0.39063 0.18359 0.83984 0.019531 1.2383-0.16406 0.39844-0.48828 0.71094-0.89062 0.86328l-33.656 15.031c-1.1523 0.50391-2.0508 1.4531-2.4961 2.6289-0.44922 1.1719-0.40234 2.4805 0.12109 3.6211l19.719 44.172c0.50391 1.1523 1.4531 2.0508 2.6289 2.4961 1.1719 0.44922 2.4805 0.40234 3.6211-0.12109l9.875-4.4375c0.38281-0.19922 0.82812-0.23438 1.2383-0.09375 0.40625 0.14062 0.73828 0.44141 0.91406 0.83594 0.17969 0.39062 0.18359 0.83984 0.019531 1.2383-0.16406 0.39844-0.48828 0.71094-0.89062 0.86328l-9.8906 4.4219c-0.99609 0.46094-2.0781 0.69922-3.1719 0.70312z"/>
  <path d="m34.703 38.688c-0.77734 0.007812-1.4453-0.55859-1.5625-1.3281-0.26172-1.2969-0.30078-2.6289-0.10938-3.9375 0.51953-3.5625 2.6367-6.6914 5.75-8.5 0.23828-0.13281 0.50781-0.19922 0.78125-0.20312 0.73828-0.011719 1.3867 0.49609 1.5469 1.2188 0.16406 0.72266-0.20312 1.4609-0.875 1.7656-2.207 1.3164-3.7109 3.5508-4.0938 6.0938-0.007813 0.03125-0.007813 0.0625 0 0.09375-0.14062 0.98828-0.10938 1.9922 0.09375 2.9688 0.007813 0.10938 0.007813 0.21875 0 0.32812-0.03125 0.82812-0.70312 1.4844-1.5312 1.5z"/>
  <path d="m25.875 57.812c-0.61328 0-1.1719-0.36328-1.4219-0.92188l-7.0156-15.625c-0.16016-0.38672-0.16016-0.81641 0-1.2031 0.14844-0.38281 0.44141-0.69141 0.8125-0.85938l15.703-7.0156c0.69531-0.30859 1.5156-0.074219 1.9375 0.5625 0.18359 0.26562 0.28516 0.58203 0.29688 0.90625 0.007812 0.78906-0.57812 1.4609-1.3594 1.5625l-13.875 6.25 5.9375 13.281c0.375 0.15234 0.67969 0.44141 0.84375 0.8125 0.33594 0.78906-0.023437 1.7031-0.8125 2.0469l-0.39062 0.1875c-0.21484 0.046875-0.4375 0.050781-0.65625 0.015625z"/>
  <path d="m45.312 72.703c-0.22266 0-0.4375-0.050781-0.64062-0.14062l-15.797-7.0625c-3.7812-1.6992-5.5781-6.0508-4.0938-9.9219 0.023438-0.11719 0.066406-0.22656 0.125-0.32812l8.3281-18.641c-0.003906-0.042969-0.003906-0.082031 0-0.125l4.875-10.938 0.09375-0.1875 6.5-14.422c1.7617-3.9336 6.3789-5.6953 10.312-3.9375l34.234 15.297c1.8906 0.84766 3.3711 2.4102 4.1094 4.3477s0.67578 4.0898-0.17188 5.9805l-7.3594 16.484c-0.15234 0.40234-0.46484 0.72656-0.86328 0.89062-0.39844 0.16406-0.84766 0.16016-1.2383-0.019531-0.39453-0.17578-0.69531-0.50781-0.83594-0.91406-0.14062-0.41016-0.10547-0.85547 0.09375-1.2383l7.3594-16.469c0.52344-1.1406 0.57031-2.4492 0.12109-3.6211-0.44531-1.1758-1.3438-2.125-2.4961-2.6289l-34.234-15.25c-1.1328-0.50391-2.4219-0.53516-3.5781-0.09375-1.1641 0.44531-2.1016 1.332-2.6094 2.4688l-6.5312 14.625-0.09375 0.1875-4.6875 10.609c0.003906 0.042969 0.003906 0.082031 0 0.125l-8.3438 18.75c-0.003906-0.03125-0.003906-0.0625 0-0.09375-0.019531 0.09375-0.042969 0.19141-0.078125 0.28125-0.89453 2.2891 0.12891 4.8789 2.3438 5.9375l15.812 7.0625c0.67188 0.30469 1.0352 1.0391 0.87891 1.7578-0.16016 0.71875-0.79688 1.2305-1.5352 1.2266z"/>
  <path d="m56.25 51.938c-0.22266 0-0.4375-0.050781-0.64062-0.14062l-8.6719-3.875c-0.46484-0.25-0.77344-0.71875-0.81641-1.2461-0.042969-0.52734 0.17969-1.0391 0.59766-1.3633l8.1875-5.9375 0.14062-0.09375 6.8438-4.9688c0.46094-0.32031 1.0586-0.36719 1.5625-0.125 0.52734 0.26562 0.85938 0.80078 0.85938 1.3906l1.125 10.938c0.085938 0.86328-0.54297 1.6328-1.4062 1.7188s-1.6328-0.54297-1.7188-1.4062l-0.85938-8.3281-4.7812 3.4688-0.15625 0.09375-5.8594 4.25 6.25 2.7812c0.53906 0.36328 0.79688 1.0156 0.64844 1.6484-0.14453 0.62891-0.66406 1.1055-1.3047 1.1953z"/>
  <path d="m55.625 42.188c-1.6172-0.007812-3.2109-0.35547-4.6875-1.0156-3.7891-1.6875-6.4023-5.2578-6.8711-9.3789-0.46875-4.1211 1.2773-8.1836 4.5898-10.684 3.3125-2.4961 7.6992-3.0547 11.531-1.4688 3.8359 1.5859 6.543 5.0781 7.125 9.1875 0.32812 2.1875 0.019531 4.4219-0.89062 6.4375-0.54297 1.2305-1.2969 2.3516-2.2344 3.3125-0.27734 0.33594-0.67969 0.53906-1.1133 0.56641-0.43359 0.023438-0.85938-0.13281-1.1719-0.43359-0.31641-0.30078-0.48828-0.71875-0.48047-1.1523 0.003906-0.43359 0.19141-0.84766 0.51562-1.1367 0.65625-0.71875 1.1836-1.543 1.5625-2.4375 0.65625-1.4688 0.87891-3.0977 0.64062-4.6875-0.42188-3.0156-2.4102-5.582-5.2227-6.7461-2.8125-1.1641-6.0312-0.75391-8.4609 1.0781-2.4297 1.832-3.7109 4.8125-3.3633 7.8398 0.34375 3.0234 2.2656 5.6406 5.0469 6.875 1.1406 0.51953 2.3867 0.77344 3.6406 0.73438 0.86328 0 1.5625 0.69922 1.5625 1.5625s-0.69922 1.5625-1.5625 1.5625z"/>
  <path d="m62.812 37.078c-0.86328 0-1.5625-0.69922-1.5625-1.5625 0-0.63281 0.37891-1.2031 0.96484-1.4453 0.58203-0.23828 1.2539-0.10547 1.7031 0.33984 0.44531 0.44922 0.57812 1.1211 0.33984 1.7031-0.24219 0.58594-0.8125 0.96484-1.4453 0.96484z"/>
  <path d="m77.031 47.391c-0.22266 0-0.4375-0.050781-0.64062-0.14062-0.78516-0.35547-1.1328-1.2773-0.78125-2.0625l3.7812-8.4688-14.062-6.25-0.375-0.14062c-0.75391-0.38281-1.0664-1.2969-0.70312-2.0625 0.37891-0.74219 1.2695-1.0586 2.0312-0.71875l15.625 7.0156c0.37109 0.16797 0.66406 0.47656 0.8125 0.85938 0.16016 0.38672 0.16016 0.81641 0 1.2031l-4.4219 9.8906c-0.23828 0.49219-0.71875 0.82422-1.2656 0.875z"/>
 </g>
</svg>
