<?xml version="1.0" encoding="UTF-8"?>
<svg width="100pt" height="100pt" version="1.1" viewBox="0 0 100 100" xmlns="http://www.w3.org/2000/svg">
 <g>
  <path d="m18.543 69.375l-3.957-1.25 5.625-16.457c1.875-5.418 4.582-8.125 8.125-8.125 2.293 0 4.168 1.457 5.418 2.5 2.5 2.293 4.793 4.793 6.457 7.707l0.625 1.043c0.83203 1.457 1.668 2.918 2.707 3.75 0.625 0.41797 1.457 0.625 2.082 0.41797 0.41797 0 0.625-0.20703 0.625-0.41797 0.20703-0.41797 0.20703-1.043 0.41797-1.668 0.83203-6.668 2.293-13.332 4.168-19.793 0.625-1.875 1.25-3.75 2.707-5.418 1.457-1.668 4.168-2.918 6.875-1.875 2.707 1.043 3.543 3.75 4.168 5.207 2.5 6.875 4.582 14.168 6.043 21.457 0.41797 2.293 1.457 3.957 2.082 3.957 0.41797 0 1.25-0.625 1.457-0.83203 2.707-1.875 5-4.168 7.082-6.668l3.125 2.707c-2.293 2.707-5 5.207-7.918 7.293-1.043 0.83203-2.293 1.457-3.75 1.668-1.668 0-5-0.83203-6.25-7.293-1.457-7.082-3.543-13.957-5.832-20.832-0.41797-1.25-1.043-2.5-1.875-2.918-0.625-0.20703-1.668 0.20703-2.293 0.83203-0.83203 0.83203-1.25 2.293-1.668 3.75-1.875 6.25-3.125 12.707-3.957 19.168-0.20703 1.043-0.20703 2.082-0.83203 3.332-0.83203 1.25-1.875 2.082-3.543 2.293-1.875 0.41797-3.957 0-5.418-1.25-1.457-1.2422-2.4961-3.1172-3.5391-4.7852l-0.625-0.83203c-1.457-2.5-3.543-4.793-5.832-6.875-0.83203-0.625-1.875-1.457-2.918-1.457-2.082 0-3.332 3.332-4.168 5.207z"/>
  <path d="m14.375 3.125h4.168v6.25h-4.168z"/>
  <path d="m27.918 3.125h4.168v6.25h-4.168z"/>
  <path d="m41.25 3.125h4.168v6.25h-4.168z"/>
  <path d="m54.582 3.125h4.168v6.25h-4.168z"/>
  <path d="m67.918 3.125h4.168v6.25h-4.168z"/>
  <path d="m81.457 3.125h4.168v6.25h-4.168z"/>
  <path d="m14.375 90.625h4.168v6.25h-4.168z"/>
  <path d="m27.918 90.625h4.168v6.25h-4.168z"/>
  <path d="m41.25 90.625h4.168v6.25h-4.168z"/>
  <path d="m54.582 90.625h4.168v6.25h-4.168z"/>
  <path d="m67.918 90.625h4.168v6.25h-4.168z"/>
  <path d="m81.457 90.625h4.168v6.25h-4.168z"/>
  <path d="m90.625 81.457h6.25v4.168h-6.25z"/>
  <path d="m90.625 67.918h6.25v4.168h-6.25z"/>
  <path d="m90.625 54.582h6.25v4.168h-6.25z"/>
  <path d="m90.625 41.25h6.25v4.168h-6.25z"/>
  <path d="m90.625 27.918h6.25v4.168h-6.25z"/>
  <path d="m90.625 14.375h6.25v4.168h-6.25z"/>
  <path d="m3.125 81.457h6.25v4.168h-6.25z"/>
  <path d="m3.125 67.918h6.25v4.168h-6.25z"/>
  <path d="m3.125 54.582h6.25v4.168h-6.25z"/>
  <path d="m3.125 41.25h6.25v4.168h-6.25z"/>
  <path d="m3.125 27.918h6.25v4.168h-6.25z"/>
  <path d="m3.125 14.375h6.25v4.168h-6.25z"/>
 </g>
</svg>
