<?xml version="1.0" encoding="UTF-8"?>
<svg width="100pt" height="100pt" version="1.1" viewBox="0 0 100 100" xmlns="http://www.w3.org/2000/svg">
 <g>
  <path d="m40.363 42.398c0.60938 0.19141 1.2461 0.28906 1.8867 0.28906 3.2695 0 5.9883-2.5195 6.2383-5.7812s-2.0547-6.168-5.2891-6.6641c-3.2305-0.5-6.3047 1.5781-7.0469 4.7617-0.74219 3.1875 1.0898 6.4062 4.2109 7.3945zm0.43359-8.7344c1.1211-0.58594 2.4844-0.43359 3.4492 0.375 0.96875 0.8125 1.3516 2.1289 0.97266 3.3359-0.37891 1.2031-1.4453 2.0625-2.7031 2.1719-1.2617 0.11328-2.4609-0.54688-3.0469-1.6641-0.38672-0.73437-0.46484-1.5938-0.21484-2.3867 0.25-0.79297 0.80469-1.4531 1.543-1.832z"/>
  <path d="m67.188 29.688c2.8047-0.003906 5.2617-1.8711 6.0156-4.5703 0.75391-2.7031-0.38672-5.5742-2.7852-7.0273-2.3945-1.4492-5.4688-1.1289-7.5117 0.78906-2.0469 1.918-2.5625 4.9648-1.2656 7.4492 1.0742 2.0703 3.2148 3.3672 5.5469 3.3594zm-2.9844-7.1875c0.44922-1.4219 1.8359-2.3281 3.3203-2.168 1.4805 0.16016 2.6445 1.3477 2.7734 2.832 0.12891 1.4844-0.80469 2.8555-2.2383 3.2734-1.4297 0.41797-2.957-0.23438-3.6445-1.5547-0.38672-0.73437-0.46094-1.5938-0.21094-2.3828z"/>
  <path d="m77.133 11.387c0.66406 0.54688 1.6484 0.45312 2.1992-0.21484 0.54688-0.66406 0.45312-1.6484-0.21484-2.1992-2-1.6484-4.3203-2.8633-6.8164-3.5703-0.39844-0.11328-0.82812-0.066406-1.1914 0.13672-0.36328 0.19922-0.63281 0.53906-0.74609 0.9375-0.11328 0.40234-0.0625 0.82813 0.14062 1.1914s0.54297 0.62891 0.94531 0.74219c2.0781 0.58594 4.0156 1.6016 5.6836 2.9766z"/>
  <path d="m74.402 37.297c-0.76562 0.39844-1.0625 1.3438-0.66406 2.1094 0.39844 0.76562 1.3438 1.0625 2.1094 0.66406 4.4062-2.3008 7.7188-6.2578 9.2148-11 1.4922-4.7383 1.043-9.8789-1.2461-14.293-0.1875-0.37891-0.51562-0.66406-0.91797-0.79688-0.39844-0.13281-0.83594-0.097657-1.207 0.097656-0.375 0.19531-0.65625 0.53125-0.77734 0.9375-0.12109 0.40234-0.074218 0.83594 0.13281 1.207 1.9062 3.6758 2.2812 7.9609 1.0352 11.91-1.2461 3.9531-4.0078 7.2461-7.6797 9.1641z"/>
  <path d="m33.613 71.184c-3.2773-0.99219-6.7461 0.83984-7.7734 4.1055-1.0273 3.2695 0.76562 6.7539 4.0234 7.8164 0.60938 0.19141 1.2461 0.28906 1.8828 0.29297 3.0898 0 5.7148-2.25 6.1836-5.3047 0.46875-3.0508-1.3594-5.9883-4.3086-6.9102zm1.1016 6.8984c-0.44531 1.4219-1.8359 2.332-3.3203 2.168-1.4805-0.16016-2.6406-1.3477-2.7734-2.832-0.12891-1.4844 0.80859-2.8555 2.2383-3.2734s2.957 0.23438 3.6484 1.5547c0.38281 0.73438 0.46094 1.5938 0.20703 2.3828z"/>
  <path d="m22.281 89.59c-0.33203-0.25781-0.75-0.37109-1.1641-0.31641-0.41406 0.050781-0.78906 0.26953-1.043 0.60156-0.25391 0.33594-0.35938 0.75391-0.30078 1.168 0.058593 0.41406 0.28125 0.78516 0.61719 1.0352 1.5508 1.1758 3.2773 2.1016 5.1133 2.75 0.39062 0.14453 0.82422 0.125 1.2031-0.050781 0.37891-0.17969 0.67188-0.5 0.80859-0.89453 0.14062-0.39453 0.11719-0.82812-0.066406-1.207-0.18359-0.375-0.51172-0.66016-0.90625-0.79297-1.5312-0.53906-2.9688-1.3125-4.2617-2.293z"/>
  <path d="m23.074 60.516c-4.4102 2.2969-7.7305 6.2539-9.2227 10.996-1.4961 4.7422-1.043 9.8828 1.2539 14.293 0.18359 0.37891 0.51562 0.66797 0.91406 0.80078 0.40234 0.12891 0.83594 0.09375 1.2109-0.097657 0.375-0.19531 0.65234-0.53516 0.77344-0.9375 0.12109-0.40234 0.074219-0.83984-0.12891-1.207-1.9141-3.6758-2.293-7.9648-1.0469-11.918 1.2461-3.9531 4.0117-7.25 7.6875-9.1641 0.73438-0.41406 1.0078-1.3359 0.61719-2.082-0.38672-0.74609-1.3008-1.0508-2.0586-0.6875z"/>
  <path d="m54.801 70.109c1.9922 0.62891 4.1641 0.22266 5.793-1.0859 1.625-1.3047 2.4961-3.3398 2.3125-5.418-0.18359-2.082-1.3906-3.9336-3.2227-4.9375-1.832-1-4.043-1.0234-5.8945-0.058594-2.2383 1.168-3.5586 3.5703-3.3359 6.0859 0.22266 2.5195 1.9375 4.6562 4.3477 5.4141zm-1.1016-6.8984c0.40625-1.3008 1.6133-2.1836 2.9766-2.1875 0.31641 0 0.63281 0.050781 0.9375 0.14453 0.99609 0.3125 1.7695 1.1016 2.0625 2.1055 0.29297 1 0.070313 2.082-0.60156 2.8828s-1.6953 1.2148-2.7344 1.1016c-1.0391-0.11328-1.9531-0.73828-2.4336-1.6641-0.38281-0.73438-0.46094-1.5938-0.20703-2.3828z"/>
  <path d="m38.297 63.156c-2.2383 0.95703-4.6406 1.4648-7.0781 1.4961-2.5781 0.10938-5.0625 1.0117-7.1133 2.582-4.0859 3.1172-5.832 8.4297-4.3945 13.363 1.0391 3.6094 3.6406 6.5586 7.0898 8.0391 3.4492 1.4766 7.3828 1.3281 10.707-0.40625 1.6523-0.85547 3.0938-2.0703 4.2109-3.5547 1.4023-1.9648 3.1875-3.6289 5.2422-4.8906 1.0273-0.60156 2.082-1.1523 3.1641-1.6484 2.2109-0.96094 4.5977-1.4688 7.0117-1.4922 5.7266-0.21484 10.578-4.2969 11.77-9.9023 0.77734-3.6914-0.14062-7.5312-2.5-10.469-0.92578-1.1484-2.0508-2.1172-3.3242-2.8633-0.48828-0.5625-1.0273-1.0742-1.6211-1.5273-1.6719-1.1992-3.0898-2.7188-4.1797-4.4648-0.50781-0.86719-0.97656-1.7734-1.3984-2.6875v0.003906c-0.51953-1.1758-0.87109-2.418-1.043-3.6953 0.80078-0.75 1.6836-1.4102 2.6289-1.9688 1.0156-0.59766 2.0781-1.1484 3.1602-1.6484 2.2148-0.95703 4.5977-1.4609 7.0078-1.4844 5.7305-0.21094 10.586-4.293 11.777-9.9062 0.77734-3.6875-0.14062-7.5273-2.5-10.469-3.2188-4.0078-8.5742-5.625-13.473-4.0625-2.4609 0.78125-4.625 2.3008-6.1914 4.3516-1.418 1.9766-3.2148 3.6562-5.2812 4.9414-1.0273 0.60156-2.0781 1.1484-3.1562 1.6445-2.2422 0.95703-4.6445 1.4648-7.0781 1.4961-2.582 0.10938-5.0664 1.0117-7.1133 2.582-4.0898 3.1172-5.8359 8.4297-4.3945 13.363 0.9375 3.2109 3.1172 5.9141 6.0508 7.5195l0.82812 0.53125c1.6562 1.1914 3.0586 2.6992 4.1328 4.4297 0.51562 0.87109 0.98438 1.7695 1.4062 2.6875 0.65234 1.4922 1.0508 3.0898 1.168 4.7148-0.72266 0.65625-1.5078 1.2383-2.3438 1.7422-1.0312 0.60547-2.0938 1.1523-3.1719 1.6523zm-5.082-24.156c-0.78906-2.7656-0.26172-5.7344 1.4219-8.0625 1.6836-2.3281 4.3438-3.7539 7.2148-3.8711 2.8438-0.046875 5.6484-0.64844 8.2578-1.7812 1.168-0.53516 2.3203-1.1367 3.4375-1.7852 2.418-1.4883 4.5234-3.4414 6.1875-5.7461 2.6562-3.4922 7.3789-4.6719 11.367-2.8398 3.9883 1.8281 6.1719 6.1797 5.2617 10.469-0.89062 4.2109-4.5352 7.2734-8.8359 7.4297-2.8281 0.039062-5.6172 0.64062-8.207 1.7773-1.1758 0.53906-2.3242 1.1367-3.4375 1.7891-1.4062 0.84375-2.6953 1.8672-3.8359 3.043-0.039063 0.03125-0.074219 0.070313-0.10938 0.10938-0.79297 0.80078-1.5352 1.6562-2.2148 2.5547-2.5938 3.4336-7.1914 4.6602-11.148 2.9766-2.6055-1.1133-4.5742-3.3398-5.3594-6.0625zm9.3828 9.918c3.793-0.097657 7.3359-1.9219 9.6211-4.9492 0.015625-0.019531 0.03125-0.035156 0.042969-0.054688 0.20703 0.72656 0.46875 1.4414 0.78125 2.1289 0.46875 1.0078 0.98438 2.0039 1.543 2.9609 0.5625 0.94531 1.2188 1.8281 1.9648 2.6328-1.2266 0.011719-2.4453 0.20703-3.6133 0.58203-2.4648 0.77734-4.6289 2.293-6.1992 4.3438-0.074219 0.10156-0.15625 0.17969-0.22656 0.27734h-0.003907c-0.23828-1.0625-0.58594-2.0977-1.0391-3.0898-0.46875-1.0312-0.99609-2.0312-1.5469-2.9688-0.39453-0.65234-0.83594-1.2773-1.3242-1.8633zm6.625 9.5469v-0.003906c2.6602-3.4883 7.3828-4.668 11.371-2.8398 3.9844 1.832 6.1719 6.1797 5.2578 10.473-0.89453 4.207-4.5312 7.2695-8.832 7.4297-2.8242 0.039062-5.6172 0.64062-8.2031 1.7773-1.1758 0.53906-2.3242 1.1367-3.4375 1.7891-2.4141 1.4727-4.5078 3.4102-6.1602 5.707-2.5938 3.4297-7.1875 4.6602-11.148 2.9844-4.0391-1.7109-6.3516-5.9961-5.5625-10.312 0.78516-4.3164 4.4609-7.5078 8.8438-7.6875 2.8438-0.042969 5.6484-0.64844 8.2578-1.7773 1.1719-0.53906 2.3242-1.1406 3.4375-1.7891 2.4141-1.4922 4.5117-3.4492 6.1719-5.7539z"/>
 </g>
</svg>
