<?xml version="1.0" encoding="UTF-8"?>
<svg width="100pt" height="100pt" version="1.1" viewBox="0 0 100 100" xmlns="http://www.w3.org/2000/svg">
 <g>
  <path d="m43.75 48.438c0 4.168-6.25 4.168-6.25 0s6.25-4.168 6.25 0"/>
  <path d="m62.5 48.438c0 4.168-6.25 4.168-6.25 0s6.25-4.168 6.25 0"/>
  <path d="m61.395 59.832c-2.6875 2.6875-6.8398 4.2305-11.395 4.2305s-8.707-1.543-11.395-4.2305c-0.60938-0.60938-1.5977-0.60938-2.2109 0-0.60938 0.60938-0.60938 1.5977 0 2.2109 3.2695 3.2695 8.2266 5.1445 13.605 5.1445s10.336-1.875 13.605-5.1445c0.60938-0.60938 0.60938-1.5977 0-2.2109-0.60938-0.60938-1.6016-0.60938-2.2109 0z"/>
  <path d="m68.75 20.312h-3.125v-6.875c0-1.3789-1.1641-2.5-2.6055-2.5h-26.043c-1.4375 0-2.6016 1.1211-2.6016 2.5v6.875h-3.125c-8.6289 0-15.625 6.9961-15.625 15.625v31.25c0 8.6289 6.9961 15.625 15.625 15.625v6.25h37.5v-6.25c8.6289 0 15.625-6.9961 15.625-15.625v-31.25c0-8.6289-6.9961-15.625-15.625-15.625zm-31.25-6.25h25v6.25h-25zm28.125 71.875h-31.25v-3.125h31.25zm15.625-18.75c0 6.8945-5.6055 12.5-12.5 12.5h-37.5c-6.8945 0-12.5-5.6055-12.5-12.5v-31.25c0-6.8945 5.6055-12.5 12.5-12.5h37.5c6.8945 0 12.5 5.6055 12.5 12.5z"/>
 </g>
</svg>
