<?xml version="1.0" encoding="UTF-8"?>
<svg width="100pt" height="100pt" version="1.1" viewBox="0 0 100 100" xmlns="http://www.w3.org/2000/svg">
 <g>
  <path d="m13.672 24.258h8.207c0.64844 0 1.1719 0.52344 1.1719 1.1719v47.973h36.941c0.64844 0 1.1719 0.52344 1.1719 1.1719v8.207c0 0.64844-0.52344 1.1719-1.1719 1.1719h-46.32c-0.64844 0-1.1719-0.52344-1.1719-1.1719v-57.352c0-0.64844 0.52344-1.1719 1.1719-1.1719zm7.0352 2.3438h-5.8633v55.008h43.977v-5.8633h-36.941c-0.64844 0-1.1719-0.52344-1.1719-1.1719z"/>
  <path d="m21.879 16.047h46.32c0.64844 0 1.1719 0.52344 1.1719 1.1719v57.352c0 0.64844-0.52344 1.1719-1.1719 1.1719h-46.32c-0.64844 0-1.1719-0.52344-1.1719-1.1719v-57.352c0-0.64844 0.52344-1.1719 1.1719-1.1719zm45.148 2.3438h-43.977v55.008h43.977z"/>
  <path d="m78.121 27.887h4.3008c0.96484 0 1.8438 0.39453 2.4766 1.0273 0.63672 0.63672 1.0273 1.5117 1.0273 2.4766v2.9727c0 0.64844-0.52344 1.1719-1.1719 1.1719h-8.9727c-0.64844 0-1.1719-0.52344-1.1719-1.1719v-2.9727c0-0.96484 0.39453-1.8438 1.0273-2.4766 0.63672-0.63672 1.5117-1.0273 2.4766-1.0273zm4.3008 2.3438h-4.3008c-0.32031 0-0.60938 0.13281-0.82031 0.34375-0.21094 0.21094-0.34375 0.5-0.34375 0.82031v1.8008h6.6289v-1.8008c0-0.32031-0.13281-0.60938-0.34375-0.82031-0.21094-0.21094-0.5-0.34375-0.82031-0.34375z"/>
  <path d="m74.316 39.746c-0.64844 0-1.1719 0.52344-1.1719 1.1719 0 0.64844 0.52344 1.1719 1.1719 1.1719h12.012c0.64844 0 1.1719-0.52344 1.1719-1.1719 0-0.64844-0.52344-1.1719-1.1719-1.1719z"/>
  <path d="m74.316 46.285c-0.64844 0-1.1719 0.52344-1.1719 1.1719 0 0.64844 0.52344 1.1719 1.1719 1.1719h12.012c0.64844 0 1.1719-0.52344 1.1719-1.1719 0-0.64844-0.52344-1.1719-1.1719-1.1719z"/>
  <path d="m74.266 33.195h12.012c0.64844 0 1.1719 0.52344 1.1719 1.1719v37.691c0 0.24219-0.074219 0.46875-0.19922 0.65234l-5.7695 9.582c-0.33203 0.55469-1.0547 0.73438-1.6094 0.39844-0.18359-0.10938-0.32422-0.26172-0.42188-0.43359l-6.1719-9.5664h-0.003906c-0.12891-0.19922-0.1875-0.42188-0.1875-0.64453v-37.684c0-0.64844 0.52344-1.1719 1.1719-1.1719zm10.84 2.3438h-9.668v36.184l5.0039 7.7617 4.6602-7.7422v-36.199z"/>
  <path d="m74.266 70.891c-0.64844 0-1.1719 0.52344-1.1719 1.1719s0.52344 1.1719 1.1719 1.1719h12.012c0.64844 0 1.1719-0.52344 1.1719-1.1719s-0.52344-1.1719-1.1719-1.1719z"/>
  <path d="m28.918 25.594c-0.64844 0-1.1719 0.52344-1.1719 1.1719s0.52344 1.1719 1.1719 1.1719h32.246c0.64844 0 1.1719-0.52344 1.1719-1.1719s-0.52344-1.1719-1.1719-1.1719z"/>
  <path d="m28.918 33.246c-0.64844 0-1.1719 0.52344-1.1719 1.1719 0 0.64844 0.52344 1.1719 1.1719 1.1719h32.246c0.64844 0 1.1719-0.52344 1.1719-1.1719 0-0.64844-0.52344-1.1719-1.1719-1.1719z"/>
  <path d="m28.918 40.898c-0.64844 0-1.1719 0.52344-1.1719 1.1719 0 0.64844 0.52344 1.1719 1.1719 1.1719h32.246c0.64844 0 1.1719-0.52344 1.1719-1.1719 0-0.64844-0.52344-1.1719-1.1719-1.1719z"/>
  <path d="m28.918 56.203c-0.64844 0-1.1719 0.52344-1.1719 1.1719s0.52344 1.1719 1.1719 1.1719h32.246c0.64844 0 1.1719-0.52344 1.1719-1.1719s-0.52344-1.1719-1.1719-1.1719z"/>
  <path d="m28.918 63.855c-0.64844 0-1.1719 0.52344-1.1719 1.1719 0 0.64844 0.52344 1.1719 1.1719 1.1719h32.246c0.64844 0 1.1719-0.52344 1.1719-1.1719 0-0.64844-0.52344-1.1719-1.1719-1.1719z"/>
  <path d="m31.02 48.551c-0.64844 0-1.1719 0.52344-1.1719 1.1719 0 0.64844 0.52344 1.1719 1.1719 1.1719h10.734c0.64844 0 1.1719-0.52344 1.1719-1.1719 0-0.64844-0.52344-1.1719-1.1719-1.1719z"/>
  <path d="m48.324 48.551c-0.64844 0-1.1719 0.52344-1.1719 1.1719 0 0.64844 0.52344 1.1719 1.1719 1.1719h10.734c0.64844 0 1.1719-0.52344 1.1719-1.1719 0-0.64844-0.52344-1.1719-1.1719-1.1719z"/>
 </g>
</svg>
