<?xml version="1.0" encoding="UTF-8"?>
<svg width="100pt" height="100pt" version="1.1" viewBox="0 0 100 100" xmlns="http://www.w3.org/2000/svg">
 <g>
  <path d="m75.918 68.797c-0.38672 0-0.74219-0.15625-1.0156-0.42969-0.26953-0.25781-0.41406-0.62891-0.41406-1 0-0.18359 0.027344-0.37109 0.10156-0.55859 0.070312-0.17188 0.18359-0.32812 0.3125-0.45703 0.39844-0.39844 1.0273-0.51562 1.5586-0.31641 0.17187 0.074219 0.32812 0.18359 0.47266 0.31641 0.12891 0.12891 0.23047 0.28516 0.30078 0.45703 0.070313 0.18359 0.11328 0.37109 0.11328 0.55859 0 0.38672-0.15625 0.74219-0.41406 1-0.14062 0.14453-0.30078 0.24219-0.47266 0.31641-0.17188 0.070312-0.35938 0.11328-0.54297 0.11328z"/>
  <path d="m66.316 68.797c-0.38672 0-0.74219-0.15625-1.0156-0.42969-0.26953-0.25781-0.41406-0.62891-0.41406-1 0-0.18359 0.027343-0.37109 0.10156-0.55859 0.070313-0.17188 0.18359-0.32812 0.31641-0.45703 0.52734-0.52734 1.4844-0.52734 2.0156 0 0.14453 0.12891 0.24219 0.28516 0.31641 0.45703 0.070312 0.18359 0.11328 0.37109 0.11328 0.55859 0 0.38672-0.15625 0.74219-0.42969 1-0.12891 0.14453-0.28516 0.24219-0.45703 0.31641-0.17578 0.070312-0.35938 0.11328-0.54688 0.11328z"/>
  <path d="m56.715 68.797c-0.19922 0-0.38672-0.042969-0.55469-0.11328-0.17188-0.070313-0.32812-0.17188-0.45703-0.31641-0.26953-0.25781-0.41406-0.61328-0.41406-1 0-0.18359 0.027344-0.37109 0.10156-0.55859 0.070313-0.17188 0.18359-0.32812 0.3125-0.45703 0.52734-0.52734 1.4844-0.52734 2.0156 0 0.12891 0.12891 0.24219 0.28516 0.3125 0.45703 0.070312 0.18359 0.11328 0.37109 0.11328 0.55859 0 0.37109-0.15625 0.74219-0.42969 1-0.12891 0.14453-0.28516 0.24219-0.45703 0.31641-0.16797 0.070312-0.35547 0.11328-0.54297 0.11328z"/>
  <path d="m36.781 84.285c-0.78906 0-1.4297-0.64062-1.4297-1.4297v-6.9766c0-0.78906 0.64063-1.4297 1.4297-1.4297s1.4297 0.64062 1.4297 1.4297v6.9766c0 0.79297-0.64063 1.4297-1.4297 1.4297z"/>
  <path d="m73.438 84.285c-0.78906 0-1.4297-0.64062-1.4297-1.4297v-6.9766c0-0.78906 0.64063-1.4297 1.4297-1.4297s1.4297 0.64062 1.4297 1.4297v6.9766c0 0.79297-0.64063 1.4297-1.4297 1.4297z"/>
  <path d="m78.484 43.188-34.051-0.11328c-0.78906-0.003907-1.4258-0.64453-1.4219-1.4336 0.003906-0.78906 0.64062-1.4258 1.4297-1.4258h0.003906l34.047 0.11328c0.94141 0 1.7109-0.76953 1.7109-1.7148v-10.629c0-0.94531-0.76953-1.7148-1.7148-1.7148l-31.469-0.074219c-0.78906 0-1.4258-0.64453-1.4258-1.4297 0.003906-0.78906 0.64062-1.4258 1.4297-1.4258h0.003906l31.469 0.074218c2.5156 0 4.5664 2.0508 4.5664 4.5703v10.629c-0.007812 2.5234-2.0586 4.5742-4.5781 4.5742z"/>
  <path d="m75.918 34.723c-0.19922 0-0.37109-0.027344-0.55469-0.097656-0.17188-0.074219-0.32812-0.17188-0.45703-0.31641-0.26953-0.26953-0.41406-0.62891-0.41406-1.0156 0-0.37109 0.14453-0.74219 0.41406-1 0.52734-0.54297 1.4844-0.54297 2.0156 0 0.26953 0.25781 0.42969 0.62891 0.42969 1 0 0.19922-0.042968 0.38672-0.11328 0.55859-0.070312 0.17188-0.17188 0.32813-0.31641 0.45703-0.12891 0.12891-0.28516 0.24219-0.45703 0.31641-0.17578 0.070312-0.36328 0.097656-0.54688 0.097656z"/>
  <path d="m66.316 34.723c-0.19922 0-0.38672-0.027344-0.55859-0.097656-0.17187-0.074219-0.32812-0.1875-0.45703-0.31641-0.12891-0.12891-0.24219-0.28516-0.31641-0.45703-0.070313-0.17187-0.10156-0.35547-0.10156-0.55859 0-0.37109 0.14453-0.74219 0.41406-1 0.52734-0.54297 1.4844-0.54297 2.0156 0 0.27344 0.25781 0.42969 0.62891 0.42969 1 0 0.38672-0.15625 0.74219-0.42969 1.0156-0.12891 0.14453-0.28516 0.24219-0.45703 0.31641-0.16797 0.070312-0.35156 0.097656-0.53906 0.097656z"/>
  <path d="m56.715 34.723c-0.19922 0-0.38672-0.027344-0.55469-0.097656-0.17188-0.074219-0.32812-0.17188-0.45703-0.31641-0.26953-0.26953-0.42969-0.62891-0.42969-1.0156 0-0.37109 0.15625-0.74219 0.42969-1 0.52734-0.54297 1.4844-0.54297 2.0156 0 0.26953 0.25781 0.42969 0.62891 0.42969 1 0 0.38672-0.15625 0.74219-0.42969 1.0156-0.27344 0.27344-0.62891 0.41406-1.0039 0.41406z"/>
  <path d="m75.918 51.77c-0.18359 0-0.37109-0.042969-0.55469-0.11328-0.17188-0.074219-0.32812-0.17188-0.45703-0.31641-0.12891-0.12891-0.24219-0.28516-0.3125-0.45703-0.070312-0.17187-0.10156-0.35547-0.10156-0.54297 0-0.38672 0.14453-0.74219 0.41406-1.0156 0.12891-0.12891 0.28516-0.24219 0.45703-0.31641 0.26953-0.097656 0.55469-0.14062 0.82812-0.070312 0.10156 0.015625 0.1875 0.042969 0.27344 0.070312 0.085937 0.042969 0.17188 0.085938 0.24219 0.12891 0.085938 0.058593 0.15625 0.11328 0.22656 0.1875 0.25781 0.25781 0.41406 0.62891 0.41406 1.0156 0 0.37109-0.15625 0.72656-0.41406 1-0.28906 0.26953-0.64453 0.42969-1.0156 0.42969z"/>
  <path d="m66.316 51.77c-0.19922 0-0.37109-0.042969-0.55859-0.11328-0.17187-0.074219-0.32812-0.17188-0.45703-0.31641-0.12891-0.12891-0.24219-0.28516-0.31641-0.45703-0.070313-0.17187-0.10156-0.35547-0.10156-0.54297 0-0.38672 0.14453-0.74219 0.41406-1.0156 0.12891-0.12891 0.28516-0.24219 0.45703-0.31641 0.26953-0.097656 0.55859-0.14062 0.82812-0.070312 0.10156 0.015625 0.18359 0.042969 0.26953 0.070312 0.085938 0.042969 0.17188 0.085938 0.24219 0.12891 0.085938 0.058593 0.15625 0.11328 0.21484 0.1875 0.27344 0.26953 0.42969 0.62891 0.42969 1.0156 0 0.18359-0.042969 0.37109-0.11328 0.54297-0.070312 0.17188-0.17188 0.32813-0.31641 0.45703-0.12891 0.14453-0.28516 0.24219-0.45703 0.31641-0.16406 0.066406-0.34766 0.11328-0.53516 0.11328z"/>
  <path d="m56.715 51.77c-0.19922 0-0.38672-0.042969-0.55469-0.11328-0.17188-0.074219-0.32812-0.17188-0.45703-0.31641-0.14453-0.12891-0.24219-0.28516-0.3125-0.45703-0.070313-0.17187-0.11328-0.35547-0.11328-0.54297 0-0.38672 0.15625-0.74219 0.42969-1.0156 0.12891-0.12891 0.28516-0.24219 0.45703-0.31641 0.26953-0.097656 0.55469-0.14062 0.82813-0.070312 0.085937 0.015625 0.1875 0.042969 0.26953 0.070312 0.085937 0.042969 0.17188 0.085938 0.24219 0.12891 0.085938 0.058593 0.15625 0.11328 0.21484 0.1875 0.26953 0.26953 0.42969 0.62891 0.42969 1.0156 0 0.18359-0.042969 0.37109-0.11328 0.54297-0.070312 0.17188-0.17188 0.32813-0.3125 0.45703-0.27734 0.26953-0.63281 0.42969-1.0078 0.42969z"/>
  <path d="m66.316 51.77c-0.19922 0-0.37109-0.042969-0.55859-0.11328-0.17187-0.074219-0.32812-0.17188-0.45703-0.31641-0.12891-0.12891-0.24219-0.28516-0.31641-0.45703-0.070313-0.17187-0.10156-0.35547-0.10156-0.54297 0-0.38672 0.14453-0.74219 0.41406-1.0156 0.12891-0.12891 0.28516-0.24219 0.45703-0.31641 0.26953-0.097656 0.55859-0.14062 0.82812-0.070312 0.10156 0.015625 0.18359 0.042969 0.26953 0.070312 0.085938 0.042969 0.17188 0.085938 0.24219 0.12891 0.085938 0.058593 0.15625 0.11328 0.21484 0.1875 0.27344 0.26953 0.42969 0.62891 0.42969 1.0156 0 0.18359-0.042969 0.37109-0.11328 0.54297-0.070312 0.17188-0.17188 0.32813-0.31641 0.45703-0.12891 0.14453-0.28516 0.24219-0.45703 0.31641-0.16406 0.066406-0.34766 0.11328-0.53516 0.11328z"/>
  <path d="m78.598 60.219h-46.289c-2.5195 0-4.5742-2.0508-4.5742-4.5703v-9.3789c0-0.78906 0.64062-1.4297 1.4297-1.4297 0.78906 0 1.4297 0.64062 1.4297 1.4297v9.3789c0 0.94531 0.76953 1.7148 1.7148 1.7148h46.293c0.94531 0 1.7148-0.76953 1.7148-1.7148v-10.629c0-0.94531-0.76953-1.7148-1.7148-1.7148-0.78906 0-1.4297-0.64063-1.4297-1.4297s0.64062-1.4297 1.4297-1.4297c2.5195 0 4.5703 2.0508 4.5703 4.5703v10.629c0 2.5234-2.0508 4.5742-4.5742 4.5742z"/>
  <path d="m31.965 77.25c-2.5195 0-4.5703-2.0508-4.5703-4.5703v-10.629c0-2.5195 2.0508-4.5703 4.5703-4.5703 0.78906 0 1.4297 0.64062 1.4297 1.4297 0 0.78906-0.64062 1.4297-1.4297 1.4297-0.94531 0-1.7148 0.76953-1.7148 1.7148v10.629c0 0.94531 0.76953 1.7148 1.7148 1.7148 0.78906 0 1.4297 0.64062 1.4297 1.4297-0.003906 0.78516-0.64062 1.4219-1.4297 1.4219z"/>
  <path d="m78.254 77.25h-46.289c-2.5195 0-4.5703-2.0508-4.5703-4.5703v-10.629c0-0.78906 0.64062-1.4297 1.4297-1.4297 0.78906 0 1.4297 0.64062 1.4297 1.4297v10.629c0 0.94531 0.76953 1.7148 1.7148 1.7148h46.293c0.94531 0 1.7148-0.76953 1.7148-1.7148v-10.629c0-0.94531-0.76953-1.7148-1.7148-1.7148-0.78906 0-1.4297-0.64063-1.4297-1.4297s0.64062-1.4297 1.4297-1.4297c2.5195 0 4.5742 2.0508 4.5742 4.5703v10.629c-0.007813 2.5234-2.0586 4.5742-4.582 4.5742z"/>
  <path d="m30.371 38.387c-0.36719 0-0.73047-0.14062-1.0117-0.41797l-5.1328-5.1328c-0.55859-0.55859-0.55859-1.4609 0-2.0195 0.55859-0.55859 1.4609-0.55859 2.0195 0l4.1406 4.1406 9.4648-9.0898c0.57031-0.54688 1.4727-0.53125 2.0195 0.039062 0.54688 0.56641 0.52734 1.4727-0.039063 2.0195l-10.477 10.062c-0.27344 0.26562-0.62891 0.39844-0.98438 0.39844z"/>
  <path d="m32.641 48.141c-4.043 0-7.8789-1.5703-10.844-4.4531-3.1562-3.0703-4.9688-7.3555-4.9688-11.766 0-8.9336 7.2734-16.207 16.211-16.207 7.6055 0 14.105 5.1719 15.801 12.574 0.29297 1.2812 0.42578 2.4766 0.41016 3.6562-0.12891 8.6797-7.3828 15.941-16.168 16.191-0.14844 0.003906-0.29688 0.003906-0.44141 0.003906zm0.39844-29.57c-7.3633 0-13.355 5.9922-13.355 13.355 0 3.6406 1.4961 7.1836 4.1016 9.7148 2.5117 2.4414 5.8008 3.7539 9.2109 3.6367 7.2773-0.20703 13.289-6.207 13.395-13.375 0.015625-0.94922-0.09375-1.9219-0.33594-2.9766-1.3945-6.0938-6.7461-10.355-13.016-10.355z"/>
 </g>
</svg>
