<?xml version="1.0" encoding="UTF-8"?>
<svg width="100pt" height="100pt" version="1.1" viewBox="0 0 100 100" xmlns="http://www.w3.org/2000/svg">
 <g>
  <path d="m84 5h-68c-6.1016 0-11 4.6016-11 10.301v51.699c0 5.6992 4.8984 10.301 11 10.301h7.1992v15.301c0 0.89844 0.60156 1.8008 1.5 2.1992 0.39844 0.19922 0.69922 0.19922 1.1016 0.19922 0.60156 0 1.1992-0.19922 1.6992-0.5l22.699-17.199h33.801c6.1016 0 11-4.6016 11-10.301v-51.699c0-5.6992-4.8984-10.301-11-10.301zm5.8984 61.898c0 3-2.6016 5.3984-5.8008 5.3984l-34.898 0.003906c-0.60156 0-1.1992 0.19922-1.6992 0.5l-19.102 14.5v-12.602c0-1.3008-1.1992-2.3984-2.6016-2.3984h-9.8008c-3.1992 0-5.8008-2.3984-5.8008-5.3984l0.003907-51.402c0-3 2.6016-5.3984 5.8008-5.3984h68.199c3.1992 0 5.8008 2.3984 5.8008 5.3984v51.398z"/>
  <path d="m38.199 49.301l-5.3008-23h-8.8984v29.199h5.6992v-19.801-2.3984-2.3984l5.5 24.5h5.8984l5.5039-24.402v2.3984 2.3984 19.699h5.6992v-29.195h-8.8008z"/>
  <path d="m64 26.301h-6.1016v29.199h20.602v-5.3008h-14.5z"/>
 </g>
</svg>
