<?xml version="1.0" encoding="UTF-8"?>
<svg width="100pt" height="100pt" version="1.1" viewBox="0 0 100 100" xmlns="http://www.w3.org/2000/svg">
 <g>
  <path d="m43.148 33.531c0.62109 0.3125 1.3086 0.47266 2 0.46875 0.66016-0.007812 1.3086-0.16016 1.9023-0.44922l37.719 37.77c1.5586 1.543 4.0703 1.543 5.6289 0l2.0586-2.0586h0.003907c1.543-1.5625 1.543-4.0742 0-5.6328l-37.77-37.77c0.58203-1.2148 0.58203-2.6328 0-3.8477 5.7266-6.7305 13.219-11.73 21.629-14.441 0.38672-0.12891 0.65234-0.48047 0.67578-0.88672 0.027344-0.40625-0.19922-0.78906-0.56641-0.96484-13.25-6.3477-28.43 6.6016-30.43 8.2812-0.30859-0.070312-0.625-0.10938-0.94141-0.10938-0.66016 0.003906-1.3125 0.16016-1.9102 0.44922l-1.5508-1.5508h0.003906c-1.5781-1.5078-4.0625-1.5078-5.6406 0l-2 2c-1.5508 1.5625-1.5508 4.082 0 5.6406l1.5508 1.5508c-0.3125 0.62891-0.46875 1.3203-0.46094 2.0195 0 0.31641 0.039063 0.63281 0.10938 0.94141-1.0898 1.2305-6.7695 7.8789-9.0703 16-11.09 1-19.18 5-19.18 9.9102v36.418c0 5.6719 10.672 10.121 24.289 10.121 13.621 0 24.289-4.4492 24.289-10.121v-36.461c0-5-8.1484-9-19.301-9.9219l0.003906 0.003906c2.0703-2.6797 4.3984-5.1445 6.957-7.3594zm47.902 31.469c0.36719 0.37109 0.57812 0.875 0.57812 1.3984 0 0.53125-0.20703 1.0352-0.57812 1.4102l-2.0508 2.0898c-0.77734 0.76953-2.0312 0.76953-2.8086 0l-37.59-37.578 4.8711-4.8594zm-17.93-58.398c-7.6133 2.8906-14.383 7.6328-19.699 13.797l-5.4219-5.3984c3.0898-2.5781 14.68-11.328 25.121-8.3984zm-29.73 10c0.44922-0.46094 1.0664-0.71484 1.7109-0.71094 0.64063 0 1.2539 0.25391 1.707 0.71094l5.6211 5.6211v-0.003906c0.45703 0.45703 0.71484 1.0742 0.71484 1.7148 0 0.64453-0.25781 1.2617-0.71484 1.7148l-5.6211 5.6211c-0.95312 0.91797-2.4648 0.91797-3.418 0l-1.3906-1.3789-4.2305-4.2188c-0.94531-0.94922-0.94531-2.4844 0-3.4336zm-8 2.4609v-0.003906c-0.76172-0.77734-0.76172-2.0195 0-2.7969l2.0586-2.0586v-0.003906c0.375-0.36719 0.875-0.57812 1.4023-0.57812 0.52344-0.007813 1.0312 0.20312 1.3984 0.57812l1.3711 1.3711-4.8594 4.8594zm18.098 68.207c0 3.8398-9.1602 8.1211-22.289 8.1211-13.129 0-22.289-4.2812-22.289-8.1211v-8c0.71484 0.66797 1.5078 1.25 2.3594 1.7305 4.4688 2.6484 11.93 4.2305 19.93 4.2305s15.449-1.5703 19.93-4.2305c0.85156-0.49219 1.6445-1.0781 2.3594-1.75zm0-12.16c0 1.8008-1.8398 3.2695-3.3789 4.1797-4.1797 2.4805-11.25 3.9492-18.91 3.9492-7.6602 0-14.73-1.4688-18.922-3.9492-1.5312-0.91016-3.3711-2.3789-3.3711-4.1797v-8h0.003906c0.71875 0.67969 1.5156 1.2734 2.3711 1.7695 4.4805 2.6406 11.93 4.2109 19.922 4.2109 7.9883 0 15.441-1.5703 19.922-4.2109h-0.003906c0.85156-0.5 1.6445-1.0938 2.3672-1.7695zm0-12.148c0 1.8008-1.8516 3.2695-3.3906 4.1797-4.1797 2.4688-11.25 3.9414-18.898 3.9414-7.6484 0-14.719-1.4688-18.91-3.9414-1.5391-0.91016-3.3789-2.3789-3.3789-4.1797v-7.9609c0.71484 0.67969 1.5117 1.2695 2.3711 1.7617 4.4805 2.6406 11.93 4.2188 19.922 4.2188 7.9883 0 15.441-1.5781 19.922-4.2188h-0.003906c0.85156-0.49609 1.6484-1.0859 2.3672-1.7617zm0-12.148c0 1.8203-1.8398 3.2812-3.3906 4.1914-4.1797 2.4609-11.25 3.9414-18.898 3.9414-7.6484-0.003906-14.719-1.4844-18.91-3.9453-1.5391-0.91016-3.3789-2.3711-3.3789-4.1914 0-3.2695 6.6289-6.8086 16.691-7.8086-0.95703 4.1367-0.51172 8.4727 1.2578 12.328 0.16797 0.34766 0.51562 0.57031 0.90234 0.57031h0.058593c0.40625-0.023438 0.75781-0.29297 0.89063-0.67969 1.4336-4.4023 3.4805-8.5859 6.0781-12.418 11.211 0.69922 18.699 4.5273 18.699 8.0078zm-25.75 1.1875c-2.9297-10.449 5.8203-22 8.3906-25.121l5.4102 5.4102c-6.1641 5.3242-10.906 12.098-13.801 19.711z"/>
  <path d="m15 59.699c-1.3125 0.011719-2.4883 0.8125-2.9883 2.0234-0.49609 1.2148-0.21484 2.6094 0.71094 3.5391 0.92578 0.92969 2.3203 1.2109 3.5352 0.71875 1.2148-0.49219 2.0156-1.668 2.0312-2.9805 0.007813-0.875-0.33594-1.7188-0.95312-2.3398-0.61719-0.62109-1.4609-0.96484-2.3359-0.96094zm0 4.5195c-0.51172-0.011719-0.96094-0.33203-1.1445-0.80859-0.18359-0.47656-0.0625-1.0156 0.30859-1.3633 0.37109-0.35156 0.91797-0.44531 1.3828-0.23438 0.46484 0.20703 0.75781 0.67578 0.74219 1.1875-0.019531 0.69141-0.59766 1.2383-1.2891 1.2188z"/>
  <path d="m15 71.852c-1.3203 0-2.5078 0.79297-3.0117 2.0117-0.50391 1.2188-0.22656 2.6211 0.70703 3.5508 0.93359 0.93359 2.3359 1.2109 3.5508 0.70703 1.2188-0.50391 2.0156-1.6914 2.0156-3.0117 0-0.86328-0.34375-1.6914-0.95703-2.3047-0.60938-0.60938-1.4414-0.95313-2.3047-0.95313zm0 4.5195c-0.50781 0-0.96875-0.30859-1.1641-0.77734-0.19531-0.47266-0.085938-1.0156 0.27344-1.375s0.90234-0.46875 1.3711-0.27344c0.47266 0.19531 0.78125 0.65625 0.78125 1.1641-0.007813 0.69531-0.56641 1.2539-1.2617 1.2617z"/>
  <path d="m15 84c-1.3203 0-2.5078 0.79297-3.0117 2.0117-0.50391 1.2188-0.22656 2.6211 0.70703 3.5547 0.93359 0.92969 2.3359 1.2109 3.5508 0.70703 1.2188-0.50781 2.0156-1.6953 2.0156-3.0117 0-0.86719-0.34375-1.6953-0.95703-2.3086-0.60938-0.60938-1.4414-0.95312-2.3047-0.95312zm0 4.5195c-0.50781 0-0.96875-0.30469-1.1641-0.77734-0.19531-0.47266-0.085938-1.0117 0.27344-1.375 0.35938-0.35938 0.90234-0.46484 1.3711-0.26953 0.47266 0.19141 0.78125 0.65234 0.78125 1.1641-0.007813 0.69141-0.56641 1.2539-1.2617 1.2578z"/>
 </g>
</svg>
