<?xml version="1.0" encoding="UTF-8"?>
<svg width="100pt" height="100pt" version="1.1" viewBox="0 0 100 100" xmlns="http://www.w3.org/2000/svg">
 <g>
  <path d="m3.125 3.125v93.75h93.75v-93.75zm3.125 18.75h6.25v6.25h-6.25zm0 9.375h6.25v6.25h-6.25zm0 20.312h6.25v7.8125h-6.25zm0 20.312h6.25v6.25h-6.25zm12.5 21.875h-12.5v-12.5h12.5zm0-15.625h-3.125v-6.25h3.125zm0-9.375h-12.5v-6.25h12.5zm0-9.375h-3.125v-7.8125h3.125zm0-10.938h-12.5v-7.8125h12.5zm0-10.938h-3.125v-6.25h3.125zm0-9.375h-3.125v-6.25h3.125zm0-9.375h-12.5v-12.5h12.5zm43.75-12.5h6.25v12.5h-6.25zm-10.938 0h7.8125v6.25h-7.8125zm0 9.375h7.8125v3.125h-7.8125zm-10.938-9.375h7.8125v6.25h-7.8125zm0 9.375h7.8125v3.125h-7.8125zm-9.375-9.375h6.25v12.5h-6.25zm-9.375 0h6.25v6.25h-6.25zm0 9.375h6.25v3.125h-6.25zm6.25 78.125h-6.25v-6.25h6.25zm0-9.375h-6.25v-3.125h6.25zm9.375 9.375h-6.25v-6.25h6.25zm0-9.375h-6.25v-3.125h6.25zm10.938 9.375h-7.8125v-12.5h7.8125zm10.938 0h-7.8125v-6.25h7.8125zm0-9.375h-7.8125v-3.125h7.8125zm9.375 9.375h-6.25v-12.5h6.25zm9.375 0h-6.25v-6.25h6.25zm0-9.375h-6.25v-3.125h6.25zm0-21.875v15.625h-56.25v-56.25h56.25zm0-43.75h-6.25v-3.125h6.25zm0-6.25h-6.25v-6.25h6.25zm3.125 9.375h3.125v6.25h-3.125zm0 18.75h3.125v7.8125h-3.125zm0 21.875h3.125v6.25h-3.125zm12.5 31.25h-12.5v-12.5h12.5zm0-15.625h-12.5v-6.25h12.5zm0-9.375h-6.25v-6.25h6.25zm0-9.375h-12.5v-7.8125h12.5zm0-10.938h-6.25v-7.8125h6.25zm0-10.938h-12.5v-6.25h12.5zm0-9.375h-6.25v-6.25h6.25zm0-9.375h-12.5v-12.5h12.5z"/>
  <path d="m28.582 44.855c0.60938 0.60938 1.6016 0.60938 2.2109 0l14.062-14.062c0.60938-0.60938 0.60938-1.6016 0-2.2109l-6.25-6.25c-0.60938-0.60938-1.6016-0.60938-2.2109 0l-14.062 14.062c-0.60938 0.60938-0.60938 1.6016 0 2.2109zm8.918-19.207 4.0391 4.0391-11.852 11.852-4.0391-4.0391z"/>
  <path d="m71.418 55.145c-0.60938-0.60938-1.6016-0.60938-2.2109 0l-14.062 14.062c-0.60938 0.60938-0.60938 1.6016 0 2.2109l6.25 6.25c0.60938 0.60938 1.6016 0.60938 2.2109 0l14.062-14.062c0.60938-0.60938 0.60938-1.6016 0-2.2109zm-8.918 19.207-4.0391-4.0391 11.852-11.852 4.0391 4.0391z"/>
  <path d="m69.855 39.52-9.375-9.375c-0.60938-0.60938-1.6016-0.60938-2.2109 0l-28.125 28.125c-0.60938 0.60938-0.60938 1.6016 0 2.2109l9.375 9.375c0.60938 0.60938 1.6016 0.60938 2.2109 0l28.125-28.125c0.60938-0.60938 0.60938-1.6016 0-2.2109zm-29.23 27.02-7.1641-7.1641 25.914-25.914 7.1641 7.1641z"/>
  <path d="m12.5 12.5h3.125v-3.125h-6.25v6.25h3.125z"/>
  <path d="m90.625 84.375h-3.125v3.125h-3.125v3.125h6.25z"/>
  <path d="m67.188 28.125h3.125v3.125h-3.125z"/>
  <path d="m71.875 32.812h3.125v3.125h-3.125z"/>
  <path d="m28.125 67.188h-3.125v7.8125h7.8125v-3.125h-4.6875z"/>
  <path d="m23.895 56.707 10.938-10.938 2.2109 2.2109-10.938 10.938z"/>
  <path d="m64.52 50.457 9.375-9.375 2.2109 2.2109-9.375 9.375z"/>
  <path d="m37.957 59.832 3.125-3.125 2.2109 2.2109-3.125 3.125z"/>
  <path d="m42.645 55.145 7.8125-7.8125 2.2109 2.2109-7.8125 7.8125z"/>
  <path d="m52.02 45.77 7.8125-7.8125 2.2109 2.2109-7.8125 7.8125z"/>
 </g>
</svg>
