<?xml version="1.0" encoding="UTF-8"?>
<svg width="100pt" height="100pt" version="1.1" viewBox="0 0 100 100" xmlns="http://www.w3.org/2000/svg">
 <g>
  <path d="m33.812 84.062c-0.37891-2.7656-2.3281-5.0625-4.9961-5.8867-2.668-0.82031-5.5742-0.019531-7.4414 2.0586-2.3633-1.0156-4.9844-1.2891-7.5078-0.78125-0.89844-1.332-2.168-2.375-3.6484-3 0.44141-1.1016 0.66797-2.2773 0.66406-3.4609-0.027343-5.1289-4.1914-9.2773-9.3203-9.2812-0.86328 0-1.5625 0.69922-1.5625 1.5625 0 0.86328 0.69922 1.5625 1.5625 1.5625 3.418 0.003906 6.1914 2.7773 6.1953 6.1953-0.003906 1.2656-0.39453 2.4961-1.125 3.5312-0.3125 0.44922-0.37109 1.0273-0.14844 1.5273 0.21875 0.5 0.68359 0.84766 1.2266 0.91797 1.7344 0.23047 3.2266 1.3398 3.9531 2.9297 0.3125 0.67188 0.51172 1.3945 0.59375 2.1328 0 0.86328 0.69922 1.5625 1.5625 1.5625 0.86328 0 1.5625-0.69922 1.5625-1.5625-0.011718-0.55078-0.09375-1.1016-0.24219-1.6328 2.0586-0.27344 4.1484 0.13281 5.9531 1.1562 0.74219 0.42188 1.6875 0.16797 2.1172-0.57031 0.78906-1.3711 2.3047-2.1523 3.8789-2 1.5703 0.15625 2.9102 1.2148 3.418 2.7109-1.0742 0.058594-2.1211 0.36719-3.0547 0.90625-0.70312 0.46875-0.90625 1.4102-0.45703 2.1289 0.44531 0.71484 1.3828 0.94531 2.1133 0.51953 0.92969-0.41406 1.9531-0.55859 2.9609-0.42187 2.5195 0.50781 4.2578 2.8281 4.0391 5.3867-0.22266 2.5625-2.3281 4.5508-4.8984 4.6211-0.86328 0-1.5625 0.69922-1.5625 1.5625s0.69922 1.5625 1.5625 1.5625c4.0117 0.003906 7.4336-2.9023 8.082-6.8633 0.64453-3.957-1.6758-7.8008-5.4805-9.0742z"/>
  <path d="m98.438 63.711c-3.0898 0.003906-5.9766 1.5352-7.7109 4.0938-1.7305 2.5586-2.082 5.8086-0.9375 8.6797-1.4805 0.625-2.75 1.668-3.6484 3-2.5234-0.50781-5.1445-0.23828-7.5078 0.78125-1.8672-2.0781-4.7734-2.8789-7.4414-2.0586-2.668 0.82422-4.6172 3.1211-4.9961 5.8867-3.7539 1.3047-6.0312 5.1211-5.3906 9.043 0.64062 3.9258 4.0078 6.8203 7.9844 6.8633 0.86328 0 1.5625-0.69922 1.5625-1.5625s-0.69922-1.5625-1.5625-1.5625c-2.625-0.011719-4.8047-2.0273-5.0195-4.6445-0.21094-2.6133 1.6094-4.957 4.1992-5.3945 0.78125-0.12891 1.3438-0.82422 1.3047-1.6172v-0.1875c-0.003907-1.582 0.91797-3.0195 2.3555-3.6797 1.4375-0.65625 3.1289-0.41797 4.3242 0.61719-0.83594 0.76953-1.5469 1.6641-2.1016 2.6562-0.41797 0.75391-0.14453 1.707 0.60938 2.125 0.75391 0.41797 1.707 0.14453 2.125-0.60938 0.57031-1.0273 1.375-1.9102 2.3438-2.5781 2.2852-1.2773 5-1.5625 7.5-0.78125 0.75391 0.24219 1.5703-0.12109 1.8984-0.84375 0.72656-1.5898 2.2188-2.6992 3.9531-2.9297h0.14062c0.78906-0.13281 1.5977-0.050781 2.3438 0.23438 0.78906 0.30469 1.6758-0.074219 2.0039-0.85547 0.32422-0.78125-0.03125-1.6797-0.80078-2.0273-0.96484-0.39453-2.0039-0.57422-3.0469-0.53125-0.44141-0.85938-0.67188-1.8125-0.67188-2.7812-0.003906-3.4219 2.7656-6.2031 6.1875-6.2109 0.86328 0 1.5625-0.69922 1.5625-1.5625 0-0.86328-0.69922-1.5625-1.5625-1.5625z"/>
  <path d="m64.484 36.562v-1.2109c0-8.5312-3.2188-19.188-6.9141-26.562-0.050781-0.20703-0.14844-0.40234-0.28906-0.5625-2.5156-4.9062-5.2344-8.2266-7.2812-8.2266-2.6328 0-5.4688 4.5078-7.4297 8.4062-0.039062 0.066406-0.074218 0.13281-0.10156 0.20312-0.70312 1.4141-1.2891 2.7266-1.7031 3.7031-3.3516 7.9141-5.2656 16.312-5.2656 23.047v1.2109c-4.9609 3.6406-6.25 6.2031-6.25 17.477-0.027344 2.9805 0.46875 5.9453 1.4609 8.7578 0.1875 0.46484 0.58594 0.80859 1.0703 0.92969s1 0 1.3828-0.32031l7.4453-6.25c0.58203 0.97656 1.2461 1.8984 1.9922 2.7578 0.29688 0.33594 0.72266 0.53125 1.1719 0.53125h4.6641v1.8047c0 0.86328 0.69922 1.5625 1.5625 1.5625s1.5625-0.69922 1.5625-1.5625v-1.8594h4.6406c0.44922 0 0.875-0.19531 1.1719-0.53125 0.74609-0.85547 1.4141-1.7773 2-2.75l7.4453 6.25c0.38281 0.32031 0.89844 0.44141 1.3828 0.32031s0.88281-0.46484 1.0703-0.92969c0.99219-2.8125 1.4883-5.7773 1.4609-8.7578 0-11.242-1.2891-13.797-6.25-17.438zm-14.484-33.438c0.67969 0.34375 1.7578 1.7031 2.9844 3.7656-0.83594-0.070313-1.8125-0.10156-2.9688-0.10156s-2.1953 0.039063-3.0391 0.10938c1.2266-2.0547 2.3203-3.4219 3.0234-3.7734zm-4.875 7.2109c1.6055-0.31641 3.2422-0.44922 4.875-0.39063 1.6133-0.042968 3.2266 0.09375 4.8125 0.40625 3.1875 6.4922 6.5625 16.281 6.5625 25 0 2.4414-0.16797 4.8789-0.50781 7.2969-0.625-0.0625-1.3516-0.10938-2.1719-0.15625-1.9531-0.11719-4.4453-0.17969-7.1328-0.20313v-4.9297c0-0.86328-0.69922-1.5625-1.5625-1.5625s-1.5625 0.69922-1.5625 1.5625v4.9375c-2.6875 0-5.1797 0.09375-7.1328 0.20312-0.78125 0.046875-1.5625 0.09375-2.1719 0.15625-0.33984-2.418-0.50781-4.8555-0.50781-7.2969 0-8.7969 3.3203-18.539 6.4844-24.984zm-12.148 49.148c-0.38672-1.7969-0.58203-3.6289-0.58594-5.4688 0-8.875 0.69531-11.359 3.3359-13.68 0.125 1.4297 0.30469 2.8281 0.53906 4.1875 0.003906 0.19922 0.042969 0.39453 0.11719 0.57812 0.55469 3.1445 1.4844 6.2148 2.7656 9.1406zm11.555-2.2109c-2.1797-2.7188-3.8516-6.7812-4.8516-11.523 1.5625-0.14844 4.5781-0.30469 8.7656-0.33594v11.859zm10.938 0h-3.9062v-11.859c4.1875 0 7.1875 0.17969 8.7656 0.33594-1 4.75-2.6719 8.8047-4.8594 11.523zm11.547 2.2109-6.1562-5.2031c1.2812-2.9258 2.2109-5.9961 2.7656-9.1406 0.074219-0.18359 0.11328-0.37891 0.11719-0.57812 0.23437-1.3594 0.41406-2.7578 0.53906-4.1875 2.6406 2.3438 3.3359 4.8047 3.3359 13.68-0.007813 1.8242-0.20703 3.6445-0.59375 5.4297z"/>
  <path d="m50 66.555c-0.86328 0-1.5625 0.69922-1.5625 1.5625v22.898c0 0.86328 0.69922 1.5625 1.5625 1.5625s1.5625-0.69922 1.5625-1.5625v-22.898c0-0.41406-0.16406-0.8125-0.45703-1.1055s-0.69141-0.45703-1.1055-0.45703z"/>
  <path d="m43.93 62.992c-0.86328 0-1.5625 0.69922-1.5625 1.5625v10.25c0 0.86328 0.69922 1.5625 1.5625 1.5625 0.86328 0 1.5625-0.69922 1.5625-1.5625v-10.25c0-0.41406-0.16406-0.8125-0.45703-1.1055-0.29297-0.29297-0.69141-0.45703-1.1055-0.45703z"/>
  <path d="m56.07 62.992c-0.86328 0-1.5625 0.69922-1.5625 1.5625v10.25c0 0.86328 0.69922 1.5625 1.5625 1.5625 0.86328 0 1.5625-0.69922 1.5625-1.5625v-10.25c0-0.41406-0.16406-0.8125-0.45703-1.1055s-0.69141-0.45703-1.1055-0.45703z"/>
  <path d="m50 32.242c2.8086 0 5.3398-1.6914 6.418-4.2891 1.0742-2.5938 0.48047-5.582-1.5078-7.5664-1.9844-1.9883-4.9727-2.582-7.5664-1.5078-2.5977 1.0781-4.2891 3.6094-4.2891 6.418 0.003906 3.8359 3.1094 6.9414 6.9453 6.9453zm0-10.758c1.5469 0 2.9375 0.92969 3.5312 2.3594 0.58984 1.4258 0.26172 3.0703-0.82812 4.1641-1.0938 1.0898-2.7383 1.418-4.1641 0.82813-1.4297-0.59375-2.3594-1.9844-2.3594-3.5312 0-2.1094 1.7109-3.8203 3.8203-3.8203z"/>
 </g>
</svg>
