<?xml version="1.0" encoding="UTF-8"?>
<svg width="100pt" height="100pt" version="1.1" viewBox="0 0 100 100" xmlns="http://www.w3.org/2000/svg">
 <g>
  <path d="m50 63.133c-5.9844 0-11.609-2.3359-15.84-6.5625-4.2266-4.2266-6.5625-9.8516-6.5625-15.84 0-5.9844 2.3359-11.609 6.5625-15.84 4.2266-4.2266 9.8516-6.5625 15.84-6.5625 5.9844 0 11.609 2.3359 15.84 6.5625 4.2266 4.2266 6.5625 9.8516 6.5625 15.84 0 5.9844-2.3359 11.609-6.5625 15.84-4.2383 4.2422-9.8555 6.5625-15.84 6.5625zm0-41.852c-10.734 0-19.461 8.7305-19.461 19.461 0 10.734 8.7305 19.461 19.461 19.461s19.461-8.7305 19.461-19.461c0-10.734-8.7266-19.461-19.461-19.461z"/>
  <path d="m46.672 49.531-7.8242-7.8203 2.0703-2.0703 5.7539 5.75 12.41-12.402 2.0703 2.0703z"/>
  <path d="m50 76.477c-1.3984 0-2.793-0.34375-4.0703-1.0234-0.26563-0.13672-0.51563-0.29297-0.76172-0.46094-0.46094-0.30469-0.89062-0.66406-1.2812-1.0547l-3.7305-3.7305c-1.0742-1.0742-2.5078-1.6719-4.0312-1.6719h-5.2734c-4.7656 0-8.6406-3.8789-8.6406-8.6406v-5.2734c0-1.5039-0.60547-2.9766-1.6719-4.0312l-3.7305-3.7305c-3.3672-3.3672-3.3672-8.8477 0-12.219l3.7305-3.7305c1.0625-1.0625 1.6719-2.5391 1.6719-4.0312v-5.2734c0-4.7656 3.8789-8.6406 8.6406-8.6406h5.2734c1.5234 0 2.9609-0.59375 4.0312-1.6719l3.7305-3.7305c1.6328-1.6328 3.7969-2.5312 6.1133-2.5312s4.4727 0.89844 6.1133 2.5312l3.7305 3.7305c1.0742 1.0859 2.5078 1.6719 4.0312 1.6719h5.2734c4.7656 0 8.6406 3.8789 8.6406 8.6406v5.2734c0 1.5234 0.59375 2.9609 1.6719 4.0312l3.7305 3.7305c3.3672 3.3672 3.3672 8.8477 0 12.219l-3.7305 3.7266c-1.0742 1.0742-1.6719 2.5078-1.6719 4.0312v5.2734c0 4.7656-3.8789 8.6406-8.6406 8.6406h-5.2734c-1.5234 0-2.9609 0.59375-4.0312 1.6719l-3.7305 3.7305c-0.39062 0.39062-0.82031 0.75-1.2812 1.0547-0.23438 0.16406-0.49609 0.3125-0.76172 0.46094-1.2773 0.68359-2.6758 1.0273-4.0703 1.0273zm-19.16-60.598c-3.1445 0-5.7109 2.5586-5.7109 5.7109v5.2734c0 2.3047-0.89844 4.4727-2.5312 6.1016l-3.7305 3.7305c-2.2266 2.2266-2.2266 5.8516 0 8.0781l3.7305 3.7305c1.6328 1.6328 2.5312 3.7969 2.5312 6.1133v5.2734c0 3.1445 2.5586 5.7109 5.7109 5.7109h5.2734c2.3047 0 4.4727 0.89844 6.1133 2.5312l3.7305 3.7305c0.26562 0.26562 0.54688 0.49609 0.84766 0.70312 0.15625 0.10938 0.32031 0.20312 0.49609 0.30469 1.6875 0.89844 3.7031 0.89844 5.3828 0 0.17578-0.085938 0.34375-0.19531 0.49609-0.29297 0.30469-0.20312 0.59375-0.4375 0.84766-0.70312l3.7305-3.7305c1.6328-1.6328 3.7969-2.5312 6.1133-2.5312h5.2734c3.1445 0 5.7109-2.5586 5.7109-5.7109v-5.2734c0-2.3047 0.89844-4.4844 2.5312-6.1133l3.7305-3.7305c2.2266-2.2266 2.2266-5.8516 0-8.0781l-3.7305-3.7305c-1.6328-1.6328-2.5312-3.7969-2.5312-6.1133v-5.2734c0-3.1445-2.5586-5.7109-5.7109-5.7109h-5.2734c-2.3047 0-4.4844-0.89844-6.1133-2.5312l-3.7305-3.7305c-2.2266-2.2266-5.8516-2.2266-8.0781 0l-3.7305 3.7305c-1.6328 1.6328-3.7969 2.5312-6.1133 2.5312z"/>
  <path d="m39.422 94.844-6.7383-8.2812-10.555 1.6016 8.7109-22.547h5.2734c2.3047 0 4.4727 0.89844 6.1133 2.5312l3.7305 3.7305c0.26562 0.26562 0.54688 0.49609 0.84766 0.70312l0.96875 0.65625zm-5.5156-11.438 4.6094 5.6641 5.7227-14.805c-0.11719-0.10938-0.23438-0.21484-0.34375-0.32031l-3.7305-3.7305c-1.0742-1.0742-2.5078-1.6719-4.0312-1.6719h-3.2734l-6.1719 15.969z"/>
  <path d="m60.574 94.844-8.3516-21.621 0.96875-0.65625c0.30469-0.20312 0.58594-0.4375 0.84766-0.70312l3.7305-3.7305c1.6328-1.6328 3.7969-2.5312 6.1133-2.5312h5.2734l8.7109 22.547-10.555-1.6016zm-4.8125-20.578 5.7227 14.812 4.6094-5.6641 7.2188 1.0938-6.1719-15.969h-3.2734c-1.5234 0-2.9609 0.59375-4.0312 1.6719l-3.7305 3.7305c-0.10938 0.11328-0.22656 0.21875-0.34375 0.32422z"/>
 </g>
</svg>
