<?xml version="1.0" encoding="UTF-8"?>
<svg width="100pt" height="100pt" version="1.1" viewBox="0 0 100 100" xmlns="http://www.w3.org/2000/svg">
 <g>
  <path d="m96.078 51.234c-0.042969-0.47266-0.22266-0.92578-0.51562-1.2969l-21.875-26.5c-0.46094-0.51172-1.125-0.79688-1.8125-0.78125h-43.75c-0.69922 0-1.3633 0.30859-1.8125 0.84375l-21.875 26.5c-0.34375 0.44922-0.53125 0.99609-0.53125 1.5625v23.438c0 1.293 1.0508 2.3438 2.3438 2.3438h87.5c1.293 0 2.3438-1.0508 2.3438-2.3438v-23.562c0-0.078125-0.015625-0.14062-0.015625-0.20312zm-66.844-23.891h41.531l18 21.75h-77.531zm62.172 45.312h-82.812v-18.875h82.812z"/>
  <path d="m17.656 65.625h4.5938c1.293 0 2.3438-1.0508 2.3438-2.3438s-1.0508-2.3438-2.3438-2.3438h-4.5938c-1.293 0-2.3438 1.0508-2.3438 2.3438s1.0508 2.3438 2.3438 2.3438z"/>
  <path d="m30.875 65.625h4.5938c1.293 0 2.3438-1.0508 2.3438-2.3438s-1.0508-2.3438-2.3438-2.3438h-4.5938c-1.293 0-2.3438 1.0508-2.3438 2.3438s1.0508 2.3438 2.3438 2.3438z"/>
 </g>
</svg>
