<?xml version="1.0" encoding="UTF-8"?>
<svg fill="#000000" width="100pt" height="100pt" version="1.1" viewBox="0 0 100 100" xmlns="http://www.w3.org/2000/svg">
 <g>
  <path d="m50.715 35.957c-0.23828-0.011719-0.47656-0.019531-0.71484-0.019531-0.82031 0-1.625 0.070312-2.4062 0.20312l-0.39844-6.5938c-2.4219-0.5625-4.2266-2.7344-4.2266-5.3281 0-3.0195 2.4492-5.4688 5.4688-5.4688s5.4688 2.4492 5.4688 5.4688c0 2.3594-1.4961 4.3711-3.5938 5.1367zm5.2031 1.2812 16.168-26.625c-1.0977-1.1289-1.7734-2.668-1.7734-4.3633 0-3.4531 2.7969-6.25 6.25-6.25s6.25 2.7969 6.25 6.25-2.7969 6.25-6.25 6.25c-0.62891 0-1.2344-0.09375-1.8047-0.26562l-16.168 26.629c-0.82422-0.63281-1.7188-1.1797-2.6719-1.625zm5.793 4.9727 8.6953-4.4805c-0.0625-0.32812-0.09375-0.66797-0.09375-1.0117 0-3.0195 2.4492-5.4688 5.4688-5.4688s5.4688 2.4492 5.4688 5.4688-2.4492 5.4688-5.4688 5.4688c-1.5508 0-2.9492-0.64453-3.9453-1.6797l-8.6914 4.4805c-0.37891-0.98438-0.85938-1.9141-1.4336-2.7773zm2.1484 10.191 22.961 6.6836c1.2031-2.1602 3.5039-3.6172 6.1484-3.6172 3.8828 0 7.0312 3.1484 7.0312 7.0312s-3.1484 7.0312-7.0312 7.0312-7.0312-3.1484-7.0312-7.0312c0-0.14062 0.003906-0.27734 0.011719-0.41406l-22.965-6.6797c0.39844-0.95312 0.69531-1.957 0.875-3.0039zm-2.6172 6.0469 26.641 25.102c0.80469-0.46875 1.7422-0.73828 2.7422-0.73828 3.0195 0 5.4688 2.4492 5.4688 5.4688s-2.4492 5.4688-5.4688 5.4688-5.4688-2.4492-5.4688-5.4688c0-0.88281 0.21094-1.7188 0.58203-2.457l-26.637-25.102c0.79297-0.67578 1.5117-1.4414 2.1406-2.2734zm-8.4219 5.332 2.0195 22.219c3.4414 0.45703 6.0977 3.4023 6.0977 6.9688 0 3.8828-3.1484 7.0312-7.0312 7.0312s-7.0312-3.1484-7.0312-7.0312c0-3.125 2.0352-5.7695 4.8555-6.6875l-2.0195-22.223c0.09375 0.003906 0.19141 0.003906 0.28906 0.003906 0.96484 0 1.9102-0.097656 2.8203-0.28125zm-9.7031-1.5156-10.668 14.855c0.71875 0.92578 1.1445 2.0859 1.1445 3.3477 0 3.0195-2.4492 5.4688-5.4688 5.4688s-5.4688-2.4492-5.4688-5.4688 2.4492-5.4688 5.4688-5.4688c0.625 0 1.2266 0.10547 1.7891 0.30078l10.668-14.859c0.76953 0.69922 1.6211 1.3125 2.5352 1.8242zm-6.1523-6.9844-26.027 7.3086c-0.046875 2.9766-2.4766 5.3789-5.4688 5.3789-3.0195 0-5.4688-2.4492-5.4688-5.4688s2.4492-5.4688 5.4688-5.4688c1.9453 0 3.6562 1.0156 4.625 2.5469l26.027-7.3047c0.16797 1.0469 0.45312 2.0547 0.84375 3.0078zm-0.64844-8.5352-11.617-4.168c-1.125 1.6523-3.0195 2.7344-5.168 2.7344-3.4531 0-6.25-2.7969-6.25-6.25s2.7969-6.25 6.25-6.25 6.25 2.7969 6.25 6.25c0 0.19531-0.007812 0.38672-0.027344 0.57422l11.617 4.168c-0.45703 0.92969-0.8125 1.9141-1.0547 2.9414zm4.1992-7.1289-18.996-26.121c-0.85156 0.36328-1.7852 0.56641-2.7695 0.56641-3.8828 0-7.0312-3.1484-7.0312-7.0312s3.1484-7.0312 7.0312-7.0312 7.0312 3.1484 7.0312 7.0312c0 1.7695-0.65625 3.3906-1.7344 4.625l18.996 26.121c-0.91016 0.51953-1.7578 1.1367-2.5273 1.8398zm-21.766-28.68c2.1562 0 3.9062-1.75 3.9062-3.9062s-1.75-3.9062-3.9062-3.9062-3.9062 1.75-3.9062 3.9062 1.75 3.9062 3.9062 3.9062zm35.156 85.938c2.1562 0 3.9062-1.75 3.9062-3.9062s-1.75-3.9062-3.9062-3.9062-3.9062 1.75-3.9062 3.9062 1.75 3.9062 3.9062 3.9062zm39.062-30.469c2.1562 0 3.9062-1.75 3.9062-3.9062s-1.75-3.9062-3.9062-3.9062-3.9062 1.75-3.9062 3.9062 1.75 3.9062 3.9062 3.9062zm-87.5-1.5625c1.293 0 2.3438-1.0508 2.3438-2.3438s-1.0508-2.3438-2.3438-2.3438-2.3438 1.0508-2.3438 2.3438 1.0508 2.3438 2.3438 2.3438zm22.656 17.969c1.293 0 2.3438-1.0508 2.3438-2.3438s-1.0508-2.3438-2.3438-2.3438-2.3438 1.0508-2.3438 2.3438 1.0508 2.3438 2.3438 2.3438zm47.656-43.75c1.293 0 2.3438-1.0508 2.3438-2.3438s-1.0508-2.3438-2.3438-2.3438-2.3438 1.0508-2.3438 2.3438 1.0508 2.3438 2.3438 2.3438zm14.844 51.562c1.293 0 2.3438-1.0508 2.3438-2.3438s-1.0508-2.3438-2.3438-2.3438-2.3438 1.0508-2.3438 2.3438 1.0508 2.3438 2.3438 2.3438zm-14.062-81.25c1.7266 0 3.125-1.3984 3.125-3.125s-1.3984-3.125-3.125-3.125-3.125 1.3984-3.125 3.125 1.3984 3.125 3.125 3.125zm-57.031 32.812c1.7266 0 3.125-1.3984 3.125-3.125s-1.3984-3.125-3.125-3.125-3.125 1.3984-3.125 3.125 1.3984 3.125 3.125 3.125zm28.906-15.625c1.293 0 2.3438-1.0508 2.3438-2.3438s-1.0508-2.3438-2.3438-2.3438-2.3438 1.0508-2.3438 2.3438 1.0508 2.3438 2.3438 2.3438z"/>
  <path d="m50 57.812c4.3164 0 7.8125-3.4961 7.8125-7.8125s-3.4961-7.8125-7.8125-7.8125-7.8125 3.4961-7.8125 7.8125 3.4961 7.8125 7.8125 7.8125zm0 3.125c-6.0391 0-10.938-4.8984-10.938-10.938s4.8984-10.938 10.938-10.938 10.938 4.8984 10.938 10.938-4.8984 10.938-10.938 10.938z"/>
 </g>
</svg>
