<?xml version="1.0" encoding="UTF-8"?>
<svg width="100pt" height="100pt" version="1.1" viewBox="0 0 100 100" xmlns="http://www.w3.org/2000/svg">
 <path d="m95 10v80c0 2.7617-2.2383 5-5 5h-80c-2.7617 0-5-2.2383-5-5v-21h56.996c10.492 0 19-8.5078 19-19s-8.5078-19-19-19h-56.996v-21c0-2.7617 2.2383-5 5-5h80c2.7617 0 5 2.2383 5 5zm-39.941 56.594l20.582-15.395c0.37891-0.28125 0.60156-0.73047 0.60156-1.1992 0-0.47266-0.22266-0.91797-0.60156-1.1992l-20.582-15.395c-0.45703-0.33984-1.0625-0.39453-1.5703-0.14062-0.50781 0.25391-0.82812 0.77344-0.82812 1.3398v6.6133h-18.828c-0.82812 0-1.5 0.67188-1.5 1.5v14.559c0 0.82812 0.67188 1.5 1.5 1.5l18.828 0.003906v6.6133c0 0.56641 0.32031 1.0859 0.82812 1.3398 0.21484 0.10547 0.44141 0.16016 0.67188 0.16016 0.31641 0 0.63281-0.10156 0.89844-0.30078z"/>
</svg>
