<?xml version="1.0" encoding="UTF-8"?>
<svg width="100pt" height="100pt" version="1.1" viewBox="0 0 100 100" xmlns="http://www.w3.org/2000/svg">
 <path d="m75.203 37.961c-1.3281-2.2461-3.5703-3.4688-6.1211-3.4688h-8.7773l7.6562-23.27c0.71484-2.1445 0.30469-4.5938-1.0195-6.4297-1.3281-1.8359-3.4688-2.9609-5.8164-2.9609l-16.023 0.003907c-3.0625 0-5.8164 1.9375-6.7344 4.8984l-14.184 42.855c-0.71484 2.1445-0.30469 4.5938 1.0195 6.4297 1.3281 1.8359 3.4688 2.9609 5.8164 2.9609h12.754l-2.4453 35.918c-0.10156 1.4297 0.81641 2.7539 2.2461 3.1641 0.30469 0.10156 0.61328 0.10156 0.81641 0.10156 1.1211 0 2.1445-0.61328 2.6523-1.6328l28.367-51.531c1.1211-2.1445 1.1211-4.7969-0.20703-7.0391zm-5.2031 4.1836-21.734 39.387 1.7344-25.41c0.10156-0.81641-0.20312-1.6328-0.81641-2.2461-0.61328-0.61328-1.4297-0.91797-2.2461-0.91797l-16.02 0.003907c-0.40625 0-0.71484-0.30469-0.81641-0.40625-0.10156-0.20313-0.30469-0.51172-0.10156-0.91797l14.184-42.855c0.10156-0.40625 0.51172-0.71484 0.91797-0.71484h16.121c0.40625 0 0.71484 0.30469 0.81641 0.40625 0.10156 0.20312 0.30469 0.51172 0.10156 0.91797l-8.9805 27.348c-0.30469 0.91797-0.10156 1.9375 0.40625 2.7539 0.51172 0.81641 1.5312 1.2227 2.4492 1.2227h13.062c0.51172 0 0.81641 0.30469 0.91797 0.51172 0.10547 0.20313 0.20703 0.50781 0.003906 0.91797z"/>
</svg>
