<?xml version="1.0" encoding="UTF-8"?>
<svg width="100pt" height="100pt" version="1.1" viewBox="0 0 100 100" xmlns="http://www.w3.org/2000/svg">
 <g>
  <path d="m40.809 39.668s-7.1406-2.1367-12.484 7.0859c-4.1367 7.1445 0.27344 14.527 6.9805 13.18 7.8516-1.5781 12.477-19.59 5.5039-20.266zm-6.4375 14.77-0.003906 0.003906c-0.94141 0-1.793-0.57031-2.1523-1.4414-0.36328-0.87109-0.16406-1.875 0.50391-2.543 0.66797-0.66406 1.6719-0.86719 2.543-0.50391 0.87109 0.35938 1.4375 1.2109 1.4375 2.1562 0 1.2852-1.043 2.332-2.332 2.332z"/>
  <path d="m47.582 79.617c-2.9844 0.015624-5.9609-0.25-8.8906-0.79688-5.8672-1.1367-10.594-3.4414-14.043-6.8477-4.5-4.4453-6.7461-10.699-6.6719-18.586 0.13672-14.551 8.8594-21.773 16.156-25.273 7.793-3.7383 15.438-4.0781 15.758-4.0938h0.09375c0.32031 0.011719 7.9648 0.35547 15.758 4.0938 7.293 3.5 16.02 10.723 16.156 25.273 0.074218 7.8867-2.168 14.137-6.6719 18.586-3.4492 3.4102-8.1758 5.7148-14.043 6.8477-4.6562 0.90234-8.8242 0.8125-10.605 0.77344-0.26562-0.003906-0.48438-0.011719-0.64453-0.011719s-0.37891 0.003907-0.64453 0.011719c-0.42969 0.011719-1.0117 0.023438-1.707 0.023438zm2.3594-53.211c-0.64453 0.035156-7.7891 0.48828-14.84 3.8867-9.6836 4.668-14.641 12.445-14.742 23.117-0.066406 7.2148 1.9375 12.895 5.9648 16.871 4.8789 4.8203 12.59 7.1523 22.922 6.9336 0.28906-0.007813 0.52344-0.011719 0.69531-0.011719s0.40625 0.003906 0.69531 0.011719c0.44531 0.007812 0.88281 0.015625 1.3203 0.015625 9.6719 0 16.934-2.3359 21.605-6.9492 4.0234-3.9766 6.0312-9.6523 5.9648-16.871-0.10547-10.695-5.0859-18.484-14.809-23.148-7.0469-3.3789-14.129-3.8242-14.777-3.8555z"/>
  <path d="m71.559 46.758c-5.3438-9.2227-12.484-7.0859-12.484-7.0859-6.9727 0.67578-2.3477 18.688 5.5039 20.266 6.707 1.3477 11.117-6.0391 6.9805-13.18zm-7.1484 7.6836c-0.94531 0-1.7969-0.57031-2.1562-1.4414-0.36328-0.87109-0.16406-1.875 0.50391-2.5391 0.66797-0.66797 1.6719-0.86719 2.543-0.50781 0.87109 0.36328 1.4375 1.2109 1.4375 2.1562 0 1.2891-1.043 2.332-2.3281 2.332z"/>
  <path d="m49.941 57.664s-5.7578-0.11328-4.9727 2.082c0.78906 2.1953 4.9727 3.7695 4.9727 3.7695s4.1836-1.5742 4.9727-3.7695c0.78516-2.1914-4.9727-2.082-4.9727-2.082z"/>
  <path d="m39.172 27.367c-7.1289 2.3789-15.715 7.3555-18.812 17.734-3.0625-2.332-4.9492-5.8906-5.1523-9.7344-0.19922-3.8477 1.2969-7.5859 4.0977-10.227 2.8008-2.6406 6.625-3.918 10.449-3.4883 3.8281 0.42969 7.2695 2.5195 9.418 5.7148z"/>
  <path d="m84.812 34.672c0.003906 4.1367-1.9492 8.0312-5.2695 10.504-3.0664-10.383-11.609-15.379-18.738-17.773h0.003906c3.2031-4.8047 9.1719-6.9414 14.699-5.2656 5.5234 1.6719 9.3008 6.7656 9.3047 12.535z"/>
  <path d="m49.941 69.09c-0.65625 0-1.1914-0.53516-1.1914-1.1914v-5.6445c0-0.65625 0.53516-1.1914 1.1914-1.1914s1.1914 0.53516 1.1914 1.1914v5.6445c0 0.31641-0.125 0.61719-0.35156 0.84375-0.22266 0.22266-0.52344 0.34766-0.83984 0.34766z"/>
 </g>
</svg>
