<?xml version="1.0" encoding="UTF-8"?>
<svg width="100pt" height="100pt" version="1.1" viewBox="0 0 100 100" xmlns="http://www.w3.org/2000/svg">
 <g fill-rule="evenodd">
  <path d="m12.5 82.422c0-1.0781 0.875-1.9531 1.9531-1.9531h71.094c1.0781 0 1.9531 0.875 1.9531 1.9531s-0.875 1.9531-1.9531 1.9531h-71.094c-1.0781 0-1.9531-0.875-1.9531-1.9531z"/>
  <path d="m49.965 13.672c0.93359-0.015625 1.7539 0.63281 1.9453 1.5469l7.1133 33.574 3.5312-5.7344c0.36719-0.58984 1.0156-0.94141 1.7109-0.92578 0.69531 0.015626 1.3281 0.40234 1.6641 1.0078l8.8711 16.086 6.2852-6.5977c0.36719-0.38672 0.87891-0.60547 1.4141-0.60547s1.0469 0.21875 1.4141 0.60547l8.125 8.5234c0.74219 0.78125 0.71484 2.0156-0.066406 2.7617-0.78125 0.74219-2.0156 0.71484-2.7617-0.066406l-6.7109-7.0391-6.7109 7.0391c-0.42969 0.44922-1.0469 0.66797-1.6641 0.58984-0.61719-0.082031-1.1602-0.44922-1.4609-0.99609l-8.5391-15.48-4.3359 7.0391c-0.42187 0.67969-1.2109 1.0391-1.9961 0.90234-0.78906-0.13672-1.4141-0.73828-1.5781-1.5195l-6.0234-28.43-6.3906 36.879c-0.15234 0.86719-0.86328 1.5273-1.7383 1.6133-0.875 0.082032-1.6992-0.42578-2.0117-1.25l-6.7383-17.672-6.0391 9.5c-0.52344 0.82422-1.5703 1.1328-2.457 0.73047l-6.2305-2.832-7.3867 19.363c-0.38281 1.0078-1.5117 1.5156-2.5195 1.1289-1.0078-0.38281-1.5156-1.5117-1.1289-2.5195l8.125-21.305c0.19141-0.50391 0.58203-0.90625 1.082-1.1133 0.5-0.20312 1.0586-0.19531 1.5508 0.03125l6.5781 2.9883 7.2148-11.352c0.39844-0.62109 1.1094-0.96875 1.8438-0.89453 0.73828 0.074219 1.3672 0.55859 1.6289 1.2461l5.5898 14.66 6.9102-39.863c0.16016-0.92578 0.95312-1.6016 1.8906-1.6211z"/>
 </g>
</svg>
