<?xml version="1.0" encoding="UTF-8"?>
<svg width="100pt" height="100pt" version="1.1" viewBox="0 0 100 100" xmlns="http://www.w3.org/2000/svg">
 <path d="m97.918 76.668h-5.207l-0.003907-39.375c0-15.625-12.707-28.125-28.125-28.125h-43.332v-5.2109c0-1.25-0.83203-2.082-2.082-2.082h-17.086c-1.25 0-2.082 0.83203-2.082 2.082v49.582c0 1.25 0.83203 2.082 2.082 2.082h17.082c1.25 0 2.082-0.83203 2.082-2.082v-5.207h32.293v28.543h-5.207c-1.25 0-2.082 0.83203-2.082 2.082v17.082c0 1.25 0.83203 2.082 2.082 2.082l49.586 0.003906c1.25 0 2.082-0.83203 2.082-2.082v-17.082c0-1.2539-0.83203-2.293-2.082-2.293zm-80.836-25.211h-12.914v-45.414h12.918c-0.003907 17.289-0.003907 28.332-0.003907 45.414zm38.543-7.2891h-34.375v-30.836h43.332c13.332 0 23.957 10.832 23.957 23.957v39.375l-30.832 0.003907v-30.418c0-1.25-0.83203-2.082-2.082-2.082zm40.207 49.789h-45.414v-12.918h45.418z"/>
</svg>
