<?xml version="1.0" encoding="UTF-8"?>
<svg width="100pt" height="100pt" version="1.1" viewBox="0 0 100 100" xmlns="http://www.w3.org/2000/svg">
 <g>
  <path d="m88.605 44.207c-0.44922-0.44531-1.1211-0.57812-1.7031-0.33984-0.58594 0.24219-0.96484 0.8125-0.96484 1.4453v3.125h-3.125v-28.125c-0.003906-2.5859-2.1016-4.6836-4.6875-4.6875h-7.8125v3.125h7.8125c0.86328 0 1.5625 0.69922 1.5625 1.5625v29.688c0 0.41406 0.16406 0.8125 0.45703 1.1055s0.69141 0.45703 1.1055 0.45703h6.25c0.41406 0 0.8125-0.16406 1.1055-0.45703s0.45703-0.69141 0.45703-1.1055v-0.91406l4.0391 4.0391-4.0391 4.0391v-0.91406c0-0.41406-0.16406-0.8125-0.45703-1.1055s-0.69141-0.45703-1.1055-0.45703h-6.25c-0.86328 0-1.5625 0.69922-1.5625 1.5625v29.688c0 0.86328-0.69922 1.5625-1.5625 1.5625h-7.8125v3.125h7.8125c2.5859-0.003906 4.6836-2.1016 4.6875-4.6875v-28.125h3.125v3.125c0 0.63281 0.37891 1.2031 0.96484 1.4453 0.58203 0.23828 1.2539 0.10547 1.7031-0.33984l7.8125-7.8125c0.29297-0.29297 0.45703-0.69141 0.45703-1.1055s-0.16406-0.8125-0.45703-1.1055z"/>
  <path d="m70.312 81.25v3.125h4.6875c0.41406 0 0.8125-0.16406 1.1055-0.45703s0.45703-0.69141 0.45703-1.1055v-26.562c0-0.41406-0.16406-0.8125-0.45703-1.1055s-0.69141-0.45703-1.1055-0.45703h-4.6875v3.125h3.125v23.438z"/>
  <path d="m76.562 23.438c0-0.41406-0.16406-0.8125-0.45703-1.1055s-0.69141-0.45703-1.1055-0.45703h-4.6875v3.125h3.125v23.438h-3.125v3.125h4.6875c0.41406 0 0.8125-0.16406 1.1055-0.45703s0.45703-0.69141 0.45703-1.1055z"/>
  <path d="m10.938 85.938c0.003906 2.5859 2.1016 4.6836 4.6875 4.6875h9.375v3.125c0 0.63281 0.37891 1.2031 0.96484 1.4453 0.58203 0.23828 1.2539 0.10547 1.7031-0.33984l5.1719-5.1719c0.32812 4.0586 3.7148 7.1875 7.7852 7.1914h18.75c4.3125-0.003906 7.8086-3.5 7.8125-7.8125v-12.5c-0.003906-4.3125-3.5-7.8086-7.8125-7.8125h-18.75c-4.3125 0.003906-7.8086 3.5-7.8125 7.8125v5.6016l-5.1445-5.1445c-0.44922-0.44531-1.1211-0.57812-1.7031-0.33984-0.58594 0.24219-0.96484 0.8125-0.96484 1.4453v3.125h-4.6875v-23.438h4.6875v3.125c0 0.63281 0.37891 1.2031 0.96484 1.4453 0.58203 0.23828 1.2539 0.10547 1.7031-0.33984l5.1719-5.1719c0.32812 4.0586 3.7148 7.1875 7.7852 7.1914h18.75c4.3125-0.003906 7.8086-3.5 7.8125-7.8125v-12.5c-0.003906-4.3125-3.5-7.8086-7.8125-7.8125h-18.75c-4.3125 0.003906-7.8086 3.5-7.8125 7.8125v5.6016l-5.1445-5.1445c-0.44922-0.44531-1.1211-0.57812-1.7031-0.33984-0.58594 0.24219-0.96484 0.8125-0.96484 1.4453v3.125h-4.6875v-23.438h4.6875v3.125c0 0.63281 0.37891 1.2031 0.96484 1.4453 0.58203 0.23828 1.2539 0.10547 1.7031-0.33984l5.1719-5.1719c0.32812 4.0586 3.7148 7.1875 7.7852 7.1914h18.75c4.3125-0.003906 7.8086-3.5 7.8125-7.8125v-12.5c-0.003906-4.3125-3.5-7.8086-7.8125-7.8125h-18.75c-4.3125 0.003906-7.8086 3.5-7.8125 7.8125v5.6016l-5.1445-5.1445c-0.44922-0.44531-1.1211-0.57812-1.7031-0.33984-0.58594 0.24219-0.96484 0.8125-0.96484 1.4453v3.125h-9.375c-2.5859 0.003906-4.6836 2.1016-4.6875 4.6875v28.125h-7.8125v3.125h9.375c0.41406 0 0.8125-0.16406 1.1055-0.45703s0.45703-0.69141 0.45703-1.1055v-29.688c0-0.86328 0.69922-1.5625 1.5625-1.5625h10.938c0.41406 0 0.8125-0.16406 1.1055-0.45703s0.45703-0.69141 0.45703-1.1055v-0.91406l4.0391 4.0391-4.0391 4.0391v-0.91406c0-0.41406-0.16406-0.8125-0.45703-1.1055s-0.69141-0.45703-1.1055-0.45703h-7.8125c-0.86328 0-1.5625 0.69922-1.5625 1.5625v26.562c0 0.41406 0.16406 0.8125 0.45703 1.1055s0.69141 0.45703 1.1055 0.45703h7.8125c0.41406 0 0.8125-0.16406 1.1055-0.45703s0.45703-0.69141 0.45703-1.1055v-0.91406l4.0391 4.0391-4.0391 4.0391v-0.91406c0-0.41406-0.16406-0.8125-0.45703-1.1055s-0.69141-0.45703-1.1055-0.45703h-7.8125c-0.86328 0-1.5625 0.69922-1.5625 1.5625v26.562c0 0.41406 0.16406 0.8125 0.45703 1.1055s0.69141 0.45703 1.1055 0.45703h7.8125c0.41406 0 0.8125-0.16406 1.1055-0.45703s0.45703-0.69141 0.45703-1.1055v-0.91406l4.0391 4.0391-4.0391 4.0391v-0.91406c0-0.41406-0.16406-0.8125-0.45703-1.1055s-0.69141-0.45703-1.1055-0.45703h-10.938c-0.86328 0-1.5625-0.69922-1.5625-1.5625v-29.688c0-0.41406-0.16406-0.8125-0.45703-1.1055s-0.69141-0.45703-1.1055-0.45703h-9.375v3.125h7.8125zm29.688-14.062h18.75c2.5898 0 4.6875 2.0977 4.6875 4.6875s-2.0977 4.6875-4.6875 4.6875h-18.75c-2.5898 0-4.6875-2.0977-4.6875-4.6875s2.0977-4.6875 4.6875-4.6875zm-4.6875 14.062v-3.1289c1.3516 1.0195 2.9961 1.5664 4.6875 1.5664h18.75c1.6914 0 3.3359-0.54688 4.6875-1.5664v6.2539c-0.003906 2.5859-2.1016 4.6836-4.6875 4.6875h-18.75c-2.5859-0.003906-4.6836-2.1016-4.6875-4.6875zm4.6875-46.875h18.75c2.5898 0 4.6875 2.0977 4.6875 4.6875s-2.0977 4.6875-4.6875 4.6875h-18.75c-2.5898 0-4.6875-2.0977-4.6875-4.6875s2.0977-4.6875 4.6875-4.6875zm-4.6875 14.062v-3.1289c1.3516 1.0195 2.9961 1.5664 4.6875 1.5664h18.75c1.6914 0 3.3359-0.54688 4.6875-1.5664v6.2539c-0.003906 2.5859-2.1016 4.6836-4.6875 4.6875h-18.75c-2.5859-0.003906-4.6836-2.1016-4.6875-4.6875zm4.6875-46.875h18.75c2.5898 0 4.6875 2.0977 4.6875 4.6875s-2.0977 4.6875-4.6875 4.6875h-18.75c-2.5898 0-4.6875-2.0977-4.6875-4.6875s2.0977-4.6875 4.6875-4.6875zm-4.6875 14.062v-3.1289c1.3516 1.0195 2.9961 1.5664 4.6875 1.5664h18.75c1.6914 0 3.3359-0.54688 4.6875-1.5664v6.2539c-0.003906 2.5859-2.1016 4.6836-4.6875 4.6875h-18.75c-2.5859-0.003906-4.6836-2.1016-4.6875-4.6875z"/>
  <path d="m48.438 21.875h3.125v3.125h-3.125z"/>
  <path d="m54.688 21.875h3.125v3.125h-3.125z"/>
  <path d="m42.188 21.875h3.125v3.125h-3.125z"/>
  <path d="m48.438 54.688h3.125v3.125h-3.125z"/>
  <path d="m54.688 54.688h3.125v3.125h-3.125z"/>
  <path d="m42.188 54.688h3.125v3.125h-3.125z"/>
  <path d="m48.438 87.5h3.125v3.125h-3.125z"/>
  <path d="m54.688 87.5h3.125v3.125h-3.125z"/>
  <path d="m42.188 87.5h3.125v3.125h-3.125z"/>
 </g>
</svg>
