<?xml version="1.0" encoding="UTF-8"?>
<svg width="100pt" height="100pt" version="1.1" viewBox="0 0 100 100" xmlns="http://www.w3.org/2000/svg">
 <g>
  <path d="m95.516 59.098c-0.15625-0.11719-15.691-11.871-29.906-38.293-0.32031-0.59375-0.89844-1.0352-1.625-1.2422-0.94141-0.26562-2.0898-0.12109-2.9258 0.36719-0.078125 0.046874-0.16016 0.097656-0.23828 0.15234-0.71875 0.49609-1.2148 1.2422-1.4414 2.0781-1.9062-2.3125-3.6914-4.4648-4.707-5.6484-0.85547-0.99609-2.1719-1.3359-3.6094-0.9375-1.7734 0.49219-3.2969 1.9766-3.5469 3.4531-0.25781 1.5234 1.4492 4.375 3.1289 6.7422-1.5039-0.57812-3.0625-0.94531-4.6055-0.94531-5.3086 0-9.9609 3.8672-10.273 7.0703-0.12891 1.3086 0.53125 2.8672 2.7578 3.3086 2.6133 0.51562 3.4961 0.085937 4.543-0.62891 0.60547-0.41406 1.2891-0.88281 3.2578-1.0938 2.4648-0.26953 4.4414 1.1211 5.6445 2.2969-3.375 0.33984-6.0664 1.6602-8.0273 3.9609-4.0547 4.7578-3.5039 12.234-2.9922 13.816 0.45703 1.4141 1.3945 1.8477 1.9102 1.9844 1.1875 0.30469 2.6094-0.24219 4.0039-1.543 0.89844-0.83984 1.2578-2.1289 1.6367-3.4922 0.51953-1.8633 1.1055-3.9727 3.1328-5.5078 1.5586-1.1797 3.0664-1.0898 4.0586-0.8125 1.6719 0.47266 3.2031 1.8477 3.8164 3.4219 1.125 2.8906-0.80078 6.6289-5.0195 9.7578-2.0234 1.5-3.2383 0.66797-4.6445-0.30078-0.89062-0.61328-1.8164-1.2461-2.8906-0.99219-0.71875 0.16797-1.3164 0.69922-1.8242 1.6211-0.79297 1.4375-0.76172 3.0391 0.085938 4.5078 1.625 2.8125 6.0898 4.918 10.621 5.0039 3.7734 0.082031 7.7422-1.5078 10.391-2.8438 1.3555-0.6875 2.9961-0.44922 4.082 0.59375l7.582 7.2773c0.20312 0.19531 0.46094 0.28906 0.71875 0.28906 0.27344 0 0.54688-0.10938 0.75-0.32031 0.39844-0.41406 0.38281-1.0742-0.03125-1.4727l-7.582-7.2773c-1.7227-1.6523-4.3203-2.0352-6.4609-0.94922-2.4375 1.2305-6.0391 2.6836-9.4102 2.6211-3.7891-0.074219-7.5938-1.7773-8.8594-3.9648-0.49219-0.85156-0.51172-1.6562-0.066406-2.4648 0.29688-0.53906 0.48047-0.60547 0.48047-0.60547 0.17969-0.042969 0.86328 0.42969 1.2344 0.67969 1.4375 0.98828 3.8398 2.6406 7.0586 0.25391 5.0078-3.7109 7.1992-8.3828 5.7227-12.184-0.84766-2.1836-2.8867-4.0156-5.1875-4.668-2.0469-0.57812-4.1328-0.16797-5.8828 1.1562-2.5859 1.9609-3.3047 4.5352-3.8789 6.6055-0.3125 1.1211-0.58203 2.0898-1.0508 2.5273-0.91797 0.85547-1.6953 1.1445-2.0625 1.0508-0.18359-0.046874-0.33594-0.25391-0.45312-0.60937-0.36328-1.125-0.84766-7.7891 2.5938-11.828 2.418-2.8398 6.3086-3.8672 11.559-3.0508 0.57031 0.089844 1.0977-0.30078 1.1875-0.86719 0.085938-0.56641-0.30078-1.0977-0.86719-1.1875-0.94531-0.14453-1.8477-0.23047-2.7188-0.26953-0.96484-1.2812-4.0352-4.7812-8.582-4.2969-2.4883 0.26562-3.4844 0.94531-4.2109 1.4453-0.67188 0.46094-1.0117 0.69141-2.9648 0.30469-1.1719-0.23047-1.1172-0.79297-1.0898-1.0625 0.17969-1.8242 3.6797-5.1953 8.2031-5.1953 6.5 0 13.941 8.0156 14.02 8.0938 0.38672 0.42188 1.0469 0.45312 1.4688 0.0625 0.42188-0.38672 0.45312-1.0469 0.0625-1.4688-0.1875-0.20703-2.8633-3.0859-6.5117-5.4883-3.3125-3.9297-5.6367-7.8359-5.5078-8.7266 0.10156-0.60547 1.0039-1.5039 2.0508-1.7969 0.45312-0.125 1.0742-0.17578 1.4727 0.28906 2.9141 3.3906 12.258 14.887 12.352 15.004 0.20703 0.25391 0.50391 0.38281 0.80859 0.38281 0.23047 0 0.46094-0.078126 0.65625-0.23438 0.44531-0.36328 0.51172-1.0156 0.15234-1.4648-0.046875-0.058594-2.5664-3.1602-5.3945-6.6133-0.003907-0.039063-0.007813-0.078126-0.015625-0.11328l-0.28906-1.2188c-0.16797-0.70703 0.089844-1.4375 0.64453-1.8164 0.035157-0.023438 0.070313-0.046875 0.10156-0.066406 0.35547-0.20703 0.90625-0.27344 1.3125-0.16016 0.10547 0.03125 0.28906 0.097656 0.35938 0.22656 14.445 26.871 30.332 38.867 30.492 38.984 0.1875 0.14062 0.40234 0.20703 0.62109 0.20703 0.31641 0 0.63281-0.14453 0.83594-0.41797 0.33984-0.46094 0.24609-1.1133-0.21484-1.457z"/>
  <path d="m15.176 67.406c-0.054687 0.003906-0.10938 0.003906-0.16406-0.003906-0.46094-0.054688-0.79297-0.47266-0.73828-0.93359 0.91797-7.832-0.90234-12.66-2.4023-15.188l-1.3906-0.64062c-0.27734-0.12891-0.46484-0.39453-0.48828-0.69922l-0.11719-1.4492c-0.027344-0.33984 0.15234-0.66016 0.45312-0.81641s0.66797-0.11719 0.92578 0.10156c0.085938 0.070312 0.78906 0.67578 1.6406 1.9375 2.625-0.31641 13.168-0.67578 20.637 12.777 0.22656 0.40625 0.078125 0.91797-0.32812 1.1445-0.41016 0.22656-0.92188 0.078125-1.1445-0.32812-6.5039-11.711-15.113-12.246-18.227-12.012 1.5234 2.9375 2.9922 7.8711 2.1133 15.367-0.046874 0.40625-0.375 0.71094-0.76953 0.74219z"/>
  <path d="m26.262 73.422c-0.61328-2.0625-1.8359-4.7383-4.1953-5.7852-1.5117-0.67188-3.3438-0.61328-5.4609 0.17578 1.5391 0.55469 2.5938 1.1445 2.6797 1.1953 0.26953 0.15234 0.36328 0.49609 0.21094 0.76563-0.15234 0.26953-0.49609 0.36328-0.76562 0.21094-0.039063-0.023437-4.1211-2.3047-7.8828-2.0039-3.7148 0.29297-6.4453 5.6289-6.1914 8.8242 0.64453 8.1094 4.4531 11.773 11.645 11.203 3.6719-0.29297 6.4414-1.7617 8.2305-4.3711 2.4219-3.5312 2.3477-8.1406 1.7305-10.215zm-15.59-0.28125c-0.078125 0.41016-0.38281 0.73828-0.77734 0.86328-0.17578 0.054688-1.3828 0.3125-1.707 0.23438-0.47656-0.11328-0.78125-0.55469-0.8125-1.0312-0.050781-0.83203 0.52734-1.4492 1.2227-1.6289 0.84375-0.21484 1.2891-0.003906 1.5664 0.22266 0.26953 0.22266 0.41406 0.48828 0.5 0.81641 0.035157 0.14453 0.039063 0.35547 0.007813 0.52344z"/>
  <path d="m41.227 65.488c-0.83203-1.293-2.0352-2.1875-3.3086-2.4531-1.7227-0.35938-2.4453 0.19531-3.1367 0.73438-0.40234 0.3125-0.82031 0.63672-1.3789 0.67969-0.50781 0.039062-0.97266-0.0625-1.5117-0.17969-0.86328-0.1875-1.9375-0.42188-3.8867-0.26953-2.3164 0.18359-3.5664 2.6797-3.9492 3.5977 1.4297 1.1914 2.5508 3.0469 3.2812 5.5 0.35937 1.2031 0.54297 3.1836 0.25 5.3516 0.91797 0.34766 3.3672 1.1836 5.8086 1.1992 3.6992 0.019531 7.418-0.44922 8.7344-6.2891 0.69922-3.0781 0.37891-5.875-0.90234-7.8711zm-11.359 3.2773c-0.39063 0.015625-0.79297-0.21484-1.1641-0.31641-0.011719-0.003907-0.023437-0.011719-0.035156-0.015625-0.25781-0.066406-0.49609-0.27344-0.58203-0.50781-0.15625-0.43359 0.089843-0.82422 0.47656-1.0156 0.72266-0.35938 1.8047-0.046875 2.082 0.74609 0.1875 0.53906-0.22266 1.0859-0.77734 1.1094z"/>
 </g>
</svg>
