<?xml version="1.0" encoding="UTF-8"?>
<svg width="100pt" height="100pt" version="1.1" viewBox="0 0 100 100" xmlns="http://www.w3.org/2000/svg">
 <path d="m83.086 70.789c-4.8711 0-8.9688 3.1602-10.465 7.5273-1.9688-0.72656-3.8477-1.6367-5.4727-2.7344-3.5898-2.4258-6.5625-7.0156-9.2969-11.512l-1.0859-1.8008c-2.2344-3.7227-4.5703-7.4961-7.5039-10.348h21.742c0.86719 5.2695 5.4062 9.3047 10.926 9.3047 6.1328 0 11.105-4.9727 11.105-11.105 0-6.1328-4.9727-11.105-11.105-11.105-5.5195 0-10.066 4.0391-10.926 9.3164l-20.945-0.003906c2.9727-2.7852 5.0273-6.1797 7.1602-9.7812l1.418-2.3672c2.7344-4.4922 5.7031-9.0859 9.2969-11.512 1.4297-0.96484 3.0625-1.7812 4.7695-2.4609 1.5703 4.2266 5.6055 7.2539 10.379 7.2539 6.1328 0 11.105-4.9727 11.105-11.105 0-6.1328-4.9727-11.105-11.105-11.105-6.1328 0-11.105 4.9727-11.105 11.105 0 0.09375 0.023438 0.17969 0.027344 0.26953-2.1719 0.81641-4.2539 1.832-6.082 3.0664-4.1914 2.8281-7.4141 7.7891-10.355 12.621l-1.4375 2.4062c-2.1992 3.7148-4.0977 6.918-6.9375 9.4062-1.7617 1.5469-4.8438 2.0664-7.1992 2.2031h-1.125c-0.82031-0.023437-1.4102-0.007813-1.6055 0h-10.234c-0.87891-5.2539-5.4141-9.2695-10.922-9.2695-6.1328 0.003906-11.105 4.9766-11.105 11.109 0 6.1328 4.9727 11.105 11.105 11.105 5.5312 0 10.086-4.0586 10.93-9.3516h10.273c0.17578 0.011719 0.63281 0.042969 1.3789 0.042969 0.23047 0 0.50781-0.007813 0.77734-0.015625 2.3164 0.125 5.0938 0.57031 6.3125 1.5703 3.0664 2.5156 5.5312 6.6211 7.9141 10.594l1.0977 1.8242c2.9414 4.8359 6.1641 9.7891 10.355 12.621 2.0352 1.375 4.3984 2.4531 6.8438 3.3047 0 0.011719-0.003906 0.023438-0.003906 0.035157-0.003906 6.1289 4.9648 11.102 11.102 11.102 6.1328 0 11.105-4.9727 11.105-11.105 0-6.1328-4.9727-11.105-11.105-11.105z"/>
</svg>
