<?xml version="1.0" encoding="UTF-8"?>
<svg width="100pt" height="100pt" version="1.1" viewBox="0 0 100 100" xmlns="http://www.w3.org/2000/svg">
 <path d="m94.25 54.223h-5.9922c-0.50391-7.2656-6.5586-13.031-13.949-13.031h-9.4766c-1.1055 0-2 0.89453-2 2v3.3633h-6.5391v-25.434c0-0.82812-0.67188-1.5-1.5-1.5h-4.6328c-0.57422-1.2773-1.8555-2.1758-3.3477-2.1758-1.1328 0-2.1328 0.52344-2.8047 1.3281-0.89453-6.8633-6.7656-12.188-13.867-12.188h-9.4766c-1.1055 0-2 0.89453-2 2v5.3633l-12.832 0.003906v3h12.828v8.332h-12.828v3h6.293v14.715c0 0.82812 0.67188 1.5 1.5 1.5h28.668v11.223c0 0.82812 0.67188 1.5 1.5 1.5h19.039v4.668l-8.332-0.003906c-0.82812 0-1.5 0.67188-1.5 1.5v18.5h-14.09c-0.57422-1.2773-1.8555-2.1758-3.3477-2.1758-1.5742 0-2.9141 1.0039-3.4336 2.3984-0.14844-0.17578-15.824-9.293-15.824-9.293-0.61719-0.35547-1.3828-0.35547-2 0-0.61719 0.35547-1 1.0195-1 1.7305v7.3359l-7.4727 0.003907v3h7.4727v7.3359c0 0.71484 0.38281 1.375 1 1.7305 0.30859 0.17969 0.65234 0.26953 1 0.26953 0.34766 0 0.69141-0.089844 1-0.26953 0 0 15.676-9.1172 15.824-9.293 0.51953 1.3984 1.8555 2.3984 3.4336 2.3984 1.4922 0 2.7695-0.89453 3.3477-2.1758l15.59 0.003907c0.82812 0 1.5-0.67188 1.5-1.5v-18.5h6.832v3.3633c0 1.1055 0.89453 2 2 2h9.4766c7.3945 0 13.449-5.7656 13.949-13.031h5.9922zm-76.945 34.539v-10.746l9.3047 5.3711zm18.258-3.6992c-0.92578 0-1.6758-0.75-1.6758-1.6758s0.75-1.6758 1.6758-1.6758 1.6758 0.75 1.6758 1.6758-0.75391 1.6758-1.6758 1.6758zm11.25-65.617c0.92578 0 1.6758 0.75 1.6758 1.6758 0 0.92188-0.75 1.6758-1.6758 1.6758s-1.6758-0.75-1.6758-1.6758c0-0.92578 0.75-1.6758 1.6758-1.6758zm-24.152-8.8555h7.4766c5.5156 0 10 4.4844 10 10v1.0625c0 5.5156-4.4844 10-10 10h-7.4766zm22.633 43.633v-11.223c0-0.82812-0.67188-1.5-1.5-1.5h-28.668v-13.215h3.5352v5.3633c0 1.1055 0.89453 2 2 2h9.4766c7.1055 0 12.977-5.3203 13.867-12.188 0.67578 0.80469 1.6758 1.3281 2.8047 1.3281 1.4922 0 2.7695-0.89453 3.3477-2.1758h3.1328v25.434c0 0.82812 0.67188 1.5 1.5 1.5h8.0391v4.6641l-17.535 0.007812zm39.016 2.0312c0 5.5156-4.4844 10-10 10h-7.4766v-21.062h7.4766c5.5156 0 10 4.4844 10 10z"/>
</svg>
