<?xml version="1.0" encoding="UTF-8"?>
<svg width="100pt" height="100pt" version="1.1" viewBox="0 0 100 100" xmlns="http://www.w3.org/2000/svg">
 <g>
  <path d="m73.438 100h-46.875c-6.0391-0.007812-10.93-4.8984-10.938-10.938v-55.492c-0.007812-2.9023 1.1445-5.6875 3.2031-7.7344l3.0469-3.0469v-5.6016c0-0.86328 0.69922-1.5625 1.5625-1.5625h53.125c0.41406 0 0.8125 0.16406 1.1055 0.45703s0.45703 0.69141 0.45703 1.1055v5.6016l3.0469 3.0469c2.0586 2.0469 3.2109 4.832 3.2031 7.7344v55.492c-0.007812 6.0391-4.8984 10.93-10.938 10.938zm-48.438-81.25v4.6875c0 0.41406-0.16406 0.8125-0.45703 1.1055l-3.5039 3.5039c-1.4688 1.4609-2.293 3.4492-2.2891 5.5234v55.492c0.003906 4.3125 3.5 7.8086 7.8125 7.8125h46.875c4.3125-0.003906 7.8086-3.5 7.8125-7.8125v-55.492c0.003906-2.0742-0.82031-4.0625-2.2891-5.5234l-3.5039-3.5039c-0.29297-0.29297-0.45703-0.69141-0.45703-1.1055v-4.6875z"/>
  <path d="m78.906 18.75h-57.812c-2.1562 0-3.9062-1.75-3.9062-3.9062s1.75-3.9062 3.9062-3.9062h57.812c2.1562 0 3.9062 1.75 3.9062 3.9062s-1.75 3.9062-3.9062 3.9062zm-57.812-4.6875c-0.42969 0-0.78125 0.35156-0.78125 0.78125s0.35156 0.78125 0.78125 0.78125h57.812c0.42969 0 0.78125-0.35156 0.78125-0.78125s-0.35156-0.78125-0.78125-0.78125z"/>
  <path d="m76.562 14.062h-53.125c-0.86328 0-1.5625-0.69922-1.5625-1.5625v-7.8125c0-2.5898 2.0977-4.6875 4.6875-4.6875h46.875c2.5898 0 4.6875 2.0977 4.6875 4.6875v7.8125c0 0.41406-0.16406 0.8125-0.45703 1.1055s-0.69141 0.45703-1.1055 0.45703zm-51.562-3.125h50v-6.25c0-0.41406-0.16406-0.8125-0.45703-1.1055s-0.69141-0.45703-1.1055-0.45703h-46.875c-0.86328 0-1.5625 0.69922-1.5625 1.5625z"/>
  <path d="m29.688 6.25h3.125v6.25h-3.125z"/>
  <path d="m35.938 6.25h3.125v6.25h-3.125z"/>
  <path d="m42.188 6.25h3.125v6.25h-3.125z"/>
  <path d="m48.438 6.25h3.125v6.25h-3.125z"/>
  <path d="m54.688 6.25h3.125v6.25h-3.125z"/>
  <path d="m60.938 6.25h3.125v6.25h-3.125z"/>
  <path d="m67.188 6.25h3.125v6.25h-3.125z"/>
  <path d="m60.695 95.336c-3.5664 0.089843-6.9766-1.4492-9.2734-4.1797-16.07-20.043-20.223-28.484-26.148-53.125-0.625-2.7656-0.11328-5.6641 1.4219-8.0469 2-3.1211 5.1602-5.3242 8.7812-6.125l0.21875-0.050781c6.6172-1.5234 12.867 1.7109 14.219 7.3672 5.2656 22.012 8.2266 28.02 22.602 45.91l0.003906 0.003906c1.6289 2.0273 2.3438 4.6367 1.9766 7.2109-0.53516 3.293-2.3867 6.2266-5.1289 8.125l-0.17969 0.12891c-2.4688 1.7969-5.4414 2.7695-8.4922 2.7812zm-6.8359-6.1406c2.9102 3.6328 9.0938 4.0078 13.496 0.82422l0.17969-0.12891 0.003906 0.003906c2.0508-1.3945 3.4492-3.5664 3.8672-6.0117 0.26172-1.7266-0.21484-3.4844-1.3164-4.8438-14.605-18.164-17.859-24.773-23.215-47.133-0.94922-3.9688-5.5547-6.1836-10.48-5.0508l-0.21875 0.050781c-2.8125 0.60938-5.2656 2.3086-6.8281 4.7266-1.0938 1.6719-1.4688 3.7148-1.043 5.668 5.7891 24.062 9.8438 32.312 25.551 51.898z"/>
  <path d="m31.27 36.406c-1.0547-6.7969-0.13281-10.906 2.75-12.207l1.2891 2.8477c-1.0039 0.45312-1.8516 3.0547-0.94922 8.8828z"/>
  <path d="m32.59 42.578c-0.28906-1.1016-0.54688-2.1602-0.76562-3.1797l3.0547-0.65625c0.21094 0.97266 0.45312 1.9883 0.73047 3.0391z"/>
  <path d="m68.805 92.883c-8.6172-0.1875-19.164-10.855-27.527-27.848v-0.003906c-3.0938-6.207-5.6953-12.648-7.7773-19.266l2.9883-0.91406c2.0352 6.457 4.5742 12.742 7.5938 18.801 7.7266 15.699 17.461 25.945 24.793 26.102z"/>
  <path d="m61.508 82.141c-5.7148-5.1367-10.309-11.398-13.5-18.391-7.2422-14.707-11.023-30.469-8.8008-36.68 0.33984-1.1758 1.1562-2.1562 2.25-2.707l1.2891 2.8477h-0.003906c-0.29297 0.23047-0.50391 0.55078-0.59375 0.91406-1.6602 4.6328 1.1797 19.043 8.6641 34.242v0.003906c2.9961 6.5938 7.3125 12.504 12.688 17.363z"/>
  <path d="m73.402 87.273c-3.3008-0.17188-6.4883-1.2617-9.2031-3.1484l1.6992-2.6211v-0.003906c2.2305 1.5703 4.8516 2.4844 7.5742 2.6484z"/>
  <path d="m68.465 72.609-2.7578-1.4727c4.2891-8.0391 6.5234-15.949 9.1484-27.73 0.82812-3.7148-1.957-7.7227-6.082-8.75l-0.16797-0.042969-0.003907 0.003907c-1.8594-0.50391-3.8438-0.24219-5.5078 0.72656-1.2617 0.76562-2.1562 2.0156-2.4688 3.457-1.4766 6.6641-2.6211 11.094-3.8281 14.809l-2.9688-0.96875c1.1758-3.6133 2.2969-7.9531 3.75-14.516 0.5-2.2656 1.9023-4.2266 3.8828-5.4336 2.3789-1.4141 5.2266-1.8125 7.9023-1.1055l0.16797 0.039062c5.6875 1.2305 9.3867 6.7344 8.3828 12.465-2.6953 12.051-4.9922 20.164-9.4492 28.52z"/>
  <path d="m49.242 93.758c-2.5469-0.019531-5.0117-0.88672-7.0078-2.4648l-0.14062-0.10938c-4.4727-3.4883-5.6016-9.4062-2.5742-13.473 0.52734-0.71094 1.0391-1.4023 1.5312-2.0703l2.5195 1.8477c-0.49609 0.67578-1.0117 1.375-1.5469 2.0938-2.0039 2.6914-1.1328 6.707 1.9883 9.1406l0.14062 0.10938v-0.003906c2.3242 1.8984 5.5312 2.3086 8.2578 1.0547l1.4297 2.7812c-1.4219 0.72656-3 1.1016-4.5977 1.0938z"/>
  <path d="m66.98 63.098-2.8867-1.1953c6.8281-16.461 7.082-26.273 5.3047-27.145l1.3711-2.8125c5.6016 2.7422 1.4609 18.496-3.7891 31.152z"/>
  <path d="m62.969 58.34-2.9375-1.0586c5.0312-13.977 4.4805-21.68 3.4141-22.387l1.3789-2.8125c4.4297 2.1758 2.1445 15.137-1.8555 26.258z"/>
  <path d="m23.438 40.625h-3.125v-3.9297c-0.007812-2.9023 1.1445-5.6875 3.2031-7.7344 1.9219-1.8594 3.0195-4.4102 3.0469-7.0859h3.125c-0.023438 3.5039-1.4492 6.8516-3.9609 9.2969-1.4688 1.4648-2.293 3.4492-2.2891 5.5234z"/>
  <path d="m20.312 43.75h3.125v3.125h-3.125z"/>
  <path d="m71.875 95.312h-43.75c-4.3125-0.003906-7.8086-3.5-7.8125-7.8125v-37.5h3.125v37.5c0 2.5898 2.0977 4.6875 4.6875 4.6875h43.75c2.5898 0 4.6875-2.0977 4.6875-4.6875v-3.125h3.125v3.125c-0.003906 4.3125-3.5 7.8086-7.8125 7.8125z"/>
  <path d="m79.688 81.25h-3.125v-44.555c0.003906-2.0742-0.82031-4.0625-2.2891-5.5234-2.5078-2.4453-3.9375-5.793-3.9609-9.2969h3.125c0.027344 2.6719 1.1211 5.2266 3.043 7.0859 2.0586 2.0469 3.2148 4.832 3.207 7.7344z"/>
  <path d="m29.688 87.5c-0.41406 0-0.8125-0.16406-1.1055-0.45703l-3.125-3.125 2.2109-2.2109 2.0195 2.0195 2.0195-2.0195 2.2109 2.2109-3.125 3.125c-0.29297 0.29297-0.69141 0.45703-1.1055 0.45703z"/>
  <path d="m29.688 81.25c-0.41406 0-0.8125-0.16406-1.1055-0.45703l-3.125-3.125 2.2109-2.2109 2.0195 2.0195 2.0195-2.0195 2.2109 2.2109-3.125 3.125c-0.29297 0.29297-0.69141 0.45703-1.1055 0.45703z"/>
  <path d="m29.688 75c-0.41406 0-0.8125-0.16406-1.1055-0.45703l-3.125-3.125 2.2109-2.2109 2.0195 2.0195 2.0195-2.0195 2.2109 2.2109-3.125 3.125c-0.29297 0.29297-0.69141 0.45703-1.1055 0.45703z"/>
  <path d="m28.125 64.062h3.125v3.125h-3.125z"/>
  <path d="m28.125 85.938h3.125v3.125h-3.125z"/>
  <path d="m54.688 43.75c-0.41406 0-0.8125-0.16406-1.1055-0.45703l-3.125-3.125 2.2109-2.2109 2.0195 2.0195 2.0195-2.0195 2.2109 2.2109-3.125 3.125c-0.29297 0.29297-0.69141 0.45703-1.1055 0.45703z"/>
  <path d="m54.688 37.5c-0.41406 0-0.8125-0.16406-1.1055-0.45703l-3.125-3.125 2.2109-2.2109 2.0195 2.0195 2.0195-2.0195 2.2109 2.2109-3.125 3.125c-0.29297 0.29297-0.69141 0.45703-1.1055 0.45703z"/>
  <path d="m54.688 31.25c-0.41406 0-0.8125-0.16406-1.1055-0.45703l-3.125-3.125 2.2109-2.2109 2.0195 2.0195 2.0195-2.0195 2.2109 2.2109-3.125 3.125c-0.29297 0.29297-0.69141 0.45703-1.1055 0.45703z"/>
  <path d="m53.125 20.312h3.125v3.125h-3.125z"/>
 </g>
</svg>
