<?xml version="1.0" encoding="UTF-8"?>
<svg width="100pt" height="100pt" version="1.1" viewBox="0 0 100 100" xmlns="http://www.w3.org/2000/svg">
 <g>
  <path d="m80.039 53.613c-2.793-8.7695-5.957-18.691-10.449-24.023-6.9141-8.1836-12.949-8.8477-19.59-8.8477s-12.676 0.66406-19.59 8.8477c-4.4922 5.332-7.6562 15.273-10.449 24.023-1.6992 5.3516-4.8828 15.332-6.582 15.332v3.3203c3.9453 0 6.0547-6.0547 9.7461-17.656 2.6953-8.4766 5.7617-18.066 9.8242-22.891 6.0156-7.1094 10.859-7.6758 17.031-7.6758s11.035 0.54688 17.031 7.6758c4.0625 4.8242 7.1289 14.414 9.8242 22.891 3.6914 11.602 5.8008 17.656 9.7461 17.656v-3.3203c-1.6602 0-4.8438-9.9805-6.543-15.332z"/>
  <path d="m31.68 47.305c0 4.4258-3.3203 4.4258-3.3203 0 0-4.4258 3.3203-4.4258 3.3203 0"/>
  <path d="m68.301 47.305c0 4.4258-3.3203 4.4258-3.3203 0 0-4.4258 3.3203-4.4258 3.3203 0"/>
  <path d="m54.16 42.305c-1.4453 0-2.832 0.27344-4.1602 0.83984-1.3281-0.54688-2.7148-0.83984-4.1602-0.83984-5.957 0-10.82 4.8633-10.82 10.82 0 4.7852 3.1836 8.9453 7.6953 10.312 1.6797 4.8438 4.9023 11.289 5.7227 12.91l1.4844 2.9102 1.4844-2.9102c0.82031-1.6211 4.0234-8.0078 5.7031-12.852 4.6094-1.3086 7.8906-5.4688 7.8906-10.371-0.019531-5.957-4.8633-10.82-10.84-10.82zm-4.2383 29.531c-2.3047-4.8047-4.9023-10.879-4.9023-12.793 0-2.7148 2.207-4.9023 4.9023-4.9023s4.9023 2.207 4.9023 4.9023c0 1.9141-2.5977 7.9688-4.9023 12.793zm8.2031-12.363c0.019531-0.15625 0.039062-0.3125 0.039062-0.42969 0-4.5508-3.6914-8.2422-8.2422-8.2422s-8.2422 3.6914-8.2422 8.2422c0 0.097656 0.019531 0.21484 0.019531 0.3125-2.0312-1.3672-3.3594-3.6719-3.3594-6.2305 0-4.1211 3.3594-7.5 7.5-7.5 1.1914 0 2.3242 0.27344 3.3984 0.82031l0.76172 0.39063 0.76172-0.39063c1.0742-0.54687 2.207-0.82031 3.3984-0.82031 4.1211 0 7.5 3.3594 7.5 7.5 0 2.6562-1.4062 5.0195-3.5352 6.3477z"/>
 </g>
</svg>
