<?xml version="1.0" encoding="UTF-8"?>
<svg width="100pt" height="100pt" version="1.1" viewBox="0 0 100 100" xmlns="http://www.w3.org/2000/svg">
 <g>
  <path d="m29.711 66.875h-0.078126c-13.82-0.039062-24.633-10.648-24.633-24.188v-37.688h49.219v37.688c0 13.539-10.758 24.148-24.508 24.188zm-21.898-59.062v34.875c0 11.973 9.5977 21.355 21.859 21.375 12.191-0.019531 21.734-9.4023 21.734-21.375v-34.875z"/>
  <path d="m29.836 56.648c-7.7539 0-14.062-5.8047-14.062-12.945 0-0.77734 0.62891-1.4062 1.4062-1.4062 0.77734 0 1.4062 0.62891 1.4062 1.4062 0 5.5859 5.0469 10.133 11.25 10.133 6.2031 0 11.25-4.5469 11.25-10.133 0-0.77734 0.62891-1.4062 1.4062-1.4062 0.77734 0 1.4062 0.62891 1.4062 1.4062-0.003907 7.1367-6.3086 12.945-14.062 12.945z"/>
  <path d="m19.262 32.34c-3.8633 0-7.0078-2.9219-7.0078-6.5117 0-0.77734 0.62891-1.4062 1.4062-1.4062s1.4062 0.62891 1.4062 1.4062c0 2.0391 1.8828 3.6992 4.1953 3.6992s4.1953-1.6602 4.1953-3.6992c0-0.77734 0.62891-1.4062 1.4062-1.4062 0.77734 0 1.4062 0.62891 1.4062 1.4062 0 3.5938-3.1406 6.5117-7.0078 6.5117z"/>
  <path d="m40.406 32.34c-3.8633 0-7.0078-2.9219-7.0078-6.5117 0-0.77734 0.62891-1.4062 1.4062-1.4062 0.77734 0 1.4062 0.62891 1.4062 1.4062 0 2.0391 1.8828 3.6992 4.1953 3.6992s4.1953-1.6602 4.1953-3.6992c0-0.77734 0.62891-1.4062 1.4062-1.4062 0.77734 0 1.4062 0.62891 1.4062 1.4062-0.003906 3.5938-3.1445 6.5117-7.0078 6.5117z"/>
  <path d="m70.492 95h-0.078126c-13.82-0.039062-24.633-10.648-24.633-24.188v-5.3438c0-0.77734 0.62891-1.4062 1.4062-1.4062s1.4062 0.62891 1.4062 1.4062v5.3438c0 11.973 9.5977 21.355 21.859 21.375 12.191-0.019531 21.734-9.4023 21.734-21.375v-34.875h-33.75c-0.77734 0-1.4062-0.62891-1.4062-1.4062s0.62891-1.4062 1.4062-1.4062h36.562v37.688c0 13.539-10.758 24.148-24.508 24.188z"/>
  <path d="m70.613 84.773c-7.7539 0-14.062-5.8047-14.062-12.945 0-0.77734 0.62891-1.4062 1.4062-1.4062 0.77734 0 1.4062 0.62891 1.4062 1.4062 0 5.5859 5.0469 10.133 11.25 10.133s11.25-4.5469 11.25-10.133c0-0.77734 0.62891-1.4062 1.4062-1.4062 0.77734 0 1.4062 0.62891 1.4062 1.4062 0.003907 7.1367-6.3086 12.945-14.062 12.945z"/>
  <path d="m86.785 60.465c-0.77734 0-1.4062-0.62891-1.4062-1.4062 0-2.0391-1.8828-3.6992-4.1953-3.6992s-4.1953 1.6602-4.1953 3.6992c0 0.77734-0.62891 1.4062-1.4062 1.4062-0.77734 0-1.4062-0.62891-1.4062-1.4062 0-3.5898 3.1445-6.5117 7.0078-6.5117 3.8633 0 7.0078 2.9219 7.0078 6.5117 0 0.77734-0.62891 1.4062-1.4062 1.4062z"/>
  <path d="m65.645 60.465c-0.77734 0-1.4062-0.62891-1.4062-1.4062 0-2.0391-1.8828-3.6992-4.1953-3.6992s-4.1953 1.6602-4.1953 3.6992c0 0.77734-0.62891 1.4062-1.4062 1.4062s-1.4062-0.62891-1.4062-1.4062c0-3.5898 3.1445-6.5117 7.0078-6.5117s7.0078 2.9219 7.0078 6.5117c0 0.77734-0.62891 1.4062-1.4062 1.4062z"/>
 </g>
</svg>
