<?xml version="1.0" encoding="UTF-8"?>
<svg width="100pt" height="100pt" version="1.1" viewBox="0 0 100 100" xmlns="http://www.w3.org/2000/svg">
 <path d="m33.5 47.301c3.1016 0 5.6016 2.5 5.6016 5.6016 0 3.1016-2.5 5.6016-5.6016 5.6016s-5.6016-2.5-5.6016-5.6016c0-3.1016 2.5-5.6016 5.6016-5.6016zm18.602 11.699h-3.8984c-0.69922 0-1.1016 0.60156-0.60156 1.1016l1.8984 2.3008c0.30078 0.39844 0.89844 0.39844 1.3008 0l2-2.1992c0.30078-0.50391 0-1.2031-0.69922-1.2031zm27.898-16.898c2.3008 4.3008 3.8008 9 4.3984 13.602 1.1992 9.5-1.6992 18.301-8.1016 24.699-6.3984 6.3984-15.297 10.598-26.297 10.598v-0.39844 0.39844h-0.10156c-10.398 0-19.898-4-26.297-10.398-6.3984-6.3984-9.1992-15.301-8-24.801 0.60156-4.6016 2.1016-9.3008 4.3984-13.602-13.102-10.301-14.199-28.199-14.301-29l-0.19922-3.8984 3.8008 0.80078c0.89844 0.19922 20.398 4.3008 27.398 14.898 4.1992-2.1992 9.3008-3.3984 13.301-3.3984v6c-6 0-12.602 2.8984-18.102 8.3008-5.6992 5.6992-9.3984 13.102-10.301 20.5-0.19922 1.8984-0.30078 4.1016-0.10156 6.3984 4.5 0.30078 8.1016 4.1016 8.1016 8.6992 0 1.8008-0.5 3.3984-1.5 4.8008 5.3008 5.1992 13.199 8.1016 21.898 8.1016 8.6016 0 16.602-3 21.898-8.1016-0.89844-1.3984-1.5-3-1.5-4.8008 0-4.6016 3.5-8.3984 8-8.6992 0.30078-2.3008 0.19922-4.5-0.10156-6.3984-0.89844-7.3008-4.6016-14.801-10.301-20.5-5.293-5.4023-10.992-8.3008-17.992-8.3008v-6c5 0 9.1016 1.1992 13.398 3.3984 7-10.602 26.5-14.699 27.398-14.898l3.8008-0.80078-0.19922 3.8984c-0.19922 0.80078-1.2969 18.602-14.398 28.902zm-56.801-5.2031c1.3008-1.8984 2.8008-3.6016 4.5-5.3008 1.3008-1.3008 2.6016-2.3984 3.8984-3.5-2.6016-3.8984-8-6.8984-13.102-9-0.89844 2.3984-1.8984 5-2.8008 7.8008 1.6055 3.6016 4.1055 7.2031 7.5039 10zm53.602 0c3.5-2.8984 5.8984-6.3984 7.6016-10-0.89844-2.6992-1.8984-5.3008-2.8008-7.8008-5.1992 2.1016-10.602 5.1016-13.102 9 1.3008 1 2.6992 2.1992 3.8984 3.5 1.6016 1.7031 3.1016 3.5039 4.4023 5.3008zm-4.6992 16c0-3.1016-2.5-5.6016-5.6016-5.6016s-5.6016 2.5-5.6016 5.6016c0 3.1016 2.5 5.6016 5.6016 5.6016s5.6016-2.5 5.6016-5.6016zm-22.102 13.5s-2.8984 3.1016-7.1016 3.1016c0 3.8984 3.1992 13.102 7.1016 13.102 3.8984 0 7.1016-9.1992 7.1016-13.102-4.2031-0.10156-7.1016-3.1016-7.1016-3.1016z"/>
</svg>
