<?xml version="1.0" encoding="UTF-8"?>
<svg width="100pt" height="100pt" version="1.1" viewBox="0 0 100 100" xmlns="http://www.w3.org/2000/svg">
 <g>
  <path d="m50 95c24.852 0 45-20.148 45-45s-20.148-45-45-45-45 20.148-45 45 20.148 45 45 45zm0-82.5c19.836 0 36.113 15.484 37.406 35h-20.105c-1.2188-8.4648-8.5039-15-17.301-15s-16.082 6.5352-17.301 15h-20.105c1.293-19.516 17.57-35 37.406-35zm12.5 37.5c0 6.8945-5.6055 12.5-12.5 12.5s-12.5-5.6055-12.5-12.5 5.6055-12.5 12.5-12.5 12.5 5.6055 12.5 12.5zm-29.801 2.5c1.2188 8.4648 8.5039 15 17.301 15s16.082-6.5352 17.301-15h20.105c-1.293 19.516-17.57 35-37.406 35s-36.113-15.484-37.406-35z"/>
  <path d="m42.5 50c0 4.1367 3.3633 7.5 7.5 7.5s7.5-3.3633 7.5-7.5-3.3633-7.5-7.5-7.5-7.5 3.3633-7.5 7.5zm10 0c0 1.3789-1.1211 2.5-2.5 2.5s-2.5-1.1211-2.5-2.5 1.1211-2.5 2.5-2.5 2.5 1.1211 2.5 2.5z"/>
 </g>
</svg>
