<?xml version="1.0" encoding="UTF-8"?>
<svg width="100pt" height="100pt" version="1.1" viewBox="0 0 100 100" xmlns="http://www.w3.org/2000/svg">
 <g>
  <path d="m22.789 29.66c-0.27344 0.33594-0.69531 0.42969-1.0586 0.30859-0.34375-0.11328-0.71875-0.074219-1 0.15234l-0.10156 0.082031c-0.80469 0.65625-0.54688 1.9336 0.44141 2.2148 0.31641 0.089843 0.64063 0.13672 0.96875 0.13672 0.77734 0 1.5625-0.25781 2.2109-0.78516 1.4961-1.2188 1.7188-3.4297 0.5-4.9258-0.81641-1.0039-2.082-1.4336-3.2773-1.2422-0.90625 0.14453-1.332 1.207-0.81641 1.9648 0.27344 0.40234 0.75391 0.62109 1.2383 0.54297 0.085938-0.015625 0.17188-0.019531 0.24219-0.011719 0.31641 0.03125 0.59375 0.21484 0.75 0.50391 0.18359 0.33594 0.14453 0.76563-0.097657 1.0586z"/>
  <path d="m16.117 29.059c0 1.5781-2.3672 1.5781-2.3672 0 0-1.5742 2.3672-1.5742 2.3672 0"/>
  <path d="m14.422 39.914c6.4336 3.9062 11.477 9.5703 14.578 16.387l0.046875 0.10547c1.6445 3.6367 2.375 7.6641 2.1055 11.645l-0.29688 4.418c-0.54688 0.41797-1.0156 0.94141-1.3633 1.543-0.46875 0.80469-0.71875 1.7266-0.71875 2.6641v0.058594c0.03125 1.5508 1.3203 2.8164 2.8711 2.8164h7.293c0.20312 0 0.40234-0.011719 0.60156-0.027343 0.12891 0.015624 0.26172 0.027343 0.38672 0.027343h7.0391c1.957 0 3.8633-0.66406 5.2266-1.8242 0.37891-0.32422 0.71094-0.67969 0.98828-1.0547 0.28906-0.39062 0.52344-0.80859 0.69922-1.2422l0.5-1.2422c1.1055-2.7422 1.5469-5.6758 1.3008-8.5586-0.0625-0.73438-0.74219-1.2539-1.4688-1.1367-0.65625 0.10547-1.1172 0.69922-1.0586 1.3594 0.21875 2.5-0.16016 4.9805-1.1289 7.3867l-0.5 1.2422c-0.09375 0.23438-0.22266 0.46484-0.38672 0.68359-0.16406 0.22266-0.36328 0.4375-0.59375 0.63281-0.91016 0.77344-2.2148 1.2148-3.5781 1.2148h-2.4023c0.68359-0.77734 1.2148-1.6992 1.5312-2.6875l1.6055-5.0273c0.46094-1.4414 0.80859-2.9258 1.043-4.4219 0.17187-1.1094 0.27734-2.2305 0.32031-3.3516 1.418-0.125 4.3438-0.12891 8.2539 1.1758 0.92188 0.30859 1.8945 0.69531 2.9258 1.1055 1.6641 0.66016 3.3594 1.332 5.0469 1.7656 2.2461 1.5898 4.2266 3.4805 5.9141 5.6328l-1.5469 0.875c-1.6641 0.94141-2.6914 2.7148-2.6836 4.6289 0.007813 1.5742 1.2969 2.8438 2.8711 2.8438h18.496c0.90625 0 1.793-0.26172 2.5547-0.75l0.070313-0.042969c1.3086-0.83984 2.1172-2.2734 2.1641-3.8242l0.26172-8.3672c0.15234-3.0273 0.65625-6.043 1.5-8.957 1.0586-3.6602 1.5977-7.4453 1.5977-11.254 0-5.625-2.1914-10.914-6.168-14.891-3.8047-3.8047-9.7812-6.168-15.598-6.168h-7.4961c-0.69922 0-1.2695 0.56641-1.2695 1.2695 0 0.69922 0.56641 1.2695 1.2695 1.2695h7.4961c5.168 0 10.453 2.0781 13.801 5.4258 3.5 3.5 5.4258 8.1523 5.4258 13.098 0 3.5703-0.50391 7.1172-1.4961 10.547-0.90234 3.1055-1.4375 6.3203-1.5977 9.5508l-0.26172 8.4023c-0.023438 0.71875-0.39844 1.3789-1 1.7695l-0.066406 0.042969c-0.35156 0.22656-0.76172 0.34766-1.1836 0.34766h-8.7227c0.09375-1.2578 0.80859-2.3984 1.918-3.0273l2.8477-1.6133c0.60938-0.34375 0.82422-1.1172 0.48047-1.7305-0.34375-0.60938-1.1211-0.82422-1.7305-0.48047l-0.31641 0.17969c-0.43359-1.6445-1.0195-3.2578-1.7578-4.8242-0.011719-0.023438-0.027344-0.054688-0.042969-0.09375-0.87891-1.8516-1.9648-3.6328-3.2266-5.2852l-5.7188-7.4883c-0.42578-0.55859-1.2227-0.66406-1.7812-0.23828-0.55859 0.42578-0.66406 1.2227-0.23828 1.7812l5.7188 7.4883c0.15234 0.19531 0.29687 0.39453 0.44141 0.59766-1.7227 0.64062-3.9492 1.2227-7.5859 1.2227-2.2695 0-4.9023-1.0469-7.4453-2.0547-1.0664-0.42188-2.0703-0.82422-3.0625-1.1523-4.1055-1.3672-7.2695-1.4453-9.0352-1.3164v-8.9766c0-0.69922-0.56641-1.2695-1.2695-1.2695-0.69922 0-1.2695 0.56641-1.2695 1.2695v10.426c0 1.3516-0.10547 2.7188-0.3125 4.0664-0.21094 1.3633-0.53125 2.7227-0.95312 4.0391l-1.6094 5.0117c-0.22656 0.70703-0.59766 1.3398-1.1016 1.8828-0.46875 0.5-1.0234 0.89453-1.6562 1.168-0.625 0.27344-1.293 0.41016-1.9805 0.41016h-7.293c-0.18359 0-0.33203-0.14844-0.33203-0.33203 0-0.48828 0.12891-0.96484 0.375-1.3828 0.24609-0.42188 0.59766-0.76953 1.0273-1.0117l2.6875-1.5195c0.53516-0.30078 1.1016-0.52344 1.6953-0.66406 0.5-0.12109 1.0156-0.18359 1.5352-0.18359h0.58594c0.70312 0 1.2695-0.57031 1.2695-1.2695 0-0.70313-0.57031-1.2695-1.2695-1.2695h-0.58594c-0.72266 0-1.4414 0.085938-2.1328 0.25391-0.81641 0.19531-1.6055 0.50391-2.3477 0.92578l-0.64453 0.36328 0.18359-2.6953c0.29688-4.4141-0.5-8.832-2.3242-12.859l-0.050781-0.10938c-2.7383-6.0195-6.8945-11.199-12.137-15.168l1.1406 0.22656 5.5273-0.73047c0.69531-0.09375 1.1836-0.73047 1.0938-1.4258-0.09375-0.69531-0.73047-1.1836-1.4258-1.0938l-5.1133 0.67578-7.1758-1.4297c-1.8438-0.36719-3.6523-0.92969-5.375-1.6758-0.13672-0.058594-0.26953-0.12891-0.39453-0.20703 1.8281-0.72656 3.0664-2.5234 3.0547-4.5195l-0.003906-0.60938c0.050782-0.050781 0.10156-0.097656 0.15234-0.14844l0.0625-0.066406 0.92969-1.3125c0.44922-0.63672 0.96875-1.2227 1.5703-1.7188 2.0898-1.7266 4.3047-2.0273 5.6016-2.0273h5.1953c3.8945 0 7.7852 0.46875 11.562 1.3945l5.1289 1.2578c2.8047 0.8125 5.6562 1.2031 8.4727 1.168h12.23c0.69922 0 1.2695-0.56641 1.2695-1.2695 0-0.69922-0.56641-1.2695-1.2695-1.2695h-12.266c-2.5742 0.035156-5.1836-0.32812-7.7578-1.0742l-5.207-1.2773c-3.9766-0.97266-8.0703-1.4688-12.168-1.4688l-5.1875-0.011719c-1.2578 0-2.5117 0.21875-3.6992 0.62891-0.55859-0.89453-1.5078-1.5312-2.6328-1.6406-1.1562-0.10938-2.2773 0.34375-3.0469 1.2695-0.26562 0.32031-0.47266 0.6875-0.60156 1.082-0.43359 1.3086-0.074219 2.5977 0.73047 3.4883l-0.8125 1.1484c-0.28125 0.27344-0.62109 0.48438-0.99609 0.60547l-1.9258 0.62891c-1.3477 0.4375-2.2969 1.6797-2.3242 3.0977-0.046875 2.2461 1.2695 4.2891 3.3281 5.1758 1.8164 0.78516 3.7188 1.3867 5.6602 1.7891zm63.207 24.535c0.40234 0.6875 0.77344 1.3867 1.1094 2.0977l0.054688 0.11719c0.75391 1.6094 1.332 3.2773 1.7305 4.9727l-0.24219 0.13672c-1.9023 1.0781-3.1094 3.0664-3.207 5.2383h-7.2344c-0.17969 0-0.33203-0.14453-0.33203-0.32422-0.003906-0.99219 0.53125-1.9102 1.3945-2.3984l2.6953-1.5234c0.98438-0.55859 2.0977-0.85156 3.2266-0.85156h0.24219c0.70312 0 1.2695-0.57031 1.2695-1.2695 0-0.70312-0.57031-1.2695-1.2695-1.2695h-0.24219c-1.1406 0-2.2734 0.21875-3.332 0.63672-1.0938-1.4375-2.3047-2.7734-3.6289-3.9961 3.5234-0.13281 5.8398-0.80859 7.7656-1.5664zm-66.426-40.59c0.023437-0.25391 0.14844-0.48828 0.34375-0.64844 0.19922-0.16406 0.44922-0.23828 0.70312-0.21484 0.21094 0.019531 0.39453 0.10938 0.54297 0.23828-0.53125 0.33594-1.0312 0.71484-1.4961 1.1328-0.074219-0.15625-0.11328-0.32813-0.09375-0.50781zm-4.8906 8.2773-0.24219 0.070312c-0.011718-0.11719-0.019531-0.23047-0.015624-0.35156 0.007812-0.34766 0.24609-0.64844 0.57812-0.75781l1.2031-0.39062c-0.25 0.67578-0.80469 1.2188-1.5234 1.4297z"/>
 </g>
</svg>
