<?xml version="1.0" encoding="UTF-8"?>
<svg width="100pt" height="100pt" version="1.1" viewBox="0 0 100 100" xmlns="http://www.w3.org/2000/svg">
 <g>
  <path d="m79.609 19.844l6.25-6.25c1.1719-1.1719 1.1719-2.9688 0-4.1406s-2.9688-1.1719-4.1406 0l-6.25 6.25c-9.375-8.5156-21.562-13.828-34.297-15.312-12.812-1.4844-25 1.3281-33.438 7.5l-3.3594 2.5 3.9062 1.3281c0.15625 0.078125 0.3125 0.078125 0.46875 0.15625h0.078125c3.5938 1.3281 7.2656 3.8281 10.547 7.1094 1.5625 1.5625 3.0469 3.3594 4.375 5.2344 3.2812 4.6875 5.3906 9.7656 5.7812 14.219l0.15625 1.4062 1.3281 0.46875c3.3594 1.0938 6.7969 3.0469 10.078 5.5469l3.125-3.125c-3.4375-2.6562-6.9531-4.7656-10.547-6.0938-0.78125-4.8438-2.9688-10.078-6.4062-14.922-1.4844-2.1094-3.125-3.9844-4.8438-5.7812-2.0312-2.0312-4.2188-3.8281-6.4844-5.3125 4.4531-0.23438 9.2969 1.1719 13.672 3.9062 1.7188 1.0938 3.2031 2.2656 4.6094 3.6719 2.8906 2.8906 4.8438 6.1719 5.7031 9.6094 4.375-3.4375 9.0625-6.4062 13.984-8.6719 2.5781-1.1719 5.3125-2.1875 8.0469-2.9688s5.625-1.25 8.4375-1.25c-2.8125 0.23438-5.5469 0.9375-8.2031 1.875s-5.1562 2.1875-7.5781 3.5938c-4.4531 2.5781-8.5938 5.625-12.344 9.0625 2.9688 0.3125 6.0938 1.3281 9.0625 2.9688 0.54688 0.3125 1.1719 0.70312 1.7188 1.0156s1.0156 0.70312 1.5625 1.0938c0.078125 0.078125 0.15625 0.078125 0.23438 0.15625 0.23438 0.23438 0.54688 0.39062 0.78125 0.625 0.78125 0.625 1.5625 1.3281 2.2656 2.0312 0.625 0.625 1.25 1.3281 1.875 2.0312 0.23438 0.3125 0.54688 0.625 0.78125 0.9375l0.078125 0.078125c3.0469 3.9844 4.9219 8.4375 5.3125 12.656 3.4375-3.75 6.5625-7.8906 9.0625-12.344 1.4062-2.4219 2.5781-5 3.5938-7.5781 0.9375-2.6562 1.7188-5.3906 1.875-8.2031 0 2.8125-0.46875 5.7031-1.25 8.4375s-1.7969 5.4688-2.9688 8.0469c-2.3438 5-5.2344 9.6875-8.6719 13.984 3.4375 0.78125 6.875 2.8906 9.7656 5.7031 1.3281 1.3281 2.5781 2.8906 3.6719 4.6094 2.7344 4.375 4.1406 9.2969 3.9062 13.672-1.4062-2.2656-3.2031-4.4531-5.3125-6.4844-1.7969-1.7969-3.6719-3.3594-5.7812-4.8438-4.7656-3.3594-10-5.625-14.766-6.4062-1.5625-3.9062-3.9844-7.8906-7.0312-11.562l-3.125 3.125c2.9688 3.5938 5.2344 7.5 6.4844 11.172l0.46875 1.3281 1.4062 0.15625c4.4531 0.46875 9.4531 2.5 14.062 5.7812 1.875 1.3281 3.5938 2.8125 5.2344 4.375 3.2812 3.2812 5.7812 6.9531 7.1094 10.547 0 0.078125 0.078125 0.23438 0.078125 0.3125l1.4062 3.9062 2.5781-3.4375c11.875-15.781 11.25-46.406-8.125-67.5z"/>
  <path d="m14.844 84.609l42.812-42.812c-0.54688-0.70312-1.1719-1.4062-1.875-2.0312-0.70312-0.70312-1.4844-1.4062-2.2656-2.0312l-42.891 42.891-0.15625 0.15625c-1.9531 2.1094-3.0469 4.8438-3.0469 7.8125 0 3.0469 1.1719 5.9375 3.3594 8.125s5 3.3594 8.125 3.3594c3.0469 0 5.9375-1.1719 8.125-3.3594 1.1719-1.1719 1.1719-2.9688 0-4.1406s-2.9688-1.1719-4.1406 0c-1.0938 1.0938-2.5 1.6406-3.9844 1.6406s-2.8906-0.54688-3.9844-1.6406c-2.2656-2.2656-2.2656-5.7812-0.078125-7.9688z"/>
 </g>
</svg>
