<?xml version="1.0" encoding="UTF-8"?>
<svg width="100pt" height="100pt" version="1.1" viewBox="0 0 100 100" xmlns="http://www.w3.org/2000/svg">
 <path d="m99.594 50.395c-3.8594-1.9727-8.0703-2.9609-12.277-2.9609-0.94141 0-1.8789 0.058594-2.8125 0.15625 0.003906-0.21094 0.019532-0.41797 0.019532-0.62891-0.003907-1.6133-0.14844-3.1953-0.41797-4.7383 3.4766-1.7188 7.3203-2.6602 11.266-2.6602 0.66406 0 1.332 0.023438 2.0039 0.078125 0.41016 0.035156 0.76953-0.26953 0.80469-0.67969 0.035156-0.41406-0.27344-0.77344-0.68359-0.80859-0.71484-0.058594-1.4219-0.082032-2.125-0.082032-4.043 0-7.9883 0.92578-11.578 2.6328-0.10547-0.44531-0.22266-0.88281-0.34766-1.3203 7.1133-2.2422 9.2383-10.848 11.875-15.141 0.16016-0.28906 0.26172-0.61719 0.25781-0.96094-0.003906-0.8125-0.49609-1.3672-0.89844-1.6406-0.42188-0.29297-0.85547-0.43359-1.3203-0.52734-7.8906-1.4375-19.801-4.5352-27.375-4.5508-1.1211 0.003906-2.1562 0.066406-3.1055 0.23828l-3.6562 0.66406c-2.9453-0.72656-6.043-1.125-9.2383-1.1328-2.9102 0.003907-5.7383 0.33203-8.4414 0.9375l-0.29688-0.23047c-3.2344-2.4805-8.1992-3.5234-13.48-4.2734-5.2734-0.72656-10.859-1.0508-15.043-1.6289-0.12109-0.015625-0.25781-0.027344-0.39844-0.027344-0.55078-0.003906-1.168 0.16797-1.6484 0.60938-0.48828 0.4375-0.73438 1.1016-0.72266 1.6875-0.003906 0.12109 0.003906 0.28516 0.039063 0.46484 0.62891 3.8477 0.98047 9.1133 1.8008 14.062 0.80469 4.7148 1.9492 9.1797 4.5586 12.133-0.054687 0.20703-0.11328 0.41406-0.16406 0.625-3.582-1.7031-7.5234-2.6211-11.562-2.6211-0.70703 0-1.4141 0.023438-2.125 0.082032-0.41016 0.035156-0.71875 0.39453-0.68359 0.80859 0.035156 0.41016 0.39453 0.71484 0.80859 0.67969 0.66406-0.054687 1.332-0.078125 2-0.078125 3.9414 0 7.7773 0.9375 11.25 2.6523-0.26953 1.543-0.41406 3.1289-0.41797 4.7461 0 0.21094 0.015625 0.42187 0.019531 0.62891-0.92969-0.097656-1.8633-0.15234-2.7969-0.15234-4.207 0-8.418 0.98438-12.27 2.957-0.36719 0.1875-0.51172 0.63281-0.32422 1.0039 0.13281 0.25781 0.39453 0.40625 0.66797 0.40625 0.11719 0 0.23047-0.027344 0.33984-0.082032 3.6406-1.8633 7.6133-2.793 11.59-2.7969 0.96094 0 1.9219 0.058594 2.875 0.16797 0.13281 1.6914 0.41797 3.3398 0.84766 4.9414-5.543 1.3008-10.617 4.3281-14.406 8.7773-0.26953 0.3125-0.23047 0.78516 0.085938 1.0547 0.14062 0.11719 0.3125 0.17578 0.48047 0.17578 0.21094 0 0.42188-0.089844 0.57031-0.26172 3.5977-4.2305 8.4219-7.1016 13.691-8.3203 1.0977 3.375 2.8242 6.4961 5.0625 9.2695v7.5859l0.36719 0.42188c5.3398 6.1484 13.363 10.418 22.551 11.605 0.33203 2.5586 2.5 4.543 5.1562 4.543 2.6484-0.003907 4.8164-1.9805 5.1562-4.5352 9.2305-1.1758 17.289-5.457 22.645-11.645l0.36328-0.42188v-7.582c2.2266-2.7695 3.9492-5.8867 5.043-9.25 5.2773 1.2148 10.105 4.0898 13.711 8.3203 0.14844 0.17187 0.35938 0.26172 0.57031 0.26172 0.17188 0 0.34375-0.058594 0.48438-0.17578 0.3125-0.26953 0.35156-0.73828 0.085938-1.0508-3.7969-4.457-8.875-7.4883-14.422-8.7852 0.42578-1.5977 0.71484-3.2461 0.84375-4.9375 0.96094-0.10938 1.9258-0.16797 2.8906-0.16797 3.9727 0 7.9492 0.92969 11.594 2.7891 0.36719 0.1875 0.8125 0.042969 1.0039-0.32031 0.17188-0.35938 0.027344-0.80469-0.33984-0.99219zm-84.855-22.945c-0.73828-4.4414-1.0938-9.2852-1.6758-13.254 4.2422 0.53516 9.4648 0.86328 14.297 1.5312 3.5156 0.46484 6.8203 1.1641 9.2812 2.1484-0.78125 0.30078-1.5391 0.64062-2.2891 0.99219-1.957-0.60938-4.3984-1.1172-7.0195-1.457-3.918-0.55078-8.1797-0.86719-12.051-1.2734 0.4375 3.5469 0.78516 7.4766 1.3828 11.082 0.41016 2.6836 1.0547 5.1602 1.8125 7.043-0.36719 0.75391-0.71094 1.5195-1.0156 2.3047-1.2617-2.2383-2.1484-5.5312-2.7227-9.1172zm38.836 57.07c-0.33594 1.4141-1.4609 2.5156-2.8945 2.8008v-2.6406c0.28125-0.22656 0.46875-0.55859 0.46875-0.94922 0-0.68359-0.55859-1.2422-1.2461-1.2422-0.68359 0-1.2422 0.55859-1.2422 1.2422 0 0.41406 0.21484 0.76172 0.52734 0.98828v2.5938c-1.418-0.30078-2.5234-1.3984-2.8516-2.8008-0.0625-0.26953-0.10938-0.55078-0.10938-0.84375 0-0.23047 0.027344-0.45312 0.070313-0.67188 0.015625-0.070313 0.035156-0.14453 0.050781-0.21484 0.035156-0.14062 0.078125-0.28125 0.12891-0.41797 0.03125-0.078125 0.058594-0.15625 0.09375-0.23438 0.0625-0.13672 0.13672-0.26562 0.21094-0.39062 0.035156-0.058593 0.0625-0.11719 0.10156-0.17578 0.67188-0.97266 1.793-1.6133 3.0703-1.6172 1.2773 0.003907 2.4062 0.64453 3.0781 1.625 0.027344 0.042969 0.050781 0.089844 0.078125 0.13281 0.085937 0.14062 0.16406 0.28125 0.23438 0.42969 0.035156 0.074219 0.0625 0.14844 0.089844 0.22266 0.050781 0.14062 0.09375 0.27734 0.13281 0.42578 0.019532 0.070312 0.035156 0.14062 0.050782 0.21484 0.042968 0.21875 0.070312 0.44141 0.070312 0.67188 0 0.29688-0.046875 0.57812-0.11328 0.85156zm21.559-13.348c-4.8477 5.3867-12.125 9.1953-20.492 10.238-0.84766-1.7383-2.6172-2.9492-4.6875-2.9492-2.0625 0-3.8281 1.2031-4.6797 2.9414-8.3281-1.0508-15.57-4.8438-20.406-10.207v-3.2461c1.5625 1.4648 3.2812 2.793 5.1406 3.9648l0.12891 0.082032c0.38281 0.23828 0.77344 0.47266 1.168 0.69922 0.13281 0.074219 0.26953 0.15234 0.40234 0.22656 0.30469 0.16797 0.61328 0.33594 0.92578 0.49609 0.21875 0.11328 0.4375 0.22656 0.66016 0.33594 0.23047 0.11328 0.46484 0.22266 0.69922 0.33203 0.30078 0.14062 0.60156 0.27734 0.90234 0.41016 0.16016 0.070312 0.32031 0.13672 0.48438 0.20312 0.375 0.15625 0.75391 0.30859 1.1367 0.45312 0.09375 0.035156 0.18359 0.066406 0.27734 0.10156 0.44922 0.16406 0.89844 0.32422 1.3555 0.47266 0.027343 0.011719 0.058593 0.019532 0.085937 0.027344 3.6719 1.1836 7.625 1.8359 11.754 1.8359 4.125 0 8.0742-0.65234 11.742-1.832 0.035156-0.011718 0.070312-0.023437 0.10547-0.03125 0.44922-0.14844 0.90234-0.30469 1.3438-0.46875 0.097656-0.035156 0.19531-0.070312 0.28906-0.10547 0.38281-0.14453 0.75781-0.29688 1.1328-0.44922 0.16406-0.070313 0.32813-0.13672 0.48828-0.20703 0.30469-0.13281 0.60156-0.26562 0.89844-0.40625 0.23828-0.10938 0.47266-0.22266 0.70703-0.33594 0.22266-0.10938 0.44141-0.22266 0.66016-0.33594 0.3125-0.16406 0.625-0.32812 0.93359-0.5 0.13281-0.074219 0.26563-0.14844 0.39453-0.22266 0.39844-0.22656 0.78906-0.46094 1.1758-0.70312 0.042969-0.027344 0.085937-0.054688 0.12891-0.078126 1.8594-1.1719 3.582-2.5039 5.1406-3.9727l0.007813 3.2305zm6.3359-23.086c-2.2031 0.48828-4.3672 1.2539-6.4219 2.3047-0.36719 0.1875-0.51172 0.63672-0.32422 1.0078 0.13281 0.25391 0.39453 0.40625 0.66797 0.40625 0.11719 0 0.23047-0.027344 0.33984-0.082032l-0.003907-0.003906c1.8125-0.92578 3.7109-1.6211 5.6484-2.0859-0.14844 1.3203-0.42969 2.6094-0.78125 3.8711-1.0391-0.12109-2.0859-0.19531-3.1445-0.19531-0.70703 0-1.4141 0.027344-2.1211 0.082031-0.41406 0.03125-0.71875 0.39453-0.68359 0.80469 0.035157 0.41016 0.39453 0.71875 0.80469 0.68359v-0.003906c0.66797-0.050781 1.332-0.078125 2.0039-0.078125 0.91406 0 1.8203 0.050781 2.7188 0.14844-1.1328 3.2656-2.9453 6.2695-5.2812 8.9102-0.35938 0.40625-0.73047 0.80469-1.1133 1.1914-0.30469 0.30859-0.61719 0.61328-0.9375 0.91016-0.28125 0.26172-0.5625 0.51953-0.85547 0.76953-0.49219 0.42188-1 0.82813-1.5234 1.2227-0.29688 0.22266-0.59766 0.43359-0.90234 0.64453-0.42578 0.29688-0.85938 0.58203-1.3008 0.85938-0.37109 0.23047-0.74609 0.45703-1.1289 0.67578-0.50391 0.28906-1.0195 0.56641-1.5469 0.82812-0.27734 0.14062-0.54688 0.27734-0.82812 0.40625-0.69922 0.32812-1.4141 0.63281-2.1445 0.91016-0.23438 0.089843-0.46875 0.17187-0.70703 0.25781-0.76953 0.27734-1.5469 0.53516-2.3477 0.75781-0.078126 0.023438-0.16016 0.046876-0.24219 0.070313-0.85938 0.23047-1.7344 0.42578-2.6211 0.59375-0.16797 0.03125-0.33594 0.066406-0.50391 0.09375-0.90625 0.16016-1.8281 0.28516-2.7617 0.37109-0.15625 0.015625-0.3125 0.027343-0.46875 0.039062-0.97656 0.078125-1.9648 0.13281-2.9648 0.13281-1.0039 0-1.9883-0.054688-2.9648-0.13281-0.15625-0.011719-0.3125-0.023437-0.46484-0.035156-0.93359-0.089844-1.8555-0.21484-2.7617-0.375-0.16797-0.03125-0.33203-0.0625-0.5-0.09375-0.89844-0.17188-1.7852-0.36719-2.6484-0.60156-0.074219-0.019531-0.14844-0.042968-0.22266-0.0625-0.80078-0.22266-1.582-0.48047-2.3516-0.76172-0.23047-0.082032-0.46094-0.16406-0.6875-0.25-0.73828-0.28516-1.457-0.58984-2.1602-0.92188-0.26953-0.125-0.53125-0.25781-0.79688-0.39062-0.55469-0.27734-1.1016-0.57031-1.6328-0.875-0.33984-0.19531-0.67578-0.39844-1.0078-0.60547-0.47266-0.29297-0.9375-0.59766-1.3867-0.91406-0.28516-0.19922-0.56641-0.39453-0.83984-0.60156-0.54297-0.40625-1.0703-0.82812-1.5781-1.2695-0.26562-0.22656-0.51953-0.46094-0.77734-0.69922-0.38281-0.34766-0.75-0.71094-1.1094-1.0781-0.30469-0.30859-0.59766-0.625-0.88281-0.94531-2.3906-2.6719-4.2422-5.7227-5.3906-9.043 0.90625-0.097656 1.8164-0.14844 2.7344-0.14844 0.66797 0 1.3359 0.027344 2.0039 0.082032 0.41016 0.03125 0.76953-0.27344 0.80078-0.68359 0.035156-0.40625-0.26953-0.76953-0.67969-0.80078-0.71094-0.058593-1.4219-0.085937-2.125-0.085937-1.0625 0-2.1172 0.074219-3.1602 0.19922-0.35547-1.2656-0.63672-2.5508-0.78516-3.875 1.9453 0.46484 3.8477 1.1641 5.668 2.0898 0.36719 0.1875 0.81641 0.042968 1.0039-0.32031 0.1875-0.36719 0.042969-0.81641-0.32031-1.0039-2.0625-1.0547-4.2305-1.8203-6.4414-2.3086-0.019532-0.375-0.066406-0.74609-0.066406-1.125 0.003906-1.0586 0.089843-2.1016 0.22266-3.1289 1.9766 1.3086 3.8008 2.8672 5.375 4.7188 0.14844 0.17188 0.35547 0.26172 0.56641 0.26172 0.17188 0 0.34375-0.058594 0.48047-0.17578 0.3125-0.26953 0.35156-0.73828 0.085937-1.0508-1.8086-2.125-3.9219-3.9141-6.2305-5.3594 1.9492-9.7461 9.7148-17.805 20.164-21.18l3.4062 6.75c0.007812 0.046876 0.039062 0.11719 0.066406 0.14844 0 0 1.1875 1.4336 2.4297 1.4336 1.2422 0 1.2422-1.4961 2.4883-1.4961 1.2383 0 1.2383 1.4961 2.4805 1.4961 1.2461 0 1.2461-1.4961 2.4883-1.4961 1.2461 0 1.2461 1.4961 2.4922 1.4961 1.2461 0 2.4414-1.4336 2.4414-1.4336 0.027343-0.035156 0.058593-0.10156 0.070312-0.14844l3.4023-6.7461c10.445 3.3828 18.207 11.441 20.152 21.188-2.3008 1.4453-4.4062 3.2266-6.2109 5.3477-0.26953 0.3125-0.23047 0.78516 0.082031 1.0508 0.14063 0.12109 0.3125 0.17969 0.48438 0.17969 0.21094 0 0.42187-0.089844 0.57031-0.26172h-0.003906c1.5703-1.8438 3.3906-3.4023 5.3594-4.707 0.13281 1.0273 0.21875 2.0625 0.22266 3.1211-0.011719 0.375-0.058594 0.74609-0.078125 1.125zm-4.7422-26.234c-2.0273-0.38672-3.9609-0.69141-5.6914-0.89844-0.64062-0.42188-1.2773-0.84766-1.9531-1.25 6.75 0.60938 16.18 2.9102 23.043 4.2148-2.293 4.4648-4.5352 10.277-8.2578 12.148-0.16016-0.54297-0.38281-1.0781-0.59766-1.6133 1.082-0.92188 2.1328-2.1992 2.9805-3.6758 1.2188-2.0117 2.2148-4.293 3.25-6.3008-4.0938-0.84766-8.5938-1.8555-12.773-2.625zm-14.785 36.199c-0.41406 0-0.74609 0.33594-0.74609 0.74609h-0.003906c-0.003906 2.8789-2.3359 5.207-5.2148 5.2109-2.8867-0.003906-5.2188-2.3359-5.2227-5.2109 0-0.011719-0.003906-0.019531-0.003906-0.027344v-3.668c1.4531-1.4219 3.4414-3.2695 3.4727-4.5195 0.015625-0.10938 0.027344-0.21875 0.027344-0.33203 0-1.2422-1.0078-2.25-2.2539-2.25-0.86719 0-1.6172 0.48828-1.9961 1.2031-0.37891-0.71484-1.1289-1.2031-1.9961-1.2031-1.2461 0-2.2539 1.0078-2.2539 2.25 0 0.11328 0.011719 0.22266 0.027344 0.33203 0.03125 1.25 2.0195 3.0977 3.4727 4.5195v3.668c0 0.011719-0.003906 0.019531-0.003906 0.027344-0.003906 2.8789-2.3359 5.207-5.2227 5.2109-2.8828-0.003906-5.2148-2.3359-5.2188-5.2109 0-0.41406-0.33594-0.74609-0.74609-0.74609s-0.74609 0.33594-0.74609 0.74609c0 3.7031 3.0039 6.7031 6.7148 6.7031 2.6016 0 4.8594-1.4766 5.9727-3.6367 1.1172 2.1602 3.3711 3.6367 5.9727 3.6367 3.707 0 6.7109-3 6.7148-6.7031 0-0.41016-0.33594-0.74609-0.74609-0.74609zm6.0898-19.805c-1.8086 1.4375-3.5273 1.8828-5.0664 1.8906-1.5391 0-2.9062-0.46875-3.8828-0.95312-0.97656-0.47656-1.5195-0.9375-1.5312-0.92969-0.32031-0.26172-0.78906-0.21484-1.0469 0.10547-0.26172 0.32031-0.21484 0.78516 0.10547 1.0469 0.0625 0.042969 2.668 2.207 6.3555 2.2227h0.027344c1.832 0 3.9258-0.57812 5.9648-2.2148 0.32031-0.25391 0.375-0.72656 0.11719-1.0469-0.25391-0.32422-0.72266-0.37891-1.043-0.12109zm-30.625 3.3789c1.8359 0 3.9375-0.57812 5.9805-2.2148 0.32031-0.25391 0.375-0.72266 0.11719-1.0469-0.25781-0.32031-0.72656-0.375-1.0508-0.11719-1.8086 1.4375-3.5234 1.8867-5.0625 1.8906-1.5352 0-2.9062-0.47266-3.8828-0.94922-0.98047-0.47656-1.5195-0.94141-1.5312-0.93359-0.32031-0.26172-0.78906-0.21484-1.0508 0.10547s-0.21484 0.78906 0.10547 1.0508v-0.003906c0.066406 0.042969 2.668 2.207 6.3594 2.2227z"/>
</svg>
