<?xml version="1.0" encoding="UTF-8"?>
<svg width="100pt" height="100pt" version="1.1" viewBox="0 0 100 100" xmlns="http://www.w3.org/2000/svg">
 <g>
  <path d="m9.375 78.125c1.4727-0.027344 2.875-0.63281 3.9062-1.6875l5.4688-5.4219 4.0469-4.0469 46.109-46.156c0.14062-0.13281 0.25391-0.29297 0.32812-0.46875l7.1875-16.625c0.23438-0.57031 0.11328-1.2266-0.3125-1.6719-0.44531-0.42969-1.0977-0.55859-1.6719-0.32812l-16.625 7.1406c-0.17578 0.085937-0.33984 0.19531-0.48438 0.32812l-55.656 55.688c-2.0586 1.8477-2.2383 5.0078-0.40625 7.0781l4.9844 4.9219c0.83984 0.80859 1.9609 1.2578 3.125 1.25zm2.9219-19.609 7.3125 7.3125-1.9688 1.9531-7.2969-7.2969zm46.062-46.109 2.5781 2.5938-43.922 43.938-2.5781-2.5625zm-36.609 51.281-2.5938-2.6094 43.953-43.891 2.5938 2.6094-27.266 27.203zm45.594-46.594-6.3281-6.25 11.125-4.7812zm-63.531 50 4.3906-4.3906 7.2969 7.2969-4.3906 4.3125c-0.45312 0.48047-1.0742 0.76562-1.7344 0.79688-0.375 0.011719-0.73828-0.125-1.0156-0.375l-4.9531-4.9375c-0.61328-0.89062-0.4375-2.1055 0.40625-2.7812z"/>
  <path d="m99.062 3.2344c-0.57031-0.22266-1.2148-0.097656-1.6562 0.32812l-91.984 92.281c-0.39453 0.44531-0.5 1.0781-0.27344 1.6289 0.22266 0.55078 0.74219 0.92188 1.3359 0.96484h91.953c0.41406 0 0.8125-0.16406 1.1055-0.45703s0.45703-0.69141 0.45703-1.1055v-92.188c0.007812-0.62891-0.35938-1.2031-0.9375-1.4531zm-2.0938 92.188h-14.625v-3.0312c-0.17578-0.69531-0.80078-1.1836-1.5156-1.1836s-1.3398 0.48828-1.5156 1.1836v3.0156h-10.562v-3.0156c-0.17578-0.69531-0.80078-1.1836-1.5156-1.1836s-1.3398 0.48828-1.5156 1.1836v3.0156h-10.531v-3.0156c-0.17578-0.69531-0.80078-1.1836-1.5156-1.1836s-1.3398 0.48828-1.5156 1.1836v3.0156h-10.547v-3.0156c-0.17578-0.69531-0.80078-1.1836-1.5156-1.1836s-1.3398 0.48828-1.5156 1.1836v3.0156h-28.438l86.828-87.109z"/>
  <path d="m44.234 82.578h36.453c0.41406 0 0.8125-0.16406 1.1055-0.45703 0.29297-0.29297 0.45703-0.69141 0.45703-1.1055v-36.531c-0.050781-0.58203-0.41797-1.0859-0.95703-1.3086-0.53906-0.22656-1.1602-0.12891-1.6055 0.24609l-36.531 36.562c-0.39453 0.44922-0.5 1.082-0.26953 1.6328 0.22656 0.55078 0.75 0.92578 1.3477 0.96094zm34.938-34.375v31.344h-31.25z"/>
 </g>
</svg>
