<?xml version="1.0" encoding="UTF-8"?>
<svg width="100pt" height="100pt" version="1.1" viewBox="0 0 100 100" xmlns="http://www.w3.org/2000/svg">
 <g>
  <path d="m89.129 5h-78.258c-3.2383 0-5.8711 2.6328-5.8711 5.8711v78.258c0 3.2383 2.6328 5.8711 5.8711 5.8711h78.258c3.2383 0 5.8711-2.6328 5.8711-5.8711v-78.258c0-3.2383-2.6328-5.8711-5.8711-5.8711zm-78.258 1.957h78.258c2.1562 0 3.9141 1.7539 3.9141 3.9141v4.8906h-86.086v-4.8906c0-2.1602 1.7539-3.9141 3.9141-3.9141zm78.258 86.086h-78.258c-2.1562 0-3.9141-1.7539-3.9141-3.9141v-71.41h86.086v71.41c0 2.1602-1.7539 3.9141-3.9141 3.9141z"/>
  <path d="m75.109 11.684h2.2812c0.53906 0 0.97656-0.4375 0.97656-0.97656 0-0.53906-0.4375-0.97656-0.97656-0.97656h-2.2812c-0.53906 0-0.97656 0.4375-0.97656 0.97656 0 0.53906 0.43359 0.97656 0.97656 0.97656z"/>
  <path d="m81.957 11.684h2.2812c0.53906 0 0.97656-0.4375 0.97656-0.97656 0-0.53906-0.4375-0.97656-0.97656-0.97656h-2.2812c-0.53906 0-0.97656 0.4375-0.97656 0.97656 0 0.53906 0.43359 0.97656 0.97656 0.97656z"/>
  <path d="m35.324 21.875h-19.562c-0.53906 0-0.97656 0.4375-0.97656 0.97656v19.566c0 0.53906 0.4375 0.97656 0.97656 0.97656h19.566c0.53906 0 0.97656-0.4375 0.97656-0.97656v-19.566c0-0.53906-0.4375-0.97656-0.98047-0.97656zm-0.97656 19.566h-17.609v-17.609h17.609z"/>
  <path d="m35.324 44.984h-19.562c-0.53906 0-0.97656 0.4375-0.97656 0.97656 0 0.53906 0.4375 0.97656 0.97656 0.97656h19.566c0.53906 0 0.97656-0.4375 0.97656-0.97656 0-0.53516-0.4375-0.97656-0.98047-0.97656z"/>
  <path d="m35.324 48.613h-19.562c-0.53906 0-0.97656 0.4375-0.97656 0.97656 0 0.53906 0.4375 0.97656 0.97656 0.97656h19.566c0.53906 0 0.97656-0.4375 0.97656-0.97656 0-0.53906-0.4375-0.97656-0.98047-0.97656z"/>
  <path d="m35.324 52.242h-19.562c-0.53906 0-0.97656 0.4375-0.97656 0.97656s0.4375 0.97656 0.97656 0.97656h19.566c0.53906 0 0.97656-0.4375 0.97656-0.97656s-0.4375-0.97656-0.98047-0.97656z"/>
  <path d="m35.324 55.871h-19.562c-0.53906 0-0.97656 0.4375-0.97656 0.97656v19.566c0 0.53906 0.4375 0.97656 0.97656 0.97656h19.566c0.53906 0 0.97656-0.4375 0.97656-0.97656v-19.566c0-0.53906-0.4375-0.97656-0.98047-0.97656zm-0.97656 19.562h-17.609v-17.609h17.609z"/>
  <path d="m35.324 78.98h-19.562c-0.53906 0-0.97656 0.4375-0.97656 0.97656 0 0.53906 0.4375 0.97656 0.97656 0.97656h19.566c0.53906 0 0.97656-0.4375 0.97656-0.97656 0-0.53906-0.4375-0.97656-0.98047-0.97656z"/>
  <path d="m35.324 82.609h-19.562c-0.53906 0-0.97656 0.4375-0.97656 0.97656 0 0.53906 0.4375 0.97656 0.97656 0.97656h19.566c0.53906 0 0.97656-0.4375 0.97656-0.97656 0-0.53906-0.4375-0.97656-0.98047-0.97656z"/>
  <path d="m35.324 86.238h-19.562c-0.53906 0-0.97656 0.4375-0.97656 0.97656 0 0.53906 0.4375 0.97656 0.97656 0.97656h19.566c0.53906 0 0.97656-0.4375 0.97656-0.97656 0-0.53906-0.4375-0.97656-0.98047-0.97656z"/>
  <path d="m15.762 11.684h53.926c0.53906 0 0.97656-0.4375 0.97656-0.97656 0-0.53906-0.4375-0.97656-0.97656-0.97656h-53.926c-0.53906 0-0.97656 0.4375-0.97656 0.97656-0.003906 0.53906 0.4375 0.97656 0.97656 0.97656z"/>
  <path d="m61.086 65.488c10.742 0 19.484-8.7383 19.484-19.484 0-0.53906-0.4375-0.97656-0.97656-0.97656h-17.527v-17.527c0-0.53906-0.4375-0.97656-0.97656-0.97656-10.742 0-19.484 8.7383-19.484 19.484-0.003907 10.742 8.7383 19.48 19.48 19.48zm-0.97656-36.984v17.5c0 0.53906 0.4375 0.97656 0.97656 0.97656h17.5c-0.50781 9.2109-8.1641 16.551-17.5 16.551-9.6641 0-17.527-7.8633-17.527-17.527 0-9.3359 7.3398-16.988 16.551-17.5z"/>
  <path d="m63.41 21.875c-0.53906 0-0.97656 0.4375-0.97656 0.97656v20.828c0 0.53906 0.4375 0.97656 0.97656 0.97656h20.828c0.53906 0 0.97656-0.4375 0.97656-0.97656 0.003906-12.023-9.7812-21.805-21.805-21.805zm0.97656 20.828v-18.848c10.168 0.49609 18.352 8.6797 18.848 18.848z"/>
  <path d="m78.742 86.238h-3.0977v-10.191h-6.4297v10.191h-3.0977v-16.918h-6.4297v16.914l-3.0977 0.003906v-10.191h-6.4297v10.191h-3.0977v-7.9883h-6.4297v9.9453h44.539l-0.003906-18.875h-6.4297v16.918zm-36.152 0v-6.0312h2.5156v6.0312zm9.5273 0v-8.2344h2.5156v8.2344zm9.5273 0v-14.961h2.5156v14.961zm9.5273 0v-8.2344h2.5156v8.2344zm9.5273-14.961h2.5156v14.961h-2.5156z"/>
 </g>
</svg>
