<?xml version="1.0" encoding="UTF-8"?>
<svg width="100pt" height="100pt" version="1.1" viewBox="0 0 100 100" xmlns="http://www.w3.org/2000/svg">
 <g>
  <path d="m70.066 98.438c-13.922 0-25.246-11.336-25.246-25.27 0-13.934 11.324-25.273 25.246-25.273s25.246 11.336 25.246 25.273c0 13.934-11.324 25.27-25.246 25.27zm0-48.199c-12.629 0-22.902 10.285-22.902 22.93 0 12.641 10.273 22.926 22.902 22.926s22.902-10.285 22.902-22.926c0-12.645-10.273-22.93-22.902-22.93z"/>
  <path d="m83.805 72.203h-3.4141c-0.64844 0-1.1719-0.52344-1.1719-1.1719s0.52344-1.1719 1.1719-1.1719h3.4141c0.039062-0.035156 0.24609-0.32812 0.24609-0.80469 0-0.0625 0.003907-0.125 0.015625-0.18359l0.66016-4.1172c0.10156-0.64062 0.70313-1.0742 1.3438-0.97266 0.64063 0.10156 1.0742 0.70312 0.97266 1.3438l-0.64453 4.0352c-0.046876 1.7109-1.168 3.043-2.5938 3.043z"/>
  <path d="m85.59 87.766c-0.56641 0-1.0625-0.41016-1.1562-0.98828l-0.66016-4.1172c-0.011719-0.0625-0.015626-0.125-0.015626-0.18359 0-0.47656-0.20703-0.77344-0.29297-0.81641l-4.1016 0.007813c-0.64844 0-1.1719-0.52344-1.1719-1.1719 0-0.64844 0.52344-1.1719 1.1719-1.1719h4.1445c1.4258 0 2.5469 1.332 2.5898 3.0508l0.64453 4.0312c0.10156 0.64062-0.33203 1.2383-0.97266 1.3438-0.054687 0.011719-0.11719 0.015625-0.17969 0.015625z"/>
  <path d="m60.105 72.203h-3.4141c-1.4258 0-2.5469-1.332-2.5898-3.0508l-0.64453-4.0352c-0.10156-0.64063 0.33203-1.2422 0.97266-1.3438 0.63672-0.10156 1.2383 0.33203 1.3438 0.97266l0.66016 4.1172c0.011718 0.0625 0.015625 0.125 0.015625 0.18359 0 0.47656 0.20703 0.77344 0.29297 0.81641l3.3672-0.007812c0.64844 0 1.1719 0.52344 1.1719 1.1719-0.003906 0.64844-0.52734 1.1758-1.1758 1.1758z"/>
  <path d="m54.91 87.766c-0.0625 0-0.125-0.003906-0.1875-0.015625-0.64062-0.10156-1.0742-0.70312-0.97266-1.3438l0.64453-4.0312c0.042969-1.7188 1.1641-3.0508 2.5898-3.0508h3.9258c0.64844 0 1.1719 0.52344 1.1719 1.1719 0 0.64844-0.52344 1.1719-1.1719 1.1719h-3.9258c-0.039063 0.035156-0.24609 0.32812-0.24609 0.80859 0 0.0625-0.003906 0.125-0.015625 0.18359l-0.66016 4.1172c-0.089844 0.57812-0.58984 0.98828-1.1523 0.98828z"/>
  <path d="m67.871 61.277c-0.17578 0-0.35156-0.039063-0.51562-0.12109-0.68359-0.33594-1.2852-0.82422-1.75-1.4102-0.92188-1.1758-1.0781-2.457-1.0898-3.1172-0.007813-0.64844 0.50781-1.1797 1.1523-1.1875h0.019531c0.64062 0 1.1602 0.51172 1.1719 1.1562 0.003906 0.36328 0.089844 1.0703 0.58594 1.7031 0.24609 0.3125 0.57422 0.57422 0.94141 0.75781 0.58203 0.28516 0.82031 0.98828 0.53516 1.5703-0.20312 0.41016-0.61719 0.64844-1.0508 0.64844z"/>
  <path d="m72.508 61.277c-0.43359 0-0.84766-0.24219-1.0508-0.65625-0.28516-0.58203-0.046875-1.2852 0.53516-1.5703 0.36719-0.17969 0.69531-0.44531 0.94141-0.75781 0.5-0.63281 0.58203-1.3398 0.58594-1.7031 0.007813-0.64844 0.55469-1.1992 1.1875-1.1562 0.64844 0.007812 1.1641 0.54297 1.1562 1.1875-0.007812 0.66016-0.16406 1.9414-1.0898 3.1172-0.46094 0.58984-1.0664 1.0781-1.75 1.4141-0.16797 0.085937-0.34375 0.125-0.51563 0.125z"/>
  <path d="m80.055 69.441h-19.809c-0.34766 0-0.67578-0.15234-0.89844-0.41797-0.22266-0.26563-0.31641-0.61719-0.25781-0.95703 0.95312-5.375 5.6055-9.2734 11.059-9.2734 5.4531 0 10.105 3.9023 11.059 9.2734 0.0625 0.34375-0.03125 0.69141-0.25781 0.95703-0.21875 0.26562-0.54688 0.41797-0.89453 0.41797zm-18.297-2.3438h16.785c-1.2266-3.5273-4.5586-5.9648-8.3906-5.9648-3.8359 0-7.168 2.4375-8.3945 5.9648z"/>
  <path d="m70.148 87.363c-6.1992 0-11.242-5.0469-11.242-11.25v-6.0703c0-0.63672 0.058594-1.2852 0.18359-1.9766 0.097656-0.55859 0.58594-0.96484 1.1523-0.96484h9.9062c0.64844 0 1.1719 0.52344 1.1719 1.1719v17.922c0 0.64453-0.52344 1.168-1.1719 1.168zm-8.875-17.922c-0.015626 0.20312-0.023438 0.40234-0.023438 0.60156v6.0703c0 4.5156 3.3711 8.2539 7.7266 8.832l0.003907-15.504z"/>
  <path d="m70.148 87.363c-0.64844 0-1.1719-0.52344-1.1719-1.1719v-17.922c0-0.64844 0.52344-1.1719 1.1719-1.1719h9.9062c0.56641 0 1.0547 0.40625 1.1523 0.96484 0.125 0.69141 0.18359 1.3398 0.18359 1.9766v6.0703c0 6.207-5.043 11.254-11.242 11.254zm1.1719-17.922v15.5c4.3555-0.57422 7.7266-4.3164 7.7266-8.832v-6.0703c0-0.19922-0.007813-0.39844-0.023437-0.60156z"/>
  <path d="m63.121 19.484h-30.137c-0.64844 0-1.1719-0.52344-1.1719-1.1719s0.52344-1.1719 1.1719-1.1719h30.137c0.64844 0 1.1719 0.52344 1.1719 1.1719 0 0.64453-0.52734 1.1719-1.1719 1.1719z"/>
  <path d="m63.121 37.09h-30.137c-0.64844 0-1.1719-0.52344-1.1719-1.1719 0-0.64844 0.52344-1.1719 1.1719-1.1719h30.137c0.64844 0 1.1719 0.52344 1.1719 1.1719 0 0.64844-0.52734 1.1719-1.1719 1.1719z"/>
  <path d="m49.805 54.699h-16.82c-0.64844 0-1.1719-0.52344-1.1719-1.1719 0-0.64844 0.52344-1.1719 1.1719-1.1719h16.82c0.64844 0 1.1719 0.52344 1.1719 1.1719 0 0.64453-0.52344 1.1719-1.1719 1.1719z"/>
  <path d="m42.051 72.305h-9.0664c-0.64844 0-1.1719-0.52344-1.1719-1.1719 0-0.64844 0.52344-1.1719 1.1719-1.1719h9.0664c0.64844 0 1.1719 0.52344 1.1719 1.1719 0 0.64844-0.52344 1.1719-1.1719 1.1719z"/>
  <path d="m15.996 24.145c-0.26953 0-0.53906-0.09375-0.76172-0.28125-0.49219-0.42188-0.55078-1.1602-0.12891-1.6523l6.5742-7.6797c0.42187-0.49219 1.1602-0.55078 1.6523-0.12891 0.49219 0.42188 0.55078 1.1602 0.12891 1.6523l-6.5742 7.6797c-0.23047 0.27344-0.55859 0.41016-0.89062 0.41016z"/>
  <path d="m22.57 24.145c-0.33203 0-0.66016-0.14062-0.89062-0.41016l-6.5742-7.6797c-0.42188-0.49219-0.36328-1.2305 0.12891-1.6523s1.2305-0.36328 1.6523 0.12891l6.5742 7.6797c0.42187 0.49219 0.36328 1.2305-0.12891 1.6523-0.21875 0.19141-0.49219 0.28125-0.76172 0.28125z"/>
  <path d="m19.285 39.23c-0.33203 0-0.66016-0.14062-0.89062-0.41016l-3.2891-3.8398c-0.42188-0.49219-0.36328-1.2305 0.12891-1.6523s1.2305-0.36328 1.6523 0.12891l2.5547 2.9844 8.1562-6.4336c0.50781-0.39844 1.2461-0.31641 1.6445 0.19531 0.40234 0.50781 0.3125 1.2461-0.19531 1.6445l-9.043 7.1289c-0.20703 0.17188-0.46484 0.25391-0.71875 0.25391z"/>
  <path d="m19.285 56.836c-0.33203 0-0.66016-0.14063-0.89062-0.41016l-3.2891-3.8398c-0.42188-0.49219-0.36328-1.2305 0.12891-1.6523s1.2305-0.36328 1.6523 0.12891l2.5547 2.9844 8.1562-6.4336c0.50781-0.40234 1.2461-0.3125 1.6445 0.19531 0.40234 0.50781 0.3125 1.2461-0.19531 1.6445l-9.043 7.1289c-0.20703 0.17188-0.46484 0.25391-0.71875 0.25391z"/>
  <path d="m19.285 74.445c-0.33203 0-0.66016-0.14062-0.89062-0.41016l-3.2891-3.8398c-0.42188-0.49219-0.36328-1.2305 0.12891-1.6523s1.2305-0.36328 1.6523 0.12891l2.5547 2.9844 8.1562-6.4336c0.50781-0.40234 1.2461-0.3125 1.6445 0.19531 0.40234 0.50781 0.3125 1.2461-0.19531 1.6445l-9.043 7.1328c-0.20703 0.16797-0.46484 0.25-0.71875 0.25z"/>
  <path d="m49.586 87.004h-38.117c-3.7383 0-6.7812-3.043-6.7812-6.7852v-71.871c0-3.7422 3.043-6.7852 6.7812-6.7852h56.18c3.7383 0 6.7812 3.043 6.7812 6.7852v40.938c0 0.64844-0.52344 1.1719-1.1719 1.1719-0.64844 0-1.1719-0.52344-1.1719-1.1719v-40.938c0-2.4492-1.9922-4.4414-4.4375-4.4414h-56.18c-2.4492 0-4.4375 1.9922-4.4375 4.4414v71.871c0 2.4492 1.9883 4.4414 4.4375 4.4414h38.117c0.64844 0 1.1719 0.52344 1.1719 1.1719 0 0.64844-0.52734 1.1719-1.1719 1.1719z"/>
 </g>
</svg>
