<?xml version="1.0" encoding="UTF-8"?>
<svg width="100pt" height="100pt" version="1.1" viewBox="0 0 100 100" xmlns="http://www.w3.org/2000/svg">
 <g>
  <path d="m50 20.312c-4.3125 0.003906-7.8086 3.5-7.8125 7.8125 0.007812 1.7148 0.58203 3.375 1.6328 4.7266-5.3203 0.40234-9.4375 4.832-9.4453 10.172v13.227c0 0.41406 0.16406 0.8125 0.45703 1.1055s0.69141 0.45703 1.1055 0.45703h4.6875v20.312c0 0.41406 0.16406 0.8125 0.45703 1.1055s0.69141 0.45703 1.1055 0.45703h15.625c0.41406 0 0.8125-0.16406 1.1055-0.45703s0.45703-0.69141 0.45703-1.1055v-20.312h4.6875c0.41406 0 0.8125-0.16406 1.1055-0.45703s0.45703-0.69141 0.45703-1.1055v-13.227c-0.007812-5.3398-4.125-9.7695-9.4453-10.172 1.0508-1.3516 1.625-3.0117 1.6328-4.7266-0.003906-4.3125-3.5-7.8086-7.8125-7.8125zm0 3.125c1.8945 0 3.6055 1.1406 4.332 2.8945 0.72266 1.75 0.32422 3.7656-1.0156 5.1094-1.3438 1.3398-3.3594 1.7383-5.1094 1.0156-1.7539-0.72656-2.8945-2.4375-2.8945-4.332 0-2.5898 2.0977-4.6875 4.6875-4.6875zm12.5 19.586v11.664h-3.125v-14.062h-3.125v35.938h-4.6875v-20.312h-3.125v20.312h-4.6875v-35.938h-3.125v14.062h-3.125v-11.664c0.003906-3.9141 3.1719-7.082 7.0859-7.0859h10.832-0.003907c3.9141 0.003906 7.082 3.1719 7.0859 7.0859z"/>
  <path d="m84.375 9.375c0 2.5273 1.5234 4.8086 3.8594 5.7734 2.3359 0.96875 5.0234 0.43359 6.8086-1.3555 1.7891-1.7852 2.3242-4.4727 1.3555-6.8086-0.96484-2.3359-3.2461-3.8594-5.7734-3.8594-3.4531 0-6.25 2.7969-6.25 6.25zm9.375 0c0 1.2656-0.76172 2.4023-1.9297 2.8867-1.168 0.48438-2.5117 0.21484-3.4062-0.67578-0.89062-0.89453-1.1602-2.2383-0.67578-3.4062 0.48438-1.168 1.6211-1.9297 2.8867-1.9297 0.82812 0 1.625 0.32812 2.2109 0.91406 0.58594 0.58594 0.91406 1.3828 0.91406 2.2109z"/>
  <path d="m35.938 9.375c0 2.5273 1.5234 4.8086 3.8594 5.7734 2.3359 0.96875 5.0234 0.43359 6.8086-1.3555 1.7891-1.7852 2.3242-4.4727 1.3555-6.8086-0.96484-2.3359-3.2461-3.8594-5.7734-3.8594-3.4531 0-6.25 2.7969-6.25 6.25zm6.25-3.125c1.2656 0 2.4023 0.76172 2.8867 1.9297 0.48438 1.168 0.21484 2.5117-0.67578 3.4062-0.89453 0.89062-2.2383 1.1602-3.4062 0.67578-1.168-0.48438-1.9297-1.6211-1.9297-2.8867 0-1.7266 1.3984-3.125 3.125-3.125z"/>
  <path d="m71.875 78.125c0 2.5273 1.5234 4.8086 3.8594 5.7734 2.3359 0.96875 5.0234 0.43359 6.8086-1.3555 1.7891-1.7852 2.3242-4.4727 1.3555-6.8086-0.96484-2.3359-3.2461-3.8594-5.7734-3.8594-3.4531 0-6.25 2.7969-6.25 6.25zm9.375 0c0 1.2656-0.76172 2.4023-1.9297 2.8867-1.168 0.48438-2.5117 0.21484-3.4062-0.67578-0.89062-0.89453-1.1602-2.2383-0.67578-3.4062 0.48438-1.168 1.6211-1.9297 2.8867-1.9297 0.82812 0 1.625 0.32812 2.2109 0.91406 0.58594 0.58594 0.91406 1.3828 0.91406 2.2109z"/>
  <path d="m9.375 95.312c2.5273 0 4.8086-1.5234 5.7734-3.8594 0.96875-2.3359 0.43359-5.0234-1.3555-6.8086-1.7852-1.7891-4.4727-2.3242-6.8086-1.3555-2.3359 0.96484-3.8594 3.2461-3.8594 5.7734 0 1.6562 0.66016 3.2461 1.832 4.418s2.7617 1.832 4.418 1.832zm0-9.375c1.2656 0 2.4023 0.76172 2.8867 1.9297 0.48438 1.168 0.21484 2.5117-0.67578 3.4062-0.89453 0.89062-2.2383 1.1602-3.4062 0.67578-1.168-0.48438-1.9297-1.6211-1.9297-2.8867 0-1.7266 1.3984-3.125 3.125-3.125z"/>
  <path d="m20.312 51.562c2.5273 0 4.8086-1.5234 5.7734-3.8594 0.96875-2.3359 0.43359-5.0234-1.3555-6.8086-1.7852-1.7891-4.4727-2.3242-6.8086-1.3555-2.3359 0.96484-3.8594 3.2461-3.8594 5.7734 0 1.6562 0.66016 3.2461 1.832 4.418s2.7617 1.832 4.418 1.832zm0-9.375c1.2656 0 2.4023 0.76172 2.8867 1.9297 0.48438 1.168 0.21484 2.5117-0.67578 3.4062-0.89453 0.89062-2.2383 1.1602-3.4062 0.67578-1.168-0.48438-1.9297-1.6211-1.9297-2.8867 0-1.7266 1.3984-3.125 3.125-3.125z"/>
  <path d="m89.52 19.207-6.25 6.25 2.2109 2.2109 3.582-3.582v0.91406c-0.007812 5.3867-2.1484 10.547-5.957 14.355-3.8086 3.8086-8.9688 5.9492-14.355 5.957v3.125c6.2148-0.007812 12.172-2.4805 16.566-6.8711 4.3906-4.3945 6.8633-10.352 6.8711-16.566v-0.91406l3.582 3.582 2.2109-2.2109-6.25-6.25c-0.60938-0.60938-1.6016-0.60938-2.2109 0z"/>
  <path d="m21.172 30.168-2.6484-4.4102-2.6797 1.6094 4.6875 7.8125h0.003906c0.44531 0.73828 1.4062 0.98047 2.1445 0.53516l7.8125-4.6875-1.6094-2.6797-4.7266 2.8359c1.6875-5.8906 5.7695-10.801 11.25-13.543l-1.3984-2.7969c-6.2227 3.1055-10.871 8.6562-12.836 15.324z"/>
  <path d="m27.746 89.031-3.7383-0.78125 3.4922-2.625-1.875-2.5-6.25 4.6875c-0.69141 0.51953-0.83203 1.4961-0.3125 2.1875l4.6875 6.25 2.5-1.875-2.1953-2.9297 3.0508 0.64063-0.003907 0.003906c14.941 3.1406 30.508 0.89453 43.953-6.3398l-1.4844-2.7539v0.003906c-12.793 6.8789-27.605 9.0156-41.824 6.0312z"/>
  <path d="m5.793 15.168 3.582-3.582 3.582 3.582 2.2109-2.2109-3.582-3.582 3.582-3.582-2.2109-2.2109-3.582 3.582-3.582-3.582-2.2109 2.2109 3.582 3.582-3.582 3.582z"/>
  <path d="m77.02 19.207-3.582 3.582-3.582-3.582-2.2109 2.2109 3.582 3.582-3.582 3.582 2.2109 2.2109 3.582-3.582 3.582 3.582 2.2109-2.2109-3.582-3.582 3.582-3.582z"/>
  <path d="m83.918 62.043 3.582-3.582 3.582 3.582 2.2109-2.2109-3.582-3.582 3.582-3.582-2.2109-2.2109-3.582 3.582-3.582-3.582-2.2109 2.2109 3.582 3.582-3.582 3.582z"/>
  <path d="m33.27 66.082-3.582 3.582-3.582-3.582-2.2109 2.2109 3.582 3.582-3.582 3.582 2.2109 2.2109 3.582-3.582 3.582 3.582 2.2109-2.2109-3.582-3.582 3.582-3.582z"/>
  <path d="m94.207 84.832-3.582 3.582-3.582-3.582-2.2109 2.2109 3.582 3.582-3.582 3.582 2.2109 2.2109 3.582-3.582 3.582 3.582 2.2109-2.2109-3.582-3.582 3.582-3.582z"/>
  <path d="m12.957 53.582-3.582 3.582-3.582-3.582-2.2109 2.2109 3.582 3.582-3.582 3.582 2.2109 2.2109 3.582-3.582 3.582 3.582 2.2109-2.2109-3.582-3.582 3.582-3.582z"/>
 </g>
</svg>
