<?xml version="1.0" encoding="UTF-8"?>
<svg width="100pt" height="100pt" version="1.1" viewBox="0 0 100 100" xmlns="http://www.w3.org/2000/svg">
 <g>
  <path d="m86.676 33.332h-20.016v-20.004c-11.105-4.6055-23.039-4.2656-33.336 0v20.004h-20c-4.6016 11.105-4.2656 23.039 0 33.336h20v20.008c11.105 4.6016 23.039 4.2656 33.336 0v-20.008h20.016c4.6016-11.109 4.2617-23.043 0-33.336zm-53.352 23.336v3.332h-15.27c-1.8633-6.5625-1.8633-13.445 0-20.004h31.941v-6.668h-10l-0.003906-15.273c3.2539-0.92188 6.6133-1.3906 10.02-1.3906 3.3906 0 6.7305 0.46484 9.9805 1.3867v25.281c0 1.8398-1.4922 3.332-3.332 3.332h-13.332c-5.5234 0.003907-10.004 4.4805-10.004 10.004zm48.621 3.332h-31.953v6.668h10v15.277c-3.2539 0.92188-6.6094 1.3867-10.02 1.3867-3.3906 0-6.7305-0.46484-9.9805-1.3867l0.003906-25.277c0-1.8438 1.4922-3.3359 3.332-3.3359l13.332 0.003907c5.5195 0 10-4.4766 10-10v-3.3359h15.285c1.8633 6.5586 1.8633 13.441 0 20z"/>
  <path d="m51.66 25c0 4.4453-6.668 4.4453-6.668 0s6.668-4.4453 6.668 0"/>
  <path d="m54.992 75c0 4.4453-6.668 4.4453-6.668 0s6.668-4.4453 6.668 0"/>
 </g>
</svg>
