<?xml version="1.0" encoding="UTF-8"?>
<svg width="100pt" height="100pt" version="1.1" viewBox="0 0 100 100" xmlns="http://www.w3.org/2000/svg">
 <g>
  <path d="m64.062 10.938c-0.003906-4.3125-3.5-7.8086-7.8125-7.8125h-40.625c-4.3125 0.003906-7.8086 3.5-7.8125 7.8125v78.125c0.003906 4.3125 3.5 7.8086 7.8125 7.8125h40.625c4.3125-0.003906 7.8086-3.5 7.8125-7.8125v-14.121c0.75391-0.57031 1.4844-1.168 2.1875-1.8008l1.8516 1.8594-3.125 3.125 17 17c2.3359 2.3359 6.125 2.3359 8.4609 0s2.3359-6.125 0-8.4609l-17-17-3.125 3.125-1.8594-1.8516c5.9141-6.4883 8.8125-15.172 7.9766-23.914-0.83594-8.7383-5.3281-16.715-12.367-21.965zm24.164 77.938c1.0742 1.1211 1.0547 2.8984-0.042968 3.9961s-2.875 1.1172-3.9961 0.042968l-10.102-10.102 4.0391-4.0391zm-12.312-12.312-4.0391 4.0391-2.4766-2.4766 4.0391-4.0391zm-64.977 12.5v-1.5625h21.531c-1.625 1.7656-1.625 4.4844 0 6.25h-16.844c-2.5898 0-4.6875-2.0977-4.6875-4.6875zm25 3.125c-0.63281 0-1.2031-0.37891-1.4453-0.96484-0.23828-0.58203-0.10547-1.2539 0.33984-1.7031 0.44922-0.44531 1.1211-0.57812 1.7031-0.33984 0.58594 0.24219 0.96484 0.8125 0.96484 1.4453 0 0.41406-0.16406 0.8125-0.45703 1.1055s-0.69141 0.45703-1.1055 0.45703zm25-3.125c0 2.5898-2.0977 4.6875-4.6875 4.6875h-16.844c1.625-1.7656 1.625-4.4844 0-6.25h21.531zm12.5-39.062c0 7.4609-2.9648 14.613-8.2383 19.887-5.2734 5.2734-12.426 8.2383-19.887 8.2383s-14.613-2.9648-19.887-8.2383c-5.2734-5.2734-8.2383-12.426-8.2383-19.887s2.9648-14.613 8.2383-19.887c5.2734-5.2734 12.426-8.2383 19.887-8.2383 7.457 0.007812 14.605 2.9766 19.879 8.2461 5.2695 5.2734 8.2383 12.422 8.2461 19.879zm-28.125-31.25c-9.7305-0.023438-18.914 4.4883-24.844 12.199-5.9297 7.7148-7.9297 17.746-5.4102 27.145 2.5195 9.3984 9.2695 17.082 18.266 20.793 8.9922 3.7109 19.199 3.0234 27.613-1.8633v7.3516h-50v-68.75h50v7.3516c-4.7422-2.7656-10.133-4.2266-15.625-4.2266zm-34.375-6.25v-1.5625c0-2.5898 2.0977-4.6875 4.6875-4.6875h40.625c2.5898 0 4.6875 2.0977 4.6875 4.6875v1.5625z"/>
  <path d="m37.047 8.2656c-0.625-0.57812-1.5938-0.57812-2.2188 0-0.14062 0.14844-0.25391 0.32422-0.32812 0.51562-0.078125 0.1875-0.12109 0.39062-0.125 0.59375s0.039062 0.41016 0.125 0.59375c0.078125 0.1875 0.19141 0.36328 0.32812 0.51562 0.14844 0.14062 0.32422 0.25391 0.51562 0.32812 0.58203 0.25 1.2578 0.12109 1.7031-0.32812 0.13672-0.15234 0.25-0.32812 0.32812-0.51562 0.16797-0.37891 0.16797-0.80859 0-1.1875-0.078125-0.1875-0.19141-0.36328-0.32812-0.51562z"/>
  <path d="m28.125 48.438h15.625v-15.625h-15.625zm3.125-12.5h9.375v9.375h-9.375z"/>
  <path d="m28.125 67.188h15.625v-15.625h-15.625zm3.125-12.5h9.375v9.375h-9.375z"/>
  <path d="m62.5 32.812h-15.625v15.625h15.625zm-3.125 12.5h-9.375v-9.375h9.375z"/>
  <path d="m34.375 39.062h3.125v3.125h-3.125z"/>
  <path d="m53.125 39.062h3.125v3.125h-3.125z"/>
  <path d="m34.375 57.812h3.125v3.125h-3.125z"/>
  <path d="m56.25 54.688h-3.125v-3.125h-6.25v3.125h3.125v3.125h6.25z"/>
  <path d="m50 67.188h3.125v-6.25h-3.125v-3.125h-3.125v6.25h3.125z"/>
  <path d="m56.25 64.062h3.125v3.125h-3.125z"/>
  <path d="m59.375 51.562h3.125v3.125h-3.125z"/>
  <path d="m59.375 60.938v3.125h3.125v-6.25h-6.25v3.125z"/>
 </g>
</svg>
