<?xml version="1.0" encoding="UTF-8"?>
<svg width="100pt" height="100pt" version="1.1" viewBox="0 0 100 100" xmlns="http://www.w3.org/2000/svg">
 <g>
  <path d="m57.602 38.102c-4.6016-2.3008-10.398-3.5-16.398-3.5s-11.801 1.3008-16.398 3.5c-0.69922 0.30078-1.1016 1-1.1016 1.8008 0 0.80078 0.39844 1.5 1.1016 1.8008 4.6016 2.3008 10.398 3.5 16.398 3.5 5.9961-0.003906 11.797-1.2031 16.398-3.5039 0.69922-0.30078 1.1016-1 1.1016-1.8008-0.003906-0.69922-0.50391-1.3984-1.1016-1.7969zm-16.402 3.0977c-3.5 0-6.8008-0.5-9.8984-1.3008 3-0.89844 6.3984-1.3008 9.8984-1.3008s6.8008 0.5 9.8984 1.3008c-3.0977 0.90234-6.4961 1.3008-9.8984 1.3008z"/>
  <path d="m89 32.699c-3.3008 0-6.1016 2.1992-6.8984 5.1992h-2.6992l-0.003906-6.8984c0-1.1016-0.89844-2-2-2-1.1016 0-2 0.89844-2 2v6.8984h-3.1992v-8.1992c0-1.1016-0.89844-2-2-2-1.1016 0-2 0.89844-2 2v8.1992h-2.8008v-8.1016c0-0.89844-0.60156-1.6016-1.3984-1.8984-1.6992-0.60156-3.5-1-5.3008-1.3984l-0.10156-6c0-1.1016-0.89844-2-2-2-1.1016 0-2 0.89844-2 2l0.10156 5.1992c-1.1016-0.19922-2.1992-0.30078-3.3008-0.39844l-0.10156-3.6016c0-1.1016-0.89844-2-2-2s-2 0.89844-2 2l0.10156 3.3984h-0.10156c-4.5 0-8.8984 0.5-13.102 1.6016-7.3984-10.602-21.801-10.602-29.199-7.3008-0.80078 0.39844-1.3008 1.1992-1.1992 2 0.10156 0.89844 0.69922 1.6016 1.6016 1.6992 1.3008 0.30078 2.5 0.80078 3.5 1.5 2.1992 1.5 3.6992 3.8008 4.1992 6.3984 0.5 2.5 0 4.8984-1.3008 7.1016-1 1.8008-0.30078 3 0.69922 3.8984 3.3984 3.1016 4.1992 7.5 4.1992 8.8008 0 5.1016-2.6016 9-5.6016 13.398-0.60156 0.89844-1.3008 1.8984-1.8984 2.8984-1.3984 2.1016-1.6992 4.6992-1 7.1016 0.69922 2.3984 2.5 4.3984 4.8008 5.3984 4 1.6992 7.1992 2.6016 9.6992 2.6016 1.5 0 2.8008-0.30078 3.6992-1 1.1016-0.69922 2.3008-2.1016 2.3008-4.8984 0-0.69922-0.19922-1.3008-0.39844-2.1016-0.19922-0.69922-0.5-1.6992-0.39844-2.1992 0.10156-0.5 0.39844-0.80078 0.69922-1.3008 0.5-0.69922 1.1016-1.6016 1.3984-2.8984 0.19922-1 0.19922-1.8984 0.19922-2.6992 0-1 0-1.8984 0.39844-2.5 0.89844-1.6016 2.1016-2.3008 3.8008-2.1992 3.6992 0.30078 4-2.8008 4.1016-3.8008 0.10156-1.1992 0.19922-2 2.1016-2.6992 0.80078 0.10156 1.5 0.19922 2.3008 0.19922-0.10156 0.30078-0.19922 0.69922-0.30078 1.1016-0.39844 1.8008 0 3.8008 1 5.6016 0.39844 0.60156 1 1 1.6992 1 0.30078 0 0.69922-0.10156 1-0.30078 1-0.60156 1.3008-1.8008 0.69922-2.6992-0.5-0.89844-0.69922-1.8984-0.60156-2.6992 0.10156-0.69922 0.5-1.3008 1.1016-1.6992 5.5-0.10156 11-0.89844 16.199-2.6016 0.80078-0.30078 1.3984-1 1.3984-1.8984v-8.1016h2.8008v8.1992c0 1.1016 0.89844 2 2 2 1.1016 0 2-0.89844 2-2v-8.1992h3.1992v6.8984c0 1.1016 0.89844 2 2 2s2-0.89844 2-2v-6.8984h2.6992c0.89844 3 3.6016 5.1992 6.8984 5.1992 4 0 7.1992-3.1992 7.1992-7.1992 0.007813-4-2.8906-7.1016-6.8906-7.1016zm-72-2.1992c-0.69922-3.5-2.6016-6.5-5.3984-8.6016 5.6992-0.89844 13.5 0.20312 18.398 6.1016-4.5 1.5-8.8008 3.6016-12.801 6.1992 0.10156-1.1992 0.10156-2.5-0.19922-3.6992zm17.699 26.102v0.10156c-3.1992-0.19922-5.8008 1.3008-7.3984 4.3008-0.80078 1.5-0.89844 3.1016-0.89844 4.3984 0 0.69922 0 1.3008-0.10156 1.8008-0.10156 0.60156-0.39844 1-0.80078 1.6016-0.5 0.69922-1 1.5-1.3008 2.6016-0.39844 1.6016 0.10156 3.1992 0.39844 4.3984 0.10156 0.30078 0.19922 0.80078 0.19922 0.89844 0 1.1992-0.39844 1.3984-0.5 1.5-1 0.60156-4 0.5-9.6016-2-1.3008-0.5-2.1992-1.6016-2.6016-2.8984-0.39844-1.3008-0.19922-2.6992 0.5-3.8008 0.60156-0.89844 1.1992-1.8984 1.8008-2.8008 3.1992-4.8008 6.3008-9.3008 6.3008-15.602 0-0.89844-0.19922-2.1016-0.5-3.5 4.8008 2.6992 10 4.6992 15.398 5.8984-0.69531 1.1016-0.79297 2.3008-0.89453 3.1016zm26.699-8c-4.6016 1.3008-9.3008 2-14.199 2-11.301 0-22.199-3.8008-31.102-10.699 8.9023-6.9023 19.801-10.703 31.102-10.703 4.8008 0 9.6016 0.69922 14.199 2zm27.602-5.5c-1.8008 0-3.1992-1.3984-3.1992-3.1992 0-1.8008 1.3984-3.1992 3.1992-3.1992s3.1992 1.3984 3.1992 3.1992c0 1.7969-1.3984 3.1992-3.1992 3.1992z"/>
  <path d="m15.102 71.602c0 1.8984 1.5 3.5 3.5 3.5 1.8984 0 3.5-1.5 3.5-3.5 0-1.8984-1.5-3.5-3.5-3.5-1.9023 0.097657-3.5 1.5977-3.5 3.5zm4 0c0 0.30078-0.19922 0.60156-0.60156 0.60156-0.30078 0-0.60156-0.19922-0.60156-0.60156 0-0.30078 0.19922-0.60156 0.60156-0.60156 0.39844 0.10156 0.60156 0.30078 0.60156 0.60156z"/>
 </g>
</svg>
