<?xml version="1.0" encoding="UTF-8"?>
<svg width="100pt" height="100pt" version="1.1" viewBox="0 0 100 100" xmlns="http://www.w3.org/2000/svg">
 <g>
  <path d="m60.812 19.258c0 7.0703-4.8398 12.805-10.812 12.805s-10.812-5.7344-10.812-12.805c0-7.0742 4.8398-12.805 10.812-12.805s10.812 5.7305 10.812 12.805"/>
  <path d="m6 82.484h88c0.55078 0 1 0.55078 1 1v9.0664c0 0.55078-0.44922 1-1 1h-88c-0.55078 0-1-0.55078-1-1v-9.0664c0-0.55078 0.44922-1 1-1z"/>
  <path d="m27.055 42.566-11.684 19.449c-1.2109 2.0156-2.3711 6.625 1.3438 9.3438 1.7734 1.2969 3.9727 2.332 15.652-0.875l-1.0195 8h37.305l-1.0195-8c11.68 3.2031 13.879 2.1719 15.652 0.875 3.7148-2.7188 2.5547-7.3281 1.3438-9.3438l-11.684-19.449c-2.2422-3.9414-6.3906-6.4141-10.926-6.5039h-24.039c-4.5352 0.089844-8.6836 2.5625-10.926 6.5039zm24.445 7.1094 18.477-4.8125c0.3125-0.082031 0.64453-0.015625 0.90234 0.18359 0.25391 0.19922 0.40234 0.50391 0.39844 0.82812v15.902l0.13281 0.21875c0 0.019531-0.13281-0.019532-0.13281-0.019532l-9.875-2.957c-2.4141-0.72266-4.957 0.63672-5.6992 3.043-0.74609 2.4023 0.58594 4.9609 2.9844 5.7266 2.5938 0.83203 4.8984 1.543 6.9375 2.1328l-14.125 3.6758zm-3 23.922-14.125-3.6719c2.043-0.58984 4.3438-1.3008 6.9375-2.1328v-0.003907c2.3984-0.76562 3.7305-3.3242 2.9844-5.7266-0.74219-2.4062-3.2852-3.7656-5.6992-3.043l-9.8789 2.957-0.13281 0.039063h0.003906c0.039062-0.082031 0.082031-0.16016 0.12891-0.23828v-15.902c0-0.32422 0.14844-0.62891 0.40234-0.82812 0.25781-0.19922 0.58984-0.26562 0.90234-0.18359l18.477 4.8125z"/>
 </g>
</svg>
