<?xml version="1.0" encoding="UTF-8"?>
<svg width="100pt" height="100pt" version="1.1" viewBox="0 0 100 100" xmlns="http://www.w3.org/2000/svg">
 <path d="m80.738 85.988c-1.8477 0-2.5625-1.4219-2.918-2.1289-0.0625-0.12891-0.12109-0.25-0.1875-0.34766-0.35547-0.52734-0.75391-1.0977-1.1562-1.6758-0.64453-0.92188-1.2891-1.8516-1.7773-2.6094-1.8984-2.9492-4.4766-4.4688-7.9141-6.293-3.8477-2.043-7.3086-5.0586-9.2617-8.0625-1.0547-1.6211-2.4336-4.082-2.2305-6.707 0.023437-0.32422 0.074219-0.63672 0.14844-0.9375-7.5859 3.5742-19.699 2.5898-21.191 2.2734-1.8164-0.38281-2.6992-0.71875-3.8125-1.3203-0.19922 0.64453-0.44141 1.2852-0.73828 1.8867 0.30078 0.12891 0.60938 0.21484 0.96094 0.30469l0.40625 0.10938c0.34375 0.097656 1.1523 0.46484 1.2539 1.7578 0.082032 1.0352-0.33594 2.8203-1.5039 3.3672-0.77344 0.35938-1.5117 0.32422-2.1523 0.13672 0.83203 1.0508 1.0977 3.0273 0.55859 4.4414-0.42578 1.1172-1.3164 1.7812-2.4375 1.8242-1.8008 0.050782-2.6445-1.8672-3.1836-3.1484-0.14453-0.34375-0.30859-0.73047-0.41406-0.88672 0 0-0.058594-0.082031-0.058594-0.082031-0.64844-0.95312-1.0977-1.4844-1.3984-1.7812 0.023437 1.1328 0.44531 3.1133 0.67578 3.6445 0.38672 0.89453 0.81641 2.9883 0.82031 3.0078 0.21484 1.0664-0.24609 2.1797-1.1992 2.9023-1.043 0.79297-2.4141 0.94531-3.4961 0.39453-1.6602-0.84766-2.3633-2.6797-2.0938-5.4375 0.28516-2.9062 0.066406-5.2305-0.60938-6.6367-0.089844 0.097656-0.17578 0.19531-0.25391 0.28516-1.5195 1.7266-3.2422 3.6875-5.0859 3.2969-0.63281-0.12891-1.5039-0.61719-1.9883-2.168-0.89844-2.8633 1.5664-3.9531 2.75-4.4805 0.17578-0.078125 0.34766-0.15234 0.50391-0.23047 0.73047-0.35547 0.83203-0.53906 0.83594-0.54688 0.003906-0.027344 0.027344-0.22656-0.28125-0.97656-0.54297-1.3164-1.2383-2.5586-1.9766-3.875-0.72656-1.3008-1.4805-2.6406-2.0742-4.0664-1.5273-3.668-1.3477-7.1445 0.52344-10.059 0.90625-1.4102 1.8711-2.1719 2.8555-2.5078 0.54688-1.3633 1.7578-3.2188 3.4062-4.0469 2.043-1.0273 3.668-0.34766 4.5977 0.09375 1.9805-2.457 4-4.6367 7.0156-6.9141 2.6367-1.9883 7.8477-5.4453 13.148-6.2266 2.7812-0.40625 5.5508-0.10547 8.2266 0.19141 2.2109 0.24219 4.2969 0.47266 6.3711 0.33203 3.9375-0.26953 9.5547-1.332 13.23-3.0898 0.8125-0.38672 1.4219-1.0938 2.0664-1.8359 0.69531-0.80469 1.4805-1.7109 2.6211-2.3125 0.96484-0.51172 2.8945-1.2578 5.0117-0.55078 1.5469 0.51562 2.8281 1.6836 3.8125 3.4727 0.71484 0.074219 1.418 0.24609 2.1797 0.48438 0.69141 0.21484 1.6602 0.23047 2.6836 0.25 1.8242 0.035156 3.8945 0.070313 5.3125 1.3242 1.043 0.92188 1.5742 2.5234 1.4258 4.2852-0.13672 1.6133-0.78516 3.0039-1.7617 3.8438-0.44141 1.9023-1.7734 3.7852-3.4336 4.8047-0.73047 0.44922-1.5195 0.85938-2.3438 1.2266-0.32031 0.14062-0.54688 0.21875-0.71484 0.27344-0.054688 0.089843-0.12109 0.21484-0.21094 0.37891l-0.070312 0.12891c-0.77344 1.3945-1.0938 1.9688-2.4375 3.25-1.1719 1.1133-2.2773 1.9141-3.582 2.5977-0.87891 0.46094-1.7812 0.75-2.5781 1.0078-0.33984 0.10938-0.66406 0.21484-0.94922 0.32031-0.45703 0.63281-0.95703 1.1523-1.3398 1.5117 0.19531 2.2109 1.3281 4.9258 2.8984 5.8398 1.2656 0.73438 2.9844 0.49219 4.8047 0.23828 0.98438-0.14062 2.0078-0.28125 2.9922-0.26562 0.53906 0.007813 2.5273 0.003907 3.1602 0 0.82812-0.25781 2.7773-0.69922 3.832 0.44531 0.70703 0.76562 0.74609 1.8828 0.11328 3.3164-0.41016 0.93359-1.0547 1.4531-1.7227 1.707 0.27734 0.035157 0.55469 0.125 0.82812 0.27344 1.5195 0.82031 2.707 3.5195 1.9336 5.5078-0.38281 0.97656-1.3984 1.5938-2.625 1.5391-1.0547-0.035156-1.9609-0.54297-2.4531-1.3398-1.1094-0.46875-3-1.3945-4.5547-2.1836 0.31641 0.28906 0.60938 0.60547 0.84766 0.97656 0.78516 1.2188 0.51562 2.2148 0.28516 2.6953-0.42578 0.89062-1.3633 1.5195-2.5508 1.7305 0.83203 0.1875 1.5664 0.70703 2.0625 1.4922 0.66016 1.0469 0.81641 2.0195 0.46484 2.8906-0.59375 1.4727-2.375 1.9102-3.332 2.1445-0.11719 0.027344-0.21875 0.054687-0.30078 0.074218l-0.20312 0.058594c1.7188 0.46484 4.9375 0.90625 6.1445 0.91406 0.17969 0 0.35156-0.003907 0.51953-0.003907 1.1836-0.015624 2.5273-0.035156 3.8906 1.1758 0.95703 0.84766 1.2734 2.0039 0.84375 3.0859-0.48047 1.2109-1.8281 2.1211-3.168 2.0586-0.59375-0.015625-1.4961-0.24609-3.1719-0.6875-1.8945-0.5-4.5078-1.1875-6.5195-1.3594 0.73047 1.0156 1.6758 2.0898 2.4414 2.957 0.070313 0.078125 0.14062 0.16016 0.20703 0.23438 0.69531-0.054687 1.6953 0.011719 2.4336 0.89453 1.4102 1.6875 1.2969 3.0469 0.95703 3.8906-0.58203 1.4375-2.1055 2.082-3.2344 2.1992-0.14453 0.023438-0.28125 0.03125-0.41016 0.03125zm-15.73-46.137c0.33594 0 0.67188 0.13672 0.91406 0.40625 0.45312 0.50391 0.41016 1.2773-0.09375 1.7305-1.7695 1.5859-3.4297 3.1875-4.2852 5.293-0.35547 0.875-0.51953 1.832-0.69531 2.8477-0.19141 1.1094-0.39062 2.2578-0.85547 3.3828-0.30469 0.73047-0.69141 1.375-1.0625 1.9961-0.59375 0.98438-1.1055 1.8398-1.1836 2.8438-0.10938 1.4141 0.49609 3.1094 1.8438 5.1875 1.7344 2.6719 4.8594 5.3789 8.3555 7.2344 3.6445 1.9375 6.6094 3.6875 8.8242 7.1328 0.47266 0.73828 1.1016 1.6406 1.7266 2.5352 0.40625 0.58594 0.8125 1.1641 1.1758 1.6992 0.11719 0.17578 0.23047 0.38672 0.34766 0.61719 0.38281 0.76563 0.47656 0.81641 0.87891 0.76953 0.55078-0.058594 1.0859-0.35547 1.2188-0.68359 0.125-0.30859-0.078126-0.82031-0.56641-1.3984-0.10938-0.070312-0.52734-0.003906-0.6875 0.019532l-0.19922 0.027344c-0.40625 0.054687-0.81641-0.10547-1.0859-0.41406-0.1875-0.21875-0.39844-0.45703-0.62891-0.71484-1.3125-1.4883-3.1133-3.5312-3.832-5.2695-0.14063-0.33984-0.12109-0.72266 0.050781-1.0469s0.48047-0.55469 0.84375-0.625c2.4805-0.48828 6.5234 0.57422 9.4766 1.3516 1.0664 0.28125 2.2773 0.60156 2.6172 0.60937 0.31641-0.011718 0.71875-0.25 0.82422-0.51172 0.015624-0.042969 0.054687-0.13281-0.19141-0.35156-0.625-0.55859-1.1367-0.57422-2.2305-0.55859-0.1875 0.003906-0.37891 0.007812-0.57422 0.003906-0.074219 0-7.625-0.44141-9.0195-2.1641-0.61719-0.76172-0.58594-1.4219-0.45312-1.8438 0.33594-1.0547 1.4531-1.3711 2.6406-1.707l0.23047-0.066406c0.10547-0.03125 0.23828-0.0625 0.39062-0.10156 1.3203-0.32422 1.5977-0.56641 1.6445-0.68359 0 0 0.035156-0.1875-0.26563-0.66797-0.27734-0.4375-0.64844-0.46094-0.91406-0.40234-0.32812 0.070313-0.70703 0.33203-0.76172 0.74219-0.070312 0.52344-0.46875 0.94141-0.98438 1.0391-0.63672 0.12109-1.1523 0.46875-1.7461 0.87109-0.50391 0.33984-1.0742 0.72656-1.7656 0.98047-0.39063 0.14453-0.82422 0.078124-1.1562-0.16797-0.33203-0.24609-0.51563-0.64844-0.48828-1.0625 0.074219-1.1289 0.23828-1.6406 0.53906-2.5664l0.19922-0.61719c0.11328-0.36328 0.38672-0.64453 0.72266-0.77344-0.023438-0.0625-0.0625-0.12891-0.10547-0.17969-0.13281-0.15625-0.63281-0.30078-0.90625-0.28516-0.26953 0.42188-0.28125 0.61328-0.30078 0.98828-0.011719 0.25-0.027344 0.5625-0.10938 0.94531-0.16016 0.77344-0.55078 1.5938-0.91406 2.293-0.039062 0.074219-0.11328 0.20312-0.16797 0.26953l-1.2891 1.5938c-0.29297 0.35937-0.76562 0.52734-1.2188 0.42578-1.8711-0.41406-2.6719-2.7773-3.3164-4.6797-0.13281-0.39453-0.25391-0.75-0.36328-1.0156-0.53125-1.2461-1.2812-2.5156-2.0078-3.7422-0.21094-0.35547-0.42188-0.71094-0.625-1.0625-0.089844-0.15234-0.25-0.39062-0.4375-0.67188-1.2305-1.8398-1.7461-2.7305-1.4961-3.582 0.070313-0.24609 0.20703-0.46094 0.39062-0.62891 0.33203-0.42188 1.4492-1.8086 2.4141-2.707 1.3906-1.2969 2.3281-2.7656 3.1562-4.3984 0.027343-0.070313 0.0625-0.13672 0.10156-0.19922 0.40234-0.8125 0.78125-1.6602 1.1797-2.5508 0.70703-1.5859 1.1133-2.4023 2.5508-3.5898 0.003906-0.003906 0.011719-0.007813 0.015625-0.011719 1.1367-0.94141 1.9648-2.1289 2.1094-3.0234 0.10938-0.66797 0.73438-1.1211 1.4062-1.0156 0.53906 0.085938 0.94141 0.51563 1.0156 1.0273 0.42188-0.14844 0.83594-0.31641 1.2305-0.52344 1.1094-0.58203 2.0156-1.2383 3.0273-2.2031 1.0742-1.0234 1.2695-1.3711 1.9844-2.6641l0.070313-0.12891c0.5-0.90234 0.71484-1.2266 1.5547-1.5039 0.12109-0.039063 0.28516-0.09375 0.52344-0.19922 0.72266-0.32031 1.4141-0.67969 2.0508-1.0703 0.18359-0.11328 0.36328-0.24219 0.53516-0.39063-0.97266 0.36719-1.9805 0.58984-2.8477 0.60938-0.67578-0.003907-1.2227-0.55469-1.2188-1.2305 0.003907-0.67578 0.55078-1.2188 1.2266-1.2188h0.019531c1.3438 0 3.7461-1.1172 5.1562-2.168 0.007813-0.003906 0.015625-0.011719 0.019531-0.015625 0.023438-0.019531 0.050782-0.035156 0.078125-0.050781 0.55078-0.34766 0.98047-1.2734 1.0703-2.3086 0.082031-0.96484-0.15625-1.8477-0.60547-2.2422-0.74609-0.65625-2.2656-0.68359-3.7383-0.71094-1.1484-0.019531-2.3398-0.042969-3.3633-0.35938-0.38672-0.12109-0.73437-0.21875-1.0664-0.28516 0.12891 0.37109 0.078125 0.79688-0.17188 1.1328-0.40234 0.54297-1.1719 0.65625-1.7148 0.25391l-0.37891-0.28516c-0.9375-0.71094-2.1016-1.5938-3.0195-1.5234-0.67188 0.039062-1.2656-0.45312-1.3164-1.125-0.054688-0.67578 0.44922-1.2656 1.125-1.3164 0.78125-0.054687 1.5352 0.12891 2.2266 0.44141-0.51562-0.625-1.0938-1.0469-1.7266-1.2578-1.2539-0.41797-2.4766 0.066406-3.0938 0.39062-0.73047 0.38672-1.3047 1.0508-1.9102 1.75-0.74609 0.85938-1.5898 1.8359-2.8633 2.4453-4.2383 2.0234-10.254 3.0547-14.117 3.3203-2.293 0.16406-4.5898-0.09375-6.8086-0.33984-2.6406-0.28906-5.1328-0.56641-7.6016-0.20312-4.7617 0.69922-9.5781 3.9062-12.027 5.7578-2.9219 2.207-4.8125 4.2773-6.7891 6.7539-0.085937 0.33594-0.3125 0.61328-0.61328 0.77344-0.45703 0.58203-0.92188 1.1875-1.4102 1.8242l-0.95312 1.2383c-0.085938 0.10938-0.17188 0.21875-0.26172 0.32812-0.125 0.15234-0.24609 0.30078-0.375 0.48047 0.23047 0.42187 0.49219 0.91016 0.77734 1.4492 1.5859 2.9805 4.5391 8.5234 6.582 9.5586 0.60547 0.30469 0.84375 1.043 0.53906 1.6445-0.30469 0.60156-1.0391 0.84766-1.6445 0.53906-2.5273-1.2773-5.0547-5.7383-7.6367-10.594-0.41797-0.78516-0.78125-1.4688-1.0703-1.9727-0.03125-0.050782-0.054688-0.10547-0.078125-0.15625-2.3359-1.1758-3.1836-0.94531-4.3555 0.87891-1.4375 2.2383-1.5469 4.8594-0.32422 7.793 0.53906 1.293 1.2227 2.5156 1.9492 3.8125 0.73828 1.3203 1.5039 2.6875 2.1055 4.1406 0.78516 1.9023 0.78906 3.4219-1.7422 4.6602-0.18359 0.089844-0.38281 0.17969-0.58984 0.26953-1.5742 0.69531-1.5898 0.90234-1.4023 1.5078 0.085938 0.27344 0.16406 0.42187 0.21484 0.49219 0.65234-0.17969 2.125-1.8516 2.6914-2.5 0.61328-0.69922 1.0977-1.25 1.5352-1.5547 0.47266-0.32422 1.1055-0.28125 1.5273 0.10547 1.8438 1.6953 2.5391 4.9453 2.0742 9.6562-0.16406 1.6562 0.09375 2.6719 0.76953 3.0195 0.26953 0.13672 0.65625 0.019531 0.89844-0.16406 0.14844-0.11328 0.3125-0.30078 0.27734-0.46484-0.15625-0.76562-0.48438-2.0938-0.66797-2.5195-0.027343-0.0625-2.1797-6.1523 0.34766-7.2539 1.9922-0.86719 3.7891 1.7695 4.6523 3.0391 0.29688 0.4375 0.49219 0.89844 0.69922 1.3945 0.20703 0.49219 0.64062 1.5156 0.92578 1.6719-0.011718-0.019531 0.046876-0.023437 0.13672-0.23437 0.28516-0.67969 0.054688-1.8281-0.17969-2.0859-0.85156-0.82031-1.3398-1.6992-1.8125-2.5547-0.21875-0.39453-0.44531-0.80078-0.71094-1.2031-0.32422-0.011719-0.66797-0.046876-1.0273-0.10547-4.0234-0.64453-7.2734-3.9883-9.6602-9.9453-0.92578-2.3125-1.6094-4.6523-2.3516-7.457-0.17188-0.65234 0.21484-1.3242 0.87109-1.4961 0.65234-0.17188 1.3242 0.21875 1.4961 0.87109 0.71875 2.7188 1.3789 4.9805 2.2578 7.1758 2.043 5.1016 4.6562 7.9375 7.7734 8.4375 1.6562 0.26562 2.7031-0.17578 3.4453-1.1758 0.023437-0.039063 0.054687-0.078125 0.082031-0.11719 0.74219-1.0742 1.1758-2.7305 1.6328-4.8086 0.21875-0.99219 0.42578-1.9297 0.71094-2.7461 0.22266-0.64062 0.91797-0.97656 1.5586-0.75781 0.64062 0.22266 0.97656 0.92187 0.75391 1.5586-0.23828 0.6875-0.42969 1.5547-0.63281 2.4766-0.023437 0.10156-0.046874 0.20703-0.070312 0.3125 1.3125 0.75781 1.9062 1.0078 3.6875 1.3828 2.4258 0.51172 18.062 1.2422 22.93-4.4531 0.011718-0.023437 0.023437-0.050781 0.03125-0.078125 0.36328-0.875 0.52734-1.8438 0.70312-2.8633 0.1875-1.0977 0.38672-2.2305 0.83984-3.3516 1.0508-2.5898 3.0078-4.4805 4.9219-6.1953 0.25-0.23438 0.53906-0.33594 0.83203-0.33594zm-0.99219 16.848c0.25781 0.48047 0.75781 1.2305 1.0039 1.5977 0.22656 0.33594 0.41406 0.625 0.51953 0.80859 0.19922 0.34766 0.40625 0.69141 0.61328 1.043 0.76953 1.2969 1.5625 2.6367 2.1562 4.0312 0.13281 0.30859 0.27344 0.72656 0.42969 1.1875 0.17969 0.52734 0.62109 1.8398 1.0586 2.5703l0.45703-0.56641c0.20703-0.40234 0.5625-1.1211 0.66797-1.6211 0.046875-0.21875 0.050781-0.39844 0.0625-0.57031 0.035156-0.71875 0.125-1.3945 0.84375-2.4219 0.37109-0.53516 1.0117-0.85156 1.8008-0.88672 0.91797-0.046875 2.1602 0.29688 2.8789 1.1445 0.71094 0.83984 0.93359 2.0508 0.57813 2.9492 0.046874-0.019532 0.09375-0.035156 0.14453-0.054688 0.40625-0.9375 1.25-1.6641 2.2969-1.9375-1.2617-0.20703-1.6875-1.0508-2.0039-1.918-0.10156-0.27344-0.19531-0.53125-0.35156-0.80078-0.30469-0.51953-0.73047-1.0547-1.1797-1.625-0.38281-0.48438-0.77734-0.98438-1.125-1.5078l-0.10547-0.15625c-0.83203-1.2656-1.0898-1.4844-1.6016-1.3672-0.67969 0.15234-1.3125 0.70312-1.9844 1.2852-0.027343 0.74219-0.39453 1.3867-1.0547 1.8086-1.0859 0.69141-2.7812 0.60547-3.707-0.1875-0.77344-0.66406-1.1875-1.5898-1.1406-2.5352 0.046874-0.91797 0.52344-1.7617 1.3125-2.3086 0.45312-0.31641 0.92578-0.38672 1.2383-0.43359 0.097656-0.015624 0.24609-0.035156 0.28125-0.054687 0.0625-0.0625 0.19141-0.32422 0.27734-0.49609 0.13672-0.27344 0.28906-0.58594 0.50781-0.86328 0.22266-0.28516 0.42578-0.5 0.59375-0.67969 0.015625-0.019531 0.03125-0.035156 0.046875-0.050781-0.03125-0.066406-0.078125-0.15234-0.14062-0.26953-0.078125-0.14062-0.15625-0.29297-0.24219-0.45312-0.066407-0.13281-0.16797-0.32422-0.28125-0.52344-0.76953 1.3086-1.6875 2.5469-2.9141 3.6914-0.67969 0.64844-1.5039 1.6367-1.9375 2.1719zm-36.18 5.7734c0.085937 0.066406 0.1875 0.14062 0.30078 0.21484l0.20312 0.14062c0.50781 0.35156 0.98828 0.65625 1.3359 0.60156 0.09375-0.16797 0.17578-0.47656 0.20703-0.72656-0.48047-0.12891-1.0273-0.28906-1.6055-0.60547-0.14062 0.13281-0.28906 0.25781-0.44141 0.375zm52.121-0.90234c0.085938 0.011719 0.26172 0.019532 0.57031-0.015624 0.57031-0.0625 0.89062-0.30859 0.92188-0.39844 0 0 0.003906-0.097656-0.13281-0.3125-0.26562-0.41406-0.81641-0.81641-1.3984-1.2383-0.5625-0.41016-1.1406-0.83203-1.625-1.3711-0.51562-0.57812-1.5039-2.1055-1.6133-2.2773-0.31641-0.48828-0.24219-1.1367 0.17578-1.5391 0.63672-0.62109 1.4609-0.60547 2.2539-0.35547-0.14453-0.22266-0.21484-0.48828-0.19141-0.76953 0.050781-0.60938 0.55078-1.0898 1.1602-1.1211 1.7266-0.082031 3.5078-0.089844 5.1602-0.015625 0.36328 0.015625 0.62891 0.007812 0.85156 0.003906 0.66016-0.015625 1.1094-0.011718 2.0508 0.30859 0.48828 0.14453 0.66406-0.25 0.73828-0.41797 0.12891-0.28906 0.1875-0.49219 0.21484-0.625-0.32031 0.003907-0.88281 0.085938-1.3203 0.23438-0.12891 0.042969-0.26172 0.066406-0.39844 0.066406 0 0-2.7422 0.011719-3.3984 0-0.80078 0.003907-1.6836 0.11328-2.6172 0.24219-2.0508 0.28516-4.375 0.60938-6.3711-0.54688-1.9492-1.1289-3.1211-3.4336-3.6992-5.5508-0.097656 0.21094-0.20312 0.44531-0.32422 0.71484-0.27344 0.61328-0.54297 1.2188-0.82031 1.8125 0.51953 0.55078 0.89062 1.2617 1.1875 1.8398 0.074219 0.14062 0.14453 0.27734 0.21094 0.39844 0.85156 1.543 0.57812 2.2812-0.26953 3.1836-0.125 0.13281-0.27734 0.29297-0.44531 0.50781-0.066406 0.085937-0.16406 0.27734-0.24609 0.44922-0.12109 0.24219-0.26172 0.52344-0.44922 0.78906 0.69531-0.57422 1.4922-1.125 2.4922-1.3516 2.2617-0.50781 3.418 1.2461 4.1836 2.4102l0.10156 0.15234c0.28516 0.43359 0.63281 0.875 1.0039 1.3398 0.48047 0.60937 0.98047 1.2383 1.3711 1.9023 0.26953 0.46094 0.42188 0.87109 0.53906 1.2031 0.039062 0.11328 0.09375 0.25781 0.13281 0.34766zm0.82422-6.7188c0.074219 0.042969 0.14453 0.085938 0.21484 0.125 0.12891 0.074219 0.23828 0.14063 0.32422 0.1875 1.5039 0.80078 5.8438 3.0039 7.0742 3.4492 0.35938 0.12891 0.63672 0.42188 0.75 0.78516 0.03125 0.10156 0.16406 0.15625 0.24219 0.17969 0.23828 0.074219 0.47656 0.027344 0.53906-0.019531 0.097657-0.30078 0.019531-0.94922-0.23828-1.5391-0.17578-0.39844-0.38281-0.64844-0.51953-0.76953v0.003906c-0.33203 0.46875-0.94141 0.64453-1.4727 0.42188-0.26172-0.10938-0.64453-0.27344-1.1016-0.47656-1.5234-0.66406-4.1328-1.7969-5.8125-2.3477zm-11.609 1.5391c-0.375 0.17969-0.72656 0.23047-0.98828 0.26953-0.082032 0.011719-0.16016 0.015625-0.23828 0.042969-0.12109 0.089844-0.21094 0.23438-0.22266 0.39844-0.007812 0.1875 0.09375 0.38281 0.28906 0.55469 0.125 0.074219 0.48438 0.085938 0.69141 0.023438-0.082031-0.44141 0.0625-0.94922 0.40625-1.2344 0.023437-0.019531 0.042969-0.035156 0.0625-0.054687zm17.684-1.75c0.25 0.10938 0.48828 0.21484 0.71094 0.30859 0.12109 0.054687 0.23438 0.10156 0.34375 0.14844 0.09375-0.0625 0.19141-0.11719 0.28906-0.16016-0.31641-0.011719-0.60938-0.070312-0.85938-0.15625-0.19922-0.070312-0.35156-0.11328-0.48438-0.14062zm-72.488-15.988c0.57031 0.15234 1.1328 0.38672 1.6875 0.64844 0.054687-0.066406 0.10547-0.13281 0.15625-0.19141l1.168-1.5039c0.23828-0.30859 0.46875-0.61328 0.69922-0.91016-0.57031-0.21484-1.1523-0.28516-1.9375 0.10547-0.6875 0.34766-1.3203 1.0938-1.7734 1.8516zm63.586-7.3203c-0.44141 0-0.89062-0.0625-1.3359-0.18359-2.0664-0.57422-3.4766-2.3672-3.5938-4.5625-0.13672-2.5898 2.0156-4.3906 4.2188-4.832 2.332-0.46875 4.3164 0.57031 5.0586 2.6445 0.42578 1.1875 0.64062 3.4297-0.21484 4.6836-0.98047 1.4414-2.5156 2.25-4.1328 2.25zm-2.4023-4.3242c0.25 1.0195 1.0195 1.5859 1.7227 1.7812 0.83203 0.23047 2.0039 0.070313 2.7852-1.082 0.089844-0.12891 0.14453-0.41016 0.16016-0.75391-0.21094 0.17578-0.48047 0.28125-0.77734 0.28125h-0.32031c-0.67188-0.007813-1.7969-0.007813-2.3008 0.14062-0.47656 0.14062-0.96484-0.019531-1.2695-0.36719zm2.7539-2.9102c-0.23047 0-0.43359 0.027344-0.58203 0.058594-0.61719 0.125-1.25 0.44141-1.6836 0.89453 0.027344-0.011719 0.054688-0.019531 0.085938-0.027343 0.85156-0.25 2.0977-0.24609 3.0078-0.24219h0.30859c0.10547-0.019531 0.25391 0.019531 0.37109 0.054688-0.38672-0.59766-1.0078-0.73828-1.5078-0.73828z"/>
</svg>
