<?xml version="1.0" encoding="UTF-8"?>
<svg width="100pt" height="100pt" version="1.1" viewBox="0 0 100 100" xmlns="http://www.w3.org/2000/svg">
 <g>
  <path d="m84.836 61.898l-40.703-45.875c-1.9375-2.1836-4.7227-3.4375-7.6445-3.4375-2.7266 0-5.293 1.0625-7.2227 2.9922l-13.684 13.688c-2.0117 2.0117-3.0703 4.6875-2.9883 7.5273 0.085938 2.8438 1.3047 5.4492 3.4336 7.3359l45.871 40.703c1.8711 1.6602 4.2773 2.5742 6.7773 2.5742 2.7305 0 5.2969-1.0625 7.2266-2.9922l8.5156-8.5156c3.8164-3.8086 4-9.9609 0.41797-14zm-2.3633 12.062l-8.5156 8.5156c-1.4102 1.4102-3.2852 2.1875-5.2812 2.1875-1.8281 0-3.5859-0.66797-4.9531-1.8828l-45.871-40.707c-1.5547-1.3789-2.4453-3.2852-2.5078-5.3633-0.0625-2.0781 0.71484-4.0312 2.1836-5.5039l13.684-13.684c1.4102-1.4102 3.2812-2.1875 5.2773-2.1875 2.1367 0 4.1719 0.91406 5.5898 2.5117l40.703 45.875c2.6133 2.9531 2.4805 7.4492-0.30859 10.238z"/>
  <path d="m60.422 57.148c1.3203 0 2.5625-0.51563 3.4961-1.4453 0.93359-0.93359 1.4492-2.1758 1.4492-3.4961 0-1.3203-0.51563-2.5625-1.4453-3.4961-0.93359-0.93359-2.1758-1.4492-3.4961-1.4492-1.3203 0-2.5625 0.51562-3.4961 1.4492-1.9258 1.9258-1.9258 5.0625 0 6.9883 0.92969 0.9375 2.1719 1.4492 3.4922 1.4492zm-1.5508-6.4922c0.41406-0.41406 0.96484-0.64453 1.5508-0.64453s1.1367 0.23047 1.5508 0.64453c0.41406 0.41406 0.64062 0.96484 0.64062 1.5508 0 0.58594-0.22656 1.1367-0.64453 1.5508-0.82422 0.82813-2.2695 0.82813-3.1016 0-0.85156-0.85547-0.85156-2.2461 0.003906-3.1016z"/>
  <path d="m65.363 68.633c0-1.3203-0.51562-2.5625-1.4453-3.4961-0.93359-0.93359-2.1758-1.4492-3.4961-1.4492s-2.5625 0.51562-3.4961 1.4492c-1.9258 1.9258-1.9258 5.0625 0 6.9883 0.93359 0.93359 2.1758 1.4492 3.4961 1.4492s2.5625-0.51562 3.4961-1.4453c0.93359-0.93359 1.4453-2.1758 1.4453-3.4961zm-3.3906 1.5508c-0.82422 0.82812-2.2695 0.82812-3.1016 0-0.85547-0.85547-0.85547-2.2461 0-3.1016 0.41406-0.41406 0.96484-0.64453 1.5508-0.64453s1.1367 0.23047 1.5508 0.64453c0.41406 0.41406 0.64062 0.96484 0.64062 1.5508 0 0.58594-0.22656 1.1367-0.64062 1.5508z"/>
  <path d="m63.691 60.422c0 1.3203 0.51562 2.5625 1.4453 3.4961 0.93359 0.93359 2.1758 1.4492 3.4961 1.4492 1.3203 0 2.5625-0.51563 3.4961-1.4492 1.9258-1.9258 1.9258-5.0625 0-6.9883-0.93359-0.93359-2.1758-1.4492-3.4961-1.4492-1.3203 0-2.5625 0.51562-3.4961 1.4453-0.93359 0.93359-1.4453 2.1758-1.4453 3.4961zm3.3945-1.5508c0.41406-0.41406 0.96484-0.64062 1.5508-0.64062 0.58594 0 1.1367 0.22656 1.5508 0.64062 0.85547 0.85547 0.85547 2.2461 0 3.1016-0.82812 0.82812-2.2734 0.82812-3.1016 0-0.41406-0.41406-0.64063-0.96484-0.64063-1.5508-0.003906-0.58594 0.22266-1.1367 0.64063-1.5508z"/>
  <path d="m55.703 56.926c-0.93359-0.93359-2.1758-1.4492-3.4961-1.4492-1.3203 0-2.5625 0.51563-3.4961 1.4453-0.93359 0.93359-1.4492 2.1758-1.4492 3.4961 0 1.3203 0.51562 2.5625 1.4453 3.4961 0.93359 0.93359 2.1758 1.4492 3.4961 1.4492s2.5625-0.51562 3.4961-1.4492c1.9297-1.9258 1.9297-5.0625 0.003906-6.9883zm-1.9453 5.0469c-0.82812 0.82812-2.2734 0.82812-3.1016 0-0.41406-0.41406-0.64062-0.96484-0.64062-1.5508s0.22656-1.1367 0.64453-1.5508c0.41406-0.41406 0.96484-0.64062 1.5508-0.64062 0.58594 0 1.1367 0.22656 1.5508 0.64062 0.85156 0.85547 0.85156 2.2461-0.003907 3.1016z"/>
  <path d="m36.469 27.965c1.3945 0 2.7031-0.54297 3.6914-1.5273 0.98438-0.98438 1.5273-2.2969 1.5273-3.6914 0-1.3945-0.54297-2.7031-1.5273-3.6914-0.98438-0.98438-2.2969-1.5273-3.6914-1.5273s-2.7031 0.54297-3.6914 1.5273c-0.98438 0.98437-1.5273 2.2969-1.5273 3.6914 0 1.3945 0.54297 2.7031 1.5273 3.6914 0.98828 0.98438 2.2969 1.5273 3.6914 1.5273zm-1.7461-6.9648c0.46484-0.46484 1.0859-0.72266 1.7461-0.72266s1.2773 0.25781 1.7461 0.72266 0.72266 1.0859 0.72266 1.7461-0.25781 1.2773-0.72266 1.7461c-0.93359 0.93359-2.5586 0.93359-3.4883 0-0.46875-0.46484-0.72656-1.0859-0.72656-1.7461 0-0.65625 0.25781-1.2773 0.72266-1.7461z"/>
  <path d="m23.188 32.754c-0.53516-0.53516-1.4062-0.53516-1.9453 0l-3.6484 3.6484c-0.53516 0.53516-0.53516 1.4062 0 1.9453l3.6484 3.6484c0.26953 0.26953 0.62109 0.40234 0.97266 0.40234 0.35156 0 0.70312-0.13281 0.97266-0.40234l3.6484-3.6484c0.53516-0.53516 0.53516-1.4062 0-1.9453zm-0.97266 6.3242l-1.7031-1.7031 1.7031-1.7031 1.7031 1.7031z"/>
  <path d="m70.664 71.637c-0.53516-0.53516-1.4062-0.53516-1.9453 0l-4.793 4.793c-0.53516 0.53516-0.53516 1.4062 0 1.9453l3.5352 3.5352c0.25781 0.25781 0.60937 0.40234 0.97266 0.40234 0.36328 0 0.71484-0.14453 0.97266-0.40234l4.793-4.793c0.25781-0.25781 0.40234-0.60547 0.40234-0.97266 0-0.36328-0.14453-0.71484-0.40234-0.97266zm-2.2305 7.3555l-1.5898-1.5898 2.8477-2.8477 1.5938 1.5898z"/>
  <path d="m78.422 63.879c-0.25781-0.25781-0.60547-0.40234-0.97266-0.40234-0.36328 0-0.71484 0.14453-0.97266 0.40234l-4.793 4.793c-0.53516 0.53516-0.53516 1.4062 0 1.9453l3.5352 3.5352c0.25781 0.25781 0.60547 0.40234 0.97266 0.40234 0.36328 0 0.71484-0.14453 0.97266-0.40234l4.793-4.793c0.53516-0.53516 0.53516-1.4062 0-1.9453zm-2.2305 7.3555l-1.5898-1.5898 2.8516-2.8477 1.5898 1.5898z"/>
  <path d="m50.742 49.723v-6.9844c0-0.75781-0.61328-1.375-1.375-1.375-0.76172 0-1.375 0.61719-1.375 1.375v5.6094h-5.6094c-0.76172 0-1.375 0.61719-1.375 1.375 0 0.75781 0.61328 1.375 1.375 1.375h6.9844c0.76172 0 1.375-0.61719 1.375-1.375z"/>
  <path d="m41.008 31.645c0 0.75781 0.61328 1.375 1.375 1.375h5.6094v5.6094c0 0.75781 0.61328 1.375 1.375 1.375 0.76172 0 1.375-0.61719 1.375-1.375v-6.9844c0-0.75781-0.61328-1.375-1.375-1.375h-6.9844c-0.76172 0-1.375 0.61719-1.375 1.375z"/>
  <path d="m31.293 40.008c0.76172 0 1.375-0.61719 1.375-1.375v-5.6094h5.6094c0.76172 0 1.375-0.61719 1.375-1.375 0-0.75781-0.61328-1.375-1.375-1.375h-6.9844c-0.76172 0-1.375 0.61719-1.375 1.375v6.9844c0 0.75781 0.61328 1.375 1.375 1.375z"/>
  <path d="m38.277 48.348h-5.6094v-5.6094c0-0.75781-0.61328-1.375-1.375-1.375s-1.375 0.61719-1.375 1.375v6.9844c0 0.75781 0.61328 1.375 1.375 1.375h6.9844c0.76172 0 1.375-0.61719 1.375-1.375 0-0.75781-0.61328-1.375-1.375-1.375z"/>
  <path d="m44.32 43.355c1.4727-1.4727 1.4727-3.8672 0-5.3398l-1.3203-1.3203c-1.4258-1.4258-3.9102-1.4258-5.3398 0l-1.3203 1.3203c-1.4727 1.4727-1.4727 3.8672 0 5.3398l1.3203 1.3203c0.71484 0.71484 1.6602 1.1055 2.6719 1.1055 1.0078 0 1.957-0.39453 2.6719-1.1055zm-1.9453-1.9453l-1.3203 1.3203c-0.38672 0.38672-1.0625 0.38672-1.4492 0l-1.3203-1.3203c-0.19531-0.19531-0.30078-0.44922-0.30078-0.72656 0-0.27344 0.10547-0.53125 0.30078-0.72656l1.3164-1.3203c0.19531-0.19531 0.44922-0.30078 0.72656-0.30078 0.27344 0 0.53125 0.10547 0.72656 0.30078l1.3203 1.3203c0.19531 0.19531 0.30078 0.44922 0.30078 0.72656s-0.10547 0.53125-0.30078 0.72656z"/>
 </g>
</svg>
