<?xml version="1.0" encoding="UTF-8"?>
<svg width="100pt" height="100pt" version="1.1" viewBox="0 0 100 100" xmlns="http://www.w3.org/2000/svg">
 <g>
  <path d="m85.266 100h-70.531c-5.625 0.015625-10.336-4.2461-10.883-9.8438l-3.8437-38.438c-0.042969-0.4375 0.10156-0.875 0.39453-1.2031 0.29688-0.32812 0.71875-0.51562 1.1602-0.51562h37.5v3.125h-35.773l3.6719 36.719c0.39062 3.9961 3.7578 7.043 7.7734 7.0312h70.531c4.0156 0.011719 7.3828-3.0352 7.7734-7.0312l3.6797-36.719h-35.781v-3.125h37.5c0.44141-0.003906 0.86719 0.18359 1.1641 0.51172 0.29688 0.32812 0.44141 0.76562 0.39844 1.207l-3.8438 38.438c-0.54688 5.6016-5.2656 9.8633-10.891 9.8438z"/>
  <path d="m57.812 67.188h-15.625c-2.5898 0-4.6875-2.0977-4.6875-4.6875v-15.625c0-2.5898 2.0977-4.6875 4.6875-4.6875h15.625c2.5898 0 4.6875 2.0977 4.6875 4.6875v15.625c0 2.5898-2.0977 4.6875-4.6875 4.6875zm-15.625-21.875c-0.86328 0-1.5625 0.69922-1.5625 1.5625v15.625c0 0.41406 0.16406 0.8125 0.45703 1.1055s0.69141 0.45703 1.1055 0.45703h15.625c0.41406 0 0.8125-0.16406 1.1055-0.45703s0.45703-0.69141 0.45703-1.1055v-15.625c0-0.41406-0.16406-0.8125-0.45703-1.1055s-0.69141-0.45703-1.1055-0.45703z"/>
  <path d="m81.625 90.625h-3.5v-3.125h3.5c1.6211-0.007812 2.9688-1.25 3.1133-2.8672l2.7617-33.199 3.125 0.25781-2.7656 33.203c-0.28906 3.2344-2.9883 5.7148-6.2344 5.7305z"/>
  <path d="m71.875 87.5h3.125v3.125h-3.125z"/>
  <path d="m68.75 90.625h-50.375c-3.2422-0.015625-5.9414-2.5-6.2266-5.7305l-2.7734-33.203 3.125-0.25781 2.7617 33.199c0.14453 1.6172 1.4922 2.8594 3.1133 2.8672h50.375z"/>
  <path d="m10.938 57.812h17.188v3.125h-17.188z"/>
  <path d="m31.25 57.812h3.125v3.125h-3.125z"/>
  <path d="m65.625 57.812h23.438v3.125h-23.438z"/>
  <path d="m56.25 62.5h-12.5c-0.86328 0-1.5625-0.69922-1.5625-1.5625v-12.5c0-0.86328 0.69922-1.5625 1.5625-1.5625h12.5c0.41406 0 0.8125 0.16406 1.1055 0.45703s0.45703 0.69141 0.45703 1.1055v12.5c0 0.41406-0.16406 0.8125-0.45703 1.1055s-0.69141 0.45703-1.1055 0.45703zm-10.938-3.125h9.375v-9.375h-9.375z"/>
  <path d="m48.438 51.562h3.125v6.25h-3.125z"/>
  <path d="m10.938 90.625h3.125v3.125h-3.125z"/>
  <path d="m85.938 90.625h3.125v3.125h-3.125z"/>
  <path d="m92.188 54.688h3.125v3.125h-3.125z"/>
  <path d="m4.6875 56.25h3.125v3.125h-3.125z"/>
  <path d="m31.145 89.625-2.9141-1.1289c1.4805-3.8164 5.2461-6.957 10.332-8.6172 3.1484-0.91406 6.3828-1.5 9.6523-1.7461 0.9375-0.10547 1.875-0.20703 2.8125-0.32812 3.8633-0.26563 7.6016-1.5 10.863-3.5938 0.68359-0.50391 2.2578-1.8359 2.207-3.3516l-0.007812-0.15625c-0.125-0.75781 0.082031-1.5352 0.56641-2.1328 0.48438-0.59375 1.1992-0.95703 1.9688-0.99219 6.8594-1.293 13.824-1.9492 20.805-1.9531h0.070312v3.125h-0.070312c-6.7812 0-13.547 0.63281-20.211 1.8867v0.11328c-0.09375 2.4414-1.3906 4.6797-3.4688 5.9688-3.6914 2.4102-7.9297 3.8477-12.324 4.1875-0.95312 0.12109-1.9141 0.22656-2.8711 0.33203-3.0547 0.22656-6.0781 0.76562-9.0234 1.6094-1.9844 0.64844-6.7695 2.6055-8.3867 6.7773z"/>
  <path d="m12.738 79.668-0.47656-3.0859c6.6797-0.9375 13.23-2.6133 19.539-5 0.48438-0.19531 0.96484-0.39453 1.4062-0.61328-3.3242-1.043-6.7656-1.668-10.246-1.8594-3.7305-0.21875-7.4258-0.89453-10.992-2.0156l1.0547-2.9414-0.003907 0.003906c3.3281 1.0273 6.7734 1.6484 10.25 1.8438 4.3633 0.1875 8.6641 1.1094 12.719 2.7344 0.75781 0.22266 1.3281 0.85156 1.4727 1.6289 0.14844 0.77734-0.15625 1.5703-0.78125 2.0547-1.1133 0.89062-2.3672 1.5898-3.7109 2.0625-6.5273 2.4805-13.312 4.2188-20.23 5.1875z"/>
  <path d="m85.883 84.375c-5.5078 0-9.8594 0-15.445-0.42188h-0.003906c-1.543-0.082031-2.8438-1.1875-3.168-2.6992-0.32422-1.5117 0.40234-3.0547 1.7812-3.7617 5.293-2.8516 10.797-4.0547 18.453-4.0547v3.125c-7.1055 0-12.164 1.0938-16.91 3.6484-0.14844 0.078124-0.3125 0.16797-0.27344 0.38281h0.003906c0.03125 0.14453 0.16406 0.24219 0.3125 0.23828 5.5078 0.41797 9.8047 0.41797 15.25 0.41797z"/>
  <path d="m2.668 52.668-2.2109-2.2109 12.5-12.5c0.29297-0.29297 0.69141-0.45703 1.1055-0.45703h9.375v3.125h-8.7266z"/>
  <path d="m91.082 46.414 2.2109-2.2109 6.25 6.25-2.2109 2.2109z"/>
  <path d="m98.438 21.875h-10.938c-0.86328 0-1.5625-0.69922-1.5625-1.5625 0-8.4258-3.2812-11.172-5.2344-12.062-1.5586-0.69531-2.5625-2.2383-2.5781-3.9414 0.003906-2.3789 1.9297-4.3047 4.3086-4.3086h0.37891c9.7969 0 17.188 8.7344 17.188 20.312 0 0.41406-0.16406 0.8125-0.45703 1.1055s-0.69141 0.45703-1.1055 0.45703zm-9.4102-3.125h7.7969c-0.60547-9.0117-6.4258-15.625-14.012-15.625h-0.37891c-0.65234 0-1.1836 0.53125-1.1836 1.1836 0.011719 0.48047 0.30469 0.91016 0.74609 1.0938 2.5 1.1406 6.5977 4.3672 7.0312 13.348z"/>
  <path d="m12.5 21.875h-10.938c-0.86328 0-1.5625-0.69922-1.5625-1.5625 0-11.578 7.3906-20.312 17.188-20.312h0.37891c2.3789 0.0039062 4.3047 1.9297 4.3086 4.3086-0.015625 1.707-1.0234 3.2461-2.5781 3.9414-1.9531 0.89062-5.2344 3.6367-5.2344 12.062 0 0.41406-0.16406 0.8125-0.45703 1.1055s-0.69141 0.45703-1.1055 0.45703zm-9.3242-3.125h7.7969c0.42969-8.9805 4.5312-12.207 7.0312-13.344 0.44531-0.18359 0.73828-0.61328 0.75-1.0938 0-0.31641-0.125-0.61719-0.34766-0.83984s-0.52344-0.34766-0.83984-0.34766h-0.37891c-7.5859 0-13.406 6.6133-14.012 15.625z"/>
  <path d="m82.812 18.75h4.6875v3.125h-4.6875z"/>
  <path d="m12.5 18.75h67.188v3.125h-67.188z"/>
  <path d="m20.312 3.125h59.375v3.125h-59.375z"/>
  <path d="m86.535 36.656 10.574-17.195 2.6641 1.6367-10.574 17.195z"/>
  <path d="m8.8906 35.203 2.6602-1.6367 1.9141 3.1094-2.6602 1.6367z"/>
  <path d="m0.23047 21.133 2.6602-1.6367 6.7305 10.941-2.6602 1.6367z"/>
  <path d="m54.688 21.875h-9.375c-0.86328 0-1.5625-0.69922-1.5625-1.5625v-15.625c0-0.86328 0.69922-1.5625 1.5625-1.5625h9.375c0.41406 0 0.8125 0.16406 1.1055 0.45703s0.45703 0.69141 0.45703 1.1055v15.625c0 0.41406-0.16406 0.8125-0.45703 1.1055s-0.69141 0.45703-1.1055 0.45703zm-7.8125-3.125h6.25v-12.5h-6.25z"/>
  <path d="m87.5 17.188c-4.5625 0-5.293-0.03125-9.3398-0.19531l-0.43359-0.019532c-1.1016-0.003906-2.1992-0.14844-3.2656-0.42969-0.53125-0.13281-0.99219-0.46094-1.293-0.91797-0.22656-0.41406-0.29688-0.90234-0.19531-1.3633 0.17969-0.58594 0.59766-1.0664 1.1523-1.332 0.28906-0.15625 0.58203-0.29688 0.87891-0.42969h-20.316v-3.125c6.25 0 15.625 0 21.695 0.011719h0.26563c0.625-0.03125 1.2539 0.019531 1.8633 0.15625 1.2617 0.17578 2.1836 1.2812 2.1328 2.5586-0.13672 0.76172-0.60938 1.4219-1.2852 1.8047 3.0977 0.13281 4.0781 0.15625 8.1406 0.15625z"/>
  <path d="m12.5 17.188v-3.125c4.7344 0 8.3242-0.046875 12.543-0.26953-0.50781-0.28906-0.98438-0.625-1.4336-1-0.61719-0.48438-1.0234-1.1875-1.1328-1.9648-0.042968-1.2773 0.78906-2.418 2.0156-2.7695 0.64062-0.19531 1.3125-0.27344 1.9805-0.23438h0.26953c6.0703-0.011719 13.883-0.011719 20.133-0.011719v3.125c-6.25 0-14.062 0-20.125 0.015625h-0.36719c0.3125 0.19531 0.65625 0.38281 1.0039 0.57422 0.61719 0.32031 1.2148 0.67969 1.7852 1.082 0.89844 0.51953 1.2734 1.6328 0.87109 2.5938-0.25781 0.51562-0.70312 0.91406-1.25 1.1094-1.082 0.37891-2.2227 0.58203-3.3711 0.58984-4.3789 0.23828-8.0547 0.28516-12.922 0.28516z"/>
  <path d="m90.625 53.125h-20.312c-2.5898 0-4.6875-2.0977-4.6875-4.6875s2.0977-4.6875 4.6875-4.6875v3.125c-0.86328 0-1.5625 0.69922-1.5625 1.5625s0.69922 1.5625 1.5625 1.5625h20.312c0.86328 0 1.5625-0.69922 1.5625-1.5625s-0.69922-1.5625-1.5625-1.5625-1.5625-0.69922-1.5625-1.5625 0.69922-1.5625 1.5625-1.5625 1.5625-0.69922 1.5625-1.5625-0.69922-1.5625-1.5625-1.5625h-9.375c-0.86328 0-1.5625-0.69922-1.5625-1.5625s0.69922-1.5625 1.5625-1.5625 1.5625-0.69922 1.5625-1.5625-0.69922-1.5625-1.5625-1.5625h-12.5c-0.55469 0-1.0664 0.30078-1.3398 0.78125-0.28125 0.48438-0.79297 0.78125-1.3516 0.78125h-0.43359c-0.86328 0-1.5625-0.69922-1.5625-1.5625 0-0.41406-0.16406-0.8125-0.45703-1.1055s-0.69141-0.45703-1.1055-0.45703h-12.5c-0.86328 0-1.5625-0.69922-1.5625-1.5625s0.69922-1.5625 1.5625-1.5625 1.5625-0.69922 1.5625-1.5625-0.69922-1.5625-1.5625-1.5625h-6.25c-0.86328 0-1.5625 0.69922-1.5625 1.5625s0.69922 1.5625 1.5625 1.5625 1.5625 0.69922 1.5625 1.5625-0.69922 1.5625-1.5625 1.5625h-3.125c-0.66406 0.003906-1.25 0.42578-1.4648 1.0547-0.16016 0.45312-0.52344 0.8125-0.98047 0.96484-0.46094 0.15234-0.96094 0.082031-1.3633-0.18359-0.25781-0.17969-0.56641-0.27344-0.87891-0.27344h-3.125c-0.86328 0-1.5625-0.69922-1.5625-1.5625s0.69922-1.5625 1.5625-1.5625 1.5625-0.69922 1.5625-1.5625-0.69922-1.5625-1.5625-1.5625h-6.25c-0.86328 0-1.5625 0.69922-1.5625 1.5625s0.69922 1.5625 1.5625 1.5625 1.5625 0.69922 1.5625 1.5625-0.69922 1.5625-1.5625 1.5625h-3.125c-0.86328 0-1.5625 0.69922-1.5625 1.5625s0.69922 1.5625 1.5625 1.5625 1.5625 0.69922 1.5625 1.5625-0.69922 1.5625-1.5625 1.5625h-7.8125c-0.86328 0-1.5625 0.69922-1.5625 1.5625s0.69922 1.5625 1.5625 1.5625 1.5625 0.69922 1.5625 1.5625-0.69922 1.5625-1.5625 1.5625h-3.125c-0.86328 0-1.5625 0.69922-1.5625 1.5625s0.69922 1.5625 1.5625 1.5625h6.25c0.13281-0.003906 0.26562-0.023438 0.39062-0.0625 0.25781-0.066406 0.52734-0.066406 0.78125 0 0.12891 0.039062 0.25781 0.058594 0.39062 0.0625h12.5c0.86328 0 1.5625-0.69922 1.5625-1.5625s-0.69922-1.5625-1.5625-1.5625h-4.6875v-3.125h4.6875c2.5898 0 4.6875 2.0977 4.6875 4.6875s-2.0977 4.6875-4.6875 4.6875h-12.5c-0.26172 0-0.52344-0.027344-0.78125-0.074219-0.25781 0.046875-0.51953 0.074219-0.78125 0.074219h-6.25c-2.3516 0-4.3359-1.7383-4.6484-4.0664s1.1484-4.5273 3.4141-5.1445c-0.57031-1.4453-0.39062-3.0781 0.48047-4.3594 0.875-1.2852 2.3281-2.0547 3.8789-2.0547h3.3906c-0.43359-1.2305-0.33594-2.582 0.26953-3.7383 0.60547-1.1562 1.6602-2.0039 2.918-2.3477-0.57031-1.4453-0.39062-3.0781 0.48047-4.3594 0.875-1.2852 2.3281-2.0547 3.8789-2.0547h6.25c1.4961 0 2.8984 0.71094 3.7812 1.918s1.1406 2.7617 0.6875 4.1875c0.58203-0.59766 1.3086-1.0273 2.1133-1.25-0.22266-0.55078-0.33203-1.1367-0.33203-1.7305 0-2.5898 2.0977-4.6875 4.6875-4.6875h6.25c1.5234 0 2.9492 0.73828 3.8281 1.9805 0.87891 1.2422 1.0977 2.8359 0.59375 4.2695h8.0781c1.6016 0 3.0938 0.82031 3.9531 2.1719 0.69922-0.39844 1.4922-0.60938 2.2969-0.60938h12.5c1.5234 0 2.9492 0.73828 3.8281 1.9805 0.87891 1.2422 1.0977 2.8359 0.59375 4.2695h4.9531c1.8477 0 3.5234 1.0898 4.2773 2.7734 0.75391 1.6875 0.44531 3.6602-0.78516 5.0391 1.2305 1.3789 1.5391 3.3516 0.78516 5.0391-0.75391 1.6836-2.4297 2.7734-4.2773 2.7734z"/>
 </g>
</svg>
