<?xml version="1.0" encoding="UTF-8"?>
<svg width="100pt" height="100pt" version="1.1" viewBox="0 0 100 100" xmlns="http://www.w3.org/2000/svg">
 <g>
  <path d="m85.602 18h-0.19922c-12.801 0-25.199-5.3984-33.898-14.801-0.80078-0.80078-2.3008-0.80078-3 0-8.7031 9.4023-21.105 14.801-33.902 14.801h-0.19922c-1.1016 0-2.1016 0.89844-2.1016 2.1016v22.699c0 18.699 9.3008 36.102 24.801 46.5l11.699 7.8984c0.30078 0.19922 0.69922 0.39844 1.1992 0.39844s0.80078-0.10156 1.1992-0.39844l11.699-7.8984c15.5-10.398 24.801-27.801 24.801-46.5v-22.801c-0.097657-1.1016-1-2-2.0977-2zm-35.602 52.801c-11.898 0-21.602-9.6992-21.602-21.602 0-11.898 9.7031-21.598 21.602-21.598s21.602 9.6992 21.602 21.602c0 11.898-9.7031 21.598-21.602 21.598z"/>
  <path d="m56.301 40-9.3008 10.199-3.3008-3.6016c-1.3984-1.5-3.8008-1.6016-5.3008-0.19922-1.5 1.3984-1.6016 3.8008-0.19922 5.3008l6.1016 6.6016c0.69922 0.80078 1.6992 1.1992 2.8008 1.1992 1.1016 0 2.1016-0.39844 2.8008-1.1992l12.102-13.199c1.3984-1.5 1.3008-3.8984-0.19922-5.3008-1.7031-1.4023-4.0039-1.3008-5.5039 0.19922z"/>
 </g>
</svg>
