<?xml version="1.0" encoding="UTF-8"?>
<svg width="100pt" height="100pt" version="1.1" viewBox="0 0 100 100" xmlns="http://www.w3.org/2000/svg">
 <path d="m82.969 38.969-17.09-34.16c-0.21094-0.42188-0.57812-0.75-1.0312-0.89844l-11.496-3.8203c-0.44922-0.14844-0.94141-0.10938-1.3594 0.10156l-34.164 17.09c-0.87891 0.44141-1.2383 1.5117-0.80078 2.3984l10.02 20.039c-0.64844 0.55859-1.2812 1.2305-1.8789 2.0312-4.25 5.6094-4.7617 26.73-4.4219 30.25 0.30078 3.0781-0.62891 8.1094-1.8398 9.9688-0.26953 0.41016-0.35156 0.92188-0.23828 1.3984 0.12109 0.48047 0.42188 0.89062 0.85156 1.1289l26.891 15.281c0.28906 0.15234 0.58984 0.22266 0.89062 0.22266 0.60938 0 1.2109-0.30859 1.5391-0.87891 1.7188-2.9102 4.8086-5.6211 8.3906-8.7617 4.1016-3.5898 8.7383-7.6602 12.43-13.09 2.8008-4.1094 5.25-8.0781 4.5898-11.359-0.26953-1.3398-1.0508-2.4609-2.25-3.2383-0.94922-0.62109-2.1211-1.0586-3.4883-0.92188 0.17188-0.85156 0.21875-1.7109 0.058593-2.5586-0.28125-1.5586-1.1914-2.8789-2.6406-3.8203-1.4102-0.92188-2.7891-1.3516-4.1289-1.3203 0.12109-0.76953 0.12891-1.5586-0.019531-2.3398-0.011719-0.050782-0.019531-0.089844-0.03125-0.14063l20.41-10.211c0.89062-0.42969 1.25-1.5078 0.80859-2.3906zm-41.277-29.629 3.6016 7.1992c0.16016 0.32031 0.44141 0.55859 0.76953 0.67188 0.14062 0.050781 0.28125 0.070312 0.42188 0.070312 0.21094 0 0.41016-0.050781 0.60156-0.14062l4.2734-2.1406c0.32031-0.16016 0.55859-0.44141 0.67188-0.76953 0.10938-0.33984 0.089844-0.71094-0.070312-1.0195l-3.6016-7.2109 2.3008-1.1484 5.3516 10.699-20.641 10.328-5.3516-10.699zm4.2695-2.1406 3 6-1.8789 0.94141-3-6zm18.027 51.172c0.82031 0.53125 1 1.0781 1.0703 1.4492 0.37109 2.1016-2.0508 5.3281-2.9609 6.5508-0.64062 0.85156-1.0195 1.3711-0.87109 2.1992 0.089844 0.48828 0.37891 0.92969 0.80078 1.1992 0.67188 0.42969 1.6992 0.62891 2.7812-0.91016 2.8516-4.0586 4.3711-3.7617 5.2617-3.1914 0.51172 0.32812 0.64063 0.67188 0.69922 0.94922 0.42188 2.0781-2.4883 6.3516-4.0508 8.6406-3.4297 5.0508-7.8984 8.9609-11.828 12.41-3.1211 2.7305-6.0898 5.3398-8.1484 8.1602l-23.98-13.617c1.2305-3.0586 1.8281-7.6602 1.5508-10.57-0.39844-4.1016 0.51953-23.531 3.7109-27.75 0.23828-0.30859 0.46875-0.58984 0.71094-0.83984l2.5586 5.1289c-1.5 3.7383-1.4492 7.6406 0.12891 9.5 0.58984 0.69141 1.3711 1.0586 2.1914 1.0586 0.19922 0 0.39844-0.019531 0.60938-0.070312 3.8516-0.89062 11.711-13.672 13.02-16.211 0.44922-0.87891 0.10937-1.9492-0.76953-2.4102-0.87891-0.44922-1.9492-0.10938-2.4102 0.76953-0.46875 0.92188-1.0586 1.9414-1.7109 3-1.2891-0.89844-2.1094-2.5391-1.7695-3.2891 0.82812-1.8203 6.9883-4.4102 8.6016-4.1602 1.25 0.23047 4.9492 3.4492 4.6992 5.0391-0.33984 2.1602-3.6797 7.3008-5.1094 9.5-1.2383 1.9102-2.0586 3.1719-0.51172 4.1797 0.39844 0.26172 0.89844 0.35156 1.3789 0.25 0.78125-0.17969 1.1094-0.71094 1.4883-1.3281 0.57031-0.92187 2.0703-3.3711 3.8203-3.7695 0.66016-0.14844 1.3516 0.019531 2.1016 0.51172 0.94922 0.62109 1.1602 1.2305 1.2383 1.6406 0.26953 1.3789-0.62109 3.1602-1.5 4.5781-0.32031 0.42969-0.58984 0.85156-0.82031 1.2383-0.078125 0.12109-0.16016 0.21875-0.23047 0.32031-0.69922 0.98828-1.0781 1.5312-0.91016 2.3906 0.089844 0.46875 0.39062 0.92188 0.78906 1.1797 0.42187 0.26953 0.96094 0.35938 1.4414 0.23828 0.82812-0.21094 1.1602-0.82031 1.5391-1.5195 0.10938-0.19141 0.23047-0.42969 0.39062-0.69141 0.23047-0.32812 0.48047-0.69922 0.73047-1.1016 0.48047-0.62109 1.0781-1.1602 1.7617-1.3398 0.69141-0.17188 1.5391 0.054687 2.5078 0.6875zm-30.047-3.5c-0.10156-0.37891-0.17969-0.96875-0.14844-1.7188l0.64062 1.2812c-0.18359 0.17578-0.34375 0.31641-0.49219 0.4375zm25.047-7.1094c-1.1211-0.73047-2.2695-1.1094-3.4219-1.1406 0.12891-0.25 0.25-0.48047 0.37109-0.73047l13.57-6.7891c0.66016-0.32812 0.92969-1.1406 0.60156-1.8008-0.32812-0.66016-1.1406-0.92969-1.8008-0.60156l-10.949 5.4805c0.011719-0.058594 0.039063-0.14063 0.050781-0.19922 0.17188-1.0781-0.058594-2.2305-0.69141-3.4102l10.02-5.0117c0.66016-0.32812 0.92969-1.1406 0.60156-1.8008-0.32812-0.66016-1.1406-0.92969-1.8008-0.60156l-10.422 5.2109c-1.1992-1.3086-2.7305-2.4609-4.0508-3.0781l15.371-7.6914 7.8516 15.699-14.359 7.1797c-0.28125-0.24609-0.58984-0.48828-0.94141-0.71484zm17.703-7.6523-8.4492-16.898c-0.32813-0.66016-1.1406-0.92969-1.8008-0.60156l-31.672 15.852c-0.32031 0.16016-0.55859 0.44141-0.67188 0.76953-0.10938 0.33984-0.089844 0.71094 0.070313 1.0195l4.5117 9.0195c-0.58984 0.80078-1.1719 1.5586-1.7188 2.2617l-15.93-31.859 6.5898-3.3008 5.9492 11.898c0.23828 0.46875 0.71094 0.73828 1.1992 0.73828 0.19922 0 0.41016-0.050781 0.60156-0.14062l23.039-11.531c0.32031-0.16016 0.55859-0.44141 0.67188-0.76953 0.10938-0.33984 0.089844-0.71094-0.070312-1.0195l-5.8828-11.766 9.8906 3.2891 15.961 31.898z"/>
</svg>
