<?xml version="1.0" encoding="UTF-8"?>
<svg width="100pt" height="100pt" version="1.1" viewBox="0 0 100 100" xmlns="http://www.w3.org/2000/svg">
 <path d="m53.52 13.762c-16.289 0-25.141 12.781-25.141 28.059l-6.5781 11.031c-1.0195 1.7109-0.35156 4.1016 1.75 4.1016h4.8281v10.16c0 4.1289 3.2891 7.6914 7.3906 8.0391l37.109-21.551c3.75-4.3906 5.7812-9.8711 5.7812-15.648 0-14.121-11.301-24.191-25.141-24.191zm1.3516 25.941v7.4883c3.8594-0.58984 6.8984-3.6289 7.4883-7.4883zm-10.18-2.6992h7.4805v-7.4805c-3.8594 0.57812-6.8984 3.6211-7.4805 7.4805zm17.059-6.8711c4.5391 4.5508 4.5508 11.898 0 16.449-4.5391 4.5508-11.91 4.5508-16.449 0-4.5508-4.5391-4.5508-11.898 0-16.449 4.5391-4.5391 11.898-4.5508 16.449 0zm-10.859 42.48c-0.03125 0.91016-0.21094 1.7812-0.51953 2.5703h17.672c-0.71094-1.8086-0.69922-3.8594 0.019531-5.6602l-11.828-0.011719-5.3398 3.1016zm-3.9492 3.0391c0.33984-0.33984 0.62109-0.76172 0.82812-1.2305-3.5391 2.0508-7.0781 4.1016-10.609 6.1602-7.7383 0-14.18-5.5117-14.18-13.469v-4.7812c-6-0.48047-8.8711-7.0898-5.8008-12.238l5.8086-9.7383c0.32812-17.699 12.199-31.988 30.531-31.988 16.801 0 30.551 12.512 30.551 29.59 0 7.4805-2.7617 14.289-7.6992 19.852-3.6094 2.1094-7.2188 4.2188-10.828 6.3203h4.4102c2.6094 0 3.5703 3.3281 1.7812 4.75-1.9414 1.5508-2.0117 5.0508-0.26172 6.7812 1.4297 0.96875 1.6016 3.2188 0.26172 4.2812-1.9414 1.5508-2.0117 5.0508-0.26172 6.7812 2.1719 1.4688 1.1484 4.9297-1.5195 4.9297h-21.488c-2.6719 0-3.6914-3.4609-1.5195-4.9297 1.7383-1.7305 1.6797-5.2305-0.26953-6.7812-1.3281-1.0586-1.1602-3.3086 0.26953-4.2812zm3.4102 4.9297c0.71094 1.8008 0.71875 3.8594 0.019532 5.6602h17.672c-0.71094-1.8008-0.69922-3.8594 0.019531-5.6602z"/>
</svg>
