<?xml version="1.0" encoding="UTF-8"?>
<svg width="100pt" height="100pt" version="1.1" viewBox="0 0 100 100" xmlns="http://www.w3.org/2000/svg">
 <path d="m93.75 31.445c-16.43 0-32.574 4.2109-46.875 12.305l-37.305-2.832c-1.7227-0.13281-3.1875 1.1133-3.3203 2.832-0.007812 0.082031 0 0.21094 0 0.29297v11.914c0 1.7266 1.3984 3.125 3.125 3.125 0.078125 0 0.11719 0.007813 0.19531 0l37.305-2.832c14.301 8.0938 30.445 12.305 46.875 12.305zm-3.125 3.125v30.859c-14.812-0.50391-29.285-4.6172-42.188-11.914v-7.0312c12.902-7.3008 27.375-11.41 42.188-11.914zm-75 12.305c1.7266 0 3.125 1.3984 3.125 3.125s-1.3984 3.125-3.125 3.125-3.125-1.3984-3.125-3.125 1.3984-3.125 3.125-3.125zm18.75 0c1.7266 0 3.125 1.3984 3.125 3.125s-1.3984 3.125-3.125 3.125-3.125-1.3984-3.125-3.125 1.3984-3.125 3.125-3.125z"/>
</svg>
