<?xml version="1.0" encoding="UTF-8"?>
<svg width="100pt" height="100pt" version="1.1" viewBox="0 0 100 100" xmlns="http://www.w3.org/2000/svg">
 <path d="m69.547 76.996c-0.25 3.9141-1.125 6.2461-2.5234 7.3672-1.2695 1.0195-3.3008 1.3438-6.3789 0.86328 1.8711-1.207 3.5078-2.6445 4.8477-4.1328 1.4297-1.5781 2.7109-2.8789 4.0547-4.0977zm-39.121-0.003906c1.3438 1.2148 2.6211 2.5234 4.0508 4.1016 1.3438 1.4883 2.9805 2.9219 4.8477 4.1328-3.0703 0.48047-5.1016 0.15625-6.375-0.86328-1.4023-1.1211-2.2734-3.4531-2.5234-7.3711zm25.613-60.941c1.9102 1.3086 3.1953 3.0977 3.3281 8.3906 0.14062 5.2891-0.98438 12.945-4.6406 21.613-0.72266 1.5781 1.7109 2.6055 2.332 0.97266 3.6719-8.6992 4.8789-16.578 4.6992-25.039 2.0664-0.80469 5.0195-0.37109 7.5469 1.0703 2.7969 1.5898 4.8711 4.2305 4.8711 6.9609 0 8.0625-3.5 16.582-9.5664 22.645-1.3125 1.1875 0.59375 3.0938 1.7812 1.7812 6.1875-6.1875 9.8672-14.629 10.262-22.945 3.2461 0.73047 5.4805 2.5352 6.8594 4.8047 1.5547 2.5703 1.957 5.7695 1.2031 8.5781-1.6211 6.043-7.2148 11.566-12.094 15.492-1.3125 1.0547 0.26172 3.0195 1.5742 1.9727 4.5352-3.6523 9.8828-8.6719 12.281-14.781 1.8438 2.2148 2.9453 5.082 2.9922 7.8477 0.050781 3.3906-1.3438 6.5703-4.7773 8.5547-12.184 7.0312-15.734 9.5469-21.059 15.434-3.1484 3.4883-8.0508 6.6328-13.641 6.6328-5.5859 0-10.484-3.1406-13.641-6.6328-5.3203-5.8867-8.8711-8.4023-21.055-15.434-3.4375-1.9844-4.8398-5.1641-4.7812-8.5547 0.046875-2.7656 1.1406-5.6328 2.9922-7.8477 2.3906 6.1094 7.7305 11.129 12.27 14.781 1.3125 1.0547 2.8984-0.91406 1.5859-1.9727-4.8711-3.918-10.473-9.4336-12.102-15.469 0-0.003906-0.003907-0.015625-0.003907-0.023438-0.75-2.8086-0.34766-6.0078 1.2109-8.5781 1.3789-2.2695 3.6094-4.0742 6.8594-4.8047 0.39062 8.3164 4.0742 16.762 10.254 22.945 1.1875 1.2148 3.0039-0.58984 1.7891-1.7812-6.0664-6.0664-9.5586-14.582-9.5586-22.645 0-2.7305 2.0703-5.3711 4.8711-6.9609 2.5234-1.4414 5.4727-1.875 7.5391-1.0703-0.17188 8.4609 1.0352 16.344 4.6992 25.039 0.61719 1.6328 3.0586 0.60938 2.3281-0.97266-3.6562-8.6719-4.7695-16.324-4.6289-21.613 0.13281-5.293 1.3828-7.1133 3.3164-8.3906 3.9531-2.6211 8.5352-2.4492 12.102 0zm-13.551-2.0625c-1.957 1.3438-3.3516 3.4141-3.8477 5.8164-2.9375-0.98828-6.3242-0.58594-9.2188 1.0586-3.0586 1.7422-5.3711 4.6992-5.8164 8.1719-4.2461 0.75391-7.4844 2.9727-9.293 5.9609-1.8047 2.9844-2.2344 6.5469-1.5352 9.8438-2.9141 2.7852-4.7227 6.6211-4.793 10.535-0.0625 4.1445 1.8242 8.3398 6.043 10.773 6.7812 3.918 10.719 6.332 13.805 8.6992 0.027344 5.543 0.90625 9.375 3.543 11.488 2.6094 2.0898 6.3906 2.0156 11.406 0.72266 2.207 0.92188 4.6172 1.4922 7.207 1.4922 2.5859 0 5.0039-0.57031 7.2031-1.4922 5.0195 1.293 8.8008 1.3672 11.406-0.72266 2.6406-2.1133 3.5195-5.9414 3.5469-11.488 3.0859-2.3711 7.0195-4.7773 13.801-8.6992 4.2188-2.4375 6.1055-6.6328 6.0352-10.773-0.0625-3.9141-1.875-7.75-4.793-10.535 0.69922-3.2969 0.27734-6.8594-1.5352-9.8438-1.8125-2.9883-5.0391-5.207-9.293-5.9609-0.44531-3.4727-2.7539-6.4297-5.8086-8.1719-2.8984-1.6445-6.2852-2.0508-9.2266-1.0586-0.49609-2.4023-1.8828-4.4805-3.8438-5.8164-4.8398-3.2969-10.66-2.9727-14.992 0z"/>
</svg>
