<?xml version="1.0" encoding="UTF-8"?>
<svg width="100pt" height="100pt" version="1.1" viewBox="0 0 100 100" xmlns="http://www.w3.org/2000/svg">
 <path d="m37.031 17c-0.94531 0-1.7305 0.45703-2.125 0.84375s-0.54297 0.70703-0.65625 0.96875c-0.22266 0.52344-0.25 0.88672-0.25 1.25v17.844c0 0.36328 0.027344 0.72656 0.25 1.25 0.11328 0.26172 0.26172 0.58203 0.65625 0.96875s1.1797 0.875 2.125 0.875h9.9688v1-0.003906c-0.10547-0.003906-0.20703-0.003906-0.3125 0-1.6562 0.085937-2.9297 1.5-2.8438 3.1562 0.085938 1.6602 1.5 2.9336 3.1562 2.8438h6c0.80469 0.011718 1.5781-0.29688 2.1484-0.86328 0.57422-0.5625 0.89453-1.332 0.89453-2.1367 0-0.80078-0.32031-1.5703-0.89453-2.1328-0.57031-0.56641-1.3438-0.875-2.1484-0.86328v-1h9.9688c0.94531 0 1.7305-0.48828 2.125-0.875s0.54297-0.70703 0.65625-0.96875c0.22266-0.52344 0.25-0.88672 0.25-1.25v-17.844c0-0.36328-0.027344-0.72656-0.25-1.25-0.11328-0.26172-0.26172-0.58203-0.65625-0.96875s-1.1797-0.84375-2.125-0.84375zm2.9688 6h20v12h-9.4375c-0.19531-0.042969-0.39453-0.0625-0.59375-0.0625-0.15625 0.007812-0.3125 0.027344-0.46875 0.0625h-9.5zm-23.5 5.5v20.5h1v-19.5h14.5v-1zm51.5 0v1h14.5v19.5h1v-20.5zm-58.969 23.496c-0.94531 0-1.7305 0.45703-2.125 0.84375-0.39453 0.38672-0.54297 0.70703-0.65625 0.96875-0.22266 0.52344-0.25 0.88672-0.25 1.25v17.844c0 0.36328 0.027344 0.72656 0.25 1.25 0.11328 0.26172 0.26172 0.58203 0.65625 0.96875 0.39453 0.38672 1.1797 0.875 2.125 0.875h9.9688v1c-0.10547-0.003906-0.20703-0.003906-0.3125 0-0.79688 0.039062-1.5469 0.39453-2.082 0.98438-0.53516 0.59375-0.8125 1.375-0.76953 2.1719 0.039062 0.79688 0.39844 1.5469 0.99219 2.0781 0.59375 0.53516 1.375 0.80859 2.1719 0.76562h6c0.80469 0.011718 1.5781-0.30078 2.1484-0.86328 0.57422-0.5625 0.89453-1.332 0.89453-2.1367 0-0.80469-0.32031-1.5742-0.89453-2.1367-0.57031-0.5625-1.3438-0.875-2.1484-0.86328v-1h9.9688c0.94531 0 1.7305-0.48828 2.125-0.875 0.39453-0.38672 0.54297-0.70703 0.65625-0.96875 0.22266-0.52344 0.25-0.88672 0.25-1.25v-17.844c0-0.36328-0.027344-0.72656-0.25-1.25-0.11328-0.26172-0.26172-0.58203-0.65625-0.96875-0.39453-0.38672-1.1797-0.84375-2.125-0.84375zm56 0c-0.94531 0-1.7305 0.45703-2.125 0.84375-0.39453 0.38672-0.54297 0.70703-0.65625 0.96875-0.22266 0.52344-0.25 0.88672-0.25 1.25v17.844c0 0.36328 0.027344 0.72656 0.25 1.25 0.11328 0.26172 0.26172 0.58203 0.65625 0.96875 0.39453 0.38672 1.1797 0.875 2.125 0.875h9.9688v1c-0.10547-0.003906-0.20703-0.003906-0.3125 0-0.79688 0.039062-1.5469 0.39453-2.082 0.98438-0.53516 0.59375-0.8125 1.375-0.76953 2.1719 0.039062 0.79688 0.39844 1.5469 0.99219 2.0781 0.59375 0.53516 1.375 0.80859 2.1719 0.76562h6c0.80469 0.011718 1.5781-0.30078 2.1484-0.86328 0.57422-0.5625 0.89453-1.332 0.89453-2.1367 0-0.80469-0.32031-1.5742-0.89453-2.1367-0.57031-0.5625-1.3438-0.875-2.1484-0.86328v-1h9.9688c0.94531 0 1.7305-0.48828 2.125-0.875 0.39453-0.38672 0.54297-0.70703 0.65625-0.96875 0.22266-0.52344 0.25-0.88672 0.25-1.25v-17.844c0-0.36328-0.027344-0.72656-0.25-1.25-0.11328-0.26172-0.26172-0.58203-0.65625-0.96875-0.39453-0.38672-1.1797-0.84375-2.125-0.84375zm-53.031 6h20v12h-9.4375c-0.19531-0.039063-0.39453-0.0625-0.59375-0.0625-0.15625 0.007812-0.3125 0.03125-0.46875 0.0625h-9.5zm56 0h20v12h-9.4375c-0.19531-0.039063-0.39453-0.0625-0.59375-0.0625-0.15625 0.007812-0.3125 0.03125-0.46875 0.0625h-9.5z"/>
</svg>
