<?xml version="1.0" encoding="UTF-8"?>
<svg width="100pt" height="100pt" version="1.1" viewBox="0 0 100 100" xmlns="http://www.w3.org/2000/svg">
 <g>
  <path d="m95.453 11.062h-10.91c-1.668 0-3.0312 1.3633-3.0312 3.0312v1.668c-3.332-0.15234-5.6055 0.60547-7.7266-1.2109-11.668-10.152-5.6055-6.0625-21.668-12.574-2.4258-0.91016-5.1523-0.45312-7.2734 1.2109l-12.121 10.305c-5.4531 4.2422 1.9688 12.727 8.0312 8.0312l7.4258-6.5156c1.0625 2.8789 3.332 6.3633 7.4258 7.7266l-7.1211 18.328c-0.15234-0.75781-0.60547-1.5156-1.2109-2.1211 0.91016-0.91016 1.3633-2.1211 1.3633-3.4844s-0.60547-2.5742-1.3633-3.4844c0.91016-0.91016 1.3633-2.1211 1.3633-3.4844 0-2.7266-2.2734-5-5-5h-12.426c-2.7266 0-5 2.2734-5 5 0 0.75781 0.15234 1.5156 0.60547 2.2734-1.9688 0.60547-3.332 2.4258-3.332 4.6953 0 2.1211 1.3633 3.9375 3.332 4.6953-0.30469 0.60547-0.60547 1.3633-0.60547 2.2734 0 2.2734 1.5156 4.0898 3.4844 4.6953-0.30469 0.60547-0.45312 1.3633-0.45312 2.1211 0 2.5742 2.1211 4.8477 4.6953 5v18.184h-11.816c-2.5742 0-4.5469 1.9688-4.5469 4.5469v4.8477c0 0.75781 0.60547 1.5156 1.5156 1.5156l3.6367-0.003907v2.4258c0 1.668 1.3633 3.0312 3.0312 3.0312h26.668c1.668 0 3.0312-1.3633 3.0312-3.0312v-2.4258h3.4844c0.91016 0 1.5156-0.75781 1.5156-1.5156v-4.8477c0-2.5742-1.9688-4.5469-4.5469-4.5469l-11.973 0.003906v-18.184c2.2734-0.15234 4.0898-1.668 4.5469-3.7891h3.6367c16.062 0 19.547-4.3945 22.273-7.7266 1.3633-1.668 1.9688-2.4258 4.0898-2.4258h3.0312v1.9688c0 1.668 1.3633 3.0312 3.0312 3.0312l10.906 0.003907c1.668 0 3.0312-1.3633 3.0312-3.0312v-28.184c0-1.6641-1.3633-3.0273-3.0312-3.0273zm-51.664 40h-9.3945c-1.0625 0-1.9688-0.91016-1.9688-1.9688 0-1.0625 0.91016-1.9688 1.9688-1.9688h9.3945c1.0625 0 1.9688 0.91016 1.9688 1.9688s-0.91016 1.9688-1.9688 1.9688zm0-6.8203h-12.426c-1.0625 0-1.9688-0.91016-1.9688-1.9688 0-1.0625 0.91016-1.9688 1.9688-1.9688h12.426c1.0625 0 1.9688 0.91016 1.9688 1.9688 0 1.0586-0.91016 1.9688-1.9688 1.9688zm0-6.9688h-15.152c-1.0625 0-1.9688-0.91016-1.9688-1.9688 0-1.0625 0.91016-1.9688 1.9688-1.9688h15.152c1.0625 0 1.9688 0.91016 1.9688 1.9688 0 1.2109-0.91016 1.9688-1.9688 1.9688zm0-6.8203h-12.426c-1.0625 0-1.9688-0.91016-1.9688-1.9688 0-1.0625 0.91016-1.9688 1.9688-1.9688h12.426c1.0625 0 1.9688 0.91016 1.9688 1.9688 0 1.0625-0.91016 1.9688-1.9688 1.9688zm37.727 6.668h-3.0312c-3.4844 0-5 1.8164-6.3633 3.4844-2.2734 2.7266-5.3047 6.5156-19.848 6.5156h-2.7266l9.6953-25.152c0.15234-0.45312 0.15234-0.91016-0.15234-1.3633-0.30469-0.45312-0.60547-0.60547-1.0625-0.75781-6.3633-0.75781-7.2734-7.7266-7.2734-8.0312 0-0.60547-0.45312-1.0625-0.91016-1.2109-0.45312-0.15234-1.0625-0.15234-1.5156 0.30469l-9.2422 8.1836c-2.8789 2.2734-6.5156-1.5156-4.2422-3.332l12.121-10.305c1.2109-0.91016 2.8789-1.2109 4.2422-0.60547 15.758 6.2109 9.8477 2.4258 20.758 11.969 3.332 2.8789 6.8164 1.8164 9.6953 1.9688l0.007813 18.332zm8.4844-0.60547c-1.2109 0-2.2734-1.0625-2.2734-2.2734 0-1.2109 1.0625-2.2734 2.2734-2.2734s2.2734 0.91016 2.2734 2.2734c-0.15234 1.2109-1.0625 2.2734-2.2734 2.2734z"/>
  <path d="m68.484 80.453c-0.60547-0.45312-1.668-0.30469-2.1211 0.30469-0.45312 0.75781-0.30469 1.668 0.30469 2.1211l5.6055 4.0898c0.60547 0.45312 1.668 0.30469 2.1211-0.30469 0.45312-0.60547 0.30469-1.668-0.30469-2.1211z"/>
  <path d="m68.484 70 5.6055-4.0898c0.75781-0.45312 0.75781-1.5156 0.30469-2.1211-0.45312-0.75781-1.5156-0.75781-2.1211-0.30469l-5.6055 4.0898c-0.75781 0.45312-0.75781 1.5156-0.30469 2.1211 0.30469 0.45313 0.75781 0.60547 1.2109 0.60547 0.30469 0.003907 0.60938-0.14844 0.91016-0.30078z"/>
  <path d="m75.152 73.789h-7.5742c-0.91016 0-1.5156 0.75781-1.5156 1.5156 0 0.75781 0.60547 1.5156 1.5156 1.5156h7.5742c0.75781 0 1.5156-0.75781 1.5156-1.5156 0-0.75781-0.75781-1.5156-1.5156-1.5156z"/>
  <path d="m52.273 95.453h-26.363c-0.91016 0-1.5156 0.75781-1.5156 1.5156 0 0.91016 0.60547 1.5156 1.5156 1.5156h26.363c0.91016 0 1.5156-0.60547 1.5156-1.5156 0-0.90625-0.60547-1.5156-1.5156-1.5156z"/>
  <path d="m9.6953 80.453-5.4531 4.0898c-0.75781 0.45312-0.75781 1.5156-0.30469 2.1211 0.45312 0.75781 1.5156 0.75781 2.1211 0.30469l5.4531-4.0898c0.75781-0.45312 0.75781-1.3633 0.30469-2.1211-0.60547-0.60547-1.5117-0.75781-2.1211-0.30469z"/>
  <path d="m10.605 73.789h-7.5742c-0.75781 0-1.5156 0.75781-1.5156 1.5156 0 0.75781 0.60547 1.5156 1.5156 1.5156l7.5742-0.003906c0.91016 0 1.5156-0.75781 1.5156-1.5156 0-0.75391-0.75781-1.5117-1.5156-1.5117z"/>
  <path d="m9.6953 70c0.30469 0.15234 0.60547 0.30469 0.91016 0.30469 0.45312 0 0.91016-0.15234 1.2109-0.60547 0.45312-0.60547 0.30469-1.668-0.30469-2.1211l-5.4531-4.0898c-0.60547-0.45312-1.668-0.30469-2.1211 0.30469-0.45312 0.60547-0.30469 1.668 0.30469 2.1211z"/>
 </g>
</svg>
