<?xml version="1.0" encoding="UTF-8"?>
<svg width="100pt" height="100pt" version="1.1" viewBox="0 0 100 100" xmlns="http://www.w3.org/2000/svg">
 <g>
  <path d="m85.938 21.875h3.125v45.312h-3.125z"/>
  <path d="m89.062 13.414v-8.7266c0-0.86328-0.69922-1.5625-1.5625-1.5625h-37.5c-0.86328 0-1.5625 0.69922-1.5625 1.5625v8.7266l-7.3555 7.3555c-0.29297 0.29297-0.45703 0.69141-0.45703 1.1055v31.902c-1.4062-1.5234-3.2031-2.6758-5.2422-3.2852l1.4922-20.113c0.19141-2.5898-0.71094-5.168-2.4805-7.0703-1.1406-1.2266-2.5859-2.1094-4.168-2.5859l4.0469-10.797c0.17969-0.48047 0.11328-1.0156-0.17969-1.4375-0.28906-0.42578-0.76953-0.67578-1.2812-0.67578h-3.9219l0.74219-2.7148c0.12891-0.46875 0.03125-0.97266-0.26562-1.3594-0.29688-0.38672-0.75391-0.61328-1.2422-0.61328h-6.25c-0.80859 0-1.4844 0.61719-1.5547 1.4219l-0.78906 8.6641-0.78906-8.6641c-0.070313-0.80469-0.74609-1.4219-1.5547-1.4219h-7.8125c-0.50781 0-0.98828 0.25-1.2812 0.66406-0.28906 0.41797-0.35938 0.95313-0.1875 1.4336l5.4883 15.09h-0.29297c-2.5977 0-5.1016 1.0938-6.8672 2.9961-1.7695 1.9023-2.6719 4.4805-2.4805 7.0703l1.7969 24.234c-1.5156 1.9727-2.4258 4.4336-2.4258 7.1055 0 3.7109 1.7383 7.1562 4.6875 9.3672v24.227c0 0.86328 0.69922 1.5625 1.5625 1.5625h28.125c0.86328 0 1.5625-0.69922 1.5625-1.5625v-0.66406c5.1016 1.4492 10.34 2.2266 15.617 2.2266h8.1562c8.2344 0 16.137-3.0312 22.258-8.5391l6.582-5.9219c0.32422-0.29687 0.51172-0.71875 0.51172-1.1641s-0.1875-0.86719-0.51562-1.1602l-6.582-5.9219c-6.1211-5.5117-14.023-8.543-22.258-8.543h-2.6758l-4.2188-5.625c-0.29688-0.39453-0.75781-0.625-1.25-0.625h-10.938v-22.656c0-3.875 3.1562-7.0312 7.0312-7.0312s7.0312 3.1562 7.0312 7.0312v4.6875c0 6.4609 5.2578 11.719 11.719 11.719 3.3984 0 6.4531-1.4609 8.5938-3.7773v17.84h3.125v-44.664l6.25-6.25 6.25 6.25v71.227h-14.062v3.125h15.625c0.86328 0 1.5625-0.69922 1.5625-1.5625v-73.438c0-0.41406-0.16406-0.8125-0.45703-1.1055zm-58.504-2.4766-3.5156 9.375h-1.5586l2.5586-9.375zm-4.4805-4.6875-3.8359 14.062h-0.21875l1.2773-14.062zm-14.473 0h4.1562l1.2773 14.062h-0.32031zm-3.0859 19.184c1.1953-1.2852 2.8242-1.9961 4.582-1.9961h14.422c1.7578 0 3.3828 0.71094 4.5781 1.9961 1.1953 1.2891 1.7812 2.9609 1.6562 4.7148l-1.0078 13.602h-13.191v3.125h12.961l-0.23047 3.1289c-0.085937-0.003906-0.17187-0.003906-0.25781-0.003906h-17.188c-0.51953 0-1.0234 0.046875-1.5234 0.10938-0.125 0.015625-0.24219 0.035156-0.36719 0.054687-0.45312 0.074219-0.89844 0.17188-1.3281 0.29297-0.046875 0.015625-0.097656 0.023438-0.14844 0.039063-0.49219 0.14844-0.96875 0.33203-1.4297 0.53906-0.085937 0.039063-0.16797 0.082032-0.25391 0.12109-0.40625 0.19531-0.80469 0.41406-1.1836 0.65234-0.042969 0.027344-0.085937 0.046875-0.12891 0.070312l-0.83984-11.254h4.8594v-3.125h-5.0859l-0.23047-3.125h20.941v-3.125h-21.176l-0.082031-1.1016c-0.12891-1.75 0.45703-3.4258 1.6523-4.7148zm27.418 68.316h-25v-30.598c0-2.082 1.6953-3.7773 3.7773-3.7773h13.41v-3.125h-13.41c-3.8086 0-6.9023 3.0938-6.9023 6.9023v3.4961c-1-1.4219-1.5625-3.1289-1.5625-4.9258 0-2.1719 0.81641-4.1523 2.1484-5.668 0.16797-0.19141 0.34375-0.375 0.52734-0.55078 0.050781-0.046875 0.10156-0.09375 0.15234-0.14062 0.16797-0.15234 0.34375-0.30078 0.52344-0.4375l0.1875-0.14062c0.17969-0.12891 0.35938-0.25 0.54688-0.36719 0.070312-0.042969 0.13672-0.085938 0.20312-0.125 0.19141-0.10938 0.38672-0.21094 0.58594-0.30859 0.070312-0.03125 0.13672-0.066406 0.20312-0.097656 0.20703-0.09375 0.42188-0.17578 0.63281-0.25 0.066406-0.023438 0.12891-0.050781 0.19531-0.070313 0.22266-0.074218 0.44922-0.13281 0.67969-0.1875 0.0625-0.015625 0.125-0.035156 0.1875-0.046875 0.23437-0.050781 0.47656-0.085937 0.71484-0.11719 0.0625-0.007813 0.11719-0.023438 0.17969-0.027344 0.31641-0.046875 0.62109-0.0625 0.92578-0.0625h17.188c0.44531 0 0.91406 0.042969 1.4375 0.13281h0.007812c4.0508 0.6875 7.1484 4.2148 7.1484 8.4609 0 2.6328-1.1992 5.0703-3.2344 6.6953-0.10938 0.085938-0.23047 0.16797-0.34375 0.25-0.13281 0.09375-0.25391 0.19922-0.39062 0.28516-0.44922 0.29297-0.71875 0.78516-0.71875 1.3203zm51.391-13.367-11.102 2.4688 0.67969 3.0508 8.2617-1.8359-2.1641 1.9492c-3.9766 3.5781-8.7891 5.9805-13.941 7.0664-1.6641-2.4219-5-7.9648-5-13.395 0-5.2188 2.3125-8.9453 3.5156-10.539 5.7109 0.90625 11.066 3.418 15.418 7.3359zm-23.301-11.578c-1.4336 2.3203-3.0898 6.0352-3.0898 10.883 0 5.4844 2.7812 10.836 4.7305 13.926-0.9375 0.089844-1.8828 0.13672-2.8359 0.13672h-8.1562c-5.2773 0-10.523-0.77734-15.617-2.3125l0.003906-20.352c0.015625-0.011719 0.03125-0.027344 0.046875-0.039063 5.0664-1.5234 10.301-2.2969 15.57-2.2969h8.1562c0.39844 0 0.79297 0.039062 1.1914 0.054688zm-7.7773-3.1797h-1.5703c-4.0938 0-8.1641 0.45703-12.16 1.3281 0.6875-1.3711 1.082-2.8828 1.1875-4.4531h10.199zm22.332-44.855c-0.29297 0.29297-0.45703 0.69141-0.45703 1.1055v19.531c0 4.7383-3.8555 8.5938-8.5938 8.5938s-8.5938-3.8555-8.5938-8.5938v-4.6875c0-5.6016-4.5547-10.156-10.156-10.156-2.7266 0-5.2031 1.0859-7.0312 2.8438v-5.9688h15.625v-3.125h-13.414l5.1445-5.1445c0.29297-0.29297 0.45703-0.69141 0.45703-1.1055v-7.8125h3.125v3.125h3.125v-3.125h3.125v3.125h3.125v-3.125h3.125v3.125h3.125v-3.125h3.125v3.125h3.125v-3.125h3.125v3.125h3.125v-3.125h3.125v7.1641z"/>
  <path d="m31.25 56.25h3.125v3.125h-3.125z"/>
  <path d="m73.438 75h3.125v3.125h-3.125z"/>
  <path d="m65.625 10.938c-2.5859 0-4.6875 2.1016-4.6875 4.6875s2.1016 4.6875 4.6875 4.6875 4.6875-2.1016 4.6875-4.6875-2.1016-4.6875-4.6875-4.6875zm0 6.25c-0.85938 0-1.5625-0.70312-1.5625-1.5625s0.70312-1.5625 1.5625-1.5625 1.5625 0.70312 1.5625 1.5625-0.70312 1.5625-1.5625 1.5625z"/>
  <path d="m15.625 37.5h3.125v3.125h-3.125z"/>
 </g>
</svg>
