<?xml version="1.0" encoding="UTF-8"?>
<svg width="100pt" height="100pt" version="1.1" viewBox="0 0 100 100" xmlns="http://www.w3.org/2000/svg">
 <g>
  <path d="m98.797 28.316c-0.003906-0.046875-0.003906-0.089844-0.007813-0.13281-0.003906-0.019532 0-0.035156-0.003906-0.054688-0.003906-0.023437-0.011718-0.042968-0.015625-0.066406-0.007812-0.046875-0.019531-0.089844-0.027343-0.13672-0.011719-0.042969-0.023438-0.085937-0.035157-0.12891-0.011719-0.039063-0.027343-0.078125-0.042969-0.12109-0.015624-0.039062-0.03125-0.078125-0.050781-0.11719-0.019531-0.039063-0.039062-0.078125-0.0625-0.11719-0.019531-0.039062-0.042969-0.074218-0.066406-0.11328-0.023437-0.035156-0.046875-0.066406-0.070313-0.10156-0.027343-0.035156-0.054687-0.070312-0.082031-0.10547-0.027343-0.035156-0.054687-0.066406-0.085937-0.097656s-0.0625-0.0625-0.097656-0.09375c-0.019532-0.019532-0.03125-0.039063-0.054688-0.054688-0.011719-0.011719-0.027344-0.019531-0.042969-0.027344-0.03125-0.023437-0.0625-0.050781-0.09375-0.070312-0.039062-0.027344-0.082031-0.054688-0.125-0.082032-0.035156-0.019531-0.070312-0.046874-0.10547-0.0625-0.03125-0.015624-0.066406-0.03125-0.097656-0.046874-0.046875-0.019532-0.09375-0.039063-0.14062-0.054688-0.039062-0.015625-0.078125-0.03125-0.12109-0.042969-0.035157-0.011719-0.070313-0.019531-0.10547-0.027343-0.046875-0.011719-0.097657-0.019532-0.14453-0.027344-0.046876-0.007813-0.089844-0.015625-0.13281-0.019532-0.039063-0.003906-0.078125-0.003906-0.11719-0.003906-0.023438 0-0.042969-0.007812-0.066407-0.007812-0.023437 0-0.050781 0.007812-0.074219 0.007812-0.046874 0-0.09375 0.003906-0.14062 0.007813h-0.050782l-12.645 1.6992c-1.0938 0.14844-1.8633 1.1523-1.7148 2.25 0.13672 1.0039 0.99219 1.7344 1.9805 1.7344 0.089844 0 0.17969-0.007812 0.26953-0.019531l7.4648-1.0039-8.1797 9.5938-8.7734-5.0117c-0.042969-0.023437-0.085938-0.035156-0.12891-0.058594-0.066406-0.03125-0.13672-0.066406-0.20312-0.089843-0.0625-0.019531-0.12109-0.035157-0.18359-0.050781-0.0625-0.015626-0.12891-0.03125-0.19141-0.042969-0.066407-0.007813-0.13281-0.011719-0.19922-0.011719-0.0625-0.003906-0.125-0.007812-0.1875-0.003906s-0.125 0.015625-0.1875 0.023437c-0.0625 0.007813-0.12891 0.019531-0.19141 0.03125-0.058594 0.015625-0.11328 0.035157-0.17188 0.058594-0.0625 0.023437-0.12891 0.042969-0.19141 0.070313-0.058593 0.027343-0.10937 0.058593-0.16406 0.09375-0.058594 0.03125-0.11328 0.0625-0.16797 0.10547-0.058593 0.042969-0.10938 0.089844-0.16016 0.14062-0.035156 0.035157-0.078125 0.0625-0.11328 0.097657l-31.723 33.578-17.266-15.699c-0.027343-0.027344-0.0625-0.042969-0.089843-0.066406-0.058594-0.046876-0.11719-0.09375-0.17969-0.13281-0.054687-0.03125-0.10547-0.0625-0.16016-0.089844-0.058594-0.03125-0.11719-0.0625-0.17969-0.085937-0.0625-0.023438-0.12109-0.042969-0.18359-0.0625-0.0625-0.019532-0.12109-0.03125-0.18359-0.046875-0.0625-0.011719-0.125-0.019531-0.19141-0.023438-0.0625-0.007812-0.12891-0.011719-0.19531-0.011719-0.0625 0-0.12109 0.007813-0.18359 0.011719-0.066407 0.007813-0.13281 0.015625-0.19531 0.027344s-0.125 0.03125-0.1875 0.050781c-0.0625 0.019532-0.12109 0.039063-0.17969 0.0625-0.066407 0.027344-0.12891 0.0625-0.19141 0.097656-0.035156 0.019532-0.070312 0.03125-0.10547 0.054688l-18.969 11.914c-0.93359 0.58594-1.2188 1.8203-0.62891 2.7578 0.37891 0.60547 1.0312 0.9375 1.6953 0.9375 0.36328 0 0.73047-0.097656 1.0625-0.30859l17.68-11.105 17.594 15.996c0.046875 0.042969 0.097656 0.070313 0.14453 0.10938 0.050781 0.039063 0.097656 0.078125 0.14844 0.11328 0.058594 0.035157 0.11719 0.0625 0.17969 0.089844 0.050782 0.023438 0.10156 0.058594 0.15625 0.078125 0.070313 0.027344 0.14453 0.042969 0.21875 0.0625 0.042969 0.011719 0.089844 0.027344 0.13281 0.035157 0.12109 0.019531 0.24219 0.03125 0.36328 0.03125 0.13281 0 0.26953-0.015626 0.40234-0.039063 0.039062-0.007813 0.078125-0.023437 0.11719-0.035156 0.089843-0.023438 0.18359-0.046875 0.26953-0.085938 0.050781-0.019531 0.09375-0.050781 0.14062-0.078125 0.074218-0.039062 0.14844-0.074218 0.21875-0.12109 0.054687-0.035156 0.097656-0.085937 0.14844-0.12891 0.054688-0.046875 0.10938-0.085937 0.16016-0.13672l0.023437-0.027344 31.961-33.84 8.832 5.0469c0.003906 0.003906 0.007812 0.003906 0.011718 0.003906l0.003907 0.003907c0.003906 0 0.003906 0 0.007812 0.003906 0.13672 0.078125 0.27734 0.13281 0.42578 0.17578 0.039063 0.011719 0.074219 0.019531 0.11328 0.03125 0.14453 0.03125 0.28516 0.054687 0.43359 0.054687h0.015624c0.007813 0 0.011719-0.003906 0.015626-0.003906 0.15234 0 0.30859-0.023437 0.45703-0.058594 0.050781-0.011718 0.09375-0.03125 0.14453-0.046874 0.10547-0.035157 0.20703-0.074219 0.30469-0.125 0.050781-0.027344 0.10156-0.058594 0.14844-0.089844 0.089844-0.054688 0.17188-0.11719 0.25-0.1875 0.046875-0.039063 0.09375-0.078125 0.13672-0.125 0.023437-0.023438 0.050781-0.042969 0.070312-0.066406l9.1211-10.699v6.4844c0 1.1055 0.89453 2 2 2s2-0.89453 2-2l-0.007812-11.914c0-0.027343-0.007813-0.050781-0.007813-0.078125z"/>
  <path d="m96.805 79.254h-93.609c-1.1055 0-2 0.89453-2 2 0 1.1055 0.89453 2 2 2h93.605c1.1055 0 2-0.89453 2-2 0-1.1016-0.89453-2-1.9961-2z"/>
  <path d="m7.5391 35.078c0.16797 0.046875 0.34375 0.078125 0.52344 0.078125h1.4609v6.7148h-1.4609c-1.1055 0-2 0.89453-2 2 0 1.1055 0.89453 2 2 2h1.457v1.6953c0 1.1055 0.89453 2 2 2s2-0.89453 2-2v-1.6953h0.96875c4.0586 0 7.3555-3.3008 7.3555-7.3555 0-3.7109-2.7656-6.7812-6.3438-7.2773-0.16797-0.046875-0.34375-0.078125-0.52344-0.078125l-0.48828-0.003906h-0.96875v-6.7148h1.457c1.1055 0 2-0.89453 2-2 0-1.1055-0.89453-2-2-2h-1.457v-1.6953c0-1.1055-0.89453-2-2-2s-2 0.89453-2 2v1.6953h-0.96484c-4.0586 0-7.3555 3.3008-7.3555 7.3594-0.003907 3.7109 2.7617 6.7812 6.3398 7.2773zm6.9492 0.078125c1.8516 0 3.3555 1.5078 3.3555 3.3555 0 1.8516-1.5078 3.3555-3.3555 3.3555h-0.96875v-6.7148zm-5.9336-10.715h0.96875v6.7148h-0.96875c-1.8516 0-3.3555-1.5078-3.3555-3.3555-0.003907-1.8516 1.5039-3.3594 3.3555-3.3594z"/>
 </g>3
</svg>
