<?xml version="1.0" encoding="UTF-8"?>
<svg width="100pt" height="100pt" version="1.1" viewBox="0 0 100 100" xmlns="http://www.w3.org/2000/svg">
 <g>
  <path d="m26.898 15.398l-5.8008-9.1016c-0.60156-0.89844-1.8008-1.1992-2.6992-0.60156-0.89844 0.60156-1.1992 1.8008-0.60156 2.6992l5.8008 9.1016c0.39844 0.60156 1 0.89844 1.6992 0.89844 0.39844 0 0.69922-0.10156 1.1016-0.30078 0.80078-0.49219 1.1016-1.793 0.5-2.6953z"/>
  <path d="m19.602 34.301l-9.1016 5.8008c-0.89844 0.60156-1.1992 1.8008-0.60156 2.6992 0.39844 0.60156 1 0.89844 1.6992 0.89844 0.39844 0 0.69922-0.10156 1.1016-0.30078l9.1016-5.8008c0.89844-0.60156 1.1992-1.8008 0.60156-2.6992-0.60156-0.89844-1.8008-1.0977-2.8008-0.59766z"/>
  <path d="m45 22.602c0.39844 0 0.69922-0.10156 1.1016-0.30078l9.1016-5.8008c0.89844-0.60156 1.1992-1.8008 0.60156-2.6992-0.60156-0.89844-1.8008-1.1992-2.6992-0.60156l-9.1016 5.8008c-0.89844 0.60156-1.1992 1.8008-0.60156 2.6992 0.29688 0.60156 0.89844 0.90234 1.5977 0.90234z"/>
  <path d="m35 16.5h0.39844c0.89844 0 1.6992-0.60156 1.8984-1.6016l2.3984-10.602c0.19922-1.1016-0.39844-2.1016-1.5-2.3984-1.1016-0.19922-2.1016 0.39844-2.3984 1.5l-2.3984 10.602c-0.19922 1.1992 0.5 2.1992 1.6016 2.5z"/>
  <path d="m19 26.898c0.89844 0 1.6992-0.60156 1.8984-1.6016 0.19922-1.1016-0.39844-2.1016-1.5-2.3984l-10.5-2.1992c-1.1016-0.19922-2.1016 0.39844-2.3984 1.5-0.19922 1.1016 0.39844 2.1016 1.5 2.3984l10.602 2.3008h0.39844z"/>
  <path d="m94.102 82.801c-0.30078-1.3008-0.30078-3.3984-0.30078-5.8008 0-7.6992 0.10156-19.398-8.8008-33.398l-5.3984-8.5c-0.89844-1.5-2.3984-2.5-4.1016-2.8984-1.6992-0.39844-3.5-0.10156-5 0.89844 0 0-0.10156 0-0.10156 0.10156-0.89844 0.60156-1.6016 1.3008-2.1016 2.1992-0.80078-0.60156-1.6992-1-2.6016-1.1992-1.8008-0.39844-3.6016-0.10156-5.1016 0.89844-0.10156 0-0.10156 0.10156-0.19922 0.10156-1.1016 0.80078-2 1.8008-2.5 3.1016-1.8984-0.89844-4.1992-0.80078-6.1992 0.30078-0.10156 0-0.19922 0.10156-0.30078 0.10156-0.80078 0.5-1.5 1.1992-2 2l-8.5938-13.707c-1-1.6016-2.6992-2.8008-4.6016-3.1992-1.8984-0.39844-3.8984-0.10156-5.5 1l-0.10156 0.10156h-0.10156c-1.6016 1-2.8008 2.6992-3.1992 4.6016-0.39844 1.8984-0.10156 3.8984 1 5.5l14.602 22.898c-0.69922 0.30078-1.3984 0.80078-2.1016 1.3008-0.30078 0.19922-0.69922 0.5-1.1016 0.69922-1.6992 1.1016-2.8984 2.8008-3.3984 4.8008-0.39844 2-0.10156 4.1016 1 5.8008l5.1016 8c0.10156 0.10156 0.19922 0.30078 0.30078 0.39844 6.1992 8.5 13.699 10.801 18.898 12.199 1.3984 0.39844 2.6016 0.80078 3.5 1.1992 0.19922 0.10156 0.30078 0.10156 0.5 0.10156 2.3984 0.5 3.1016 1.6992 4.3984 3.8984l0.5 0.69922c0.39844 0.60156 1 0.89844 1.6992 0.89844 0.39844 0 0.69922-0.10156 1.1016-0.30078 0.89844-0.60156 1.1992-1.8008 0.60156-2.6992l-0.39844-0.69922c-1.3984-2.3008-2.8984-4.8008-6.8984-5.6992-1.1016-0.5-2.3008-0.80078-3.8008-1.1992-5.1992-1.5-12.301-3.6016-17.801-12.301l-4.3008-6.6992c-0.5-0.80078-0.69922-1.8008-0.5-2.8008s0.80078-1.8008 1.6016-2.3008c0.39844-0.30078 0.80078-0.5 1.1016-0.80078 0.69922-0.5 1.6992-1.1992 1.8984-1.1992 0 0 0.10156 0.10156 0.39844 0.39844l6 9.3984c0.39844 0.60156 1 0.89844 1.6992 0.89844 0.39844 0 0.69922-0.10156 1.1016-0.30078 0.89844-0.60156 1.1992-1.8008 0.60156-2.6992l-5.8984-9.3984-17-26.699c-0.5-0.80078-0.60156-1.6016-0.39844-2.5 0.19922-0.89844 0.69922-1.6016 1.5-2.1016l0.10156-0.10156h0.10156c0.80078-0.5 1.6016-0.60156 2.5-0.39844 0.89844 0.19922 1.6016 0.69922 2.1016 1.5l12 18.898 5.6016 8.8984c0.39844 0.60156 1 0.89844 1.6992 0.89844 0.39844 0 0.69922-0.10156 1.1016-0.30078 0.89844-0.60156 1.1992-1.8008 0.60156-2.6992l-5.6016-8.8984c-0.80078-1.3008-0.39844-3.1016 0.89844-3.8984 1.3008-0.80078 3.1016-0.39844 3.8984 0.89844l5.6016 8.8984c0.39844 0.60156 1 0.89844 1.6992 0.89844 0.39844 0 0.69922-0.10156 1.1016-0.30078 0.89844-0.60156 1.1992-1.8008 0.60156-2.6992l-4.6992-7.3984c-0.39844-0.60156-0.5-1.3984-0.39844-2.1016 0.19922-0.69922 0.60156-1.3984 1.1992-1.8008 0.60156-0.39844 1.3984-0.5 2.1016-0.39844 0.69922 0.19922 1.3984 0.60156 1.8008 1.1992l1.8984 2.8984 3.8008 5.8984c0.39844 0.60156 1 0.89844 1.6992 0.89844 0.39844 0 0.69922-0.10156 1.1016-0.30078 0.89844-0.60156 1.1992-1.8008 0.60156-2.6992l-4.1172-5.9844c-0.39844-0.60156-0.5-1.3008-0.30078-2s0.60156-1.3008 1.1016-1.6016c0.60156-0.39844 1.3008-0.5 2-0.30078 0.69922 0.19922 1.3008 0.60156 1.6016 1.1016l5.3984 8.5c8.3008 13 8.1992 24 8.1992 31.301 0 2.8008 0 5 0.39844 6.8008 0.19922 0.89844 1 1.5 1.8984 1.5 0.19922 0 0.30078 0 0.5-0.10156 1.1016-0.30078 1.8008-1.3984 1.5039-2.3984z"/>
 </g>
</svg>
