<?xml version="1.0" encoding="UTF-8"?>
<svg width="100pt" height="100pt" version="1.1" viewBox="0 0 100 100" xmlns="http://www.w3.org/2000/svg">
 <path d="m86.082 43.449c1.2969-1.2969 3.4023-1.293 4.6953 0 1.2969 1.2969 1.2891 3.4062 0 4.6953l-38.098 38.094c-1.293 1.2969-3.3984 1.293-4.6914 0-1.2969-1.2969-1.2891-3.4062-0.003906-4.6914zm-8.25 25.148 12.945 12.949c1.293 1.293 1.2969 3.3945 0 4.6914-1.293 1.293-3.3984 1.2969-4.6953 0l-12.945-12.945zm-12.207-12.203-4.6953 4.6953-12.945-12.945c-1.293-1.2969-1.293-3.3984 0.003906-4.6953 1.293-1.293 3.3984-1.2969 4.6914 0zm-39.418 28.75-12.316-20.445c-1.5156-2.5156-5.1172-4.5508-8.0508-4.5508-5.2344 0-5.8398-1.8906-5.8398-4.1992 0-2.3047 2.9883-3.7695 5.9219-3.7695h4.4141c2.9375 0 6.5391 2.0391 8.0547 4.5508l4.832 8.0234c1.5117 2.5078 3.332 2.2461 4.0586-0.59375l11.879-46.23c0.72656-2.8359 3.6953-5.1406 6.6289-5.1406h48.902c2.9297 0 5.3086 2.3789 5.3086 5.3086v1.7539c0 2.9297-2.3789 5.3086-5.3125 5.3086-4.8711 0-2.2617-4.6953-7.9688-4.4023h-34.742c-2.9414 0-5.9102 2.3008-6.6367 5.1367l-15.07 58.664c-0.73047 2.8359-2.5469 3.1016-4.0625 0.58594z"/>
</svg>
