<?xml version="1.0" encoding="UTF-8"?>
<svg width="100pt" height="100pt" version="1.1" viewBox="0 0 100 100" xmlns="http://www.w3.org/2000/svg">
 <path d="m70.152 15.09h-40.305l-20.156 34.91 20.156 34.91h40.309l20.152-34.91zm-35.562 42.691-16.246-5.7812h16.246zm3-13.121 10.906 6.3008v12.5l-10.906-6.3008zm23.398-2.6445-10.988 6.3477-10.988-6.3477 10.988-6.3438zm-9.4883 8.9453 10.906-6.3008v12.5l-10.906 6.3008zm-0.56641-18.215 12.723-10.777-7.8516 13.59zm13.574 26.668 3.5273 18.211-8.7656-15.184zm0.89844-18.309-6.1406-3.543 9.6211-16.664 15.949 27.602zm-33.25-22.016h33.156l-15.301 13.125-0.011719-0.007813-14.559 8.4023zm-0.82422 1.4102 3.2344 20.957 0.019532-0.003906 0.003906 6.5469h-19.125zm-15.867 31.5 19.125 6.8477v0.050782l14.492 8.3672-17.16 13.234zm17.559 28.91 17.109-13.195 5.6719-3.2734 9.5117 16.469zm36.207-2.3945-3.8203-19.727-0.003906-16.527 20.285 7.7383z"/>
</svg>
