<?xml version="1.0" encoding="UTF-8"?>
<svg width="100pt" height="100pt" version="1.1" viewBox="0 0 100 100" xmlns="http://www.w3.org/2000/svg">
 <g>
  <path d="m46.273 58.547c-2.168-1.3867-5.0977-0.73828-6.4805 1.4297-1.3867 2.168-0.73828 5.0977 1.4297 6.4805 2.168 1.3867 5.0977 0.73828 6.4805-1.4297 1.3867-2.168 0.73828-5.0977-1.4297-6.4805zm-1.6836 2.6289c0.74609 0.47656 0.96094 1.4219 0.48438 2.168-0.47656 0.74609-1.4219 0.96094-2.168 0.48438s-0.96094-1.4219-0.48438-2.168 1.4219-0.96094 2.168-0.48438z"/>
  <path d="m13.863 74.992c-0.69922 0.074218-1.2656 0.60937-1.3789 1.3047s0.25391 1.3789 0.89453 1.6719l6.25 3.1133h0.003906c0.43359 0.21484 0.94531 0.21484 1.3828 0l5.5586-2.7656 5.5352 2.7695c0.44531 0.22266 0.96484 0.22266 1.4102 0l5.5352-2.7695 5.5352 2.7695c0.44531 0.22266 0.96484 0.22266 1.4102 0l5.5352-2.7695 5.5586 2.7695c0.4375 0.21484 0.94922 0.21484 1.3828 0l5.582-2.7695 5.5586 2.7695h0.003906c0.4375 0.21484 0.94531 0.21484 1.3828 0l5.5586-2.7695 5.5352 2.7695h0.003906c0.44141 0.22266 0.96484 0.22266 1.4062 0l6.2266-3.1133v-0.003906c0.40625-0.16016 0.72266-0.48438 0.87891-0.89062 0.15625-0.41016 0.13281-0.86328-0.058593-1.2539-0.19531-0.39062-0.54297-0.67969-0.96094-0.80469-0.41797-0.12109-0.86719-0.066406-1.2422 0.16016l-5.5586 2.7695-5.5352-2.7695c-0.44531-0.22266-0.96484-0.22266-1.4102 0l-5.5352 2.7695-5.5352-2.7695c-0.44531-0.22266-0.96484-0.22266-1.4102 0l-5.582 2.7461-5.5586-2.7695c-0.4375-0.21484-0.94922-0.21484-1.3828 0l-5.5352 2.7695-5.5586-2.7695h-0.003906c-0.43359-0.21484-0.94531-0.21484-1.3828 0l-5.5586 2.7695-5.5352-2.7695h-0.003906c-0.44141-0.22266-0.96484-0.22266-1.4062 0l-5.5352 2.7695-5.5352-2.7695h-0.003906c-0.28125-0.14844-0.60547-0.20312-0.92188-0.16406z" fill-rule="evenodd"/>
  <path d="m13.863 67.195c-0.68359 0.089844-1.2266 0.61719-1.3398 1.2969-0.10938 0.67969 0.23828 1.3516 0.85547 1.6562l6.25 3.1133h0.003906c0.43359 0.21484 0.94531 0.21484 1.3828 0l5.5586-2.7656 5.5352 2.7695c0.44531 0.22266 0.96484 0.22266 1.4102 0l5.5352-2.7695 5.5352 2.7695c0.44531 0.22266 0.96484 0.22266 1.4102 0l5.5352-2.7695 5.5586 2.7695c0.43359 0.22266 0.94531 0.23047 1.3828 0.023437l5.582-2.7695 5.5586 2.7695h0.003906c0.4375 0.21484 0.94531 0.21484 1.3828 0l5.5586-2.7695 5.5352 2.7695h0.003906c0.44141 0.22266 0.96484 0.22266 1.4062 0l6.2266-3.1133v-0.003906c0.40625-0.16016 0.72266-0.48438 0.87891-0.89062 0.15625-0.41016 0.13281-0.86328-0.058593-1.2539-0.19531-0.39062-0.54297-0.67969-0.96094-0.80469-0.41797-0.12109-0.86719-0.0625-1.2422 0.16016l-5.5586 2.7695-5.5352-2.7695c-0.44531-0.22266-0.96484-0.22266-1.4102 0l-5.5352 2.7695-5.5352-2.7695c-0.44141-0.23047-0.96094-0.23828-1.4102-0.023437l-5.582 2.7656-5.5586-2.7656c-0.4375-0.21484-0.94922-0.21484-1.3828 0l-5.5352 2.7695-5.5586-2.7695h-0.003906c-0.43359-0.21484-0.94531-0.21484-1.3828 0l-5.5586 2.7695-5.5352-2.7695h-0.003906c-0.44141-0.22266-0.96484-0.22266-1.4062 0l-5.5352 2.7695-5.5352-2.7695h-0.003906c-0.28125-0.14844-0.60547-0.20312-0.92188-0.16406z" fill-rule="evenodd"/>
  <path d="m54.094 46.043c-2.168-1.3867-5.0977-0.73828-6.4805 1.4297-1.3867 2.168-0.73828 5.0977 1.4297 6.4805 2.168 1.3867 5.0977 0.73828 6.4805-1.4297 1.3867-2.168 0.73828-5.0977-1.4297-6.4805zm-1.6836 2.6289c0.74609 0.47656 0.9375 1.4219 0.46094 2.168-0.47656 0.74609-1.3984 0.96094-2.1445 0.48438-0.74609-0.47656-0.96094-1.4219-0.48437-2.168 0.47656-0.74609 1.4219-0.96094 2.168-0.48438z"/>
  <path d="m43.047 31.023c-0.51953 0.050781-0.97656 0.35156-1.2227 0.80859l-2.0078 3.5508v0.003907c-0.23438 0.35938-0.30859 0.80469-0.20312 1.2227 0.10156 0.41797 0.375 0.77734 0.75391 0.98828 0.375 0.21094 0.82422 0.25391 1.2344 0.125 0.41016-0.12891 0.75-0.42578 0.9375-0.81641l2.0078-3.5312v0.003906c0.30078-0.50781 0.28906-1.1406-0.027344-1.6406-0.31641-0.49609-0.88672-0.77344-1.4727-0.71484z" fill-rule="evenodd"/>
  <path d="m57.672 20.297c-0.48438 0.042969-0.91797 0.30859-1.1758 0.71484l-30.473 47.684 2.6289 1.6836 29.504-46.16 10.426 8.9961 2.0547-2.375-11.812-10.148v-0.003906c-0.31641-0.28125-0.73047-0.42188-1.1523-0.39062z" fill-rule="evenodd"/>
  <path d="m42.031 21.867c-0.47266 0.050781-0.89844 0.3125-1.1523 0.71484l-21.109 32.828v-0.003906c-0.22266 0.35547-0.29688 0.78516-0.19922 1.1914 0.09375 0.40625 0.34766 0.76172 0.70703 0.97656l10.148 6.25 1.6367-2.6523-8.8125-5.4219 19.379-30.129 8.8359 6.1133 1.7773-2.5586-10.172-7.0352c-0.30469-0.21094-0.67187-0.30859-1.0391-0.27344z"/>
  <path d="m17.141 32.801c-0.50781 0.023438-0.97266 0.28906-1.2461 0.71484l-4.6836 7.0117c-0.23828 0.34766-0.32422 0.77734-0.24219 1.1875 0.082031 0.41406 0.32812 0.77734 0.67969 1.0039l13.289 8.582 1.6836-2.6055-11.949-7.75 2.9531-4.4297 11.996 7.7734 1.707-2.6289-13.289-8.6055c-0.26562-0.17188-0.58203-0.26172-0.89844-0.25391z"/>
  <path d="m72.758 25.211c-0.44922 0.070312-0.84375 0.33203-1.0859 0.71484l-5.0508 7.8906c-0.32422 0.50391-0.33594 1.1484-0.023438 1.6602l1.3164 2.1914-18.477 31.074 2.6992 1.5898 18.938-31.855c0.30078-0.49609 0.30078-1.1172 0-1.6133l-1.293-2.168 3.3906-5.3281 14.004 16.148-12.758 23.277 2.7227 1.5 13.289-24.223v-0.003906c0.31641-0.57422 0.24219-1.2812-0.1875-1.7773l-16.078-18.547c-0.34766-0.40625-0.87891-0.60547-1.4062-0.53125z" fill-rule="evenodd"/>
  <path d="m25.582 18.75c-0.45312 0.058594-0.85547 0.3125-1.1055 0.69531l-4.6836 7.0352c-0.22656 0.34766-0.30859 0.77344-0.21875 1.1797 0.085937 0.40625 0.32812 0.76172 0.67969 0.98828l13.266 8.6055 1.707-2.6289-11.949-7.7266 2.9531-4.4297 11.996 7.75 1.6836-2.6289-13.289-8.582v-0.003906c-0.30469-0.20312-0.67188-0.29297-1.0391-0.25391z"/>
  <path d="m61.891 33.539c-2.168-1.3867-5.0977-0.73828-6.4805 1.4297-1.3867 2.168-0.73828 5.0977 1.4297 6.4805 2.168 1.3867 5.0977 0.73828 6.4805-1.4297 1.3867-2.168 0.73828-5.0977-1.4297-6.4805zm-1.6836 2.6289c0.74609 0.47656 0.96094 1.4219 0.48438 2.168-0.47656 0.74609-1.4219 0.96094-2.168 0.48437-0.74609-0.47656-0.9375-1.4219-0.46094-2.168s1.3984-0.96094 2.1445-0.48438z"/>
  <path d="m37.254 40.391c-0.50781 0.054687-0.95312 0.35938-1.1992 0.80859l-2.0078 3.5508h0.003906c-0.42969 0.75391-0.16406 1.707 0.58594 2.1328 0.75391 0.42969 1.707 0.16406 2.1328-0.58594l2.0078-3.5508v-0.003906c0.30469-0.50781 0.29297-1.1484-0.027344-1.6484-0.32422-0.5-0.90234-0.77344-1.4961-0.70312z" fill-rule="evenodd"/>
  <path d="m31.488 49.758c-0.57812-0.003906-1.1133 0.31641-1.3828 0.82813l-2.0078 3.5508v0.003906c-0.23438 0.35938-0.30859 0.80469-0.20312 1.2227 0.10156 0.41797 0.375 0.77734 0.75391 0.98828 0.375 0.21094 0.82422 0.25391 1.2344 0.125 0.41016-0.12891 0.75-0.42578 0.9375-0.81641l2.0078-3.5508c0.28125-0.48047 0.28516-1.0781 0.007813-1.5625-0.27344-0.48828-0.78906-0.78906-1.3477-0.79297z" fill-rule="evenodd"/>
 </g>
</svg>
