<?xml version="1.0" encoding="UTF-8"?>
<svg width="100pt" height="100pt" version="1.1" viewBox="0 0 100 100" xmlns="http://www.w3.org/2000/svg">
 <g>
  <path d="m75.02 31.309v-11.887c0-1.8516-1.5-3.3516-3.3516-3.3516h-50.887c-1.8516 0-3.3516 1.5-3.3516 3.3516v61.16c0 1.8516 1.5 3.3516 3.3516 3.3516h50.891c1.8516 0 3.3516-1.5 3.3516-3.3516l-0.003907-28.352 17.809-21.23-10.301-8.6406zm-3 49.27c0 0.19141-0.16016 0.35156-0.35156 0.35156h-50.887c-0.19141 0-0.35156-0.16016-0.35156-0.35156v-61.156c0-0.19141 0.16016-0.35156 0.35156-0.35156h50.891c0.19141 0 0.35156 0.16016 0.35156 0.35156v15.469l-10.945 13.031 10.301 8.6406 0.64062-0.76172z"/>
  <path d="m88.66 18.262c-0.87109-0.73047-2.1719-0.62109-2.8984 0.25l-1.8008 2.1484 10.301 8.6406 1.8008-2.1484c0.73047-0.87109 0.62109-2.1719-0.25-2.8984z"/>
  <path d="m60.398 50.238c-0.46094-0.39062-1.1406-0.32812-1.5312 0.12891l-2.2617 2.6992c-0.26953 0.32812-0.23047 0.80859 0.10156 1.0898 0.32812 0.26953 0.37109 0.76172 0.10156 1.0898l-1.7891 2.1289c-0.64844 0.76953-0.55078 1.9297 0.23047 2.5703 0.46094 0.39063 0.51953 1.0703 0.12891 1.5312l-1.4609 1.7383c-0.39062 0.46094-0.32812 1.1484 0.12891 1.5391l1.9805 1.6602c0.46094 0.39063 1.1484 0.32813 1.5391-0.12891l1.4609-1.7383c0.39062-0.46094 1.0703-0.51953 1.5312-0.12891 0.76953 0.64844 1.9297 0.55078 2.5703-0.23047l1.7891-2.1289c0.26953-0.32812 0.76172-0.37109 1.0898-0.10156 0.32813 0.26953 0.80859 0.23047 1.0898-0.10156l2.2617-2.6992c0.39062-0.46094 0.32812-1.1406-0.12891-1.5312z"/>
  <path d="m51.43 67.57c-0.53125 0.62891-0.44141 1.5586 0.17969 2.0898 0.62891 0.53125 1.5586 0.44141 2.0898-0.17969l1.3516-1.6094-2.2695-1.9102z"/>
  <path d="m39.922 43.699 4.3789-8.8711 4.3789 8.8711c0.21875 0.44141 0.64062 0.75 1.1289 0.82031l8.8789 1.2891c0.82031 0.12109 1.5781-0.44922 1.6992-1.2695 0.12109-0.82031-0.44922-1.5781-1.2695-1.6992l-8.1016-1.1797-5.3789-10.891c-0.25-0.51172-0.76953-0.83984-1.3516-0.83984-0.57812 0-1.0898 0.32031-1.3516 0.83984l-5.3789 10.891-12.02 1.75c-0.55859 0.078125-1.0312 0.48047-1.2109 1.0195-0.17969 0.53906-0.03125 1.1406 0.37891 1.5391l8.6992 8.4805-2.0508 11.969c-0.10156 0.55859 0.12891 1.1289 0.60156 1.4688 0.26172 0.19141 0.57031 0.28906 0.87891 0.28906 0.23828 0 0.48047-0.058593 0.69922-0.17188l10.559-5.5508 2.7109 2.2617c0.64062 0.53125 1.5781 0.44141 2.1094-0.19141 0.53125-0.64063 0.44141-1.5781-0.19141-2.1094l-3.4805-2.8984c-0.46875-0.39062-1.1211-0.46094-1.6602-0.17969l-8.7617 4.6016 1.6719-9.75c0.078125-0.48828-0.078125-0.98047-0.42969-1.3281l-7.0781-6.9102 9.7891-1.4219c0.5-0.078125 0.92969-0.38672 1.1523-0.82812z"/>
 </g>
</svg>
