<?xml version="1.0" encoding="UTF-8"?>
<svg width="100pt" height="100pt" version="1.1" viewBox="0 0 100 100" xmlns="http://www.w3.org/2000/svg">
 <g>
  <path d="m18.75 23.438h7.8125c0.86328 0 1.5625-0.69922 1.5625-1.5625s-0.69922-1.5625-1.5625-1.5625h-7.8125c-0.86328 0-1.5625 0.69922-1.5625 1.5625s0.69922 1.5625 1.5625 1.5625z"/>
  <path d="m32.812 23.438h4.6875c0.86328 0 1.5625-0.69922 1.5625-1.5625s-0.69922-1.5625-1.5625-1.5625h-4.6875c-0.86328 0-1.5625 0.69922-1.5625 1.5625s0.69922 1.5625 1.5625 1.5625z"/>
  <path d="m18.75 29.688h18.75c0.86328 0 1.5625-0.69922 1.5625-1.5625s-0.69922-1.5625-1.5625-1.5625h-18.75c-0.86328 0-1.5625 0.69922-1.5625 1.5625s0.69922 1.5625 1.5625 1.5625z"/>
  <path d="m18.75 35.938h7.8125c0.86328 0 1.5625-0.69922 1.5625-1.5625s-0.69922-1.5625-1.5625-1.5625h-7.8125c-0.86328 0-1.5625 0.69922-1.5625 1.5625s0.69922 1.5625 1.5625 1.5625z"/>
  <path d="m37.5 32.812h-4.6875c-0.86328 0-1.5625 0.69922-1.5625 1.5625s0.69922 1.5625 1.5625 1.5625h4.6875c0.86328 0 1.5625-0.69922 1.5625-1.5625s-0.69922-1.5625-1.5625-1.5625z"/>
  <path d="m18.75 42.188h18.75c0.86328 0 1.5625-0.69922 1.5625-1.5625s-0.69922-1.5625-1.5625-1.5625h-18.75c-0.86328 0-1.5625 0.69922-1.5625 1.5625s0.69922 1.5625 1.5625 1.5625z"/>
  <path d="m25 92.188c0.86328 0 1.5625-0.69922 1.5625-1.5625s-0.69922-1.5625-1.5625-1.5625h-12.5c-3.4453 0-6.25-2.8047-6.25-6.25h20.312c0 5.1719 4.2031 9.375 9.375 9.375s9.375-4.2031 9.375-9.375v-65.625c0-3.1797 2.3945-5.7812 5.4688-6.1719 3.0742 0.39062 5.4688 2.9922 5.4688 6.1719h-7.8125c-0.86328 0-1.5625 0.69922-1.5625 1.5625s0.69922 1.5625 1.5625 1.5625h9.375c0.86328 0 1.5625-0.69922 1.5625-1.5625v-1.5625c0-4.3008-2.9141-7.9219-6.8672-9.0234-0.26172-0.20703-0.58203-0.35156-0.94531-0.35156-0.26562 0-0.52344 0.019531-0.78125 0.039062-0.25781-0.019531-0.51562-0.039062-0.78125-0.039062h-28.125c-5.1719 0-9.375 4.2031-9.375 9.375v62.5h-7.8125c-0.86328 0-1.5625 0.69922-1.5625 1.5625v1.5625c0 5.1719 4.2031 9.375 9.375 9.375zm-9.375-75c0-3.4453 2.8047-6.25 6.25-6.25h22.719c-1.4922 1.6602-2.4062 3.8477-2.4062 6.25v65.625c0 3.4453-2.8047 6.25-6.25 6.25s-6.25-2.8047-6.25-6.25v-1.5625c0-0.86328-0.69922-1.5625-1.5625-1.5625h-12.5z"/>
  <path d="m78.266 14.062c0.74609 4.4258 4.5977 7.8125 9.2344 7.8125 5.1719 0 9.375-4.2031 9.375-9.375s-4.2031-9.375-9.375-9.375c-4.6367 0-8.4844 3.3867-9.2344 7.8125h-12.641c-0.86328 0-1.5625 0.69922-1.5625 1.5625v35.938h-14.062c-0.86328 0-1.5625 0.69922-1.5625 1.5625s0.69922 1.5625 1.5625 1.5625h14.062v35.938c0 0.86328 0.69922 1.5625 1.5625 1.5625h12.5v6.25c0 0.86328 0.69922 1.5625 1.5625 1.5625h15.625c0.86328 0 1.5625-0.69922 1.5625-1.5625v-15.625c0-0.86328-0.69922-1.5625-1.5625-1.5625h-15.625c-0.86328 0-1.5625 0.69922-1.5625 1.5625v6.25h-10.938v-21.875h11.766l7.3438 8.8125c0.30078 0.35547 0.73828 0.5625 1.2031 0.5625s0.90234-0.20703 1.2031-0.5625l7.8125-9.375c0.48438-0.57812 0.48438-1.4219 0-2l-7.8125-9.375c-0.59375-0.71094-1.8047-0.71094-2.4023 0l-7.3438 8.8125h-11.77v-23.438h10.938v1.5625c0 0.41406 0.16406 0.8125 0.45703 1.1055l4.6875 4.6875c0.29297 0.29297 0.69141 0.45703 1.1055 0.45703h6.25c0.41406 0 0.8125-0.16406 1.1055-0.45703l4.6875-4.6875c0.29297-0.29297 0.45703-0.69141 0.45703-1.1055v-6.25c0-0.41406-0.16406-0.8125-0.45703-1.1055l-4.6875-4.6875c-0.29297-0.29297-0.69141-0.45703-1.1055-0.45703h-6.25c-0.41406 0-0.8125 0.16406-1.1055 0.45703l-4.6875 4.6875c-0.29297 0.29297-0.45703 0.69141-0.45703 1.1055v1.5625h-10.938v-20.312zm9.2344-7.8125c3.4453 0 6.25 2.8047 6.25 6.25s-2.8047 6.25-6.25 6.25-6.25-2.8047-6.25-6.25 2.8047-6.25 6.25-6.25zm-6.25 75h12.5v12.5h-12.5zm6.25-25.684 5.7773 6.9336-5.7773 6.9336-5.7773-6.9336zm-6.25-22.105 3.7734-3.7734h4.957l3.7695 3.7734v4.957l-3.7734 3.7695h-4.957l-3.7695-3.7734z"/>
  <path d="m18.75 48.438h7.8125c0.86328 0 1.5625-0.69922 1.5625-1.5625s-0.69922-1.5625-1.5625-1.5625h-7.8125c-0.86328 0-1.5625 0.69922-1.5625 1.5625s0.69922 1.5625 1.5625 1.5625z"/>
  <path d="m37.5 45.312h-4.6875c-0.86328 0-1.5625 0.69922-1.5625 1.5625s0.69922 1.5625 1.5625 1.5625h4.6875c0.86328 0 1.5625-0.69922 1.5625-1.5625s-0.69922-1.5625-1.5625-1.5625z"/>
  <path d="m18.75 54.688h18.75c0.86328 0 1.5625-0.69922 1.5625-1.5625s-0.69922-1.5625-1.5625-1.5625h-18.75c-0.86328 0-1.5625 0.69922-1.5625 1.5625s0.69922 1.5625 1.5625 1.5625z"/>
  <path d="m18.75 60.938h7.8125c0.86328 0 1.5625-0.69922 1.5625-1.5625s-0.69922-1.5625-1.5625-1.5625h-7.8125c-0.86328 0-1.5625 0.69922-1.5625 1.5625s0.69922 1.5625 1.5625 1.5625z"/>
  <path d="m37.5 57.812h-4.6875c-0.86328 0-1.5625 0.69922-1.5625 1.5625s0.69922 1.5625 1.5625 1.5625h4.6875c0.86328 0 1.5625-0.69922 1.5625-1.5625s-0.69922-1.5625-1.5625-1.5625z"/>
  <path d="m18.75 67.188h7.8125c0.86328 0 1.5625-0.69922 1.5625-1.5625s-0.69922-1.5625-1.5625-1.5625h-7.8125c-0.86328 0-1.5625 0.69922-1.5625 1.5625s0.69922 1.5625 1.5625 1.5625z"/>
  <path d="m37.5 64.062h-4.6875c-0.86328 0-1.5625 0.69922-1.5625 1.5625s0.69922 1.5625 1.5625 1.5625h4.6875c0.86328 0 1.5625-0.69922 1.5625-1.5625s-0.69922-1.5625-1.5625-1.5625z"/>
  <path d="m39.062 71.875c0-0.86328-0.69922-1.5625-1.5625-1.5625h-18.75c-0.86328 0-1.5625 0.69922-1.5625 1.5625s0.69922 1.5625 1.5625 1.5625h18.75c0.86328 0 1.5625-0.69922 1.5625-1.5625z"/>
 </g>
</svg>
