<?xml version="1.0" encoding="UTF-8"?>
<svg width="100pt" height="100pt" version="1.1" viewBox="0 0 100 100" xmlns="http://www.w3.org/2000/svg">
 <g>
  <path d="m31.363 32.234 3.1211-7.8125 2.9023 1.1602-3.1211 7.8125z"/>
  <path d="m37.613 32.23 3.125-7.8125 2.9023 1.1602-3.125 7.8125z"/>
  <path d="m93.75 48.438c-0.55078 0-1.0703 0.11328-1.5625 0.28906v-0.28906c0-0.57031-0.16406-1.1016-0.43359-1.5625 0.26953-0.46094 0.43359-0.99219 0.43359-1.5625v-3.125c0-0.57031-0.16406-1.1016-0.43359-1.5625 0.26953-0.46094 0.43359-0.99219 0.43359-1.5625v-4.4336l6.4297-19.285-11.117-14.824-11.117 14.82 6.4297 19.289v4.4336c0 0.57031 0.16406 1.1016 0.43359 1.5625-0.26953 0.46094-0.43359 0.99219-0.43359 1.5625v3.125c0 0.57031 0.16406 1.1016 0.43359 1.5625-0.26953 0.46094-0.43359 0.99219-0.43359 1.5625v10.465l-5.3867 8.0781-0.86328-1.7227v-5.8828c0-6.0312-4.9062-10.938-10.938-10.938h-4.6875v-4.3203l0.96484-1.9297h5.2852c3.4453 0 6.25-2.8047 6.25-6.25v-10.938c0-12.922-10.516-23.438-23.438-23.438h-2.6172c-6.7227 0-13.367 1.0781-19.75 3.207l-1.8086 0.60156 6.1406 10.742c-0.33984 0.42188-0.65625 0.85938-0.95312 1.3242l-2.4062-0.51562-4.9844 16.621c-0.12109 0.39844-0.18359 0.8125-0.18359 1.2305 0 2.3672 1.9219 4.2891 4.2891 4.2891h1.7266c0.80078 1.9531 1.9297 3.7734 3.3633 5.3164v4.3398l-1.8086 0.36328c-8.0078 1.6016-13.82 8.6875-13.82 16.852v1.6797c-9.293 5.0195-15.625 14.852-15.625 26.137 0 1.1016 0.0625 2.2109 0.17969 3.2969l0.15625 1.3906h65.289v-17.637l1.4648 3.3008c1.3398 3.0117 4.3398 4.9609 7.6367 4.9609 2.5312 0 4.9453-1.1797 6.5234-3.1484v9.3984c0 1.7227 1.4023 3.125 3.125 3.125h3.125c1.7227 0 3.125-1.4023 3.125-3.125v-31.539c0.49219 0.17578 1.0117 0.28906 1.5625 0.28906 2.5859 0 4.6875-2.1016 4.6875-4.6875v-6.25c0-2.5859-2.1016-4.6875-4.6875-4.6875zm-7.8125-6.25h3.125v3.125h-3.125zm3.125-9.375v-15.625h5.6445l-5.207 15.625zm0 3.125v3.125h-3.125v-3.125zm-1.5625-30.207 6.25 8.332h-7.8125v18.75h-0.4375l-5.6367-16.906zm-14.062 53.645v5.5156l-6.25 5.207v-18.379c3.5625 0.72656 6.25 3.8828 6.25 7.6562zm-34.375-7.8125h15.625v1.5625c0 0.86328-0.70312 1.5625-1.5625 1.5625h-12.5c-0.85938 0-1.5625-0.69922-1.5625-1.5625zm-3.125-3.125v-3.125h21.875v3.125zm31.25-9.375h-3.7227l1.5625-3.125h5.2852c0 1.7227-1.4023 3.125-3.125 3.125zm3.125-14.062v1.5625h-3.1797c-0.082031-1.2344-0.28906-2.4336-0.625-3.582l3.5977-0.71875c0.12109 0.89453 0.20703 1.8086 0.20703 2.7383zm-4.9883-4.9688c-0.52344-1.0156-1.1445-1.9766-1.8594-2.8594l3.7109-2.9688c0.97266 1.543 1.7539 3.2188 2.2852 5zm1.7344 9.6562h3.2539v3.125h-3.9609c0.32813-1.0195 0.57813-2.0625 0.70703-3.125zm-1.75-17.996-4.0391 3.2305c-0.80859-0.6875-1.6875-1.2969-2.6172-1.8242l2.8828-4.8008c1.3945 0.96875 2.6602 2.1133 3.7734 3.3945zm-11.945-0.48438 1.0078-6.0352c1.5625 0.34375 3.0508 0.87891 4.457 1.5625l-3.0508 5.0859c-0.78516-0.26562-1.5898-0.46875-2.4141-0.61328zm-5.9805-6.5195h2.6172c0.42969 0 0.84766 0.039062 1.2695 0.0625l-1.0312 6.1875h-7.4492c-3.1562 0-6.125 1.0625-8.5234 2.9102l-3.8242-6.6914c5.5039-1.6406 11.191-2.4688 16.941-2.4688zm-20.82 30.086c0-0.11328 0.015625-0.22656 0.050781-0.33594l4.1562-13.859 15.195 3.2578c-0.40234 0.82812-0.65234 1.7461-0.65234 2.7266 0 1.7539 0.73047 3.3359 1.8984 4.4688l-1.0039 1.7578c-1.1133 1.9414-3.1914 3.1484-5.4297 3.1484h-13.055c-0.63672 0-1.1602-0.52344-1.1602-1.1641zm21.875-8.2109c0-1.7227 1.4023-3.125 3.125-3.125s3.125 1.4023 3.125 3.125-1.4023 3.125-3.125 3.125-3.125-1.4023-3.125-3.125zm-7.6602 12.5c3.3555 0 6.4766-1.8086 8.1406-4.7227l1.0117-1.7695c0.52344 0.14063 1.0625 0.24219 1.6328 0.24219 3.4453 0 6.25-2.8047 6.25-6.25s-2.8047-6.25-6.25-6.25c-1.1367 0-2.1914 0.32812-3.1094 0.85938l-14.125-3.0273c2.0352-2.5469 5.1094-4.082 8.4609-4.082h7.668c7.5039 0 13.605 6.1016 13.605 13.605 0 2.1016-0.49609 4.2031-1.4375 6.0859l-4.2148 8.4336h-23.336c-0.86328-0.94141-1.5977-1.9922-2.1836-3.125zm-9.1602 13.082 2.9141-0.58203h1.4062v1.5625c0 2.5859 2.1016 4.6875 4.6875 4.6875h12.5c2.5859 0 4.6875-2.1016 4.6875-4.6875v-1.5625h6.25v31.25h-5.2383c-2.1289-5.3477-5.7656-9.9258-10.387-13.223v-8.6523h-3.125v6.6758c-4.1875-2.2617-8.9766-3.5508-14.062-3.5508-0.52734 0-1.043 0.050781-1.5625 0.078125v-11.453c0.625-0.21875 1.2656-0.41016 1.9297-0.54297zm-11.305 13.789c0-4.7891 2.4531-9.1172 6.25-11.672v10.203c-2.1719 0.34766-4.2617 0.91406-6.25 1.707zm-9.375 27.816c0-11.199 9.1133-20.312 20.312-20.312s20.312 9.1133 20.312 20.312c0 0.51953-0.023438 1.043-0.0625 1.5625h-3.1406c0.046875-0.51953 0.078125-1.0391 0.078125-1.5625 0-9.4766-7.7109-17.188-17.188-17.188s-17.188 7.7109-17.188 17.188c0 0.52344 0.03125 1.043 0.078125 1.5625h-3.1406c-0.039062-0.51953-0.0625-1.043-0.0625-1.5625zm18.75 0c0-0.86328 0.70312-1.5625 1.5625-1.5625s1.5625 0.69922 1.5625 1.5625-0.70312 1.5625-1.5625 1.5625-1.5625-0.69922-1.5625-1.5625zm1.5625-4.6875c-2.5859 0-4.6875 2.1016-4.6875 4.6875 0 0.55078 0.11328 1.0703 0.28906 1.5625h-3.2383c-0.10547-0.51172-0.17578-1.0312-0.17578-1.5625 0-4.3086 3.5039-7.8125 7.8125-7.8125s7.8125 3.5039 7.8125 7.8125c0 0.53125-0.070312 1.0508-0.17188 1.5625h-3.2383c0.17188-0.49219 0.28516-1.0117 0.28516-1.5625 0-2.5859-2.1016-4.6875-4.6875-4.6875zm0-6.25c-6.0312 0-10.938 4.9062-10.938 10.938 0 0.52734 0.058594 1.0469 0.13281 1.5625h-3.1641c-0.058594-0.51953-0.09375-1.0391-0.09375-1.5625 0-7.7539 6.3086-14.062 14.062-14.062s14.062 6.3086 14.062 14.062c0 0.52344-0.035156 1.043-0.09375 1.5625h-3.1641c0.074218-0.51562 0.13281-1.0352 0.13281-1.5625 0-6.0312-4.9062-10.938-10.938-10.938zm26.516 12.5h-3.1367c0.039063-0.51953 0.058594-1.043 0.058594-1.5625 0-12.922-10.516-23.438-23.438-23.438s-23.438 10.516-23.438 23.438c0 0.51953 0.019531 1.043 0.054688 1.5625h-3.1328c-0.03125-0.51953-0.046875-1.043-0.046875-1.5625 0-14.648 11.914-26.562 26.562-26.562s26.562 11.914 26.562 26.562c0 0.51953-0.015625 1.043-0.046875 1.5625zm3.1328 0c0.023437-0.51953 0.039062-1.043 0.039062-1.5625 0-2.707-0.39453-5.3203-1.0781-7.8125h4.2031v9.375zm6.6328-21.43 6.9531-5.793 0.94531 1.8906-2.2305 3.3438c-1.4492 2.1758-2.3711 4.625-2.7227 7.1875zm12.945 9.9609c-0.98437 1.3125-2.5469 2.0938-4.1875 2.0938-1.0352 0-2.0195-0.30469-2.8516-0.84766v-2.2344c0-2.7852 0.81641-5.4844 2.3633-7.8008l7.0117-10.52v16.195zm8.5859 11.469h-3.125v-46.875h3.125zm6.25-35.938c0 0.86328-0.70312 1.5625-1.5625 1.5625s-1.5625-0.69922-1.5625-1.5625v-6.25c0-0.86328 0.70312-1.5625 1.5625-1.5625s1.5625 0.69922 1.5625 1.5625z"/>
 </g>
</svg>
