<?xml version="1.0" encoding="UTF-8"?>
<svg width="100pt" height="100pt" version="1.1" viewBox="0 0 100 100" xmlns="http://www.w3.org/2000/svg">
 <g>
  <path d="m95.312 56.293h-9.375v-3.2148h9.375l-0.046875-34.332-90.578 0.046875 0.042969 34.332 6.207-0.042969v3.2148h-6.25c-0.84766 0-1.6406-0.32812-2.2422-0.92969-0.59766-0.59766-0.92969-1.3945-0.92969-2.2422l0.003906-34.375c0-0.84766 0.32812-1.6445 0.92969-2.2422 0.59766-0.59766 1.3945-0.92969 2.2422-0.92969h90.625c0.84766 0 1.6406 0.32812 2.2383 0.92969 0.59766 0.59766 0.92969 1.3945 0.92969 2.2422v34.375c0 0.84766-0.33203 1.6445-0.92969 2.2422-0.60156 0.59766-1.3984 0.92578-2.2422 0.92578z"/>
  <path d="m35.938 53.082h28.125v3.2148h-28.125z"/>
  <path d="m65.668 68.75h-3.2148v-23.438c0-1.2617 0.49219-2.4492 1.3828-3.3438 0.89844-0.89453 2.0859-1.3867 3.3477-1.3867 1.2617 0 2.4492 0.49219 3.3438 1.3867 0.89453 0.89844 1.3867 2.0859 1.3867 3.3477v15.625h-3.2148v-15.625c0-0.40625-0.16016-0.78516-0.44531-1.0742-0.57031-0.57031-1.5703-0.57031-2.1484 0.003906-0.28516 0.28516-0.44141 0.66797-0.44141 1.0703z"/>
  <path d="m78.168 60.938h-3.2148v-5.5352c0-0.40625-0.16016-0.78516-0.44531-1.0742-0.57031-0.57031-1.5703-0.57031-2.1484 0.003906-0.28516 0.28516-0.44141 0.66797-0.44141 1.0742v5.5352h-3.2148v-5.5352c0-1.2617 0.49219-2.4492 1.3828-3.3438 0.89844-0.89453 2.0859-1.3867 3.3477-1.3867 1.2617 0 2.4492 0.49219 3.3438 1.3867 0.89453 0.89844 1.3867 2.0859 1.3867 3.3477z"/>
  <path d="m84.418 60.938h-3.2148v-5.5352c0-0.40625-0.16016-0.78516-0.44531-1.0742-0.57031-0.57031-1.5703-0.57031-2.1484 0.003906-0.28516 0.28516-0.44141 0.66797-0.44141 1.0742v5.5352h-3.2148v-5.5352c0-1.2617 0.49219-2.4492 1.3828-3.3438 0.89844-0.89453 2.0859-1.3867 3.3477-1.3867 1.2617 0 2.4492 0.49219 3.3438 1.3867 0.89453 0.89844 1.3867 2.0859 1.3867 3.3477z"/>
  <path d="m85.98 89.062h-3.2148v-4.9805l4.6875-12.5v-13.77c0-0.40625-0.16016-0.78516-0.44531-1.0742-0.57031-0.57031-1.5703-0.57422-2.1484 0.003907-0.28516 0.28516-0.44141 0.66797-0.44141 1.0742v3.125h-3.2148v-3.125c0-1.2617 0.49219-2.4492 1.3828-3.3438 0.89844-0.89453 2.0859-1.3867 3.3477-1.3867 1.2617 0 2.4492 0.49219 3.3438 1.3828 0.89453 0.89844 1.3867 2.0859 1.3867 3.3477v14.355l-4.6875 12.5z"/>
  <path d="m67.23 89.062h-3.2148v-4.0391c-1.7695-1.8828-7.8125-8.7422-7.8125-14.676v-6.2852c0-1.2617 0.49219-2.4492 1.3828-3.3438 0.89844-0.89453 2.0859-1.3867 3.3477-1.3867 1.2617 0 2.4492 0.49219 3.3438 1.3828 0.89453 0.89844 1.3867 2.0859 1.3867 3.3477h-3.2148c0-0.40625-0.16016-0.78516-0.44531-1.0742-0.57031-0.57031-1.5703-0.57422-2.1484 0.003907-0.28516 0.28516-0.44141 0.66797-0.44141 1.0742v6.2852c0 4.5391 5.3008 10.844 7.3438 12.891l0.46875 0.46875z"/>
  <path d="m87.543 100h-3.2148v-9.375l-18.703 0.042969 0.042969 9.332h-3.2148v-9.375c0-0.84375 0.32812-1.6406 0.92578-2.2383 0.60547-0.60156 1.4023-0.92969 2.2461-0.92969h18.75c0.84375 0 1.6406 0.32812 2.2383 0.92578 0.60156 0.60156 0.92969 1.3984 0.92969 2.2422z"/>
  <path d="m37.547 68.75h-3.2148v-20.312c0-0.40625-0.15625-0.78516-0.44531-1.0742-0.57031-0.57031-1.5703-0.57031-2.1484 0.003907-0.28516 0.28516-0.44141 0.66797-0.44141 1.0703v12.5h-3.2148v-12.5c0-1.2617 0.49219-2.4492 1.3867-3.3438 0.89844-0.89453 2.0859-1.3867 3.3477-1.3867 1.2617 0 2.4492 0.49219 3.3438 1.3867 0.89453 0.89844 1.3867 2.0859 1.3867 3.3477z"/>
  <path d="m31.297 60.938h-3.2148v-15.625c0-0.40625-0.15625-0.78516-0.44531-1.0742-0.57031-0.57031-1.5742-0.57031-2.1484 0.003907-0.28516 0.28516-0.44531 0.66797-0.44531 1.0742v15.625h-3.2148v-15.625c0-1.2617 0.49219-2.4492 1.3867-3.3438 0.89453-0.89453 2.082-1.3867 3.3477-1.3867 1.2617 0 2.4492 0.49219 3.3438 1.3867 0.89453 0.89844 1.3867 2.0859 1.3867 3.3477v15.617z"/>
  <path d="m25.047 60.938h-3.2148v-12.5c0-0.40625-0.15625-0.78516-0.44531-1.0742-0.57031-0.57031-1.5742-0.57031-2.1484 0-0.28516 0.28516-0.44531 0.66797-0.44531 1.0742v12.5h-3.2148v-12.5c0-1.2617 0.49219-2.4492 1.3867-3.3438 0.89453-0.89453 2.082-1.3867 3.3477-1.3867 1.2617 0 2.4492 0.49219 3.3438 1.3867s1.3867 2.0859 1.3867 3.3477v12.496z"/>
  <path d="m17.234 89.062h-3.2148v-4.3945l-4.6875-12.5v-20.605c0-1.2617 0.49219-2.4492 1.3867-3.3438s2.082-1.3867 3.3477-1.3867c1.2617 0 2.4492 0.49219 3.3438 1.3867 0.89453 0.89453 1.3867 2.0859 1.3867 3.3477v9.375h-3.2148v-9.375c0-0.40625-0.15625-0.78516-0.44531-1.0742-0.57031-0.57031-1.5742-0.57031-2.1484 0-0.28516 0.28516-0.44531 0.66797-0.44531 1.0742v20.02l4.6875 12.5v4.9766z"/>
  <path d="m35.984 89.062h-3.2148v-5.3516l0.46875-0.47266c2.043-2.0469 7.3438-8.3516 7.3438-12.891v-6.2852c0-0.40625-0.15625-0.78516-0.44531-1.0742-0.57031-0.57031-1.5703-0.57422-2.1484 0.003907-0.28516 0.28516-0.44141 0.66797-0.44141 1.0742h-3.2148c0-1.2617 0.49219-2.4492 1.3867-3.3438 0.89844-0.89453 2.0859-1.3867 3.3477-1.3867 1.2617 0 2.4492 0.49219 3.3438 1.3828 0.89453 0.89844 1.3867 2.0859 1.3867 3.3477v6.2852c0 5.9336-6.043 12.793-7.8125 14.676z"/>
  <path d="m37.547 100h-3.2148v-9.375l-18.707 0.042969 0.046875 9.332h-3.2148v-9.375c0-0.84375 0.32812-1.6406 0.92578-2.2383 0.60547-0.60156 1.3984-0.92969 2.2422-0.92969h18.75c0.84375 0 1.6367 0.32812 2.2383 0.92578 0.60156 0.60156 0.92969 1.3984 0.92969 2.2422v9.375z"/>
  <path d="m51.605 17.188h-3.2148v-3.125c0-0.40625-0.15625-0.78516-0.44531-1.0703-0.28906-0.28906-0.66797-0.44531-1.0742-0.44531l-9.3711-0.003906c-1.2617 0-2.4531-0.49219-3.3477-1.3867-0.89453-0.89453-1.3867-2.082-1.3867-3.3438 0-1.2656 0.49219-2.457 1.3867-3.3477 0.89062-0.89062 2.0781-1.3867 3.3438-1.3867h18.75c0.40625 0 0.78516-0.15625 1.0742-0.44531 0.28516-0.28516 0.44531-0.66797 0.44531-1.0742l0.003906-1.5586h3.2148v1.5625c0 1.2617-0.49219 2.4492-1.3867 3.3438-0.89453 0.89453-2.082 1.3867-3.3477 1.3867h-18.75c-0.40625 0-0.78516 0.15625-1.0742 0.44531-0.28906 0.28516-0.44531 0.66797-0.44531 1.0742s0.16016 0.78516 0.44531 1.0742c0.28906 0.28516 0.66797 0.44531 1.0742 0.44531h9.375c1.2617 0 2.4531 0.49219 3.3438 1.3867 0.89453 0.89062 1.3867 2.0781 1.3867 3.3477z"/>
  <path d="m10.938 21.832h3.125v3.2148h-3.125z"/>
  <path d="m17.188 21.832h3.125v3.2148h-3.125z"/>
  <path d="m23.438 21.832h3.125v3.2148h-3.125z"/>
  <path d="m29.688 21.832h3.125v3.2148h-3.125z"/>
  <path d="m35.938 21.832h3.125v3.2148h-3.125z"/>
  <path d="m42.188 21.832h3.125v3.2148h-3.125z"/>
  <path d="m48.438 21.832h3.125v3.2148h-3.125z"/>
  <path d="m54.688 21.832h3.125v3.2148h-3.125z"/>
  <path d="m60.938 21.832h3.125v3.2148h-3.125z"/>
  <path d="m67.188 21.832h3.125v3.2148h-3.125z"/>
  <path d="m73.438 21.832h3.125v3.2148h-3.125z"/>
  <path d="m79.688 21.832h3.125v3.2148h-3.125z"/>
  <path d="m85.938 21.832h3.125v3.2148h-3.125z"/>
  <path d="m7.8125 28.082h3.125v3.2148h-3.125z"/>
  <path d="m14.062 28.082h3.125v3.2148h-3.125z"/>
  <path d="m20.312 28.082h3.125v3.2148h-3.125z"/>
  <path d="m26.562 28.082h3.125v3.2148h-3.125z"/>
  <path d="m32.812 28.082h3.125v3.2148h-3.125z"/>
  <path d="m39.062 28.082h3.125v3.2148h-3.125z"/>
  <path d="m45.312 28.082h3.125v3.2148h-3.125z"/>
  <path d="m51.562 28.082h3.125v3.2148h-3.125z"/>
  <path d="m57.812 28.082h3.125v3.2148h-3.125z"/>
  <path d="m64.062 28.082h3.125v3.2148h-3.125z"/>
  <path d="m70.312 28.082h3.125v3.2148h-3.125z"/>
  <path d="m76.562 28.082h3.125v3.2148h-3.125z"/>
  <path d="m82.812 28.082h3.125v3.2148h-3.125z"/>
  <path d="m89.062 28.082h3.125v3.2148h-3.125z"/>
  <path d="m10.938 34.332h3.125v3.2148h-3.125z"/>
  <path d="m17.188 34.332h3.125v3.2148h-3.125z"/>
  <path d="m23.438 34.332h3.125v3.2148h-3.125z"/>
  <path d="m29.688 34.332h3.125v3.2148h-3.125z"/>
  <path d="m35.938 34.332h3.125v3.2148h-3.125z"/>
  <path d="m42.188 34.332h3.125v3.2148h-3.125z"/>
  <path d="m48.438 34.332h3.125v3.2148h-3.125z"/>
  <path d="m54.688 34.332h3.125v3.2148h-3.125z"/>
  <path d="m60.938 34.332h3.125v3.2148h-3.125z"/>
  <path d="m67.188 34.332h3.125v3.2148h-3.125z"/>
  <path d="m73.438 34.332h3.125v3.2148h-3.125z"/>
  <path d="m79.688 34.332h3.125v3.2148h-3.125z"/>
  <path d="m85.938 34.332h3.125v3.2148h-3.125z"/>
  <path d="m7.8125 40.582h3.125v3.2148h-3.125z"/>
  <path d="m14.062 40.582h3.125v3.2148h-3.125z"/>
  <path d="m39.062 40.582h3.125v3.2148h-3.125z"/>
  <path d="m45.312 40.582h3.125v3.2148h-3.125z"/>
  <path d="m51.562 40.582h3.125v3.2148h-3.125z"/>
  <path d="m57.812 40.582h3.125v3.2148h-3.125z"/>
  <path d="m82.812 40.582h3.125v3.2148h-3.125z"/>
  <path d="m76.562 40.582h3.125v3.2148h-3.125z"/>
  <path d="m89.062 40.582h3.125v3.2148h-3.125z"/>
  <path d="m42.188 46.832h15.625v3.2148h-15.625z"/>
 </g>
</svg>
