<?xml version="1.0" encoding="UTF-8"?>
<svg width="100pt" height="100pt" version="1.1" viewBox="0 0 100 100" xmlns="http://www.w3.org/2000/svg">
 <path d="m92.188 36.328c4.3086 0 7.8125-3.5039 7.8125-7.8125s-3.5039-7.8125-7.8125-7.8125c-3.6328 0-6.6953 2.4922-7.5664 5.8594h-26.809v-3.9062c0-1.0781-0.875-1.9531-1.9531-1.9531h-11.719c-1.0781 0-1.9531 0.875-1.9531 1.9531v3.9062h-26.809c-0.87109-3.3672-3.9297-5.8594-7.5664-5.8594-4.3086 0-7.8125 3.5039-7.8125 7.8125s3.5039 7.8125 7.8125 7.8125c3.6328 0 6.6953-2.4961 7.5664-5.8594h16.602c-13.844 6.2188-23.695 18.871-25.719 33.203h-4.3086c-1.0781 0-1.9531 0.875-1.9531 1.9531v11.719c0 1.0781 0.875 1.9531 1.9531 1.9531h11.719c1.0781 0 1.9531-0.875 1.9531-1.9531v-11.719c0-1.0781-0.875-1.9531-1.9531-1.9531h-3.4609c2.4805-15.945 15.469-29.109 31.977-32.422v3.125c0 1.0781 0.875 1.9531 1.9531 1.9531h11.719c1.0781 0 1.9531-0.875 1.9531-1.9531v-3.125c16.508 3.3086 29.496 16.477 31.977 32.422h-3.4609c-1.0781 0-1.9531 0.875-1.9531 1.9531v11.719c0 1.0781 0.875 1.9531 1.9531 1.9531h11.719c1.0781 0 1.9531-0.875 1.9531-1.9531v-11.719c0-1.0781-0.875-1.9531-1.9531-1.9531h-4.3086c-2.0234-14.328-11.871-26.98-25.719-33.203h16.602c0.87109 3.3672 3.9297 5.8594 7.5664 5.8594zm0-11.719c2.1523 0 3.9062 1.7539 3.9062 3.9062s-1.7539 3.9062-3.9062 3.9062-3.9062-1.7539-3.9062-3.9062 1.7539-3.9062 3.9062-3.9062zm-84.375 7.8125c-2.1523 0-3.9062-1.7539-3.9062-3.9062s1.7539-3.9062 3.9062-3.9062 3.9062 1.7539 3.9062 3.9062-1.7539 3.9062-3.9062 3.9062zm3.9062 35.156v7.8125h-7.8125v-7.8125zm42.188-35.156h-7.8125v-7.8125h7.8125zm42.188 35.156v7.8125h-7.8125v-7.8125z"/>
</svg>
