<?xml version="1.0" encoding="UTF-8"?>
<svg width="100pt" height="100pt" version="1.1" viewBox="0 0 100 100" xmlns="http://www.w3.org/2000/svg">
 <g>
  <path d="m32.758 63.074c0.56641 0.28906 1.1797 0.42969 1.7891 0.42969 0.82031 0 1.6289-0.25 2.3164-0.75l25.445-18.398c1.0234-0.74219 1.6328-1.9297 1.6328-3.1953 0-1.2695-0.60938-2.4531-1.6328-3.1992l-25.445-18.398c-1.2031-0.86328-2.7891-0.99219-4.1055-0.31641-1.3203 0.67188-2.1523 2.0312-2.1523 3.5117v36.797c0 1.4883 0.83203 2.8398 2.1523 3.5195z"/>
  <path d="m89.586 67.137h-27.133c-1.7734-3.2344-5.1719-5.4609-9.1133-5.4609s-7.3398 2.2266-9.1133 5.4609h-32.965c-2.7422 0-4.9648 2.2227-4.9648 4.9688 0 2.7422 2.2227 4.9648 4.9648 4.9648h32.965c1.7734 3.2344 5.1719 5.4648 9.1133 5.4648 3.9453 0 7.3438-2.2266 9.1133-5.4648h27.133c2.7422 0 4.9648-2.2227 4.9648-4.9648 0-2.7461-2.2227-4.9688-4.9648-4.9688zm-36.246 11.422c-3.5586 0-6.4531-2.8984-6.4531-6.457 0-3.5625 2.8945-6.457 6.4531-6.457 3.5625 0 6.457 2.8945 6.457 6.457-0.003906 3.5586-2.8984 6.457-6.457 6.457z"/>
 </g>
</svg>
