<?xml version="1.0" encoding="UTF-8"?>
<svg width="100pt" height="100pt" version="1.1" viewBox="0 0 100 100" xmlns="http://www.w3.org/2000/svg">
 <g>
  <path d="m97.121 24.547c0-0.15234 0-0.30469-0.15234-0.45312 0-0.15234-0.15234-0.15234-0.15234-0.30469l-19.09-21.82c-0.30078-0.30078-0.60547-0.45312-0.91016-0.45312h-72.727-0.15234-0.15234-0.15234s-0.15234 0-0.15234 0.15234l-0.30469 0.30469s0 0.15234-0.15234 0.15234v0.15234 0.15234 0.15234 72.727c0 0.30469 0.15234 0.60547 0.30469 0.75781 0.46094 0.75 19.098 22.418 19.855 22.418h72.727c0.15234 0 0.30469 0 0.45312-0.15234 0 0 0.15234 0 0.15234-0.15234 0 0 0.15234 0 0.15234-0.15234 0 0 0.15234-0.15234 0.15234-0.15234l0.15234-0.15234v-0.15234-0.30469l-0.003906-72.719zm-3.6367-1.0625h-69.695l-17.273-19.695h69.695zm-88.332-17.727 1.9688 2.2734 14.848 16.969v69.395l-16.816-19.395zm19.09 70.758h1.0625c0.60547 0 1.2109-0.45312 1.2109-1.2109 0-0.60547-0.45312-1.2109-1.2109-1.2109l-1.0625-0.003906v-48.332h51.516v1.3633c0 0.60547 0.45313 1.2109 1.2109 1.2109 0.60547 0 1.2109-0.45312 1.2109-1.2109l0.003906-1.3633h16.816v69.395c-0.60547 0.15234-1.0625 0.60547-0.91016 1.0625l-69.848-0.003906z"/>
  <path d="m38.184 70c0.15234 0.15234 0.15234 0.15234 0.30469 0.30469h0.15234c0.15234 0 0.30469 0.15234 0.45312 0.15234 31.516 0 30.758 0.45312 30.758-1.2109l-0.003906-29.551v-0.30469c0-0.15234-0.15234-0.15234-0.15234-0.30469l-7.7266-8.9375c-0.15234-0.30469-0.45312-0.45313-0.91016-0.45313h-29.695-0.30469-0.15234c-0.15234 0.15234-0.15234 0.15234-0.30469 0.15234-0.15234 0.15234-0.15234 0.15234-0.15234 0.30469 0 0 0 0.15234-0.15234 0.15234v0.30469 29.547c0 0.30469 0.15234 0.60547 0.30469 0.75781zm-5.7578-36.211c3.332 3.7891 2.1211 2.5742 5.4531 6.3633v26.211l-5.4531-6.3633zm35.148 34.395h-27.273v-27.273h27.273zm-1.3633-29.699h-26.664l-5.7578-6.668h26.516z"/>
  <path d="m55.605 74.242h-3.0312c-0.60547 0-1.2109 0.45312-1.2109 1.2109 0 0.60547 0.45312 1.2109 1.2109 1.2109h3.0312c0.60547 0 1.2109-0.45312 1.2109-1.2109 0-0.60547-0.60547-1.2109-1.2109-1.2109z"/>
  <path d="m48.031 74.242h-3.0312c-0.60547 0-1.2109 0.45312-1.2109 1.2109 0 0.60547 0.45313 1.2109 1.2109 1.2109h3.0312c0.60547 0 1.2109-0.45312 1.2109-1.2109 0-0.60547-0.60547-1.2109-1.2109-1.2109z"/>
  <path d="m32.879 74.242h-3.0312c-0.60547 0-1.2109 0.45312-1.2109 1.2109 0 0.60547 0.45312 1.2109 1.2109 1.2109h3.0312c0.60547 0 1.2109-0.45312 1.2109-1.2109-0.15234-0.60547-0.60547-1.2109-1.2109-1.2109z"/>
  <path d="m40.453 74.242h-3.0312c-0.60547 0-1.2109 0.45312-1.2109 1.2109 0 0.60547 0.45312 1.2109 1.2109 1.2109h3.0312c0.60547 0 1.2109-0.45312 1.2109-1.2109 0.003907-0.60547-0.60156-1.2109-1.2109-1.2109z"/>
  <path d="m63.184 74.242h-3.0312c-0.60547 0-1.2109 0.45312-1.2109 1.2109 0 0.60547 0.45312 1.2109 1.2109 1.2109h3.0312c1.5117-0.14844 1.5117-2.4219 0-2.4219z"/>
  <path d="m67.727 74.242c-1.5156 0-1.5156 2.2734 0 2.2734 2.4258 0 4.2422 0.45312 4.2422-1.2109 0-1.3672-1.8164-1.0625-4.2422-1.0625z"/>
  <path d="m80.152 77.574c-1.0625-1.0625-2.7266 0.30469-1.668 1.5156l2.1211 2.4258c0.91016 1.0625 2.7266-0.30469 1.668-1.5156z"/>
  <path d="m76.816 38.484c-0.60547 0-1.2109 0.45312-1.2109 1.2109v3.1836c0 0.60547 0.45312 1.2109 1.2109 1.2109 0.60547 0 1.2109-0.45312 1.2109-1.2109v-3.1836c0.003906-0.60547-0.60156-1.2109-1.2109-1.2109z"/>
  <path d="m76.816 30.605c-0.60547 0-1.2109 0.45312-1.2109 1.2109v3.0312c0 0.60547 0.45312 1.2109 1.2109 1.2109 0.60547 0 1.2109-0.45312 1.2109-1.2109l0.003906-3.0312c0-0.75391-0.60547-1.2109-1.2148-1.2109z"/>
  <path d="m90.605 89.547c-1.0625-1.0625-2.7266 0.30469-1.668 1.5156l2.1211 2.4258c0.45312 0.45312 1.0625 0.45312 1.668 0.15234 0.45313-0.45312 0.45313-1.0625 0.15234-1.668z"/>
  <path d="m85.453 83.484c-1.0625-1.0625-2.7266 0.30469-1.668 1.5156l2.1211 2.4258c1.0625 1.0625 2.7266-0.30469 1.668-1.5156z"/>
  <path d="m76.816 46.516c-0.60547 0-1.2109 0.45312-1.2109 1.2109v3.1836c0 0.60547 0.45312 1.2109 1.2109 1.2109 0.60547 0 1.2109-0.45312 1.2109-1.2109v-3.1836c0.003906-0.75781-0.60156-1.2109-1.2109-1.2109z"/>
  <path d="m76.816 62.273c-0.60547 0-1.2109 0.45312-1.2109 1.2109v3.1836c0 0.60547 0.45312 1.2109 1.2109 1.2109 0.60547 0 1.2109-0.45312 1.2109-1.2109v-3.1836c0.003906-0.75781-0.60156-1.2109-1.2109-1.2109z"/>
  <path d="m76.816 70.152c-1.5156 0-1.2109 1.8164-1.2109 4.0898h-0.45312c-0.60547 0-1.2109 0.45312-1.2109 1.2109 0 1.3633 1.3633 1.2109 2.7266 1.2109 0.75781 0 1.3633-0.75781 1.0625-1.668 0.15234-0.30469 0.15234-3.1836 0.15234-3.6367 0.14844-0.60156-0.45703-1.207-1.0664-1.207z"/>
  <path d="m76.816 54.395c-0.60547 0-1.2109 0.45312-1.2109 1.2109v3.1836c0 0.60547 0.45312 1.2109 1.2109 1.2109 0.60547 0 1.2109-0.45312 1.2109-1.2109v-3.1836c0.003906-0.75781-0.60156-1.2109-1.2109-1.2109z"/>
 </g>
</svg>
