<?xml version="1.0" encoding="UTF-8"?>
<svg width="100pt" height="100pt" version="1.1" viewBox="0 0 100 100" xmlns="http://www.w3.org/2000/svg">
 <g>
  <path d="m49.461 22.344c0 4.4531-3.6094 8.0625-8.0625 8.0625-4.4531 0-8.0625-3.6094-8.0625-8.0625s3.6094-8.0625 8.0625-8.0625c4.4531 0 8.0625 3.6094 8.0625 8.0625"/>
  <path d="m40.738 43.391h25.723c1.832 0 3.332-1.5 3.332-3.332 0-1.832-1.5-3.332-3.332-3.332h-24.211c-0.12891-2.0195-1.5039-3.8359-3.5586-4.3906-2.5781-0.69531-5.2539 0.84766-5.9453 3.4219l-14.262 52.934c-0.69531 2.5781 0.84766 5.2539 3.4219 5.9453 2.5781 0.69531 5.2539-0.84766 5.9453-3.4219l3.9414-14.637 3.8945 14.645c0.6875 2.5781 3.3555 4.1289 5.9375 3.4414 2.5781-0.6875 4.1289-3.3555 3.4414-5.9375l-8.2188-30.906z"/>
  <path d="m84.348 6.5547v0.30469c0 0.73438-0.60156 1.332-1.3359 1.332l-45.746-0.050781c-0.73438 0-1.332-0.60156-1.332-1.3359v-0.30469c0-0.73438 0.60156-1.332 1.3359-1.332l45.746 0.050781c0.73438 0.003906 1.332 0.60156 1.332 1.3359z"/>
  <path d="m78.188 24.422v-17.629h-1.1133v18.25c0.34375-0.35547 0.72266-0.55859 1.1133-0.62109z"/>
  <path d="m32.406 22.344c0-3.2461 1.7266-6.0859 4.3086-7.6641l2.0586-7.6367c0.21484-0.78906-0.25781-1.6094-1.0469-1.8203-0.78906-0.21484-1.6094 0.25781-1.8203 1.0469l-15.715 58.262c-0.21484 0.78906 0.25781 1.6094 1.0469 1.8203 0.78906 0.21484 1.6094-0.25781 1.8203-1.0469l10.43-38.676c-0.6875-1.2734-1.082-2.7344-1.082-4.2852z"/>
  <path d="m88.551 30.629l-0.86719-8.1445c-0.20703-1.9492-1.3594-4.9688-4.3047-4.9688l-0.007812 0.003906h-10.375c-2.5273 0-4.0977 3.0156-4.3047 4.9688l-0.86719 8.1445c-0.089844 0.82813 0.40234 1.5703 1.082 1.7383l0.6875 0.17188c0.67969 0.16797 1.4609-0.25781 1.7695-1.0312l1.6562-4.1602c0.37891-0.94531 1.293-1.5664 2.3125-1.5664h5.7109c1.0195 0 1.9336 0.62109 2.3125 1.5664l1.6562 4.1602c0.30859 0.77344 1.0898 1.1992 1.7695 1.0312l0.6875-0.17188c0.67969-0.17188 1.1719-0.91406 1.082-1.7422zm-6.3828-10.133c0-0.20312 0.16406-0.36719 0.36719-0.36719h0.53906c0.20312 0 0.36719 0.16406 0.36719 0.36719v0.58984c0 0.058593-0.023437 0.11719-0.066406 0.16406l-0.26172 0.26172c-0.16797 0.16797-0.44141 0.16797-0.60938 0l-0.26172-0.26172c-0.046876-0.046875-0.066407-0.10547-0.066407-0.16406l-0.003906-0.58984zm-11.16-0.089844c0-0.53516 0.43359-0.96484 0.96484-0.96484 0.53516 0 0.96484 0.43359 0.96484 0.96484 0 0.53516-0.43359 0.96484-0.96484 0.96484-0.53516 0-0.96484-0.43359-0.96484-0.96484zm2.9688 4.168c-0.82812 0-1.5039-0.67188-1.5039-1.5039 0-0.82812 0.67188-1.5039 1.5039-1.5039 0.82813 0 1.5039 0.67188 1.5039 1.5039-0.003907 0.83203-0.67578 1.5039-1.5039 1.5039zm7.8242-1.8477h-0.58984c-0.20313 0-0.36719-0.16406-0.36719-0.36719v-0.53906c0-0.20312 0.16406-0.36719 0.36719-0.36719h0.58984c0.058594 0 0.11719 0.023437 0.16406 0.066406l0.26172 0.26172c0.16797 0.16797 0.16797 0.44141 0 0.60938l-0.26172 0.26172c-0.046875 0.050781-0.10547 0.074218-0.16406 0.074218zm1.6406 0.92969c0 0.20312-0.16406 0.36719-0.36719 0.36719h-0.53906c-0.20312 0-0.36719-0.16406-0.36719-0.36719v-0.58984c0-0.058594 0.023437-0.11719 0.066406-0.16406l0.26172-0.26172c0.16797-0.16797 0.44141-0.16797 0.60938 0l0.26172 0.26172c0.046874 0.046875 0.066406 0.10547 0.066406 0.16406zm1.293-1.293c0 0.20312-0.16406 0.36719-0.36719 0.36719h-0.58984c-0.058594 0-0.11719-0.023438-0.16406-0.066407l-0.26172-0.26172c-0.16797-0.16797-0.16797-0.44141 0-0.60938l0.26172-0.26172c0.046875-0.046875 0.10547-0.066406 0.16406-0.066406h0.58984c0.20312 0 0.36719 0.16406 0.36719 0.36719z"/>
 </g>
</svg>
