<?xml version="1.0" encoding="UTF-8"?>
<svg width="100pt" height="100pt" version="1.1" viewBox="0 0 100 100" xmlns="http://www.w3.org/2000/svg">
 <g>
  <path d="m67.301 30c-7.1016 0-13.699 3.8984-17.301 9.8984-3.5-6-10.102-9.8984-17.301-9.8984-11 0-20 9-20 20s9 20 20 20c7.1016 0 13.699-3.8984 17.301-9.8984 3.5 6 10.102 9.8984 17.301 9.8984 11 0 20-9 20-20s-9-20-20-20zm0 37c-7 0-13.398-4.3984-15.898-10.898l-1.4023-3.6016-1.3984 3.6016c-2.5 6.5-8.9023 10.898-15.902 10.898-9.3984 0-17-7.6016-17-17s7.6016-17 17-17c7 0 13.398 4.3984 15.898 10.898l1.3984 3.6016 1.3984-3.6016c2.5039-6.5 8.9062-10.898 15.906-10.898 9.3984 0 17 7.6016 17 17s-7.6992 17-17 17z"/>
  <path d="m32.699 36.102c-3.5 0-6.3008 2.8008-6.3008 6.3008s2.8008 6.3008 6.3008 6.3008 6.3008-2.8008 6.3008-6.3008c0-3.5039-2.8008-6.3008-6.3008-6.3008zm3.1016 5.5977c-0.80078 0-1.5-0.69922-1.5-1.5s0.69922-1.5 1.5-1.5 1.5 0.69922 1.5 1.5-0.60156 1.5-1.5 1.5z"/>
  <path d="m67.301 36.102c-3.5 0-6.3008 2.8008-6.3008 6.3008s2.8008 6.3008 6.3008 6.3008 6.3008-2.8008 6.3008-6.3008c0-3.5039-2.9023-6.3008-6.3008-6.3008zm3.0977 5.5977c-0.80078 0-1.5-0.69922-1.5-1.5s0.69922-1.5 1.5-1.5c0.80078 0 1.5 0.69922 1.5 1.5s-0.69922 1.5-1.5 1.5z"/>
 </g>
</svg>
