<?xml version="1.0" encoding="UTF-8"?>
<svg width="100pt" height="100pt" version="1.1" viewBox="0 0 100 100" xmlns="http://www.w3.org/2000/svg">
 <g>
  <path d="m87.742 11.719h-75.484c-4.0312 0-7.375 3.3125-7.375 7.5v61.562c0 4.1875 3.3438 7.5 7.375 7.5h75.484c4.0273 0 7.375-3.3125 7.375-7.5v-50.086-0.015624-0.015626-11.445c0-4.1875-3.3477-7.5-7.375-7.5zm-75.484 3.125h75.484c2.3047 0 4.25 1.9141 4.25 4.375v9.8828h-83.984v-9.8828c0-2.4609 1.9414-4.375 4.25-4.375zm75.484 70.312h-75.484c-2.3086 0-4.25-1.9141-4.25-4.375v-48.555h83.984v48.555c0 2.4609-1.9453 4.375-4.25 4.375z"/>
  <path d="m27.582 27.812c2.9727 0 5.3945-2.5039 5.3945-5.582s-2.418-5.582-5.3945-5.582c-2.9727 0.003906-5.3945 2.5078-5.3945 5.5859 0 3.0742 2.4219 5.5781 5.3945 5.5781zm0-8.0391c1.25 0 2.2695 1.1016 2.2695 2.457s-1.0156 2.457-2.2695 2.457c-1.25 0-2.2695-1.1016-2.2695-2.4531 0-1.3555 1.0195-2.457 2.2695-2.457z"/>
  <path d="m40.031 27.812c2.9727 0 5.3945-2.5039 5.3945-5.582s-2.418-5.582-5.3945-5.582c-2.9727 0.003906-5.3906 2.5078-5.3906 5.5859 0 3.0742 2.418 5.5781 5.3906 5.5781zm0-8.0391c1.25 0 2.2695 1.1016 2.2695 2.457s-1.0195 2.457-2.2695 2.457-2.2695-1.1016-2.2695-2.457c0.003906-1.3516 1.0195-2.4531 2.2695-2.4531z"/>
  <path d="m15.133 27.812c2.9727 0 5.3945-2.5039 5.3945-5.582-0.003906-3.0742-2.4219-5.5781-5.3945-5.5781-2.9766 0-5.3945 2.5039-5.3945 5.582 0 3.0742 2.418 5.5781 5.3945 5.5781zm0-8.0391c1.25 0 2.2695 1.1016 2.2695 2.457s-1.0156 2.457-2.2695 2.457c-1.25 0-2.2695-1.1016-2.2695-2.457 0-1.3516 1.0156-2.4531 2.2695-2.4531z"/>
  <path d="m58.086 48.926-29.48 9.7227c-0.51562 0.16797-0.90625 0.59375-1.0312 1.1211-0.125 0.52734 0.03125 1.082 0.41406 1.4648l5.4766 5.4766-6.1953 6.2422v0.003906c-0.60547 0.60938-0.60156 1.5977 0.003907 2.2031l6.5508 6.5508c0.60547 0.60547 1.5938 0.60937 2.2031 0.003906l6.2422-6.1953 5.4805 5.4766c0.38281 0.38281 0.9375 0.53906 1.4648 0.41406s0.95312-0.51562 1.1211-1.0312l9.7227-29.48c0.18359-0.55859 0.039062-1.1758-0.37891-1.5938-0.41797-0.41406-1.0352-0.5625-1.5938-0.37891zm-9.9219 28.066-4.7812-4.7852c-0.60937-0.60938-1.5977-0.60938-2.207-0.003906l-6.2422 6.1953-4.3477-4.3477 6.1953-6.2422c0.60547-0.60938 0.60547-1.5977-0.003906-2.207l-4.7852-4.7812 24.125-7.9531z"/>
  <path d="m63.348 47.199c0.41406 0 0.8125-0.16406 1.1055-0.45703l3.543-3.543v-0.003907c0.61328-0.60937 0.61328-1.5977 0-2.2109-0.60938-0.60938-1.5977-0.60938-2.207 0l-3.5469 3.5469c-0.44531 0.44531-0.57813 1.1172-0.33594 1.7031 0.24219 0.58203 0.80859 0.96484 1.4414 0.96484z"/>
  <path d="m64.453 60.266c-0.60938-0.60938-1.5977-0.60938-2.2109 0-0.60938 0.60938-0.60938 1.6016 0 2.2109l3.543 3.543h0.003906c0.60938 0.60938 1.5977 0.60938 2.207 0 0.61328-0.60938 0.61328-1.5977 0.003906-2.207z"/>
  <path d="m46.508 46.742c0.61328 0.60156 1.5977 0.59766 2.2031-0.007813 0.60937-0.60938 0.61328-1.5938 0.007812-2.2031l-3.5469-3.5469c-0.60938-0.60938-1.5977-0.60938-2.207 0-0.60938 0.61328-0.60938 1.6016 0 2.2109z"/>
  <path d="m55.469 43.941c0.41406 0 0.8125-0.16797 1.1055-0.46094s0.45703-0.6875 0.45703-1.1016v-5.0156c0-0.86328-0.69922-1.5625-1.5625-1.5625s-1.5625 0.69922-1.5625 1.5625v5.0117c0 0.41797 0.16406 0.8125 0.45703 1.1055s0.69141 0.46094 1.1055 0.46094z"/>
  <path d="m71.621 51.953h-5.0156c-0.86328 0-1.5625 0.69922-1.5625 1.5625s0.69922 1.5625 1.5625 1.5625h5.0156c0.86328 0 1.5625-0.69922 1.5625-1.5625s-0.69922-1.5625-1.5625-1.5625z"/>
 </g>
</svg>
