<?xml version="1.0" encoding="UTF-8"?>
<svg width="100pt" height="100pt" version="1.1" viewBox="0 0 100 100" xmlns="http://www.w3.org/2000/svg">
 <g>
  <path d="m83.5 11.5h-67c-7.457 0-13.5 6.043-13.5 13.5v50c0 7.457 6.043 13.5 13.5 13.5h67c3.582 0 7.0156-1.4219 9.5469-3.9531s3.9531-5.9648 3.9531-9.5469v-50c0-3.582-1.4219-7.0156-3.9531-9.5469s-5.9648-3.9531-9.5469-3.9531zm6.5 63.5c0 3.5898-2.9102 6.5-6.5 6.5h-67c-3.5898 0-6.5-2.9102-6.5-6.5v-34.5h80zm0-41.5h-80v-8.5c0-3.5898 2.9102-6.5 6.5-6.5h67c3.5898 0 6.5 2.9102 6.5 6.5z"/>
  <path d="m36.5 26c0 6.668-10 6.668-10 0s10-6.668 10 0"/>
  <path d="m49.5 26c0 6.668-10 6.668-10 0s10-6.668 10 0"/>
  <path d="m23.5 26c0 6.668-10 6.668-10 0s10-6.668 10 0"/>
  <path d="m49.398 68.199 7.5 8.9023 6.1016-5.1016-7.5-8.8984 10.398-3.7031-31.797-15.898 9.7969 34.102z"/>
 </g>
</svg>
