<?xml version="1.0" encoding="UTF-8"?>
<svg width="100pt" height="100pt" version="1.1" viewBox="0 0 100 100" xmlns="http://www.w3.org/2000/svg">
 <g>
  <path d="m88.75 3.75h-77.5c-4.1406 0.003906-7.4961 3.3594-7.5 7.5v35c0 1.3789 1.1211 2.5 2.5 2.5s2.5-1.1211 2.5-2.5v-35c0-1.3789 1.1211-2.5 2.5-2.5h77.5c0.66406 0 1.3008 0.26172 1.7695 0.73047s0.73047 1.1055 0.73047 1.7695v35c0 1.3789 1.1211 2.5 2.5 2.5s2.5-1.1211 2.5-2.5v-35c-0.003906-4.1406-3.3594-7.4961-7.5-7.5z"/>
  <path d="m70 24.918c-1.1758-1.5508-3.0156-2.457-4.9609-2.4492h-0.039062c-1.9609 0.007812-3.8047 0.9375-4.9688 2.5156l-19.531 26.219-11.457-8.7617c-2.4219-1.8633-5.8359-1.6953-8.0625 0.39453l-15.246 14.223c-1.2617 1.1836-1.9805 2.8359-1.9844 4.5664v9.625c0 1.3789 1.1211 2.5 2.5 2.5s2.5-1.1211 2.5-2.5v-9.625c0-0.34766 0.14453-0.67578 0.39453-0.91406l15.242-14.223c0.44922-0.41406 1.1289-0.44531 1.6133-0.074219l19.102 14.605c1.0977 0.83984 2.668 0.62891 3.5078-0.46875 0.83594-1.0938 0.62891-2.6641-0.46875-3.5039l-3.6719-2.8086 19.57-26.266c0.23047-0.32031 0.60547-0.50781 1-0.5 0.39063-0.003906 0.75781 0.17969 0.99219 0.48828l24.961 32.551c0.16797 0.21875 0.25781 0.48438 0.25781 0.75781v28.73c0 0.33203-0.13281 0.64844-0.36719 0.88281-0.23437 0.23438-0.55078 0.36719-0.88281 0.36719h-10c-1.3789 0-2.5 1.1211-2.5 2.5s1.1211 2.5 2.5 2.5h10c3.4492-0.003906 6.2461-2.8008 6.25-6.25v-28.727c-0.003906-1.375-0.45703-2.7109-1.2891-3.8047z"/>
  <path d="m36.25 32.5c3.5391 0 6.7305-2.1328 8.082-5.4023 1.3555-3.2695 0.60938-7.0312-1.8945-9.5352s-6.2656-3.25-9.5352-1.8945c-3.2695 1.3516-5.4023 4.543-5.4023 8.082 0.003906 4.832 3.918 8.7461 8.75 8.75zm0-12.5c1.5156 0 2.8828 0.91406 3.4648 2.3164 0.58203 1.3984 0.25781 3.0117-0.8125 4.0859-1.0742 1.0703-2.6875 1.3945-4.0859 0.8125-1.4023-0.58203-2.3164-1.9492-2.3164-3.4648 0-2.0703 1.6797-3.75 3.75-3.75z"/>
  <path d="m21.66 76.285c-1.3594-0.22656-2.6484 0.69141-2.875 2.0547l-1.0312 6.1875-1.6797-4.2031v-0.003907c-0.37891-0.94922-1.3008-1.5742-2.3242-1.5742-1.0195 0-1.9414 0.625-2.3203 1.5742l-1.6797 4.207-1.0312-6.1875c-0.10156-0.66406-0.46094-1.2578-1.0039-1.6523-0.54297-0.39453-1.2188-0.55078-1.8789-0.44141-0.66016 0.10938-1.25 0.48047-1.6367 1.0273-0.38281 0.55078-0.53125 1.2305-0.41016 1.8867l2.5 15c0.18359 1.1055 1.082 1.957 2.1953 2.0781 1.1172 0.11719 2.1758-0.51953 2.5898-1.5586l2.6758-6.6992 2.6797 6.6992c0.41406 1.0391 1.4727 1.6758 2.5898 1.5586 1.1133-0.12109 2.0117-0.97266 2.1953-2.0781l2.5-15c0.10938-0.65234-0.042969-1.3242-0.42969-1.8633-0.38672-0.53906-0.96875-0.90234-1.625-1.0117z"/>
  <path d="m37.5 81.25c1.3789 0 2.5-1.1211 2.5-2.5s-1.1211-2.5-2.5-2.5h-8.75c-1.3789 0-2.5 1.1211-2.5 2.5v15c0 0.66406 0.26172 1.3008 0.73047 1.7695s1.1055 0.73047 1.7695 0.73047h8.75c1.3789 0 2.5-1.1211 2.5-2.5s-1.1211-2.5-2.5-2.5h-6.25v-2.5h6.25c1.3789 0 2.5-1.1211 2.5-2.5s-1.1211-2.5-2.5-2.5h-6.25v-2.5z"/>
  <path d="m55.844 84.719c0.73047-1.918 0.46875-4.0781-0.69922-5.7656-1.168-1.6914-3.0898-2.7031-5.1445-2.7031h-5c-1.3789 0-2.5 1.1211-2.5 2.5v15c0 0.66406 0.26172 1.3008 0.73047 1.7695s1.1055 0.73047 1.7695 0.73047h7.5c2.7812 0 5.2266-1.8398 6-4.5117 0.77344-2.668-0.30859-5.5312-2.6562-7.0195zm-8.3438-3.4688h2.5c0.69141 0 1.25 0.55859 1.25 1.25s-0.55859 1.25-1.25 1.25h-2.5zm5 10h-5v-2.5h5c0.69141 0 1.25 0.55859 1.25 1.25s-0.55859 1.25-1.25 1.25z"/>
  <path d="m68.75 76.25h-5c-1.3789 0-2.5 1.1211-2.5 2.5v15c0 1.3789 1.1211 2.5 2.5 2.5s2.5-1.1211 2.5-2.5v-5h2.5c3.4531 0 6.25-2.7969 6.25-6.25s-2.7969-6.25-6.25-6.25zm0 7.5h-2.5v-2.5h2.5c0.69141 0 1.25 0.55859 1.25 1.25s-0.55859 1.25-1.25 1.25z"/>
 </g>
</svg>
