<?xml version="1.0" encoding="UTF-8"?>
<svg width="100pt" height="100pt" version="1.1" viewBox="0 0 100 100" xmlns="http://www.w3.org/2000/svg">
 <g>
  <path d="m90.828 17.949h-81.656c-3.1289 0-5.6719 2.5391-5.6719 5.6719v52.762c0 3.1289 2.5391 5.6719 5.6719 5.6719h81.66c3.1289 0 5.6719-2.5391 5.6719-5.6719l-0.003906-52.762c0-3.1328-2.5391-5.6719-5.6719-5.6719zm-84.328 5.6719c0-1.4688 1.1992-2.6719 2.6719-2.6719h81.66c1.4688 0 2.6719 1.1992 2.6719 2.6719v6.1016h-87zm87 52.758c0 1.4688-1.1992 2.6719-2.6719 2.6719h-81.656c-1.4688 0-2.6719-1.1992-2.6719-2.6719v-43.66h87z"/>
  <path d="m12.09 23.961c-0.80859 0-1.4805 0.67187-1.4805 1.4805s0.67188 1.4805 1.4805 1.4805 1.4805-0.67188 1.4805-1.4805c0-0.82031-0.66016-1.4805-1.4805-1.4805z"/>
  <path d="m18.891 25.441c0 1.9727-2.9609 1.9727-2.9609 0 0-1.9766 2.9609-1.9766 2.9609 0"/>
  <path d="m24.199 25.441c0 1.9727-2.9609 1.9727-2.9609 0 0-1.9766 2.9609-1.9766 2.9609 0"/>
  <path d="m49.648 54.031c-0.17969 0-0.35156 0.039062-0.51172 0.10156-0.039063 0.011719-0.078125 0.03125-0.12109 0.050782-0.16016 0.070312-0.30859 0.16016-0.44141 0.28906-0.12891 0.12891-0.21875 0.28125-0.28906 0.44141-0.019531 0.039063-0.039062 0.078126-0.050781 0.12109-0.058594 0.16016-0.10156 0.32812-0.10156 0.5v0.011719c0 0.12891 0.019532 0.25 0.050782 0.37891l4.0391 15.07c0.17969 0.67188 0.78906 1.1094 1.4492 1.1094 0.12891 0 0.26172-0.019531 0.39062-0.050781 0.80078-0.21094 1.2695-1.0391 1.0586-1.8398l-2.5898-9.6602 11.738 11.738c0.28906 0.28906 0.67969 0.44141 1.0586 0.44141s0.76953-0.14844 1.0586-0.44141c0.58984-0.58984 0.58984-1.5391 0-2.1211l-11.727-11.742 9.6602 2.5898c0.80078 0.21875 1.6211-0.26172 1.8398-1.0586 0.21094-0.80078-0.26172-1.6211-1.0586-1.8398l-15.07-4.0391c-0.12109-0.03125-0.25-0.050781-0.38281-0.050781z"/>
  <path d="m49.641 47.219c0.82812 0 1.5-0.67188 1.5-1.5v-5.1797c0-0.82812-0.67188-1.5-1.5-1.5s-1.5 0.67188-1.5 1.5v5.1797c0 0.83203 0.66797 1.5 1.5 1.5z"/>
  <path d="m34.648 57.031h5.1797c0.82812 0 1.5-0.67188 1.5-1.5s-0.67188-1.5-1.5-1.5h-5.1797c-0.82813 0-1.5 0.67188-1.5 1.5s0.67969 1.5 1.5 1.5z"/>
  <path d="m41.648 61.398-3.6602 3.6602c-0.58984 0.58984-0.58984 1.5391 0 2.1211 0.28906 0.28906 0.67969 0.44141 1.0586 0.44141s0.76953-0.14844 1.0586-0.44141l3.6602-3.6602c0.58984-0.58984 0.58984-1.5391 0-2.1211-0.58594-0.57813-1.5352-0.57813-2.1172 0z"/>
  <path d="m56.578 50.102c0.37891 0 0.76953-0.14844 1.0586-0.44141l3.6602-3.6602c0.58984-0.58984 0.58984-1.5391 0-2.1211-0.58984-0.58984-1.5391-0.58984-2.1211 0l-3.6602 3.6602c-0.58984 0.58984-0.58984 1.5391 0 2.1211 0.29297 0.28906 0.67578 0.44141 1.0625 0.44141z"/>
  <path d="m41.648 49.66c0.28906 0.28906 0.67969 0.44141 1.0586 0.44141 0.37891 0 0.76953-0.14844 1.0586-0.44141 0.58984-0.58984 0.58984-1.5391 0-2.1211l-3.6602-3.6602c-0.58984-0.58984-1.5391-0.58984-2.1211 0-0.58984 0.58984-0.58984 1.5391 0 2.1211z"/>
 </g>
</svg>
