<?xml version="1.0" encoding="UTF-8"?>
<svg width="100pt" height="100pt" version="1.1" viewBox="0 0 100 100" xmlns="http://www.w3.org/2000/svg">
 <g>
  <path d="m96 25.5-21-4.8008c-0.60156-0.10156-1.1992 0-1.6016 0.39844-0.5 0.39844-0.69922 0.89844-0.69922 1.5v2.8984l-10.598 0.003906c-1.1016 0-1.8984 0.80078-1.8984 1.8984v13.5c0.30078 0.10156 0.69922 0.10156 1 0.10156 1 0 2 0.30078 2.8984 0.69922v-12.398h8.6992v41.398h-8.8008v-18.5c-0.89844 0.5-1.8008 0.69922-2.8984 0.69922h-1v19.699c0 1.1016 0.89844 1.8984 1.8984 1.8984h10.602v2.8984c0 0.60156 0.30078 1.1016 0.69922 1.5 0.30078 0.30078 0.80078 0.39844 1.1992 0.39844h0.39844l21-4.8008c0.89844-0.19922 1.5-1 1.5-1.8984v-45.195c0.10156-0.89844-0.5-1.6992-1.3984-1.8984zm-16.301 26.699c-1.1992 0-2.1992-1-2.1992-2.1992s1-2.1992 2.1992-2.1992 2.1992 1 2.1992 2.1992-1 2.1992-2.1992 2.1992z"/>
  <path d="m6.6992 71c-0.5 1.3984 0.19922 2.8984 1.6016 3.5 0.30078 0.10156 0.60156 0.19922 0.89844 0.19922 1.1016 0 2.1016-0.69922 2.5-1.6992l2.8008-7.5-3.6016-5.8008z"/>
  <path d="m31.199 44.898-4-0.89844c-0.60156-0.10156-1.1016-0.39844-1.5-0.89844-4.1016-5.1992-4.8984-5.3984-6-5.5l-3.8008-0.19922c-0.5 0-1.1992-0.10156-6.6992 2-1.3008 0.5-2.5 1.3984-3.3008 2.6016l-3 4.3008c-0.69922 1.1016-0.5 2.5 0.60156 3.1992 0.39844 0.29688 0.89844 0.49609 1.3008 0.49609 0.69922 0 1.5-0.39844 1.8984-1l3-4.3008c0.30078-0.39844 0.69922-0.69922 1.1992-0.89844 0.39844-0.19922 0.80078-0.30078 1.1992-0.5l-1.8008 6.1992c-0.60156 2.1016-0.30078 4.3008 0.89844 6.1016l11.102 17.801c0.5 0.80078 1.3984 1.3008 2.3008 1.3008 0.5 0 1-0.10156 1.3984-0.39844 1.3008-0.80078 1.6016-2.3984 0.89844-3.6992l-8.8984-14.301 3.6992-10.801c0.10156 0.19922 0.30078 0.39844 0.5 0.60156 1 1.3008 2.5 2.1992 4.1016 2.6016l4 0.89844c1.3008 0.30078 2.5-0.5 2.8008-1.8008 0.10156-1.4062-0.69922-2.7031-1.8984-2.9062z"/>
  <path d="m19.086 25.898c6.8945 0.75 5.7695 11.09-1.125 10.34-6.8906-0.75-5.7656-11.09 1.125-10.34"/>
  <path d="m52.102 44.602c0.39844 0.69922 0.69922 1.3008 1.1992 1.8008 2.6016 2.8008 7.3984 2.8008 7.8984 2.8008 1.3008 0 2.3008-1 2.3008-2.3008 0-1.3008-1-2.3008-2.3008-2.3008-1.1016 0-3.5-0.30078-4.5-1.3984-0.10156-0.19922-0.5-0.89844-0.69922-1.3984-1-2.1992-2.6016-5.3984-5.8008-5.3984h-5.6016c-3.8984 0-5.3008 4.1016-6.1992 6.3008-0.10156 0.30078-0.19922 0.5-0.30078 0.80078-0.80078 1.8984-1.8008 7-1.8984 7.5-0.19922 1.3008 0.60156 2.5 1.8008 2.6992h0.5c1.1016 0 2.1016-0.80078 2.3008-1.8984 0.39844-2 1.1992-5.5 1.6016-6.6992 0-0.10156 0.10156-0.19922 0.10156-0.30078l0.19922 7.5-2.3008 19.398c-0.19922 1.3008 0.80078 2.6016 2.1992 2.6992h0.30078c1.1992 0 2.3008-0.89844 2.3984-2.1992l2.1016-17.602 2.1016 17.602c0.19922 1.3008 1.3984 2.3008 2.6992 2.1992 1.3008-0.19922 2.3008-1.3984 2.1992-2.6992l-2.3008-19.398z"/>
  <path d="m52.199 30.301c0 6.5312-9.8008 6.5312-9.8008 0 0-6.5352 9.8008-6.5352 9.8008 0"/>
 </g>
</svg>
