<?xml version="1.0" encoding="UTF-8"?>
<svg width="100pt" height="100pt" version="1.1" viewBox="0 0 100 100" xmlns="http://www.w3.org/2000/svg">
 <g>
  <path d="m89.566 100h-79.133c-5.75 0-10.434-4.6797-10.434-10.434v-70.797c0-5.7539 4.6836-10.438 10.438-10.438h79.125c5.7539 0 10.438 4.6836 10.438 10.438v70.797c0 5.7539-4.6797 10.434-10.434 10.434zm-79.129-83.332c-1.1602 0-2.1055 0.94531-2.1055 2.1055v70.797c0 1.1602 0.94141 2.1016 2.1016 2.1016h79.133c1.1602 0 2.1016-0.94141 2.1016-2.1016v-70.797c0-1.1602-0.94531-2.1055-2.1055-2.1055zm85.395 16.664h-91.668c-2.3008 0-4.168-1.8672-4.168-4.168 0-2.3008 1.8672-4.168 4.168-4.168h91.668c2.3047 0 4.168 1.8672 4.168 4.168 0 2.3008-1.8633 4.168-4.168 4.168zm-75-12.5c-2.3008 0-4.168-1.8672-4.168-4.168v-12.5c0-2.3008 1.8672-4.168 4.168-4.168s4.168 1.8672 4.168 4.168v12.5c0 2.3008-1.8672 4.168-4.168 4.168zm58.336 0c-2.3047 0-4.168-1.8672-4.168-4.168v-12.5c0-2.3008 1.8633-4.168 4.168-4.168 2.3047 0 4.168 1.8672 4.168 4.168v12.5c0 2.3008-1.8633 4.168-4.168 4.168z"/>
  <path d="m29.168 79.168c0 5.5547-8.3359 5.5547-8.3359 0 0-5.5586 8.3359-5.5586 8.3359 0"/>
  <path d="m29.168 62.5c0 5.5547-8.3359 5.5547-8.3359 0s8.3359-5.5547 8.3359 0"/>
  <path d="m41.668 79.168c0 5.5547-8.3359 5.5547-8.3359 0 0-5.5586 8.3359-5.5586 8.3359 0"/>
  <path d="m41.668 62.5c0 5.5547-8.3359 5.5547-8.3359 0s8.3359-5.5547 8.3359 0"/>
  <path d="m41.668 45.832c0 5.5586-8.3359 5.5586-8.3359 0 0-5.5547 8.3359-5.5547 8.3359 0"/>
  <path d="m66.668 79.168c0 5.5547-8.3359 5.5547-8.3359 0 0-5.5586 8.3359-5.5586 8.3359 0"/>
  <path d="m66.668 62.5c0 5.5547-8.3359 5.5547-8.3359 0s8.3359-5.5547 8.3359 0"/>
  <path d="m66.668 45.832c0 5.5586-8.3359 5.5586-8.3359 0 0-5.5547 8.3359-5.5547 8.3359 0"/>
  <path d="m79.168 62.5c0 5.5547-8.3359 5.5547-8.3359 0s8.3359-5.5547 8.3359 0"/>
  <path d="m79.168 45.832c0 5.5586-8.3359 5.5586-8.3359 0 0-5.5547 8.3359-5.5547 8.3359 0"/>
  <path d="m54.168 79.168c0 5.5547-8.3359 5.5547-8.3359 0 0-5.5586 8.3359-5.5586 8.3359 0"/>
  <path d="m54.168 62.5c0 5.5547-8.3359 5.5547-8.3359 0s8.3359-5.5547 8.3359 0"/>
  <path d="m54.168 45.832c0 5.5586-8.3359 5.5586-8.3359 0 0-5.5547 8.3359-5.5547 8.3359 0"/>
 </g>
</svg>
