<?xml version="1.0" encoding="UTF-8"?>
<svg width="100pt" height="100pt" version="1.1" viewBox="0 0 100 100" xmlns="http://www.w3.org/2000/svg">
 <path d="m88.973 56.949c0.40234-2.2578 0.60938-4.5781 0.60938-6.9492 0-4.4297-0.72656-8.6875-2.0703-12.664h-11.262c0.46094 2.8477 0.76953 5.8047 0.91016 8.8359-1.043-2.7852-2.6797-5.3477-4.8359-7.5078l-5.4102-5.4062c-0.79297-0.79687-1.6406-1.5234-2.5352-2.1719h4.0977c-2.9258-10.281-8.1094-17.852-14.035-20.422-0.4375-0.050781-0.875-0.089843-1.3164-0.125v16.574c-0.36719-0.019531-0.73438-0.03125-1.1055-0.03125-1.7578 0-3.4805 0.21484-5.1445 0.63281v-17.176c-0.44531 0.035157-0.89062 0.078126-1.332 0.125-5.9219 2.5781-11.102 10.145-14.023 20.422h8.1406c-0.89062 0.64844-1.7383 1.3711-2.5312 2.168l-3.8828 3.8789c-0.066406 0.066407-0.13281 0.13281-0.19922 0.20313h-2.957c-0.29297 1.6523-0.53125 3.3516-0.70703 5.0938-1.5039 2.9336-2.3008 6.1992-2.3008 9.5898 0 5.6289 2.1914 10.926 6.1719 14.891l2.0039 2.0039h-3.7383c2.9219 10.273 8.1016 17.844 14.023 20.422 0.44141 0.046874 0.88672 0.089843 1.332 0.125v-12.051c1.9531 0.65234 4.0117 1.0156 6.1172 1.0664 0.042968 0.003907 0.089843 0.003907 0.13281 0.003907v10.98c0.44922-0.035157 0.89453-0.078126 1.3398-0.12891 0.71875-0.3125 1.4258-0.69531 2.1172-1.1523 1.0391 2.3945 2.5312 4.5898 4.418 6.4805l1.582 1.5859c-4.0078 1.0898-8.2266 1.6719-12.582 1.6719-26.453 0-47.918-21.465-47.918-47.918s21.465-47.918 47.918-47.918 47.918 21.465 47.918 47.918c0 4.3555-0.58203 8.5742-1.6719 12.586l-1.5859-1.582c-1.6797-1.6797-3.6016-3.043-5.6875-4.0547zm-21.07-42.258c3.0195 4.4727 5.4336 10.07 7.0508 16.395h9.8203c-3.8281-7.0234-9.7266-12.762-16.871-16.395zm-44.152 22.645h-11.262c-1.3438 3.9766-2.0703 8.2344-2.0703 12.664s0.72656 8.6875 2.0703 12.664h11.262c-0.65234-4.0352-1-8.2852-1-12.664s0.34766-8.6289 1-12.664zm8.3438 47.969c-3.0234-4.4727-5.4336-10.066-7.0508-16.391h-9.8164c3.8281 7.0234 9.7227 12.758 16.867 16.391zm-0.003906-70.609c-7.1406 3.6328-13.035 9.3672-16.863 16.391h9.8164c1.6172-6.3203 4.0273-11.918 7.0469-16.391zm57.324 51.324 5.3633 5.3633c2.5938 2.5898 4.0508 6.1094 4.0508 9.7773 0 3.668-1.457 7.1836-4.0508 9.7773l-3.8398 3.8398c-2.5898 2.5938-6.1094 4.0508-9.7773 4.0508-3.668 0-7.1875-1.457-9.7773-4.0508l-5.3633-5.3633c-2.4961-2.5-3.9414-5.8672-4.0352-9.4023-0.097656-3.5391 1.1719-6.9766 3.5352-9.6094l-2.5898-2.5938c-2.6328 2.3672-6.0703 3.6328-9.6094 3.5391-3.5352-0.089844-6.9023-1.5391-9.4062-4.0391l-5.3594-5.3555c-2.5938-2.5938-4.0508-6.1133-4.0508-9.7812s1.457-7.1836 4.0508-9.7773l3.8359-3.8398c2.5977-2.5938 6.1133-4.0508 9.7812-4.0508s7.1875 1.457 9.7812 4.0508l5.3555 5.3594c2.5 2.5039 3.9492 5.8711 4.0391 9.4062 0.09375 3.5391-1.1719 6.9727-3.5391 9.6094l2.5938 2.5898c2.6328-2.3633 6.0703-3.6328 9.6094-3.5352 3.5352 0.09375 6.9023 1.5391 9.4023 4.0352zm-40.066-3.2344 0.039063 0.003906c2.4609 2.4492 6.3672 2.6602 9.0742 0.48828l-7.4414-7.4648c-1.332-1.3359-1.332-3.4922 0-4.8242 1.332-1.3359 3.4922-1.3359 4.8242 0h0.003906l7.4453 7.4492c2.1602-2.7148 1.9375-6.6289-0.52344-9.0781v-0.003906l-5.2812-5.2852c-2.6641-2.6641-6.9766-2.6641-9.6367 0l-3.7852 3.7852c-2.6602 2.6641-2.6602 6.9844 0 9.6445zm39.91 22.699c1.2812-1.2773 2.0039-3.0117 2.0039-4.8242 0.003906-1.8086-0.71484-3.5469-1.9961-4.8242v-0.003907l-5.2812-5.2812c-2.4648-2.457-6.3828-2.668-9.0938-0.48828l7.4375 7.457c1.332 1.3359 1.332 3.4922 0 4.8242-1.3281 1.3359-3.4883 1.3359-4.8203 0h-0.003906l-7.4453-7.4453c-2.1758 2.7109-1.9609 6.625 0.49609 9.0859l5.2812 5.2812c2.6641 2.6602 6.9766 2.6602 9.6406 0l-0.003906 0.003906z"/>
</svg>
