<?xml version="1.0" encoding="UTF-8"?>
<svg width="100pt" height="100pt" version="1.1" viewBox="0 0 100 100" xmlns="http://www.w3.org/2000/svg">
 <g>
  <path d="m12.5 25v58.332h75v-58.332zm0-8.332h75c4.6016 0 8.332 3.7305 8.332 8.332v58.332c0 4.6055-3.7305 8.3359-8.332 8.3359h-75c-4.6016 0-8.332-3.7305-8.332-8.3359v-58.332c0-4.6016 3.7305-8.332 8.332-8.332z"/>
  <path d="m9.125 41.641h86.707v-8.332h-86.707z"/>
  <path d="m70.797 20.312v21.355h8.332v-21.355z"/>
  <path d="m20.891 69.254 5.5664 6.207 9.0742-8.1406c2.5703-2.3008 2.7852-6.2539 0.48047-8.8242-0.15234-0.16797-0.3125-0.32812-0.48047-0.48047l-9.0742-8.1367-5.5664 6.2031 7.3477 6.5859z"/>
  <path d="m41.668 75h16.664v-8.332h-16.664z"/>
 </g>
</svg>
