<svg xmlns="http://www.w3.org/2000/svg" viewBox="475.78 146.93 774.58 408.93" width="742.58" height="376.93" xmlns:v="https://vecta.io/nano"><style><![CDATA[.B{pointer-events:stroke}.C{stroke-width:4}.D{stroke-dashoffset:none}.E{stroke-linejoin:round}.F{stroke-linecap:round}]]></style><g fill="none" class="C D E F B"><g stroke="#1d1d1d"><path d="M754.07 403.4q0 0 2.42 0 2.42 0 5.99 0 3.57 0 7.47 0 3.9 0 8.11 0 4.21 0 8.74 0 4.54 0 9.43 0 4.9 0 9.94 0 5.04 0 10 0 4.96 0 9.66 0 4.7 0 9.07 0 4.38 0 8.36 0 3.97 0 7.27 0 3.29 0 5.59 0 2.3 0 3.63 0 1.33 0 2.1 0 .76 0 1.37 0 .61 0 1.33 0 .72 0 1.93 0 1.22 0 3.13 0 1.91 0 4.64 0 2.73 0 6.36 0 3.63 0 7.84 0 4.2 0 8.47 0 4.27 0 8.26 0 3.99 0 7.51 0 3.52 0 6.64 0 3.13 0 5.82 0 2.69 0 4.84 0 2.14 0 3.54 0 1.41 0 2.2 0 .79 0 1.28 0 .49 0 .97 0 .48 0 1.05 0 .57 0 1.11 0 .53 0 .93 0 .4 0 .75 0 .35 0 .76 0 .41 0 .88 0 .46 0 1.05 0 .59 0 1.22 0 .63 0 1.13 0 .49 0 .81 0 .32 0 .38 0 .06 0-.29 0-.35 0-1.04 0m-7.79-14.42q0 0-.39-.12-.38-.12-.5.04-.12.15-.07.5.05.35.26.85.22.49.59 1.12.37.63.88 1.35.51.73 1.11 1.5.6.76 1.27 1.51.67.74 1.32 1.43.65.69 1.25 1.3.61.61 1.15 1.16.54.54 1.01.99.47.44.86.81.4.36.73.63.33.28.65.46.31.18.62.31.3.13.57.23.28.1.48.17.21.07.36.1.14.04.23.06.1.02.07.03-.04.02-.19.02-.15.01-.41.03-.26.02-.62.09-.36.07-.85.25-.49.19-1.06.51-.56.32-1.18.79-.62.47-1.25 1.02-.63.55-1.22 1.08-.58.54-1.1 1.01-.51.48-.97.93-.45.45-.87.86-.41.41-.8.79-.39.39-.72.72-.33.33-.6.6-.28.27-.53.54-.25.26-.5.51-.26.25-.52.49-.26.24-.5.51-.25.26-.5.55-.25.29-.5.62-.26.32-.45.58-.18.27-.31.43-.13.16-.2.31-.08.14-.1.52m-155.4-61.98q0 0-.9-.41-.89-.41-1.82-.49-.93-.08-1.91.21-.98.29-2.02.94-1.03.64-1.99 1.56-.95.93-1.57 2.02-.61 1.09-.79 2.28-.18 1.19.16 2.33.34 1.14 1.13 2.06.78.92 1.9 1.49 1.12.57 2.41.78 1.29.21 4.16.08m11.22.53q0 0-.79-1.38-.79-1.37-1.24-2.64-.45-1.27-.45-2.41 0-1.14.46-2.11.47-.96 1.33-1.62.85-.67 1.89-.9 1.04-.24 2.06.1 1.01.33 1.83 1.06.83.73 1.32 1.67.5.94.62 1.96.11 1.01-.19 1.94-.3.92-.95 1.63-.65.7-1.51.98-.87.29-1.45.11-.59-.18-1.31-1.15m13.64-11.99q0 0 .23 2.17.23 2.17.36 3.98.13 1.8.21 3.29.07 1.49.11 2.37.04.88.09 1.87"/><path d="M804.62 355q0 0 .65 1.32.66 1.33 1.24 2.27.58.94 1.21 1.57.62.64 1.43.91.8.28 1.54.17.75-.11 1.57-.75.82-.64 1.54-1.54.72-.9 1.32-1.85.6-.94 1.05-1.83.45-.89.77-1.53.32-.63.52-1 .21-.37.4-.5.18-.13.42.4.23.53.42 1.52.19.99.32 2.4.14 1.41.22 3.11.09 1.7.17 3.28.08 1.58.18 2.76.1 1.17.42 1.8.32.62.84 1.32m4.9-14.88q0 0 .26 1.83.26 1.84.42 3.87.16 2.02.25 3.9.09 1.88.14 3.22.04 1.35.15 2.1.1.76.29 1.34"/><path d="M823.66 357.74q0 0 1.21-1.19 1.21-1.18 2.52-1.62 1.31-.43 2.54-.25 1.22.18 2.1.81.88.63 1.35 1.53.47.9.44 1.88-.04.98-.45 1.84-.41.86-1.12 1.46-.71.59-1.51.87-.8.29-1.37.11-.58-.18-1.29-.99m13.79-9.41q0 0-.17 2.32-.16 2.32-.25 4.66-.09 2.35-.13 4.33-.05 1.99.06 3.27.12 1.29.79 2.78m9.87-15.47q0 0-.02 1.4-.01 1.4-.21 2.93-.2 1.53-.35 3.09-.15 1.57-.15 2.65 0 1.08.37 1.75.36.68 1.05 1.05.68.37 1.64.53.96.16 2.11.25 1.15.09 2.38.14 1.23.04 2.45.07 1.21.03 2.18.04.97.02 1.62 0 .65-.02 1.52-.24m3.55-12.55q0 0 .37 2.65.38 2.66.61 4.55.22 1.89.36 2.99.14 1.1.24 1.58.11.48.24.97m-2.87-13.65q0 0 2.04-.25 2.05-.25 3.83-.43 1.79-.19 3.18-.33 1.4-.14 2.4-.27 1.01-.12 2.38-.34m-12.07 7.68q0 0 2.07.02 2.07.03 3.55.04 1.49 0 2.67-.06 1.18-.05 1.92-.1.75-.05 1.63-.11m-10.53 7.58q0 0 1.7.59 1.71.6 3.34.98 1.63.38 2.99.58 1.37.21 2.4.33 1.03.11 2.47.25m109.01 21.28q0 0-.28 1.92-.28 1.93-.63 4.03-.36 2.1-.57 3.73-.22 1.62-.29 2.66-.07 1.03.24 1.63.31.6.96.9.65.3 1.45.44.8.14 1.93.2 1.12.06 2.14.09 1.02.03 1.74.05.72.02 1.28.03.56.01 1.45-.01m8.59-1.78q0 0-.63-1.33-.63-1.33-.92-2.84-.29-1.5-.16-3.07.14-1.56.66-2.86.53-1.3 1.4-2.12.88-.82 1.93-.9 1.05-.07 2.01.74.96.8 1.55 2.2.59 1.39.65 2.93.07 1.55-.26 2.9-.33 1.34-1.04 2.34-.71.99-1.62 1.54-.92.55-1.73.5-.82-.05-1.76-1.67m13.94-11.66q0 0-.37 1.56-.36 1.56-.62 3.22-.26 1.67-.28 3.19-.01 1.51.35 2.56.36 1.04 1.02 1.47.67.43 1.57.09.91-.35 1.82-1.23.92-.87 1.61-1.94.69-1.07 1.14-1.96.46-.9.74-1.44.28-.54.57-.62.29-.08.66.37.38.46.86 1.33.49.88 1.14 1.88.65.99 1.41 1.79.77.8 1.53 1.27.76.47 1.54.51.79.04 1.54-.36.75-.4 1.42-1.24.66-.83 1.21-2.08.54-1.25.9-2.86.35-1.61.51-3.17.15-1.56.09-2.73-.06-1.17-.17-2.87m38-1.7q0 0-.09 1.66-.09 1.66-.24 3.24-.15 1.58-.32 3.13-.17 1.56-.25 2.89-.09 1.32-.03 2.17.06.85.4 1.41.34.56 1.11.94.77.38 1.59.63.82.26 1.75.43.94.17 2.01.26 1.07.09 1.94.13.87.04 1.54.06.67.02 1.69.18m8.14-15.43q0 0 .14 2.68.15 2.69.24 4.72.1 2.04.18 3.6.08 1.57.19 2.4.1.84.29 1.41m-2.93-16.77q0 0 2.34-.18 2.35-.18 4.31-.3 1.96-.13 3.4-.2 1.45-.07 2.39-.06.94 0 2.08.3m-10.28 9.83q0 0 2.15-.3 2.16-.29 3.74-.46 1.57-.18 2.6-.28 1.03-.09 1.58-.07.56.02 1.08.21m-12.19 8.28q0 0 1.96.23 1.97.23 3.78.24 1.8.01 3.41-.07 1.61-.08 4.18-.24m6.63-16.67q0 0 1.06 2.87 1.07 2.88 1.9 5.14.84 2.25 1.52 3.78.68 1.53 1.21 2.41.54.89 1 1.26.46.38.88.23.43-.14.84-.76.42-.62.85-1.76.43-1.15.89-2.82.45-1.66.79-3.46.34-1.8.53-3.31.19-1.5.29-2.68.11-1.19.43-3m8.35 2.1q0 0 .27 2.34.28 2.35.39 4.22.11 1.87.17 3.03.06 1.16.17 2.14m-1.71-12.19q0 0 2.43-.35 2.44-.35 4.28-.6 1.84-.26 3.07-.39 1.22-.14 1.91-.16.69-.02 1.41.12m-9.97 8.1q0 0 1.7.26 1.71.26 3.08.32 1.36.06 2.41.04 1.05-.01 1.64 0 .59.01 1.29.15m-10.38 7.12q0 0 2.18.2 2.19.21 3.96.2 1.76 0 3.3-.13 1.55-.14 3.98-.43m7.38-16.99q0 0 .14 1.98.15 1.98.23 4.05.08 2.06.17 3.69.09 1.63.18 2.7.1 1.06.2 1.7.11.65.28 1.04.16.38.4.62.23.25.65.38.43.13 1.1.18.67.04 1.58-.03.91-.08 1.97-.18 1.05-.1 2.12-.16 1.07-.05 2.15-.08 1.09-.03 2.04-.05.95-.01 1.6-.01.66 0 1.02.02.36.02.51.1.14.08.02.38m-194.76 31.62q0 0-.27 1-.26 1.01-.4 2.24-.15 1.22-.23 2.69-.08 1.47-.11 3-.03 1.54-.03 2.63-.01 1.08.01 1.74.01.66.03.98m6.15.07q0 0 .33.86.34.86.54 1.43.2.58.32.93.13.35.21.54.09.19.18.19.08.01.21-.31.12-.32.23-.96.11-.65.2-1.6.1-.95.16-2.18.07-1.23.1-2.65.04-1.42.06-2.85.02-1.43 0-2.67-.02-1.24-.03-2.15-.01-.9-.02-1.5 0-.61.02-.98.03-.38.06-.6.03-.22.06-.35.03-.12.12-.17.09-.06.27.09.19.15.49.59.3.45.73 1.42.43.98.89 1.98.46 1.01 1.06 2.21.6 1.2 1.32 2.44.71 1.25 1.42 2.42.72 1.17 1.36 2.11.65.94 1.22 1.61.57.68 1.09 1.17.53.5.98.87.44.37.81.67.36.29.64.48.27.19.45.31.18.13.3.21.11.08.17.1.07.01.12-.13.05-.14.09-.53.04-.4.07-1.39.02-.99.03-2.13.01-1.13.02-2.59.01-1.45.01-3.11.01-1.65-.02-2.88-.03-1.24-.06-2.23-.03-.98 0-1.76.03-.78.36-1.49.34-.71 1.54-2.1m17.05-.35q0 0-1.55.83-1.55.83-2.78 1.55-1.24.72-2.03 1.27-.8.54-1.24 1.05-.45.5-.35 1.06.09.56.72 1.2.64.65 1.69 1.4 1.05.74 2.21 1.58 1.17.84 2.13 1.67.97.82 1.54 1.6.58.78.81 1.43.23.65-.16 1.27-.4.62-1.26 1.02-.87.4-2.16.63-1.29.22-2.79.11-1.51-.11-2.86-.52-1.36-.42-2.29-1.07-.92-.65-1.2-1.34-.27-.7-.48-1.62m16.68-11.75q0 0 1.49-.15 1.49-.15 3.05-.33 1.57-.18 2.96-.36 1.39-.17 2.47-.31 1.07-.14 2.63-.35"/><path d="M1043.95 430.41q0 0-.56 1.45-.55 1.46-.83 3.26-.28 1.8-.39 3.85-.11 2.04-.11 3.91 0 1.88.03 3.25.03 1.37.13 2.19.1.81.26 1.26.16.45.42.98m10.31-16.7q0 0 .27 1.63.28 1.64.45 3.46.17 1.82.26 3.65.09 1.82.15 2.98.05 1.15.18 1.58.13.44.55-.3m-.94-11.89q0 0 1.83-1.09 1.84-1.08 3.72-1.72 1.88-.64 3.38-.77 1.5-.13 2.65.49 1.15.63 1.73 1.62.58.98.66 1.91.07.93-.49 1.78-.56.84-1.53 1.4-.96.55-2.04.87-1.07.32-2.18.53-1.1.21-1.77.36-.67.16-.98.37-.31.2.08.72.38.53 1.23 1.3.86.76 1.88 1.72 1.03.95 2.09 1.91 1.07.96 2.02 1.86.95.9 1.69 1.67.75.77 1.24 1.33.48.56.78.9.29.33.92.39m6.64-19.96q0 0-.46 1.42-.45 1.43-.7 3.09-.26 1.65-.17 3.26.08 1.61.54 2.93.47 1.31 1.34 2.1.87.78 1.97.78 1.09 0 2.22-.68 1.13-.67 2.06-1.79.94-1.12 1.6-2.58.66-1.46 1.04-3.1.38-1.64.54-3.05.17-1.4.18-2.28.02-.87-.01-1.28-.03-.42-.07-.15-.03.27.04 1.27.07.99.31 2.53.25 1.55.56 3.36.3 1.81.72 3.6.42 1.79 1.15 3.03.73 1.24 2.61 2.61m17.47-14.81q0 0-1.47-.28-1.46-.28-2.94.25-1.47.54-2.74 1.75-1.27 1.22-2.06 2.69-.79 1.47-.93 2.95-.15 1.49.43 2.85.58 1.36 1.83 2.36 1.25 1 2.98 1.47 1.73.47 3.75.14 2.02-.33 6.28-2.2m3.15-15.05q0 0 1.78.24 1.78.25 4 .19 2.22-.07 4.04-.21 1.81-.14 3.28-.3 1.47-.17 2.45-.3.99-.14 2.21-.37"/><path d="M1129.4 428.19q0 0-.18 2.14-.17 2.15-.21 4.12-.04 1.97 0 4.03.03 2.05.17 3.96.14 1.91.45 3.11.31 1.19.95 2.64m14.02-17.2q0 0 .2 2.59.21 2.6.32 4.83.11 2.22.26 4.25.15 2.03.51 3.26.36 1.22 1.13 2.64m9.91-2.37q0 0-.91-.9-.9-.89-1.46-2.25-.56-1.37-.72-3.1-.16-1.74.18-3.44.35-1.7 1.19-3.06.83-1.37 2.15-2.21 1.32-.84 2.81-1.03 1.49-.18 2.74.44 1.24.63 2.02 1.94.78 1.31 1.09 2.92.31 1.62.13 3.18-.17 1.56-.78 2.86-.61 1.3-1.64 2.27-1.02.97-2.24 1.53-1.22.56-2.28.58-1.05.02-1.56-.58-.51-.6-.81-1.9m16.86.6q0 0 .04.67.04.67.06.81.03.13.07-.21.04-.35.11-1.15.06-.81.13-2.14.07-1.34.12-3.11.05-1.78.08-3.5.03-1.73.04-3 .02-1.28.03-2.05 0-.78.12-1.21.13-.43.47-.52.34-.09.86.36.51.44 1.14 1.4.63.96 1.41 2.4.77 1.44 1.68 3.12.91 1.69 1.88 3.33.97 1.64 1.9 3.11.93 1.46 1.73 2.55.81 1.08 1.43 1.74.62.66 1.1 1.01.49.35.88.3.39-.06.67-.56.29-.5.48-1.46.19-.96.29-2.33.11-1.38.12-3.09.01-1.71-.13-3.53-.13-1.82-.33-3.51-.19-1.7-.39-3.11-.19-1.42-.31-2.42-.13-1-.16-1.58-.04-.59.52-.91.56-.32 2.5-.72m16.29 3.26q0 0-1.32.11-1.31.12-2.56.64-1.25.52-2.05 1.02-.79.51-1.23 1.02-.44.51-.25 1.13.2.62.76 1.19.56.58 1.65 1.3 1.08.73 2.41 1.73 1.33 1 2.28 1.96.95.96 1.52 2.02.57 1.06.74 2.17.17 1.11.04 1.95-.12.85-.57 1.49-.45.64-1.52.95-1.06.31-2.48.21-1.42-.11-2.75-.47-1.32-.36-2.39-1.06-1.07-.7-1.7-2.12M519.18 316.37q0 0 .16 2.08.16 2.09.25 4.07.09 1.98.18 3.9.09 1.92.27 3.21.19 1.29.37 1.74.19.45.32.58.14.13.34.13"/><path d="M518.92 318.26q0 0 2.34-1.3 2.35-1.3 4.22-1.85 1.87-.54 3.27-.16 1.4.39 2.05 1.61.66 1.22.68 2.39.03 1.17-.6 2.32-.63 1.14-2.04 2.11-1.42.97-2.68 1.57-1.26.61-2 .97-.74.37-.94.68-.21.32.32.92.53.6 1.26 1.27.73.67 1.76 1.72 1.03 1.06 1.9 2.18.88 1.12 1.45 2.05.57.93 1.31 2.56m4.92-18q0 0 .3 1.4.31 1.4.49 3.09.19 1.69.33 3.15.15 1.47.26 2.41.11.94.24 2"/><path d="M533.66 319.04q0 0 2.84-.79 2.85-.79 5.34-1.24 2.49-.45 4.19-.5 1.7-.04 2.65.17.95.21 1.87.7m-14.54 9.36q0 0 2.37-.15 2.38-.15 4.24-.3 1.85-.15 3.05-.28 1.2-.13 2.65-.29m-12.57 6.95q0 0 2.13.43 2.13.44 4.22.57 2.1.12 5.73.02m6.45.03q0 0 .49-1.79.49-1.78 1.02-3.83.52-2.05 1.08-4.16.57-2.11 1.04-3.76.48-1.65.85-2.61.38-.97.91-1.16.53-.18 1.33.55.81.73 1.75 2.2.94 1.47 1.77 3.4.82 1.94 1.36 3.77.55 1.82.85 3.13.3 1.3.41 1.99.11.69.01 1.12"/><path d="M554.14 328.56q0 0 2.26-.62 2.26-.61 4.3-1.04 2.04-.42 3.43-.66 1.39-.23 3.4-.52m5.92-11.25q0 0 .36 2.23.36 2.23.63 4.65.26 2.42.49 4.34.23 1.92.45 3.03.21 1.12.64 1.55"/><path d="M570.13 316.3q0 0 2.58-.59 2.58-.58 4.81-.63 2.23-.04 4.22.73 1.99.78 3.35 2.31 1.37 1.52 1.97 2.96.61 1.44.4 2.9-.2 1.45-1.26 2.76-1.06 1.31-2.37 2.17-1.3.86-2.86 1.19-1.57.32-2.68-.28-1.12-.61-2.46-1.59m40.61-13.69q0 0 .36 3.1.36 3.11.62 5.47.26 2.36.44 3.85.17 1.5.32 3.08"/><path d="M616.24 318.39q0 0 1.29-.94 1.3-.94 3.03-1.31 1.73-.37 3.42.14 1.7.51 2.9 1.72 1.2 1.2 1.66 2.81.46 1.61.13 3.31-.33 1.69-1.36 3.24-1.03 1.55-2.72 2.7-1.7 1.14-3.46 1.66-1.77.52-2.9.19-1.14-.33-1.11-2.59m16.87 2.44q0 0 .75-1.71.76-1.71 1.53-3.78.77-2.07 1.46-4.25.69-2.17 1.17-3.81.48-1.64.76-2.6.28-.95.54-1.24.26-.29.66.23.41.53.98 1.66.58 1.14 1.24 2.66.67 1.52 1.26 3.26.58 1.75 1 3.41.41 1.67.65 2.89.24 1.23.38 1.93.13.71.09.78-.05.07-.1.02-.05-.05-.18-.24"/><path d="M635.29 327.52q0 0 2.59-.62 2.6-.61 4.97-1.11 2.37-.5 6.44-1.31m-1.21-7.53q0 0 1.93-.21 1.94-.2 4.5-.55 2.56-.34 4.99-.61 2.42-.26 4.14-.41 1.72-.14 2.68-.22.96-.09 1.76-.16"/><path d="M658.97 315.58q0 0 0 2.29 0 2.29-.11 4.99-.1 2.69-.16 4.68-.05 1.98.12 3.2.17 1.21.97 2.19m10.07-2.34q0 0 1-1.99 1.01-1.99 1.99-4.25.98-2.27 1.81-4.26.84-2 1.4-3.27.56-1.28.95-1.9.38-.62.83-.38.44.25 1.04 1.34.59 1.1 1.25 2.73.65 1.62 1.25 3.43.61 1.8 1.08 3.34.46 1.53.74 2.56.27 1.02.42 1.52.15.49.06.38-.09-.1-.63-1.12"/><path d="M670.26 326.35q0 0 3.13-.41 3.14-.41 6.21-.86 3.08-.44 5.52-.7 2.45-.26 7.16-.36m-177.8 89.93q0 0 .11-.03.12-.03.4-.69.28-.66.72-1.94.43-1.29.98-3.08.55-1.79 1.2-3.67.65-1.87 1.3-3.5.66-1.62 1.25-2.86.59-1.25 1.05-2.03.46-.77.88-1.16.41-.38.9-.17.49.21 1.06 1.08.56.88 1.12 2.46.56 1.58 1.06 3.73.5 2.16.94 4.4.43 2.24.75 4.01.31 1.76.5 2.82.18 1.06.29 1.42.1.35.09-.05-.02-.41-.14-1.43m-11.52-4.92q0 0 2.51-.65 2.51-.64 6.97-1.47m18.89-10.67q0 0-1.11.17-1.11.18-2.69 1.03-1.57.86-2.85 1.86-1.28 1-2.3 2.32-1.01 1.33-1.51 3.11-.51 1.78-.34 3.47.16 1.68.8 2.92.64 1.24 1.76 2.03 1.11.78 2.49.95 1.37.17 2.45.02 1.08-.15 1.87-.54.79-.39 1.19-.93.41-.54.44-1 .04-.45-.51-.91-.55-.46-1.4-.87-.84-.41-1.54-.73-.7-.32-1.16-.53-.46-.22-.38-.38.08-.17.57-.3.48-.14 1.61-.37 1.13-.24 2.35-.49 1.22-.24 2.19-.44.96-.19 2.58-.43m14.21-9.96q0 0-1.33.26-1.33.26-2.91 1.12-1.58.86-3.18 2.33-1.61 1.47-2.7 3.39-1.09 1.92-1.48 3.89-.4 1.96.04 3.6.43 1.64 1.61 2.68 1.17 1.04 2.71 1.4 1.54.35 3.01.15 1.46-.2 2.49-.67 1.03-.47 1.52-.97.49-.5.39-.99-.11-.5-.7-1-.6-.51-1.43-.98-.83-.47-1.56-.83-.74-.36-1.16-.57-.42-.22-.3-.33.12-.12.84-.19.72-.06 1.91-.17 1.19-.11 2.52-.27 1.33-.17 3.94-.47m6.34-10.46q0 0 .39 2.85.39 2.86.64 5.16.25 2.3.43 3.8.18 1.5.32 2.07.14.56.38.48"/><path d="M574.03 400.12q0 0 1.98-1.39 1.99-1.39 4.17-2.16 2.17-.76 3.94-.79 1.78-.03 2.84.42 1.07.45 1.32 1.2.26.74-.23 1.59-.48.86-1.51 1.69-1.03.83-2.11 1.54-1.08.71-1.79 1.32-.72.62-.93 1.14-.22.53.19 1.12.42.6 1.34 1.32.92.73 2.01 1.64 1.09.91 2.02 1.91.92 1 1.58 1.74.65.75 1.49 1.66m7.64-19.56q0 0 .33 2.74.34 2.74.54 5.15.19 2.4.35 3.91.15 1.51.33 1.96.17.45.38.84"/><path d="M595.24 393.47q0 0 2.36-.07 2.36-.06 4.67-.1 2.32-.05 3.9-.02 1.58.04 2.5.17.92.13 2.02.3m-12.19 8.91q0 0 1.99-.24 2-.23 3.76-.43 1.76-.21 2.94-.38 1.18-.17 2.54-.38m-11.75 9.52q0 0 2.37.11 2.38.12 4.63.04 2.25-.08 5.25-.21m20.23-15q0 0-1.38.05-1.37.06-2.91.79-1.55.73-2.99 2.07-1.43 1.34-2.42 3.07-.98 1.74-1.25 3.45-.27 1.72.37 3.09.64 1.37 2 2.21 1.37.85 2.91 1.03 1.54.17 2.68-.1 1.14-.26 1.73-.81.59-.54.59-1.25 0-.7-.47-1.46-.48-.76-1.13-1.35-.64-.6-1.07-.94-.43-.34-.38-.48.06-.15.79-.13.73.02 1.94.06 1.2.04 2.63.05 1.43.01 4.72-.63m5.84 7.58q0 0 .51-1.46.51-1.46 1.04-3.54.53-2.08 1.11-4.45.58-2.37 1.15-4.43.58-2.05 1.04-3.39.46-1.34.88-2.04.42-.7.92-.58.51.11 1.14 1.06.63.95 1.36 2.57.73 1.62 1.49 3.7.77 2.08 1.47 4.12.7 2.03 1.2 3.48.51 1.45.8 2.18.29.72.62.84"/><path d="M646.25 403.64q0 0 2.15-.73 2.16-.73 4.28-1.36 2.11-.62 6.51-1.42m1.28-6.6q0 0 2.14-.41 2.14-.41 4.42-.8 2.28-.38 4.27-.61 1.99-.23 3.38-.24 1.39-.01 3.14.08m-6.52 1.2q0 0 .17 3.18.17 3.18.3 5.72.13 2.55.3 4.6.17 2.05.71 3.16.55 1.12 1.39 2.4m8.34-18.48q0 0 .48 2.78.48 2.79.75 4.99.27 2.2.43 3.47.16 1.27.59 2.22m-1.27-13.13q0 0 2.24-.46 2.25-.45 4.24-.73 1.99-.28 3.41-.43 1.41-.15 2.33-.09.91.06 2.04.23m-13.8 9.7q0 0 1.88-.17 1.88-.16 3.56-.33 1.68-.18 2.96-.32 1.28-.14 3.09-.31m-10.77 9.87q0 0 2.18-.2 2.19-.19 4.28-.44 2.08-.25 6.74-.69m-148.16 69.9q0 0-.04-.62-.03-.61.04-.5.08.12.2 1.14.13 1.03.32 2.84.18 1.8.39 3.9.21 2.09.33 3.99.13 1.9.2 3.29.07 1.38.1 2.18.02.79-.08 1.03-.1.23-.46-1.14"/><path d="M542.86 481.14q0 0 2.62-.9 2.63-.89 4.91-1.45 2.29-.56 3.97-.86 1.69-.3 2.73-.39 1.05-.09 1.54.03.49.13.9.48m-12.76 10.46q0 0 2.55-.28 2.56-.28 4.64-.56 2.08-.28 5.63-.83m8.97-8.57q0 0 .19 1.6.19 1.61.39 3.33.21 1.72.45 3.62.25 1.9.55 3.51.29 1.62.62 2.57.32.95 1.34 1.48m8.98-14.61q0 0 .35 1.24.35 1.24.38 3.31.03 2.07.04 4.09 0 2.02.15 3.46.15 1.44.74 2.28.59.84 1.66.93 1.08.1 2.52-.21 1.43-.31 2.89-.67 1.45-.36 2.66-.59 1.21-.23 2.04-.36.83-.12 1.33-.15.5-.03 1.15-.06m3.08-14.05q0 0 2.24-.22 2.25-.22 4.4-.46 2.14-.24 3.82-.37 1.68-.13 2.73-.1 1.04.03 2.33.1m-8.55 2.29q0 0 .32 2.14.32 2.15.64 4.15.33 2 .7 3.57.36 1.58 1.63 3.78m9.76-14.55q0 0 .53 1.91.54 1.91.89 3.84.34 1.93.6 3.44.27 1.5.95 3.1m-3.95-15.03q0 0 2.52.18 2.53.19 4.99.15 2.46-.04 4.46-.12 2-.08 5.03-.18m-13.15 10.73q0 0 2.36-.56 2.37-.55 4.21-.99 1.85-.44 3.14-.68 1.3-.24 2.94-.54m-12.78 9.49q0 0 2.07.33 2.07.34 4.24.51 2.16.17 4.28-.03 2.12-.2 3.67-.48 1.54-.29 3.71-.77m4.34-14.95q0 0 .3 2.05.31 2.06.59 3.88.29 1.82.53 3.47.25 1.65.47 2.72.23 1.08.39 1.32.17.24.26-.08.1-.32-.13-1.22-.23-.91-.64-1.89-.42-.99-.83-1.91-.4-.92-.67-2.25-.27-1.32.02-2.71.3-1.39 1.11-2.55.82-1.17 2.54-2.07 1.72-.91 4.14-1.14 2.43-.24 4.29.08 1.87.32 2.94 1.35 1.08 1.02 1.13 2.13.05 1.1-.43 1.99-.48.89-1.79 1.61-1.32.73-2.78 1.17-1.46.45-2.51.69-1.05.25-1.68.38-.62.14-.6.34.02.21.5.56.47.34 1.51 1.18 1.04.83 2.15 1.94 1.11 1.1 2.07 2.17.95 1.08 1.98 2.27 1.04 1.2 1.96 2.08.92.87 1.81 1.39.89.51 2.74.98m-63.83-151.38q0 0 .07 1.21.07 1.21.12 2.84.06 1.63.1 3.53.05 1.89.07 3.7.03 1.8.1 4 .07 2.19.17 3.98.09 1.78.16 2.95.07 1.18.12 1.87.06.69.09 1.09.02.4.04.64.02.25.01.39 0 .14-.05.15-.04.02-.17-.06-.13-.07-.35-.25-.21-.17-.57-.44-.35-.28-.89-.67-.55-.4-1.2-.91-.65-.52-1.32-1.05-.67-.53-1.23-1-.56-.47-.94-.81-.38-.35-.6-.54-.23-.19-.35-.28-.13-.09-.06.03.06.13.4.52.34.38.97 1.04.62.65 1.48 1.46.86.82 1.81 1.57.96.76 1.79 1.25.84.49 1.53.7.69.22 1.31.01.62-.2 1.21-.78.58-.58 1.16-1.44.57-.86 1.08-1.8.5-.95.86-1.71.35-.77.56-1.26.21-.48.5-.81m-5.52 71.49q0 0-.22-.91-.22-.9-.34-1.39-.12-.48-.19-.64-.06-.15-.04.13.02.29.12 1.16.1.87.2 2.4.09 1.53.16 3.52.07 1.98.11 4.03.04 2.04.09 3.85.05 1.8.11 3.16.05 1.36.1 2.18.04.83.07 1.3.02.47.01.74-.01.28-.12.43-.11.15-.38.14-.27 0-.73-.21-.47-.2-1.06-.61-.6-.4-1.25-.96-.65-.56-1.29-1.24-.63-.68-1.22-1.34-.58-.66-1.09-1.16-.52-.5-.84-.81-.33-.3-.44-.34-.11-.04.17.31.27.34.84 1.07.56.73 1.34 1.75.77 1.02 1.68 2.06.92 1.05 1.83 1.86.91.81 1.69 1.27.78.46 1.46.5.69.03 1.41-.46.73-.49 1.48-1.46.75-.97 1.41-2.1.66-1.12 1.09-1.88.42-.77.66-1.28.23-.51.54-1.07.3-.55.78-1.34"/></g><path d="M497.97 282.58q0 0 0 2.34 0 2.35 0 5.8 0 3.44 0 8.06 0 4.61 0 11.27 0 6.65 0 12.98 0 6.34 0 13.61 0 7.28 0 16.49 0 9.2 0 17.48 0 8.28 0 17.06 0 8.78 0 17.41 0 8.63 0 16.86 0 8.23 0 16.04 0 7.82 0 15.24 0 7.43 0 14.47 0 7.04 0 13.39 0 6.35 0 11.79 0 5.44 0 10.11 0 4.67 0 8.73 0 4.07 0 7.47 0 3.4 0 6.3 0 2.9 0 4.84 0 1.94 0 3.14 0 1.21 0 1.88 0 .68 0 1 0 .31 0 .3 0-.01 0-.21 0-.2 0-.32 0-.13 0-.12 0 0 0 .03 0 .04 0 .16 0 .12 0 .36 0 .24 0 .55 0 .31 0 .49 0 .18 0 .24 0 .06 0 .07m.46.99q0 0 1.63 0 1.63 0 3.59 0 1.95 0 5.5 0 3.54 0 7.84 0 4.29 0 9.38 0 5.08 0 11.09 0 6.01 0 12.88 0 6.86 0 14.55 0 7.69 0 15.91 0 8.22 0 16.45 0 8.24 0 16.29 0 8.05 0 15.68 0 7.63 0 14.81 0 7.18 0 13.92 0 6.74 0 12.64 0 5.89 0 10.51 0 4.62 0 7.95 0 3.34 0 5.63 0 2.28 0 3.71 0 1.44 0 2.44 0 1 0 1.74 0 .74 0 1.25 0 .51 0 .87 0 .35 0 .56 0 .22 0 .35 0 .13 0 .29 0 .16 0 .48 0 .32 0 .73 0 .41 0 .84 0 .44 0 .84 0 .4 0 .72 0 .32 0 .51 0 .2 0 .32 0 .12 0 .51 0 .39 0 1.14 0 .75 0 2.03 0 1.28 0 3.15 0 1.88 0 4.12 0 2.25 0 4.31 0 2.06 0 3.52 0 1.45 0 2.29 0 .83 0 1.31 0 .48 0 .73 0 .24 0 .26 0 .02 0-.12 0M498.23 279.9q0 0 2.39 0 2.39 0 4.84 0 2.45 0 5.75 0 3.31 0 7.87 0 4.55 0 8.94 0 4.38 0 9.68 0 5.3 0 11.97 0 6.66 0 12.55 0 5.88 0 12.04 0 6.15 0 13.01 0 6.86 0 13.24 0 6.37 0 11.81 0 5.43 0 11.58 0 6.16 0 11.95 0 5.8 0 10.79 0 5 0 10.71 0 5.71 0 11.15 0 5.45 0 9.96 0 4.51 0 9.31 0 4.8 0 9.12 0 4.31 0 7.85 0 3.54 0 6.99 0 3.46 0 6.06 0 2.59 0 4.19 0 1.59 0 2.52 0 .92 0 1.52 0 .6 0 1.21 0 .61 0 1.31 0 .7 0 1.92 0 1.22 0 2.53 0 1.32 0 2.25 0 .93 0 1.46 0 .53 0 .5 0-.03 0-.28 0-.25 0-.49 0-.23 0-.41 0-.18 0-.31 0-.12 0-.29 0-.18 0-.42 0m2.63-.59q0 0 0 2.1 0 2.1 0 4.53 0 2.43 0 5.32 0 2.9 0 6.45 0 3.55 0 7.94 0 4.38 0 9.35 0 4.96 0 10.18 0 5.23 0 10.57 0 5.33 0 10.69 0 5.36 0 10.7 0 5.34 0 10.64 0 5.3 0 10.65 0 5.35 0 10.6 0 5.25 0 10.29 0 5.05 0 9.72 0 4.67 0 8.87 0 4.19 0 8.05 0 3.85 0 7.6 0 3.75 0 7.41 0 3.67 0 7.19 0 3.53 0 6.88 0 3.35 0 6.53 0 3.18 0 6.17 0 3 0 5.65 0 2.65 0 5.06 0 2.41 0 4.97 0 2.56 0 5.62 0 3.06 0 6.45 0 3.38 0 6.58 0 3.2 0 5.86 0 2.66 0 5.1 0 2.45 0 4.7 0 2.26 0 4.12 0 1.86 0 3.47 0 1.62 0 2.75 0 1.14 0 1.84 0 .7 0 1.15 0 .45 0 .88 0 .44 0 .84 0 .4 0 .77 0 .37 0 .69 0 .32 0 .59 0 .26 0 .58 0 .32 0 .79 0 .47 0 .99 0 .52 0 .87 0 .35 0 .48 0 .14 0-.07 0-.2 0-.68" stroke="#c6cbd1"/><g stroke="#788492"><path d="M496.34 179.3q0 0-.88 1.62-.87 1.62-1.5 3.52-.63 1.91-.89 3.69-.26 1.78-.14 3.05.11 1.28.79 1.94.68.66 1.64.47.96-.19 1.85-.95.9-.76 1.49-1.71.6-.95.95-1.66.34-.71.53-1.06.19-.35.4.01.21.36.64 1.34.44.97 1.26 2.15.83 1.18 1.88 2.05 1.05.87 2.06 1.21 1 .33 1.94-.05.93-.39 1.71-1.36.78-.97 1.24-2.41.46-1.44.54-3.13.08-1.69-.24-3.25-.32-1.56-.75-2.64-.42-1.08-1.01-2.41m9.52-3.42q0 0-.05 1.97-.04 1.97-.13 4.17-.08 2.2-.17 4.3-.09 2.11-.14 3.65-.04 1.54-.07 2.35-.03.81-.04 1.18-.02.37-.04.74"/><path d="M513.63 188.05q0 0 1.79-.39 1.8-.38 3.72-.72 1.93-.34 3.75-.66 1.82-.32 3.06-.59 1.24-.26 2.87-.62m2.88-9.94q0 0-.05 3.19-.04 3.2-.07 6.15-.02 2.95-.04 5.41-.01 2.46-.06 6.12m5.96-1.43q0 0 .36-1.55.36-1.55.81-3.53.45-1.98.99-4.24.54-2.26.97-3.83.43-1.57.83-2.44.4-.86.94-.76.55.11 1.11.91.56.8 1.13 2.52.57 1.73 1.09 4.07.53 2.34.89 4.13.36 1.79.6 2.91.24 1.12.54 1.66"/><path d="M534.96 190.26q0 0 2.71-.78 2.71-.77 5.09-1.43 2.38-.66 6.58-1.8m1.47-5.31q0 0 3.16-1.03 3.17-1.02 5.52-1.66 2.35-.64 5.61-1.43"/><path d="M558.64 178.46q0 0 .07 3.06.07 3.06.1 5.7.02 2.65.07 4.57.04 1.93.17 3.04.12 1.11.34 2.48m36.37-26.09q0 0-.21 1.8-.21 1.81-.25 4.01-.04 2.19-.06 4.41-.02 2.22-.03 4-.01 1.79-.07 2.86-.05 1.07-.24 1.55m-11.93-13.16q0 0 2.9-1.73 2.9-1.72 5.78-3.18 2.87-1.46 5.21-2.43 2.33-.97 5.99-2.07m.93 8.05q0 0 .27 1.55.28 1.56.43 3.55.16 1.99.14 3.9-.02 1.92-.06 3.18-.04 1.26-.31 2.23"/><path d="M600.26 183.35q0 0 2.65-.36 2.66-.35 5.12-.72 2.46-.36 4.14-.7 1.68-.34 3.98-.98m.35-8.27q0 0-.05 2.23-.04 2.23-.01 5.01.04 2.79.11 4.94.08 2.15.24 3.64.16 1.49.49 3.34m7.05-18.11q0 0-.05 2.53-.04 2.54-.07 4.93-.02 2.38-.01 4.04.02 1.66.07 3.75m-3.14-13.43q0 0 2.29-.34 2.29-.34 4.62-.75 2.33-.42 4.01-.71 1.69-.29 2.64-.45.96-.16 2.08-.36"/><path d="M621.98 183.81q0 0 2.34-.6 2.35-.6 4.19-1.04 1.84-.43 3.13-.72 1.3-.28 2.99-.66m-11.22 9.99q0 0 2.55-.27 2.56-.26 5.06-.55 2.51-.29 8.25-.94m26.35-15.85q0 0-.2 1.86-.19 1.87-.39 4.09-.21 2.21-.18 4.17.04 1.95.54 3.2.49 1.26 1.51 1.54 1.02.29 2.36-.4 1.33-.69 2.61-2.03 1.28-1.35 2.28-3.08 1-1.74 1.6-3.63.59-1.9.86-3.45.27-1.56.29-2.49.02-.94 0-1.15-.02-.21.03.58.05.79.31 2.38.26 1.59.68 3.52.42 1.93.94 3.64.53 1.71 1.11 2.78.58 1.08 1.43 2.41m15.86-17.72q0 0-2.05.74-2.05.75-4.02 1.68-1.98.94-3.23 1.82-1.25.88-1.65 1.65-.4.76.13 1.56.54.81 2.3 1.72 1.76.91 3.4 1.7 1.64.79 2.8 1.66 1.15.86 1.45 1.85.31.98-.08 1.79-.39.81-1.64 1.43-1.25.62-3.22.82-1.98.2-3.38-.07-1.39-.27-1.92-1-.52-.74-.03-2.39m19.61-13.98q0 0 .33 2.24.34 2.25.53 4.41.18 2.16.23 3.69.04 1.53.1 3.48"/><path d="M701.56 172.39q0 0 2.97-.43 2.98-.42 5.53-.73 2.55-.31 4.26-.48 1.72-.17 2.77-.21 1.05-.05 2.35-.08m-12.99 10.28q0 0 2.17-.44 2.17-.44 3.98-.82 1.8-.37 3.14-.66 1.35-.3 2.15-.47.8-.18 1.66-.27m-12.9 8.79q0 0 2.66-.28 2.67-.28 7.5-1.01m9.54-14.17q0 0 .27 2.68.28 2.69.52 5.16.24 2.48.4 4.34.16 1.87.69 3.88"/><path d="M724.91 172.65q0 0 1.92-.88 1.93-.87 3.84-1.4 1.91-.53 3.48-.55 1.57-.01 2.58.55 1.01.56 1.31 1.59.29 1.02-.11 2.16-.41 1.13-1.22 2.13-.81.99-1.75 1.71-.94.73-1.75 1.23-.82.5-1.32.82-.51.32-.71.65-.19.32.14.82.34.5 1.18 1.26.84.75 1.94 1.76 1.11 1 2.23 2.08 1.12 1.08 1.98 1.92.85.85 1.74 1.83.9.97 1.46 1.54.57.57 1.37 1.24m-224.24 18.74q0 0 .31 2.91.32 2.92.56 5.05.23 2.13.44 3.52.2 1.39.55 2.46"/><path d="M516.3 212.18q0 0 2.51-.13 2.51-.13 5.2.77 2.68.91 4.52 2.42 1.83 1.5 2.8 3.28.97 1.79 1.1 3.53.12 1.74-.65 3.27-.78 1.53-2.42 2.66-1.64 1.12-3.48 1.61-1.84.49-3.14.11-1.29-.39-2.56-2.01m18.3-15.31q0 0 .39 2.65.39 2.66.71 4.8.32 2.13.56 3.43.23 1.3.56 2.42m-5.54-15.46q0 0 1.99-.11 2-.1 4.2-.15 2.2-.06 4.1-.06 1.9 0 3.27.09 1.38.08 3.17.42m-11.25 8.03q0 0 2.14-.25 2.15-.25 3.83-.42 1.68-.16 4.18-.36"/><path d="M540.12 225.49q0 0 2.37.21 2.38.22 4.61.21 2.24-.01 6.63-.64m16.32-15.24q0 0-2.28.72-2.28.73-4.22 1.79-1.94 1.06-3.06 2.1-1.12 1.04-1.17 1.89-.04.85.92 1.41.97.56 2.61 1.04 1.64.48 3.47 1.16 1.82.68 2.92 1.4 1.1.72 1.47 1.62.38.89-.22 1.74-.6.85-1.64 1.43-1.05.58-2.72.89-1.67.31-3.62.12-1.94-.2-3.12-.66-1.18-.46-2.08-1.68m31.73-13.08q0 0-2.72 1.08-2.71 1.08-4.73 2.33-2.01 1.25-3.16 2.97-1.16 1.71-1.1 3.39.07 1.67.98 2.84.91 1.16 3.48 1.34 2.58.19 7.88-.82m8.43-15.61q0 0 .21 2.68.22 2.69.36 4.97.14 2.29.27 3.82.13 1.52.28 2.21.15.68.24.5.1-.18-.05-.89-.15-.71-.62-1.7-.46-.99-1.07-1.96-.61-.97-1.13-1.8-.52-.83-.81-1.53-.29-.71.27-1.71.55-1.01 1.85-1.94 1.3-.94 3.02-1.5 1.73-.55 3.35-.5 1.63.06 2.65.57 1.03.51 1.32 1.22.3.7-.03 1.41-.32.72-1.18 1.45-.86.72-1.88 1.42-1.02.7-2.15 1.55-1.13.85-1.74 1.64-.61.79-.38 1.56.23.78 1.18 1.55.95.78 2.3 1.5 1.35.72 2.8 1.34 1.45.62 2.66 1.06 1.21.44 3.13 1.05m7.59-19.01q0 0 .32 2.1.32 2.1.66 4.4.34 2.3.65 4.35.32 2.06.53 3.29.2 1.23.52 2.84m10.76-17.11q0 0 .16 2.42.16 2.42.32 4.77.16 2.34.32 4.03.17 1.69.53 3.78m-3.74-16.89q0 0 1.96-.43 1.97-.43 4-.45 2.02-.03 3.46.47 1.43.51 2.08 1.44.65.92.5 1.93-.15 1-.89 1.78-.74.77-1.68 1.22-.93.44-1.57.68-.63.25-.67.37-.05.12.73.16.78.03 2.31.11 1.52.08 3.24.48 1.72.39 2.96 1.31 1.24.92 1.8 1.89.55.98.32 2.04-.24 1.07-1.49 2.19-1.25 1.13-2.81 1.93-1.55.8-3.46 1.21-1.91.41-3.49.01-1.58-.4-3.01-2.36m21.08-12.98q0 0 .38 2.43.38 2.44.59 4.27.21 1.82.34 2.99.13 1.17.32 2.49m-3.06-13.42q0 0 1.95-.52 1.96-.51 3.97-.92 2.01-.42 4.1-.72 2.09-.3 3.7-.47 1.61-.16 3.73-.37m-14.58 9.58q0 0 2.65-.08 2.66-.07 4.63-.14 1.98-.07 3.13-.1 1.15-.04 2.54-.09m-14.19 9.16q0 0 2.11-.12 2.12-.12 4.28-.19 2.16-.06 4.08-.08 1.93-.02 5.38-.05m22.9-18.68q0 0-2.12.52-2.12.53-3.95 1.27-1.82.74-2.98 1.52-1.15.77-1.43 1.61-.27.84.44 1.58.71.74 2.21 1.47 1.51.73 3.21 1.59 1.71.85 2.9 1.75 1.19.89 1.77 2.15.58 1.25.37 2.48-.22 1.24-1.26 2.33-1.04 1.09-2.46 1.8-1.42.72-3.64.96-2.21.24-3.92.03-1.7-.2-2.21-1.19-.5-.99-.24-2.8m235.87-45.7q0 0-.54.61-.54.61-1.07 1.75-.53 1.15-1.05 3.19-.51 2.05-.71 3.88-.19 1.83.04 3.02.22 1.19 1.33 1.48 1.1.29 2.41-.21 1.31-.5 2.31-1.28 1-.79 1.57-1.38.57-.6.88-.81.32-.21.55.23.23.43.56 1.16.34.72 1.21 1.65.87.92 1.93 1.48 1.07.55 2.15.58 1.09.03 1.99-.39.9-.42 1.51-1.33.6-.9.93-2.35.33-1.45.39-3.26.05-1.8-.29-3.49-.34-1.68-.84-2.87-.51-1.2-1.07-2.67m10.6 1.73q0 0 .1 1.72.1 1.72.23 3.79.13 2.08.24 3.97.12 1.89.23 3.05.11 1.17.22 1.4.12.23.2-1.18"/><path d="M939.91 182.96q0 0 1.97.26 1.97.26 3.89.32 1.92.05 3.48.01 1.56-.04 3.84-.29m.98-9.82q0 0 .35 2.9.35 2.9.69 5.68.34 2.77.58 5.07.25 2.31.55 3.71.29 1.41.85 2.98m4.09-3.06q0 0 .93-2.59.94-2.58 1.67-5.14.74-2.57 1.29-4.79.55-2.22.93-3.54.38-1.31.82-1.83.44-.52 1.18.18.74.7 1.41 1.96.67 1.25 1.31 3.13.63 1.89 1.19 4.15.55 2.25.92 3.79.36 1.54.59 2.43.23.89.36 1.04.13.14.19.02"/><path d="M964.31 185.83q0 0 2.32-.65 2.32-.64 4.36-1.27 2.04-.63 4.17-1.29 2.14-.66 5.33-1.63m-4.24-6.77q0 0 2.42-.47 2.42-.47 4.88-.8 2.47-.33 4.31-.51 1.84-.18 3.06-.2 1.22-.01 2.57 0"/><path d="M986.29 172.26q0 0-.08 2.01-.07 2.02-.14 4.39-.07 2.37-.12 4.62-.05 2.26-.02 3.82.03 1.57.52 3.34m29.92-16.81q0 0-.6.19-.6.19-.82.29-.21.11.56.05.77-.06 2.39-.36 1.63-.29 3.38-.61 1.76-.33 3.58-.59 1.82-.27 3.11-.42 1.3-.14 2-.15.7-.01.73.17.02.19-.57.68m-4.76 1.21q0 0-.2 2.01-.19 2.01-.32 4.34-.13 2.32-.25 4.19-.12 1.87-.21 3.03-.1 1.16.01 1.54.11.38.34.69m11.85-17.76q0 0 .14 2.43.15 2.44.23 4.71.08 2.26.12 3.94.05 1.68.1 3.62"/><path d="M1031.24 181.07q0 0 2.42-.35 2.42-.35 4.46-.66 2.04-.32 3.59-.5 1.55-.19 2.49-.26.95-.07 2.11-.1m2.08-9.22q0 0 .19 1.91.19 1.91.29 4.15.11 2.24.09 4.45-.01 2.22-.11 3.97-.1 1.74-.16 2.77-.07 1.02.11 1.8m6.9-18.66q0 0 .59 2.32.6 2.32.86 4.55.26 2.23.38 3.84.13 1.61.22 2.36.08.74.32.88"/><path d="M1054.27 172.13q0 0 2.56-.37 2.57-.36 4.79-.73 2.22-.36 3.8-.57 1.58-.22 2.46-.19.89.03 1.27.55m-12.8 9.66q0 0 2.2-.17 2.2-.16 3.7-.25 1.49-.09 2.36-.08.87.01 1.21.27.33.25.44.43.12.19.16.51m-9.03 5.69q0 0 2.64.33 2.64.34 5.12.32 2.48-.02 6.95-.5m30.7-14.96q0 0-.58 2.45-.57 2.45-1.04 4.84-.47 2.39-.71 4.06-.23 1.67.16 2.7.4 1.02 1.48 1.41 1.08.4 2.38.45 1.29.06 2.83.03 1.53-.03 2.78-.07 1.24-.05 2.14-.13.91-.08 2.45-.61m8.07-15.2q0 0 .04 2.04.04 2.04.06 4.4.03 2.35.13 4.56.1 2.2.58 5.06m11.19-19.84q0 0 .1 2.43.1 2.44.04 4.94-.06 2.5-.14 4.45-.07 1.95-.04 4.23"/><path d="M1133.71 171.09q0 0 2-.66 2-.66 3.61-.44 1.62.22 2.5 1.1.88.88.91 2 .03 1.11-.46 1.99-.49.88-1.17 1.38-.68.5-1.15.78-.46.27-.48.44-.03.16.59.43.61.27 1.7.81 1.08.55 2.23 1.34 1.16.79 1.9 1.8.74 1.01.82 2.1.09 1.08-.5 1.97-.6.89-1.7 1.42-1.1.54-2.38.5-1.28-.04-2.2-.88-.93-.83-1.72-3.27m18.47-15.48q0 0-.4 2.53-.39 2.54-.86 5.24-.46 2.7-.8 4.82-.33 2.13-.45 3.25-.13 1.13-.12 1.08 0-.05.01-1.01 0-.96-.06-2.58-.06-1.63-.03-3.42.03-1.79.6-3.3.57-1.52 1.96-2.54 1.39-1.03 3.33-1.41 1.94-.37 3.51.05 1.56.42 2.18 1.41.62.99.2 2.12-.41 1.13-1.46 2.09-1.05.96-2.29 1.71-1.23.75-2.12 1.4-.89.65-1.03 1.36-.14.7.68 1.55.81.84 2.21 1.82 1.39.98 2.82 1.96 1.43.97 4.44 2.51m10.38-1.27q0 0 .39-1.84.39-1.84.95-3.94.55-2.1 1.15-4.26.6-2.17 1.09-3.89.49-1.72.87-2.73.39-1.01.82-1.01.44-.01.84 1.14.4 1.15.62 3.19.22 2.04.2 4.49-.03 2.45-.09 4.44-.05 1.98-.12 4.4"/><path d="M1180.75 182.24q0 0 2.4-.68 2.41-.67 4.81-1.14 2.39-.47 5.87-1.05m-.3-8.15q0 0 .8 1.83.8 1.84 1.25 3.65.44 1.8.67 3.56.23 1.75.78 3.95"/><path d="M1194.32 173.44q0 0 2.65-1.36 2.66-1.36 4.91-2.02 2.26-.67 3.97-.39 1.71.27 2.34 1.04.62.76.12 1.76-.5.99-1.78 1.89-1.29.9-2.84 1.57-1.56.67-2.72 1.14-1.17.48-1.65.99-.49.51-.01 1.07.48.55 1.5 1.1 1.02.54 2.56 1.3 1.55.77 2.95 1.43 1.41.65 3.8 1.46m7.22-13.07q0 0 1.24 2.13 1.24 2.13 2.8 6.19m-3.06 15.36q0 0 1.82-3.1 1.82-3.09 3.76-6.5 1.95-3.4 3.55-6.43 1.6-3.04 2.77-5.72 1.17-2.68 1.84-4.4.66-1.72 1.38-3.84M977.75 211.4q0 0-2.08.48-2.07.48-3.65 1.01-1.59.53-2.59 1.17-1.01.64-1.13 1.32-.11.67.67 1.35.78.68 2.13 1.5 1.35.81 2.72 1.74 1.38.93 2.26 1.96.87 1.02 1.11 1.97.23.95-.16 1.66-.4.71-1.46 1.12-1.07.41-2.78.5-1.71.09-3.59-.12-1.88-.21-3.15-.62-1.27-.4-1.87-1.72m18.79-11.3q0 0 .37 2.04.38 2.05.61 4.39.22 2.34.34 4.32.13 1.98.2 3.16.07 1.18.1 1.38.04.2.05-.47"/><path d="M977.56 221.05q0 0 2.96-.21 2.96-.2 5.36-.31 2.39-.12 4.03-.22 1.65-.11 3.78-.3m1.22-9.46q0 0 .02 2.33.03 2.34.12 4.94.09 2.6.24 4.89.15 2.28.41 3.77.26 1.48.46 2.3.2.81.51 1.82m9.46-6.94q0 0-1.01-1.16-1.01-1.15-1.44-2.65-.42-1.5-.12-3.07.31-1.57 1.35-2.79 1.05-1.22 2.56-1.61 1.51-.4 2.97.19 1.47.58 2.39 1.94.92 1.36 1.2 3.01.28 1.66-.12 3.14-.4 1.49-1.43 2.45-1.02.97-2.48 1.31-1.46.35-2.67-.08-1.21-.42-2.03-2.73m16.35-9.04q0 0-.46 2.55-.45 2.56-.64 4.9-.19 2.35.23 3.95.42 1.6 1.52 2.2 1.11.59 2.61.11 1.51-.47 2.96-1.7 1.46-1.22 2.53-2.79 1.07-1.57 1.67-3.13.61-1.57.87-2.77.26-1.2.39-1.89.13-.69.23-.67.1.02.36.9.26.87.58 2.35.32 1.48.68 3.16.37 1.67.88 2.98.51 1.3 1.46 2.98m7.22-13.65q0 0-.06 1.7-.06 1.71-.11 3.34-.05 1.63.05 3.15.09 1.51.53 2.62.45 1.12 1.04 1.73.6.62 1.69.82 1.09.21 2.29.18 1.2-.03 2.28-.15 1.09-.12 2.17-.32 1.08-.19 1.85-.3.78-.11 1.2-.11.43 0 .96.1m7.77-11.65q0 0-.17 2.33-.16 2.34-.23 4.39-.07 2.05-.07 3.89 0 1.85.18 2.84.17 1 .59 1.9m-5.45-16q0 0 3.18-.03 3.18-.03 6.03.45 2.85.48 4.75 1.25 1.89.78 2.96 2.16 1.06 1.37 1.25 2.89.2 1.52-.32 2.96-.53 1.44-1.59 2.57-1.06 1.13-2.61 1.87-1.55.75-3.21.99-1.66.25-2.67-.3-1.02-.55-1.86-1.91m49.08-15.97q0 0 .15 1.31.16 1.32.25 3.06.09 1.75.14 3.49.05 1.74.07 2.99.03 1.25.04 1.86.02.6.01.34"/><path d="M1115 213.42q0 0 1.85-1.9 1.85-1.9 3.91-3.11 2.06-1.2 3.81-1.43 1.75-.24 2.88.56 1.13.79 1.47 2.06.35 1.27.04 2.5-.3 1.22-1.11 2.06-.81.84-2.27 1.34-1.45.49-2.77.76-1.31.27-2.11.42-.8.15-1.04.34-.24.18.74.8.98.61 2.31 1.39 1.33.77 2.9 1.92 1.56 1.14 2.86 2.42 1.31 1.27 2.04 2.12.73.85 1.14 1.29.4.44.9.82m8.67-17.23q0 0-.69.9-.69.91-1.18 2.71-.5 1.79-.41 3.5.09 1.71.7 2.91.6 1.19 2.26 1.6 1.67.41 3.58.02 1.91-.38 3.42-1.16 1.5-.78 2.67-2.3 1.17-1.51 1.85-3.27.67-1.75.89-3.33.21-1.59.19-2.65-.01-1.07-.05-1.48-.03-.41-.05-.07-.02.34.17 1.96.19 1.62.38 3.84.2 2.22.38 4.27.18 2.05 1.15 5.55m9.79-13.13q0 0-.4 1.66-.4 1.66-.89 3.64-.5 1.97-.83 3.64-.33 1.67-.41 2.67-.08 1 .15 1.05.23.05.56-.71.33-.75.59-2.05.26-1.3.4-2.78.14-1.49.14-2.82-.01-1.34-.08-2.28-.06-.94.02-1.14.08-.2.48.29.4.49 1.08 1.52.69 1.03 1.63 2.37.95 1.34 2.19 2.68 1.24 1.34 2.59 2.3 1.36.96 2.63 1.45 1.28.49 2.3.43 1.03-.05 1.76-.62.72-.57 1.12-1.69.4-1.12.41-2.71 0-1.6-.43-3.44-.44-1.84-1.16-3.52-.72-1.68-1.41-2.95-.7-1.28-1.68-3.02m-39.4 12.16q0 0 .39-1.43.39-1.43.73-2.79.33-1.36.59-2.46.26-1.1.46-1.87.2-.77.54-1.29.35-.51 1.1-1.17"/></g></g></svg>
