<svg xmlns="http://www.w3.org/2000/svg" viewBox="562.27 154.5 711.31 404.87" width="679.31" height="372.87"><g id="ff707999-3ccd-4b13-0166-c6b401d1665b_svg" class="tl-centered-g" transform="translate(634.23, 500.71) rotate(0, 299.96, 0.55)"><g opacity="1"><path d="M 0,1.11 Q 0,1.11 1.59,1.11 3.18,1.11 5.30,1.11 7.42,1.11 10.85,1.11 14.29,1.11 18.74,1.11 23.19,1.11 28.93,1.11 34.68,1.11 41.79,1.11 48.91,1.11 57.46,1.11 66.02,1.11 75.94,1.11 85.87,1.11 97.07,1.11 108.28,1.11 120.79,1.11 133.30,1.11 147.05,1.11 160.81,1.11 175.59,1.11 190.38,1.11 205.97,1.11 221.57,1.11 237.71,1.11 253.86,1.11 270.36,1.11 286.85,1.11 303.43,1.11 320.00,1.11 336.25,1.11 352.50,1.11 368.24,1.11 383.97,1.11 399.01,1.11 414.06,1.11 428.19,1.11 442.33,1.11 455.35,1.11 468.37,1.11 480.13,1.11 491.89,1.11 502.15,1.11 512.42,1.11 521.24,1.11 530.07,1.11 537.36,1.11 544.66,1.11 550.14,1.11 555.62,1.11 560.47,1.11 565.32,1.11 568.96,1.11 572.60,1.11 575.01,1.11 577.41,1.11 578.77,1.11 580.13,1.11 580.90,1.11 581.66,1.11 582.16,1.11 582.66,1.11 582.99,1.11 583.32,1.11 583.58,1.11 583.83,1.11 584.14,1.11 584.44,1.11 584.97,1.11 585.50,1.11 586.60,1.11 587.70,1.11 589.18,1.11 590.66,1.11 592.11,1.11 593.55,1.11 594.73,1.11 595.91,1.11 596.75,1.11 597.59,1.11 598.11,1.11 598.63,1.11 598.84,1.11 599.04,1.11 599.09,1.11 599.14,1.11 599.04,1.11 598.94,1.11 598.71,1.11 598.48,1.11 597.96,1.11" fill="none" stroke="none" stroke-width="4" stroke-linejoin="round" stroke-linecap="round" pointer-events="stroke"/><path d="M 0,1.11 Q 0,1.11 1.59,1.11 3.18,1.11 5.30,1.11 7.42,1.11 10.85,1.11 14.29,1.11 18.74,1.11 23.19,1.11 28.93,1.11 34.68,1.11 41.79,1.11 48.91,1.11 57.46,1.11 66.02,1.11 75.94,1.11 85.87,1.11 97.07,1.11 108.28,1.11 120.79,1.11 133.30,1.11 147.05,1.11 160.81,1.11 175.59,1.11 190.38,1.11 205.97,1.11 221.57,1.11 237.71,1.11 253.86,1.11 270.36,1.11 286.85,1.11 303.43,1.11 320.00,1.11 336.25,1.11 352.50,1.11 368.24,1.11 383.97,1.11 399.01,1.11 414.06,1.11 428.19,1.11 442.33,1.11 455.35,1.11 468.37,1.11 480.13,1.11 491.89,1.11 502.15,1.11 512.42,1.11 521.24,1.11 530.07,1.11 537.36,1.11 544.66,1.11 550.14,1.11 555.62,1.11 560.47,1.11 565.32,1.11 568.96,1.11 572.60,1.11 575.01,1.11 577.41,1.11 578.77,1.11 580.13,1.11 580.90,1.11 581.66,1.11 582.16,1.11 582.66,1.11 582.99,1.11 583.32,1.11 583.58,1.11 583.83,1.11 584.14,1.11 584.44,1.11 584.97,1.11 585.50,1.11 586.60,1.11 587.70,1.11 589.18,1.11 590.66,1.11 592.11,1.11 593.55,1.11 594.73,1.11 595.91,1.11 596.75,1.11 597.59,1.11 598.11,1.11 598.63,1.11 598.84,1.11 599.04,1.11 599.09,1.11 599.14,1.11 599.04,1.11 598.94,1.11 598.71,1.11 598.48,1.11 597.96,1.11" fill="none" stroke="#788492" stroke-width="4" stroke-dasharray="none" stroke-dashoffset="none" stroke-linejoin="round" stroke-linecap="round" pointer-events="stroke"/></g></g><g id="87f50f3a-0c39-478a-03df-e2df13c82779_svg" class="tl-centered-g" transform="translate(1220.33, 524.45) rotate(0, 7.83, 8.12)"><g opacity="1"><path d="M 1.11,13.64 Q 1.11,13.64 1.60,13.78 2.10,13.93 3.26,13.26 4.43,12.60 6.04,11.28 7.64,9.96 9.16,8.46 10.67,6.96 11.74,5.71 12.81,4.46 13.45,3.55 14.09,2.63 14.41,2.04 14.73,1.45 14.66,1.13 14.59,0.80 14.40,0.40" fill="none" stroke="none" stroke-width="4" stroke-linejoin="round" stroke-linecap="round" pointer-events="stroke"/><path d="M 1.11,13.64 Q 1.11,13.64 1.60,13.78 2.10,13.93 3.26,13.26 4.43,12.60 6.04,11.28 7.64,9.96 9.16,8.46 10.67,6.96 11.74,5.71 12.81,4.46 13.45,3.55 14.09,2.63 14.41,2.04 14.73,1.45 14.66,1.13 14.59,0.80 14.40,0.40" fill="none" stroke="#c6cbd1" stroke-width="4" stroke-dasharray="none" stroke-dashoffset="none" stroke-linejoin="round" stroke-linecap="round" pointer-events="stroke"/></g></g><g id="ba935a02-287c-406a-34f4-80163a6c0317_svg" class="tl-centered-g" transform="translate(1222.68, 526.67) rotate(0, 7.73, 8.35)"><g opacity="1"><path d="M 0.2,0 Q 0.2,0 1.24,1.29 2.29,2.59 3.98,4.35 5.67,6.10 7.45,7.98 9.24,9.85 10.58,11.34 11.93,12.83 12.72,13.69 13.51,14.56 14.48,15.30" fill="none" stroke="none" stroke-width="4" stroke-linejoin="round" stroke-linecap="round" pointer-events="stroke"/><path d="M 0.2,0 Q 0.2,0 1.24,1.29 2.29,2.59 3.98,4.35 5.67,6.10 7.45,7.98 9.24,9.85 10.58,11.34 11.93,12.83 12.72,13.69 13.51,14.56 14.48,15.30" fill="none" stroke="#c6cbd1" stroke-width="4" stroke-dasharray="none" stroke-dashoffset="none" stroke-linejoin="round" stroke-linecap="round" pointer-events="stroke"/></g></g><g id="14f5a263-992f-48ab-341c-963668fd49c1_svg" class="tl-centered-g" transform="translate(744.68, 179.24) rotate(0, 7.56, 9.23)"><g opacity="1"><path d="M 13.89,0.07 Q 13.89,0.07 11.99,0.66 10.09,1.26 8.49,1.85 6.88,2.45 5.85,2.95 4.82,3.45 4.41,4.05 4.00,4.65 4.48,5.45 4.95,6.24 6.20,7.18 7.46,8.12 8.94,9.19 10.42,10.27 11.48,11.37 12.53,12.47 12.98,13.53 13.43,14.59 13.12,15.42 12.81,16.24 11.68,16.73 10.55,17.23 8.81,17.29 7.08,17.34 5.49,16.86 3.91,16.38 3.06,15.59 2.21,14.80 3.22,12.55" fill="none" stroke="none" stroke-width="4" stroke-linejoin="round" stroke-linecap="round" pointer-events="stroke"/><path d="M 13.89,0.07 Q 13.89,0.07 11.99,0.66 10.09,1.26 8.49,1.85 6.88,2.45 5.85,2.95 4.82,3.45 4.41,4.05 4.00,4.65 4.48,5.45 4.95,6.24 6.20,7.18 7.46,8.12 8.94,9.19 10.42,10.27 11.48,11.37 12.53,12.47 12.98,13.53 13.43,14.59 13.12,15.42 12.81,16.24 11.68,16.73 10.55,17.23 8.81,17.29 7.08,17.34 5.49,16.86 3.91,16.38 3.06,15.59 2.21,14.80 3.22,12.55" fill="none" stroke="#1d1d1d" stroke-width="4" stroke-dasharray="none" stroke-dashoffset="none" stroke-linejoin="round" stroke-linecap="round" pointer-events="stroke"/></g></g><g id="3e01d75b-db38-48eb-3cfc-3f7f38ed8314_svg" class="tl-centered-g" transform="translate(765.16, 178.78) rotate(0, 8.12, 9.03)"><g opacity="1"><path d="M 4.5,17.82 Q 4.5,17.82 3.49,15.61 2.48,13.41 2.23,11.46 1.98,9.51 2.60,7.67 3.22,5.84 4.61,4.53 6.01,3.22 7.75,2.85 9.50,2.48 11.01,3.14 12.51,3.79 13.30,5.44 14.09,7.09 14.18,8.57 14.26,10.04 13.55,11.37 12.84,12.70 11.06,13.52 9.28,14.35 7.55,14.42 5.82,14.49 4.56,13.73 3.30,12.97 2.17,10.92" fill="none" stroke="none" stroke-width="4" stroke-linejoin="round" stroke-linecap="round" pointer-events="stroke"/><path d="M 4.5,17.82 Q 4.5,17.82 3.49,15.61 2.48,13.41 2.23,11.46 1.98,9.51 2.60,7.67 3.22,5.84 4.61,4.53 6.01,3.22 7.75,2.85 9.50,2.48 11.01,3.14 12.51,3.79 13.30,5.44 14.09,7.09 14.18,8.57 14.26,10.04 13.55,11.37 12.84,12.70 11.06,13.52 9.28,14.35 7.55,14.42 5.82,14.49 4.56,13.73 3.30,12.97 2.17,10.92" fill="none" stroke="#1d1d1d" stroke-width="4" stroke-dasharray="none" stroke-dashoffset="none" stroke-linejoin="round" stroke-linecap="round" pointer-events="stroke"/></g></g><g id="eb59d52b-1775-48ef-204c-d764fc0cdf92_svg" class="tl-centered-g" transform="translate(789.88, 175.27) rotate(0, 9.55, 9.49)"><g opacity="1"><path d="M 0.85,4.95 Q 0.85,4.95 0.92,7.57 0.99,10.20 0.97,12.16 0.95,14.13 0.91,15.08 0.87,16.03 0.85,16.02 0.83,16.01 0.82,14.99 0.80,13.98 0.78,12.10 0.76,10.23 0.68,8.74 0.59,7.25 0.46,6.22 0.33,5.20 0.31,4.78 0.29,4.36 0.62,4.71 0.95,5.06 1.71,6.01 2.48,6.96 3.53,7.94 4.57,8.92 5.81,9.29 7.05,9.65 8.17,9.36 9.29,9.06 10.42,7.88 11.55,6.70 12.35,5.41 13.15,4.13 13.64,3.21 14.12,2.28 14.39,1.83 14.66,1.37 14.87,1.75 15.07,2.13 15.33,3.28 15.59,4.44 15.85,6.14 16.11,7.85 16.36,9.65 16.61,11.45 16.87,12.77 17.14,14.09 17.54,14.64 17.94,15.19 18.52,15.71" fill="none" stroke="none" stroke-width="4" stroke-linejoin="round" stroke-linecap="round" pointer-events="stroke"/><path d="M 0.85,4.95 Q 0.85,4.95 0.92,7.57 0.99,10.20 0.97,12.16 0.95,14.13 0.91,15.08 0.87,16.03 0.85,16.02 0.83,16.01 0.82,14.99 0.80,13.98 0.78,12.10 0.76,10.23 0.68,8.74 0.59,7.25 0.46,6.22 0.33,5.20 0.31,4.78 0.29,4.36 0.62,4.71 0.95,5.06 1.71,6.01 2.48,6.96 3.53,7.94 4.57,8.92 5.81,9.29 7.05,9.65 8.17,9.36 9.29,9.06 10.42,7.88 11.55,6.70 12.35,5.41 13.15,4.13 13.64,3.21 14.12,2.28 14.39,1.83 14.66,1.37 14.87,1.75 15.07,2.13 15.33,3.28 15.59,4.44 15.85,6.14 16.11,7.85 16.36,9.65 16.61,11.45 16.87,12.77 17.14,14.09 17.54,14.64 17.94,15.19 18.52,15.71" fill="none" stroke="#1d1d1d" stroke-width="4" stroke-dasharray="none" stroke-dashoffset="none" stroke-linejoin="round" stroke-linecap="round" pointer-events="stroke"/></g></g><g id="03537343-1005-4ce4-299f-60b9a33d0db1_svg" class="tl-centered-g" transform="translate(814.34, 178.13) rotate(0, 0.59, 7.14)"><g opacity="1"><path d="M 0,0.2 Q 0,0.2 0.23,3.01 0.46,5.83 0.59,7.72 0.72,9.61 0.79,10.50 0.86,11.38 0.95,12.08" fill="none" stroke="none" stroke-width="4" stroke-linejoin="round" stroke-linecap="round" pointer-events="stroke"/><path d="M 0,0.2 Q 0,0.2 0.23,3.01 0.46,5.83 0.59,7.72 0.72,9.61 0.79,10.50 0.86,11.38 0.95,12.08" fill="none" stroke="#1d1d1d" stroke-width="4" stroke-dasharray="none" stroke-dashoffset="none" stroke-linejoin="round" stroke-linecap="round" pointer-events="stroke"/></g></g><g id="7a7beebd-e3ff-4bc3-1ab4-84da2b885975_svg" class="tl-centered-g" transform="translate(811.34, 176.77) rotate(0, 7.11, 0.65)"><g opacity="1"><path d="M 0,1.3 Q 0,1.3 2.23,1.00 4.46,0.71 6.38,0.55 8.30,0.39 9.63,0.35 10.95,0.30 11.63,0.29 12.32,0.28 12.66,0.27 12.99,0.27 13.31,0.26" fill="none" stroke="none" stroke-width="4" stroke-linejoin="round" stroke-linecap="round" pointer-events="stroke"/><path d="M 0,1.3 Q 0,1.3 2.23,1.00 4.46,0.71 6.38,0.55 8.30,0.39 9.63,0.35 10.95,0.30 11.63,0.29 12.32,0.28 12.66,0.27 12.99,0.27 13.31,0.26" fill="none" stroke="#1d1d1d" stroke-width="4" stroke-dasharray="none" stroke-dashoffset="none" stroke-linejoin="round" stroke-linecap="round" pointer-events="stroke"/></g></g><g id="28504271-7beb-49c3-3a0d-18d46323ccea_svg" class="tl-centered-g" transform="translate(812.71, 184.59) rotate(0, 6.52, 0.5)"><g opacity="1"><path d="M 0,0.13 Q 0,0.13 2.39,0.10 4.78,0.07 6.51,0.05 8.24,0.03 9.32,0.03 10.39,0.02 11.55,0.17" fill="none" stroke="none" stroke-width="4" stroke-linejoin="round" stroke-linecap="round" pointer-events="stroke"/><path d="M 0,0.13 Q 0,0.13 2.39,0.10 4.78,0.07 6.51,0.05 8.24,0.03 9.32,0.03 10.39,0.02 11.55,0.17" fill="none" stroke="#1d1d1d" stroke-width="4" stroke-dasharray="none" stroke-dashoffset="none" stroke-linejoin="round" stroke-linecap="round" pointer-events="stroke"/></g></g><g id="2aa8105b-3a3e-4ea3-158b-8dfe686d0fd3_svg" class="tl-centered-g" transform="translate(813.95, 191.7) rotate(0, 9.62, 0.5)"><g opacity="1"><path d="M 0.26,0 Q 0.26,0 2.30,0.21 4.34,0.43 6.43,0.55 8.53,0.68 13.88,0.83" fill="none" stroke="none" stroke-width="4" stroke-linejoin="round" stroke-linecap="round" pointer-events="stroke"/><path d="M 0.26,0 Q 0.26,0 2.30,0.21 4.34,0.43 6.43,0.55 8.53,0.68 13.88,0.83" fill="none" stroke="#1d1d1d" stroke-width="4" stroke-dasharray="none" stroke-dashoffset="none" stroke-linejoin="round" stroke-linecap="round" pointer-events="stroke"/></g></g><g id="e1cbe66f-7bff-4e7e-197b-cbdaf80fbb3f_svg" class="tl-centered-g" transform="translate(871.55, 175.92) rotate(0, 0.65, 7.99)"><g opacity="1"><path d="M 0,1.3 Q 0,1.3 0.02,3.08 0.05,4.86 0.10,6.80 0.14,8.75 0.23,10.35 0.31,11.95 0.43,12.85 0.54,13.75 0.68,13.80 0.82,13.84 0.93,13.72 1.03,13.60 1.16,13.22" fill="none" stroke="none" stroke-width="4" stroke-linejoin="round" stroke-linecap="round" pointer-events="stroke"/><path d="M 0,1.3 Q 0,1.3 0.02,3.08 0.05,4.86 0.10,6.80 0.14,8.75 0.23,10.35 0.31,11.95 0.43,12.85 0.54,13.75 0.68,13.80 0.82,13.84 0.93,13.72 1.03,13.60 1.16,13.22" fill="none" stroke="#1d1d1d" stroke-width="4" stroke-dasharray="none" stroke-dashoffset="none" stroke-linejoin="round" stroke-linecap="round" pointer-events="stroke"/></g></g><g id="ad230b3a-a6f7-4ed0-0f71-0d19bae591df_svg" class="tl-centered-g" transform="translate(869.72, 173.83) rotate(0, 8.77, 1.20)"><g opacity="1"><path d="M 0,2.41 Q 0,2.41 2.46,1.94 4.93,1.47 7.26,1.14 9.58,0.81 11.35,0.70 13.11,0.59 14.11,0.62 15.10,0.65 16.26,0.78" fill="none" stroke="none" stroke-width="4" stroke-linejoin="round" stroke-linecap="round" pointer-events="stroke"/><path d="M 0,2.41 Q 0,2.41 2.46,1.94 4.93,1.47 7.26,1.14 9.58,0.81 11.35,0.70 13.11,0.59 14.11,0.62 15.10,0.65 16.26,0.78" fill="none" stroke="#1d1d1d" stroke-width="4" stroke-dasharray="none" stroke-dashoffset="none" stroke-linejoin="round" stroke-linecap="round" pointer-events="stroke"/></g></g><g id="ed7261a0-890a-4e33-3b33-4a1c01a700a6_svg" class="tl-centered-g" transform="translate(873.7, 182.25) rotate(0, 6.52, 0.71)"><g opacity="1"><path d="M 0,1.3 Q 0,1.3 2.26,1.00 4.52,0.71 6.27,0.55 8.01,0.39 9.14,0.35 10.26,0.30 11.65,0.27" fill="none" stroke="none" stroke-width="4" stroke-linejoin="round" stroke-linecap="round" pointer-events="stroke"/><path d="M 0,1.3 Q 0,1.3 2.26,1.00 4.52,0.71 6.27,0.55 8.01,0.39 9.14,0.35 10.26,0.30 11.65,0.27" fill="none" stroke="#1d1d1d" stroke-width="4" stroke-dasharray="none" stroke-dashoffset="none" stroke-linejoin="round" stroke-linecap="round" pointer-events="stroke"/></g></g><g id="fd84967d-65e0-40fe-2ad6-e98bd199cb55_svg" class="tl-centered-g" transform="translate(872.53, 189.42) rotate(0, 8.67, 0.5)"><g opacity="1"><path d="M 0.52,0 Q 0.52,0 2.51,0.11 4.51,0.23 6.32,0.29 8.12,0.36 9.85,0.41 11.58,0.46 14.46,0.49" fill="none" stroke="none" stroke-width="4" stroke-linejoin="round" stroke-linecap="round" pointer-events="stroke"/><path d="M 0.52,0 Q 0.52,0 2.51,0.11 4.51,0.23 6.32,0.29 8.12,0.36 9.85,0.41 11.58,0.46 14.46,0.49" fill="none" stroke="#1d1d1d" stroke-width="4" stroke-dasharray="none" stroke-dashoffset="none" stroke-linejoin="round" stroke-linecap="round" pointer-events="stroke"/></g></g><g id="b95743a8-fe6c-46b8-2089-114500817c77_svg" class="tl-centered-g" transform="translate(894.38, 174.87) rotate(0, 1.56, 9.43)"><g opacity="1"><path d="M 0,0.46 Q 0,0.46 0.33,2.46 0.67,4.46 0.95,6.85 1.24,9.23 1.50,11.30 1.76,13.37 2.02,14.59 2.28,15.82 2.70,16.71" fill="none" stroke="none" stroke-width="4" stroke-linejoin="round" stroke-linecap="round" pointer-events="stroke"/><path d="M 0,0.46 Q 0,0.46 0.33,2.46 0.67,4.46 0.95,6.85 1.24,9.23 1.50,11.30 1.76,13.37 2.02,14.59 2.28,15.82 2.70,16.71" fill="none" stroke="#1d1d1d" stroke-width="4" stroke-dasharray="none" stroke-dashoffset="none" stroke-linejoin="round" stroke-linecap="round" pointer-events="stroke"/></g></g><g id="95dbd589-2b86-4552-37aa-4bbab864cd5f_svg" class="tl-centered-g" transform="translate(889.94, 172.59) rotate(0, 8.41, 6.16)"><g opacity="1"><path d="M 0,1.69 Q 0,1.69 2.29,1.31 4.58,0.93 6.89,1.07 9.21,1.21 10.92,2.02 12.62,2.83 13.49,4.06 14.36,5.30 14.36,6.55 14.35,7.80 13.64,8.78 12.92,9.77 11.85,10.34 10.79,10.91 9.25,10.98 7.71,11.05 6.75,10.69 5.78,10.33 4.59,9.79" fill="none" stroke="none" stroke-width="4" stroke-linejoin="round" stroke-linecap="round" pointer-events="stroke"/><path d="M 0,1.69 Q 0,1.69 2.29,1.31 4.58,0.93 6.89,1.07 9.21,1.21 10.92,2.02 12.62,2.83 13.49,4.06 14.36,5.30 14.36,6.55 14.35,7.80 13.64,8.78 12.92,9.77 11.85,10.34 10.79,10.91 9.25,10.98 7.71,11.05 6.75,10.69 5.78,10.33 4.59,9.79" fill="none" stroke="#1d1d1d" stroke-width="4" stroke-dasharray="none" stroke-dashoffset="none" stroke-linejoin="round" stroke-linecap="round" pointer-events="stroke"/></g></g><g id="41e65852-f985-402d-31c5-dc0a93534376_svg" class="tl-centered-g" transform="translate(913.43, 175.59) rotate(0, 2.28, 8.12)"><g opacity="1"><path d="M 0,0.72 Q 0,0.72 0.45,3.34 0.90,5.97 1.24,8.15 1.57,10.33 1.96,11.65 2.35,12.97 3.45,13.92" fill="none" stroke="none" stroke-width="4" stroke-linejoin="round" stroke-linecap="round" pointer-events="stroke"/><path d="M 0,0.72 Q 0,0.72 0.45,3.34 0.90,5.97 1.24,8.15 1.57,10.33 1.96,11.65 2.35,12.97 3.45,13.92" fill="none" stroke="#1d1d1d" stroke-width="4" stroke-dasharray="none" stroke-dashoffset="none" stroke-linejoin="round" stroke-linecap="round" pointer-events="stroke"/></g></g><g id="97e90cf2-9eb2-4c70-306e-772561506b24_svg" class="tl-centered-g" transform="translate(923.8, 175) rotate(0, 10.17, 8.06)"><g opacity="1"><path d="M 14.81,0.2 Q 14.81,0.2 12.25,1.01 9.69,1.83 7.61,3.20 5.53,4.57 4.29,6.28 3.05,7.98 3.02,9.61 3.00,11.24 4.40,12.33 5.80,13.42 8.45,13.56 11.11,13.69 15.73,13.27" fill="none" stroke="none" stroke-width="4" stroke-linejoin="round" stroke-linecap="round" pointer-events="stroke"/><path d="M 14.81,0.2 Q 14.81,0.2 12.25,1.01 9.69,1.83 7.61,3.20 5.53,4.57 4.29,6.28 3.05,7.98 3.02,9.61 3.00,11.24 4.40,12.33 5.80,13.42 8.45,13.56 11.11,13.69 15.73,13.27" fill="none" stroke="#1d1d1d" stroke-width="4" stroke-dasharray="none" stroke-dashoffset="none" stroke-linejoin="round" stroke-linecap="round" pointer-events="stroke"/></g></g><g id="d672290b-7055-4847-1b16-ca4a6829f9db_svg" class="tl-centered-g" transform="translate(990.4, 175) rotate(0, 11.09, 7.31)"><g opacity="1"><path d="M 13.96,3.66 Q 13.96,3.66 12.64,2.85 11.33,2.05 9.59,2.04 7.86,2.04 6.20,2.75 4.55,3.46 3.53,4.73 2.51,6.00 2.62,7.52 2.73,9.04 4.06,10.28 5.38,11.53 7.83,12.07 10.27,12.62 16.22,12.18" fill="none" stroke="none" stroke-width="4" stroke-linejoin="round" stroke-linecap="round" pointer-events="stroke"/><path d="M 13.96,3.66 Q 13.96,3.66 12.64,2.85 11.33,2.05 9.59,2.04 7.86,2.04 6.20,2.75 4.55,3.46 3.53,4.73 2.51,6.00 2.62,7.52 2.73,9.04 4.06,10.28 5.38,11.53 7.83,12.07 10.27,12.62 16.22,12.18" fill="none" stroke="#1d1d1d" stroke-width="4" stroke-dasharray="none" stroke-dashoffset="none" stroke-linejoin="round" stroke-linecap="round" pointer-events="stroke"/></g></g><g id="0f1ebc51-cb72-45e4-02f0-b84e1ef9c445_svg" class="tl-centered-g" transform="translate(1013.95, 175.27) rotate(0, 1.63, 8.21)"><g opacity="1"><path d="M 0.26,0 Q 0.26,0 0.85,3.03 1.45,6.06 1.84,8.31 2.23,10.56 2.46,11.87 2.69,13.18 2.97,14.71" fill="none" stroke="none" stroke-width="4" stroke-linejoin="round" stroke-linecap="round" pointer-events="stroke"/><path d="M 0.26,0 Q 0.26,0 0.85,3.03 1.45,6.06 1.84,8.31 2.23,10.56 2.46,11.87 2.69,13.18 2.97,14.71" fill="none" stroke="#1d1d1d" stroke-width="4" stroke-dasharray="none" stroke-dashoffset="none" stroke-linejoin="round" stroke-linecap="round" pointer-events="stroke"/></g></g><g id="4e435515-fabc-4ed8-06ed-9fa213e78e62_svg" class="tl-centered-g" transform="translate(1008.47, 181.2) rotate(0, 9.29, 1.33)"><g opacity="1"><path d="M 0.58,2.67 Q 0.58,2.67 3.07,2.36 5.57,2.05 8.09,1.72 10.61,1.40 12.35,1.11 14.09,0.83 16.34,0.41" fill="none" stroke="none" stroke-width="4" stroke-linejoin="round" stroke-linecap="round" pointer-events="stroke"/><path d="M 0.58,2.67 Q 0.58,2.67 3.07,2.36 5.57,2.05 8.09,1.72 10.61,1.40 12.35,1.11 14.09,0.83 16.34,0.41" fill="none" stroke="#1d1d1d" stroke-width="4" stroke-dasharray="none" stroke-dashoffset="none" stroke-linejoin="round" stroke-linecap="round" pointer-events="stroke"/></g></g><g id="23d27298-b7ac-4406-0ad0-39f4a24a99f4_svg" class="tl-centered-g" transform="translate(1026.21, 173.18) rotate(0, 1.11, 9.68)"><g opacity="1"><path d="M 0,0.13 Q 0,0.13 0.14,2.11 0.29,4.09 0.38,6.50 0.48,8.91 0.56,10.96 0.64,13.01 0.94,14.43 1.23,15.85 1.72,17.61" fill="none" stroke="none" stroke-width="4" stroke-linejoin="round" stroke-linecap="round" pointer-events="stroke"/><path d="M 0,0.13 Q 0,0.13 0.14,2.11 0.29,4.09 0.38,6.50 0.48,8.91 0.56,10.96 0.64,13.01 0.94,14.43 1.23,15.85 1.72,17.61" fill="none" stroke="#1d1d1d" stroke-width="4" stroke-dasharray="none" stroke-dashoffset="none" stroke-linejoin="round" stroke-linecap="round" pointer-events="stroke"/></g></g><g id="3ea2fa63-60e3-4686-0006-7ffb97c6bb3e_svg" class="tl-centered-g" transform="translate(1037.82, 170.5) rotate(0, 6.42, 10.08)"><g opacity="1"><path d="M 0.07,19.12 Q 0.07,19.12 0.75,16.79 1.43,14.47 2.15,12.25 2.86,10.04 3.50,7.98 4.15,5.92 4.61,4.60 5.06,3.27 5.57,3.01 6.07,2.74 6.75,3.66 7.44,4.58 8.22,6.41 9.01,8.25 9.71,10.43 10.40,12.62 10.92,14.30 11.44,15.99 11.75,16.83 12.07,17.68 12.46,18.07" fill="none" stroke="none" stroke-width="4" stroke-linejoin="round" stroke-linecap="round" pointer-events="stroke"/><path d="M 0.07,19.12 Q 0.07,19.12 0.75,16.79 1.43,14.47 2.15,12.25 2.86,10.04 3.50,7.98 4.15,5.92 4.61,4.60 5.06,3.27 5.57,3.01 6.07,2.74 6.75,3.66 7.44,4.58 8.22,6.41 9.01,8.25 9.71,10.43 10.40,12.62 10.92,14.30 11.44,15.99 11.75,16.83 12.07,17.68 12.46,18.07" fill="none" stroke="#1d1d1d" stroke-width="4" stroke-dasharray="none" stroke-dashoffset="none" stroke-linejoin="round" stroke-linecap="round" pointer-events="stroke"/></g></g><g id="b8d62438-387e-46b5-1ec3-92ae711272cd_svg" class="tl-centered-g" transform="translate(1040.36, 180.55) rotate(0, 8.32, 0.5)"><g opacity="1"><path d="M 0,0.84 Q 0,0.84 2.52,0.72 5.05,0.60 7.33,0.47 9.62,0.33 13.13,0.16" fill="none" stroke="none" stroke-width="4" stroke-linejoin="round" stroke-linecap="round" pointer-events="stroke"/><path d="M 0,0.84 Q 0,0.84 2.52,0.72 5.05,0.60 7.33,0.47 9.62,0.33 13.13,0.16" fill="none" stroke="#1d1d1d" stroke-width="4" stroke-dasharray="none" stroke-dashoffset="none" stroke-linejoin="round" stroke-linecap="round" pointer-events="stroke"/></g></g><g id="62306893-4c91-4ea5-0b01-1f5b0492f0bf_svg" class="tl-centered-g" transform="translate(1058.43, 174.28) rotate(0, 1.40, 7.86)"><g opacity="1"><path d="M 0,0.07 Q 0,0.07 0.27,2.71 0.55,5.35 0.84,7.52 1.12,9.70 1.39,11.05 1.67,12.39 1.92,12.79 2.18,13.18 2.49,13.24" fill="none" stroke="none" stroke-width="4" stroke-linejoin="round" stroke-linecap="round" pointer-events="stroke"/><path d="M 0,0.07 Q 0,0.07 0.27,2.71 0.55,5.35 0.84,7.52 1.12,9.70 1.39,11.05 1.67,12.39 1.92,12.79 2.18,13.18 2.49,13.24" fill="none" stroke="#1d1d1d" stroke-width="4" stroke-dasharray="none" stroke-dashoffset="none" stroke-linejoin="round" stroke-linecap="round" pointer-events="stroke"/></g></g><g id="4f763135-d635-40c8-0432-d94dfbee1a9e_svg" class="tl-centered-g" transform="translate(1057.39, 174.16) rotate(0, 8.51, 8.9)"><g opacity="1"><path d="M 0.13,5.02 Q 0.13,5.02 2.85,3.89 5.58,2.77 7.88,2.51 10.18,2.25 11.65,2.64 13.12,3.02 13.63,3.71 14.14,4.41 13.68,5.10 13.21,5.79 12.04,6.32 10.86,6.84 9.42,7.24 7.98,7.63 6.94,7.91 5.90,8.18 5.45,8.45 5.01,8.72 5.20,9.03 5.39,9.34 6.53,9.92 7.67,10.50 9.02,11.27 10.37,12.04 11.55,12.95 12.73,13.86 13.62,14.70 14.51,15.54 15.07,16.04 15.63,16.55 16.32,17.11" fill="none" stroke="none" stroke-width="4" stroke-linejoin="round" stroke-linecap="round" pointer-events="stroke"/><path d="M 0.13,5.02 Q 0.13,5.02 2.85,3.89 5.58,2.77 7.88,2.51 10.18,2.25 11.65,2.64 13.12,3.02 13.63,3.71 14.14,4.41 13.68,5.10 13.21,5.79 12.04,6.32 10.86,6.84 9.42,7.24 7.98,7.63 6.94,7.91 5.90,8.18 5.45,8.45 5.01,8.72 5.20,9.03 5.39,9.34 6.53,9.92 7.67,10.50 9.02,11.27 10.37,12.04 11.55,12.95 12.73,13.86 13.62,14.70 14.51,15.54 15.07,16.04 15.63,16.55 16.32,17.11" fill="none" stroke="#1d1d1d" stroke-width="4" stroke-dasharray="none" stroke-dashoffset="none" stroke-linejoin="round" stroke-linecap="round" pointer-events="stroke"/></g></g><g id="ccba77af-258d-4d94-10ec-cc387bdb3012_svg" class="tl-centered-g" transform="translate(1078.66, 175.59) rotate(0, 9.26, 1.69)"><g opacity="1"><path d="M 0.52,3.39 Q 0.52,3.39 2.69,2.77 4.86,2.16 7.03,1.67 9.19,1.19 11.03,0.92 12.87,0.66 14.13,0.52 15.39,0.39 15.96,0.39 16.53,0.39 17.13,0.42" fill="none" stroke="none" stroke-width="4" stroke-linejoin="round" stroke-linecap="round" pointer-events="stroke"/><path d="M 0.52,3.39 Q 0.52,3.39 2.69,2.77 4.86,2.16 7.03,1.67 9.19,1.19 11.03,0.92 12.87,0.66 14.13,0.52 15.39,0.39 15.96,0.39 16.53,0.39 17.13,0.42" fill="none" stroke="#1d1d1d" stroke-width="4" stroke-dasharray="none" stroke-dashoffset="none" stroke-linejoin="round" stroke-linecap="round" pointer-events="stroke"/></g></g><g id="09e5a6eb-e3fb-4260-1c33-ee653d493d53_svg" class="tl-centered-g" transform="translate(1085.64, 177.22) rotate(0, 2.25, 10.11)"><g opacity="1"><path d="M 0.32,0 Q 0.32,0 0.67,2.99 1.02,5.98 1.37,8.74 1.73,11.50 2.20,13.44 2.67,15.37 3.58,17.79" fill="none" stroke="none" stroke-width="4" stroke-linejoin="round" stroke-linecap="round" pointer-events="stroke"/><path d="M 0.32,0 Q 0.32,0 0.67,2.99 1.02,5.98 1.37,8.74 1.73,11.50 2.20,13.44 2.67,15.37 3.58,17.79" fill="none" stroke="#1d1d1d" stroke-width="4" stroke-dasharray="none" stroke-dashoffset="none" stroke-linejoin="round" stroke-linecap="round" pointer-events="stroke"/></g></g><g id="01e51bda-764d-487a-1d44-e6cd46a6bd55_svg" class="tl-centered-g" transform="translate(627.45, 232.27) rotate(0, 3.33, 133.43)"><g opacity="1"><path d="M 6.66,265.83 Q 6.66,265.83 6.64,264.29 6.62,262.76 6.57,260.72 6.52,258.67 6.43,256.00 6.34,253.32 6.25,250.05 6.16,246.77 6.11,242.95 6.06,239.13 6.06,234.82 6.06,230.52 6.09,225.69 6.12,220.86 6.15,215.52 6.18,210.19 6.21,204.70 6.25,199.21 6.15,193.97 6.05,188.74 5.80,183.89 5.56,179.04 5.25,174.26 4.94,169.48 4.67,164.51 4.39,159.55 4.17,154.40 3.94,149.25 3.73,144.23 3.52,139.21 3.28,134.70 3.05,130.19 2.82,126.09 2.59,121.99 2.46,118.14 2.33,114.28 2.26,110.48 2.19,106.67 2.22,102.84 2.26,99.01 2.31,95.37 2.36,91.72 2.40,88.30 2.44,84.89 2.52,81.69 2.60,78.49 2.71,75.49 2.81,72.50 2.88,69.81 2.95,67.12 2.99,64.59 3.03,62.07 3.10,59.49 3.16,56.92 3.24,54.35 3.32,51.79 3.36,49.36 3.41,46.92 3.37,44.80 3.34,42.68 3.20,41.04 3.07,39.40 2.92,37.97 2.78,36.54 2.70,34.90 2.61,33.27 2.67,31.31 2.73,29.35 2.82,27.33 2.90,25.30 2.95,23.56 3.00,21.83 2.96,20.33 2.91,18.83 2.76,17.52 2.60,16.22 2.40,14.92 2.20,13.63 2.04,12.13 1.88,10.62 1.72,9.02 1.57,7.42 1.33,6.05 1.10,4.68 0.86,3.65 0.63,2.62 0.31,1.31" fill="none" stroke="none" stroke-width="4" stroke-linejoin="round" stroke-linecap="round" pointer-events="stroke"/><path d="M 6.66,265.83 Q 6.66,265.83 6.64,264.29 6.62,262.76 6.57,260.72 6.52,258.67 6.43,256.00 6.34,253.32 6.25,250.05 6.16,246.77 6.11,242.95 6.06,239.13 6.06,234.82 6.06,230.52 6.09,225.69 6.12,220.86 6.15,215.52 6.18,210.19 6.21,204.70 6.25,199.21 6.15,193.97 6.05,188.74 5.80,183.89 5.56,179.04 5.25,174.26 4.94,169.48 4.67,164.51 4.39,159.55 4.17,154.40 3.94,149.25 3.73,144.23 3.52,139.21 3.28,134.70 3.05,130.19 2.82,126.09 2.59,121.99 2.46,118.14 2.33,114.28 2.26,110.48 2.19,106.67 2.22,102.84 2.26,99.01 2.31,95.37 2.36,91.72 2.40,88.30 2.44,84.89 2.52,81.69 2.60,78.49 2.71,75.49 2.81,72.50 2.88,69.81 2.95,67.12 2.99,64.59 3.03,62.07 3.10,59.49 3.16,56.92 3.24,54.35 3.32,51.79 3.36,49.36 3.41,46.92 3.37,44.80 3.34,42.68 3.20,41.04 3.07,39.40 2.92,37.97 2.78,36.54 2.70,34.90 2.61,33.27 2.67,31.31 2.73,29.35 2.82,27.33 2.90,25.30 2.95,23.56 3.00,21.83 2.96,20.33 2.91,18.83 2.76,17.52 2.60,16.22 2.40,14.92 2.20,13.63 2.04,12.13 1.88,10.62 1.72,9.02 1.57,7.42 1.33,6.05 1.10,4.68 0.86,3.65 0.63,2.62 0.31,1.31" fill="none" stroke="#788492" stroke-width="4" stroke-dasharray="none" stroke-dashoffset="none" stroke-linejoin="round" stroke-linecap="round" pointer-events="stroke"/></g></g><g id="b56e47c1-2b0e-4b3c-266b-7fbe009ba18c_svg" class="tl-centered-g" transform="translate(578.27, 223.01) rotate(0, 8.48, 13.66)"><g opacity="1"><path d="M 0.98,3.92 Q 0.98,3.92 1.29,3.83 1.61,3.74 2.52,4.33 3.43,4.93 4.53,5.75 5.63,6.57 6.53,7.26 7.43,7.95 8.10,8.51 8.77,9.06 9.15,9.50 9.54,9.94 9.65,10.36 9.76,10.78 9.50,11.53 9.24,12.29 8.69,13.33 8.14,14.38 7.47,15.51 6.80,16.64 5.86,18.20 4.92,19.76 4.17,21.15 3.42,22.54 2.93,23.51 2.44,24.48 2.15,25.09 1.87,25.69 1.71,26.05 1.55,26.40 1.44,26.60 1.32,26.81 1.23,26.93 1.14,27.04 1.08,27.08 1.03,27.11 1.14,26.78 1.24,26.45 1.69,25.58 2.14,24.71 3.05,23.24 3.95,21.77 5.24,19.76 6.53,17.75 7.99,15.51 9.44,13.28 10.65,11.41 11.87,9.55 12.64,8.29 13.42,7.03 13.87,6.20 14.33,5.37 14.67,4.74 15.01,4.10 15.31,3.48 15.61,2.85 15.89,2.27 16.16,1.69 16.33,1.31 16.51,0.93 16.61,0.87 16.71,0.80 16.75,0.84 16.79,0.88 16.81,1.06" fill="none" stroke="none" stroke-width="4" stroke-linejoin="round" stroke-linecap="round" pointer-events="stroke"/><path d="M 0.98,3.92 Q 0.98,3.92 1.29,3.83 1.61,3.74 2.52,4.33 3.43,4.93 4.53,5.75 5.63,6.57 6.53,7.26 7.43,7.95 8.10,8.51 8.77,9.06 9.15,9.50 9.54,9.94 9.65,10.36 9.76,10.78 9.50,11.53 9.24,12.29 8.69,13.33 8.14,14.38 7.47,15.51 6.80,16.64 5.86,18.20 4.92,19.76 4.17,21.15 3.42,22.54 2.93,23.51 2.44,24.48 2.15,25.09 1.87,25.69 1.71,26.05 1.55,26.40 1.44,26.60 1.32,26.81 1.23,26.93 1.14,27.04 1.08,27.08 1.03,27.11 1.14,26.78 1.24,26.45 1.69,25.58 2.14,24.71 3.05,23.24 3.95,21.77 5.24,19.76 6.53,17.75 7.99,15.51 9.44,13.28 10.65,11.41 11.87,9.55 12.64,8.29 13.42,7.03 13.87,6.20 14.33,5.37 14.67,4.74 15.01,4.10 15.31,3.48 15.61,2.85 15.89,2.27 16.16,1.69 16.33,1.31 16.51,0.93 16.61,0.87 16.71,0.80 16.75,0.84 16.79,0.88 16.81,1.06" fill="none" stroke="#c6cbd1" stroke-width="4" stroke-dasharray="none" stroke-dashoffset="none" stroke-linejoin="round" stroke-linecap="round" pointer-events="stroke"/></g></g><g id="481ed21b-dad4-4362-34e8-ccd683bed5e7_svg" class="tl-centered-g" transform="translate(642.06, 232.6) rotate(0, 307.27, 131.61)"><g opacity="1"><path d="M 0,263.22 Q 0,263.22 0.86,262.15 1.72,261.08 2.59,259.97 3.46,258.85 4.42,257.65 5.38,256.46 6.34,255.24 7.29,254.02 8.26,252.84 9.23,251.66 10.17,250.61 11.11,249.56 12.02,248.61 12.94,247.67 14.22,246.49 15.50,245.31 17.21,243.81 18.92,242.32 21.07,240.53 23.21,238.74 25.74,236.75 28.27,234.77 31.00,232.80 33.74,230.83 36.66,228.92 39.57,227.02 42.62,225.16 45.66,223.31 48.88,221.45 52.11,219.59 55.41,217.75 58.71,215.91 62.05,214.05 65.39,212.20 69.11,210.23 72.82,208.26 76.00,206.68 79.17,205.09 82.29,203.62 85.40,202.14 88.86,200.60 92.31,199.05 95.30,197.76 98.29,196.47 101.39,195.20 104.49,193.94 108.05,192.55 111.61,191.16 114.72,189.97 117.83,188.78 121.08,187.45 124.33,186.13 127.64,184.74 130.96,183.35 134.22,182.05 137.48,180.75 140.58,179.69 143.68,178.62 146.98,177.67 150.29,176.72 153.15,175.91 156.01,175.11 159.09,174.24 162.18,173.38 165.55,172.50 168.92,171.63 171.36,171.05 173.81,170.46 176.31,169.93 178.81,169.41 181.64,168.88 184.47,168.35 187.20,167.90 189.93,167.45 192.71,167.06 195.48,166.66 198.35,166.27 201.21,165.88 204.44,165.40 207.67,164.92 210.40,164.49 213.14,164.07 216.27,163.51 219.40,162.95 222.34,162.46 225.28,161.96 227.77,161.60 230.26,161.24 232.90,160.89 235.54,160.54 238.68,160.10 241.82,159.66 244.59,159.26 247.36,158.85 250.53,158.28 253.69,157.71 256.77,157.11 259.85,156.52 262.48,156.02 265.11,155.52 267.76,155.02 270.42,154.52 273.46,153.95 276.50,153.39 279.15,152.91 281.79,152.44 284.93,151.89 288.07,151.33 291.07,150.74 294.08,150.14 296.70,149.56 299.32,148.98 302.45,148.20 305.58,147.41 308.52,146.67 311.46,145.93 313.97,145.31 316.49,144.70 319.31,143.92 322.12,143.14 324.88,142.35 327.63,141.56 330.05,140.87 332.46,140.18 335.13,139.42 337.81,138.66 340.35,137.85 342.90,137.03 345.15,136.28 347.40,135.53 349.94,134.60 352.49,133.67 354.64,132.82 356.79,131.97 359.21,130.89 361.64,129.81 363.99,128.65 366.34,127.50 368.69,126.30 371.03,125.09 373.36,123.83 375.68,122.56 378.02,121.15 380.37,119.73 382.86,118.15 385.36,116.57 387.93,114.89 390.51,113.21 392.78,111.66 395.04,110.10 397.90,108.10 400.76,106.11 403.74,103.95 406.72,101.80 409.90,99.57 413.08,97.34 416.44,94.99 419.81,92.64 423.40,90.09 426.99,87.55 430.85,84.89 434.70,82.23 438.75,79.48 442.79,76.72 447.02,74.01 451.25,71.29 455.55,68.53 459.84,65.77 464.15,62.94 468.47,60.10 472.91,57.32 477.35,54.54 481.31,52.13 485.26,49.72 489.79,47.06 494.31,44.40 498.54,41.88 502.78,39.36 506.90,36.94 511.02,34.53 515.03,32.26 519.05,29.99 523.09,27.87 527.13,25.74 531.24,23.76 535.36,21.78 539.33,20.00 543.30,18.22 546.99,16.73 550.69,15.23 554.16,13.96 557.63,12.68 560.85,11.59 564.06,10.51 567.00,9.64 569.93,8.78 572.49,8.10 575.06,7.42 577.54,6.85 580.03,6.28 582.51,5.77 584.99,5.25 587.43,4.76 589.87,4.27 592.23,3.81 594.60,3.35 596.94,2.94 599.29,2.52 601.63,2.12 603.98,1.71 606.08,1.43 608.18,1.15 609.60,0.99 611.02,0.84 611.71,0.74 612.39,0.64 612.68,0.32" fill="none" stroke="none" stroke-width="4" stroke-linejoin="round" stroke-linecap="round" pointer-events="stroke"/><path d="M 0,263.22 Q 0,263.22 0.86,262.15 1.72,261.08 2.59,259.97 3.46,258.85 4.42,257.65 5.38,256.46 6.34,255.24 7.29,254.02 8.26,252.84 9.23,251.66 10.17,250.61 11.11,249.56 12.02,248.61 12.94,247.67 14.22,246.49 15.50,245.31 17.21,243.81 18.92,242.32 21.07,240.53 23.21,238.74 25.74,236.75 28.27,234.77 31.00,232.80 33.74,230.83 36.66,228.92 39.57,227.02 42.62,225.16 45.66,223.31 48.88,221.45 52.11,219.59 55.41,217.75 58.71,215.91 62.05,214.05 65.39,212.20 69.11,210.23 72.82,208.26 76.00,206.68 79.17,205.09 82.29,203.62 85.40,202.14 88.86,200.60 92.31,199.05 95.30,197.76 98.29,196.47 101.39,195.20 104.49,193.94 108.05,192.55 111.61,191.16 114.72,189.97 117.83,188.78 121.08,187.45 124.33,186.13 127.64,184.74 130.96,183.35 134.22,182.05 137.48,180.75 140.58,179.69 143.68,178.62 146.98,177.67 150.29,176.72 153.15,175.91 156.01,175.11 159.09,174.24 162.18,173.38 165.55,172.50 168.92,171.63 171.36,171.05 173.81,170.46 176.31,169.93 178.81,169.41 181.64,168.88 184.47,168.35 187.20,167.90 189.93,167.45 192.71,167.06 195.48,166.66 198.35,166.27 201.21,165.88 204.44,165.40 207.67,164.92 210.40,164.49 213.14,164.07 216.27,163.51 219.40,162.95 222.34,162.46 225.28,161.96 227.77,161.60 230.26,161.24 232.90,160.89 235.54,160.54 238.68,160.10 241.82,159.66 244.59,159.26 247.36,158.85 250.53,158.28 253.69,157.71 256.77,157.11 259.85,156.52 262.48,156.02 265.11,155.52 267.76,155.02 270.42,154.52 273.46,153.95 276.50,153.39 279.15,152.91 281.79,152.44 284.93,151.89 288.07,151.33 291.07,150.74 294.08,150.14 296.70,149.56 299.32,148.98 302.45,148.20 305.58,147.41 308.52,146.67 311.46,145.93 313.97,145.31 316.49,144.70 319.31,143.92 322.12,143.14 324.88,142.35 327.63,141.56 330.05,140.87 332.46,140.18 335.13,139.42 337.81,138.66 340.35,137.85 342.90,137.03 345.15,136.28 347.40,135.53 349.94,134.60 352.49,133.67 354.64,132.82 356.79,131.97 359.21,130.89 361.64,129.81 363.99,128.65 366.34,127.50 368.69,126.30 371.03,125.09 373.36,123.83 375.68,122.56 378.02,121.15 380.37,119.73 382.86,118.15 385.36,116.57 387.93,114.89 390.51,113.21 392.78,111.66 395.04,110.10 397.90,108.10 400.76,106.11 403.74,103.95 406.72,101.80 409.90,99.57 413.08,97.34 416.44,94.99 419.81,92.64 423.40,90.09 426.99,87.55 430.85,84.89 434.70,82.23 438.75,79.48 442.79,76.72 447.02,74.01 451.25,71.29 455.55,68.53 459.84,65.77 464.15,62.94 468.47,60.10 472.91,57.32 477.35,54.54 481.31,52.13 485.26,49.72 489.79,47.06 494.31,44.40 498.54,41.88 502.78,39.36 506.90,36.94 511.02,34.53 515.03,32.26 519.05,29.99 523.09,27.87 527.13,25.74 531.24,23.76 535.36,21.78 539.33,20.00 543.30,18.22 546.99,16.73 550.69,15.23 554.16,13.96 557.63,12.68 560.85,11.59 564.06,10.51 567.00,9.64 569.93,8.78 572.49,8.10 575.06,7.42 577.54,6.85 580.03,6.28 582.51,5.77 584.99,5.25 587.43,4.76 589.87,4.27 592.23,3.81 594.60,3.35 596.94,2.94 599.29,2.52 601.63,2.12 603.98,1.71 606.08,1.43 608.18,1.15 609.60,0.99 611.02,0.84 611.71,0.74 612.39,0.64 612.68,0.32" fill="none" stroke="#0e98ad" stroke-width="4" stroke-dasharray="8 8" stroke-dashoffset="0" stroke-linejoin="round" stroke-linecap="round" pointer-events="stroke"/></g></g><g id="64811dd1-3ba0-4476-0ba3-36837cc302ba_svg" class="tl-centered-g" transform="translate(641.15, 287.79) rotate(0, 90.02, 59.88)"><g opacity="1"><path d="M 0,0 Q 0,0 1.38,0.13 2.77,0.26 4.37,0.30 5.97,0.35 7.89,0.34 9.81,0.33 12.16,0.33 14.52,0.32 17.32,0.41 20.11,0.50 23.24,0.79 26.38,1.09 29.70,1.60 33.02,2.12 36.53,2.78 40.05,3.44 43.61,4.26 47.17,5.08 50.77,6.02 54.38,6.95 58.02,8.00 61.66,9.06 65.33,10.24 69.00,11.42 72.65,12.72 76.30,14.02 79.77,15.43 83.23,16.85 86.41,18.35 89.59,19.85 92.53,21.40 95.47,22.96 98.18,24.57 100.88,26.17 103.29,27.79 105.71,29.40 107.89,31.01 110.07,32.62 112.03,34.21 114.00,35.80 115.77,37.38 117.54,38.96 119.22,40.53 120.90,42.10 122.75,43.79 124.59,45.47 126.11,46.91 127.62,48.36 129.09,49.85 130.56,51.35 131.98,52.92 133.40,54.49 134.83,56.17 136.26,57.84 137.73,59.59 139.21,61.35 140.94,63.46 142.67,65.57 144.14,67.45 145.61,69.33 147.10,71.28 148.58,73.24 150.22,75.43 151.85,77.62 153.26,79.53 154.66,81.45 156.00,83.42 157.34,85.40 158.71,87.54 160.08,89.68 161.23,91.48 162.38,93.28 163.56,95.09 164.73,96.90 165.98,98.67 167.23,100.44 168.43,102.15 169.63,103.86 170.72,105.50 171.80,107.13 172.90,108.80 174.00,110.47 174.87,111.78 175.74,113.08 176.45,114.18 177.16,115.29 177.73,116.20 178.30,117.11 178.67,117.69 179.05,118.27 179.27,118.60 179.49,118.93 179.57,119.22" fill="none" stroke="none" stroke-width="4" stroke-linejoin="round" stroke-linecap="round" pointer-events="stroke"/><path d="M 0,0 Q 0,0 1.38,0.13 2.77,0.26 4.37,0.30 5.97,0.35 7.89,0.34 9.81,0.33 12.16,0.33 14.52,0.32 17.32,0.41 20.11,0.50 23.24,0.79 26.38,1.09 29.70,1.60 33.02,2.12 36.53,2.78 40.05,3.44 43.61,4.26 47.17,5.08 50.77,6.02 54.38,6.95 58.02,8.00 61.66,9.06 65.33,10.24 69.00,11.42 72.65,12.72 76.30,14.02 79.77,15.43 83.23,16.85 86.41,18.35 89.59,19.85 92.53,21.40 95.47,22.96 98.18,24.57 100.88,26.17 103.29,27.79 105.71,29.40 107.89,31.01 110.07,32.62 112.03,34.21 114.00,35.80 115.77,37.38 117.54,38.96 119.22,40.53 120.90,42.10 122.75,43.79 124.59,45.47 126.11,46.91 127.62,48.36 129.09,49.85 130.56,51.35 131.98,52.92 133.40,54.49 134.83,56.17 136.26,57.84 137.73,59.59 139.21,61.35 140.94,63.46 142.67,65.57 144.14,67.45 145.61,69.33 147.10,71.28 148.58,73.24 150.22,75.43 151.85,77.62 153.26,79.53 154.66,81.45 156.00,83.42 157.34,85.40 158.71,87.54 160.08,89.68 161.23,91.48 162.38,93.28 163.56,95.09 164.73,96.90 165.98,98.67 167.23,100.44 168.43,102.15 169.63,103.86 170.72,105.50 171.80,107.13 172.90,108.80 174.00,110.47 174.87,111.78 175.74,113.08 176.45,114.18 177.16,115.29 177.73,116.20 178.30,117.11 178.67,117.69 179.05,118.27 179.27,118.60 179.49,118.93 179.57,119.22" fill="none" stroke="#ff9433" stroke-width="4" stroke-dasharray="0.1 8" stroke-dashoffset="0" stroke-linejoin="round" stroke-linecap="round" pointer-events="stroke"/></g></g><g id="04537868-81cf-40f0-14a6-fa4fbbf1e19b_svg" class="tl-centered-g" transform="translate(827.06, 416.3) rotate(0, 215.26, 28.28)"><g opacity="1"><path d="M 0,0 Q 0,0 0.94,0.96 1.89,1.92 2.72,2.69 3.55,3.45 4.48,4.27 5.40,5.09 6.41,5.92 7.42,6.75 9.08,7.91 10.75,9.07 12.75,10.31 14.75,11.54 17.10,12.90 19.44,14.26 22.08,15.74 24.72,17.21 27.62,18.86 30.53,20.51 33.74,22.29 36.95,24.06 40.38,25.91 43.82,27.77 47.53,29.62 51.24,31.48 54.77,33.12 58.31,34.76 62.80,36.64 67.30,38.52 71.93,40.24 76.56,41.95 81.36,43.49 86.17,45.04 91.23,46.39 96.29,47.74 101.48,48.92 106.68,50.11 112.00,51.11 117.32,52.11 122.17,52.89 127.02,53.66 133.06,54.29 139.10,54.93 145.08,55.29 151.05,55.65 157.05,55.74 163.06,55.82 169.15,55.66 175.24,55.50 181.21,55.24 187.19,54.98 193.00,54.63 198.81,54.28 204.55,53.82 210.29,53.37 215.98,52.88 221.68,52.40 227.13,51.88 232.58,51.37 237.91,50.74 243.25,50.12 248.67,49.30 254.10,48.47 259.71,47.39 265.33,46.31 270.94,44.98 276.54,43.65 282.10,42.17 287.65,40.70 293.12,39.13 298.60,37.57 304.01,35.89 309.41,34.21 314.63,32.45 319.85,30.69 324.96,28.87 330.08,27.06 335.23,25.19 340.38,23.32 345.48,21.50 350.59,19.69 355.42,18.05 360.26,16.42 364.73,15.05 369.19,13.68 373.34,12.50 377.49,11.32 381.46,10.26 385.42,9.20 389.20,8.28 392.97,7.36 396.35,6.63 399.73,5.90 402.70,5.40 405.68,4.89 408.35,4.57 411.01,4.24 413.41,4.02 415.80,3.80 417.86,3.68 419.93,3.56 421.66,3.56 423.38,3.57 424.79,3.72 426.19,3.87 427.15,4.05 428.10,4.24 428.64,4.35 429.18,4.47 429.47,4.53 429.75,4.60 429.76,4.63 429.77,4.67 429.75,4.71" fill="none" stroke="none" stroke-width="4" stroke-linejoin="round" stroke-linecap="round" pointer-events="stroke"/><path d="M 0,0 Q 0,0 0.94,0.96 1.89,1.92 2.72,2.69 3.55,3.45 4.48,4.27 5.40,5.09 6.41,5.92 7.42,6.75 9.08,7.91 10.75,9.07 12.75,10.31 14.75,11.54 17.10,12.90 19.44,14.26 22.08,15.74 24.72,17.21 27.62,18.86 30.53,20.51 33.74,22.29 36.95,24.06 40.38,25.91 43.82,27.77 47.53,29.62 51.24,31.48 54.77,33.12 58.31,34.76 62.80,36.64 67.30,38.52 71.93,40.24 76.56,41.95 81.36,43.49 86.17,45.04 91.23,46.39 96.29,47.74 101.48,48.92 106.68,50.11 112.00,51.11 117.32,52.11 122.17,52.89 127.02,53.66 133.06,54.29 139.10,54.93 145.08,55.29 151.05,55.65 157.05,55.74 163.06,55.82 169.15,55.66 175.24,55.50 181.21,55.24 187.19,54.98 193.00,54.63 198.81,54.28 204.55,53.82 210.29,53.37 215.98,52.88 221.68,52.40 227.13,51.88 232.58,51.37 237.91,50.74 243.25,50.12 248.67,49.30 254.10,48.47 259.71,47.39 265.33,46.31 270.94,44.98 276.54,43.65 282.10,42.17 287.65,40.70 293.12,39.13 298.60,37.57 304.01,35.89 309.41,34.21 314.63,32.45 319.85,30.69 324.96,28.87 330.08,27.06 335.23,25.19 340.38,23.32 345.48,21.50 350.59,19.69 355.42,18.05 360.26,16.42 364.73,15.05 369.19,13.68 373.34,12.50 377.49,11.32 381.46,10.26 385.42,9.20 389.20,8.28 392.97,7.36 396.35,6.63 399.73,5.90 402.70,5.40 405.68,4.89 408.35,4.57 411.01,4.24 413.41,4.02 415.80,3.80 417.86,3.68 419.93,3.56 421.66,3.56 423.38,3.57 424.79,3.72 426.19,3.87 427.15,4.05 428.10,4.24 428.64,4.35 429.18,4.47 429.47,4.53 429.75,4.60 429.76,4.63 429.77,4.67 429.75,4.71" fill="none" stroke="#ff9433" stroke-width="4" stroke-dasharray="0.1 8" stroke-dashoffset="0" stroke-linejoin="round" stroke-linecap="round" pointer-events="stroke"/></g></g></svg>
