<svg xmlns="http://www.w3.org/2000/svg" viewBox="1077.02 218.44 672.54 418.37" width="640.54" height="386.37"><g id="d8023bd8-84d6-4e1f-0dfe-733474d4ec60_svg" class="tl-centered-g" transform="translate(1285.79, 362) rotate(0, 40.07, 40.06)"><path d="M 49.52,78.38 Q 49.52,78.38 45.40,78.92 41.28,79.45 38.11,79.30 34.94,79.15 31.05,78.28 27.15,77.41 22.85,75.42 18.55,73.42 14.36,70.01 10.18,66.59 6.81,61.67 3.44,56.74 1.66,50.54 -0.10,44.35 0.35,37.51 0.81,30.67 3.84,24.13 6.86,17.59 12.28,12.42 17.69,7.24 24.80,4.36 31.90,1.47 39.60,1.38 47.30,1.30 54.39,3.97 61.47,6.64 66.91,11.50 72.35,16.36 75.55,22.50 78.75,28.63 79.60,35.05 80.46,41.47 79.32,47.33 78.18,53.19 75.65,57.96 73.13,62.73 69.90,66.23 66.68,69.72 63.37,72.02 60.06,74.31 57.13,75.65 54.19,76.99 51.93,77.67 49.66,78.34 48.22,78.63" stroke="none" fill="none" pointer-events="all"/><path d="M 49.52,78.39 Q 49.52,78.39 45.47,79.45 41.42,80.52 38.15,80.42 34.89,80.32 30.89,79.40 26.90,78.49 22.50,76.44 18.09,74.39 13.80,70.89 9.51,67.39 6.06,62.34 2.60,57.30 0.76,50.95 -1.07,44.60 -0.61,37.59 -0.16,30.58 2.91,23.87 5.99,17.16 11.52,11.84 17.04,6.53 24.30,3.55 31.56,0.57 39.44,0.45 47.32,0.34 54.57,3.04 61.83,5.75 67.42,10.71 73.01,15.66 76.30,21.94 79.60,28.21 80.50,34.78 81.41,41.36 80.26,47.37 79.11,53.38 76.54,58.28 73.97,63.19 70.67,66.77 67.36,70.36 63.94,72.66 60.52,74.97 57.47,76.22 54.42,77.48 50.60,78.21 46.79,78.93 46.79,78.93 46.79,78.92 46.79,78.92 46.79,78.91 50.38,77.70 53.97,76.49 56.79,75.07 59.61,73.65 62.81,71.37 66.00,69.09 69.14,65.68 72.29,62.28 74.76,57.64 77.24,52.99 78.38,47.28 79.51,41.58 78.70,35.32 77.89,29.06 74.80,23.06 71.70,17.06 66.41,12.29 61.11,7.53 54.20,4.89 47.29,2.25 39.77,2.31 32.24,2.37 25.29,5.17 18.34,7.96 13.04,12.99 7.74,18.02 4.76,24.39 1.79,30.76 1.32,37.43 0.85,44.09 2.57,50.14 4.29,56.18 7.56,60.99 10.84,65.80 14.92,69.13 19.00,72.46 23.20,74.39 27.40,76.32 31.20,77.16 35.00,77.99 38.07,78.19 41.15,78.39 45.33,78.38 Z" fill="#1d1d1d" stroke="#1d1d1d" stroke-width="2" pointer-events="all" stroke-linecap="round" stroke-linejoin="round" opacity="1"/></g><g id="e652d44c-c698-451e-34f9-e74906025d28_svg" class="tl-centered-g" transform="translate(1438.08, 467.27) rotate(0, 43.69, 43.69)"><ellipse cx="43.69" cy="43.69" rx="41.57" ry="41.57" fill="none" stroke="#1d1d1d" stroke-width="4.23" stroke-dasharray="none" stroke-dashoffset="none" pointer-events="all" stroke-linecap="round" stroke-linejoin="round"/></g><g id="e9177a2e-5cd0-45da-101a-85342ceac5e0_svg" class="tl-centered-g" transform="translate(1439.6, 234.44) rotate(0, 45.28, 45.28)"><ellipse cx="45.28" cy="45.28" rx="43.17" ry="43.17" fill="none" stroke="#1d1d1d" stroke-width="4.23" stroke-dasharray="none" stroke-dashoffset="none" pointer-events="all" stroke-linecap="round" stroke-linejoin="round"/></g><g id="be9087ec-873e-420c-1551-71005629bac1_svg" class="tl-centered-g" transform="translate(1362.13, 295.1) rotate(0, 33.78, 34.80)"><g pointer-events="none" opacity="1"><path d="M0,69.61L67.57,0" fill="none" stroke-width="8" stroke-dasharray="none" stroke-dashoffset="none" stroke-linecap="round" stroke-linejoin="round" pointer-events="stroke"/><path d="M0,69.61L67.57,0" fill="#1d1d1d" stroke="#1d1d1d" stroke-width="4.23" stroke-dasharray="none" stroke-dashoffset="none" stroke-linecap="round" stroke-linejoin="round" pointer-events="stroke"/><path d="M 52.17,4.370449596567618 L 67.57,0 63.65,15.514680066331955" fill="none" stroke="#1d1d1d" stroke-width="4.23" stroke-dashoffset="none" stroke-dasharray="none" stroke-linecap="round" stroke-linejoin="round" pointer-events="stroke"/></g></g><g id="acfd4f0e-b341-4cdf-32af-dbbefd0dd954_svg" class="tl-centered-g" transform="translate(1643.38, 349.54) rotate(0, 45.09, 45.09)"><ellipse cx="45.09" cy="45.09" rx="42.97" ry="42.97" fill="none" stroke="#1d1d1d" stroke-width="4.23" stroke-dasharray="none" stroke-dashoffset="none" pointer-events="all" stroke-linecap="round" stroke-linejoin="round"/></g><g id="edca78eb-7927-46b4-0cb6-729e07917e24_svg" class="tl-centered-g" transform="translate(1530.31, 422.64) rotate(0, 54.20, 30.50)"><g pointer-events="none" opacity="1"><path d="M0,61.01L108.41,0" fill="none" stroke-width="8" stroke-dasharray="none" stroke-dashoffset="none" stroke-linecap="round" stroke-linejoin="round" pointer-events="stroke"/><path d="M0,61.01L108.41,0" fill="#1d1d1d" stroke="#1d1d1d" stroke-width="4.23" stroke-dasharray="none" stroke-dashoffset="none" stroke-linecap="round" stroke-linejoin="round" pointer-events="stroke"/><path d="M 92.41,-0.1760525179751733 L 108.41,0 100.25,13.767541363206238" fill="none" stroke="#1d1d1d" stroke-width="4.23" stroke-dashoffset="none" stroke-dasharray="none" stroke-linecap="round" stroke-linejoin="round" pointer-events="stroke"/></g></g><g id="eae2658c-ed77-4c5c-1ae7-8ca4e1f2c873_svg" class="tl-centered-g" transform="translate(1534.78, 307.89) rotate(0, 51.98, 29.34)"><g pointer-events="none" opacity="1"><path d="M0,0L103.97,58.68" fill="none" stroke-width="8" stroke-dasharray="none" stroke-dashoffset="none" stroke-linecap="round" stroke-linejoin="round" pointer-events="stroke"/><path d="M0,0L103.97,58.68" fill="#1d1d1d" stroke="#1d1d1d" stroke-width="4.23" stroke-dasharray="none" stroke-dashoffset="none" stroke-linecap="round" stroke-linejoin="round" pointer-events="stroke"/><path d="M 95.83,44.90243017424068 L 103.97,58.68 87.97,58.83635009450271" fill="none" stroke="#1d1d1d" stroke-width="4.23" stroke-dashoffset="none" stroke-dasharray="none" stroke-linecap="round" stroke-linejoin="round" pointer-events="stroke"/></g></g><g id="87e9da8c-9ecd-4bf5-1aa4-0912191add1b_svg" class="tl-centered-g" transform="translate(1093.02, 350.84) rotate(0, 43.86, 43.85)"><ellipse cx="43.86" cy="43.85" rx="41.74" ry="41.74" fill="none" stroke="#1d1d1d" stroke-width="4.23" stroke-dasharray="none" stroke-dashoffset="none" pointer-events="all" stroke-linecap="round" stroke-linejoin="round"/></g><g id="89c4c3ef-5ed5-4490-1773-b63eac2ad498_svg" class="tl-centered-g" transform="translate(1192.7, 396.88) rotate(0, 40.56, 1.58)"><g pointer-events="none" opacity="1"><path d="M0,0L81.13,3.16" fill="none" stroke-width="8" stroke-dasharray="none" stroke-dashoffset="none" stroke-linecap="round" stroke-linejoin="round" pointer-events="stroke"/><path d="M0,0L81.13,3.16" fill="#1d1d1d" stroke="#1d1d1d" stroke-width="4.23" stroke-dasharray="none" stroke-dashoffset="none" stroke-linecap="round" stroke-linejoin="round" pointer-events="stroke"/><path d="M 67.59,-5.37323433877882 L 81.13,3.16 66.97,10.614642736849952" fill="none" stroke="#1d1d1d" stroke-width="4.23" stroke-dashoffset="none" stroke-dasharray="none" stroke-linecap="round" stroke-linejoin="round" pointer-events="stroke"/></g></g><g id="6ecb8f0e-0d23-44a4-34b8-bdea235e9566_svg" class="tl-centered-g" transform="translate(1483.78, 336.93) rotate(0, 2.13, 59.19)"><g pointer-events="none" opacity="1"><path d="M0,118.38L4.26,0" fill="none" stroke-width="8" stroke-dasharray="none" stroke-dashoffset="none" stroke-linecap="round" stroke-linejoin="round" pointer-events="stroke"/><path d="M0,118.38L4.26,0" fill="#1d1d1d" stroke="#1d1d1d" stroke-width="4.23" stroke-dasharray="none" stroke-dashoffset="none" stroke-linecap="round" stroke-linejoin="round" pointer-events="stroke"/><path d="M -4.233136553156447,13.559743046586018 L 4.26,0 11.75,14.135143536136695" fill="none" stroke="#1d1d1d" stroke-width="4.23" stroke-dashoffset="none" stroke-dasharray="none" stroke-linecap="round" stroke-linejoin="round" pointer-events="stroke"/></g></g><g id="92ec07d3-0eac-49e0-23ff-f71ef9d1fc26_svg" class="tl-centered-g" transform="translate(1368.55, 431.88) rotate(0, 33.78, 23.59)"><g pointer-events="none" opacity="1"><path d="M0,0L67.57,47.19" fill="none" stroke-width="8" stroke-dasharray="none" stroke-dashoffset="none" stroke-linecap="round" stroke-linejoin="round" pointer-events="stroke"/><path d="M0,0L67.57,47.19" fill="#1d1d1d" stroke="#1d1d1d" stroke-width="4.23" stroke-dasharray="none" stroke-dashoffset="none" stroke-linecap="round" stroke-linejoin="round" pointer-events="stroke"/><path d="M 60.79,32.69735428206889 L 67.57,47.19 51.62,45.8149985485968" fill="none" stroke="#1d1d1d" stroke-width="4.23" stroke-dashoffset="none" stroke-dasharray="none" stroke-linecap="round" stroke-linejoin="round" pointer-events="stroke"/></g></g><g id="6b043c01-7b00-4539-2a76-2b497fa2d743_svg" class="tl-centered-g" transform="translate(1233.93, 589.31) rotate(2.988052702262809, 6.88, 10.83)"><g opacity="1"><path d="M 0,21.46 Q 0,21.46 0.90,19.44 1.80,17.43 2.70,14.97 3.59,12.52 4.45,9.92 5.31,7.32 5.85,5.68 6.40,4.04 6.87,3.39 7.33,2.73 7.80,2.99 8.28,3.25 8.90,4.57 9.53,5.88 10.29,8.13 11.04,10.37 11.62,12.52 12.20,14.66 12.55,16.15 12.89,17.64 13.04,18.41 13.19,19.17 13.15,19.60" fill="none" stroke="none" stroke-width="4" stroke-linejoin="round" stroke-linecap="round" pointer-events="stroke"/><path d="M 0,21.46 Q 0,21.46 0.90,19.44 1.80,17.43 2.70,14.97 3.59,12.52 4.45,9.92 5.31,7.32 5.85,5.68 6.40,4.04 6.87,3.39 7.33,2.73 7.80,2.99 8.28,3.25 8.90,4.57 9.53,5.88 10.29,8.13 11.04,10.37 11.62,12.52 12.20,14.66 12.55,16.15 12.89,17.64 13.04,18.41 13.19,19.17 13.15,19.60" fill="none" stroke="#1d1d1d" stroke-width="4" stroke-dasharray="none" stroke-dashoffset="none" stroke-linejoin="round" stroke-linecap="round" pointer-events="stroke"/></g></g><g id="1d48262b-785d-4a92-24aa-9d544005e894_svg" class="tl-centered-g" transform="translate(1237.59, 601.63) rotate(2.988052702262809, 8.05, 0.85)"><g opacity="1"><path d="M 0.39,1.56 Q 0.39,1.56 2.65,1.47 4.91,1.38 7.04,1.14 9.16,0.90 12.63,0.45" fill="none" stroke="none" stroke-width="4" stroke-linejoin="round" stroke-linecap="round" pointer-events="stroke"/><path d="M 0.39,1.56 Q 0.39,1.56 2.65,1.47 4.91,1.38 7.04,1.14 9.16,0.90 12.63,0.45" fill="none" stroke="#1d1d1d" stroke-width="4" stroke-dasharray="none" stroke-dashoffset="none" stroke-linejoin="round" stroke-linecap="round" pointer-events="stroke"/></g></g><g id="c47161f3-7780-4754-06ac-07857dd39c67_svg" class="tl-centered-g" transform="translate(1286.16, 592.95) rotate(2.988052702262809, 0.78, 8.77)"><g opacity="1"><path d="M 0,0.59 Q 0,0.59 0.26,3.26 0.52,5.93 0.72,8.25 0.92,10.57 1.07,12.13 1.21,13.69 1.38,15.39" fill="none" stroke="none" stroke-width="4" stroke-linejoin="round" stroke-linecap="round" pointer-events="stroke"/><path d="M 0,0.59 Q 0,0.59 0.26,3.26 0.52,5.93 0.72,8.25 0.92,10.57 1.07,12.13 1.21,13.69 1.38,15.39" fill="none" stroke="#1d1d1d" stroke-width="4" stroke-dasharray="none" stroke-dashoffset="none" stroke-linejoin="round" stroke-linecap="round" pointer-events="stroke"/></g></g><g id="241c2753-1713-47f5-324b-0d8e5afc397a_svg" class="tl-centered-g" transform="translate(1276.32, 591.11) rotate(2.988052702262809, 11.71, 2.70)"><g opacity="1"><path d="M 0,5.41 Q 0,5.41 1.79,4.60 3.59,3.80 5.91,3.07 8.23,2.33 10.64,1.81 13.04,1.29 15.06,1.01 17.08,0.74 18.48,0.73 19.89,0.73 21.65,1.11" fill="none" stroke="none" stroke-width="4" stroke-linejoin="round" stroke-linecap="round" pointer-events="stroke"/><path d="M 0,5.41 Q 0,5.41 1.79,4.60 3.59,3.80 5.91,3.07 8.23,2.33 10.64,1.81 13.04,1.29 15.06,1.01 17.08,0.74 18.48,0.73 19.89,0.73 21.65,1.11" fill="none" stroke="#1d1d1d" stroke-width="4" stroke-dasharray="none" stroke-dashoffset="none" stroke-linejoin="round" stroke-linecap="round" pointer-events="stroke"/></g></g><g id="82901abb-769e-431b-220e-c0e31c4252b0_svg" class="tl-centered-g" transform="translate(1284.08, 599.17) rotate(2.988052702262809, 9.52, 1.11)"><g opacity="1"><path d="M 0,2.22 Q 0,2.22 2.70,1.89 5.40,1.57 7.71,1.25 10.01,0.92 14.53,0.46" fill="none" stroke="none" stroke-width="4" stroke-linejoin="round" stroke-linecap="round" pointer-events="stroke"/><path d="M 0,2.22 Q 0,2.22 2.70,1.89 5.40,1.57 7.71,1.25 10.01,0.92 14.53,0.46" fill="none" stroke="#1d1d1d" stroke-width="4" stroke-dasharray="none" stroke-dashoffset="none" stroke-linejoin="round" stroke-linecap="round" pointer-events="stroke"/></g></g><g id="5a3ba5cb-b6f8-44bc-253b-08f50bcc1705_svg" class="tl-centered-g" transform="translate(1303.6, 590.72) rotate(2.988052702262809, 6.91, 9.91)"><g opacity="1"><path d="M 0,18.4 Q 0,18.4 0.96,16.25 1.92,14.10 2.92,11.69 3.92,9.28 4.81,7.28 5.69,5.27 6.34,4.09 7.00,2.91 7.68,2.74 8.36,2.57 9.09,3.50 9.81,4.42 10.45,6.25 11.08,8.08 11.61,10.24 12.13,12.40 12.51,14.05 12.89,15.70 13.10,16.62 13.31,17.54 13.40,18.03" fill="none" stroke="none" stroke-width="4" stroke-linejoin="round" stroke-linecap="round" pointer-events="stroke"/><path d="M 0,18.4 Q 0,18.4 0.96,16.25 1.92,14.10 2.92,11.69 3.92,9.28 4.81,7.28 5.69,5.27 6.34,4.09 7.00,2.91 7.68,2.74 8.36,2.57 9.09,3.50 9.81,4.42 10.45,6.25 11.08,8.08 11.61,10.24 12.13,12.40 12.51,14.05 12.89,15.70 13.10,16.62 13.31,17.54 13.40,18.03" fill="none" stroke="#1d1d1d" stroke-width="4" stroke-dasharray="none" stroke-dashoffset="none" stroke-linejoin="round" stroke-linecap="round" pointer-events="stroke"/></g></g><g id="4a6c467a-9bcf-42f2-2b1f-f7d74f968a29_svg" class="tl-centered-g" transform="translate(1304.45, 601.93) rotate(2.988052702262809, 9.39, 1.14)"><g opacity="1"><path d="M 0.2,2.28 Q 0.2,2.28 2.50,1.82 4.81,1.37 6.73,1.06 8.64,0.76 10.59,0.60 12.54,0.44 15.66,0.31" fill="none" stroke="none" stroke-width="4" stroke-linejoin="round" stroke-linecap="round" pointer-events="stroke"/><path d="M 0.2,2.28 Q 0.2,2.28 2.50,1.82 4.81,1.37 6.73,1.06 8.64,0.76 10.59,0.60 12.54,0.44 15.66,0.31" fill="none" stroke="#1d1d1d" stroke-width="4" stroke-dasharray="none" stroke-dashoffset="none" stroke-linejoin="round" stroke-linecap="round" pointer-events="stroke"/></g></g><g id="91b01349-3e78-41bb-2e43-0af5512a9417_svg" class="tl-centered-g" transform="translate(1325.32, 589.47) rotate(2.988052702262809, 8.84, 10.31)"><g opacity="1"><path d="M 0.46,7.5 Q 0.46,7.5 0.41,9.67 0.37,11.84 0.29,13.54 0.20,15.24 0.17,16.18 0.14,17.12 0.33,17.11 0.52,17.10 0.72,16.31 0.93,15.52 1.00,13.87 1.07,12.22 1.02,10.73 0.97,9.24 0.88,8.06 0.80,6.88 0.78,6.26 0.76,5.64 1.17,5.85 1.59,6.06 2.47,7.09 3.36,8.11 4.77,10.07 6.18,12.04 7.67,13.72 9.16,15.41 10.63,16.57 12.10,17.74 13.29,18.06 14.48,18.38 15.19,18.09 15.91,17.80 16.29,16.82 16.67,15.85 16.58,14.02 16.48,12.20 16.19,10.18 15.91,8.17 15.60,6.62 15.30,5.07 15.05,3.95 14.81,2.83 14.87,1.41" fill="none" stroke="none" stroke-width="4" stroke-linejoin="round" stroke-linecap="round" pointer-events="stroke"/><path d="M 0.46,7.5 Q 0.46,7.5 0.41,9.67 0.37,11.84 0.29,13.54 0.20,15.24 0.17,16.18 0.14,17.12 0.33,17.11 0.52,17.10 0.72,16.31 0.93,15.52 1.00,13.87 1.07,12.22 1.02,10.73 0.97,9.24 0.88,8.06 0.80,6.88 0.78,6.26 0.76,5.64 1.17,5.85 1.59,6.06 2.47,7.09 3.36,8.11 4.77,10.07 6.18,12.04 7.67,13.72 9.16,15.41 10.63,16.57 12.10,17.74 13.29,18.06 14.48,18.38 15.19,18.09 15.91,17.80 16.29,16.82 16.67,15.85 16.58,14.02 16.48,12.20 16.19,10.18 15.91,8.17 15.60,6.62 15.30,5.07 15.05,3.95 14.81,2.83 14.87,1.41" fill="none" stroke="#1d1d1d" stroke-width="4" stroke-dasharray="none" stroke-dashoffset="none" stroke-linejoin="round" stroke-linecap="round" pointer-events="stroke"/></g></g><g id="53874b57-0192-4b65-2c22-57fb1f417ed2_svg" class="tl-centered-g" transform="translate(1347.5, 592.78) rotate(2.988052702262809, 9.94, 6.59)"><g opacity="1"><path d="M 13.31,0.13 Q 13.31,0.13 10.60,1.19 7.90,2.26 6.13,3.68 4.36,5.10 3.59,6.44 2.82,7.78 3.78,8.98 4.74,10.19 6.75,10.70 8.77,11.20 14.33,10.65" fill="none" stroke="none" stroke-width="4" stroke-linejoin="round" stroke-linecap="round" pointer-events="stroke"/><path d="M 13.31,0.13 Q 13.31,0.13 10.60,1.19 7.90,2.26 6.13,3.68 4.36,5.10 3.59,6.44 2.82,7.78 3.78,8.98 4.74,10.19 6.75,10.70 8.77,11.20 14.33,10.65" fill="none" stroke="#1d1d1d" stroke-width="4" stroke-dasharray="none" stroke-dashoffset="none" stroke-linejoin="round" stroke-linecap="round" pointer-events="stroke"/></g></g><g id="e2e9a66c-fd2c-4b83-3bc3-68768b39677f_svg" class="tl-centered-g" transform="translate(1367.61, 592.06) rotate(2.988052702262809, 3.58, 6)"><g opacity="1"><path d="M 0,0 Q 0,0 1.47,1.99 2.94,3.99 5.05,7.99" fill="none" stroke="none" stroke-width="4" stroke-linejoin="round" stroke-linecap="round" pointer-events="stroke"/><path d="M 0,0 Q 0,0 1.47,1.99 2.94,3.99 5.05,7.99" fill="none" stroke="#1d1d1d" stroke-width="4" stroke-dasharray="none" stroke-dashoffset="none" stroke-linejoin="round" stroke-linecap="round" pointer-events="stroke"/></g></g><g id="fa73cb32-6a64-49c7-3f42-1740b070048c_svg" class="tl-centered-g" transform="translate(1367.84, 586.41) rotate(2.988052702262809, 7.46, 14.87)"><g opacity="1"><path d="M 0.45,29.09 Q 0.45,29.09 1.91,26.40 3.37,23.72 5.00,20.80 6.64,17.88 8.16,15.12 9.68,12.36 10.76,10.09 11.85,7.81 12.50,6.17 13.14,4.52 14.03,2.26" fill="none" stroke="none" stroke-width="4" stroke-linejoin="round" stroke-linecap="round" pointer-events="stroke"/><path d="M 0.45,29.09 Q 0.45,29.09 1.91,26.40 3.37,23.72 5.00,20.80 6.64,17.88 8.16,15.12 9.68,12.36 10.76,10.09 11.85,7.81 12.50,6.17 13.14,4.52 14.03,2.26" fill="none" stroke="#1d1d1d" stroke-width="4" stroke-dasharray="none" stroke-dashoffset="none" stroke-linejoin="round" stroke-linecap="round" pointer-events="stroke"/></g></g><g id="e924a1d9-57c8-4ab3-0c38-1e21cde03ff7_svg" class="tl-centered-g" transform="translate(1424.62, 592.43) rotate(2.988052702262809, 1.20, 9.72)"><g opacity="1"><path d="M 1.11,0.52 Q 1.11,0.52 0.86,2.65 0.61,4.78 0.62,7.21 0.62,9.64 0.79,11.76 0.96,13.88 1.68,16.66" fill="none" stroke="none" stroke-width="4" stroke-linejoin="round" stroke-linecap="round" pointer-events="stroke"/><path d="M 1.11,0.52 Q 1.11,0.52 0.86,2.65 0.61,4.78 0.62,7.21 0.62,9.64 0.79,11.76 0.96,13.88 1.68,16.66" fill="none" stroke="#1d1d1d" stroke-width="4" stroke-dasharray="none" stroke-dashoffset="none" stroke-linejoin="round" stroke-linecap="round" pointer-events="stroke"/></g></g><g id="d6c99dd8-a030-498e-1770-88d89fe645c9_svg" class="tl-centered-g" transform="translate(1422.65, 590.8) rotate(2.988052702262809, 10.76, 9.23)"><g opacity="1"><path d="M 0,2.48 Q 0,2.48 2.26,1.92 4.52,1.37 7.33,1.37 10.14,1.37 12.57,2.14 15.00,2.91 16.46,4.38 17.91,5.84 18.04,7.86 18.16,9.88 17.54,11.53 16.92,13.17 15.45,14.35 13.98,15.53 11.83,15.97 9.68,16.41 8.08,16.21 6.48,16.01 4.57,13.81" fill="none" stroke="none" stroke-width="4" stroke-linejoin="round" stroke-linecap="round" pointer-events="stroke"/><path d="M 0,2.48 Q 0,2.48 2.26,1.92 4.52,1.37 7.33,1.37 10.14,1.37 12.57,2.14 15.00,2.91 16.46,4.38 17.91,5.84 18.04,7.86 18.16,9.88 17.54,11.53 16.92,13.17 15.45,14.35 13.98,15.53 11.83,15.97 9.68,16.41 8.08,16.21 6.48,16.01 4.57,13.81" fill="none" stroke="#1d1d1d" stroke-width="4" stroke-dasharray="none" stroke-dashoffset="none" stroke-linejoin="round" stroke-linecap="round" pointer-events="stroke"/></g></g><g id="bcb3acac-96ba-4846-0531-cbb4d1b14bb8_svg" class="tl-centered-g" transform="translate(1452.93, 590.78) rotate(2.988052702262809, 1.18, 11.80)"><g opacity="1"><path d="M 0.98,0.71 Q 0.98,0.71 0.87,2.95 0.77,5.20 0.60,8.05 0.43,10.90 0.45,13.68 0.47,16.47 1.41,20.04" fill="none" stroke="none" stroke-width="4" stroke-linejoin="round" stroke-linecap="round" pointer-events="stroke"/><path d="M 0.98,0.71 Q 0.98,0.71 0.87,2.95 0.77,5.20 0.60,8.05 0.43,10.90 0.45,13.68 0.47,16.47 1.41,20.04" fill="none" stroke="#1d1d1d" stroke-width="4" stroke-dasharray="none" stroke-dashoffset="none" stroke-linejoin="round" stroke-linecap="round" pointer-events="stroke"/></g></g><g id="35d5f873-4478-4c99-07b4-fd9d69773f6d_svg" class="tl-centered-g" transform="translate(1464.14, 589.04) rotate(2.988052702262809, 8.05, 13.11)"><g opacity="1"><path d="M 0,21.66 Q 0,21.66 1.09,19.38 2.18,17.10 3.47,14.24 4.77,11.37 5.80,8.96 6.84,6.55 7.48,5.08 8.13,3.61 8.64,3.37 9.16,3.13 9.72,4.31 10.28,5.50 10.78,7.39 11.28,9.28 11.95,12.37 12.63,15.46 13.26,17.86 13.89,20.25 14.34,21.58 14.80,22.92 15.45,23.30" fill="none" stroke="none" stroke-width="4" stroke-linejoin="round" stroke-linecap="round" pointer-events="stroke"/><path d="M 0,21.66 Q 0,21.66 1.09,19.38 2.18,17.10 3.47,14.24 4.77,11.37 5.80,8.96 6.84,6.55 7.48,5.08 8.13,3.61 8.64,3.37 9.16,3.13 9.72,4.31 10.28,5.50 10.78,7.39 11.28,9.28 11.95,12.37 12.63,15.46 13.26,17.86 13.89,20.25 14.34,21.58 14.80,22.92 15.45,23.30" fill="none" stroke="#1d1d1d" stroke-width="4" stroke-dasharray="none" stroke-dashoffset="none" stroke-linejoin="round" stroke-linecap="round" pointer-events="stroke"/></g></g><g id="85b51d3f-f67c-4f7b-295d-16d380dc3c70_svg" class="tl-centered-g" transform="translate(1465.47, 602.26) rotate(2.988052702262809, 12.42, 0.71)"><g opacity="1"><path d="M 0.98,1.43 Q 0.98,1.43 3.49,1.34 6.00,1.25 8.90,1.01 11.80,0.77 18.32,0.38" fill="none" stroke="none" stroke-width="4" stroke-linejoin="round" stroke-linecap="round" pointer-events="stroke"/><path d="M 0.98,1.43 Q 0.98,1.43 3.49,1.34 6.00,1.25 8.90,1.01 11.80,0.77 18.32,0.38" fill="none" stroke="#1d1d1d" stroke-width="4" stroke-dasharray="none" stroke-dashoffset="none" stroke-linejoin="round" stroke-linecap="round" pointer-events="stroke"/></g></g><g id="d4d20456-f0fa-416f-16ca-2487777eaf96_svg" class="tl-centered-g" transform="translate(1485.69, 594.84) rotate(2.988052702262809, 11.41, 10.08)"><g opacity="1"><path d="M 17.28,0.07 Q 17.28,0.07 14.69,1.19 12.11,2.31 9.71,4.16 7.30,6.00 5.67,8.22 4.03,10.44 3.54,12.41 3.04,14.38 3.79,15.67 4.54,16.96 6.02,17.52 7.50,18.07 8.82,18.04 10.15,18.01 10.94,17.57 11.74,17.13 11.88,16.44 12.03,15.74 11.64,14.92 11.25,14.10 10.50,13.45 9.75,12.81 9.13,12.45 8.51,12.09 8.37,12.09 8.23,12.08 8.91,12.31 9.59,12.54 11.03,12.71 12.47,12.88 14.28,12.90 16.08,12.92 19.45,12.52" fill="none" stroke="none" stroke-width="4" stroke-linejoin="round" stroke-linecap="round" pointer-events="stroke"/><path d="M 17.28,0.07 Q 17.28,0.07 14.69,1.19 12.11,2.31 9.71,4.16 7.30,6.00 5.67,8.22 4.03,10.44 3.54,12.41 3.04,14.38 3.79,15.67 4.54,16.96 6.02,17.52 7.50,18.07 8.82,18.04 10.15,18.01 10.94,17.57 11.74,17.13 11.88,16.44 12.03,15.74 11.64,14.92 11.25,14.10 10.50,13.45 9.75,12.81 9.13,12.45 8.51,12.09 8.37,12.09 8.23,12.08 8.91,12.31 9.59,12.54 11.03,12.71 12.47,12.88 14.28,12.90 16.08,12.92 19.45,12.52" fill="none" stroke="#1d1d1d" stroke-width="4" stroke-dasharray="none" stroke-dashoffset="none" stroke-linejoin="round" stroke-linecap="round" pointer-events="stroke"/></g></g><g id="bf3e292c-1bff-4cd6-08d6-91b3e27f762c_svg" class="tl-centered-g" transform="translate(1511.62, 596.83) rotate(2.988052702262809, 0.94, 9)"><g opacity="1"><path d="M 0,0.52 Q 0,0.52 0.42,3.62 0.84,6.73 1.07,9.19 1.31,11.66 1.44,13.07 1.57,14.49 1.70,15.43" fill="none" stroke="none" stroke-width="4" stroke-linejoin="round" stroke-linecap="round" pointer-events="stroke"/><path d="M 0,0.52 Q 0,0.52 0.42,3.62 0.84,6.73 1.07,9.19 1.31,11.66 1.44,13.07 1.57,14.49 1.70,15.43" fill="none" stroke="#1d1d1d" stroke-width="4" stroke-dasharray="none" stroke-dashoffset="none" stroke-linejoin="round" stroke-linecap="round" pointer-events="stroke"/></g></g><g id="ad166913-240b-41d8-1e7b-69c926d844dd_svg" class="tl-centered-g" transform="translate(1510.7, 594.9) rotate(2.988052702262809, 8.77, 10.08)"><g opacity="1"><path d="M 0.13,10.05 Q 0.13,10.05 1.29,7.90 2.46,5.75 4.37,4.47 6.29,3.18 8.21,2.89 10.13,2.60 11.41,3.21 12.69,3.83 12.98,4.93 13.28,6.02 12.63,7.20 11.98,8.38 10.60,9.25 9.21,10.12 7.72,10.67 6.23,11.22 5.27,11.60 4.31,11.98 4.35,12.39 4.40,12.81 5.50,13.34 6.60,13.87 8.11,14.56 9.63,15.25 11.03,16.10 12.44,16.95 14.99,18.55" fill="none" stroke="none" stroke-width="4" stroke-linejoin="round" stroke-linecap="round" pointer-events="stroke"/><path d="M 0.13,10.05 Q 0.13,10.05 1.29,7.90 2.46,5.75 4.37,4.47 6.29,3.18 8.21,2.89 10.13,2.60 11.41,3.21 12.69,3.83 12.98,4.93 13.28,6.02 12.63,7.20 11.98,8.38 10.60,9.25 9.21,10.12 7.72,10.67 6.23,11.22 5.27,11.60 4.31,11.98 4.35,12.39 4.40,12.81 5.50,13.34 6.60,13.87 8.11,14.56 9.63,15.25 11.03,16.10 12.44,16.95 14.99,18.55" fill="none" stroke="#1d1d1d" stroke-width="4" stroke-dasharray="none" stroke-dashoffset="none" stroke-linejoin="round" stroke-linecap="round" pointer-events="stroke"/></g></g><g id="3e4f9cf5-02ae-45ec-0575-af3a705b8df2_svg" class="tl-centered-g" transform="translate(1534.02, 593.5) rotate(2.988052702262809, 5.93, 11.44)"><g opacity="1"><path d="M 0.39,22.89 Q 0.39,22.89 1.26,19.92 2.13,16.96 2.88,14.11 3.63,11.26 4.26,8.89 4.89,6.51 5.46,5.05 6.03,3.59 6.75,3.28 7.47,2.97 8.38,4.32 9.29,5.67 9.87,7.52 10.44,9.37 10.75,11.62 11.05,13.87 11.06,15.63 11.07,17.38 11.04,18.38 11.02,19.38 10.92,20.61" fill="none" stroke="none" stroke-width="4" stroke-linejoin="round" stroke-linecap="round" pointer-events="stroke"/><path d="M 0.39,22.89 Q 0.39,22.89 1.26,19.92 2.13,16.96 2.88,14.11 3.63,11.26 4.26,8.89 4.89,6.51 5.46,5.05 6.03,3.59 6.75,3.28 7.47,2.97 8.38,4.32 9.29,5.67 9.87,7.52 10.44,9.37 10.75,11.62 11.05,13.87 11.06,15.63 11.07,17.38 11.04,18.38 11.02,19.38 10.92,20.61" fill="none" stroke="#1d1d1d" stroke-width="4" stroke-dasharray="none" stroke-dashoffset="none" stroke-linejoin="round" stroke-linecap="round" pointer-events="stroke"/></g></g><g id="0f2b4bc9-1336-44a6-0e03-13b907e901f2_svg" class="tl-centered-g" transform="translate(1533.41, 604.96) rotate(2.988052702262809, 11.25, 1.66)"><g opacity="1"><path d="M 0,3.33 Q 0,3.33 2.51,2.67 5.02,2.01 7.58,1.56 10.15,1.11 12.32,0.93 14.48,0.76 18.49,0.90" fill="none" stroke="none" stroke-width="4" stroke-linejoin="round" stroke-linecap="round" pointer-events="stroke"/><path d="M 0,3.33 Q 0,3.33 2.51,2.67 5.02,2.01 7.58,1.56 10.15,1.11 12.32,0.93 14.48,0.76 18.49,0.90" fill="none" stroke="#1d1d1d" stroke-width="4" stroke-dasharray="none" stroke-dashoffset="none" stroke-linejoin="round" stroke-linecap="round" pointer-events="stroke"/></g></g><g id="ceb7cd1d-3d21-451f-3f4c-0b0ce3739b74_svg" class="tl-centered-g" transform="translate(1553.87, 593.67) rotate(2.988052702262809, 12.06, 11.41)"><g opacity="1"><path d="M 1.04,6.52 Q 1.04,6.52 1.02,8.71 1.01,10.90 0.81,13.16 0.61,15.42 0.47,17.07 0.34,18.73 0.38,19.39 0.42,20.04 0.64,19.60 0.87,19.16 1.12,17.58 1.38,16.01 1.55,14.25 1.72,12.49 1.86,10.58 2.00,8.68 2.11,7.30 2.21,5.93 2.71,5.58 3.20,5.23 3.99,5.72 4.77,6.22 6.13,7.72 7.48,9.21 8.90,10.51 10.32,11.80 11.59,12.44 12.85,13.09 14.22,12.57 15.59,12.04 16.64,10.84 17.69,9.63 18.38,8.22 19.08,6.81 19.54,5.28 20.00,3.76 20.25,2.95 20.50,2.13 20.64,2.30 20.78,2.46 20.84,4.20 20.91,5.94 20.91,8.18 20.92,10.43 21.07,12.39 21.22,14.34 22.67,17.31" fill="none" stroke="none" stroke-width="4" stroke-linejoin="round" stroke-linecap="round" pointer-events="stroke"/><path d="M 1.04,6.52 Q 1.04,6.52 1.02,8.71 1.01,10.90 0.81,13.16 0.61,15.42 0.47,17.07 0.34,18.73 0.38,19.39 0.42,20.04 0.64,19.60 0.87,19.16 1.12,17.58 1.38,16.01 1.55,14.25 1.72,12.49 1.86,10.58 2.00,8.68 2.11,7.30 2.21,5.93 2.71,5.58 3.20,5.23 3.99,5.72 4.77,6.22 6.13,7.72 7.48,9.21 8.90,10.51 10.32,11.80 11.59,12.44 12.85,13.09 14.22,12.57 15.59,12.04 16.64,10.84 17.69,9.63 18.38,8.22 19.08,6.81 19.54,5.28 20.00,3.76 20.25,2.95 20.50,2.13 20.64,2.30 20.78,2.46 20.84,4.20 20.91,5.94 20.91,8.18 20.92,10.43 21.07,12.39 21.22,14.34 22.67,17.31" fill="none" stroke="#1d1d1d" stroke-width="4" stroke-dasharray="none" stroke-dashoffset="none" stroke-linejoin="round" stroke-linecap="round" pointer-events="stroke"/></g></g><g id="c2029623-da27-485e-2668-a6c4b4616afa_svg" class="tl-centered-g" transform="translate(1591.2, 588.98) rotate(2.988052702262809, 1.40, 10.14)"><g opacity="1"><path d="M 0.72,0.72 Q 0.72,0.72 0.55,2.99 0.39,5.27 0.30,7.68 0.21,10.09 0.28,12.17 0.35,14.25 0.65,15.60 0.95,16.95 1.88,18.49" fill="none" stroke="none" stroke-width="4" stroke-linejoin="round" stroke-linecap="round" pointer-events="stroke"/><path d="M 0.72,0.72 Q 0.72,0.72 0.55,2.99 0.39,5.27 0.30,7.68 0.21,10.09 0.28,12.17 0.35,14.25 0.65,15.60 0.95,16.95 1.88,18.49" fill="none" stroke="#1d1d1d" stroke-width="4" stroke-dasharray="none" stroke-dashoffset="none" stroke-linejoin="round" stroke-linecap="round" pointer-events="stroke"/></g></g><g id="e8b2db0c-4f02-41e5-0a47-acf41a48b2f8_svg" class="tl-centered-g" transform="translate(1589.08, 618.76) rotate(2.988052702262809, 2.05, 0.97)"><g opacity="1"><path d="M 0,0.97 Q 0,0.97 0.67,0.97 1.34,0.97 1.23,1.18 1.12,1.40 0.91,1.48 0.70,1.56 0.71,1.04" fill="none" stroke="none" stroke-width="4" stroke-linejoin="round" stroke-linecap="round" pointer-events="stroke"/><path d="M 0,0.97 Q 0,0.97 0.67,0.97 1.34,0.97 1.23,1.18 1.12,1.40 0.91,1.48 0.70,1.56 0.71,1.04" fill="none" stroke="#1d1d1d" stroke-width="4" stroke-dasharray="none" stroke-dashoffset="none" stroke-linejoin="round" stroke-linecap="round" pointer-events="stroke"/></g></g></svg>
