<svg xmlns="http://www.w3.org/2000/svg" viewBox="475.78 146.93 774.58 408.93" width="742.58" height="376.93"><g fill="none" pointer-events="stroke" class="tl-centered-g"><path d="M754.07 403.4H948.05h-1.33"/><path d="M754.07 403.4H948.05h-1.33" stroke="#1d1d1d" stroke-width="4" stroke-dashoffset="none" stroke-linejoin="round" stroke-linecap="round"/></g><g fill="none" pointer-events="stroke" class="tl-centered-g"><path d="m938.93 388.98-.39-.12q-.38-.12-.5.04-.12.15-.07.5.05.35.26.85.22.49.59 1.12.37.63.88 1.35.51.73 1.11 1.5.6.76 1.27 1.51.67.74 1.32 1.43t1.25 1.3q.61.61 1.15 1.16.54.54 1.01.99.47.44.86.81.4.36.73.63.33.28.65.46.31.18.62.31.3.13.57.23l.48.17q.21.07.36.1.14.04.23.06.1.02.07.03-.04.02-.19.02l-.41.03q-.26.02-.62.09-.36.07-.85.25-.49.19-1.06.51-.56.32-1.18.79-.62.47-1.25 1.02t-1.22 1.08q-.58.54-1.1 1.01-.51.48-.97.93-.45.45-.87.86-.41.41-.8.79l-.72.72-.6.6q-.28.27-.53.54-.25.26-.5.51-.26.25-.52.49t-.5.51q-.25.26-.5.55-.25.29-.5.62-.26.32-.45.58-.18.27-.31.43-.13.16-.2.31-.08.14-.1.52"/><path d="m938.93 388.98-.39-.12q-.38-.12-.5.04-.12.15-.07.5.05.35.26.85.22.49.59 1.12.37.63.88 1.35.51.73 1.11 1.5.6.76 1.27 1.51.67.74 1.32 1.43t1.25 1.3q.61.61 1.15 1.16.54.54 1.01.99.47.44.86.81.4.36.73.63.33.28.65.46.31.18.62.31.3.13.57.23l.48.17q.21.07.36.1.14.04.23.06.1.02.07.03-.04.02-.19.02l-.41.03q-.26.02-.62.09-.36.07-.85.25-.49.19-1.06.51-.56.32-1.18.79-.62.47-1.25 1.02t-1.22 1.08q-.58.54-1.1 1.01-.51.48-.97.93-.45.45-.87.86-.41.41-.8.79l-.72.72-.6.6q-.28.27-.53.54-.25.26-.5.51-.26.25-.52.49t-.5.51q-.25.26-.5.55-.25.29-.5.62-.26.32-.45.58-.18.27-.31.43-.13.16-.2.31-.08.14-.1.52" stroke="#1d1d1d" stroke-width="4" stroke-dashoffset="none" stroke-linejoin="round" stroke-linecap="round"/></g><g fill="none" pointer-events="stroke" class="tl-centered-g"><path d="m780.03 355.19-.9-.41q-.89-.41-1.82-.49-.93-.08-1.91.21-.98.29-2.02.94-1.03.64-1.99 1.56-.95.93-1.57 2.02-.61 1.09-.79 2.28-.18 1.19.16 2.33.34 1.14 1.13 2.06.78.92 1.9 1.49 1.12.57 2.41.78 1.29.21 4.16.08"/><path d="m780.03 355.19-.9-.41q-.89-.41-1.82-.49-.93-.08-1.91.21-.98.29-2.02.94-1.03.64-1.99 1.56-.95.93-1.57 2.02-.61 1.09-.79 2.28-.18 1.19.16 2.33.34 1.14 1.13 2.06.78.92 1.9 1.49 1.12.57 2.41.78 1.29.21 4.16.08" stroke="#1d1d1d" stroke-width="4" stroke-dashoffset="none" stroke-linejoin="round" stroke-linecap="round"/></g><g fill="none" pointer-events="stroke" class="tl-centered-g"><path d="m790.01 368.57-.79-1.38q-.79-1.37-1.24-2.64-.45-1.27-.45-2.41 0-1.14.46-2.11.47-.96 1.33-1.62.85-.67 1.89-.9 1.04-.24 2.06.1 1.01.33 1.83 1.06.83.73 1.32 1.67.5.94.62 1.96.11 1.01-.19 1.94-.3.92-.95 1.63-.65.7-1.51.98-.87.29-1.45.11-.59-.18-1.31-1.15"/><path d="m790.01 368.57-.79-1.38q-.79-1.37-1.24-2.64-.45-1.27-.45-2.41 0-1.14.46-2.11.47-.96 1.33-1.62.85-.67 1.89-.9 1.04-.24 2.06.1 1.01.33 1.83 1.06.83.73 1.32 1.67.5.94.62 1.96.11 1.01-.19 1.94-.3.92-.95 1.63-.65.7-1.51.98-.87.29-1.45.11-.59-.18-1.31-1.15" stroke="#1d1d1d" stroke-width="4" stroke-dashoffset="none" stroke-linejoin="round" stroke-linecap="round"/></g><g fill="none" pointer-events="stroke" class="tl-centered-g"><path d="m805.27 353.82.23 2.17q.23 2.17.36 3.98.13 1.8.21 3.29l.11 2.37q.04.88.09 1.87"/><path d="m805.27 353.82.23 2.17q.23 2.17.36 3.98.13 1.8.21 3.29l.11 2.37q.04.88.09 1.87" stroke="#1d1d1d" stroke-width="4" stroke-dashoffset="none" stroke-linejoin="round" stroke-linecap="round"/></g><g fill="none" pointer-events="stroke" class="tl-centered-g"><path d="m804.62 355 .65 1.32q.66 1.33 1.24 2.27t1.21 1.57q.62.64 1.43.91.8.28 1.54.17.75-.11 1.57-.75.82-.64 1.54-1.54.72-.9 1.32-1.85.6-.94 1.05-1.83.45-.89.77-1.53.32-.63.52-1 .21-.37.4-.5.18-.13.42.4.23.53.42 1.52.19.99.32 2.4.14 1.41.22 3.11.09 1.7.17 3.28.08 1.58.18 2.76.1 1.17.42 1.8.32.62.84 1.32"/><path d="m804.62 355 .65 1.32q.66 1.33 1.24 2.27t1.21 1.57q.62.64 1.43.91.8.28 1.54.17.75-.11 1.57-.75.82-.64 1.54-1.54.72-.9 1.32-1.85.6-.94 1.05-1.83.45-.89.77-1.53.32-.63.52-1 .21-.37.4-.5.18-.13.42.4.23.53.42 1.52.19.99.32 2.4.14 1.41.22 3.11.09 1.7.17 3.28.08 1.58.18 2.76.1 1.17.42 1.8.32.62.84 1.32" stroke="#1d1d1d" stroke-width="4" stroke-dashoffset="none" stroke-linejoin="round" stroke-linecap="round"/></g><g fill="none" pointer-events="stroke" class="tl-centered-g"><path d="m825.75 353.95.26 1.83q.26 1.84.42 3.87.16 2.02.25 3.9t.14 3.22q.04 1.35.15 2.1.1.76.29 1.34"/><path d="m825.75 353.95.26 1.83q.26 1.84.42 3.87.16 2.02.25 3.9t.14 3.22q.04 1.35.15 2.1.1.76.29 1.34" stroke="#1d1d1d" stroke-width="4" stroke-dashoffset="none" stroke-linejoin="round" stroke-linecap="round"/></g><g fill="none" pointer-events="stroke" class="tl-centered-g"><path d="m823.66 357.74 1.21-1.19q1.21-1.18 2.52-1.62 1.31-.43 2.54-.25 1.22.18 2.1.81.88.63 1.35 1.53.47.9.44 1.88-.04.98-.45 1.84-.41.86-1.12 1.46-.71.59-1.51.87-.8.29-1.37.11-.58-.18-1.29-.99"/><path d="m823.66 357.74 1.21-1.19q1.21-1.18 2.52-1.62 1.31-.43 2.54-.25 1.22.18 2.1.81.88.63 1.35 1.53.47.9.44 1.88-.04.98-.45 1.84-.41.86-1.12 1.46-.71.59-1.51.87-.8.29-1.37.11-.58-.18-1.29-.99" stroke="#1d1d1d" stroke-width="4" stroke-dashoffset="none" stroke-linejoin="round" stroke-linecap="round"/></g><g fill="none" pointer-events="stroke" class="tl-centered-g"><path d="m841.87 352.78-.17 2.32q-.16 2.32-.25 4.66-.09 2.35-.13 4.33-.05 1.99.06 3.27.12 1.29.79 2.78"/><path d="m841.87 352.78-.17 2.32q-.16 2.32-.25 4.66-.09 2.35-.13 4.33-.05 1.99.06 3.27.12 1.29.79 2.78" stroke="#1d1d1d" stroke-width="4" stroke-dashoffset="none" stroke-linejoin="round" stroke-linecap="round"/></g><g fill="none" pointer-events="stroke" class="tl-centered-g"><path d="m852.04 354.67-.02 1.4q-.01 1.4-.21 2.93-.2 1.53-.35 3.09-.15 1.57-.15 2.65 0 1.08.37 1.75.36.68 1.05 1.05.68.37 1.64.53.96.16 2.11.25t2.38.14q1.23.04 2.45.07 1.21.03 2.18.04.97.02 1.62 0 .65-.02 1.52-.24"/><path d="m852.04 354.67-.02 1.4q-.01 1.4-.21 2.93-.2 1.53-.35 3.09-.15 1.57-.15 2.65 0 1.08.37 1.75.36.68 1.05 1.05.68.37 1.64.53.96.16 2.11.25t2.38.14q1.23.04 2.45.07 1.21.03 2.18.04.97.02 1.62 0 .65-.02 1.52-.24" stroke="#1d1d1d" stroke-width="4" stroke-dashoffset="none" stroke-linejoin="round" stroke-linecap="round"/></g><g fill="none" pointer-events="stroke" class="tl-centered-g"><path d="m870.18 355.78.37 2.65q.38 2.66.61 4.55.22 1.89.36 2.99.14 1.1.24 1.58.11.48.24.97"/><path d="m870.18 355.78.37 2.65q.38 2.66.61 4.55.22 1.89.36 2.99.14 1.1.24 1.58.11.48.24.97" stroke="#1d1d1d" stroke-width="4" stroke-dashoffset="none" stroke-linejoin="round" stroke-linecap="round"/></g><g fill="none" pointer-events="stroke" class="tl-centered-g"><path d="m869.13 354.87 2.04-.25q2.05-.25 3.83-.43 1.79-.19 3.18-.33 1.4-.14 2.4-.27 1.01-.12 2.38-.34"/><path d="m869.13 354.87 2.04-.25q2.05-.25 3.83-.43 1.79-.19 3.18-.33 1.4-.14 2.4-.27 1.01-.12 2.38-.34" stroke="#1d1d1d" stroke-width="4" stroke-dashoffset="none" stroke-linejoin="round" stroke-linecap="round"/></g><g fill="none" pointer-events="stroke" class="tl-centered-g"><path d="m870.89 360.93 2.07.02q2.07.03 3.55.04 1.49 0 2.67-.06 1.18-.05 1.92-.1l1.63-.11"/><path d="m870.89 360.93 2.07.02q2.07.03 3.55.04 1.49 0 2.67-.06 1.18-.05 1.92-.1l1.63-.11" stroke="#1d1d1d" stroke-width="4" stroke-dashoffset="none" stroke-linejoin="round" stroke-linecap="round"/></g><g fill="none" pointer-events="stroke" class="tl-centered-g"><path d="m872.2 368.3 1.7.59q1.71.6 3.34.98t2.99.58q1.37.21 2.4.33 1.03.11 2.47.25"/><path d="m872.2 368.3 1.7.59q1.71.6 3.34.98t2.99.58q1.37.21 2.4.33 1.03.11 2.47.25" stroke="#1d1d1d" stroke-width="4" stroke-dashoffset="none" stroke-linejoin="round" stroke-linecap="round"/></g><g fill="none" pointer-events="stroke" class="tl-centered-g"><path d="m994.11 392.31-.28 1.92q-.28 1.93-.63 4.03-.36 2.1-.57 3.73-.22 1.62-.29 2.66-.07 1.03.24 1.63.31.6.96.9.65.3 1.45.44.8.14 1.93.2 1.12.06 2.14.09l1.74.05q.72.02 1.28.03.56.01 1.45-.01"/><path d="m994.11 392.31-.28 1.92q-.28 1.93-.63 4.03-.36 2.1-.57 3.73-.22 1.62-.29 2.66-.07 1.03.24 1.63.31.6.96.9.65.3 1.45.44.8.14 1.93.2 1.12.06 2.14.09l1.74.05q.72.02 1.28.03.56.01 1.45-.01" stroke="#1d1d1d" stroke-width="4" stroke-dashoffset="none" stroke-linejoin="round" stroke-linecap="round"/></g><g fill="none" pointer-events="stroke" class="tl-centered-g"><path d="m1012.12 406.2-.63-1.33q-.63-1.33-.92-2.84-.29-1.5-.16-3.07.14-1.56.66-2.86.53-1.3 1.4-2.12.88-.82 1.93-.9 1.05-.07 2.01.74.96.8 1.55 2.2.59 1.39.65 2.93.07 1.55-.26 2.9-.33 1.34-1.04 2.34-.71.99-1.62 1.54-.92.55-1.73.5-.82-.05-1.76-1.67"/><path d="m1012.12 406.2-.63-1.33q-.63-1.33-.92-2.84-.29-1.5-.16-3.07.14-1.56.66-2.86.53-1.3 1.4-2.12.88-.82 1.93-.9 1.05-.07 2.01.74.96.8 1.55 2.2.59 1.39.65 2.93.07 1.55-.26 2.9-.33 1.34-1.04 2.34-.71.99-1.62 1.54-.92.55-1.73.5-.82-.05-1.76-1.67" stroke="#1d1d1d" stroke-width="4" stroke-dashoffset="none" stroke-linejoin="round" stroke-linecap="round"/></g><g fill="none" pointer-events="stroke" class="tl-centered-g"><path d="m1026.14 392.9-.37 1.56q-.36 1.56-.62 3.22-.26 1.67-.28 3.19-.01 1.51.35 2.56.36 1.04 1.02 1.47.67.43 1.57.09.91-.35 1.82-1.23.92-.87 1.61-1.94.69-1.07 1.14-1.96.46-.9.74-1.44.28-.54.57-.62.29-.08.66.37.38.46.86 1.33.49.88 1.14 1.88.65.99 1.41 1.79.77.8 1.53 1.27t1.54.51q.79.04 1.54-.36.75-.4 1.42-1.24.66-.83 1.21-2.08.54-1.25.9-2.86.35-1.61.51-3.17.15-1.56.09-2.73t-.17-2.87"/><path d="m1026.14 392.9-.37 1.56q-.36 1.56-.62 3.22-.26 1.67-.28 3.19-.01 1.51.35 2.56.36 1.04 1.02 1.47.67.43 1.57.09.91-.35 1.82-1.23.92-.87 1.61-1.94.69-1.07 1.14-1.96.46-.9.74-1.44.28-.54.57-.62.29-.08.66.37.38.46.86 1.33.49.88 1.14 1.88.65.99 1.41 1.79.77.8 1.53 1.27t1.54.51q.79.04 1.54-.36.75-.4 1.42-1.24.66-.83 1.21-2.08.54-1.25.9-2.86.35-1.61.51-3.17.15-1.56.09-2.73t-.17-2.87" stroke="#1d1d1d" stroke-width="4" stroke-dashoffset="none" stroke-linejoin="round" stroke-linecap="round"/></g><g fill="none" pointer-events="stroke" class="tl-centered-g"><path d="m1084.33 387.94-.09 1.66q-.09 1.66-.24 3.24-.15 1.58-.32 3.13-.17 1.56-.25 2.89-.09 1.32-.03 2.17.06.85.4 1.41.34.56 1.11.94.77.38 1.59.63.82.26 1.75.43.94.17 2.01.26 1.07.09 1.94.13.87.04 1.54.06.67.02 1.69.18"/><path d="m1084.33 387.94-.09 1.66q-.09 1.66-.24 3.24-.15 1.58-.32 3.13-.17 1.56-.25 2.89-.09 1.32-.03 2.17.06.85.4 1.41.34.56 1.11.94.77.38 1.59.63.82.26 1.75.43.94.17 2.01.26 1.07.09 1.94.13.87.04 1.54.06.67.02 1.69.18" stroke="#1d1d1d" stroke-width="4" stroke-dashoffset="none" stroke-linejoin="round" stroke-linecap="round"/></g><g fill="none" pointer-events="stroke" class="tl-centered-g"><path d="m1103.57 389.64.14 2.68q.15 2.69.24 4.72.1 2.04.18 3.6.08 1.57.19 2.4.1.84.29 1.41"/><path d="m1103.57 389.64.14 2.68q.15 2.69.24 4.72.1 2.04.18 3.6.08 1.57.19 2.4.1.84.29 1.41" stroke="#1d1d1d" stroke-width="4" stroke-dashoffset="none" stroke-linejoin="round" stroke-linecap="round"/></g><g fill="none" pointer-events="stroke" class="tl-centered-g"><path d="m1101.68 387.68 2.34-.18q2.35-.18 4.31-.3 1.96-.13 3.4-.2 1.45-.07 2.39-.06.94 0 2.08.3"/><path d="m1101.68 387.68 2.34-.18q2.35-.18 4.31-.3 1.96-.13 3.4-.2 1.45-.07 2.39-.06.94 0 2.08.3" stroke="#1d1d1d" stroke-width="4" stroke-dashoffset="none" stroke-linejoin="round" stroke-linecap="round"/></g><g fill="none" pointer-events="stroke" class="tl-centered-g"><path d="m1105.92 397.07 2.15-.3q2.16-.29 3.74-.46 1.57-.18 2.6-.28 1.03-.09 1.58-.07.56.02 1.08.21"/><path d="m1105.92 397.07 2.15-.3q2.16-.29 3.74-.46 1.57-.18 2.6-.28 1.03-.09 1.58-.07.56.02 1.08.21" stroke="#1d1d1d" stroke-width="4" stroke-dashoffset="none" stroke-linejoin="round" stroke-linecap="round"/></g><g fill="none" pointer-events="stroke" class="tl-centered-g"><path d="m1104.88 404.45 1.96.23q1.97.23 3.78.24 1.8.01 3.41-.07t4.18-.24"/><path d="m1104.88 404.45 1.96.23q1.97.23 3.78.24 1.8.01 3.41-.07t4.18-.24" stroke="#1d1d1d" stroke-width="4" stroke-dashoffset="none" stroke-linejoin="round" stroke-linecap="round"/></g><g fill="none" pointer-events="stroke" class="tl-centered-g"><path d="m1124.84 387.94 1.06 2.87q1.07 2.88 1.9 5.14.84 2.25 1.52 3.78.68 1.53 1.21 2.41.54.89 1 1.26.46.38.88.23.43-.14.84-.76.42-.62.85-1.76.43-1.15.89-2.82.45-1.66.79-3.46t.53-3.31q.19-1.5.29-2.68.11-1.19.43-3"/><path d="m1124.84 387.94 1.06 2.87q1.07 2.88 1.9 5.14.84 2.25 1.52 3.78.68 1.53 1.21 2.41.54.89 1 1.26.46.38.88.23.43-.14.84-.76.42-.62.85-1.76.43-1.15.89-2.82.45-1.66.79-3.46t.53-3.31q.19-1.5.29-2.68.11-1.19.43-3" stroke="#1d1d1d" stroke-width="4" stroke-dashoffset="none" stroke-linejoin="round" stroke-linecap="round"/></g><g fill="none" pointer-events="stroke" class="tl-centered-g"><path d="m1145.38 387.94.27 2.34q.28 2.35.39 4.22.11 1.87.17 3.03.06 1.16.17 2.14"/><path d="m1145.38 387.94.27 2.34q.28 2.35.39 4.22.11 1.87.17 3.03.06 1.16.17 2.14" stroke="#1d1d1d" stroke-width="4" stroke-dashoffset="none" stroke-linejoin="round" stroke-linecap="round"/></g><g fill="none" pointer-events="stroke" class="tl-centered-g"><path d="m1144.67 387.48 2.43-.35q2.44-.35 4.28-.6 1.84-.26 3.07-.39 1.22-.14 1.91-.16.69-.02 1.41.12"/><path d="m1144.67 387.48 2.43-.35q2.44-.35 4.28-.6 1.84-.26 3.07-.39 1.22-.14 1.91-.16.69-.02 1.41.12" stroke="#1d1d1d" stroke-width="4" stroke-dashoffset="none" stroke-linejoin="round" stroke-linecap="round"/></g><g fill="none" pointer-events="stroke" class="tl-centered-g"><path d="m1147.8 394.2 1.7.26q1.71.26 3.08.32 1.36.06 2.41.04 1.05-.01 1.64 0 .59.01 1.29.15"/><path d="m1147.8 394.2 1.7.26q1.71.26 3.08.32 1.36.06 2.41.04 1.05-.01 1.64 0 .59.01 1.29.15" stroke="#1d1d1d" stroke-width="4" stroke-dashoffset="none" stroke-linejoin="round" stroke-linecap="round"/></g><g fill="none" pointer-events="stroke" class="tl-centered-g"><path d="m1147.54 402.09 2.18.2q2.19.21 3.96.2 1.76 0 3.3-.13 1.55-.14 3.98-.43"/><path d="m1147.54 402.09 2.18.2q2.19.21 3.96.2 1.76 0 3.3-.13 1.55-.14 3.98-.43" stroke="#1d1d1d" stroke-width="4" stroke-dashoffset="none" stroke-linejoin="round" stroke-linecap="round"/></g><g fill="none" pointer-events="stroke" class="tl-centered-g"><path d="m1168.34 384.94.14 1.98q.15 1.98.23 4.05.08 2.06.17 3.69.09 1.63.18 2.7.1 1.06.2 1.7.11.65.28 1.04.16.38.4.62.23.25.65.38.43.13 1.1.18.67.04 1.58-.03.91-.08 1.97-.18 1.05-.1 2.12-.16 1.07-.05 2.15-.08 1.09-.03 2.04-.05.95-.01 1.6-.01.66 0 1.02.02t.51.1q.14.08.02.38"/><path d="m1168.34 384.94.14 1.98q.15 1.98.23 4.05.08 2.06.17 3.69.09 1.63.18 2.7.1 1.06.2 1.7.11.65.28 1.04.16.38.4.62.23.25.65.38.43.13 1.1.18.67.04 1.58-.03.91-.08 1.97-.18 1.05-.1 2.12-.16 1.07-.05 2.15-.08 1.09-.03 2.04-.05.95-.01 1.6-.01.66 0 1.02.02t.51.1q.14.08.02.38" stroke="#1d1d1d" stroke-width="4" stroke-dashoffset="none" stroke-linejoin="round" stroke-linecap="round"/></g><g fill="none" pointer-events="stroke" class="tl-centered-g"><path d="m989.94 432.89-.27 1q-.26 1.01-.4 2.24-.15 1.22-.23 2.69-.08 1.47-.11 3-.03 1.54-.03 2.63-.01 1.08.01 1.74.01.66.03.98"/><path d="m989.94 432.89-.27 1q-.26 1.01-.4 2.24-.15 1.22-.23 2.69-.08 1.47-.11 3-.03 1.54-.03 2.63-.01 1.08.01 1.74.01.66.03.98" stroke="#1d1d1d" stroke-width="4" stroke-dashoffset="none" stroke-linejoin="round" stroke-linecap="round"/></g><g fill="none" pointer-events="stroke" class="tl-centered-g"><path d="m995.09 447.24.33.86q.34.86.54 1.43l.32.93q.13.35.21.54.09.19.18.19.08.01.21-.31.12-.32.23-.96.11-.65.2-1.6.1-.95.16-2.18.07-1.23.1-2.65.04-1.42.06-2.85.02-1.43 0-2.67t-.03-2.15q-.01-.9-.02-1.5 0-.61.02-.98.03-.38.06-.6.03-.22.06-.35.03-.12.12-.17.09-.06.27.09.19.15.49.59.3.45.73 1.42.43.98.89 1.98.46 1.01 1.06 2.21.6 1.2 1.32 2.44.71 1.25 1.42 2.42.72 1.17 1.36 2.11.65.94 1.22 1.61.57.68 1.09 1.17.53.5.98.87.44.37.81.67.36.29.64.48.27.19.45.31.18.13.3.21.11.08.17.1.07.01.12-.13.05-.14.09-.53.04-.4.07-1.39.02-.99.03-2.13.01-1.13.02-2.59.01-1.45.01-3.11.01-1.65-.02-2.88-.03-1.24-.06-2.23-.03-.98 0-1.76t.36-1.49q.34-.71 1.54-2.1"/><path d="m995.09 447.24.33.86q.34.86.54 1.43l.32.93q.13.35.21.54.09.19.18.19.08.01.21-.31.12-.32.23-.96.11-.65.2-1.6.1-.95.16-2.18.07-1.23.1-2.65.04-1.42.06-2.85.02-1.43 0-2.67t-.03-2.15q-.01-.9-.02-1.5 0-.61.02-.98.03-.38.06-.6.03-.22.06-.35.03-.12.12-.17.09-.06.27.09.19.15.49.59.3.45.73 1.42.43.98.89 1.98.46 1.01 1.06 2.21.6 1.2 1.32 2.44.71 1.25 1.42 2.42.72 1.17 1.36 2.11.65.94 1.22 1.61.57.68 1.09 1.17.53.5.98.87.44.37.81.67.36.29.64.48.27.19.45.31.18.13.3.21.11.08.17.1.07.01.12-.13.05-.14.09-.53.04-.4.07-1.39.02-.99.03-2.13.01-1.13.02-2.59.01-1.45.01-3.11.01-1.65-.02-2.88-.03-1.24-.06-2.23-.03-.98 0-1.76t.36-1.49q.34-.71 1.54-2.1" stroke="#1d1d1d" stroke-width="4" stroke-dashoffset="none" stroke-linejoin="round" stroke-linecap="round"/></g><g fill="none" pointer-events="stroke" class="tl-centered-g"><path d="m1030.25 430.21-1.55.83q-1.55.83-2.78 1.55-1.24.72-2.03 1.27-.8.54-1.24 1.05-.45.5-.35 1.06.09.56.72 1.2.64.65 1.69 1.4 1.05.74 2.21 1.58 1.17.84 2.13 1.67.97.82 1.54 1.6.58.78.81 1.43.23.65-.16 1.27-.4.62-1.26 1.02-.87.4-2.16.63-1.29.22-2.79.11-1.51-.11-2.86-.52-1.36-.42-2.29-1.07-.92-.65-1.2-1.34-.27-.7-.48-1.62"/><path d="m1030.25 430.21-1.55.83q-1.55.83-2.78 1.55-1.24.72-2.03 1.27-.8.54-1.24 1.05-.45.5-.35 1.06.09.56.72 1.2.64.65 1.69 1.4 1.05.74 2.21 1.58 1.17.84 2.13 1.67.97.82 1.54 1.6.58.78.81 1.43.23.65-.16 1.27-.4.62-1.26 1.02-.87.4-2.16.63-1.29.22-2.79.11-1.51-.11-2.86-.52-1.36-.42-2.29-1.07-.92-.65-1.2-1.34-.27-.7-.48-1.62" stroke="#1d1d1d" stroke-width="4" stroke-dashoffset="none" stroke-linejoin="round" stroke-linecap="round"/></g><g fill="none" pointer-events="stroke" class="tl-centered-g"><path d="m1034.88 431.58 1.49-.15q1.49-.15 3.05-.33 1.57-.18 2.96-.36 1.39-.17 2.47-.31 1.07-.14 2.63-.35"/><path d="m1034.88 431.58 1.49-.15q1.49-.15 3.05-.33 1.57-.18 2.96-.36 1.39-.17 2.47-.31 1.07-.14 2.63-.35" stroke="#1d1d1d" stroke-width="4" stroke-dashoffset="none" stroke-linejoin="round" stroke-linecap="round"/></g><g fill="none" pointer-events="stroke" class="tl-centered-g"><path d="m1043.95 430.41-.56 1.45q-.55 1.46-.83 3.26-.28 1.8-.39 3.85-.11 2.04-.11 3.91 0 1.88.03 3.25t.13 2.19q.1.81.26 1.26.16.45.42.98"/><path d="m1043.95 430.41-.56 1.45q-.55 1.46-.83 3.26-.28 1.8-.39 3.85-.11 2.04-.11 3.91 0 1.88.03 3.25t.13 2.19q.1.81.26 1.26.16.45.42.98" stroke="#1d1d1d" stroke-width="4" stroke-dashoffset="none" stroke-linejoin="round" stroke-linecap="round"/></g><g fill="none" pointer-events="stroke" class="tl-centered-g"><path d="m1053.21 433.86.27 1.63q.28 1.64.45 3.46.17 1.82.26 3.65.09 1.82.15 2.98.05 1.15.18 1.58.13.44.55-.3"/><path d="m1053.21 433.86.27 1.63q.28 1.64.45 3.46.17 1.82.26 3.65.09 1.82.15 2.98.05 1.15.18 1.58.13.44.55-.3" stroke="#1d1d1d" stroke-width="4" stroke-dashoffset="none" stroke-linejoin="round" stroke-linecap="round"/></g><g fill="none" pointer-events="stroke" class="tl-centered-g"><path d="m1054.13 434.97 1.83-1.09q1.84-1.08 3.72-1.72 1.88-.64 3.38-.77t2.65.49q1.15.63 1.73 1.62.58.98.66 1.91.07.93-.49 1.78-.56.84-1.53 1.4-.96.55-2.04.87-1.07.32-2.18.53-1.1.21-1.77.36-.67.16-.98.37-.31.2.08.72.38.53 1.23 1.3.86.76 1.88 1.72 1.03.95 2.09 1.91 1.07.96 2.02 1.86.95.9 1.69 1.67.75.77 1.24 1.33.48.56.78.9.29.33.92.39"/><path d="m1054.13 434.97 1.83-1.09q1.84-1.08 3.72-1.72 1.88-.64 3.38-.77t2.65.49q1.15.63 1.73 1.62.58.98.66 1.91.07.93-.49 1.78-.56.84-1.53 1.4-.96.55-2.04.87-1.07.32-2.18.53-1.1.21-1.77.36-.67.16-.98.37-.31.2.08.72.38.53 1.23 1.3.86.76 1.88 1.72 1.03.95 2.09 1.91 1.07.96 2.02 1.86.95.9 1.69 1.67.75.77 1.24 1.33.48.56.78.9.29.33.92.39" stroke="#1d1d1d" stroke-width="4" stroke-dashoffset="none" stroke-linejoin="round" stroke-linecap="round"/></g><g fill="none" pointer-events="stroke" class="tl-centered-g"><path d="m1077.68 432.56-.46 1.42q-.45 1.43-.7 3.09-.26 1.65-.17 3.26.08 1.61.54 2.93.47 1.31 1.34 2.1.87.78 1.97.78 1.09 0 2.22-.68 1.13-.67 2.06-1.79.94-1.12 1.6-2.58.66-1.46 1.04-3.1.38-1.64.54-3.05.17-1.4.18-2.28.02-.87-.01-1.28-.03-.42-.07-.15-.03.27.04 1.27.07.99.31 2.53.25 1.55.56 3.36.3 1.81.72 3.6t1.15 3.03q.73 1.24 2.61 2.61"/><path d="m1077.68 432.56-.46 1.42q-.45 1.43-.7 3.09-.26 1.65-.17 3.26.08 1.61.54 2.93.47 1.31 1.34 2.1.87.78 1.97.78 1.09 0 2.22-.68 1.13-.67 2.06-1.79.94-1.12 1.6-2.58.66-1.46 1.04-3.1.38-1.64.54-3.05.17-1.4.18-2.28.02-.87-.01-1.28-.03-.42-.07-.15-.03.27.04 1.27.07.99.31 2.53.25 1.55.56 3.36.3 1.81.72 3.6t1.15 3.03q.73 1.24 2.61 2.61" stroke="#1d1d1d" stroke-width="4" stroke-dashoffset="none" stroke-linejoin="round" stroke-linecap="round"/></g><g fill="none" pointer-events="stroke" class="tl-centered-g"><path d="m1110.62 432.82-1.47-.28q-1.46-.28-2.94.25-1.47.54-2.74 1.75-1.27 1.22-2.06 2.69t-.93 2.95q-.15 1.49.43 2.85t1.83 2.36q1.25 1 2.98 1.47t3.75.14q2.02-.33 6.28-2.2"/><path d="m1110.62 432.82-1.47-.28q-1.46-.28-2.94.25-1.47.54-2.74 1.75-1.27 1.22-2.06 2.69t-.93 2.95q-.15 1.49.43 2.85t1.83 2.36q1.25 1 2.98 1.47t3.75.14q2.02-.33 6.28-2.2" stroke="#1d1d1d" stroke-width="4" stroke-dashoffset="none" stroke-linejoin="round" stroke-linecap="round"/></g><g fill="none" pointer-events="stroke" class="tl-centered-g"><path d="m1118.9 429.75 1.78.24q1.78.25 4 .19 2.22-.07 4.04-.21 1.81-.14 3.28-.3 1.47-.17 2.45-.3.99-.14 2.21-.37"/><path d="m1118.9 429.75 1.78.24q1.78.25 4 .19 2.22-.07 4.04-.21 1.81-.14 3.28-.3 1.47-.17 2.45-.3.99-.14 2.21-.37" stroke="#1d1d1d" stroke-width="4" stroke-dashoffset="none" stroke-linejoin="round" stroke-linecap="round"/></g><g fill="none" pointer-events="stroke" class="tl-centered-g"><path d="m1129.4 428.19-.18 2.14q-.17 2.15-.21 4.12-.04 1.97 0 4.03.03 2.05.17 3.96.14 1.91.45 3.11.31 1.19.95 2.64"/><path d="m1129.4 428.19-.18 2.14q-.17 2.15-.21 4.12-.04 1.97 0 4.03.03 2.05.17 3.96.14 1.91.45 3.11.31 1.19.95 2.64" stroke="#1d1d1d" stroke-width="4" stroke-dashoffset="none" stroke-linejoin="round" stroke-linecap="round"/></g><g fill="none" pointer-events="stroke" class="tl-centered-g"><path d="m1144.6 430.99.2 2.59q.21 2.6.32 4.83.11 2.22.26 4.25.15 2.03.51 3.26.36 1.22 1.13 2.64"/><path d="m1144.6 430.99.2 2.59q.21 2.6.32 4.83.11 2.22.26 4.25.15 2.03.51 3.26.36 1.22 1.13 2.64" stroke="#1d1d1d" stroke-width="4" stroke-dashoffset="none" stroke-linejoin="round" stroke-linecap="round"/></g><g fill="none" pointer-events="stroke" class="tl-centered-g"><path d="m1156.93 446.19-.91-.9q-.9-.89-1.46-2.25-.56-1.37-.72-3.1-.16-1.74.18-3.44.35-1.7 1.19-3.06.83-1.37 2.15-2.21 1.32-.84 2.81-1.03 1.49-.18 2.74.44 1.24.63 2.02 1.94t1.09 2.92q.31 1.62.13 3.18-.17 1.56-.78 2.86-.61 1.3-1.64 2.27-1.02.97-2.24 1.53-1.22.56-2.28.58-1.05.02-1.56-.58t-.81-1.9"/><path d="m1156.93 446.19-.91-.9q-.9-.89-1.46-2.25-.56-1.37-.72-3.1-.16-1.74.18-3.44.35-1.7 1.19-3.06.83-1.37 2.15-2.21 1.32-.84 2.81-1.03 1.49-.18 2.74.44 1.24.63 2.02 1.94t1.09 2.92q.31 1.62.13 3.18-.17 1.56-.78 2.86-.61 1.3-1.64 2.27-1.02.97-2.24 1.53-1.22.56-2.28.58-1.05.02-1.56-.58t-.81-1.9" stroke="#1d1d1d" stroke-width="4" stroke-dashoffset="none" stroke-linejoin="round" stroke-linecap="round"/></g><g fill="none" pointer-events="stroke" class="tl-centered-g"><path d="m1173.7 444.04.04.67q.04.67.06.81.03.13.07-.21.04-.35.11-1.15.06-.81.13-2.14.07-1.34.12-3.11.05-1.78.08-3.5.03-1.73.04-3 .02-1.28.03-2.05 0-.78.12-1.21.13-.43.47-.52.34-.09.86.36.51.44 1.14 1.4.63.96 1.41 2.4.77 1.44 1.68 3.12.91 1.69 1.88 3.33.97 1.64 1.9 3.11.93 1.46 1.73 2.55.81 1.08 1.43 1.74.62.66 1.1 1.01.49.35.88.3.39-.06.67-.56.29-.5.48-1.46t.29-2.33q.11-1.38.12-3.09.01-1.71-.13-3.53-.13-1.82-.33-3.51-.19-1.7-.39-3.11-.19-1.42-.31-2.42-.13-1-.16-1.58-.04-.59.52-.91.56-.32 2.5-.72"/><path d="m1173.7 444.04.04.67q.04.67.06.81.03.13.07-.21.04-.35.11-1.15.06-.81.13-2.14.07-1.34.12-3.11.05-1.78.08-3.5.03-1.73.04-3 .02-1.28.03-2.05 0-.78.12-1.21.13-.43.47-.52.34-.09.86.36.51.44 1.14 1.4.63.96 1.41 2.4.77 1.44 1.68 3.12.91 1.69 1.88 3.33.97 1.64 1.9 3.11.93 1.46 1.73 2.55.81 1.08 1.43 1.74.62.66 1.1 1.01.49.35.88.3.39-.06.67-.56.29-.5.48-1.46t.29-2.33q.11-1.38.12-3.09.01-1.71-.13-3.53-.13-1.82-.33-3.51-.19-1.7-.39-3.11-.19-1.42-.31-2.42-.13-1-.16-1.58-.04-.59.52-.91.56-.32 2.5-.72" stroke="#1d1d1d" stroke-width="4" stroke-dashoffset="none" stroke-linejoin="round" stroke-linecap="round"/></g><g fill="none" pointer-events="stroke" class="tl-centered-g"><path d="m1208.53 427.99-1.32.11q-1.31.12-2.56.64t-2.05 1.02q-.79.51-1.23 1.02-.44.51-.25 1.13.2.62.76 1.19.56.58 1.65 1.3 1.08.73 2.41 1.73t2.28 1.96q.95.96 1.52 2.02.57 1.06.74 2.17.17 1.11.04 1.95-.12.85-.57 1.49-.45.64-1.52.95-1.06.31-2.48.21-1.42-.11-2.75-.47-1.32-.36-2.39-1.06-1.07-.7-1.7-2.12"/><path d="m1208.53 427.99-1.32.11q-1.31.12-2.56.64t-2.05 1.02q-.79.51-1.23 1.02-.44.51-.25 1.13.2.62.76 1.19.56.58 1.65 1.3 1.08.73 2.41 1.73t2.28 1.96q.95.96 1.52 2.02.57 1.06.74 2.17.17 1.11.04 1.95-.12.85-.57 1.49-.45.64-1.52.95-1.06.31-2.48.21-1.42-.11-2.75-.47-1.32-.36-2.39-1.06-1.07-.7-1.7-2.12" stroke="#1d1d1d" stroke-width="4" stroke-dashoffset="none" stroke-linejoin="round" stroke-linecap="round"/></g><g fill="none" pointer-events="stroke" class="tl-centered-g"><path d="m519.18 316.37.16 2.08q.16 2.09.25 4.07.09 1.98.18 3.9t.27 3.21q.19 1.29.37 1.74.19.45.32.58.14.13.34.13"/><path d="m519.18 316.37.16 2.08q.16 2.09.25 4.07.09 1.98.18 3.9t.27 3.21q.19 1.29.37 1.74.19.45.32.58.14.13.34.13" stroke="#1d1d1d" stroke-width="4" stroke-dashoffset="none" stroke-linejoin="round" stroke-linecap="round"/></g><g fill="none" pointer-events="stroke" class="tl-centered-g"><path d="m518.92 318.26 2.34-1.3q2.35-1.3 4.22-1.85 1.87-.54 3.27-.16 1.4.39 2.05 1.61.66 1.22.68 2.39.03 1.17-.6 2.32-.63 1.14-2.04 2.11-1.42.97-2.68 1.57l-2 .97q-.74.37-.94.68-.21.32.32.92.53.6 1.26 1.27t1.76 1.72q1.03 1.06 1.9 2.18.88 1.12 1.45 2.05.57.93 1.31 2.56"/><path d="m518.92 318.26 2.34-1.3q2.35-1.3 4.22-1.85 1.87-.54 3.27-.16 1.4.39 2.05 1.61.66 1.22.68 2.39.03 1.17-.6 2.32-.63 1.14-2.04 2.11-1.42.97-2.68 1.57l-2 .97q-.74.37-.94.68-.21.32.32.92.53.6 1.26 1.27t1.76 1.72q1.03 1.06 1.9 2.18.88 1.12 1.45 2.05.57.93 1.31 2.56" stroke="#1d1d1d" stroke-width="4" stroke-dashoffset="none" stroke-linejoin="round" stroke-linecap="round"/></g><g fill="none" pointer-events="stroke" class="tl-centered-g"><path d="m536.14 319.3.3 1.4q.31 1.4.49 3.09.19 1.69.33 3.15.15 1.47.26 2.41.11.94.24 2"/><path d="m536.14 319.3.3 1.4q.31 1.4.49 3.09.19 1.69.33 3.15.15 1.47.26 2.41.11.94.24 2" stroke="#1d1d1d" stroke-width="4" stroke-dashoffset="none" stroke-linejoin="round" stroke-linecap="round"/></g><g fill="none" pointer-events="stroke" class="tl-centered-g"><path d="m533.66 319.04 2.84-.79q2.85-.79 5.34-1.24 2.49-.45 4.19-.5 1.7-.04 2.65.17.95.21 1.87.7"/><path d="m533.66 319.04 2.84-.79q2.85-.79 5.34-1.24 2.49-.45 4.19-.5 1.7-.04 2.65.17.95.21 1.87.7" stroke="#1d1d1d" stroke-width="4" stroke-dashoffset="none" stroke-linejoin="round" stroke-linecap="round"/></g><g fill="none" pointer-events="stroke" class="tl-centered-g"><path d="m536.01 326.74 2.37-.15q2.38-.15 4.24-.3 1.85-.15 3.05-.28 1.2-.13 2.65-.29"/><path d="m536.01 326.74 2.37-.15q2.38-.15 4.24-.3 1.85-.15 3.05-.28 1.2-.13 2.65-.29" stroke="#1d1d1d" stroke-width="4" stroke-dashoffset="none" stroke-linejoin="round" stroke-linecap="round"/></g><g fill="none" pointer-events="stroke" class="tl-centered-g"><path d="m535.75 332.67 2.13.43q2.13.44 4.22.57 2.1.12 5.73.02"/><path d="m535.75 332.67 2.13.43q2.13.44 4.22.57 2.1.12 5.73.02" stroke="#1d1d1d" stroke-width="4" stroke-dashoffset="none" stroke-linejoin="round" stroke-linecap="round"/></g><g fill="none" pointer-events="stroke" class="tl-centered-g"><path d="m554.28 333.72.49-1.79q.49-1.78 1.02-3.83.52-2.05 1.08-4.16.57-2.11 1.04-3.76.48-1.65.85-2.61.38-.97.91-1.16.53-.18 1.33.55.81.73 1.75 2.2.94 1.47 1.77 3.4.82 1.94 1.36 3.77.55 1.82.85 3.13.3 1.3.41 1.99.11.69.01 1.12"/><path d="m554.28 333.72.49-1.79q.49-1.78 1.02-3.83.52-2.05 1.08-4.16.57-2.11 1.04-3.76.48-1.65.85-2.61.38-.97.91-1.16.53-.18 1.33.55.81.73 1.75 2.2.94 1.47 1.77 3.4.82 1.94 1.36 3.77.55 1.82.85 3.13.3 1.3.41 1.99.11.69.01 1.12" stroke="#1d1d1d" stroke-width="4" stroke-dashoffset="none" stroke-linejoin="round" stroke-linecap="round"/></g><g fill="none" pointer-events="stroke" class="tl-centered-g"><path d="m554.14 328.56 2.26-.62q2.26-.61 4.3-1.04 2.04-.42 3.43-.66 1.39-.23 3.4-.52"/><path d="m554.14 328.56 2.26-.62q2.26-.61 4.3-1.04 2.04-.42 3.43-.66 1.39-.23 3.4-.52" stroke="#1d1d1d" stroke-width="4" stroke-dashoffset="none" stroke-linejoin="round" stroke-linecap="round"/></g><g fill="none" pointer-events="stroke" class="tl-centered-g"><path d="m573.45 314.47.36 2.23q.36 2.23.63 4.65.26 2.42.49 4.34.23 1.92.45 3.03.21 1.12.64 1.55"/><path d="m573.45 314.47.36 2.23q.36 2.23.63 4.65.26 2.42.49 4.34.23 1.92.45 3.03.21 1.12.64 1.55" stroke="#1d1d1d" stroke-width="4" stroke-dashoffset="none" stroke-linejoin="round" stroke-linecap="round"/></g><g fill="none" pointer-events="stroke" class="tl-centered-g"><path d="m570.13 316.3 2.58-.59q2.58-.58 4.81-.63 2.23-.04 4.22.73 1.99.78 3.35 2.31 1.37 1.52 1.97 2.96.61 1.44.4 2.9-.2 1.45-1.26 2.76-1.06 1.31-2.37 2.17-1.3.86-2.86 1.19-1.57.32-2.68-.28-1.12-.61-2.46-1.59"/><path d="m570.13 316.3 2.58-.59q2.58-.58 4.81-.63 2.23-.04 4.22.73 1.99.78 3.35 2.31 1.37 1.52 1.97 2.96.61 1.44.4 2.9-.2 1.45-1.26 2.76-1.06 1.31-2.37 2.17-1.3.86-2.86 1.19-1.57.32-2.68-.28-1.12-.61-2.46-1.59" stroke="#1d1d1d" stroke-width="4" stroke-dashoffset="none" stroke-linejoin="round" stroke-linecap="round"/></g><g fill="none" pointer-events="stroke" class="tl-centered-g"><path d="m616.44 314.54.36 3.1q.36 3.11.62 5.47t.44 3.85q.17 1.5.32 3.08"/><path d="m616.44 314.54.36 3.1q.36 3.11.62 5.47t.44 3.85q.17 1.5.32 3.08" stroke="#1d1d1d" stroke-width="4" stroke-dashoffset="none" stroke-linejoin="round" stroke-linecap="round"/></g><g fill="none" pointer-events="stroke" class="tl-centered-g"><path d="m616.24 318.39 1.29-.94q1.3-.94 3.03-1.31 1.73-.37 3.42.14 1.7.51 2.9 1.72 1.2 1.2 1.66 2.81.46 1.61.13 3.31-.33 1.69-1.36 3.24-1.03 1.55-2.72 2.7-1.7 1.14-3.46 1.66-1.77.52-2.9.19-1.14-.33-1.11-2.59"/><path d="m616.24 318.39 1.29-.94q1.3-.94 3.03-1.31 1.73-.37 3.42.14 1.7.51 2.9 1.72 1.2 1.2 1.66 2.81.46 1.61.13 3.31-.33 1.69-1.36 3.24-1.03 1.55-2.72 2.7-1.7 1.14-3.46 1.66-1.77.52-2.9.19-1.14-.33-1.11-2.59" stroke="#1d1d1d" stroke-width="4" stroke-dashoffset="none" stroke-linejoin="round" stroke-linecap="round"/></g><g fill="none" pointer-events="stroke" class="tl-centered-g"><path d="m633.99 331.76.75-1.71q.76-1.71 1.53-3.78t1.46-4.25q.69-2.17 1.17-3.81l.76-2.6q.28-.95.54-1.24.26-.29.66.23.41.53.98 1.66.58 1.14 1.24 2.66.67 1.52 1.26 3.26.58 1.75 1 3.41.41 1.67.65 2.89.24 1.23.38 1.93.13.71.09.78-.05.07-.1.02t-.18-.24"/><path d="m633.99 331.76.75-1.71q.76-1.71 1.53-3.78t1.46-4.25q.69-2.17 1.17-3.81l.76-2.6q.28-.95.54-1.24.26-.29.66.23.41.53.98 1.66.58 1.14 1.24 2.66.67 1.52 1.26 3.26.58 1.75 1 3.41.41 1.67.65 2.89.24 1.23.38 1.93.13.71.09.78-.05.07-.1.02t-.18-.24" stroke="#1d1d1d" stroke-width="4" stroke-dashoffset="none" stroke-linejoin="round" stroke-linecap="round"/></g><g fill="none" pointer-events="stroke" class="tl-centered-g"><path d="m635.29 327.52 2.59-.62q2.6-.61 4.97-1.11 2.37-.5 6.44-1.31"/><path d="m635.29 327.52 2.59-.62q2.6-.61 4.97-1.11 2.37-.5 6.44-1.31" stroke="#1d1d1d" stroke-width="4" stroke-dashoffset="none" stroke-linejoin="round" stroke-linecap="round"/></g><g fill="none" pointer-events="stroke" class="tl-centered-g"><path d="m648.08 316.95 1.93-.21q1.94-.2 4.5-.55 2.56-.34 4.99-.61 2.42-.26 4.14-.41 1.72-.14 2.68-.22.96-.09 1.76-.16"/><path d="m648.08 316.95 1.93-.21q1.94-.2 4.5-.55 2.56-.34 4.99-.61 2.42-.26 4.14-.41 1.72-.14 2.68-.22.96-.09 1.76-.16" stroke="#1d1d1d" stroke-width="4" stroke-dashoffset="none" stroke-linejoin="round" stroke-linecap="round"/></g><g fill="none" pointer-events="stroke" class="tl-centered-g"><path d="M658.97 315.58v2.29q0 2.29-.11 4.99-.1 2.69-.16 4.68-.05 1.98.12 3.2.17 1.21.97 2.19"/><path d="M658.97 315.58v2.29q0 2.29-.11 4.99-.1 2.69-.16 4.68-.05 1.98.12 3.2.17 1.21.97 2.19" stroke="#1d1d1d" stroke-width="4" stroke-dashoffset="none" stroke-linejoin="round" stroke-linecap="round"/></g><g fill="none" pointer-events="stroke" class="tl-centered-g"><path d="m669.86 330.59 1-1.99q1.01-1.99 1.99-4.25.98-2.27 1.81-4.26.84-2 1.4-3.27.56-1.28.95-1.9.38-.62.83-.38.44.25 1.04 1.34.59 1.1 1.25 2.73.65 1.62 1.25 3.43.61 1.8 1.08 3.34.46 1.53.74 2.56.27 1.02.42 1.52.15.49.06.38-.09-.1-.63-1.12"/><path d="m669.86 330.59 1-1.99q1.01-1.99 1.99-4.25.98-2.27 1.81-4.26.84-2 1.4-3.27.56-1.28.95-1.9.38-.62.83-.38.44.25 1.04 1.34.59 1.1 1.25 2.73.65 1.62 1.25 3.43.61 1.8 1.08 3.34.46 1.53.74 2.56.27 1.02.42 1.52.15.49.06.38-.09-.1-.63-1.12" stroke="#1d1d1d" stroke-width="4" stroke-dashoffset="none" stroke-linejoin="round" stroke-linecap="round"/></g><g fill="none" pointer-events="stroke" class="tl-centered-g"><path d="m670.26 326.35 3.13-.41q3.14-.41 6.21-.86 3.08-.44 5.52-.7 2.45-.26 7.16-.36"/><path d="m670.26 326.35 3.13-.41q3.14-.41 6.21-.86 3.08-.44 5.52-.7 2.45-.26 7.16-.36" stroke="#1d1d1d" stroke-width="4" stroke-dashoffset="none" stroke-linejoin="round" stroke-linecap="round"/></g><g fill="none" pointer-events="stroke" class="tl-centered-g"><path d="m514.48 413.95.11-.03q.12-.03.4-.69.28-.66.72-1.94.43-1.29.98-3.08t1.2-3.67q.65-1.87 1.3-3.5.66-1.62 1.25-2.86.59-1.25 1.05-2.03.46-.77.88-1.16.41-.38.9-.17.49.21 1.06 1.08.56.88 1.12 2.46t1.06 3.73q.5 2.16.94 4.4.43 2.24.75 4.01.31 1.76.5 2.82.18 1.06.29 1.42.1.35.09-.05-.02-.41-.14-1.43"/><path d="m514.48 413.95.11-.03q.12-.03.4-.69.28-.66.72-1.94.43-1.29.98-3.08t1.2-3.67q.65-1.87 1.3-3.5.66-1.62 1.25-2.86.59-1.25 1.05-2.03.46-.77.88-1.16.41-.38.9-.17.49.21 1.06 1.08.56.88 1.12 2.46t1.06 3.73q.5 2.16.94 4.4.43 2.24.75 4.01.31 1.76.5 2.82.18 1.06.29 1.42.1.35.09-.05-.02-.41-.14-1.43" stroke="#1d1d1d" stroke-width="4" stroke-dashoffset="none" stroke-linejoin="round" stroke-linecap="round"/></g><g fill="none" pointer-events="stroke" class="tl-centered-g"><path d="m517.42 408.34 2.51-.65q2.51-.64 6.97-1.47"/><path d="m517.42 408.34 2.51-.65q2.51-.64 6.97-1.47" stroke="#1d1d1d" stroke-width="4" stroke-dashoffset="none" stroke-linejoin="round" stroke-linecap="round"/></g><g fill="none" pointer-events="stroke" class="tl-centered-g"><path d="m545.79 395.55-1.11.17q-1.11.18-2.69 1.03-1.57.86-2.85 1.86t-2.3 2.32q-1.01 1.33-1.51 3.11-.51 1.78-.34 3.47.16 1.68.8 2.92t1.76 2.03q1.11.78 2.49.95 1.37.17 2.45.02 1.08-.15 1.87-.54t1.19-.93q.41-.54.44-1 .04-.45-.51-.91t-1.4-.87q-.84-.41-1.54-.73l-1.16-.53q-.46-.22-.38-.38.08-.17.57-.3.48-.14 1.61-.37 1.13-.24 2.35-.49 1.22-.24 2.19-.44.96-.19 2.58-.43"/><path d="m545.79 395.55-1.11.17q-1.11.18-2.69 1.03-1.57.86-2.85 1.86t-2.3 2.32q-1.01 1.33-1.51 3.11-.51 1.78-.34 3.47.16 1.68.8 2.92t1.76 2.03q1.11.78 2.49.95 1.37.17 2.45.02 1.08-.15 1.87-.54t1.19-.93q.41-.54.44-1 .04-.45-.51-.91t-1.4-.87q-.84-.41-1.54-.73l-1.16-.53q-.46-.22-.38-.38.08-.17.57-.3.48-.14 1.61-.37 1.13-.24 2.35-.49 1.22-.24 2.19-.44.96-.19 2.58-.43" stroke="#1d1d1d" stroke-width="4" stroke-dashoffset="none" stroke-linejoin="round" stroke-linecap="round"/></g><g fill="none" pointer-events="stroke" class="tl-centered-g"><path d="m564.51 395.55-1.33.26q-1.33.26-2.91 1.12-1.58.86-3.18 2.33-1.61 1.47-2.7 3.39-1.09 1.92-1.48 3.89-.4 1.96.04 3.6.43 1.64 1.61 2.68 1.17 1.04 2.71 1.4 1.54.35 3.01.15 1.46-.2 2.49-.67 1.03-.47 1.52-.97t.39-.99q-.11-.5-.7-1-.6-.51-1.43-.98t-1.56-.83q-.74-.36-1.16-.57-.42-.22-.3-.33.12-.12.84-.19.72-.06 1.91-.17 1.19-.11 2.52-.27 1.33-.17 3.94-.47"/><path d="m564.51 395.55-1.33.26q-1.33.26-2.91 1.12-1.58.86-3.18 2.33-1.61 1.47-2.7 3.39-1.09 1.92-1.48 3.89-.4 1.96.04 3.6.43 1.64 1.61 2.68 1.17 1.04 2.71 1.4 1.54.35 3.01.15 1.46-.2 2.49-.67 1.03-.47 1.52-.97t.39-.99q-.11-.5-.7-1-.6-.51-1.43-.98t-1.56-.83q-.74-.36-1.16-.57-.42-.22-.3-.33.12-.12.84-.19.72-.06 1.91-.17 1.19-.11 2.52-.27 1.33-.17 3.94-.47" stroke="#1d1d1d" stroke-width="4" stroke-dashoffset="none" stroke-linejoin="round" stroke-linecap="round"/></g><g fill="none" pointer-events="stroke" class="tl-centered-g"><path d="m575.08 396.47.39 2.85q.39 2.86.64 5.16.25 2.3.43 3.8t.32 2.07q.14.56.38.48"/><path d="m575.08 396.47.39 2.85q.39 2.86.64 5.16.25 2.3.43 3.8t.32 2.07q.14.56.38.48" stroke="#1d1d1d" stroke-width="4" stroke-dashoffset="none" stroke-linejoin="round" stroke-linecap="round"/></g><g fill="none" pointer-events="stroke" class="tl-centered-g"><path d="m574.03 400.12 1.98-1.39q1.99-1.39 4.17-2.16 2.17-.76 3.94-.79 1.78-.03 2.84.42 1.07.45 1.32 1.2.26.74-.23 1.59-.48.86-1.51 1.69t-2.11 1.54q-1.08.71-1.79 1.32-.72.62-.93 1.14-.22.53.19 1.12.42.6 1.34 1.32.92.73 2.01 1.64 1.09.91 2.02 1.91.92 1 1.58 1.74.65.75 1.49 1.66"/><path d="m574.03 400.12 1.98-1.39q1.99-1.39 4.17-2.16 2.17-.76 3.94-.79 1.78-.03 2.84.42 1.07.45 1.32 1.2.26.74-.23 1.59-.48.86-1.51 1.69t-2.11 1.54q-1.08.71-1.79 1.32-.72.62-.93 1.14-.22.53.19 1.12.42.6 1.34 1.32.92.73 2.01 1.64 1.09.91 2.02 1.91.92 1 1.58 1.74.65.75 1.49 1.66" stroke="#1d1d1d" stroke-width="4" stroke-dashoffset="none" stroke-linejoin="round" stroke-linecap="round"/></g><g fill="none" pointer-events="stroke" class="tl-centered-g"><path d="m597.98 394.51.33 2.74q.34 2.74.54 5.15.19 2.4.35 3.91.15 1.51.33 1.96.17.45.38.84"/><path d="m597.98 394.51.33 2.74q.34 2.74.54 5.15.19 2.4.35 3.91.15 1.51.33 1.96.17.45.38.84" stroke="#1d1d1d" stroke-width="4" stroke-dashoffset="none" stroke-linejoin="round" stroke-linecap="round"/></g><g fill="none" pointer-events="stroke" class="tl-centered-g"><path d="m595.24 393.47 2.36-.07q2.36-.06 4.67-.1 2.32-.05 3.9-.02 1.58.04 2.5.17.92.13 2.02.3"/><path d="m595.24 393.47 2.36-.07q2.36-.06 4.67-.1 2.32-.05 3.9-.02 1.58.04 2.5.17.92.13 2.02.3" stroke="#1d1d1d" stroke-width="4" stroke-dashoffset="none" stroke-linejoin="round" stroke-linecap="round"/></g><g fill="none" pointer-events="stroke" class="tl-centered-g"><path d="m598.5 402.66 1.99-.24q2-.23 3.76-.43 1.76-.21 2.94-.38t2.54-.38"/><path d="m598.5 402.66 1.99-.24q2-.23 3.76-.43 1.76-.21 2.94-.38t2.54-.38" stroke="#1d1d1d" stroke-width="4" stroke-dashoffset="none" stroke-linejoin="round" stroke-linecap="round"/></g><g fill="none" pointer-events="stroke" class="tl-centered-g"><path d="m597.98 410.75 2.37.11q2.38.12 4.63.04 2.25-.08 5.25-.21"/><path d="m597.98 410.75 2.37.11q2.38.12 4.63.04 2.25-.08 5.25-.21" stroke="#1d1d1d" stroke-width="4" stroke-dashoffset="none" stroke-linejoin="round" stroke-linecap="round"/></g><g fill="none" pointer-events="stroke" class="tl-centered-g"><path d="m630.46 395.69-1.38.05q-1.37.06-2.91.79-1.55.73-2.99 2.07-1.43 1.34-2.42 3.07-.98 1.74-1.25 3.45-.27 1.72.37 3.09.64 1.37 2 2.21 1.37.85 2.91 1.03 1.54.17 2.68-.1 1.14-.26 1.73-.81.59-.54.59-1.25 0-.7-.47-1.46-.48-.76-1.13-1.35-.64-.6-1.07-.94-.43-.34-.38-.48.06-.15.79-.13.73.02 1.94.06 1.2.04 2.63.05 1.43.01 4.72-.63"/><path d="m630.46 395.69-1.38.05q-1.37.06-2.91.79-1.55.73-2.99 2.07-1.43 1.34-2.42 3.07-.98 1.74-1.25 3.45-.27 1.72.37 3.09.64 1.37 2 2.21 1.37.85 2.91 1.03 1.54.17 2.68-.1 1.14-.26 1.73-.81.59-.54.59-1.25 0-.7-.47-1.46-.48-.76-1.13-1.35-.64-.6-1.07-.94-.43-.34-.38-.48.06-.15.79-.13.73.02 1.94.06 1.2.04 2.63.05 1.43.01 4.72-.63" stroke="#1d1d1d" stroke-width="4" stroke-dashoffset="none" stroke-linejoin="round" stroke-linecap="round"/></g><g fill="none" pointer-events="stroke" class="tl-centered-g"><path d="m642.66 411.99.51-1.46q.51-1.46 1.04-3.54t1.11-4.45q.58-2.37 1.15-4.43.58-2.05 1.04-3.39.46-1.34.88-2.04t.92-.58q.51.11 1.14 1.06.63.95 1.36 2.57.73 1.62 1.49 3.7.77 2.08 1.47 4.12l1.2 3.48q.51 1.45.8 2.18.29.72.62.84"/><path d="m642.66 411.99.51-1.46q.51-1.46 1.04-3.54t1.11-4.45q.58-2.37 1.15-4.43.58-2.05 1.04-3.39.46-1.34.88-2.04t.92-.58q.51.11 1.14 1.06.63.95 1.36 2.57.73 1.62 1.49 3.7.77 2.08 1.47 4.12l1.2 3.48q.51 1.45.8 2.18.29.72.62.84" stroke="#1d1d1d" stroke-width="4" stroke-dashoffset="none" stroke-linejoin="round" stroke-linecap="round"/></g><g fill="none" pointer-events="stroke" class="tl-centered-g"><path d="m646.25 403.64 2.15-.73q2.16-.73 4.28-1.36 2.11-.62 6.51-1.42"/><path d="m646.25 403.64 2.15-.73q2.16-.73 4.28-1.36 2.11-.62 6.51-1.42" stroke="#1d1d1d" stroke-width="4" stroke-dashoffset="none" stroke-linejoin="round" stroke-linecap="round"/></g><g fill="none" pointer-events="stroke" class="tl-centered-g"><path d="m660.47 393.53 2.14-.41q2.14-.41 4.42-.8 2.28-.38 4.27-.61 1.99-.23 3.38-.24 1.39-.01 3.14.08"/><path d="m660.47 393.53 2.14-.41q2.14-.41 4.42-.8 2.28-.38 4.27-.61 1.99-.23 3.38-.24 1.39-.01 3.14.08" stroke="#1d1d1d" stroke-width="4" stroke-dashoffset="none" stroke-linejoin="round" stroke-linecap="round"/></g><g fill="none" pointer-events="stroke" class="tl-centered-g"><path d="m671.3 392.75.17 3.18q.17 3.18.3 5.72.13 2.55.3 4.6.17 2.05.71 3.16.55 1.12 1.39 2.4"/><path d="m671.3 392.75.17 3.18q.17 3.18.3 5.72.13 2.55.3 4.6.17 2.05.71 3.16.55 1.12 1.39 2.4" stroke="#1d1d1d" stroke-width="4" stroke-dashoffset="none" stroke-linejoin="round" stroke-linecap="round"/></g><g fill="none" pointer-events="stroke" class="tl-centered-g"><path d="m682.51 393.33.48 2.78q.48 2.79.75 4.99t.43 3.47q.16 1.27.59 2.22"/><path d="m682.51 393.33.48 2.78q.48 2.79.75 4.99t.43 3.47q.16 1.27.59 2.22" stroke="#1d1d1d" stroke-width="4" stroke-dashoffset="none" stroke-linejoin="round" stroke-linecap="round"/></g><g fill="none" pointer-events="stroke" class="tl-centered-g"><path d="m683.49 393.66 2.24-.46q2.25-.45 4.24-.73 1.99-.28 3.41-.43 1.41-.15 2.33-.09.91.06 2.04.23"/><path d="m683.49 393.66 2.24-.46q2.25-.45 4.24-.73 1.99-.28 3.41-.43 1.41-.15 2.33-.09.91.06 2.04.23" stroke="#1d1d1d" stroke-width="4" stroke-dashoffset="none" stroke-linejoin="round" stroke-linecap="round"/></g><g fill="none" pointer-events="stroke" class="tl-centered-g"><path d="m683.95 401.88 1.88-.17q1.88-.16 3.56-.33 1.68-.18 2.96-.32t3.09-.31"/><path d="m683.95 401.88 1.88-.17q1.88-.16 3.56-.33 1.68-.18 2.96-.32t3.09-.31" stroke="#1d1d1d" stroke-width="4" stroke-dashoffset="none" stroke-linejoin="round" stroke-linecap="round"/></g><g fill="none" pointer-events="stroke" class="tl-centered-g"><path d="m684.67 410.62 2.18-.2q2.19-.19 4.28-.44 2.08-.25 6.74-.69"/><path d="m684.67 410.62 2.18-.2q2.19-.19 4.28-.44 2.08-.25 6.74-.69" stroke="#1d1d1d" stroke-width="4" stroke-dashoffset="none" stroke-linejoin="round" stroke-linecap="round"/></g><g fill="none" pointer-events="stroke" class="tl-centered-g"><path d="m549.71 479.19-.04-.62q-.03-.61.04-.5.08.12.2 1.14.13 1.03.32 2.84l.39 3.9q.21 2.09.33 3.99.13 1.9.2 3.29.07 1.38.1 2.18.02.79-.08 1.03-.1.23-.46-1.14"/><path d="m549.71 479.19-.04-.62q-.03-.61.04-.5.08.12.2 1.14.13 1.03.32 2.84l.39 3.9q.21 2.09.33 3.99.13 1.9.2 3.29.07 1.38.1 2.18.02.79-.08 1.03-.1.23-.46-1.14" stroke="#1d1d1d" stroke-width="4" stroke-dashoffset="none" stroke-linejoin="round" stroke-linecap="round"/></g><g fill="none" pointer-events="stroke" class="tl-centered-g"><path d="m542.86 481.14 2.62-.9q2.63-.89 4.91-1.45 2.29-.56 3.97-.86 1.69-.3 2.73-.39 1.05-.09 1.54.03.49.13.9.48"/><path d="m542.86 481.14 2.62-.9q2.63-.89 4.91-1.45 2.29-.56 3.97-.86 1.69-.3 2.73-.39 1.05-.09 1.54.03.49.13.9.48" stroke="#1d1d1d" stroke-width="4" stroke-dashoffset="none" stroke-linejoin="round" stroke-linecap="round"/></g><g fill="none" pointer-events="stroke" class="tl-centered-g"><path d="m546.77 488.51 2.55-.28q2.56-.28 4.64-.56 2.08-.28 5.63-.83"/><path d="m546.77 488.51 2.55-.28q2.56-.28 4.64-.56 2.08-.28 5.63-.83" stroke="#1d1d1d" stroke-width="4" stroke-dashoffset="none" stroke-linejoin="round" stroke-linecap="round"/></g><g fill="none" pointer-events="stroke" class="tl-centered-g"><path d="m568.56 478.27.19 1.6q.19 1.61.39 3.33.21 1.72.45 3.62.25 1.9.55 3.51.29 1.62.62 2.57.32.95 1.34 1.48"/><path d="m568.56 478.27.19 1.6q.19 1.61.39 3.33.21 1.72.45 3.62.25 1.9.55 3.51.29 1.62.62 2.57.32.95 1.34 1.48" stroke="#1d1d1d" stroke-width="4" stroke-dashoffset="none" stroke-linejoin="round" stroke-linecap="round"/></g><g fill="none" pointer-events="stroke" class="tl-centered-g"><path d="m581.08 479.77.35 1.24q.35 1.24.38 3.31.03 2.07.04 4.09 0 2.02.15 3.46t.74 2.28q.59.84 1.66.93 1.08.1 2.52-.21 1.43-.31 2.89-.67 1.45-.36 2.66-.59 1.21-.23 2.04-.36.83-.12 1.33-.15.5-.03 1.15-.06"/><path d="m581.08 479.77.35 1.24q.35 1.24.38 3.31.03 2.07.04 4.09 0 2.02.15 3.46t.74 2.28q.59.84 1.66.93 1.08.1 2.52-.21 1.43-.31 2.89-.67 1.45-.36 2.66-.59 1.21-.23 2.04-.36.83-.12 1.33-.15.5-.03 1.15-.06" stroke="#1d1d1d" stroke-width="4" stroke-dashoffset="none" stroke-linejoin="round" stroke-linecap="round"/></g><g fill="none" pointer-events="stroke" class="tl-centered-g"><path d="m600.07 478.99 2.24-.22q2.25-.22 4.4-.46 2.14-.24 3.82-.37 1.68-.13 2.73-.1 1.04.03 2.33.1"/><path d="m600.07 478.99 2.24-.22q2.25-.22 4.4-.46 2.14-.24 3.82-.37 1.68-.13 2.73-.1 1.04.03 2.33.1" stroke="#1d1d1d" stroke-width="4" stroke-dashoffset="none" stroke-linejoin="round" stroke-linecap="round"/></g><g fill="none" pointer-events="stroke" class="tl-centered-g"><path d="m607.04 480.23.32 2.14q.32 2.15.64 4.15.33 2 .7 3.57.36 1.58 1.63 3.78"/><path d="m607.04 480.23.32 2.14q.32 2.15.64 4.15.33 2 .7 3.57.36 1.58 1.63 3.78" stroke="#1d1d1d" stroke-width="4" stroke-dashoffset="none" stroke-linejoin="round" stroke-linecap="round"/></g><g fill="none" pointer-events="stroke" class="tl-centered-g"><path d="m620.09 479.32.53 1.91q.54 1.91.89 3.84.34 1.93.6 3.44.27 1.5.95 3.1"/><path d="m620.09 479.32.53 1.91q.54 1.91.89 3.84.34 1.93.6 3.44.27 1.5.95 3.1" stroke="#1d1d1d" stroke-width="4" stroke-dashoffset="none" stroke-linejoin="round" stroke-linecap="round"/></g><g fill="none" pointer-events="stroke" class="tl-centered-g"><path d="m619.11 476.58 2.52.18q2.53.19 4.99.15 2.46-.04 4.46-.12 2-.08 5.03-.18"/><path d="m619.11 476.58 2.52.18q2.53.19 4.99.15 2.46-.04 4.46-.12 2-.08 5.03-.18" stroke="#1d1d1d" stroke-width="4" stroke-dashoffset="none" stroke-linejoin="round" stroke-linecap="round"/></g><g fill="none" pointer-events="stroke" class="tl-centered-g"><path d="m622.96 487.34 2.36-.56q2.37-.55 4.21-.99 1.85-.44 3.14-.68 1.3-.24 2.94-.54"/><path d="m622.96 487.34 2.36-.56q2.37-.55 4.21-.99 1.85-.44 3.14-.68 1.3-.24 2.94-.54" stroke="#1d1d1d" stroke-width="4" stroke-dashoffset="none" stroke-linejoin="round" stroke-linecap="round"/></g><g fill="none" pointer-events="stroke" class="tl-centered-g"><path d="m622.83 494.06 2.07.33q2.07.34 4.24.51 2.16.17 4.28-.03t3.67-.48q1.54-.29 3.71-.77"/><path d="m622.83 494.06 2.07.33q2.07.34 4.24.51 2.16.17 4.28-.03t3.67-.48q1.54-.29 3.71-.77" stroke="#1d1d1d" stroke-width="4" stroke-dashoffset="none" stroke-linejoin="round" stroke-linecap="round"/></g><g fill="none" pointer-events="stroke" class="tl-centered-g"><path d="m645.14 478.67.3 2.05q.31 2.06.59 3.88.29 1.82.53 3.47.25 1.65.47 2.72.23 1.08.39 1.32.17.24.26-.08.1-.32-.13-1.22-.23-.91-.64-1.89-.42-.99-.83-1.91-.4-.92-.67-2.25-.27-1.32.02-2.71.3-1.39 1.11-2.55.82-1.17 2.54-2.07 1.72-.91 4.14-1.14 2.43-.24 4.29.08 1.87.32 2.94 1.35 1.08 1.02 1.13 2.13.05 1.1-.43 1.99-.48.89-1.79 1.61-1.32.73-2.78 1.17-1.46.45-2.51.69-1.05.25-1.68.38-.62.14-.6.34.02.21.5.56.47.34 1.51 1.18 1.04.83 2.15 1.94 1.11 1.1 2.07 2.17.95 1.08 1.98 2.27 1.04 1.2 1.96 2.08.92.87 1.81 1.39.89.51 2.74.98"/><path d="m645.14 478.67.3 2.05q.31 2.06.59 3.88.29 1.82.53 3.47.25 1.65.47 2.72.23 1.08.39 1.32.17.24.26-.08.1-.32-.13-1.22-.23-.91-.64-1.89-.42-.99-.83-1.91-.4-.92-.67-2.25-.27-1.32.02-2.71.3-1.39 1.11-2.55.82-1.17 2.54-2.07 1.72-.91 4.14-1.14 2.43-.24 4.29.08 1.87.32 2.94 1.35 1.08 1.02 1.13 2.13.05 1.1-.43 1.99-.48.89-1.79 1.61-1.32.73-2.78 1.17-1.46.45-2.51.69-1.05.25-1.68.38-.62.14-.6.34.02.21.5.56.47.34 1.51 1.18 1.04.83 2.15 1.94 1.11 1.1 2.07 2.17.95 1.08 1.98 2.27 1.04 1.2 1.96 2.08.92.87 1.81 1.39.89.51 2.74.98" stroke="#1d1d1d" stroke-width="4" stroke-dashoffset="none" stroke-linejoin="round" stroke-linecap="round"/></g><g fill="none" pointer-events="stroke" class="tl-centered-g"><path d="m602.68 347.22.07 1.21q.07 1.21.12 2.84.06 1.63.1 3.53.05 1.89.07 3.7.03 1.8.1 4 .07 2.19.17 3.98.09 1.78.16 2.95.07 1.18.12 1.87.06.69.09 1.09.02.4.04.64.02.25.01.39 0 .14-.05.15-.04.02-.17-.06-.13-.07-.35-.25-.21-.17-.57-.44-.35-.28-.89-.67-.55-.4-1.2-.91-.65-.52-1.32-1.05t-1.23-1q-.56-.47-.94-.81-.38-.35-.6-.54-.23-.19-.35-.28-.13-.09-.06.03.06.13.4.52.34.38.97 1.04.62.65 1.48 1.46.86.82 1.81 1.57.96.76 1.79 1.25.84.49 1.53.7.69.22 1.31.01.62-.2 1.21-.78.58-.58 1.16-1.44.57-.86 1.08-1.8.5-.95.86-1.71.35-.77.56-1.26.21-.48.5-.81"/><path d="m602.68 347.22.07 1.21q.07 1.21.12 2.84.06 1.63.1 3.53.05 1.89.07 3.7.03 1.8.1 4 .07 2.19.17 3.98.09 1.78.16 2.95.07 1.18.12 1.87.06.69.09 1.09.02.4.04.64.02.25.01.39 0 .14-.05.15-.04.02-.17-.06-.13-.07-.35-.25-.21-.17-.57-.44-.35-.28-.89-.67-.55-.4-1.2-.91-.65-.52-1.32-1.05t-1.23-1q-.56-.47-.94-.81-.38-.35-.6-.54-.23-.19-.35-.28-.13-.09-.06.03.06.13.4.52.34.38.97 1.04.62.65 1.48 1.46.86.82 1.81 1.57.96.76 1.79 1.25.84.49 1.53.7.69.22 1.31.01.62-.2 1.21-.78.58-.58 1.16-1.44.57-.86 1.08-1.8.5-.95.86-1.71.35-.77.56-1.26.21-.48.5-.81" stroke="#1d1d1d" stroke-width="4" stroke-dashoffset="none" stroke-linejoin="round" stroke-linecap="round"/></g><g fill="none" pointer-events="stroke" class="tl-centered-g"><path d="m605.14 437.83-.22-.91-.34-1.39q-.12-.48-.19-.64-.06-.15-.04.13.02.29.12 1.16.1.87.2 2.4.09 1.53.16 3.52.07 1.98.11 4.03.04 2.04.09 3.85.05 1.8.11 3.16.05 1.36.1 2.18.04.83.07 1.3.02.47.01.74-.01.28-.12.43-.11.15-.38.14-.27 0-.73-.21-.47-.2-1.06-.61-.6-.4-1.25-.96-.65-.56-1.29-1.24-.63-.68-1.22-1.34-.58-.66-1.09-1.16-.52-.5-.84-.81-.33-.3-.44-.34-.11-.04.17.31.27.34.84 1.07l1.34 1.75q.77 1.02 1.68 2.06.92 1.05 1.83 1.86t1.69 1.27q.78.46 1.46.5.69.03 1.41-.46.73-.49 1.48-1.46t1.41-2.1q.66-1.12 1.09-1.88.42-.77.66-1.28.23-.51.54-1.07.3-.55.78-1.34"/><path d="m605.14 437.83-.22-.91-.34-1.39q-.12-.48-.19-.64-.06-.15-.04.13.02.29.12 1.16.1.87.2 2.4.09 1.53.16 3.52.07 1.98.11 4.03.04 2.04.09 3.85.05 1.8.11 3.16.05 1.36.1 2.18.04.83.07 1.3.02.47.01.74-.01.28-.12.43-.11.15-.38.14-.27 0-.73-.21-.47-.2-1.06-.61-.6-.4-1.25-.96-.65-.56-1.29-1.24-.63-.68-1.22-1.34-.58-.66-1.09-1.16-.52-.5-.84-.81-.33-.3-.44-.34-.11-.04.17.31.27.34.84 1.07l1.34 1.75q.77 1.02 1.68 2.06.92 1.05 1.83 1.86t1.69 1.27q.78.46 1.46.5.69.03 1.41-.46.73-.49 1.48-1.46t1.41-2.1q.66-1.12 1.09-1.88.42-.77.66-1.28.23-.51.54-1.07.3-.55.78-1.34" stroke="#1d1d1d" stroke-width="4" stroke-dashoffset="none" stroke-linejoin="round" stroke-linecap="round"/></g><g fill="none" pointer-events="stroke" class="tl-centered-g"><path d="M497.97 282.58V536.64v-.65V537.89"/><path d="M497.97 282.58V536.64v-.65V537.89" stroke="#c6cbd1" stroke-width="4" stroke-dashoffset="none" stroke-linejoin="round" stroke-linecap="round"/></g><g fill="none" pointer-events="stroke" class="tl-centered-g"><path d="M498.43 538.88H733.7h-.12"/><path d="M498.43 538.88H733.7h-.12" stroke="#c6cbd1" stroke-width="4" stroke-dashoffset="none" stroke-linejoin="round" stroke-linecap="round"/></g><g fill="none" pointer-events="stroke" class="tl-centered-g"><path d="M498.23 279.9H737.2 735"/><path d="M498.23 279.9H737.2 735" stroke="#c6cbd1" stroke-width="4" stroke-dashoffset="none" stroke-linejoin="round" stroke-linecap="round"/></g><g fill="none" pointer-events="stroke" class="tl-centered-g"><path d="M737.63 279.31V538.54v-.75"/><path d="M737.63 279.31V538.54v-.75" stroke="#c6cbd1" stroke-width="4" stroke-dashoffset="none" stroke-linejoin="round" stroke-linecap="round"/></g><g fill="none" pointer-events="stroke" class="tl-centered-g"><path d="m496.34 179.3-.88 1.62q-.87 1.62-1.5 3.52-.63 1.91-.89 3.69t-.14 3.05q.11 1.28.79 1.94.68.66 1.64.47.96-.19 1.85-.95.9-.76 1.49-1.71.6-.95.95-1.66.34-.71.53-1.06.19-.35.4.01.21.36.64 1.34.44.97 1.26 2.15.83 1.18 1.88 2.05 1.05.87 2.06 1.21 1 .33 1.94-.05.93-.39 1.71-1.36.78-.97 1.24-2.41.46-1.44.54-3.13.08-1.69-.24-3.25t-.75-2.64q-.42-1.08-1.01-2.41"/><path d="m496.34 179.3-.88 1.62q-.87 1.62-1.5 3.52-.63 1.91-.89 3.69t-.14 3.05q.11 1.28.79 1.94.68.66 1.64.47.96-.19 1.85-.95.9-.76 1.49-1.71.6-.95.95-1.66.34-.71.53-1.06.19-.35.4.01.21.36.64 1.34.44.97 1.26 2.15.83 1.18 1.88 2.05 1.05.87 2.06 1.21 1 .33 1.94-.05.93-.39 1.71-1.36.78-.97 1.24-2.41.46-1.44.54-3.13.08-1.69-.24-3.25t-.75-2.64q-.42-1.08-1.01-2.41" stroke="#788492" stroke-width="4" stroke-dashoffset="none" stroke-linejoin="round" stroke-linecap="round"/></g><g fill="none" pointer-events="stroke" class="tl-centered-g"><path d="m519.37 176.3-.05 1.97q-.04 1.97-.13 4.17-.08 2.2-.17 4.3-.09 2.11-.14 3.65-.04 1.54-.07 2.35-.03.81-.04 1.18l-.04.74"/><path d="m519.37 176.3-.05 1.97q-.04 1.97-.13 4.17-.08 2.2-.17 4.3-.09 2.11-.14 3.65-.04 1.54-.07 2.35-.03.81-.04 1.18l-.04.74" stroke="#788492" stroke-width="4" stroke-dashoffset="none" stroke-linejoin="round" stroke-linecap="round"/></g><g fill="none" pointer-events="stroke" class="tl-centered-g"><path d="m513.63 188.05 1.79-.39q1.8-.38 3.72-.72l3.75-.66q1.82-.32 3.06-.59 1.24-.26 2.87-.62"/><path d="m513.63 188.05 1.79-.39q1.8-.38 3.72-.72l3.75-.66q1.82-.32 3.06-.59 1.24-.26 2.87-.62" stroke="#788492" stroke-width="4" stroke-dashoffset="none" stroke-linejoin="round" stroke-linecap="round"/></g><g fill="none" pointer-events="stroke" class="tl-centered-g"><path d="m531.7 175.13-.05 3.19q-.04 3.2-.07 6.15-.02 2.95-.04 5.41-.01 2.46-.06 6.12"/><path d="m531.7 175.13-.05 3.19q-.04 3.2-.07 6.15-.02 2.95-.04 5.41-.01 2.46-.06 6.12" stroke="#788492" stroke-width="4" stroke-dashoffset="none" stroke-linejoin="round" stroke-linecap="round"/></g><g fill="none" pointer-events="stroke" class="tl-centered-g"><path d="m537.44 194.57.36-1.55q.36-1.55.81-3.53.45-1.98.99-4.24.54-2.26.97-3.83.43-1.57.83-2.44.4-.86.94-.76.55.11 1.11.91t1.13 2.52q.57 1.73 1.09 4.07.53 2.34.89 4.13t.6 2.91q.24 1.12.54 1.66"/><path d="m537.44 194.57.36-1.55q.36-1.55.81-3.53.45-1.98.99-4.24.54-2.26.97-3.83.43-1.57.83-2.44.4-.86.94-.76.55.11 1.11.91t1.13 2.52q.57 1.73 1.09 4.07.53 2.34.89 4.13t.6 2.91q.24 1.12.54 1.66" stroke="#788492" stroke-width="4" stroke-dashoffset="none" stroke-linejoin="round" stroke-linecap="round"/></g><g fill="none" pointer-events="stroke" class="tl-centered-g"><path d="m534.96 190.26 2.71-.78q2.71-.77 5.09-1.43 2.38-.66 6.58-1.8"/><path d="m534.96 190.26 2.71-.78q2.71-.77 5.09-1.43 2.38-.66 6.58-1.8" stroke="#788492" stroke-width="4" stroke-dashoffset="none" stroke-linejoin="round" stroke-linecap="round"/></g><g fill="none" pointer-events="stroke" class="tl-centered-g"><path d="m550.81 180.94 3.16-1.03q3.17-1.02 5.52-1.66 2.35-.64 5.61-1.43"/><path d="m550.81 180.94 3.16-1.03q3.17-1.02 5.52-1.66 2.35-.64 5.61-1.43" stroke="#788492" stroke-width="4" stroke-dashoffset="none" stroke-linejoin="round" stroke-linecap="round"/></g><g fill="none" pointer-events="stroke" class="tl-centered-g"><path d="m558.64 178.46.07 3.06q.07 3.06.1 5.7.02 2.65.07 4.57.04 1.93.17 3.04.12 1.11.34 2.48"/><path d="m558.64 178.46.07 3.06q.07 3.06.1 5.7.02 2.65.07 4.57.04 1.93.17 3.04.12 1.11.34 2.48" stroke="#788492" stroke-width="4" stroke-dashoffset="none" stroke-linejoin="round" stroke-linecap="round"/></g><g fill="none" pointer-events="stroke" class="tl-centered-g"><path d="m595.76 171.22-.21 1.8q-.21 1.81-.25 4.01-.04 2.19-.06 4.41-.02 2.22-.03 4-.01 1.79-.07 2.86-.05 1.07-.24 1.55"/><path d="m595.76 171.22-.21 1.8q-.21 1.81-.25 4.01-.04 2.19-.06 4.41-.02 2.22-.03 4-.01 1.79-.07 2.86-.05 1.07-.24 1.55" stroke="#788492" stroke-width="4" stroke-dashoffset="none" stroke-linejoin="round" stroke-linecap="round"/></g><g fill="none" pointer-events="stroke" class="tl-centered-g"><path d="m582.97 176.69 2.9-1.73q2.9-1.72 5.78-3.18 2.87-1.46 5.21-2.43 2.33-.97 5.99-2.07"/><path d="m582.97 176.69 2.9-1.73q2.9-1.72 5.78-3.18 2.87-1.46 5.21-2.43 2.33-.97 5.99-2.07" stroke="#788492" stroke-width="4" stroke-dashoffset="none" stroke-linejoin="round" stroke-linecap="round"/></g><g fill="none" pointer-events="stroke" class="tl-centered-g"><path d="m603.78 175.33.27 1.55q.28 1.56.43 3.55.16 1.99.14 3.9-.02 1.92-.06 3.18-.04 1.26-.31 2.23"/><path d="m603.78 175.33.27 1.55q.28 1.56.43 3.55.16 1.99.14 3.9-.02 1.92-.06 3.18-.04 1.26-.31 2.23" stroke="#788492" stroke-width="4" stroke-dashoffset="none" stroke-linejoin="round" stroke-linecap="round"/></g><g fill="none" pointer-events="stroke" class="tl-centered-g"><path d="m600.26 183.35 2.65-.36q2.66-.35 5.12-.72 2.46-.36 4.14-.7 1.68-.34 3.98-.98"/><path d="m600.26 183.35 2.65-.36q2.66-.35 5.12-.72 2.46-.36 4.14-.7 1.68-.34 3.98-.98" stroke="#788492" stroke-width="4" stroke-dashoffset="none" stroke-linejoin="round" stroke-linecap="round"/></g><g fill="none" pointer-events="stroke" class="tl-centered-g"><path d="m616.5 172.32-.05 2.23q-.04 2.23-.01 5.01.04 2.79.11 4.94.08 2.15.24 3.64.16 1.49.49 3.34"/><path d="m616.5 172.32-.05 2.23q-.04 2.23-.01 5.01.04 2.79.11 4.94.08 2.15.24 3.64.16 1.49.49 3.34" stroke="#788492" stroke-width="4" stroke-dashoffset="none" stroke-linejoin="round" stroke-linecap="round"/></g><g fill="none" pointer-events="stroke" class="tl-centered-g"><path d="m624.33 173.37-.05 2.53q-.04 2.54-.07 4.93-.02 2.38-.01 4.04.02 1.66.07 3.75"/><path d="m624.33 173.37-.05 2.53q-.04 2.54-.07 4.93-.02 2.38-.01 4.04.02 1.66.07 3.75" stroke="#788492" stroke-width="4" stroke-dashoffset="none" stroke-linejoin="round" stroke-linecap="round"/></g><g fill="none" pointer-events="stroke" class="tl-centered-g"><path d="m621.13 175.19 2.29-.34q2.29-.34 4.62-.75 2.33-.42 4.01-.71 1.69-.29 2.64-.45.96-.16 2.08-.36"/><path d="m621.13 175.19 2.29-.34q2.29-.34 4.62-.75 2.33-.42 4.01-.71 1.69-.29 2.64-.45.96-.16 2.08-.36" stroke="#788492" stroke-width="4" stroke-dashoffset="none" stroke-linejoin="round" stroke-linecap="round"/></g><g fill="none" pointer-events="stroke" class="tl-centered-g"><path d="m621.98 183.81 2.34-.6q2.35-.6 4.19-1.04 1.84-.43 3.13-.72 1.3-.28 2.99-.66"/><path d="m621.98 183.81 2.34-.6q2.35-.6 4.19-1.04 1.84-.43 3.13-.72 1.3-.28 2.99-.66" stroke="#788492" stroke-width="4" stroke-dashoffset="none" stroke-linejoin="round" stroke-linecap="round"/></g><g fill="none" pointer-events="stroke" class="tl-centered-g"><path d="m623.41 190.78 2.55-.27q2.56-.26 5.06-.55 2.51-.29 8.25-.94"/><path d="m623.41 190.78 2.55-.27q2.56-.26 5.06-.55 2.51-.29 8.25-.94" stroke="#788492" stroke-width="4" stroke-dashoffset="none" stroke-linejoin="round" stroke-linecap="round"/></g><g fill="none" pointer-events="stroke" class="tl-centered-g"><path d="m665.62 173.17-.2 1.86q-.19 1.87-.39 4.09-.21 2.21-.18 4.17.04 1.95.54 3.2.49 1.26 1.51 1.54 1.02.29 2.36-.4 1.33-.69 2.61-2.03 1.28-1.35 2.28-3.08 1-1.74 1.6-3.63.59-1.9.86-3.45.27-1.56.29-2.49.02-.94 0-1.15-.02-.21.03.58.05.79.31 2.38.26 1.59.68 3.52.42 1.93.94 3.64.53 1.71 1.11 2.78.58 1.08 1.43 2.41"/><path d="m665.62 173.17-.2 1.86q-.19 1.87-.39 4.09-.21 2.21-.18 4.17.04 1.95.54 3.2.49 1.26 1.51 1.54 1.02.29 2.36-.4 1.33-.69 2.61-2.03 1.28-1.35 2.28-3.08 1-1.74 1.6-3.63.59-1.9.86-3.45.27-1.56.29-2.49.02-.94 0-1.15-.02-.21.03.58.05.79.31 2.38.26 1.59.68 3.52.42 1.93.94 3.64.53 1.71 1.11 2.78.58 1.08 1.43 2.41" stroke="#788492" stroke-width="4" stroke-dashoffset="none" stroke-linejoin="round" stroke-linecap="round"/></g><g fill="none" pointer-events="stroke" class="tl-centered-g"><path d="m697.26 169.39-2.05.74q-2.05.75-4.02 1.68-1.98.94-3.23 1.82-1.25.88-1.65 1.65-.4.76.13 1.56.54.81 2.3 1.72 1.76.91 3.4 1.7 1.64.79 2.8 1.66 1.15.86 1.45 1.85.31.98-.08 1.79t-1.64 1.43q-1.25.62-3.22.82-1.98.2-3.38-.07-1.39-.27-1.92-1-.52-.74-.03-2.39"/><path d="m697.26 169.39-2.05.74q-2.05.75-4.02 1.68-1.98.94-3.23 1.82-1.25.88-1.65 1.65-.4.76.13 1.56.54.81 2.3 1.72 1.76.91 3.4 1.7 1.64.79 2.8 1.66 1.15.86 1.45 1.85.31.98-.08 1.79t-1.64 1.43q-1.25.62-3.22.82-1.98.2-3.38-.07-1.39-.27-1.92-1-.52-.74-.03-2.39" stroke="#788492" stroke-width="4" stroke-dashoffset="none" stroke-linejoin="round" stroke-linecap="round"/></g><g fill="none" pointer-events="stroke" class="tl-centered-g"><path d="m705.73 170.37.33 2.24q.34 2.25.53 4.41.18 2.16.23 3.69.04 1.53.1 3.48"/><path d="m705.73 170.37.33 2.24q.34 2.25.53 4.41.18 2.16.23 3.69.04 1.53.1 3.48" stroke="#788492" stroke-width="4" stroke-dashoffset="none" stroke-linejoin="round" stroke-linecap="round"/></g><g fill="none" pointer-events="stroke" class="tl-centered-g"><path d="m701.56 172.39 2.97-.43q2.98-.42 5.53-.73 2.55-.31 4.26-.48 1.72-.17 2.77-.21 1.05-.05 2.35-.08"/><path d="m701.56 172.39 2.97-.43q2.98-.42 5.53-.73 2.55-.31 4.26-.48 1.72-.17 2.77-.21 1.05-.05 2.35-.08" stroke="#788492" stroke-width="4" stroke-dashoffset="none" stroke-linejoin="round" stroke-linecap="round"/></g><g fill="none" pointer-events="stroke" class="tl-centered-g"><path d="m706.45 180.74 2.17-.44q2.17-.44 3.98-.82 1.8-.37 3.14-.66 1.35-.3 2.15-.47.8-.18 1.66-.27"/><path d="m706.45 180.74 2.17-.44q2.17-.44 3.98-.82 1.8-.37 3.14-.66 1.35-.3 2.15-.47.8-.18 1.66-.27" stroke="#788492" stroke-width="4" stroke-dashoffset="none" stroke-linejoin="round" stroke-linecap="round"/></g><g fill="none" pointer-events="stroke" class="tl-centered-g"><path d="m706.65 186.87 2.66-.28q2.67-.28 7.5-1.01"/><path d="m706.65 186.87 2.66-.28q2.67-.28 7.5-1.01" stroke="#788492" stroke-width="4" stroke-dashoffset="none" stroke-linejoin="round" stroke-linecap="round"/></g><g fill="none" pointer-events="stroke" class="tl-centered-g"><path d="m726.35 171.41.27 2.68q.28 2.69.52 5.16.24 2.48.4 4.34.16 1.87.69 3.88"/><path d="m726.35 171.41.27 2.68q.28 2.69.52 5.16.24 2.48.4 4.34.16 1.87.69 3.88" stroke="#788492" stroke-width="4" stroke-dashoffset="none" stroke-linejoin="round" stroke-linecap="round"/></g><g fill="none" pointer-events="stroke" class="tl-centered-g"><path d="m724.91 172.65 1.92-.88q1.93-.87 3.84-1.4 1.91-.53 3.48-.55 1.57-.01 2.58.55t1.31 1.59q.29 1.02-.11 2.16-.41 1.13-1.22 2.13-.81.99-1.75 1.71-.94.73-1.75 1.23-.82.5-1.32.82-.51.32-.71.65-.19.32.14.82.34.5 1.18 1.26.84.75 1.94 1.76 1.11 1 2.23 2.08 1.12 1.08 1.98 1.92.85.85 1.74 1.83.9.97 1.46 1.54.57.57 1.37 1.24"/><path d="m724.91 172.65 1.92-.88q1.93-.87 3.84-1.4 1.91-.53 3.48-.55 1.57-.01 2.58.55t1.31 1.59q.29 1.02-.11 2.16-.41 1.13-1.22 2.13-.81.99-1.75 1.71-.94.73-1.75 1.23-.82.5-1.32.82-.51.32-.71.65-.19.32.14.82.34.5 1.18 1.26.84.75 1.94 1.76 1.11 1 2.23 2.08 1.12 1.08 1.98 1.92.85.85 1.74 1.83.9.97 1.46 1.54.57.57 1.37 1.24" stroke="#788492" stroke-width="4" stroke-dashoffset="none" stroke-linejoin="round" stroke-linecap="round"/></g><g fill="none" pointer-events="stroke" class="tl-centered-g"><path d="m518.98 211.85.31 2.91q.32 2.92.56 5.05.23 2.13.44 3.52.2 1.39.55 2.46"/><path d="m518.98 211.85.31 2.91q.32 2.92.56 5.05.23 2.13.44 3.52.2 1.39.55 2.46" stroke="#788492" stroke-width="4" stroke-dashoffset="none" stroke-linejoin="round" stroke-linecap="round"/></g><g fill="none" pointer-events="stroke" class="tl-centered-g"><path d="m516.3 212.18 2.51-.13q2.51-.13 5.2.77 2.68.91 4.52 2.42 1.83 1.5 2.8 3.28.97 1.79 1.1 3.53.12 1.74-.65 3.27-.78 1.53-2.42 2.66-1.64 1.12-3.48 1.61t-3.14.11q-1.29-.39-2.56-2.01"/><path d="m516.3 212.18 2.51-.13q2.51-.13 5.2.77 2.68.91 4.52 2.42 1.83 1.5 2.8 3.28.97 1.79 1.1 3.53.12 1.74-.65 3.27-.78 1.53-2.42 2.66-1.64 1.12-3.48 1.61t-3.14.11q-1.29-.39-2.56-2.01" stroke="#788492" stroke-width="4" stroke-dashoffset="none" stroke-linejoin="round" stroke-linecap="round"/></g><g fill="none" pointer-events="stroke" class="tl-centered-g"><path d="m538.48 212.38.39 2.65q.39 2.66.71 4.8.32 2.13.56 3.43.23 1.3.56 2.42"/><path d="m538.48 212.38.39 2.65q.39 2.66.71 4.8.32 2.13.56 3.43.23 1.3.56 2.42" stroke="#788492" stroke-width="4" stroke-dashoffset="none" stroke-linejoin="round" stroke-linecap="round"/></g><g fill="none" pointer-events="stroke" class="tl-centered-g"><path d="m535.16 210.22 1.99-.11q2-.1 4.2-.15 2.2-.06 4.1-.06 1.9 0 3.27.09 1.38.08 3.17.42"/><path d="m535.16 210.22 1.99-.11q2-.1 4.2-.15 2.2-.06 4.1-.06 1.9 0 3.27.09 1.38.08 3.17.42" stroke="#788492" stroke-width="4" stroke-dashoffset="none" stroke-linejoin="round" stroke-linecap="round"/></g><g fill="none" pointer-events="stroke" class="tl-centered-g"><path d="m540.64 218.44 2.14-.25q2.15-.25 3.83-.42 1.68-.16 4.18-.36"/><path d="m540.64 218.44 2.14-.25q2.15-.25 3.83-.42 1.68-.16 4.18-.36" stroke="#788492" stroke-width="4" stroke-dashoffset="none" stroke-linejoin="round" stroke-linecap="round"/></g><g fill="none" pointer-events="stroke" class="tl-centered-g"><path d="m540.12 225.49 2.37.21q2.38.22 4.61.21 2.24-.01 6.63-.64"/><path d="m540.12 225.49 2.37.21q2.38.22 4.61.21 2.24-.01 6.63-.64" stroke="#788492" stroke-width="4" stroke-dashoffset="none" stroke-linejoin="round" stroke-linecap="round"/></g><g fill="none" pointer-events="stroke" class="tl-centered-g"><path d="m570.05 210.03-2.28.72q-2.28.73-4.22 1.79t-3.06 2.1q-1.12 1.04-1.17 1.89-.04.85.92 1.41.97.56 2.61 1.04t3.47 1.16q1.82.68 2.92 1.4 1.1.72 1.47 1.62.38.89-.22 1.74t-1.64 1.43q-1.05.58-2.72.89-1.67.31-3.62.12-1.94-.2-3.12-.66-1.18-.46-2.08-1.68"/><path d="m570.05 210.03-2.28.72q-2.28.73-4.22 1.79t-3.06 2.1q-1.12 1.04-1.17 1.89-.04.85.92 1.41.97.56 2.61 1.04t3.47 1.16q1.82.68 2.92 1.4 1.1.72 1.47 1.62.38.89-.22 1.74t-1.64 1.43q-1.05.58-2.72.89-1.67.31-3.62.12-1.94-.2-3.12-.66-1.18-.46-2.08-1.68" stroke="#788492" stroke-width="4" stroke-dashoffset="none" stroke-linejoin="round" stroke-linecap="round"/></g><g fill="none" pointer-events="stroke" class="tl-centered-g"><path d="m589.04 211.92-2.72 1.08q-2.71 1.08-4.73 2.33-2.01 1.25-3.16 2.97-1.16 1.71-1.1 3.39.07 1.67.98 2.84.91 1.16 3.48 1.34 2.58.19 7.88-.82"/><path d="m589.04 211.92-2.72 1.08q-2.71 1.08-4.73 2.33-2.01 1.25-3.16 2.97-1.16 1.71-1.1 3.39.07 1.67.98 2.84.91 1.16 3.48 1.34 2.58.19 7.88-.82" stroke="#788492" stroke-width="4" stroke-dashoffset="none" stroke-linejoin="round" stroke-linecap="round"/></g><g fill="none" pointer-events="stroke" class="tl-centered-g"><path d="m598.1 209.44.21 2.68q.22 2.69.36 4.97.14 2.29.27 3.82.13 1.52.28 2.21.15.68.24.5.1-.18-.05-.89-.15-.71-.62-1.7-.46-.99-1.07-1.96l-1.13-1.8q-.52-.83-.81-1.53-.29-.71.27-1.71.55-1.01 1.85-1.94 1.3-.94 3.02-1.5 1.73-.55 3.35-.5 1.63.06 2.65.57 1.03.51 1.32 1.22.3.7-.03 1.41-.32.72-1.18 1.45-.86.72-1.88 1.42t-2.15 1.55q-1.13.85-1.74 1.64-.61.79-.38 1.56.23.78 1.18 1.55.95.78 2.3 1.5 1.35.72 2.8 1.34 1.45.62 2.66 1.06 1.21.44 3.13 1.05"/><path d="m598.1 209.44.21 2.68q.22 2.69.36 4.97.14 2.29.27 3.82.13 1.52.28 2.21.15.68.24.5.1-.18-.05-.89-.15-.71-.62-1.7-.46-.99-1.07-1.96l-1.13-1.8q-.52-.83-.81-1.53-.29-.71.27-1.71.55-1.01 1.85-1.94 1.3-.94 3.02-1.5 1.73-.55 3.35-.5 1.63.06 2.65.57 1.03.51 1.32 1.22.3.7-.03 1.41-.32.72-1.18 1.45-.86.72-1.88 1.42t-2.15 1.55q-1.13.85-1.74 1.64-.61.79-.38 1.56.23.78 1.18 1.55.95.78 2.3 1.5 1.35.72 2.8 1.34 1.45.62 2.66 1.06 1.21.44 3.13 1.05" stroke="#788492" stroke-width="4" stroke-dashoffset="none" stroke-linejoin="round" stroke-linecap="round"/></g><g fill="none" pointer-events="stroke" class="tl-centered-g"><path d="m620.54 208.4.32 2.1q.32 2.1.66 4.4.34 2.3.65 4.35.32 2.06.53 3.29.2 1.23.52 2.84"/><path d="m620.54 208.4.32 2.1q.32 2.1.66 4.4.34 2.3.65 4.35.32 2.06.53 3.29.2 1.23.52 2.84" stroke="#788492" stroke-width="4" stroke-dashoffset="none" stroke-linejoin="round" stroke-linecap="round"/></g><g fill="none" pointer-events="stroke" class="tl-centered-g"><path d="m633.98 208.27.16 2.42q.16 2.42.32 4.77.16 2.34.32 4.03.17 1.69.53 3.78"/><path d="m633.98 208.27.16 2.42q.16 2.42.32 4.77.16 2.34.32 4.03.17 1.69.53 3.78" stroke="#788492" stroke-width="4" stroke-dashoffset="none" stroke-linejoin="round" stroke-linecap="round"/></g><g fill="none" pointer-events="stroke" class="tl-centered-g"><path d="m631.57 206.38 1.96-.43q1.97-.43 4-.45 2.02-.03 3.46.47 1.43.51 2.08 1.44.65.92.5 1.93-.15 1-.89 1.78-.74.77-1.68 1.22-.93.44-1.57.68-.63.25-.67.37-.05.12.73.16.78.03 2.31.11 1.52.08 3.24.48 1.72.39 2.96 1.31t1.8 1.89q.55.98.32 2.04-.24 1.07-1.49 2.19-1.25 1.13-2.81 1.93-1.55.8-3.46 1.21-1.91.41-3.49.01-1.58-.4-3.01-2.36"/><path d="m631.57 206.38 1.96-.43q1.97-.43 4-.45 2.02-.03 3.46.47 1.43.51 2.08 1.44.65.92.5 1.93-.15 1-.89 1.78-.74.77-1.68 1.22-.93.44-1.57.68-.63.25-.67.37-.05.12.73.16.78.03 2.31.11 1.52.08 3.24.48 1.72.39 2.96 1.31t1.8 1.89q.55.98.32 2.04-.24 1.07-1.49 2.19-1.25 1.13-2.81 1.93-1.55.8-3.46 1.21-1.91.41-3.49.01-1.58-.4-3.01-2.36" stroke="#788492" stroke-width="4" stroke-dashoffset="none" stroke-linejoin="round" stroke-linecap="round"/></g><g fill="none" pointer-events="stroke" class="tl-centered-g"><path d="m656.94 209.38.38 2.43q.38 2.44.59 4.27.21 1.82.34 2.99.13 1.17.32 2.49"/><path d="m656.94 209.38.38 2.43q.38 2.44.59 4.27.21 1.82.34 2.99.13 1.17.32 2.49" stroke="#788492" stroke-width="4" stroke-dashoffset="none" stroke-linejoin="round" stroke-linecap="round"/></g><g fill="none" pointer-events="stroke" class="tl-centered-g"><path d="m655.51 208.14 1.95-.52q1.96-.51 3.97-.92 2.01-.42 4.1-.72t3.7-.47l3.73-.37"/><path d="m655.51 208.14 1.95-.52q1.96-.51 3.97-.92 2.01-.42 4.1-.72t3.7-.47l3.73-.37" stroke="#788492" stroke-width="4" stroke-dashoffset="none" stroke-linejoin="round" stroke-linecap="round"/></g><g fill="none" pointer-events="stroke" class="tl-centered-g"><path d="m658.38 214.72 2.65-.08q2.66-.07 4.63-.14 1.98-.07 3.13-.1l2.54-.09"/><path d="m658.38 214.72 2.65-.08q2.66-.07 4.63-.14 1.98-.07 3.13-.1l2.54-.09" stroke="#788492" stroke-width="4" stroke-dashoffset="none" stroke-linejoin="round" stroke-linecap="round"/></g><g fill="none" pointer-events="stroke" class="tl-centered-g"><path d="m657.14 223.47 2.11-.12q2.12-.12 4.28-.19 2.16-.06 4.08-.08 1.93-.02 5.38-.05"/><path d="m657.14 223.47 2.11-.12q2.12-.12 4.28-.19 2.16-.06 4.08-.08 1.93-.02 5.38-.05" stroke="#788492" stroke-width="4" stroke-dashoffset="none" stroke-linejoin="round" stroke-linecap="round"/></g><g fill="none" pointer-events="stroke" class="tl-centered-g"><path d="m695.89 204.35-2.12.52q-2.12.53-3.95 1.27-1.82.74-2.98 1.52-1.15.77-1.43 1.61-.27.84.44 1.58.71.74 2.21 1.47 1.51.73 3.21 1.59 1.71.85 2.9 1.75 1.19.89 1.77 2.15.58 1.25.37 2.48-.22 1.24-1.26 2.33t-2.46 1.8q-1.42.72-3.64.96-2.21.24-3.92.03-1.7-.2-2.21-1.19-.5-.99-.24-2.8"/><path d="m695.89 204.35-2.12.52q-2.12.53-3.95 1.27-1.82.74-2.98 1.52-1.15.77-1.43 1.61-.27.84.44 1.58.71.74 2.21 1.47 1.51.73 3.21 1.59 1.71.85 2.9 1.75 1.19.89 1.77 2.15.58 1.25.37 2.48-.22 1.24-1.26 2.33t-2.46 1.8q-1.42.72-3.64.96-2.21.24-3.92.03-1.7-.2-2.21-1.19-.5-.99-.24-2.8" stroke="#788492" stroke-width="4" stroke-dashoffset="none" stroke-linejoin="round" stroke-linecap="round"/></g><g fill="none" pointer-events="stroke" class="tl-centered-g"><path d="m918.45 175.72-.54.61q-.54.61-1.07 1.75-.53 1.15-1.05 3.19-.51 2.05-.71 3.88-.19 1.83.04 3.02.22 1.19 1.33 1.48 1.1.29 2.41-.21t2.31-1.28q1-.79 1.57-1.38.57-.6.88-.81.32-.21.55.23.23.43.56 1.16.34.72 1.21 1.65.87.92 1.93 1.48 1.07.55 2.15.58 1.09.03 1.99-.39.9-.42 1.51-1.33.6-.9.93-2.35.33-1.45.39-3.26.05-1.8-.29-3.49-.34-1.68-.84-2.87-.51-1.2-1.07-2.67"/><path d="m918.45 175.72-.54.61q-.54.61-1.07 1.75-.53 1.15-1.05 3.19-.51 2.05-.71 3.88-.19 1.83.04 3.02.22 1.19 1.33 1.48 1.1.29 2.41-.21t2.31-1.28q1-.79 1.57-1.38.57-.6.88-.81.32-.21.55.23.23.43.56 1.16.34.72 1.21 1.65.87.92 1.93 1.48 1.07.55 2.15.58 1.09.03 1.99-.39.9-.42 1.51-1.33.6-.9.93-2.35.33-1.45.39-3.26.05-1.8-.29-3.49-.34-1.68-.84-2.87-.51-1.2-1.07-2.67" stroke="#788492" stroke-width="4" stroke-dashoffset="none" stroke-linejoin="round" stroke-linecap="round"/></g><g fill="none" pointer-events="stroke" class="tl-centered-g"><path d="m943.24 176.44.1 1.72q.1 1.72.23 3.79.13 2.08.24 3.97.12 1.89.23 3.05.11 1.17.22 1.4.12.23.2-1.18"/><path d="m943.24 176.44.1 1.72q.1 1.72.23 3.79.13 2.08.24 3.97.12 1.89.23 3.05.11 1.17.22 1.4.12.23.2-1.18" stroke="#788492" stroke-width="4" stroke-dashoffset="none" stroke-linejoin="round" stroke-linecap="round"/></g><g fill="none" pointer-events="stroke" class="tl-centered-g"><path d="m939.91 182.96 1.97.26q1.97.26 3.89.32 1.92.05 3.48.01t3.84-.29"/><path d="m939.91 182.96 1.97.26q1.97.26 3.89.32 1.92.05 3.48.01t3.84-.29" stroke="#788492" stroke-width="4" stroke-dashoffset="none" stroke-linejoin="round" stroke-linecap="round"/></g><g fill="none" pointer-events="stroke" class="tl-centered-g"><path d="m954.07 173.44.35 2.9q.35 2.9.69 5.68.34 2.77.58 5.07.25 2.31.55 3.71.29 1.41.85 2.98"/><path d="m954.07 173.44.35 2.9q.35 2.9.69 5.68.34 2.77.58 5.07.25 2.31.55 3.71.29 1.41.85 2.98" stroke="#788492" stroke-width="4" stroke-dashoffset="none" stroke-linejoin="round" stroke-linecap="round"/></g><g fill="none" pointer-events="stroke" class="tl-centered-g"><path d="m961.18 190.72.93-2.59q.94-2.58 1.67-5.14.74-2.57 1.29-4.79t.93-3.54q.38-1.31.82-1.83.44-.52 1.18.18t1.41 1.96q.67 1.25 1.31 3.13.63 1.89 1.19 4.15.55 2.25.92 3.79.36 1.54.59 2.43.23.89.36 1.04.13.14.19.02"/><path d="m961.18 190.72.93-2.59q.94-2.58 1.67-5.14.74-2.57 1.29-4.79t.93-3.54q.38-1.31.82-1.83.44-.52 1.18.18t1.41 1.96q.67 1.25 1.31 3.13.63 1.89 1.19 4.15.55 2.25.92 3.79.36 1.54.59 2.43.23.89.36 1.04.13.14.19.02" stroke="#788492" stroke-width="4" stroke-dashoffset="none" stroke-linejoin="round" stroke-linecap="round"/></g><g fill="none" pointer-events="stroke" class="tl-centered-g"><path d="m964.31 185.83 2.32-.65q2.32-.64 4.36-1.27 2.04-.63 4.17-1.29 2.14-.66 5.33-1.63"/><path d="m964.31 185.83 2.32-.65q2.32-.64 4.36-1.27 2.04-.63 4.17-1.29 2.14-.66 5.33-1.63" stroke="#788492" stroke-width="4" stroke-dashoffset="none" stroke-linejoin="round" stroke-linecap="round"/></g><g fill="none" pointer-events="stroke" class="tl-centered-g"><path d="m976.25 174.22 2.42-.47q2.42-.47 4.88-.8 2.47-.33 4.31-.51 1.84-.18 3.06-.2 1.22-.01 2.57 0"/><path d="m976.25 174.22 2.42-.47q2.42-.47 4.88-.8 2.47-.33 4.31-.51 1.84-.18 3.06-.2 1.22-.01 2.57 0" stroke="#788492" stroke-width="4" stroke-dashoffset="none" stroke-linejoin="round" stroke-linecap="round"/></g><g fill="none" pointer-events="stroke" class="tl-centered-g"><path d="m986.29 172.26-.08 2.01q-.07 2.02-.14 4.39-.07 2.37-.12 4.62-.05 2.26-.02 3.82.03 1.57.52 3.34"/><path d="m986.29 172.26-.08 2.01q-.07 2.02-.14 4.39-.07 2.37-.12 4.62-.05 2.26-.02 3.82.03 1.57.52 3.34" stroke="#788492" stroke-width="4" stroke-dashoffset="none" stroke-linejoin="round" stroke-linecap="round"/></g><g fill="none" pointer-events="stroke" class="tl-centered-g"><path d="m1016.37 173.63-.6.19q-.6.19-.82.29-.21.11.56.05t2.39-.36q1.63-.29 3.38-.61 1.76-.33 3.58-.59 1.82-.27 3.11-.42 1.3-.14 2-.15.7-.01.73.17.02.19-.57.68"/><path d="m1016.37 173.63-.6.19q-.6.19-.82.29-.21.11.56.05t2.39-.36q1.63-.29 3.38-.61 1.76-.33 3.58-.59 1.82-.27 3.11-.42 1.3-.14 2-.15.7-.01.73.17.02.19-.57.68" stroke="#788492" stroke-width="4" stroke-dashoffset="none" stroke-linejoin="round" stroke-linecap="round"/></g><g fill="none" pointer-events="stroke" class="tl-centered-g"><path d="m1025.37 174.09-.2 2.01q-.19 2.01-.32 4.34-.13 2.32-.25 4.19-.12 1.87-.21 3.03-.1 1.16.01 1.54.11.38.34.69"/><path d="m1025.37 174.09-.2 2.01q-.19 2.01-.32 4.34-.13 2.32-.25 4.19-.12 1.87-.21 3.03-.1 1.16.01 1.54.11.38.34.69" stroke="#788492" stroke-width="4" stroke-dashoffset="none" stroke-linejoin="round" stroke-linecap="round"/></g><g fill="none" pointer-events="stroke" class="tl-centered-g"><path d="m1036.59 172.13.14 2.43q.15 2.44.23 4.71.08 2.26.12 3.94.05 1.68.1 3.62"/><path d="m1036.59 172.13.14 2.43q.15 2.44.23 4.71.08 2.26.12 3.94.05 1.68.1 3.62" stroke="#788492" stroke-width="4" stroke-dashoffset="none" stroke-linejoin="round" stroke-linecap="round"/></g><g fill="none" pointer-events="stroke" class="tl-centered-g"><path d="m1031.24 181.07 2.42-.35q2.42-.35 4.46-.66 2.04-.32 3.59-.5 1.55-.19 2.49-.26.95-.07 2.11-.1"/><path d="m1031.24 181.07 2.42-.35q2.42-.35 4.46-.66 2.04-.32 3.59-.5 1.55-.19 2.49-.26.95-.07 2.11-.1" stroke="#788492" stroke-width="4" stroke-dashoffset="none" stroke-linejoin="round" stroke-linecap="round"/></g><g fill="none" pointer-events="stroke" class="tl-centered-g"><path d="m1048.39 169.98.19 1.91q.19 1.91.29 4.15.11 2.24.09 4.45-.01 2.22-.11 3.97l-.16 2.77q-.07 1.02.11 1.8"/><path d="m1048.39 169.98.19 1.91q.19 1.91.29 4.15.11 2.24.09 4.45-.01 2.22-.11 3.97l-.16 2.77q-.07 1.02.11 1.8" stroke="#788492" stroke-width="4" stroke-dashoffset="none" stroke-linejoin="round" stroke-linecap="round"/></g><g fill="none" pointer-events="stroke" class="tl-centered-g"><path d="m1055.7 170.37.59 2.32q.6 2.32.86 4.55t.38 3.84q.13 1.61.22 2.36.08.74.32.88"/><path d="m1055.7 170.37.59 2.32q.6 2.32.86 4.55t.38 3.84q.13 1.61.22 2.36.08.74.32.88" stroke="#788492" stroke-width="4" stroke-dashoffset="none" stroke-linejoin="round" stroke-linecap="round"/></g><g fill="none" pointer-events="stroke" class="tl-centered-g"><path d="m1054.27 172.13 2.56-.37q2.57-.36 4.79-.73 2.22-.36 3.8-.57 1.58-.22 2.46-.19.89.03 1.27.55"/><path d="m1054.27 172.13 2.56-.37q2.57-.36 4.79-.73 2.22-.36 3.8-.57 1.58-.22 2.46-.19.89.03 1.27.55" stroke="#788492" stroke-width="4" stroke-dashoffset="none" stroke-linejoin="round" stroke-linecap="round"/></g><g fill="none" pointer-events="stroke" class="tl-centered-g"><path d="m1056.35 180.48 2.2-.17q2.2-.16 3.7-.25 1.49-.09 2.36-.08.87.01 1.21.27.33.25.44.43.12.19.16.51"/><path d="m1056.35 180.48 2.2-.17q2.2-.16 3.7-.25 1.49-.09 2.36-.08.87.01 1.21.27.33.25.44.43.12.19.16.51" stroke="#788492" stroke-width="4" stroke-dashoffset="none" stroke-linejoin="round" stroke-linecap="round"/></g><g fill="none" pointer-events="stroke" class="tl-centered-g"><path d="m1057.39 186.88 2.64.33q2.64.34 5.12.32 2.48-.02 6.95-.5"/><path d="m1057.39 186.88 2.64.33q2.64.34 5.12.32 2.48-.02 6.95-.5" stroke="#788492" stroke-width="4" stroke-dashoffset="none" stroke-linejoin="round" stroke-linecap="round"/></g><g fill="none" pointer-events="stroke" class="tl-centered-g"><path d="m1102.8 172.07-.58 2.45q-.57 2.45-1.04 4.84-.47 2.39-.71 4.06-.23 1.67.16 2.7.4 1.02 1.48 1.41 1.08.4 2.38.45 1.29.06 2.83.03 1.53-.03 2.78-.07 1.24-.05 2.14-.13.91-.08 2.45-.61"/><path d="m1102.8 172.07-.58 2.45q-.57 2.45-1.04 4.84-.47 2.39-.71 4.06-.23 1.67.16 2.7.4 1.02 1.48 1.41 1.08.4 2.38.45 1.29.06 2.83.03 1.53-.03 2.78-.07 1.24-.05 2.14-.13.91-.08 2.45-.61" stroke="#788492" stroke-width="4" stroke-dashoffset="none" stroke-linejoin="round" stroke-linecap="round"/></g><g fill="none" pointer-events="stroke" class="tl-centered-g"><path d="m1122.76 172 .04 2.04q.04 2.04.06 4.4.03 2.35.13 4.56.1 2.2.58 5.06"/><path d="m1122.76 172 .04 2.04q.04 2.04.06 4.4.03 2.35.13 4.56.1 2.2.58 5.06" stroke="#788492" stroke-width="4" stroke-dashoffset="none" stroke-linejoin="round" stroke-linecap="round"/></g><g fill="none" pointer-events="stroke" class="tl-centered-g"><path d="m1134.76 168.22.1 2.43q.1 2.44.04 4.94-.06 2.5-.14 4.45-.07 1.95-.04 4.23"/><path d="m1134.76 168.22.1 2.43q.1 2.44.04 4.94-.06 2.5-.14 4.45-.07 1.95-.04 4.23" stroke="#788492" stroke-width="4" stroke-dashoffset="none" stroke-linejoin="round" stroke-linecap="round"/></g><g fill="none" pointer-events="stroke" class="tl-centered-g"><path d="m1133.71 171.09 2-.66q2-.66 3.61-.44 1.62.22 2.5 1.1.88.88.91 2 .03 1.11-.46 1.99-.49.88-1.17 1.38-.68.5-1.15.78-.46.27-.48.44-.03.16.59.43.61.27 1.7.81 1.08.55 2.23 1.34 1.16.79 1.9 1.8t.82 2.1q.09 1.08-.5 1.97-.6.89-1.7 1.42-1.1.54-2.38.5-1.28-.04-2.2-.88-.93-.83-1.72-3.27"/><path d="m1133.71 171.09 2-.66q2-.66 3.61-.44 1.62.22 2.5 1.1.88.88.91 2 .03 1.11-.46 1.99-.49.88-1.17 1.38-.68.5-1.15.78-.46.27-.48.44-.03.16.59.43.61.27 1.7.81 1.08.55 2.23 1.34 1.16.79 1.9 1.8t.82 2.1q.09 1.08-.5 1.97-.6.89-1.7 1.42-1.1.54-2.38.5-1.28-.04-2.2-.88-.93-.83-1.72-3.27" stroke="#788492" stroke-width="4" stroke-dashoffset="none" stroke-linejoin="round" stroke-linecap="round"/></g><g fill="none" pointer-events="stroke" class="tl-centered-g"><path d="m1156.68 168.42-.4 2.53q-.39 2.54-.86 5.24-.46 2.7-.8 4.82-.33 2.13-.45 3.25-.13 1.13-.12 1.08l.01-1.01q0-.96-.06-2.58-.06-1.63-.03-3.42t.6-3.3q.57-1.52 1.96-2.54 1.39-1.03 3.33-1.41 1.94-.37 3.51.05 1.56.42 2.18 1.41.62.99.2 2.12-.41 1.13-1.46 2.09t-2.29 1.71q-1.23.75-2.12 1.4-.89.65-1.03 1.36-.14.7.68 1.55.81.84 2.21 1.82 1.39.98 2.82 1.96 1.43.97 4.44 2.51"/><path d="m1156.68 168.42-.4 2.53q-.39 2.54-.86 5.24-.46 2.7-.8 4.82-.33 2.13-.45 3.25-.13 1.13-.12 1.08l.01-1.01q0-.96-.06-2.58-.06-1.63-.03-3.42t.6-3.3q.57-1.52 1.96-2.54 1.39-1.03 3.33-1.41 1.94-.37 3.51.05 1.56.42 2.18 1.41.62.99.2 2.12-.41 1.13-1.46 2.09t-2.29 1.71q-1.23.75-2.12 1.4-.89.65-1.03 1.36-.14.7.68 1.55.81.84 2.21 1.82 1.39.98 2.82 1.96 1.43.97 4.44 2.51" stroke="#788492" stroke-width="4" stroke-dashoffset="none" stroke-linejoin="round" stroke-linecap="round"/></g><g fill="none" pointer-events="stroke" class="tl-centered-g"><path d="m1179.38 187.79.39-1.84q.39-1.84.95-3.94.55-2.1 1.15-4.26.6-2.17 1.09-3.89.49-1.72.87-2.73.39-1.01.82-1.01.44-.01.84 1.14.4 1.15.62 3.19.22 2.04.2 4.49-.03 2.45-.09 4.44-.05 1.98-.12 4.4"/><path d="m1179.38 187.79.39-1.84q.39-1.84.95-3.94.55-2.1 1.15-4.26.6-2.17 1.09-3.89.49-1.72.87-2.73.39-1.01.82-1.01.44-.01.84 1.14.4 1.15.62 3.19.22 2.04.2 4.49-.03 2.45-.09 4.44-.05 1.98-.12 4.4" stroke="#788492" stroke-width="4" stroke-dashoffset="none" stroke-linejoin="round" stroke-linecap="round"/></g><g fill="none" pointer-events="stroke" class="tl-centered-g"><path d="m1180.75 182.24 2.4-.68q2.41-.67 4.81-1.14 2.39-.47 5.87-1.05"/><path d="m1180.75 182.24 2.4-.68q2.41-.67 4.81-1.14 2.39-.47 5.87-1.05" stroke="#788492" stroke-width="4" stroke-dashoffset="none" stroke-linejoin="round" stroke-linecap="round"/></g><g fill="none" pointer-events="stroke" class="tl-centered-g"><path d="m1193.53 171.22.8 1.83q.8 1.84 1.25 3.65.44 1.8.67 3.56.23 1.75.78 3.95"/><path d="m1193.53 171.22.8 1.83q.8 1.84 1.25 3.65.44 1.8.67 3.56.23 1.75.78 3.95" stroke="#788492" stroke-width="4" stroke-dashoffset="none" stroke-linejoin="round" stroke-linecap="round"/></g><g fill="none" pointer-events="stroke" class="tl-centered-g"><path d="m1194.32 173.44 2.65-1.36q2.66-1.36 4.91-2.02 2.26-.67 3.97-.39 1.71.27 2.34 1.04.62.76.12 1.76-.5.99-1.78 1.89-1.29.9-2.84 1.57-1.56.67-2.72 1.14-1.17.48-1.65.99-.49.51-.01 1.07.48.55 1.5 1.1 1.02.54 2.56 1.3 1.55.77 2.95 1.43 1.41.65 3.8 1.46"/><path d="m1194.32 173.44 2.65-1.36q2.66-1.36 4.91-2.02 2.26-.67 3.97-.39 1.71.27 2.34 1.04.62.76.12 1.76-.5.99-1.78 1.89-1.29.9-2.84 1.57-1.56.67-2.72 1.14-1.17.48-1.65.99-.49.51-.01 1.07.48.55 1.5 1.1 1.02.54 2.56 1.3 1.55.77 2.95 1.43 1.41.65 3.8 1.46" stroke="#788492" stroke-width="4" stroke-dashoffset="none" stroke-linejoin="round" stroke-linecap="round"/></g><g fill="none" pointer-events="stroke" class="tl-centered-g"><path d="m1217.34 171.35 1.24 2.13q1.24 2.13 2.8 6.19"/><path d="m1217.34 171.35 1.24 2.13q1.24 2.13 2.8 6.19" stroke="#788492" stroke-width="4" stroke-dashoffset="none" stroke-linejoin="round" stroke-linecap="round"/></g><g fill="none" pointer-events="stroke" class="tl-centered-g"><path d="m1218.32 195.03 1.82-3.1q1.82-3.09 3.76-6.5 1.95-3.4 3.55-6.43 1.6-3.04 2.77-5.72 1.17-2.68 1.84-4.4.66-1.72 1.38-3.84"/><path d="m1218.32 195.03 1.82-3.1q1.82-3.09 3.76-6.5 1.95-3.4 3.55-6.43 1.6-3.04 2.77-5.72 1.17-2.68 1.84-4.4.66-1.72 1.38-3.84" stroke="#788492" stroke-width="4" stroke-dashoffset="none" stroke-linejoin="round" stroke-linecap="round"/></g><g fill="none" pointer-events="stroke" class="tl-centered-g"><path d="m977.75 211.4-2.08.48q-2.07.48-3.65 1.01-1.59.53-2.59 1.17-1.01.64-1.13 1.32-.11.67.67 1.35t2.13 1.5q1.35.81 2.72 1.74 1.38.93 2.26 1.96.87 1.02 1.11 1.97.23.95-.16 1.66-.4.71-1.46 1.12-1.07.41-2.78.5-1.71.09-3.59-.12t-3.15-.62q-1.27-.4-1.87-1.72"/><path d="m977.75 211.4-2.08.48q-2.07.48-3.65 1.01-1.59.53-2.59 1.17-1.01.64-1.13 1.32-.11.67.67 1.35t2.13 1.5q1.35.81 2.72 1.74 1.38.93 2.26 1.96.87 1.02 1.11 1.97.23.95-.16 1.66-.4.71-1.46 1.12-1.07.41-2.78.5-1.71.09-3.59-.12t-3.15-.62q-1.27-.4-1.87-1.72" stroke="#788492" stroke-width="4" stroke-dashoffset="none" stroke-linejoin="round" stroke-linecap="round"/></g><g fill="none" pointer-events="stroke" class="tl-centered-g"><path d="m982.97 213.42.37 2.04q.38 2.05.61 4.39.22 2.34.34 4.32.13 1.98.2 3.16.07 1.18.1 1.38.04.2.05-.47"/><path d="m982.97 213.42.37 2.04q.38 2.05.61 4.39.22 2.34.34 4.32.13 1.98.2 3.16.07 1.18.1 1.38.04.2.05-.47" stroke="#788492" stroke-width="4" stroke-dashoffset="none" stroke-linejoin="round" stroke-linecap="round"/></g><g fill="none" pointer-events="stroke" class="tl-centered-g"><path d="m977.56 221.05 2.96-.21q2.96-.2 5.36-.31 2.39-.12 4.03-.22 1.65-.11 3.78-.3"/><path d="m977.56 221.05 2.96-.21q2.96-.2 5.36-.31 2.39-.12 4.03-.22 1.65-.11 3.78-.3" stroke="#788492" stroke-width="4" stroke-dashoffset="none" stroke-linejoin="round" stroke-linecap="round"/></g><g fill="none" pointer-events="stroke" class="tl-centered-g"><path d="m994.91 210.55.02 2.33q.03 2.34.12 4.94.09 2.6.24 4.89.15 2.28.41 3.77.26 1.48.46 2.3.2.81.51 1.82"/><path d="m994.91 210.55.02 2.33q.03 2.34.12 4.94.09 2.6.24 4.89.15 2.28.41 3.77.26 1.48.46 2.3.2.81.51 1.82" stroke="#788492" stroke-width="4" stroke-dashoffset="none" stroke-linejoin="round" stroke-linecap="round"/></g><g fill="none" pointer-events="stroke" class="tl-centered-g"><path d="m1006.13 223.66-1.01-1.16q-1.01-1.15-1.44-2.65-.42-1.5-.12-3.07.31-1.57 1.35-2.79 1.05-1.22 2.56-1.61 1.51-.4 2.97.19 1.47.58 2.39 1.94.92 1.36 1.2 3.01.28 1.66-.12 3.14-.4 1.49-1.43 2.45-1.02.97-2.48 1.31-1.46.35-2.67-.08-1.21-.42-2.03-2.73"/><path d="m1006.13 223.66-1.01-1.16q-1.01-1.15-1.44-2.65-.42-1.5-.12-3.07.31-1.57 1.35-2.79 1.05-1.22 2.56-1.61 1.51-.4 2.97.19 1.47.58 2.39 1.94.92 1.36 1.2 3.01.28 1.66-.12 3.14-.4 1.49-1.43 2.45-1.02.97-2.48 1.31-1.46.35-2.67-.08-1.21-.42-2.03-2.73" stroke="#788492" stroke-width="4" stroke-dashoffset="none" stroke-linejoin="round" stroke-linecap="round"/></g><g fill="none" pointer-events="stroke" class="tl-centered-g"><path d="m1021.65 212.57-.46 2.55q-.45 2.56-.64 4.9-.19 2.35.23 3.95.42 1.6 1.52 2.2 1.11.59 2.61.11 1.51-.47 2.96-1.7 1.46-1.22 2.53-2.79 1.07-1.57 1.67-3.13.61-1.57.87-2.77t.39-1.89q.13-.69.23-.67.1.02.36.9.26.87.58 2.35.32 1.48.68 3.16.37 1.67.88 2.98.51 1.3 1.46 2.98"/><path d="m1021.65 212.57-.46 2.55q-.45 2.56-.64 4.9-.19 2.35.23 3.95.42 1.6 1.52 2.2 1.11.59 2.61.11 1.51-.47 2.96-1.7 1.46-1.22 2.53-2.79 1.07-1.57 1.67-3.13.61-1.57.87-2.77t.39-1.89q.13-.69.23-.67.1.02.36.9.26.87.58 2.35.32 1.48.68 3.16.37 1.67.88 2.98.51 1.3 1.46 2.98" stroke="#788492" stroke-width="4" stroke-dashoffset="none" stroke-linejoin="round" stroke-linecap="round"/></g><g fill="none" pointer-events="stroke" class="tl-centered-g"><path d="m1044.74 212.05-.06 1.7q-.06 1.71-.11 3.34t.05 3.15q.09 1.51.53 2.62.45 1.12 1.04 1.73.6.62 1.69.82 1.09.21 2.29.18t2.28-.15q1.09-.12 2.17-.32 1.08-.19 1.85-.3.78-.11 1.2-.11.43 0 .96.1"/><path d="m1044.74 212.05-.06 1.7q-.06 1.71-.11 3.34t.05 3.15q.09 1.51.53 2.62.45 1.12 1.04 1.73.6.62 1.69.82 1.09.21 2.29.18t2.28-.15q1.09-.12 2.17-.32 1.08-.19 1.85-.3.78-.11 1.2-.11.43 0 .96.1" stroke="#788492" stroke-width="4" stroke-dashoffset="none" stroke-linejoin="round" stroke-linecap="round"/></g><g fill="none" pointer-events="stroke" class="tl-centered-g"><path d="m1066.4 213.16-.17 2.33q-.16 2.34-.23 4.39t-.07 3.89q0 1.85.18 2.84.17 1 .59 1.9"/><path d="m1066.4 213.16-.17 2.33q-.16 2.34-.23 4.39t-.07 3.89q0 1.85.18 2.84.17 1 .59 1.9" stroke="#788492" stroke-width="4" stroke-dashoffset="none" stroke-linejoin="round" stroke-linecap="round"/></g><g fill="none" pointer-events="stroke" class="tl-centered-g"><path d="m1061.25 212.51 3.18-.03q3.18-.03 6.03.45t4.75 1.25q1.89.78 2.96 2.16 1.06 1.37 1.25 2.89.2 1.52-.32 2.96-.53 1.44-1.59 2.57t-2.61 1.87q-1.55.75-3.21.99-1.66.25-2.67-.3-1.02-.55-1.86-1.91"/><path d="m1061.25 212.51 3.18-.03q3.18-.03 6.03.45t4.75 1.25q1.89.78 2.96 2.16 1.06 1.37 1.25 2.89.2 1.52-.32 2.96-.53 1.44-1.59 2.57t-2.61 1.87q-1.55.75-3.21.99-1.66.25-2.67-.3-1.02-.55-1.86-1.91" stroke="#788492" stroke-width="4" stroke-dashoffset="none" stroke-linejoin="round" stroke-linecap="round"/></g><g fill="none" pointer-events="stroke" class="tl-centered-g"><path d="m1116.24 209.44.15 1.31q.16 1.32.25 3.06.09 1.75.14 3.49.05 1.74.07 2.99.03 1.25.04 1.86.02.6.01.34"/><path d="m1116.24 209.44.15 1.31q.16 1.32.25 3.06.09 1.75.14 3.49.05 1.74.07 2.99.03 1.25.04 1.86.02.6.01.34" stroke="#788492" stroke-width="4" stroke-dashoffset="none" stroke-linejoin="round" stroke-linecap="round"/></g><g fill="none" pointer-events="stroke" class="tl-centered-g"><path d="m1115 213.42 1.85-1.9q1.85-1.9 3.91-3.11 2.06-1.2 3.81-1.43 1.75-.24 2.88.56 1.13.79 1.47 2.06.35 1.27.04 2.5-.3 1.22-1.11 2.06-.81.84-2.27 1.34-1.45.49-2.77.76-1.31.27-2.11.42-.8.15-1.04.34-.24.18.74.8.98.61 2.31 1.39 1.33.77 2.9 1.92 1.56 1.14 2.86 2.42 1.31 1.27 2.04 2.12.73.85 1.14 1.29.4.44.9.82"/><path d="m1115 213.42 1.85-1.9q1.85-1.9 3.91-3.11 2.06-1.2 3.81-1.43 1.75-.24 2.88.56 1.13.79 1.47 2.06.35 1.27.04 2.5-.3 1.22-1.11 2.06-.81.84-2.27 1.34-1.45.49-2.77.76-1.31.27-2.11.42-.8.15-1.04.34-.24.18.74.8.98.61 2.31 1.39 1.33.77 2.9 1.92 1.56 1.14 2.86 2.42 1.31 1.27 2.04 2.12.73.85 1.14 1.29.4.44.9.82" stroke="#788492" stroke-width="4" stroke-dashoffset="none" stroke-linejoin="round" stroke-linecap="round"/></g><g fill="none" pointer-events="stroke" class="tl-centered-g"><path d="m1141.22 210.55-.69.9q-.69.91-1.18 2.71-.5 1.79-.41 3.5.09 1.71.7 2.91.6 1.19 2.26 1.6 1.67.41 3.58.02 1.91-.38 3.42-1.16 1.5-.78 2.67-2.3 1.17-1.51 1.85-3.27.67-1.75.89-3.33.21-1.59.19-2.65-.01-1.07-.05-1.48-.03-.41-.05-.07-.02.34.17 1.96.19 1.62.38 3.84.2 2.22.38 4.27.18 2.05 1.15 5.55"/><path d="m1141.22 210.55-.69.9q-.69.91-1.18 2.71-.5 1.79-.41 3.5.09 1.71.7 2.91.6 1.19 2.26 1.6 1.67.41 3.58.02 1.91-.38 3.42-1.16 1.5-.78 2.67-2.3 1.17-1.51 1.85-3.27.67-1.75.89-3.33.21-1.59.19-2.65-.01-1.07-.05-1.48-.03-.41-.05-.07-.02.34.17 1.96.19 1.62.38 3.84.2 2.22.38 4.27.18 2.05 1.15 5.55" stroke="#788492" stroke-width="4" stroke-dashoffset="none" stroke-linejoin="round" stroke-linecap="round"/></g><g fill="none" pointer-events="stroke" class="tl-centered-g"><path d="m1166.27 210.42-.4 1.66q-.4 1.66-.89 3.64-.5 1.97-.83 3.64-.33 1.67-.41 2.67-.08 1 .15 1.05.23.05.56-.71.33-.75.59-2.05.26-1.3.4-2.78.14-1.49.14-2.82-.01-1.34-.08-2.28-.06-.94.02-1.14.08-.2.48.29.4.49 1.08 1.52.69 1.03 1.63 2.37.95 1.34 2.19 2.68t2.59 2.3q1.36.96 2.63 1.45 1.28.49 2.3.43 1.03-.05 1.76-.62.72-.57 1.12-1.69.4-1.12.41-2.71 0-1.6-.43-3.44-.44-1.84-1.16-3.52t-1.41-2.95q-.7-1.28-1.68-3.02"/><path d="m1166.27 210.42-.4 1.66q-.4 1.66-.89 3.64-.5 1.97-.83 3.64-.33 1.67-.41 2.67-.08 1 .15 1.05.23.05.56-.71.33-.75.59-2.05.26-1.3.4-2.78.14-1.49.14-2.82-.01-1.34-.08-2.28-.06-.94.02-1.14.08-.2.48.29.4.49 1.08 1.52.69 1.03 1.63 2.37.95 1.34 2.19 2.68t2.59 2.3q1.36.96 2.63 1.45 1.28.49 2.3.43 1.03-.05 1.76-.62.72-.57 1.12-1.69.4-1.12.41-2.71 0-1.6-.43-3.44-.44-1.84-1.16-3.52t-1.41-2.95q-.7-1.28-1.68-3.02" stroke="#788492" stroke-width="4" stroke-dashoffset="none" stroke-linejoin="round" stroke-linecap="round"/></g><g fill="none" pointer-events="stroke" class="tl-centered-g"><path d="m1137.63 216.55.39-1.43q.39-1.43.73-2.79.33-1.36.59-2.46.26-1.1.46-1.87t.54-1.29q.35-.51 1.1-1.17"/><path d="m1137.63 216.55.39-1.43q.39-1.43.73-2.79.33-1.36.59-2.46.26-1.1.46-1.87t.54-1.29q.35-.51 1.1-1.17" stroke="#788492" stroke-width="4" stroke-dashoffset="none" stroke-linejoin="round" stroke-linecap="round"/></g></svg>
